<svg width="441" height="370" viewBox="0 0 441 370" fill="none" xmlns="http://www.w3.org/2000/svg">
<g clip-path="url(#clip0_30_895)">
<g style="mix-blend-mode:multiply" opacity="0.4">
<path d="M350.86 324.536C350.86 332.196 286.12 338.406 206.27 338.406C126.42 338.406 61.6797 332.196 61.6797 324.536C61.6797 316.876 126.41 310.666 206.27 310.666C286.13 310.666 350.86 316.876 350.86 324.536Z" fill="#B8BD6F"/>
</g>
<path d="M381.53 93.5958C379.5 97.5558 359.5 94.6758 341.35 84.8958C323.2 75.1158 310.06 66.1858 313.29 60.1858C316.52 54.1858 333.86 57.2558 352 67.0358C370.15 76.8158 388.09 80.7958 381.53 93.5958Z" fill="#321638"/>
<path d="M259.97 318.836H211.71H210.81H162.54L148.09 333.566H210.81H211.71H274.42L259.97 318.836Z" fill="#F9F3DF"/>
<path d="M274.42 333.566H148.09V337.296H274.42V333.566Z" fill="#D9E5DE"/>
<path d="M249.569 278.456H211.479H211.029H172.939L166.709 321.526H211.029H211.479H255.799L249.569 278.456Z" fill="#D9E5DE"/>
<g style="mix-blend-mode:multiply">
<path d="M170.629 294.456H251.889L249.089 277.566H173.199L170.629 294.456Z" fill="#D9E5DE"/>
</g>
<path d="M373.95 250.006V75.6158C373.95 68.6158 368.28 62.9358 361.27 62.9358H60.9495C53.9495 62.9358 48.2695 68.6158 48.2695 75.6158V250.006H373.95Z" fill="#F9F3DF"/>
<path d="M65.0088 69.7258H357.219C362.169 69.7258 366.179 73.7458 366.179 78.6858V267.306C366.179 272.256 362.159 276.266 357.219 276.266H65.0088C60.0588 276.266 56.0488 272.246 56.0488 267.306V78.6858C56.0488 73.7358 60.0688 69.7258 65.0088 69.7258Z" fill="#1A73E8"/>
<path d="M66.579 69.9558H355.649C360.539 69.9558 364.519 73.9258 364.519 78.8258V265.416C364.519 270.306 360.549 274.286 355.649 274.286H66.579C61.689 274.286 57.709 270.316 57.709 265.416V78.8158C57.709 73.9258 61.679 69.9458 66.579 69.9458V69.9558Z" fill="#1A73E8"/>
<path d="M365.909 244.626H56.5391V247.326H365.909V244.626Z" fill="#1A73E8"/>
<path d="M48.2695 246.626V262.686C48.2695 274.356 57.7295 283.816 69.3995 283.816H352.82C364.49 283.816 373.95 274.356 373.95 262.686V246.626H48.2695Z" fill="#F9F3DF"/>
<path d="M120.999 131.766C120.999 144.686 110.529 155.156 97.6087 155.156C84.6887 155.156 74.2188 144.686 74.2188 131.766C74.2188 118.846 84.6887 108.376 97.6087 108.376C110.529 108.376 120.999 118.846 120.999 131.766Z" fill="#F9F3DF"/>
<path d="M118.158 131.766C118.158 143.116 108.958 152.306 97.6181 152.306C86.2781 152.306 77.0781 143.106 77.0781 131.766C77.0781 120.426 86.2781 111.226 97.6181 111.226C108.958 111.226 118.158 120.426 118.158 131.766Z" fill="url(#paint0_linear_30_895)"/>
<path d="M101.569 128.426C103.399 127.166 104.599 125.056 104.599 122.666C104.599 118.806 101.469 115.676 97.6085 115.676C93.7485 115.676 90.6185 118.806 90.6185 122.666C90.6185 125.056 91.8185 127.166 93.6485 128.426C87.1185 129.946 81.8385 135.116 79.7285 141.896C83.2585 148.116 89.9485 152.306 97.6085 152.306C105.269 152.306 111.959 148.106 115.489 141.886C113.369 135.106 108.089 129.936 101.569 128.416V128.426Z" fill="#1A73E8"/>
<path opacity="0.5" d="M132.839 93.4358C132.839 97.2458 129.749 100.346 125.929 100.346H69.2889C65.4789 100.346 62.3789 97.2558 62.3789 93.4358C62.3789 89.6258 65.4689 86.5258 69.2889 86.5258H125.929C129.739 86.5258 132.839 89.6158 132.839 93.4358Z" fill="#DBBAE5"/>
<path opacity="0.5" d="M127.759 163.346H67.459V167.856H127.759V163.346Z" fill="#DBBAE5"/>
<path opacity="0.5" d="M127.759 174.146H67.459V178.656H127.759V174.146Z" fill="#DBBAE5"/>
<g opacity="0.5">
<path opacity="0.5" d="M127.738 188.536H68.1582V190.456H127.738V188.536Z" fill="#DBBAE5"/>
<path opacity="0.5" d="M127.738 193.126H68.1582V195.046H127.738V193.126Z" fill="#DBBAE5"/>
<path opacity="0.5" d="M127.738 200.316H68.1582V202.236H127.738V200.316Z" fill="#DBBAE5"/>
<path opacity="0.5" d="M127.738 204.896H68.1582V206.806H127.738V204.896Z" fill="#DBBAE5"/>
</g>
<g opacity="0.5">
<path opacity="0.5" d="M127.738 212.136H68.1582V214.056H127.738V212.136Z" fill="#DBBAE5"/>
<path opacity="0.5" d="M127.738 216.716H68.1582V218.636H127.738V216.716Z" fill="#DBBAE5"/>
<path opacity="0.5" d="M127.738 223.906H68.1582V225.826H127.738V223.906Z" fill="#DBBAE5"/>
<path opacity="0.5" d="M127.738 228.486H68.1582V230.396H127.738V228.486Z" fill="#DBBAE5"/>
</g>
<path opacity="0.4" d="M318.42 93.8758H347.15C352.34 93.8758 356.56 98.0958 356.56 103.286V213.656C356.56 218.846 352.34 223.066 347.15 223.066H318.42C313.23 223.066 309.01 218.846 309.01 213.656V103.286C309.01 98.0858 313.23 93.8758 318.42 93.8758Z" stroke="#F9F3DF" stroke-width="0.5" stroke-miterlimit="10"/>
<path opacity="0.5" d="M318.659 124.266H345.579C347.539 124.266 349.129 125.856 349.129 127.816V142.696C349.129 144.656 347.539 146.246 345.579 146.246H318.659C316.699 146.246 315.109 144.656 315.109 142.696V127.816C315.109 125.856 316.699 124.266 318.659 124.266Z" fill="#DBBAE5"/>
<path d="M327.799 128.226V141.556L340.449 134.886L328.069 128.226" fill="white"/>
<path opacity="0.5" d="M346.91 161.936H319.98C318.02 161.936 316.43 163.526 316.43 165.486V180.366C316.43 182.326 318.02 183.916 319.98 183.916H339.58L345.69 192.676V183.916H346.91C348.87 183.916 350.46 182.326 350.46 180.366V165.486C350.46 163.526 348.87 161.936 346.91 161.936Z" fill="#DBBAE5"/>
<path d="M326.89 171.646C326.89 172.586 326.13 173.346 325.19 173.346C324.25 173.346 323.5 172.586 323.5 171.646C323.5 170.706 324.26 169.946 325.19 169.946C326.12 169.946 326.89 170.706 326.89 171.646Z" fill="white"/>
<path d="M335.14 171.646C335.14 172.586 334.38 173.346 333.44 173.346C332.5 173.346 331.74 172.586 331.74 171.646C331.74 170.706 332.5 169.946 333.44 169.946C334.38 169.946 335.14 170.706 335.14 171.646Z" fill="white"/>
<path d="M343.4 171.646C343.4 172.586 342.64 173.346 341.7 173.346C340.76 173.346 340 172.586 340 171.646C340 170.706 340.76 169.946 341.7 169.946C342.64 169.946 343.4 170.706 343.4 171.646Z" fill="white"/>
<path opacity="0.1" d="M134.15 75.4258H70.5498C65.3198 75.4258 61.0898 79.6658 61.0898 84.8958V134.406L134.16 75.4258H134.15Z" fill="white"/>
<path opacity="0.2" d="M61.0801 148.316V182.466L134.06 126.226L134.15 91.0858L61.0801 148.316Z" fill="white"/>
<path opacity="0.1" d="M61.0801 190.846V224.996L134.06 168.746L134.15 133.616L61.0801 190.846Z" fill="white"/>
<path d="M291.48 0.165771L351.59 66.5458L440.89 73.3358L384.62 1.22577L291.48 0.165771Z" fill="#1A73E8"/>
<g style="mix-blend-mode:multiply" opacity="0.4">
<path d="M385.18 1.9458C384.7 3.1758 384.18 4.3958 383.59 5.5958C373.9 25.3958 351.16 35.9958 324.08 36.1658L351.59 66.5458L440.88 73.3358L385.18 1.9458Z" fill="#1A73E8"/>
</g>
<path d="M368.381 34.0958C349.541 24.8658 332.391 21.2158 330.081 25.9458L312.201 61.4458C322.071 62.7958 331.491 63.3758 349.341 72.6358C363.101 79.7658 376.071 86.7458 381.541 93.6058L398.311 59.3758C400.631 54.6458 387.231 43.3358 368.391 34.1058L368.381 34.0958Z" fill="#1A73E8"/>
<g style="mix-blend-mode:multiply" opacity="0.4">
<path d="M368.38 34.0958C351.76 25.9558 336.45 22.1558 331.49 24.6258C336.67 25.4558 342.09 27.1458 347.41 29.7558C366.62 39.1658 377.26 56.8458 371.18 69.2558C368.78 74.1658 364.89 76.3458 358.95 78.0258C369.24 83.5158 378.03 88.7158 381.54 93.6058L398.31 59.3758C400.62 54.6458 387.23 43.3358 368.39 34.1058L368.38 34.0958Z" fill="#1A73E8"/>
</g>
<path opacity="0.2" d="M331.56 55.4357C330.24 58.1457 326.96 59.2657 324.25 57.9357C321.54 56.6057 320.42 53.3357 321.75 50.6257L330.41 32.9557C331.74 30.2457 335.01 29.1257 337.71 30.4557C340.42 31.7857 341.54 35.0557 340.21 37.7657L331.549 55.4357H331.56Z" fill="#DBBAE5"/>
<path d="M411.351 150.496L410.811 31.5258L408.341 28.6858H406.041L408.341 31.6258V150.496H411.351Z" fill="url(#paint1_linear_30_895)"/>
<path d="M407.42 152.556L396.15 179.296L399.84 180.666L409.64 152.846L407.42 152.556Z" fill="#F8EB65"/>
<path opacity="0.5" d="M398.82 180.286L408.78 152.736L409.64 152.846L399.84 180.666L398.82 180.286Z" fill="#FF9646"/>
<path d="M408.57 152.876L403.42 181.436L407.32 181.966L410.8 152.676L408.57 152.876Z" fill="#F8EB65"/>
<path opacity="0.5" d="M406.25 181.826L409.94 152.756L410.8 152.676L407.32 181.966L406.25 181.826Z" fill="#FF9646"/>
<path d="M409.57 153.106L412.14 182.016L416.04 181.486L411.66 152.326L409.57 153.106Z" fill="#F8EB65"/>
<path opacity="0.5" d="M414.96 181.636L410.85 152.626L411.66 152.326L416.04 181.486L414.96 181.636Z" fill="#FF9646"/>
<path d="M409.801 152.656L419.661 179.956L423.301 178.446L411.631 151.356L409.801 152.656Z" fill="#F8EB65"/>
<path opacity="0.5" d="M422.29 178.866L410.92 151.866L411.63 151.356L423.3 178.446L422.29 178.866Z" fill="#FF9646"/>
<g style="mix-blend-mode:multiply" opacity="0.5">
<path d="M405.961 155.846L406.531 154.726L412.441 153.416L413.951 156.756C413.951 156.756 413.411 157.576 410.801 157.816C408.191 158.056 405.961 155.846 405.961 155.846Z" fill="#FFB991"/>
</g>
<path d="M415.451 150.496C415.451 153.946 412.651 156.746 409.201 156.746C405.751 156.746 402.951 153.946 402.951 150.496C402.951 147.046 405.751 144.246 409.201 144.246C412.651 144.246 415.451 147.046 415.451 150.496Z" fill="#F8EB65"/>
<path opacity="0.5" d="M411.311 144.616C411.521 145.246 411.641 145.916 411.641 146.616C411.641 150.066 408.841 152.866 405.391 152.866C404.651 152.866 403.941 152.726 403.281 152.496C404.121 154.966 406.451 156.746 409.201 156.746C412.651 156.746 415.451 153.946 415.451 150.496C415.451 147.786 413.721 145.486 411.311 144.616Z" fill="#FF9646"/>
<path opacity="0.5" d="M410.811 31.5258L411.311 144.616H409.951V31.5258H410.811Z" fill="#1A73E8"/>
<g style="mix-blend-mode:multiply" opacity="0.2">
<path d="M299.808 237.486V63.0557L144.168 62.0557V230.296L143.998 245.616C143.998 255.356 151.328 263.376 160.768 264.486V264.636H316.538C327.038 264.636 335.548 256.126 335.548 245.626V237.506H299.808V237.486Z" fill="#1A73E8"/>
</g>
<path d="M140.069 62.8557V47.5357C140.069 37.0357 131.559 28.5157 121.059 28.5157C110.559 28.5157 102.049 37.0257 102.049 47.5357V62.8557H140.079H140.069Z" fill="#1A73E8" fill-opacity="0.65"/>
<path d="M279.249 28.6857V28.5157H121.229C131.729 28.5157 140.239 37.0257 140.239 47.5357V225.536L140.069 240.856C140.069 250.596 147.399 258.616 156.839 259.726V259.866H295.879V47.5357C295.879 37.8457 288.618 29.8557 279.238 28.6857H279.249Z" fill="white"/>
<path d="M312.619 233.056H179.049V241.176C179.049 251.676 170.539 260.196 160.029 260.196H312.609C323.109 260.196 331.619 251.686 331.619 241.176V233.056H312.609H312.619Z" fill="#1A73E8" fill-opacity="0.78"/>
<path d="M282.438 49.6558H154.498V55.4758H282.438V49.6558Z" fill="#1A73E8"/>
<path d="M276.538 69.9058H160.398V73.8858H276.538V69.9058Z" fill="#1A73E8" fill-opacity="0.72"/>
<path d="M276.538 82.6058H160.398V86.5858H276.538V82.6058Z" fill="#1A73E8" fill-opacity="0.72"/>
<path d="M276.538 95.3058H160.398V99.2858H276.538V95.3058Z" fill="#1A73E8" fill-opacity="0.72"/>
<path d="M276.538 108.006H160.398V111.976H276.538V108.006Z" fill="#1A73E8" fill-opacity="0.72"/>
<path d="M206.85 161.576L196.3 184.586L182.1 215.566L193.46 210.326L200.43 221.076L216.35 163.816L206.85 161.576Z" fill="#1A73E8"/>
<path d="M230.08 161.576L254.83 215.566L243.47 210.326L236.5 221.076L220.58 163.816L230.08 161.576Z" fill="#1A73E8"/>
<g style="mix-blend-mode:multiply" opacity="0.5">
<path d="M196.98 183.116C196.98 183.116 198.05 185.576 199.23 186.076C200.41 186.576 202.66 185.696 203.91 186.076C205.16 186.456 204.62 188.576 206.53 189.736C207.15 190.116 209.15 189.736 209.15 189.736L212.25 178.576L200.41 175.706L196.98 183.126V183.116Z" fill="#1A73E8"/>
</g>
<g style="mix-blend-mode:multiply" opacity="0.5">
<path d="M227.83 189.896C227.83 189.896 228.88 190.156 230.66 188.816C232.16 187.696 231.91 186.316 232.78 186.066C233.65 185.816 235.92 186.386 237.7 186.066C238.97 185.836 240.09 183.596 239.8 182.786C239.22 181.156 237.28 177.296 237.28 177.296L225.84 182.786L227.81 189.886L227.83 189.896Z" fill="#1A73E8"/>
</g>
<path d="M250.689 158.436C250.689 156.796 247.819 155.416 247.579 153.846C247.329 152.246 249.619 150.036 249.129 148.526C248.629 146.986 245.479 146.556 244.749 145.136C244.019 143.696 245.519 140.896 244.569 139.596C243.619 138.296 240.489 138.856 239.359 137.726C238.229 136.586 238.789 133.456 237.489 132.516C236.199 131.576 233.389 133.066 231.949 132.336C230.529 131.616 230.099 128.456 228.559 127.956C227.049 127.466 224.849 129.756 223.239 129.506C221.679 129.256 220.289 126.396 218.659 126.396C217.029 126.396 215.639 129.266 214.079 129.506C212.469 129.756 210.269 127.466 208.759 127.956C207.219 128.456 206.789 131.606 205.369 132.336C203.939 133.066 201.129 131.576 199.829 132.516C198.529 133.456 199.089 136.596 197.959 137.726C196.829 138.856 193.689 138.296 192.749 139.596C191.809 140.886 193.309 143.696 192.569 145.136C191.839 146.556 188.689 146.986 188.189 148.526C187.699 150.036 189.989 152.236 189.739 153.846C189.489 155.406 186.629 156.796 186.629 158.436C186.629 160.076 189.499 161.456 189.739 163.016C189.989 164.616 187.699 166.826 188.189 168.336C188.689 169.876 191.839 170.306 192.569 171.726C193.299 173.166 191.809 175.966 192.749 177.266C193.689 178.566 196.829 178.006 197.959 179.136C199.089 180.276 198.529 183.406 199.829 184.346C201.119 185.286 203.929 183.796 205.369 184.526C206.789 185.256 207.229 188.406 208.759 188.906C210.269 189.396 212.469 187.096 214.079 187.356C215.639 187.606 217.029 190.466 218.659 190.466C220.289 190.466 221.679 187.606 223.239 187.356C224.839 187.106 227.049 189.396 228.559 188.906C230.099 188.406 230.529 185.256 231.949 184.526C233.389 183.796 236.189 185.286 237.489 184.346C238.789 183.406 238.229 180.266 239.359 179.136C240.489 178.006 243.629 178.566 244.569 177.266C245.509 175.976 244.009 173.166 244.749 171.726C245.479 170.306 248.629 169.876 249.129 168.336C249.619 166.826 247.329 164.626 247.579 163.016C247.829 161.456 250.689 160.066 250.689 158.436Z" fill="url(#paint2_linear_30_895)"/>
<path d="M242.648 158.436C242.648 171.686 231.898 182.436 218.648 182.436C205.398 182.436 194.648 171.686 194.648 158.436C194.648 145.186 205.398 134.436 218.648 134.436C231.898 134.436 242.648 145.186 242.648 158.436Z" fill="#F8EB65"/>
<path d="M239.779 158.436C239.779 170.106 230.319 179.556 218.659 179.556C206.999 179.556 197.529 170.096 197.529 158.436C197.529 146.776 206.989 137.306 218.659 137.306C230.329 137.306 239.779 146.766 239.779 158.436Z" fill="url(#paint3_linear_30_895)"/>
<path d="M231.53 158.436C231.53 165.546 225.76 171.306 218.65 171.306C211.54 171.306 205.77 165.546 205.77 158.436C205.77 151.326 211.54 145.556 218.65 145.556C225.76 145.556 231.53 151.316 231.53 158.436Z" stroke="#F8EB65" stroke-width="0.5" stroke-miterlimit="10"/>
<g style="mix-blend-mode:multiply" opacity="0.4">
<path d="M85.71 347.206C85.71 354.656 66.52 360.696 42.86 360.696C19.2 360.696 0 354.656 0 347.206C0 339.756 19.19 333.716 42.85 333.716C66.51 333.716 85.7 339.756 85.7 347.206H85.71Z" fill="#B8BD6F"/>
</g>
<path d="M1.37891 334.636V347.976C1.37891 351.916 16.6089 355.106 35.3889 355.106C54.1689 355.106 69.3989 351.916 69.3989 347.976V334.636H1.37891Z" fill="#D9E5DE"/>
<path d="M69.3891 334.636C69.3891 338.576 54.1591 341.766 35.3791 341.766C16.5991 341.766 1.36914 338.576 1.36914 334.636C1.36914 330.696 16.5991 327.506 35.3791 327.506C54.1591 327.506 69.3891 330.696 69.3891 334.636Z" fill="#F9F3DF"/>
<g style="mix-blend-mode:multiply" opacity="0.5">
<path d="M26.5489 350.676C17.1389 350.676 8.44891 349.476 1.37891 347.436V347.976C1.37891 351.916 16.6089 355.106 35.3889 355.106C54.1689 355.106 69.3989 351.916 69.3989 347.976V334.636H69.3389C68.1389 343.576 49.4489 350.676 26.5589 350.676H26.5489Z" fill="#D9E5DE"/>
</g>
<path d="M19.2285 220.986V331.036C19.2285 331.356 21.1985 331.626 23.6185 331.626C26.0385 331.626 28.0085 331.366 28.0085 331.036V220.996C28.0085 209.546 36.4885 200.066 47.4885 198.446V189.586C31.6385 191.266 19.2385 204.706 19.2385 221.006L19.2285 220.986Z" fill="#D9E5DE"/>
<g style="mix-blend-mode:multiply" opacity="0.5">
<path d="M47.4779 198.426V193.896C37.2279 196.136 24.4179 203.656 23.4679 220.976V331.016C23.4679 331.226 22.6079 331.416 21.3379 331.516C21.9979 331.566 22.7679 331.606 23.5979 331.606C26.0179 331.606 27.9879 331.346 27.9879 331.016V220.976C27.9879 210.066 35.8279 200.536 47.4679 198.426H47.4779Z" fill="#D9E5DE"/>
</g>
<path d="M69.5784 192.816C72.2884 198.436 69.9384 205.196 64.3184 207.916L63.9784 208.076C58.3584 210.796 51.5984 208.436 48.8884 202.816L41.7584 188.066C39.0484 182.446 41.3984 175.686 47.0184 172.966L47.3584 172.806C52.9784 170.086 59.7384 172.446 62.4484 178.066L69.5784 192.816Z" fill="#D9E5DE"/>
<g style="mix-blend-mode:multiply" opacity="0.5">
<path d="M69.5775 192.816L62.4475 178.066C61.4275 175.946 59.8275 174.296 57.9275 173.196C57.9775 173.756 58.0075 174.336 58.0075 174.916C58.0075 183.846 51.9075 191.236 43.9375 192.576L48.8875 202.806C51.6075 208.426 58.3575 210.786 63.9775 208.066L64.3175 207.906C69.9375 205.186 72.2875 198.436 69.5775 192.806V192.816Z" fill="#D9E5DE"/>
</g>
<path opacity="0.5" d="M49.7489 173.396C49.9389 173.766 48.9189 174.666 47.4789 175.406C46.0289 176.146 44.7089 176.446 44.5189 176.076C44.3289 175.706 45.3489 174.806 46.7889 174.066C48.2289 173.326 49.5589 173.026 49.7489 173.396Z" fill="white"/>
<g style="mix-blend-mode:multiply" opacity="0.5">
<path d="M67.3076 194.876C67.9476 196.216 67.3876 197.816 66.0476 198.456C64.7076 199.096 63.1076 198.536 62.4676 197.196L54.3876 180.386C53.7476 179.046 54.3076 177.446 55.6476 176.806C56.9876 176.166 58.5876 176.726 59.2276 178.066L67.3076 194.876Z" fill="#D9E5DE"/>
</g>
<path d="M104.219 216.956C96.1686 204.206 82.1486 193.476 68.9086 191.416C64.6486 190.756 61.7386 192.146 57.4886 194.206C52.3186 197.246 50.3386 197.666 48.2086 201.416C41.5886 213.056 41.2886 230.726 46.2786 244.956C48.1786 250.376 48.7886 251.336 53.0686 259.006L82.0386 245.006L111.009 231.006C107.659 222.886 107.289 221.816 104.219 216.956Z" fill="#D9E5DE"/>
<g style="mix-blend-mode:multiply" opacity="0.5">
<path d="M104.218 216.956C97.1476 205.746 85.4576 196.106 73.7376 192.536C74.0776 194.356 74.2576 196.226 74.2576 198.136C74.2576 214.776 60.9076 228.616 43.2676 231.586C43.7876 236.176 44.7876 240.716 46.2776 244.956C48.1776 250.376 48.7876 251.336 53.0676 259.006L82.0376 245.006L111.008 231.006C107.658 222.886 107.288 221.816 104.218 216.956Z" fill="#D9E5DE"/>
</g>
<path d="M111.008 231.006C112.348 233.776 100.468 242.296 84.4679 250.026C68.4679 257.756 54.4079 261.776 53.0679 259.006C51.7279 256.236 63.6179 247.716 79.6179 239.986C95.6179 232.256 109.678 228.236 111.018 231.006H111.008Z" fill="#1A73E8" fill-opacity="0.72"/>
<path opacity="0.4" d="M57.058 216.546C57.438 217.916 56.338 219.416 54.598 219.906C52.858 220.396 51.128 219.686 50.748 218.316L48.868 211.646C48.488 210.276 49.588 208.776 51.328 208.286C53.068 207.796 54.798 208.506 55.178 209.866L57.058 216.536V216.546Z" fill="white"/>
<path d="M37.4082 330.696V336.886H37.4282C37.5082 337.156 38.8982 337.746 40.6382 337.746C42.3782 337.746 43.8082 337.156 43.8982 336.886H43.9182V330.696H37.4182H37.4082Z" fill="#1A73E8"/>
<g style="mix-blend-mode:multiply" opacity="0.3">
<path d="M41.9782 330.696C42.0482 331.006 42.0882 331.336 42.0882 331.666C42.0882 334.106 40.0482 336.106 37.4082 336.416V336.886H37.4282C37.5082 337.156 38.8982 337.746 40.6382 337.746C42.3782 337.746 43.8082 337.156 43.8982 336.886H43.9182V330.696H41.9882H41.9782Z" fill="#1A73E8"/>
</g>
<path d="M43.9091 330.696C43.9091 331.026 42.4391 331.286 40.6391 331.286C38.8391 331.286 37.3691 331.026 37.3691 330.696C37.3691 330.366 38.8391 330.106 40.6391 330.106C42.4391 330.106 43.9091 330.376 43.9091 330.696Z" fill="#1A73E8"/>
<g style="mix-blend-mode:multiply" opacity="0.4">
<path d="M132.93 363.506C132.93 366.696 125.54 369.286 116.42 369.286C107.3 369.286 99.9102 366.696 99.9102 363.506C99.9102 360.316 107.3 357.726 116.42 357.726C125.54 357.726 132.93 360.316 132.93 363.506Z" fill="#B8BD6F"/>
</g>
<path d="M130.51 322.766H95.2403C95.2403 322.766 94.3503 340.376 96.3503 350.376C97.1203 354.206 99.6003 362.916 99.6203 362.996C100.26 365.696 104.48 368.276 112.87 368.276C121.26 368.276 125.48 365.686 126.12 362.996C126.14 362.916 128.62 354.206 129.39 350.376C131.4 340.376 130.5 322.766 130.5 322.766H130.51Z" fill="#D9E5DE"/>
<g style="mix-blend-mode:multiply" opacity="0.5">
<path d="M130.51 322.766H125.76C126.04 324.566 126.2 326.416 126.2 328.316C126.2 345.136 114.59 358.776 100.26 358.776C99.6497 358.776 99.0397 358.746 98.4297 358.696C99.0797 361.086 99.6097 362.966 99.6197 362.996C100.26 365.696 104.48 368.276 112.87 368.276C121.26 368.276 125.48 365.686 126.12 362.996C126.14 362.916 128.62 354.206 129.39 350.376C131.4 340.376 130.5 322.766 130.5 322.766H130.51Z" fill="#D9E5DE"/>
</g>
<path d="M130.58 322.646C130.58 323.986 122.67 325.826 112.92 325.826C103.17 325.826 95.2598 323.996 95.2598 322.646C95.2598 321.296 103.08 319.846 112.83 319.846C122.58 319.846 130.57 321.306 130.57 322.646H130.58Z" fill="#F9F3DF"/>
<path d="M129.789 322.626C129.789 323.386 122.459 325.246 112.959 325.246C103.459 325.246 95.959 323.306 95.959 322.626C95.959 321.616 103.369 320.296 112.869 320.296C122.369 320.296 129.789 321.616 129.789 322.626Z" fill="url(#paint4_linear_30_895)"/>
<g style="mix-blend-mode:multiply">
<path d="M127.71 323.386C127.71 323.936 121.37 325.306 113.14 325.306C104.91 325.306 98.4297 323.876 98.4297 323.386C98.4297 322.646 104.84 321.666 113.07 321.666C121.3 321.666 127.71 322.646 127.71 323.386Z" fill="#DBBAE5"/>
</g>
<path d="M132 299.936C130.82 298.276 125.58 298.106 121.61 301.096C119.45 302.726 116.82 307.206 115.19 309.826L115.04 295.296C117.62 295.946 123.47 295.176 126.47 292.926C129.97 290.296 130.69 285.396 129.98 284.406C128.94 282.946 124.32 282.796 120.82 285.426C118.82 286.926 116.45 290.116 115.03 292.526L114.86 281.766C116.84 281.656 119.96 280.266 121.71 278.946C124.1 277.146 124.59 273.816 124.11 273.136C123.4 272.136 120.25 272.036 117.86 273.836C116.86 274.586 115.72 275.776 114.79 277.006L114.71 271.306C115.7 270.336 117.38 268.616 117.19 265.466C117.06 263.336 115.01 260.706 114.42 260.626C113.55 260.506 112.03 263.036 111.81 265.166C111.59 267.216 112.45 268.816 113.75 271.226L113.54 276.646C113.06 275.256 112.4 273.846 111.74 272.856C110.07 270.376 106.76 269.726 106.06 270.166C105.03 270.826 104.77 273.966 106.44 276.436C108.01 278.766 111.69 281.966 113.35 281.536L113.12 293.406C112.42 291.216 111.25 285.696 110.2 284.146C107.75 280.516 101.13 279.706 100.59 279.856C98.8497 280.316 99.9797 285.776 102.43 289.406C104.8 292.896 110.56 296.326 112.89 295.386L112.58 309.686C111.8 307.516 110.59 301.176 109.56 299.636C106.78 295.516 101.27 294.426 100.11 295.166C98.3897 296.256 97.9597 301.486 100.74 305.606C103.3 309.386 109.3 312.266 112.13 313.896L111.64 325.256C113.98 325.256 112.16 325.266 113.59 325.256C113.95 325.256 115.51 325.256 115.51 325.256L115.12 313.076C118.16 313.616 124.71 312.116 128.02 309.626C131.99 306.636 132.8 301.086 132.01 299.956L132 299.936Z" fill="#1A73E8"/>
<g style="mix-blend-mode:multiply" opacity="0.3">
<path d="M114.739 271.306L114.819 277.006L114.749 278.506C114.749 278.506 114.509 277.546 114.479 276.506C114.439 275.466 114.479 271.316 114.479 271.316H114.739V271.306Z" fill="#1A73E8"/>
<path d="M114.469 281.456L114.649 293.836L115.029 292.526L114.849 281.756L114.469 281.456Z" fill="#1A73E8"/>
<path d="M115.178 309.826L114.748 311.146L114.648 295.126L115.028 295.296L115.178 309.826Z" fill="#1A73E8"/>
<path d="M114.828 312.996L114.568 325.226H115.488L115.098 313.056L114.828 312.996Z" fill="#1A73E8"/>
</g>
<g style="mix-blend-mode:multiply" opacity="0.4">
<path d="M271.651 366.926C271.651 368.226 270.591 369.286 269.291 369.286H149.501C148.191 369.286 147.141 368.226 147.141 366.926C147.141 365.626 148.201 364.566 149.501 364.566H269.291C270.591 364.566 271.651 365.626 271.651 366.926Z" fill="#B8BD6F"/>
</g>
<path d="M257.961 356.586L273.571 361.906L257.961 367.226V356.586Z" fill="#F9F3DF"/>
<path d="M266.74 364.236V359.576L273.57 361.906L266.74 364.236Z" fill="#1A73E8"/>
<path d="M257.961 356.586H150.711C147.771 356.586 145.391 358.966 145.391 361.906C145.391 364.846 147.771 367.226 150.711 367.226H257.961V356.586Z" fill="#F8EB65"/>
<path opacity="0.5" d="M145.391 361.906C145.391 364.846 147.771 367.226 150.711 367.226H257.961V361.906H145.381H145.391Z" fill="#FF9646"/>
<g style="mix-blend-mode:multiply" opacity="0.4">
<path d="M432.83 356.966C432.83 363.776 400.24 369.296 360.04 369.296C319.84 369.296 287.24 363.776 287.24 356.966C287.24 350.156 319.83 344.636 360.04 344.636C400.25 344.636 432.83 350.156 432.83 356.966Z" fill="#B8BD6F"/>
</g>
<path d="M394.99 331.936H286.32V359.596H394.99C401.19 359.596 406.2 354.576 406.2 348.386V343.156C406.2 336.966 401.18 331.946 394.99 331.946V331.936Z" fill="#1A73E8"/>
<path d="M398.96 337.226H286.32V354.306H398.96V337.226Z" fill="#F9F3DF"/>
<path d="M398.96 337.226H286.32V339.766H398.96V337.226Z" fill="#D9E5DE"/>
<path d="M398.961 337.226H395.311V354.306H398.961V337.226Z" fill="#D9E5DE"/>
<path d="M294.529 343.656L379.519 344.306L294.529 344.946V343.656Z" fill="#D9E5DE"/>
<path d="M292.08 348.696L337.45 349.166L292.08 349.646V348.696Z" fill="#D9E5DE"/>
<path d="M344.301 349.166C344.301 349.166 344.791 349.106 345.661 349.036C346.531 348.986 347.761 348.866 349.251 348.786C352.221 348.626 356.171 348.516 360.131 348.506C364.091 348.506 368.041 348.616 371.011 348.786C372.491 348.856 373.731 348.976 374.601 349.026C375.461 349.096 375.961 349.156 375.961 349.156C375.961 349.156 375.471 349.206 374.601 349.276C373.731 349.336 372.501 349.446 371.011 349.526C368.041 349.686 364.091 349.796 360.131 349.806C356.171 349.806 352.221 349.696 349.251 349.526C347.771 349.456 346.531 349.336 345.661 349.286C344.801 349.216 344.301 349.166 344.301 349.166Z" fill="#D9E5DE"/>
<path d="M407.83 310.656H323.41V332.146H407.83C412.64 332.146 416.54 328.246 416.54 323.436V319.366C416.54 314.556 412.64 310.656 407.83 310.656Z" fill="#1A73E8"/>
<path d="M410.92 314.776H323.41V328.046H410.92V314.776Z" fill="#F9F3DF"/>
<path d="M410.92 314.776H323.41V316.746H410.92V314.776Z" fill="#D9E5DE"/>
<path d="M410.92 314.776H408.09V328.046H410.92V314.776Z" fill="#D9E5DE"/>
<path d="M328.98 319.766L366.69 320.266L328.98 320.776V319.766Z" fill="#D9E5DE"/>
<path d="M327.891 323.686L348.021 324.046L327.891 324.416V323.686Z" fill="#D9E5DE"/>
<path d="M351.07 324.046C351.07 324.046 351.29 324.006 351.67 323.946C352.05 323.906 352.6 323.816 353.26 323.756C354.58 323.626 356.33 323.546 358.09 323.536C359.84 323.536 361.6 323.626 362.92 323.746C363.58 323.796 364.13 323.896 364.51 323.936C364.89 323.986 365.11 324.036 365.11 324.036C365.11 324.036 364.89 324.076 364.51 324.136C364.13 324.176 363.58 324.276 362.92 324.326C361.6 324.456 359.85 324.536 358.09 324.536C356.33 324.536 354.58 324.446 353.26 324.326C352.6 324.266 352.05 324.176 351.67 324.136C351.29 324.086 351.07 324.036 351.07 324.036V324.046Z" fill="#D9E5DE"/>
<path d="M363.779 321.596L399.989 321.606L363.779 322.896V321.596Z" fill="#D9E5DE"/>
<path d="M388.59 324.996C388.59 324.996 388.83 324.956 389.25 324.896C389.67 324.856 390.27 324.766 391 324.706C392.45 324.576 394.38 324.496 396.31 324.486C398.24 324.486 400.17 324.576 401.61 324.696C402.33 324.746 402.94 324.846 403.36 324.886C403.78 324.936 404.02 324.986 404.02 324.986C404.02 324.986 403.78 325.026 403.36 325.086C402.94 325.126 402.34 325.226 401.61 325.276C400.16 325.406 398.23 325.486 396.31 325.486C394.38 325.486 392.45 325.396 391 325.276C390.28 325.216 389.68 325.126 389.25 325.086C388.83 325.036 388.59 324.986 388.59 324.986V324.996Z" fill="#D9E5DE"/>
<path d="M400.981 289.426H316.561V310.916H400.981C405.791 310.916 409.691 307.016 409.691 302.206V298.146C409.691 293.336 405.791 289.436 400.981 289.436V289.426Z" fill="#1A73E8"/>
<path d="M404.071 293.536H316.561V306.806H404.071V293.536Z" fill="#F9F3DF"/>
<path d="M404.071 293.536H316.561V295.506H404.071V293.536Z" fill="#D9E5DE"/>
<path d="M404.06 293.536H401.23V306.806H404.06V293.536Z" fill="#D9E5DE"/>
<path d="M321.91 298.526L352.13 299.026L321.91 299.536V298.526Z" fill="#D9E5DE"/>
<path d="M321.041 302.446L337.171 302.806L321.041 303.176V302.446Z" fill="#D9E5DE"/>
<path d="M339.611 302.806C339.611 302.806 339.781 302.766 340.091 302.706C340.401 302.666 340.841 302.576 341.371 302.516C342.421 302.386 343.831 302.306 345.241 302.296C346.651 302.296 348.051 302.386 349.111 302.506C349.641 302.556 350.081 302.656 350.391 302.696C350.701 302.756 350.871 302.796 350.871 302.796C350.871 302.796 350.691 302.836 350.391 302.896C350.081 302.946 349.641 303.036 349.111 303.086C348.061 303.216 346.651 303.296 345.241 303.296C343.831 303.296 342.431 303.206 341.371 303.076C340.841 303.026 340.401 302.926 340.091 302.886C339.781 302.836 339.611 302.786 339.611 302.786V302.806Z" fill="#D9E5DE"/>
<path d="M357.471 298.636L398.911 299.136L357.471 299.646V298.636Z" fill="#D9E5DE"/>
<path d="M356.271 302.556L378.401 302.916L356.271 303.286V302.556Z" fill="#D9E5DE"/>
<path d="M381.742 302.916C381.742 302.916 381.982 302.866 382.402 302.816C382.822 302.776 383.422 302.686 384.152 302.626C385.602 302.496 387.532 302.416 389.462 302.406C391.392 302.406 393.322 302.496 394.772 302.616C395.492 302.666 396.102 302.766 396.522 302.806C396.942 302.856 397.182 302.906 397.182 302.906C397.182 302.906 396.942 302.946 396.522 303.006C396.102 303.046 395.502 303.146 394.772 303.196C393.322 303.326 391.392 303.406 389.462 303.406C387.532 303.406 385.602 303.316 384.152 303.186C383.432 303.136 382.822 303.046 382.402 302.996C381.982 302.946 381.742 302.896 381.742 302.896V302.916Z" fill="#D9E5DE"/>
<path style="mix-blend-mode:multiply" opacity="0.2" d="M398.68 331.056H324.9V332.156H398.68V331.056Z" fill="url(#paint5_linear_30_895)"/>
</g>
<defs>
<linearGradient id="paint0_linear_30_895" x1="83.0881" y1="117.236" x2="112.138" y2="146.296" gradientUnits="userSpaceOnUse">
<stop stop-color="#DBBAE5"/>
<stop offset="0.21" stop-color="#D1B0DD"/>
<stop offset="0.55" stop-color="#B997CA"/>
<stop offset="0.98" stop-color="#926FAA"/>
<stop offset="1" stop-color="#906DA9"/>
</linearGradient>
<linearGradient id="paint1_linear_30_895" x1="406.041" y1="89.5958" x2="411.351" y2="89.5958" gradientUnits="userSpaceOnUse">
<stop stop-color="#FF9646"/>
<stop offset="0.15" stop-color="#FC8C42"/>
<stop offset="0.38" stop-color="#F77339"/>
<stop offset="0.68" stop-color="#ED4A2A"/>
<stop offset="1" stop-color="#E21717"/>
</linearGradient>
<linearGradient id="paint2_linear_30_895" x1="196.269" y1="136.046" x2="241.039" y2="180.816" gradientUnits="userSpaceOnUse">
<stop stop-color="#FF9646"/>
<stop offset="0.15" stop-color="#FC8C42"/>
<stop offset="0.38" stop-color="#F77339"/>
<stop offset="0.68" stop-color="#ED4A2A"/>
<stop offset="1" stop-color="#E21717"/>
</linearGradient>
<linearGradient id="paint3_linear_30_895" x1="203.709" y1="143.496" x2="233.589" y2="173.366" gradientUnits="userSpaceOnUse">
<stop stop-color="#FF9646"/>
<stop offset="0.15" stop-color="#FC8C42"/>
<stop offset="0.38" stop-color="#F77339"/>
<stop offset="0.68" stop-color="#ED4A2A"/>
<stop offset="1" stop-color="#E21717"/>
</linearGradient>
<linearGradient id="paint4_linear_30_895" x1="95.959" y1="322.766" x2="129.789" y2="322.766" gradientUnits="userSpaceOnUse">
<stop stop-color="#DBBAE5"/>
<stop offset="0.21" stop-color="#D1B0DD"/>
<stop offset="0.55" stop-color="#B997CA"/>
<stop offset="0.98" stop-color="#926FAA"/>
<stop offset="1" stop-color="#906DA9"/>
</linearGradient>
<linearGradient id="paint5_linear_30_895" x1="324.9" y1="331.606" x2="398.67" y2="331.606" gradientUnits="userSpaceOnUse">
<stop stop-color="#906DA9"/>
<stop offset="0.28" stop-color="#8D659F"/>
<stop offset="0.74" stop-color="#875186"/>
<stop offset="1" stop-color="#834476"/>
</linearGradient>
<clipPath id="clip0_30_895">
<rect width="440.89" height="369.13" fill="white" transform="translate(0 0.165771)"/>
</clipPath>
</defs>
</svg>
