<svg width="27" height="24" viewBox="0 0 27 24" fill="none" xmlns="http://www.w3.org/2000/svg">
<path d="M-0.000576019 1.19244L0.657314 5.92097C1.9731 5.81037 3.04217 6.03158 3.86453 6.58463C4.6869 7.11002 5.26255 7.88429 5.5915 8.90742C5.89303 9.9029 5.94785 11.0643 5.75597 12.3916H-0.000576019V23.6737H11.1836V12.3916C11.1836 8.40968 10.2653 5.39558 8.42865 3.34931C6.59204 1.27539 3.7823 0.556433 -0.000576019 1.19244ZM14.8842 1.19244L15.5421 5.92097C16.8579 5.81037 17.927 6.03158 18.7493 6.58463C19.5717 7.11002 20.1473 7.88429 20.4763 8.90742C20.7778 9.9029 20.8326 11.0643 20.6408 12.3916H14.8842V23.6737H26.0684V12.3916C26.0684 8.40968 25.1501 5.39558 23.3134 3.34931C21.4768 1.27539 18.6671 0.556433 14.8842 1.19244Z" fill="#FFB21D"/>
</svg>
