<svg width="27" height="24" viewBox="0 0 27 24" fill="none" xmlns="http://www.w3.org/2000/svg">
<path d="M26.2642 0.91442L25.6064 5.64296C24.2906 5.53235 23.2215 5.75357 22.3991 6.30661C21.5768 6.83201 21.0011 7.60627 20.6722 8.62941C20.3706 9.62489 20.3158 10.7863 20.5077 12.1136H26.2642V23.3957H15.0801V12.1136C15.0801 8.13167 15.9984 5.11757 17.835 3.0713C19.6716 0.997377 22.4814 0.278417 26.2642 0.91442ZM11.3795 0.91442L10.7216 5.64296C9.40579 5.53235 8.33672 5.75357 7.51435 6.30661C6.69199 6.83201 6.11633 7.60627 5.78739 8.62941C5.48585 9.62489 5.43103 10.7863 5.62291 12.1136H11.3795V23.3957H0.195312V12.1136C0.195312 8.13167 1.11362 5.11757 2.95023 3.0713C4.78684 0.997377 7.59659 0.278417 11.3795 0.91442Z" fill="#FFB21D"/>
</svg>
