<svg width="33" height="24" viewBox="0 0 33 24" fill="none" xmlns="http://www.w3.org/2000/svg">
<path d="M32.0598 8.11548C32.5369 7.97399 32.6488 7.71078 32.6587 7.51336C32.6686 7.32245 32.5896 7.05594 32.1454 6.85852L19.1343 1.06367C18.3247 0.70178 17.4988 0.244305 16.5708 0.142335C15.5508 0.0304332 14.5701 0.313445 13.662 0.635929C9.09128 1.8535 6.4127 3.17297 1.98021 4.79527C0.854747 5.20662 0.292076 5.8614 0.433582 6.58866C0.555351 7.21718 1.16078 7.54296 1.67089 7.75683C3.76703 8.63538 5.97502 9.29356 8.09084 9.98462C6.7088 11.9195 5.96509 14.0682 5.77753 16.7172C5.76767 16.8654 5.85648 17.0003 5.99469 17.0496L15.8863 20.5903H15.8929C15.9258 20.6034 15.9621 20.61 15.9982 20.61C16.0344 20.61 16.0705 20.6034 16.1035 20.5903H16.11L26.0017 17.0496C26.1431 17.0003 26.232 16.8654 26.2189 16.7172C26.0411 14.2295 25.6627 12.446 24.2346 10.442L29.4798 8.88226C29.4436 11.1561 29.4206 11.0212 29.3811 13.4036C28.5979 13.4991 27.953 13.9236 27.6239 14.5783C27.466 14.8877 27.3904 15.2397 27.3904 15.5919C27.3904 16.046 27.5153 16.5067 27.7655 16.9016C28.0024 17.2767 28.348 17.5794 28.7395 17.7867C28.1834 19.4123 27.8807 20.8931 27.3213 22.4627C27.1469 22.9431 27.3575 23.2919 27.9104 23.3347L31.451 23.6044C32.0104 23.6473 32.4678 23.1438 32.3592 22.5844C31.994 20.6924 31.5958 19.1852 31.0792 17.7407C31.3194 17.6024 31.5365 17.4247 31.7109 17.2075C32.2901 16.5034 32.3987 15.4503 31.9742 14.6408C31.6187 13.9597 30.885 13.4858 30.0393 13.397C30.082 10.9257 30.1019 11.1199 30.1412 8.68479L32.0598 8.11548ZM19.5192 9.34947C19.6015 9.31987 19.6969 9.36262 19.7265 9.44812C19.7594 9.53699 19.7133 9.62907 19.6278 9.65875L17.0776 10.5604C16.992 10.59 16.8998 10.5439 16.867 10.4583C16.8373 10.3728 16.8834 10.2807 16.969 10.2478L19.5192 9.34947ZM15.4816 6.12467C16.0707 5.81864 16.7979 6.05224 17.3014 6.47018C17.7423 6.83872 17.6962 7.33231 17.2059 7.56921C16.811 7.76012 15.9456 7.76012 15.4816 7.52316C14.7972 7.17107 14.8894 6.434 15.4816 6.12467ZM4.68515 6.85187C3.90525 6.56229 3.89532 6.01606 4.29023 5.67049C4.45476 5.52569 4.65877 5.45661 4.83646 5.39083L9.78226 3.63032C9.87113 3.60072 9.96321 3.64349 9.99289 3.72907C10.0225 3.81465 9.97965 3.91004 9.89415 3.93965L4.94507 5.70016C4.78712 5.75936 4.62588 5.81535 4.50746 5.91732C4.42187 5.99297 4.34622 6.12796 4.37582 6.24309C4.41858 6.38459 4.60291 6.47018 4.80027 6.54261L8.87737 8.04634C8.96295 8.07931 9.0057 8.17467 8.97602 8.26025C8.94314 8.34591 8.84769 8.38859 8.76219 8.3557L4.68515 6.85187ZM9.70992 8.72096C9.65722 8.79331 9.55528 8.80983 9.48277 8.75385L9.28209 8.60579C9.20646 8.55309 9.19322 8.44786 9.24584 8.37543C9.30182 8.30308 9.40377 8.28664 9.47619 8.34262L9.67695 8.49069C9.74938 8.54323 9.76582 8.64854 9.70992 8.72096ZM25.5444 16.5165L15.9983 19.9322L6.45217 16.5165C6.6661 14.0353 7.40318 12.0148 8.74246 10.2017C9.81186 10.5571 10.8813 10.9355 11.9179 11.3666C13.2276 11.9128 14.524 12.5413 15.9555 12.5709C16.9822 12.5906 17.9134 12.3176 18.9006 12.0247L23.5634 10.6394C24.9619 12.5315 25.3634 14.2031 25.5444 16.5165ZM25.1791 5.92061C25.1429 6.00619 25.0474 6.04237 24.9652 6.00619L20.434 4.02853C20.3517 3.99234 20.3155 3.89695 20.3517 3.81137C20.388 3.72913 20.4834 3.69288 20.5689 3.72913L25.0968 5.70679C25.1791 5.74291 25.2153 5.83838 25.1791 5.92061ZM31.7143 22.7094C31.7374 22.8377 31.6353 22.9561 31.5004 22.9463L27.9598 22.6765H27.9433C28.5126 21.0739 28.8021 19.6425 29.355 18.0137C29.7268 18.0993 30.0822 18.0926 30.4705 17.9907C30.9673 19.3924 31.3557 20.8634 31.7143 22.7094Z" fill="#1A73E8"/>
</svg>
