<svg width="32" height="28" viewBox="0 0 32 28" fill="none" xmlns="http://www.w3.org/2000/svg">
<path d="M25.2652 12.122C25.158 9.03417 23.362 6.05733 20.6805 4.52282C17.9989 2.9883 14.5224 2.948 11.806 4.41992C9.08959 5.89185 7.22505 8.82629 7.04632 11.9108L5.08398 10.8978C5.45606 7.25637 7.74265 3.86522 10.9789 2.15499C14.2153 0.444769 18.3053 0.466364 21.5235 2.21056C24.7416 3.95474 26.9923 7.36993 27.326 11.015L25.2652 12.122Z" fill="#1A73E8"/>
<path d="M15.084 26.3925C15.6077 26.4865 16.1694 26.4337 16.6192 26.1581C16.9081 25.9814 17.1349 25.7179 17.2733 25.4158C20.5001 25.8309 23.7164 24.392 25.5871 21.9999C26.1511 22.4325 26.8839 22.6676 27.633 22.6676C28.1725 22.6676 28.7193 22.5471 29.2144 22.294C32.0492 20.8447 31.9979 16.4858 31.9148 15.1842C31.8258 13.7941 31.3314 12.587 30.5224 11.7853C29.7515 11.0218 28.6714 10.6148 27.6132 10.6737C27.173 7.01526 24.9252 3.68276 21.6799 1.92375C18.3433 0.11509 14.184 0.0926172 10.8276 1.86656C7.52973 3.60925 5.23241 6.96925 4.78682 10.6683C3.78296 10.6581 2.77062 11.0607 2.03927 11.7853C1.23027 12.587 0.735772 13.7941 0.64688 15.1842C0.563701 16.4858 0.512411 20.8447 3.34722 22.294C3.84235 22.5471 4.38882 22.6676 4.92826 22.6676C5.95931 22.6676 6.96461 22.227 7.53331 21.4302C8.01795 20.7517 8.16579 19.9308 8.26616 19.2146C8.44746 17.9236 8.52205 16.6088 8.48799 15.3067C8.46215 14.3158 8.36435 13.2762 7.83031 12.3876C7.70469 12.1785 7.55221 11.9867 7.38422 11.809C7.59747 8.88311 9.38193 6.10513 11.9626 4.7069C14.5785 3.28902 17.9378 3.32819 20.5193 4.80615C23.0889 6.27644 24.8183 9.13163 24.9371 12.0893C24.8638 12.1855 24.7934 12.284 24.7311 12.3876C24.1975 13.2765 24.0996 14.3158 24.0738 15.3066C24.0397 16.6088 24.1143 17.9236 24.2956 19.2147C24.396 19.9307 24.5438 20.7517 25.0284 21.4302C25.0557 21.4684 25.0886 21.5018 25.1178 21.5384C23.3444 23.852 20.3151 25.1263 17.4207 24.7774C17.4267 24.3512 17.2607 23.9253 16.9625 23.6291C16.6458 23.3147 16.2201 23.1675 15.845 23.065C15.3515 22.93 14.8433 22.8354 14.3347 22.7836C14.0116 22.7503 13.6694 22.7384 13.3463 22.8669C12.7152 23.1187 12.3516 23.8721 12.5192 24.5821C12.8279 25.8911 14.5602 26.2988 15.084 26.3925ZM30.1841 20.5495L25.0027 13.3586C25.077 13.1374 25.1701 12.9241 25.2906 12.7238C25.3687 12.5938 25.4616 12.4734 25.5605 12.3579L30.7177 19.5122C30.5721 19.8875 30.3949 20.2363 30.1841 20.5495ZM30.8493 19.1372L25.7903 12.1187C26.044 11.8835 26.34 11.6929 26.6618 11.5562L31.1594 17.7951C31.0886 18.2584 30.9869 18.7101 30.8493 19.1372ZM30.0629 12.2489C30.7196 12.8994 31.1323 13.8804 31.2431 15.0236L28.66 11.4362C29.1811 11.583 29.6701 11.8597 30.0629 12.2489ZM27.5426 11.328C27.6334 11.3197 27.7242 11.3155 27.8154 11.3155C27.9406 11.3155 28.0655 11.326 28.1899 11.3414L31.2821 15.6357C31.2998 16.1883 31.2809 16.7587 31.2207 17.3225L26.981 11.4414C27.1641 11.3869 27.3515 11.3456 27.5426 11.328ZM2.49873 12.2489C2.88926 11.8618 3.37497 11.5874 3.89288 11.4401L1.31953 15.0138C1.43172 13.875 1.84384 12.8976 2.49873 12.2489ZM1.27992 15.6267L4.36572 11.3413C4.58229 11.3141 4.80126 11.3081 5.01872 11.328C5.2083 11.3454 5.394 11.3864 5.57561 11.44L1.34025 17.3152C1.28017 16.7507 1.26184 16.1798 1.27992 15.6267ZM1.40121 17.7883L5.89515 11.5544C6.21725 11.6907 6.51343 11.8808 6.76768 12.1156L1.71038 19.1315C1.57309 18.704 1.47164 18.2518 1.40121 17.7883ZM7.61994 19.1239C7.53011 19.7636 7.40103 20.4927 7.00247 21.0511C6.58036 21.6416 5.84832 21.9804 5.07629 22.0161L7.71121 18.358C7.6841 18.6139 7.65566 18.8696 7.61994 19.1239ZM7.76803 17.7215L4.68142 22.0066C4.32598 21.975 3.9716 21.8804 3.64416 21.7129C3.63681 21.7091 3.63035 21.704 3.62306 21.7002L7.83828 15.8519C7.84029 16.4749 7.81675 17.0991 7.76803 17.7215ZM7.83451 15.2995L3.34239 21.5319C3.05292 21.3388 2.80032 21.0972 2.57858 20.8201L7.66872 13.7559C7.78316 14.255 7.82051 14.7825 7.83451 15.2995ZM7.5571 13.3528L2.37475 20.545C2.16413 20.2315 1.98697 19.8825 1.84171 19.507L6.9977 12.3542C7.09782 12.4709 7.1918 12.5924 7.27078 12.7239C7.39017 12.9223 7.48302 13.1336 7.5571 13.3528ZM20.8435 4.23965C18.0692 2.65241 14.4618 2.61034 11.6516 4.13306C9.01698 5.56072 7.15162 8.32667 6.77666 11.2957C6.37351 11.0237 5.91724 10.8285 5.43656 10.7333C5.85773 7.2982 8.07319 4.06011 11.1322 2.44355C14.2508 0.796093 18.2681 0.81681 21.369 2.49753C24.3881 4.13393 26.5588 7.35872 26.9674 10.7696C26.4482 10.8971 25.9588 11.1362 25.5446 11.4667C25.2245 8.50712 23.4304 5.72018 20.8435 4.23965ZM24.8915 13.7622L29.9799 20.8241C29.758 21.1009 29.5049 21.3418 29.2151 21.5344L24.7268 15.3074C24.7406 14.7902 24.7776 14.2622 24.8915 13.7622ZM24.7233 15.8602L28.9343 21.7029C28.9285 21.7059 28.9233 21.71 28.9174 21.713C28.5881 21.8812 28.2317 21.9758 27.8743 22.0069L24.7942 17.7309C24.7454 17.1082 24.7216 16.4837 24.7233 15.8602ZM24.9417 19.1239C24.9064 18.873 24.8785 18.6206 24.8515 18.3681L27.4789 22.0156C26.709 21.9785 25.98 21.6404 25.5591 21.0511C25.1605 20.4927 25.0316 19.7636 24.9417 19.1239ZM13.5878 23.4733C13.7698 23.4006 13.9918 23.4046 14.2684 23.4326C14.7412 23.481 15.2138 23.569 15.6729 23.6944C15.9804 23.7786 16.2939 23.885 16.5023 24.0921C16.9308 24.5172 16.8327 25.2627 16.2789 25.6015C16.0001 25.7721 15.6168 25.8249 15.1988 25.7502C14.3239 25.5935 13.3272 25.1651 13.1545 24.4324C13.0624 24.0427 13.2608 23.6034 13.5878 23.4733Z" fill="#1A73E8"/>
<path d="M14.5149 13.6379C14.0169 14.3082 13.4042 14.8263 12.7554 15.3748C12.2969 15.7626 11.8225 16.1638 11.3962 16.6215C11.2448 16.7837 11.2967 17.0466 11.4972 17.1398C12.2207 17.4757 13.409 17.3929 14.2597 17.3435C14.629 17.3222 14.9776 17.3021 15.2554 17.3072C15.4278 17.3025 15.5842 17.167 15.5877 16.9869C15.5909 16.8068 15.4479 16.658 15.2675 16.6546C14.9651 16.6492 14.6042 16.67 14.2218 16.692C13.582 16.7292 12.8243 16.7732 12.2553 16.6828C12.5532 16.4005 12.8686 16.1336 13.177 15.873C13.8251 15.3247 14.4955 14.7577 15.0387 14.0273C15.4701 13.4471 15.7257 12.939 15.842 12.4286C15.9987 11.7431 15.884 11.0652 15.5268 10.5691C14.9616 9.7829 13.7999 9.52913 12.8835 9.99227C12.0695 10.4031 11.5223 11.3109 11.4905 12.3048C11.4845 12.4848 11.6259 12.6356 11.806 12.6414C11.9802 12.6529 12.137 12.5063 12.1424 12.3258C12.1666 11.5787 12.5828 10.875 13.1776 10.5747C13.8047 10.2581 14.6207 10.4264 14.9973 10.9502C15.2413 11.2894 15.3194 11.7875 15.206 12.2831C15.1101 12.7025 14.8906 13.133 14.5149 13.6379Z" fill="#1A73E8"/>
<path d="M21.5696 15.3867C21.5769 15.2066 21.437 15.0548 21.257 15.0475C20.9154 15.0335 20.5732 15.0241 20.2304 15.0196C20.2177 14.795 20.0781 12.3198 20.0086 11.0279C20.001 10.8865 19.9032 10.7663 19.7665 10.7301C19.6279 10.6928 19.4851 10.7497 19.4083 10.8685C18.4108 12.416 17.5881 13.8403 16.4455 15.2558C16.3636 15.3571 16.3499 15.4976 16.4107 15.6129C16.4716 15.7284 16.5953 15.7957 16.7253 15.7861C17.6821 15.71 18.6485 15.6708 19.6129 15.6686C19.6407 16.1667 19.668 16.6645 19.6948 17.162C19.7044 17.336 19.8484 17.4707 20.0205 17.4707C20.0265 17.4707 20.0322 17.4706 20.0382 17.4703C20.2183 17.4606 20.3562 17.3068 20.3466 17.1269C20.3203 16.6425 20.2937 16.1575 20.2667 15.6726C20.5885 15.6774 20.91 15.6863 21.2302 15.6993C21.4243 15.7053 21.5626 15.5667 21.5696 15.3867ZM17.4058 15.0846C18.1267 14.1249 18.7526 13.1277 19.4122 12.0782C19.457 12.8941 19.4881 13.4418 19.5765 15.0161C18.8523 15.0187 18.1271 15.0414 17.4058 15.0846Z" fill="#1A73E8"/>
<path d="M18.2506 1.99695C15.1427 1.34168 11.7844 2.29282 9.48235 4.47889C9.41705 4.54104 9.41447 4.64425 9.47663 4.7096C9.53818 4.77482 9.642 4.77771 9.70738 4.71563C11.9326 2.60237 15.1807 1.68375 18.1831 2.31623C18.2704 2.33438 18.358 2.27882 18.3765 2.19024C18.3949 2.1021 18.3386 2.01559 18.2506 1.99695Z" fill="#1A73E8"/>
<path d="M8.98914 5.02731L8.68202 5.29042C8.6136 5.34905 8.60561 5.45192 8.66425 5.52046C8.72234 5.58838 8.82489 5.59723 8.89425 5.53829L9.20137 5.27486C9.26987 5.21624 9.27785 5.11317 9.21922 5.04482C9.16027 4.97665 9.05732 4.96868 8.98914 5.02731Z" fill="#1A73E8"/>
</svg>
