<svg width="33" height="28" viewBox="0 0 33 28" fill="none" xmlns="http://www.w3.org/2000/svg">
<path d="M31.6977 7.17102C30.8748 4.90104 29.3427 2.87013 27.3884 1.45038C26.5004 0.808626 25.6723 0.468337 24.9137 0.427599C24.9034 0.426067 24.8659 0.422619 24.8562 0.424339C23.435 0.373105 22.6368 1.32552 21.7903 2.44084C21.6753 2.56842 19.6098 5.55907 15.8275 7.98366C15.8249 7.98749 15.8216 7.98806 15.8189 7.99185C15.8189 7.99185 15.8157 7.99248 15.8125 7.99303L11.1653 11.3516C11.1626 11.3554 11.1599 11.3593 11.1567 11.3599C11.1573 11.3632 11.1541 11.3637 11.1508 11.3643C7.66408 14.1896 4.15992 15.2234 4.01989 15.285C3.11854 15.5948 2.09973 15.9422 1.50694 16.7846C0.911466 17.6309 0.848181 18.8126 1.32044 20.2926C2.05454 22.5916 3.50357 24.6842 5.4005 26.1778C6.34316 26.9205 7.50829 27.5168 8.66891 27.2317C9.70491 26.9819 10.4066 26.1102 11.0229 25.3441C11.1981 25.1588 13.311 22.2841 17.2717 19.5596C17.2749 19.5591 17.2743 19.5558 17.2743 19.5558C17.3041 19.5338 18.2864 18.8273 18.2864 18.8273C18.5438 21.0293 19.0072 23.0675 19.7668 25.3586C19.8098 25.4886 19.9296 25.5781 20.0649 25.5845C20.2002 25.5909 20.3277 25.5147 20.383 25.3909L21.2316 23.507L23.5505 25.359C23.6485 25.439 23.7855 25.455 23.9061 25.3969C24.0195 25.3366 24.0923 25.2164 24.0863 25.0867C23.9958 22.919 23.6733 20.8995 23.3057 18.9484C25.4612 20.1582 26.0511 20.5741 29.0405 21.7008C29.1625 21.7463 29.2981 21.7156 29.3896 21.6258C29.4805 21.5327 29.5102 21.3965 29.4656 21.2769L28.4347 18.4935L30.4867 18.2793C30.6218 18.2655 30.7354 18.1682 30.7728 18.0376C30.8069 17.9075 30.7583 17.7651 30.65 17.6836C28.7161 16.2467 26.9258 15.1671 24.9228 14.2322C26.2451 13.4757 27.6196 12.8242 29.0348 12.2895L29.142 12.2505C30.4884 11.7447 31.6627 11.2325 31.9937 9.81895L31.9964 9.81511C32.0027 9.79389 32.0052 9.77001 32.0083 9.74934C32.1594 9.02837 32.0612 8.16693 31.6977 7.17102ZM10.5106 24.9312C9.92923 25.6476 9.329 26.3906 8.51247 26.5917C7.73439 26.7826 6.82988 26.4657 5.80892 25.6595C4.01643 24.2448 2.64455 22.2662 1.949 20.0911C1.54331 18.8176 1.57756 17.832 2.04702 17.1656C2.51647 16.4992 3.38971 16.2009 4.23094 15.9118C4.40834 15.8335 7.7381 14.8573 11.2005 12.1604C12.3564 15.3679 14.1315 17.7685 16.4921 19.3045C12.7967 21.9353 10.9305 24.4781 10.5106 24.9312ZM16.1947 16.781C16.1406 16.8542 16.0403 16.8753 15.9637 16.8217C14.5128 15.8029 13.47 14.2258 13.1034 12.4892C13.0847 12.4019 13.1398 12.315 13.2303 12.2957C13.3197 12.2699 13.4076 12.3315 13.427 12.4221C13.7755 14.0747 14.7688 15.5801 16.1541 16.55C16.2273 16.6041 16.2457 16.7082 16.1947 16.781ZM16.928 17.3057C16.8814 17.3844 16.779 17.4125 16.7004 17.366L16.4236 17.2035C16.3449 17.1569 16.3168 17.0546 16.3633 16.976C16.4098 16.8973 16.5128 16.8725 16.5914 16.919L16.8682 17.0815C16.9469 17.128 16.9712 17.2276 16.928 17.3057ZM27.3164 3.6098C27.7645 3.90646 28.1626 4.31927 28.4685 4.79865C28.7056 5.17276 29.0382 5.59385 29.1892 6.07036C29.3275 6.51218 29.2946 7.10503 28.9033 7.4356C28.3628 7.88981 27.693 7.5719 27.1758 7.09289C26.7113 6.66495 26.3133 6.15821 25.9913 5.58764C25.8307 5.30402 25.6424 4.9213 25.6243 4.49512C25.601 3.98267 25.8558 3.52514 26.2466 3.38246C26.555 3.26778 26.9174 3.34472 27.3164 3.6098ZM24.2556 3.33445C24.2335 2.8285 24.4058 2.3788 24.7214 2.09508C25.1102 1.75151 25.6987 1.72152 26.0578 2.02714C26.1284 2.08518 26.137 2.19096 26.079 2.2616C26.0205 2.32892 25.9147 2.33752 25.8441 2.27955C25.6152 2.08514 25.2011 2.1145 24.9431 2.34446C24.7018 2.55473 24.5683 2.9204 24.5852 3.31993C24.6143 3.99906 25.015 4.61611 25.3687 5.15746C25.4194 5.23571 25.397 5.33696 25.322 5.38707C25.2437 5.43777 25.1425 5.41537 25.0924 5.34032C24.7336 4.78971 24.2872 4.10367 24.2556 3.33445ZM23.3855 24.3852L21.3117 22.7248C21.2302 22.662 21.1283 22.6364 21.0292 22.6639C20.9294 22.6882 20.8476 22.7563 20.8033 22.848L20.133 24.3348C19.5007 22.2896 19.1164 20.4151 18.8991 18.3838C19.5593 17.9051 21.571 16.4535 22.0731 16.0865C22.1542 16.5083 22.2353 16.9301 22.3207 17.3578C22.766 19.5971 23.2232 21.9047 23.3855 24.3852ZM28.9085 11.631L28.8019 11.6733C26.3077 12.6129 23.9361 13.9065 21.7403 15.5113C19.3274 14.0215 17.534 11.6307 16.4027 8.39204C20.1514 5.92976 22.2047 2.9648 22.317 2.84105C22.4908 2.60911 22.6679 2.37663 22.8542 2.15936C22.7476 2.88584 22.961 3.58284 23.1936 4.17915C24.1501 6.61683 25.8043 8.69325 27.9695 10.1865C28.5149 10.5599 29.1785 10.9561 29.9642 11.0558C30.0463 11.0647 30.124 11.0678 30.2043 11.0671C29.8079 11.2912 29.3554 11.4649 28.9085 11.631Z" fill="#1A73E8"/>
</svg>
