<svg width="351" height="57" viewBox="0 0 351 57" fill="none" xmlns="http://www.w3.org/2000/svg">
<path d="M0 5C0 2.23858 2.23858 0 5 0H111V28H0V5Z" fill="#FFB21D"/>
<path d="M14.7689 16.3509V14.939H18.0233C18.471 14.939 18.867 14.8472 19.2114 14.6635C19.5672 14.4798 19.8427 14.2216 20.0379 13.8887C20.2445 13.5558 20.3478 13.1597 20.3478 12.7006C20.3478 12.2414 20.2445 11.8454 20.0379 11.5125C19.8427 11.1796 19.5672 10.9213 19.2114 10.7377C18.867 10.554 18.471 10.4622 18.0233 10.4622H14.7689V9.05022H18.1266C18.8612 9.05022 19.5156 9.19945 20.0895 9.4979C20.6749 9.79636 21.1341 10.2211 21.467 10.7721C21.8114 11.3116 21.9836 11.9544 21.9836 12.7006C21.9836 13.4352 21.8114 14.0781 21.467 14.6291C21.1341 15.1686 20.6749 15.5933 20.0895 15.9033C19.5156 16.2017 18.8612 16.3509 18.1266 16.3509H14.7689ZM13.6842 21V9.05022H15.3027V21H13.6842ZM23.8509 21V8.70584H25.4005V21H23.8509ZM31.1461 21.1722C30.3999 21.1722 29.7227 20.9885 29.1143 20.6212C28.5059 20.2424 28.0237 19.7316 27.6679 19.0887C27.3235 18.4459 27.1513 17.7227 27.1513 16.9192C27.1513 16.1156 27.3235 15.3924 27.6679 14.7496C28.0237 14.1068 28.5001 13.596 29.097 13.2171C29.7054 12.8383 30.3885 12.6489 31.1461 12.6489C31.7659 12.6489 32.3169 12.7809 32.7991 13.045C33.2927 13.2975 33.6887 13.6534 33.9872 14.1125C34.2856 14.5602 34.4521 15.0825 34.4865 15.6794V18.1417C34.4521 18.7271 34.2856 19.2494 33.9872 19.7086C33.7002 20.1678 33.3099 20.5294 32.8163 20.7934C32.3342 21.0459 31.7774 21.1722 31.1461 21.1722ZM31.4044 19.7086C32.1735 19.7086 32.7933 19.4503 33.264 18.9338C33.7346 18.4057 33.9699 17.7342 33.9699 16.9192C33.9699 16.3567 33.8609 15.8688 33.6428 15.4556C33.4362 15.0308 33.1377 14.7037 32.7474 14.4741C32.3571 14.233 31.9037 14.1125 31.3871 14.1125C30.8706 14.1125 30.4114 14.233 30.0096 14.4741C29.6193 14.7152 29.3094 15.0481 29.0798 15.4728C28.8617 15.886 28.7527 16.3624 28.7527 16.9019C28.7527 17.4529 28.8617 17.9408 29.0798 18.3655C29.3094 18.7788 29.6251 19.1059 30.0269 19.347C30.4286 19.5881 30.8878 19.7086 31.4044 19.7086ZM33.8666 21V18.796L34.1593 16.7986L33.8666 14.8185V12.8211H35.4335V21H33.8666ZM41.4262 21.1722C40.6226 21.1722 39.8937 20.9828 39.2394 20.604C38.5966 20.2252 38.0858 19.7143 37.7069 19.0715C37.3396 18.4172 37.1559 17.694 37.1559 16.9019C37.1559 16.0984 37.3396 15.3752 37.7069 14.7324C38.0858 14.0896 38.5966 13.5845 39.2394 13.2171C39.8937 12.8383 40.6226 12.6489 41.4262 12.6489C42.0575 12.6489 42.643 12.7695 43.1825 13.0105C43.722 13.2401 44.1869 13.5787 44.5772 14.0264L43.5441 15.0595C43.2915 14.7611 42.9816 14.5372 42.6143 14.388C42.2584 14.2273 41.8624 14.147 41.4262 14.147C40.9096 14.147 40.4505 14.2675 40.0487 14.5085C39.6469 14.7381 39.3312 15.0595 39.1017 15.4728C38.8721 15.886 38.7573 16.3624 38.7573 16.9019C38.7573 17.4415 38.8721 17.9179 39.1017 18.3311C39.3312 18.7443 39.6469 19.0715 40.0487 19.3126C40.4505 19.5536 40.9096 19.6742 41.4262 19.6742C41.8624 19.6742 42.2584 19.5995 42.6143 19.4503C42.9816 19.2896 43.2973 19.06 43.5613 18.7616L44.5772 19.7947C44.1984 20.2309 43.7335 20.5695 43.1825 20.8106C42.643 21.0517 42.0575 21.1722 41.4262 21.1722ZM49.7341 21.1722C48.9191 21.1722 48.1844 20.9885 47.5301 20.6212C46.8758 20.2424 46.3592 19.7316 45.9804 19.0887C45.6016 18.4459 45.4122 17.717 45.4122 16.9019C45.4122 16.0984 45.5958 15.3752 45.9632 14.7324C46.342 14.0896 46.8471 13.5845 47.4784 13.2171C48.1213 12.8383 48.8387 12.6489 49.6308 12.6489C50.3884 12.6489 51.0542 12.8211 51.6281 13.1655C52.2136 13.5099 52.667 13.9862 52.9884 14.5946C53.3213 15.203 53.4877 15.8918 53.4877 16.6609C53.4877 16.7757 53.482 16.9019 53.4705 17.0397C53.4591 17.166 53.4361 17.3152 53.4017 17.4874H46.497V16.196H52.5752L52.0069 16.6953C52.0069 16.1443 51.9094 15.6794 51.7142 15.3006C51.5191 14.9103 51.2436 14.6119 50.8877 14.4052C50.5319 14.1871 50.1014 14.0781 49.5963 14.0781C49.0683 14.0781 48.6034 14.1929 48.2016 14.4225C47.7998 14.652 47.4899 14.9735 47.2718 15.3867C47.0537 15.8 46.9446 16.2878 46.9446 16.8503C46.9446 17.4242 47.0594 17.9293 47.289 18.3655C47.5186 18.7903 47.8458 19.1232 48.2705 19.3642C48.6952 19.5938 49.1831 19.7086 49.7341 19.7086C50.1932 19.7086 50.6122 19.6282 50.991 19.4675C51.3813 19.3068 51.7142 19.0658 51.9897 18.7443L52.9884 19.7603C52.5981 20.2194 52.116 20.5695 51.542 20.8106C50.9796 21.0517 50.3769 21.1722 49.7341 21.1722ZM62.9432 21L58.1564 9.05022H59.9127L63.8558 19.1576H63.2187L67.1963 9.05022H68.9354L64.1141 21H62.9432ZM72.3936 21.1722C71.6475 21.1722 70.9702 20.9885 70.3618 20.6212C69.7534 20.2424 69.2713 19.7316 68.9154 19.0887C68.5711 18.4459 68.3989 17.7227 68.3989 16.9192C68.3989 16.1156 68.5711 15.3924 68.9154 14.7496C69.2713 14.1068 69.7477 13.596 70.3446 13.2171C70.953 12.8383 71.636 12.6489 72.3936 12.6489C73.0135 12.6489 73.5645 12.7809 74.0466 13.045C74.5402 13.2975 74.9362 13.6534 75.2347 14.1125C75.5332 14.5602 75.6996 15.0825 75.734 15.6794V18.1417C75.6996 18.7271 75.5332 19.2494 75.2347 19.7086C74.9477 20.1678 74.5574 20.5294 74.0638 20.7934C73.5817 21.0459 73.025 21.1722 72.3936 21.1722ZM72.6519 19.7086C73.421 19.7086 74.0409 19.4503 74.5115 18.9338C74.9822 18.4057 75.2175 17.7342 75.2175 16.9192C75.2175 16.3567 75.1084 15.8688 74.8903 15.4556C74.6837 15.0308 74.3853 14.7037 73.995 14.4741C73.6047 14.233 73.1512 14.1125 72.6347 14.1125C72.1181 14.1125 71.659 14.233 71.2572 14.4741C70.8669 14.7152 70.557 15.0481 70.3274 15.4728C70.1093 15.886 70.0002 16.3624 70.0002 16.9019C70.0002 17.4529 70.1093 17.9408 70.3274 18.3655C70.557 18.7788 70.8726 19.1059 71.2744 19.347C71.6762 19.5881 72.1353 19.7086 72.6519 19.7086ZM75.1142 21V18.796L75.4069 16.7986L75.1142 14.8185V12.8211H76.6811V21H75.1142ZM78.9373 21V8.70584H80.4869V21H78.9373ZM86.0431 21.1722C85.3773 21.1722 84.7746 21.023 84.2351 20.7245C83.7071 20.4146 83.2938 19.9898 82.9954 19.4503C82.6969 18.9108 82.5477 18.2852 82.5477 17.5735V12.8211H84.0974V17.5046C84.0974 17.9523 84.172 18.3426 84.3212 18.6755C84.4819 18.9969 84.7115 19.2437 85.01 19.4159C85.3084 19.5881 85.6585 19.6742 86.0603 19.6742C86.6687 19.6742 87.1451 19.4848 87.4895 19.1059C87.8338 18.7157 88.006 18.1819 88.006 17.5046V12.8211H89.5557V17.5735C89.5557 18.2852 89.4065 18.9108 89.108 19.4503C88.8096 19.9898 88.3963 20.4146 87.8683 20.7245C87.3517 21.023 86.7433 21.1722 86.0431 21.1722ZM95.4208 21.1722C94.6058 21.1722 93.8711 20.9885 93.2168 20.6212C92.5625 20.2424 92.0459 19.7316 91.6671 19.0887C91.2883 18.4459 91.0989 17.717 91.0989 16.9019C91.0989 16.0984 91.2826 15.3752 91.6499 14.7324C92.0287 14.0896 92.5338 13.5845 93.1652 13.2171C93.808 12.8383 94.5254 12.6489 95.3175 12.6489C96.0751 12.6489 96.7409 12.8211 97.3149 13.1655C97.9003 13.5099 98.3537 13.9862 98.6751 14.5946C99.008 15.203 99.1745 15.8918 99.1745 16.6609C99.1745 16.7757 99.1688 16.9019 99.1573 17.0397C99.1458 17.166 99.1228 17.3152 99.0884 17.4874H92.1837V16.196H98.2619L97.6937 16.6953C97.6937 16.1443 97.5961 15.6794 97.401 15.3006C97.2058 14.9103 96.9303 14.6119 96.5745 14.4052C96.2186 14.1871 95.7881 14.0781 95.2831 14.0781C94.755 14.0781 94.2901 14.1929 93.8883 14.4225C93.4866 14.652 93.1766 14.9735 92.9585 15.3867C92.7404 15.8 92.6314 16.2878 92.6314 16.8503C92.6314 17.4242 92.7462 17.9293 92.9758 18.3655C93.2053 18.7903 93.5325 19.1232 93.9572 19.3642C94.3819 19.5938 94.8698 19.7086 95.4208 19.7086C95.88 19.7086 96.299 19.6282 96.6778 19.4675C97.0681 19.3068 97.401 19.0658 97.6765 18.7443L98.6751 19.7603C98.2849 20.2194 97.8027 20.5695 97.2288 20.8106C96.6663 21.0517 96.0636 21.1722 95.4208 21.1722Z" fill="black"/>
<path d="M0 29H111V57H5C2.23857 57 0 54.7614 0 52V29Z" fill="#FFB21D"/>
<path d="M33.6776 50V48.5881H37.2935C37.9822 48.5881 38.5218 48.3872 38.912 47.9854C39.3023 47.5722 39.4975 47.0786 39.4975 46.5046C39.4975 46.1143 39.4114 45.7642 39.2392 45.4543C39.067 45.1328 38.8145 44.8803 38.4816 44.6966C38.1602 44.513 37.7814 44.4211 37.3451 44.4211H33.6776V43.0092H37.1041C37.678 43.0092 38.1315 42.86 38.4644 42.5615C38.8087 42.2516 38.9809 41.8096 38.9809 41.2357C38.9809 40.6617 38.803 40.2255 38.4471 39.9271C38.0913 39.6171 37.6206 39.4622 37.0352 39.4622H33.6776V38.0502H37.0696C37.8502 38.0502 38.4988 38.1937 39.0154 38.4807C39.5434 38.7562 39.9394 39.1235 40.2035 39.5827C40.479 40.0418 40.6167 40.5469 40.6167 41.0979C40.6167 41.7408 40.4388 42.3032 40.0829 42.7854C39.7385 43.2675 39.2277 43.6463 38.5505 43.9218L38.6882 43.4052C39.4573 43.6807 40.0542 44.0997 40.479 44.6622C40.9152 45.2132 41.1333 45.8675 41.1333 46.6251C41.1333 47.2565 40.9783 47.8247 40.6684 48.3298C40.3584 48.8349 39.9107 49.2424 39.3253 49.5523C38.7513 49.8508 38.0454 50 37.2074 50H33.6776ZM32.5928 50V38.0502H34.2113V50H32.5928ZM43.0626 50V41.8211H44.6122V50H43.0626ZM43.8374 40.1853C43.5504 40.1853 43.3151 40.0935 43.1314 39.9098C42.9478 39.7147 42.8559 39.4736 42.8559 39.1867C42.8559 38.9112 42.9478 38.6816 43.1314 38.4979C43.3151 38.3028 43.5504 38.2052 43.8374 38.2052C44.1244 38.2052 44.3597 38.3028 44.5434 38.4979C44.727 38.6816 44.8189 38.9112 44.8189 39.1867C44.8189 39.4736 44.727 39.7147 44.5434 39.9098C44.3597 40.0935 44.1244 40.1853 43.8374 40.1853ZM52.6815 50V45.2304C52.6815 44.6105 52.4864 44.0997 52.0961 43.698C51.7058 43.2962 51.2007 43.0953 50.5808 43.0953C50.1676 43.0953 49.8002 43.1871 49.4788 43.3708C49.1574 43.5545 48.9049 43.807 48.7212 44.1284C48.5375 44.4498 48.4457 44.8172 48.4457 45.2304L47.8086 44.8688C47.8086 44.249 47.9464 43.698 48.2219 43.2158C48.4974 42.7337 48.8819 42.3549 49.3755 42.0794C49.8691 41.7924 50.4258 41.6489 51.0457 41.6489C51.6656 41.6489 52.2109 41.8039 52.6815 42.1138C53.1636 42.4238 53.5424 42.8313 53.8179 43.3364C54.0934 43.83 54.2312 44.358 54.2312 44.9205V50H52.6815ZM46.896 50V41.8211H48.4457V50H46.896ZM59.8075 50.1722C59.0613 50.1722 58.3841 49.9885 57.7757 49.6212C57.1673 49.2424 56.6852 48.7316 56.3293 48.0887C55.9849 47.4459 55.8127 46.7227 55.8127 45.9192C55.8127 45.1156 55.9849 44.3924 56.3293 43.7496C56.6852 43.1068 57.1615 42.596 57.7585 42.2171C58.3669 41.8383 59.0499 41.6489 59.8075 41.6489C60.4274 41.6489 60.9784 41.7809 61.4605 42.045C61.9541 42.2975 62.3501 42.6534 62.6486 43.1125C62.947 43.5602 63.1135 44.0825 63.1479 44.6794V47.1417C63.1135 47.7271 62.947 48.2494 62.6486 48.7086C62.3616 49.1678 61.9713 49.5294 61.4777 49.7934C60.9956 50.0459 60.4388 50.1722 59.8075 50.1722ZM60.0658 48.7086C60.8349 48.7086 61.4547 48.4503 61.9254 47.9338C62.396 47.4057 62.6314 46.7342 62.6314 45.9192C62.6314 45.3567 62.5223 44.8688 62.3042 44.4556C62.0976 44.0308 61.7991 43.7037 61.4088 43.4741C61.0185 43.233 60.5651 43.1125 60.0485 43.1125C59.532 43.1125 59.0728 43.233 58.671 43.4741C58.2808 43.7152 57.9708 44.0481 57.7412 44.4728C57.5231 44.886 57.4141 45.3624 57.4141 45.9019C57.4141 46.4529 57.5231 46.9408 57.7412 47.3655C57.9708 47.7788 58.2865 48.1059 58.6883 48.347C59.09 48.5881 59.5492 48.7086 60.0658 48.7086ZM62.528 50V47.796L62.8208 45.7986L62.528 43.8185V41.8211H64.0949V50H62.528ZM66.3511 50V41.8211H67.9008V50H66.3511ZM67.9008 45.3337L67.3154 45.0754C67.3154 44.0308 67.5564 43.1986 68.0386 42.5787C68.5207 41.9589 69.2152 41.6489 70.122 41.6489C70.5353 41.6489 70.9084 41.7235 71.2412 41.8728C71.5741 42.0105 71.8841 42.2458 72.1711 42.5787L71.1552 43.6291C70.983 43.4454 70.7936 43.3134 70.5869 43.233C70.3803 43.1527 70.1392 43.1125 69.8637 43.1125C69.2898 43.1125 68.8191 43.2962 68.4518 43.6635C68.0845 44.0308 67.9008 44.5876 67.9008 45.3337ZM75.7969 50.0689L72.2499 41.8211H73.9718L76.6062 48.2781H76.0552L78.8274 41.8211H80.5493L76.7268 50.0689H75.7969ZM73.4552 53.4265L75.8658 48.4848L76.7268 50.0689L75.1771 53.4265H73.4552Z" fill="black"/>
<rect x="112" width="29" height="28" fill="#FFB21D"/>
<path d="M117.103 21V9.05022H118.704V21H117.103ZM114.658 10.4966V9.05022H118.532V10.4966H114.658ZM120.662 20.0185L125.07 15.3695C125.517 14.9103 125.867 14.5143 126.12 14.1814C126.373 13.837 126.55 13.5213 126.654 13.2344C126.769 12.9474 126.826 12.6489 126.826 12.339C126.826 11.7306 126.631 11.2542 126.241 10.9098C125.85 10.5655 125.345 10.3933 124.725 10.3933C124.117 10.3933 123.583 10.5425 123.124 10.841C122.665 11.1279 122.257 11.5756 121.901 12.184L120.765 11.237C121.236 10.4564 121.804 9.87098 122.47 9.48069C123.135 9.07891 123.905 8.87803 124.777 8.87803C125.512 8.87803 126.149 9.02152 126.688 9.3085C127.239 9.59548 127.664 9.99725 127.962 10.5138C128.261 11.0304 128.41 11.633 128.41 12.3218C128.41 12.8154 128.347 13.2573 128.221 13.6476C128.106 14.0379 127.894 14.4397 127.584 14.8529C127.285 15.2547 126.866 15.7368 126.327 16.2993L122.762 19.9669L120.662 20.0185ZM120.662 21V20.0185L122.039 19.5536H128.686V21H120.662ZM134.144 21.1722C133.352 21.1722 132.652 21.023 132.043 20.7245C131.447 20.426 130.982 20.0128 130.649 19.4848C130.316 18.9567 130.149 18.3598 130.149 17.694C130.149 17.1545 130.253 16.6609 130.459 16.2132C130.666 15.7655 130.97 15.3867 131.372 15.0768C131.774 14.7553 132.244 14.5258 132.784 14.388L132.836 14.8529C132.376 14.7267 131.986 14.5258 131.665 14.2503C131.343 13.9633 131.096 13.6304 130.924 13.2516C130.764 12.8613 130.683 12.448 130.683 12.0118C130.683 11.392 130.832 10.8467 131.131 10.3761C131.429 9.90541 131.837 9.53808 132.353 9.27406C132.881 8.99856 133.478 8.86081 134.144 8.86081C134.821 8.86081 135.418 8.99856 135.935 9.27406C136.451 9.53808 136.859 9.90541 137.157 10.3761C137.456 10.8467 137.605 11.392 137.605 12.0118C137.605 12.448 137.519 12.8613 137.347 13.2516C137.186 13.6304 136.945 13.9633 136.624 14.2503C136.314 14.5258 135.929 14.7267 135.47 14.8529L135.504 14.388C136.055 14.5258 136.526 14.7553 136.916 15.0768C137.318 15.3867 137.622 15.7655 137.829 16.2132C138.047 16.6609 138.156 17.1545 138.156 17.694C138.156 18.3598 137.99 18.9567 137.657 19.4848C137.324 20.0128 136.853 20.426 136.245 20.7245C135.648 21.023 134.948 21.1722 134.144 21.1722ZM134.144 19.7086C134.626 19.7086 135.045 19.6168 135.401 19.4331C135.768 19.238 136.055 18.9739 136.262 18.641C136.48 18.3081 136.589 17.9236 136.589 17.4874C136.589 17.0627 136.48 16.6838 136.262 16.3509C136.055 16.0181 135.768 15.7598 135.401 15.5761C135.045 15.381 134.626 15.2834 134.144 15.2834C133.674 15.2834 133.255 15.381 132.887 15.5761C132.52 15.7598 132.227 16.0181 132.009 16.3509C131.802 16.6838 131.699 17.0627 131.699 17.4874C131.699 17.9236 131.802 18.3081 132.009 18.641C132.227 18.9739 132.52 19.238 132.887 19.4331C133.255 19.6168 133.674 19.7086 134.144 19.7086ZM134.144 14.0264C134.718 14.0264 135.189 13.8485 135.556 13.4926C135.923 13.1368 136.107 12.6776 136.107 12.1151C136.107 11.5641 135.923 11.1165 135.556 10.7721C135.189 10.4162 134.718 10.2383 134.144 10.2383C133.582 10.2383 133.117 10.4162 132.749 10.7721C132.382 11.1165 132.198 11.5641 132.198 12.1151C132.198 12.6776 132.382 13.1368 132.749 13.4926C133.117 13.8485 133.582 14.0264 134.144 14.0264Z" fill="black"/>
<rect x="112" y="29" width="29" height="28" fill="#FFB21D"/>
<path d="M126.532 50.1722C125.637 50.1722 124.816 49.9196 124.07 49.4146C123.335 48.9095 122.75 48.1978 122.314 47.2794C121.877 46.3496 121.659 45.2591 121.659 44.0079C121.659 42.7567 121.872 41.6719 122.296 40.7536C122.733 39.8352 123.318 39.1293 124.053 38.6357C124.787 38.1306 125.597 37.878 126.481 37.878C127.387 37.878 128.208 38.1306 128.943 38.6357C129.678 39.1293 130.257 39.8352 130.682 40.7536C131.118 41.6719 131.336 42.7624 131.336 44.0251C131.336 45.2763 131.118 46.3669 130.682 47.2967C130.257 48.215 129.678 48.9267 128.943 49.4318C128.22 49.9254 127.416 50.1722 126.532 50.1722ZM126.498 48.6397C127.129 48.6397 127.68 48.4675 128.151 48.1232C128.633 47.7673 129.012 47.245 129.287 46.5563C129.563 45.8675 129.701 45.0181 129.701 44.0079C129.701 42.9977 129.563 42.154 129.287 41.4767C129.012 40.788 128.633 40.2714 128.151 39.9271C127.669 39.5712 127.112 39.3933 126.481 39.3933C125.861 39.3933 125.31 39.5712 124.828 39.9271C124.346 40.2714 123.967 40.788 123.691 41.4767C123.427 42.154 123.295 42.9977 123.295 44.0079C123.295 45.0181 123.427 45.8675 123.691 46.5563C123.967 47.245 124.346 47.7673 124.828 48.1232C125.31 48.4675 125.866 48.6397 126.498 48.6397Z" fill="black"/>
<rect x="142" width="29" height="28" fill="#FFB21D"/>
<path d="M151.351 21.1722C150.559 21.1722 149.847 20.9885 149.216 20.6212C148.596 20.2539 148.102 19.7603 147.735 19.1404C147.367 18.5205 147.184 17.8318 147.184 17.0741C147.184 16.0181 147.551 14.9677 148.286 13.9231L151.798 9.05022H153.675L150.076 13.9575L149.491 14.2675C149.629 14.0264 149.795 13.8255 149.99 13.6648C150.186 13.4926 150.427 13.3606 150.714 13.2688C151.001 13.177 151.339 13.1311 151.729 13.1311C152.43 13.1311 153.061 13.2975 153.624 13.6304C154.197 13.9633 154.657 14.4225 155.001 15.0079C155.357 15.5818 155.535 16.2534 155.535 17.0225C155.535 17.7801 155.345 18.4746 154.967 19.1059C154.599 19.7373 154.094 20.2424 153.451 20.6212C152.82 20.9885 152.12 21.1722 151.351 21.1722ZM151.351 19.6569C151.833 19.6569 152.263 19.5421 152.642 19.3126C153.032 19.0715 153.337 18.7558 153.555 18.3655C153.784 17.9638 153.899 17.5161 153.899 17.0225C153.899 16.5289 153.784 16.0869 153.555 15.6966C153.337 15.2949 153.032 14.9792 152.642 14.7496C152.263 14.52 151.833 14.4052 151.351 14.4052C150.869 14.4052 150.432 14.52 150.042 14.7496C149.663 14.9792 149.359 15.2949 149.129 15.6966C148.911 16.0869 148.802 16.5289 148.802 17.0225C148.802 17.5161 148.911 17.9638 149.129 18.3655C149.359 18.7673 149.663 19.083 150.042 19.3126C150.432 19.5421 150.869 19.6569 151.351 19.6569ZM156.782 16.8847L161.139 9.05022H162.964L158.521 16.8847H156.782ZM156.782 17.8834V16.8847L157.471 16.437H165.943V17.8834H156.782ZM162.62 21V13.0966H164.221V21H162.62Z" fill="black"/>
<rect x="142" y="29" width="29" height="28" fill="#FFB21D"/>
<path d="M156.494 50V38.0502H158.095V50H156.494ZM154.049 39.4966V38.0502H157.923V39.4966H154.049Z" fill="black"/>
<rect x="172" width="29" height="28" fill="#FFB21D"/>
<path d="M181.463 21.1722C180.682 21.1722 179.97 21.0287 179.328 20.7417C178.696 20.4433 178.162 20.0128 177.726 19.4503L178.828 18.3483C179.092 18.7501 179.454 19.0715 179.913 19.3126C180.372 19.5421 180.883 19.6569 181.445 19.6569C181.973 19.6569 182.427 19.5594 182.806 19.3642C183.196 19.1576 183.5 18.8706 183.718 18.5033C183.948 18.136 184.063 17.7112 184.063 17.2291C184.063 16.7355 183.948 16.3108 183.718 15.9549C183.5 15.5876 183.19 15.3063 182.788 15.1112C182.387 14.9161 181.91 14.8185 181.359 14.8185C181.153 14.8185 180.946 14.8357 180.739 14.8701C180.533 14.8931 180.332 14.9333 180.137 14.9907L180.826 14.0609C181.044 13.9575 181.279 13.8772 181.532 13.8198C181.784 13.7624 182.037 13.7337 182.289 13.7337C182.932 13.7337 183.506 13.8829 184.011 14.1814C184.528 14.4798 184.935 14.8988 185.234 15.4384C185.543 15.9779 185.698 16.6035 185.698 17.3152C185.698 18.0728 185.515 18.7443 185.147 19.3298C184.792 19.9037 184.298 20.3572 183.667 20.6901C183.035 21.0115 182.301 21.1722 181.463 21.1722ZM180.137 14.9907V14.0092L183.632 10.0317L185.561 10.0145L181.962 14.0953L180.137 14.9907ZM178.294 10.4966V9.05022H185.561V10.0145L184.149 10.4966H178.294ZM187.043 20.0185L191.451 15.3695C191.899 14.9103 192.249 14.5143 192.501 14.1814C192.754 13.837 192.932 13.5213 193.035 13.2344C193.15 12.9474 193.207 12.6489 193.207 12.339C193.207 11.7306 193.012 11.2542 192.622 10.9098C192.232 10.5655 191.726 10.3933 191.107 10.3933C190.498 10.3933 189.964 10.5425 189.505 10.841C189.046 11.1279 188.639 11.5756 188.283 12.184L187.146 11.237C187.617 10.4564 188.185 9.87098 188.851 9.48069C189.517 9.07891 190.286 8.87803 191.158 8.87803C191.893 8.87803 192.53 9.02152 193.07 9.3085C193.621 9.59548 194.045 9.99725 194.344 10.5138C194.642 11.0304 194.791 11.633 194.791 12.3218C194.791 12.8154 194.728 13.2573 194.602 13.6476C194.487 14.0379 194.275 14.4397 193.965 14.8529C193.666 15.2547 193.247 15.7368 192.708 16.2993L189.144 19.9669L187.043 20.0185ZM187.043 21V20.0185L188.42 19.5536H195.067V21H187.043Z" fill="black"/>
<rect x="172" y="29" width="29" height="28" fill="#FFB21D"/>
<path d="M186.494 50V38.0502H188.095V50H186.494ZM184.049 39.4966V38.0502H187.923V39.4966H184.049Z" fill="black"/>
<rect x="202" width="29" height="28" fill="#FFB21D"/>
<path d="M211.635 21V9.05022H213.236V21H211.635ZM209.19 10.4966V9.05022H213.064V10.4966H209.19ZM219.481 21.1722C218.689 21.1722 217.977 20.9885 217.346 20.6212C216.726 20.2539 216.232 19.7603 215.865 19.1404C215.498 18.5205 215.314 17.8318 215.314 17.0741C215.314 16.0181 215.681 14.9677 216.416 13.9231L219.928 9.05022H221.805L218.207 13.9575L217.621 14.2675C217.759 14.0264 217.925 13.8255 218.121 13.6648C218.316 13.4926 218.557 13.3606 218.844 13.2688C219.131 13.177 219.469 13.1311 219.86 13.1311C220.56 13.1311 221.191 13.2975 221.754 13.6304C222.328 13.9633 222.787 14.4225 223.131 15.0079C223.487 15.5818 223.665 16.2534 223.665 17.0225C223.665 17.7801 223.476 18.4746 223.097 19.1059C222.729 19.7373 222.224 20.2424 221.581 20.6212C220.95 20.9885 220.25 21.1722 219.481 21.1722ZM219.481 19.6569C219.963 19.6569 220.393 19.5421 220.772 19.3126C221.162 19.0715 221.467 18.7558 221.685 18.3655C221.914 17.9638 222.029 17.5161 222.029 17.0225C222.029 16.5289 221.914 16.0869 221.685 15.6966C221.467 15.2949 221.162 14.9792 220.772 14.7496C220.393 14.52 219.963 14.4052 219.481 14.4052C218.999 14.4052 218.562 14.52 218.172 14.7496C217.793 14.9792 217.489 15.2949 217.26 15.6966C217.041 16.0869 216.932 16.5289 216.932 17.0225C216.932 17.5161 217.041 17.9638 217.26 18.3655C217.489 18.7673 217.793 19.083 218.172 19.3126C218.562 19.5421 218.999 19.6569 219.481 19.6569Z" fill="black"/>
<rect x="202" y="29" width="29" height="28" fill="#FFB21D"/>
<path d="M216.494 50V38.0502H218.095V50H216.494ZM214.049 39.4966V38.0502H217.923V39.4966H214.049Z" fill="black"/>
<rect x="232" width="29" height="28" fill="#FFB21D"/>
<path d="M246.502 21.1722C245.71 21.1722 245.009 21.023 244.401 20.7245C243.804 20.426 243.339 20.0128 243.006 19.4848C242.673 18.9567 242.507 18.3598 242.507 17.694C242.507 17.1545 242.61 16.6609 242.817 16.2132C243.024 15.7655 243.328 15.3867 243.729 15.0768C244.131 14.7553 244.602 14.5258 245.141 14.388L245.193 14.8529C244.734 14.7267 244.344 14.5258 244.022 14.2503C243.701 13.9633 243.454 13.6304 243.282 13.2516C243.121 12.8613 243.041 12.448 243.041 12.0118C243.041 11.392 243.19 10.8467 243.488 10.3761C243.787 9.90541 244.194 9.53808 244.711 9.27406C245.239 8.99856 245.836 8.86081 246.502 8.86081C247.179 8.86081 247.776 8.99856 248.292 9.27406C248.809 9.53808 249.216 9.90541 249.515 10.3761C249.813 10.8467 249.963 11.392 249.963 12.0118C249.963 12.448 249.877 12.8613 249.704 13.2516C249.544 13.6304 249.303 13.9633 248.981 14.2503C248.671 14.5258 248.287 14.7267 247.828 14.8529L247.862 14.388C248.413 14.5258 248.884 14.7553 249.274 15.0768C249.676 15.3867 249.98 15.7655 250.186 16.2132C250.405 16.6609 250.514 17.1545 250.514 17.694C250.514 18.3598 250.347 18.9567 250.014 19.4848C249.681 20.0128 249.211 20.426 248.602 20.7245C248.005 21.023 247.305 21.1722 246.502 21.1722ZM246.502 19.7086C246.984 19.7086 247.403 19.6168 247.759 19.4331C248.126 19.238 248.413 18.9739 248.62 18.641C248.838 18.3081 248.947 17.9236 248.947 17.4874C248.947 17.0627 248.838 16.6838 248.62 16.3509C248.413 16.0181 248.126 15.7598 247.759 15.5761C247.403 15.381 246.984 15.2834 246.502 15.2834C246.031 15.2834 245.612 15.381 245.245 15.5761C244.877 15.7598 244.585 16.0181 244.367 16.3509C244.16 16.6838 244.057 17.0627 244.057 17.4874C244.057 17.9236 244.16 18.3081 244.367 18.641C244.585 18.9739 244.877 19.238 245.245 19.4331C245.612 19.6168 246.031 19.7086 246.502 19.7086ZM246.502 14.0264C247.076 14.0264 247.546 13.8485 247.914 13.4926C248.281 13.1368 248.465 12.6776 248.465 12.1151C248.465 11.5641 248.281 11.1165 247.914 10.7721C247.546 10.4162 247.076 10.2383 246.502 10.2383C245.939 10.2383 245.474 10.4162 245.107 10.7721C244.74 11.1165 244.556 11.5641 244.556 12.1151C244.556 12.6776 244.74 13.1368 245.107 13.4926C245.474 13.8485 245.939 14.0264 246.502 14.0264Z" fill="black"/>
<rect x="232" y="29" width="29" height="28" fill="#FFB21D"/>
<path d="M246.494 50V38.0502H248.095V50H246.494ZM244.049 39.4966V38.0502H247.923V39.4966H244.049Z" fill="black"/>
<rect x="262" width="29" height="28" fill="#FFB21D"/>
<path d="M271.923 16.8847L276.279 9.05022H278.104L273.662 16.8847H271.923ZM271.923 17.8834V16.8847L272.612 16.437H281.083V17.8834H271.923ZM277.76 21V13.0966H279.361V21H277.76Z" fill="black"/>
<rect x="262" y="29" width="29" height="28" fill="#FFB21D"/>
<path d="M276.532 50.1722C275.637 50.1722 274.816 49.9196 274.07 49.4146C273.335 48.9095 272.75 48.1978 272.314 47.2794C271.877 46.3496 271.659 45.2591 271.659 44.0079C271.659 42.7567 271.872 41.6719 272.296 40.7536C272.733 39.8352 273.318 39.1293 274.053 38.6357C274.787 38.1306 275.597 37.878 276.481 37.878C277.387 37.878 278.208 38.1306 278.943 38.6357C279.678 39.1293 280.257 39.8352 280.682 40.7536C281.118 41.6719 281.336 42.7624 281.336 44.0251C281.336 45.2763 281.118 46.3669 280.682 47.2967C280.257 48.215 279.678 48.9267 278.943 49.4318C278.22 49.9254 277.416 50.1722 276.532 50.1722ZM276.498 48.6397C277.129 48.6397 277.68 48.4675 278.151 48.1232C278.633 47.7673 279.012 47.245 279.287 46.5563C279.563 45.8675 279.701 45.0181 279.701 44.0079C279.701 42.9977 279.563 42.154 279.287 41.4767C279.012 40.788 278.633 40.2714 278.151 39.9271C277.669 39.5712 277.112 39.3933 276.481 39.3933C275.861 39.3933 275.31 39.5712 274.828 39.9271C274.346 40.2714 273.967 40.788 273.691 41.4767C273.427 42.154 273.295 42.9977 273.295 44.0079C273.295 45.0181 273.427 45.8675 273.691 46.5563C273.967 47.245 274.346 47.7673 274.828 48.1232C275.31 48.4675 275.866 48.6397 276.498 48.6397Z" fill="black"/>
<rect x="292" width="29" height="28" fill="#FFB21D"/>
<path d="M302.41 20.0185L306.818 15.3695C307.266 14.9103 307.616 14.5143 307.869 14.1814C308.121 13.837 308.299 13.5213 308.403 13.2344C308.517 12.9474 308.575 12.6489 308.575 12.339C308.575 11.7306 308.38 11.2542 307.989 10.9098C307.599 10.5655 307.094 10.3933 306.474 10.3933C305.866 10.3933 305.332 10.5425 304.873 10.841C304.414 11.1279 304.006 11.5756 303.65 12.184L302.514 11.237C302.984 10.4564 303.553 9.87098 304.218 9.48069C304.884 9.07891 305.653 8.87803 306.526 8.87803C307.26 8.87803 307.897 9.02152 308.437 9.3085C308.988 9.59548 309.413 9.99725 309.711 10.5138C310.01 11.0304 310.159 11.633 310.159 12.3218C310.159 12.8154 310.096 13.2573 309.969 13.6476C309.855 14.0379 309.642 14.4397 309.332 14.8529C309.034 15.2547 308.615 15.7368 308.075 16.2993L304.511 19.9669L302.41 20.0185ZM302.41 21V20.0185L303.788 19.5536H310.434V21H302.41Z" fill="black"/>
<rect x="292" y="29" width="29" height="28" fill="#FFB21D"/>
<path d="M306.532 50.1722C305.637 50.1722 304.816 49.9196 304.07 49.4146C303.335 48.9095 302.75 48.1978 302.314 47.2794C301.877 46.3496 301.659 45.2591 301.659 44.0079C301.659 42.7567 301.872 41.6719 302.296 40.7536C302.733 39.8352 303.318 39.1293 304.053 38.6357C304.787 38.1306 305.597 37.878 306.481 37.878C307.387 37.878 308.208 38.1306 308.943 38.6357C309.678 39.1293 310.257 39.8352 310.682 40.7536C311.118 41.6719 311.336 42.7624 311.336 44.0251C311.336 45.2763 311.118 46.3669 310.682 47.2967C310.257 48.215 309.678 48.9267 308.943 49.4318C308.22 49.9254 307.416 50.1722 306.532 50.1722ZM306.498 48.6397C307.129 48.6397 307.68 48.4675 308.151 48.1232C308.633 47.7673 309.012 47.245 309.287 46.5563C309.563 45.8675 309.701 45.0181 309.701 44.0079C309.701 42.9977 309.563 42.154 309.287 41.4767C309.012 40.788 308.633 40.2714 308.151 39.9271C307.669 39.5712 307.112 39.3933 306.481 39.3933C305.861 39.3933 305.31 39.5712 304.828 39.9271C304.346 40.2714 303.967 40.788 303.691 41.4767C303.427 42.154 303.295 42.9977 303.295 44.0079C303.295 45.0181 303.427 45.8675 303.691 46.5563C303.967 47.245 304.346 47.7673 304.828 48.1232C305.31 48.4675 305.866 48.6397 306.498 48.6397Z" fill="black"/>
<path d="M322 0H346C348.761 0 351 2.23858 351 5V28H322V0Z" fill="#FFB21D"/>
<path d="M336.494 21V9.05022H338.095V21H336.494ZM334.049 10.4966V9.05022H337.923V10.4966H334.049Z" fill="black"/>
<path d="M322 29H351V52C351 54.7614 348.761 57 346 57H322V29Z" fill="#FFB21D"/>
<path d="M336.494 50V38.0502H338.095V50H336.494ZM334.049 39.4966V38.0502H337.923V39.4966H334.049Z" fill="black"/>
</svg>
