<svg width="217" height="186" viewBox="0 0 217 186" fill="none" xmlns="http://www.w3.org/2000/svg">
<g clip-path="url(#clip0_677_1039)">
<path d="M106.735 50.0304L91.0664 40.9839C90.0282 40.3842 88.3399 40.3842 87.3067 40.9839L1.74048 90.7623C0.707319 91.362 0.712359 92.3398 1.75056 92.9395L17.4194 101.986C18.4576 102.586 20.1459 102.586 21.1791 101.986L106.745 52.2076C107.779 51.6079 107.773 50.6301 106.735 50.0304ZM93.4553 51.8195C91.9635 52.6864 89.5343 52.6864 88.0325 51.8195C86.5356 50.9577 86.5306 49.5466 88.0224 48.6848C89.5142 47.8179 91.9383 47.8229 93.4352 48.6848C94.937 49.5516 94.9471 50.9577 93.4553 51.8195Z" fill="url(#paint0_linear_677_1039)"/>
<path d="M87.8116 51.6784C87.8822 51.7288 87.9528 51.7742 88.0334 51.8195C89.5353 52.6864 91.9645 52.6864 93.4563 51.8195C94.948 50.9527 94.9329 49.5466 93.4361 48.6848C93.3555 48.6394 93.2647 48.6041 93.1791 48.5638L98.6674 45.3736L106.741 50.0354C107.779 50.6352 107.784 51.6129 106.751 52.2126L21.18 101.986C20.1469 102.586 18.4636 102.586 17.4203 101.986L9.35156 97.3242L87.8116 51.6784Z" fill="url(#paint1_linear_677_1039)"/>
<path d="M106.735 50.0304L91.0664 40.9839C90.0282 40.3842 88.3399 40.3842 87.3067 40.9839L1.74048 90.7623C0.707319 91.362 0.712359 92.3398 1.75056 92.9395L17.4194 101.986C18.4576 102.586 20.1459 102.586 21.1791 101.986L106.745 52.2076C107.779 51.6079 107.773 50.6301 106.735 50.0304ZM93.4553 51.8195C91.9635 52.6864 89.5343 52.6864 88.0325 51.8195C86.5356 50.9577 86.5306 49.5466 88.0224 48.6848C89.5142 47.8179 91.9383 47.8229 93.4352 48.6848C94.937 49.5516 94.9471 50.9577 93.4553 51.8195Z" stroke="#592A2D" stroke-linecap="round" stroke-linejoin="round"/>
<path d="M80.1009 49.6776L77.9136 48.4126C77.7372 48.3118 77.455 48.3118 77.2887 48.4126C77.1173 48.5134 77.1173 48.6747 77.2887 48.7755L79.476 50.0405C79.6524 50.1413 79.9295 50.1413 80.1059 50.0405C80.2723 49.9447 80.2723 49.7784 80.1009 49.6776Z" fill="white"/>
<path d="M74.9507 50.1363L76.3064 50.9174C76.4778 51.0182 76.76 51.0182 76.9364 50.9174C77.1128 50.8166 77.1027 50.6554 76.9314 50.5546L75.5757 49.7734C75.3993 49.6726 75.1271 49.6676 74.9507 49.7734C74.7743 49.8742 74.7794 50.0355 74.9507 50.1363Z" fill="white"/>
<path d="M72.6154 51.4919L73.9712 52.2731C74.1476 52.3739 74.4298 52.3739 74.5961 52.2731C74.7674 52.1723 74.7674 52.011 74.5961 51.9102L73.2404 51.1291C73.064 51.0283 72.7818 51.0283 72.6104 51.1291C72.439 51.2248 72.4441 51.3911 72.6154 51.4919Z" fill="white"/>
<path d="M63.271 56.9199L64.6267 57.701C64.8031 57.8018 65.0854 57.8018 65.2567 57.701C65.423 57.6053 65.423 57.4389 65.2517 57.3382L63.896 56.557C63.7196 56.4562 63.4374 56.4562 63.271 56.557C63.0946 56.6578 63.0997 56.8191 63.271 56.9199Z" fill="white"/>
<path d="M65.609 55.5641L66.9647 56.3453C67.1411 56.4461 67.4234 56.4461 67.5897 56.3453C67.761 56.2445 67.761 56.0782 67.5897 55.9774L66.234 55.1962C66.0576 55.0954 65.7753 55.0954 65.604 55.1962C65.4377 55.292 65.4377 55.4532 65.6141 55.554L65.609 55.5641Z" fill="white"/>
<path d="M67.939 54.2084L69.2947 54.9896C69.4661 55.0904 69.7483 55.0904 69.9247 54.9896C70.1011 54.8888 70.091 54.7275 69.9197 54.6267L68.5639 53.8455C68.3875 53.7447 68.1154 53.7397 67.939 53.8455C67.7626 53.9463 67.7677 54.1076 67.939 54.2084Z" fill="white"/>
<path d="M70.2761 52.8476L71.6318 53.6288C71.8082 53.7296 72.0854 53.7296 72.2618 53.6288C72.4281 53.528 72.4281 53.3667 72.2517 53.266L70.896 52.4848C70.7196 52.384 70.4374 52.384 70.271 52.4848C70.0946 52.5856 70.0997 52.7468 70.271 52.8476H70.2761Z" fill="white"/>
<path d="M60.9343 58.2806L62.29 59.0618C62.4614 59.1626 62.7487 59.1626 62.92 59.0618C63.0914 58.961 63.0863 58.7997 62.91 58.704L61.5542 57.9228C61.3778 57.822 61.1057 57.8169 60.9293 57.9228C60.7579 58.0236 60.7579 58.1848 60.9293 58.2856L60.9343 58.2806Z" fill="white"/>
<path d="M58.6012 59.6363L59.9569 60.4175C60.1333 60.5183 60.4105 60.5183 60.5819 60.4175C60.7532 60.3167 60.7532 60.1554 60.5819 60.0546L59.2261 59.2734C59.0497 59.1726 58.7675 59.1726 58.5962 59.2734C58.4298 59.3692 58.4298 59.5355 58.6062 59.6363H58.6012Z" fill="white"/>
<path d="M56.2593 60.992L57.615 61.7732C57.7914 61.874 58.0737 61.874 58.245 61.7732C58.4113 61.6774 58.4113 61.5111 58.24 61.4103L56.8843 60.6292C56.7079 60.5284 56.4307 60.5284 56.2593 60.6292C56.0829 60.73 56.088 60.8912 56.2593 60.992Z" fill="white"/>
<path d="M51.6148 63.6934L52.9705 64.4746C53.1469 64.5754 53.4241 64.5754 53.6005 64.4746C53.7718 64.3738 53.7668 64.2125 53.5954 64.1117L52.2397 63.3305C52.0633 63.2297 51.7861 63.2247 51.6148 63.3305C51.4384 63.4313 51.4434 63.5926 51.6148 63.6934Z" fill="white"/>
<path d="M56.7337 63.2549L54.5464 61.9899C54.37 61.8891 54.0979 61.8841 53.9215 61.9899C53.7501 62.0907 53.7501 62.252 53.9215 62.3578L56.1138 63.6228C56.2902 63.7236 56.5674 63.7236 56.7438 63.6228C56.9151 63.522 56.9101 63.3607 56.7337 63.2599V63.2549Z" fill="white"/>
<path d="M46.9461 66.4098L48.3018 67.191C48.4731 67.2918 48.7554 67.2918 48.9317 67.191C49.0981 67.0953 49.0981 66.9289 48.9217 66.8281L47.566 66.047C47.3896 65.9462 47.1073 65.9462 46.941 66.047C46.7697 66.1478 46.7697 66.309 46.941 66.4098H46.9461Z" fill="white"/>
<path d="M49.2795 65.0491L50.6352 65.8303C50.8116 65.9311 51.0938 65.9311 51.2602 65.8303C51.4365 65.7295 51.4315 65.5631 51.2602 65.4674L49.9044 64.6862C49.728 64.5854 49.4509 64.5854 49.2745 64.6862C49.1031 64.782 49.1081 64.9433 49.2795 65.044V65.0491Z" fill="white"/>
<path d="M44.6089 67.7656L45.9646 68.5467C46.1359 68.6475 46.4182 68.6475 46.5946 68.5467C46.7659 68.4459 46.7609 68.2847 46.5895 68.1839L45.2338 67.4027C45.0574 67.3019 44.7853 67.2969 44.6089 67.4027C44.4325 67.5035 44.4325 67.6648 44.6089 67.7656Z" fill="white"/>
<path d="M42.2737 69.1213L43.6294 69.9024C43.8058 70.0032 44.088 70.0032 44.2543 69.9024C44.4307 69.8016 44.4257 69.6404 44.2543 69.5396L42.8986 68.7584C42.7222 68.6576 42.445 68.6576 42.2686 68.7584C42.1023 68.8542 42.1023 69.0205 42.2737 69.1213Z" fill="white"/>
<path d="M21.273 81.3277L22.6288 82.1089C22.8052 82.2097 23.0874 82.2097 23.2587 82.1089C23.4351 82.0081 23.4251 81.8468 23.2537 81.746L21.898 80.9649C21.7266 80.8641 21.4494 80.859 21.273 80.9649C21.1017 81.0657 21.1017 81.2269 21.273 81.3277Z" fill="white"/>
<path d="M23.6128 79.967L24.9685 80.7482C25.1398 80.849 25.4221 80.849 25.5985 80.7482C25.7648 80.6524 25.7648 80.4861 25.5934 80.3903L24.2377 79.6092C24.0613 79.5084 23.7791 79.5084 23.6128 79.6092C23.4364 79.71 23.4364 79.8763 23.6128 79.972V79.967Z" fill="white"/>
<path d="M25.9528 78.6113L27.3085 79.3925C27.4849 79.4933 27.7671 79.4933 27.9334 79.3925C28.1098 79.2917 28.1048 79.1304 27.9334 79.0296L26.5777 78.2484C26.4013 78.1476 26.1191 78.1476 25.9477 78.2484C25.7814 78.3442 25.7814 78.5105 25.9578 78.6113H25.9528Z" fill="white"/>
<path d="M28.2788 77.2555L29.6346 78.0367C29.811 78.1375 30.0932 78.1375 30.2645 78.0367C30.4409 77.9359 30.4309 77.7746 30.2595 77.6739L28.9038 76.8927C28.7274 76.7919 28.4552 76.7868 28.2788 76.8927C28.1025 76.9935 28.1075 77.1547 28.2788 77.2555Z" fill="white"/>
<path d="M33.4056 76.8171L31.2183 75.5521C31.0419 75.4513 30.7698 75.4463 30.5934 75.5521C30.422 75.6529 30.422 75.8142 30.5934 75.92L32.7857 77.185C32.957 77.2858 33.2393 77.2858 33.4157 77.185C33.587 77.0842 33.582 76.9229 33.4056 76.8221V76.8171Z" fill="white"/>
<path d="M32.9332 74.5542L34.2889 75.3354C34.4603 75.4362 34.7425 75.4362 34.9189 75.3354C35.0852 75.2396 35.0852 75.0733 34.9139 74.9725L33.5581 74.1914C33.3868 74.0906 33.1046 74.0906 32.9332 74.1914C32.7618 74.2921 32.7618 74.4534 32.9332 74.5542Z" fill="white"/>
<path d="M35.2659 73.1934L36.6216 73.9746C36.798 74.0754 37.0802 74.0754 37.2465 73.9746C37.4179 73.8738 37.4179 73.7125 37.2465 73.6117L35.8908 72.8306C35.7144 72.7298 35.4372 72.7298 35.2608 72.8306C35.0945 72.9314 35.0945 73.0926 35.2659 73.1934Z" fill="white"/>
<path d="M37.5992 71.8377L38.9549 72.6189C39.1313 72.7197 39.4085 72.7197 39.5849 72.6189C39.7562 72.5181 39.7512 72.3568 39.5798 72.256L38.2241 71.4749C38.0477 71.3741 37.7705 71.369 37.5992 71.4749C37.4228 71.5757 37.4278 71.7369 37.5992 71.8377Z" fill="white"/>
<path d="M39.9382 70.482L41.294 71.2632C41.4653 71.364 41.7475 71.364 41.9239 71.2632C42.0903 71.1675 42.0903 71.0011 41.9139 70.9003L40.5581 70.1192C40.3818 70.0184 40.0995 70.0184 39.9332 70.1192C39.7618 70.22 39.7618 70.3863 39.9332 70.482H39.9382Z" fill="white"/>
<path d="M16.6042 84.0392L17.9599 84.8203C18.1363 84.9211 18.4135 84.9211 18.5899 84.8203C18.7562 84.7246 18.7562 84.5583 18.5798 84.4575L17.2241 83.6763C17.0477 83.5755 16.7655 83.5755 16.5992 83.6763C16.4228 83.7771 16.4278 83.9384 16.5992 84.0392H16.6042Z" fill="white"/>
<path d="M18.941 82.6835L20.2968 83.4646C20.4732 83.5654 20.7503 83.5654 20.9217 83.4646C21.0931 83.3638 21.0931 83.2026 20.9217 83.1018L19.566 82.3206C19.3896 82.2198 19.1074 82.2198 18.936 82.3206C18.7697 82.4214 18.7697 82.5827 18.9461 82.6835H18.941Z" fill="white"/>
<path d="M9.59727 88.1164L10.953 88.8976C11.1294 88.9984 11.4116 88.9984 11.583 88.8976C11.7543 88.7968 11.7493 88.6355 11.5779 88.5347L10.2222 87.7535C10.0458 87.6527 9.76358 87.6527 9.59727 87.7535C9.42591 87.8543 9.42591 88.0156 9.59727 88.1164Z" fill="white"/>
<path d="M11.9371 86.7556L13.2929 87.5368C13.4642 87.6376 13.7464 87.6376 13.9178 87.5368C14.0891 87.436 14.0891 87.2747 13.9178 87.1739L12.5621 86.3928C12.3857 86.292 12.1035 86.292 11.9321 86.3928C11.7658 86.4936 11.7658 86.6548 11.9422 86.7556H11.9371Z" fill="white"/>
<path d="M14.2632 85.3999L15.6189 86.1811C15.7953 86.2819 16.0725 86.2819 16.2489 86.1811C16.4253 86.0803 16.4152 85.919 16.2439 85.8182L14.8882 85.037C14.7118 84.9362 14.4396 84.9312 14.2632 85.037C14.0868 85.1378 14.0919 85.2991 14.2632 85.3999Z" fill="white"/>
<path d="M10.0708 90.3742L7.87845 89.1092C7.70206 89.0084 7.42991 89.0084 7.25352 89.1092C7.08216 89.21 7.08216 89.3713 7.25352 89.4721L9.4408 90.7371C9.6172 90.8379 9.89439 90.8379 10.0708 90.7371C10.2421 90.6363 10.2371 90.475 10.0657 90.3742H10.0708Z" fill="white"/>
<path d="M91.2986 58.8551L89.9428 58.0739C89.7665 57.9732 89.4943 57.9732 89.3179 58.0739C89.1415 58.1747 89.1466 58.336 89.3179 58.4368L90.6736 59.218C90.85 59.3188 91.1323 59.3188 91.3036 59.218C91.475 59.1172 91.4699 58.9559 91.2935 58.8551H91.2986Z" fill="white"/>
<path d="M93.6361 57.4944L91.4437 56.2294C91.2774 56.1336 90.9952 56.1336 90.8238 56.2294C90.6525 56.3302 90.6525 56.4915 90.8238 56.5922L93.0212 57.8623C93.1976 57.9631 93.4748 57.9631 93.6512 57.8623C93.8175 57.7615 93.8175 57.6002 93.6411 57.4994L93.6361 57.4944Z" fill="white"/>
<path d="M86.6248 61.5666L85.2691 60.7854C85.0927 60.6846 84.8105 60.6846 84.6441 60.7854C84.4728 60.8862 84.4728 61.0474 84.6441 61.1482L85.9999 61.9294C86.1763 62.0302 86.4534 62.0302 86.6298 61.9294C86.7961 61.8337 86.7961 61.6673 86.6198 61.5666H86.6248Z" fill="white"/>
<path d="M88.9653 60.2108L87.6096 59.4297C87.4332 59.3289 87.1509 59.3289 86.9796 59.4297C86.8133 59.5254 86.8133 59.6917 86.9846 59.7925L88.3403 60.5737C88.5117 60.6745 88.7939 60.6745 88.9653 60.5737C89.1366 60.4729 89.1366 60.3116 88.9653 60.2108Z" fill="white"/>
<path d="M84.2889 62.9273L82.9331 62.1461C82.7568 62.0453 82.4846 62.0403 82.3082 62.1461C82.1368 62.2469 82.1368 62.4082 82.3082 62.509L83.6639 63.2902C83.8403 63.391 84.1225 63.391 84.2939 63.2902C84.4703 63.1894 84.4602 63.0281 84.2838 62.9273H84.2889Z" fill="white"/>
<path d="M81.9608 64.283L80.605 63.5019C80.4286 63.4011 80.1464 63.4011 79.9751 63.5019C79.8088 63.5976 79.8088 63.7639 79.9851 63.8647L81.3409 64.6459C81.5173 64.7467 81.7945 64.7467 81.9658 64.6459C82.1372 64.5451 82.1372 64.3838 81.9658 64.283H81.9608Z" fill="white"/>
<path d="M79.6189 65.6388L78.2632 64.8576C78.0868 64.7568 77.8045 64.7568 77.6382 64.8576C77.4618 64.9584 77.4669 65.1197 77.6382 65.2204L78.9939 66.0016C79.1703 66.1024 79.4475 66.1024 79.6239 66.0016C79.7902 65.9059 79.7902 65.7396 79.6138 65.6388H79.6189Z" fill="white"/>
<path d="M58.6234 77.8402L57.2677 77.059C57.0913 76.9582 56.8091 76.9582 56.6377 77.059C56.4664 77.1548 56.4714 77.3211 56.6428 77.4219L57.9985 78.203C58.1749 78.3038 58.4571 78.3038 58.6234 78.203C58.7998 78.1022 58.7948 77.941 58.6234 77.8402Z" fill="white"/>
<path d="M60.9567 76.4845L59.601 75.7033C59.4246 75.6025 59.1524 75.5975 58.976 75.7033C58.7997 75.8041 58.7997 75.9704 58.976 76.0662L60.3318 76.8473C60.5082 76.9481 60.7904 76.9481 60.9617 76.8473C61.1331 76.7465 61.1281 76.5853 60.9567 76.4845Z" fill="white"/>
<path d="M63.2908 75.1287L61.935 74.3476C61.7586 74.2468 61.4764 74.2468 61.3101 74.3476C61.1337 74.4484 61.1387 74.6096 61.3101 74.7104L62.6658 75.4916C62.8422 75.5924 63.1244 75.5924 63.2958 75.4916C63.4621 75.3958 63.4621 75.2295 63.2857 75.1287H63.2908Z" fill="white"/>
<path d="M65.6292 73.768L64.2735 72.9868C64.0971 72.886 63.8199 72.886 63.6435 72.9868C63.4722 73.0826 63.4722 73.2489 63.6486 73.3497L65.0043 74.1309C65.1807 74.2317 65.4579 74.2317 65.6292 74.1309C65.8056 74.0301 65.8006 73.8637 65.6292 73.763V73.768Z" fill="white"/>
<path d="M67.9626 72.4123L66.6069 71.6311C66.4305 71.5303 66.1533 71.5253 65.982 71.6311C65.8056 71.7319 65.8106 71.8932 65.982 71.994L67.3377 72.7752C67.5141 72.876 67.7913 72.876 67.9677 72.7752C68.139 72.6744 68.134 72.5131 67.9576 72.4123H67.9626Z" fill="white"/>
<path d="M70.2708 71.0717L68.0784 69.8067C67.9071 69.7059 67.6349 69.7059 67.4585 69.8067C67.2821 69.9075 67.2872 70.0688 67.4585 70.1645L69.6559 71.4345C69.8323 71.5353 70.1095 71.5353 70.2859 71.4345C70.4572 71.3338 70.4522 71.1725 70.2758 71.0717H70.2708Z" fill="white"/>
<path d="M72.6111 69.7109L71.2554 68.9298C71.079 68.829 70.8018 68.829 70.6304 68.9298C70.454 69.0306 70.4591 69.1918 70.6304 69.2926L71.9861 70.0738C72.1625 70.1746 72.4448 70.1746 72.6161 70.0738C72.7824 69.978 72.7824 69.8168 72.6111 69.7109Z" fill="white"/>
<path d="M74.949 68.3552L73.5933 67.574C73.4169 67.4732 73.1347 67.4732 72.9634 67.574C72.797 67.6698 72.797 67.8361 72.9734 67.9369L74.3291 68.7181C74.5055 68.8189 74.7827 68.8189 74.9541 68.7181C75.1254 68.6173 75.1254 68.456 74.9541 68.3552H74.949Z" fill="white"/>
<path d="M77.281 66.9995L75.9253 66.2183C75.7489 66.1175 75.4768 66.1125 75.3004 66.2183C75.129 66.3191 75.129 66.4804 75.3004 66.5812L76.6561 67.3624C76.8325 67.4632 77.1147 67.4632 77.2861 67.3624C77.4574 67.2616 77.4524 67.1003 77.276 66.9995H77.281Z" fill="white"/>
<path d="M56.285 79.2009L54.9292 78.4198C54.7528 78.319 54.4757 78.319 54.3043 78.4198C54.1329 78.5206 54.1329 78.6818 54.3043 78.7826L55.66 79.5638C55.8364 79.6646 56.1186 79.6646 56.29 79.5638C56.4563 79.4681 56.4563 79.3068 56.2799 79.206L56.285 79.2009Z" fill="white"/>
<path d="M37.6248 90.0466L36.2691 89.2655C36.0927 89.1647 35.8205 89.1596 35.6441 89.2655C35.4728 89.3663 35.4728 89.5275 35.6441 89.6283L36.9999 90.4095C37.1762 90.5103 37.4534 90.5103 37.6298 90.4095C37.8062 90.3087 37.7961 90.1474 37.6248 90.0466Z" fill="white"/>
<path d="M39.9626 88.6859L38.6069 87.9047C38.4305 87.8039 38.1533 87.8039 37.982 87.9047C37.8056 88.0055 37.8106 88.1668 37.982 88.2676L39.3377 89.0488C39.5141 89.1496 39.7963 89.1496 39.9677 89.0488C40.134 88.953 40.134 88.7917 39.9626 88.6859Z" fill="white"/>
<path d="M42.3012 87.3302L40.9455 86.549C40.7691 86.4482 40.4919 86.4482 40.3155 86.549C40.1492 86.6448 40.1492 86.8111 40.3206 86.9119L41.6763 87.6931C41.8476 87.7939 42.1299 87.7939 42.3012 87.6931C42.4726 87.5923 42.4726 87.431 42.3012 87.3302Z" fill="white"/>
<path d="M44.6287 85.9745L43.273 85.1933C43.0966 85.0925 42.8244 85.0874 42.648 85.1933C42.4767 85.2941 42.4767 85.4554 42.648 85.5562L44.0038 86.3373C44.1802 86.4381 44.4573 86.4381 44.6337 86.3373C44.8101 86.2365 44.8001 86.0753 44.6287 85.9745Z" fill="white"/>
<path d="M46.9426 84.6288L44.7503 83.3638C44.579 83.263 44.3068 83.263 44.1304 83.3638C43.954 83.4646 43.9591 83.6259 44.1304 83.7267L46.3227 84.9917C46.4991 85.0925 46.7814 85.0925 46.9527 84.9917C47.1241 84.8909 47.119 84.7296 46.9477 84.6288H46.9426Z" fill="white"/>
<path d="M49.281 83.2731L47.9253 82.4919C47.7489 82.3912 47.4717 82.3912 47.3004 82.4919C47.129 82.5927 47.129 82.754 47.3004 82.8548L48.6561 83.636C48.8325 83.7368 49.1147 83.7368 49.2861 83.636C49.4524 83.5402 49.4524 83.3739 49.281 83.2731Z" fill="white"/>
<path d="M51.6137 81.9124L50.258 81.1312C50.0816 81.0304 49.8044 81.0304 49.628 81.1312C49.4617 81.232 49.4617 81.3933 49.6331 81.4941L50.9888 82.2752C51.1652 82.376 51.4474 82.376 51.6137 82.2752C51.7901 82.1744 51.7851 82.0132 51.6137 81.9124Z" fill="white"/>
<path d="M53.9489 80.5566L52.5932 79.7755C52.4168 79.6747 52.1396 79.6696 51.9682 79.7755C51.7918 79.8763 51.7918 80.0375 51.9682 80.1383L53.3239 80.9195C53.5003 81.0203 53.7826 81.0203 53.9539 80.9195C54.1253 80.8187 54.1202 80.6574 53.9489 80.5566Z" fill="white"/>
<path d="M25.9451 96.8303L24.5894 96.0491C24.413 95.9483 24.1358 95.9483 23.9645 96.0491C23.7931 96.1499 23.7931 96.3111 23.9645 96.417L25.3202 97.1982C25.4966 97.299 25.7738 97.299 25.9501 97.1982C26.1215 97.1024 26.1165 96.9361 25.9451 96.8353V96.8303Z" fill="white"/>
<path d="M28.285 95.4745L26.9293 94.6934C26.7529 94.5926 26.4757 94.5926 26.2993 94.6934C26.133 94.7942 26.133 94.9554 26.3094 95.0562L27.6651 95.8374C27.8415 95.9382 28.1237 95.9382 28.29 95.8374C28.4614 95.7366 28.4614 95.5753 28.29 95.4745H28.285Z" fill="white"/>
<path d="M30.6131 94.1188L29.2574 93.3377C29.081 93.2369 28.8088 93.2318 28.6324 93.3377C28.4611 93.4385 28.4611 93.5997 28.6324 93.7005L29.9881 94.4817C30.1645 94.5825 30.4417 94.5825 30.6181 94.4817C30.7945 94.3809 30.7844 94.2196 30.6131 94.1188Z" fill="white"/>
<path d="M32.9529 92.7581L31.5972 91.9769C31.4208 91.8761 31.1436 91.8761 30.9723 91.9769C30.8009 92.0777 30.8009 92.239 30.9723 92.3398L32.328 93.1209C32.5044 93.2217 32.7866 93.2217 32.958 93.1209C33.1243 93.0252 33.1243 92.8589 32.9479 92.7581H32.9529Z" fill="white"/>
<path d="M35.2889 91.4024L33.9332 90.6212C33.7568 90.5204 33.4796 90.5204 33.3032 90.6212C33.1369 90.722 33.1369 90.8833 33.3133 90.9841L34.669 91.7652C34.8454 91.866 35.1226 91.866 35.2939 91.7652C35.4653 91.6644 35.4653 91.5032 35.2939 91.4024H35.2889Z" fill="white"/>
<path d="M23.6059 98.191L21.4086 96.926C21.2372 96.8252 20.9651 96.8252 20.7887 96.926C20.6173 97.0268 20.6173 97.1881 20.7887 97.2889L22.986 98.5539C23.1624 98.6547 23.4396 98.6547 23.616 98.5539C23.7924 98.4531 23.7823 98.2918 23.611 98.191H23.6059Z" fill="white"/>
<path d="M145.217 77.815C145.207 80.5567 145.202 83.2933 145.191 86.035C145.191 86.2567 145.045 86.4785 144.753 86.6498L86.0239 120.78C85.4342 121.117 84.4766 121.117 83.887 120.78L40.5646 95.7669C40.2672 95.5955 40.1211 95.3687 40.1211 95.1419C40.1211 92.4053 40.1362 89.6636 40.1413 86.927C40.1413 87.1538 40.2874 87.3806 40.5848 87.552L83.9071 112.56C84.4968 112.902 85.4544 112.902 86.039 112.56L144.768 78.4299C145.06 78.2585 145.212 78.0368 145.212 77.815H145.217Z" fill="url(#paint2_linear_677_1039)"/>
<g style="mix-blend-mode:overlay" opacity="0.4">
<path d="M40.1424 88.2475C40.1424 88.4743 40.2885 88.701 40.5859 88.8724L83.9083 113.88C84.4979 114.223 85.4555 114.223 86.0401 113.88L144.769 79.7503C145.052 79.584 145.198 79.3723 145.208 79.1606C145.208 78.7121 145.208 78.2635 145.208 77.815C145.208 78.0368 145.057 78.2585 144.764 78.4299L86.0351 112.56C85.4505 112.902 84.4929 112.902 83.9032 112.56L40.5809 87.552C40.2835 87.3806 40.1373 87.1538 40.1373 86.927C40.1323 89.6636 40.1222 92.4053 40.1172 95.1419C40.1172 95.147 40.1172 95.1571 40.1172 95.1621C40.1172 92.8589 40.1273 90.5557 40.1323 88.2525L40.1424 88.2475Z" fill="white"/>
</g>
<path d="M144.77 77.1951C145.068 77.3664 145.219 77.5882 145.219 77.815C145.219 78.0418 145.068 78.2585 144.775 78.4299L86.0462 112.56C85.4616 112.902 84.504 112.902 83.9143 112.56L40.5919 87.5519C40.2946 87.3806 40.1484 87.1538 40.1484 86.927C40.1484 86.7002 40.2946 86.4835 40.5869 86.3121L99.3161 52.1824C99.9007 51.8397 100.858 51.8397 101.448 52.1824L144.77 77.1951Z" fill="url(#paint3_linear_677_1039)"/>
<path d="M145.215 77.815C145.215 77.5882 145.064 77.3664 144.766 77.1951L101.444 52.1824C100.854 51.8397 99.8968 51.8397 99.3121 52.1824L40.583 86.3121C40.2907 86.4835 40.1445 86.7053 40.1445 86.927C40.1445 87.1488 40.2907 87.3806 40.588 87.5519L83.9104 112.56C84.5001 112.902 85.4576 112.902 86.0423 112.56L144.771 78.4299C145.064 78.2585 145.215 78.0367 145.215 77.815Z" stroke="#592A2D" stroke-linecap="round" stroke-linejoin="round"/>
<path d="M40.1413 86.927C40.1362 89.6636 40.1261 92.4053 40.1211 95.1419C40.1211 95.3687 40.2672 95.5955 40.5646 95.7669L83.887 120.78C84.4766 121.117 85.4342 121.117 86.0239 120.78L144.753 86.6498C145.045 86.4785 145.191 86.2567 145.191 86.035C145.202 83.2933 145.207 80.5567 145.217 77.815" stroke="#592A2D" stroke-linecap="round" stroke-linejoin="round"/>
<path d="M135.771 77.3463C136.361 77.689 136.366 78.2434 135.776 78.5861L126.538 83.9535C125.949 84.2962 124.996 84.2962 124.401 83.9535L89.3393 63.7085C88.7496 63.3658 88.7446 62.8114 89.3343 62.4738L98.5723 57.1063C99.1619 56.7636 100.114 56.7636 100.709 57.1063L135.771 77.3513V77.3463Z" fill="url(#paint4_linear_677_1039)"/>
<path style="mix-blend-mode:multiply" d="M89.346 63.7085L89.5274 63.8144L98.579 58.5578C99.1686 58.2151 100.121 58.2151 100.716 58.5578L135.602 78.697L135.788 78.5911C136.378 78.2484 136.373 77.694 135.783 77.3513L100.721 57.1063C100.131 56.7636 99.1737 56.7636 98.584 57.1063L89.346 62.4738C88.7563 62.8165 88.7614 63.3708 89.351 63.7085H89.346Z" fill="url(#paint5_linear_677_1039)"/>
<path d="M93.6916 85.8787C94.2863 86.2214 94.2913 86.7758 93.7017 87.1185L86.1772 91.4931C85.5875 91.8358 84.635 91.8358 84.0353 91.4931L76.4604 87.1185C75.8707 86.7758 75.8657 86.2214 76.4554 85.8787L83.9798 81.5042C84.5695 81.1615 85.522 81.1615 86.1167 81.5042L93.6916 85.8787Z" fill="url(#paint6_linear_677_1039)"/>
<path d="M107.436 93.8164C108.031 94.1592 108.031 94.7135 107.441 95.0512L86.2636 107.358C85.674 107.701 84.7164 107.701 84.1217 107.358L76.5418 102.984C75.9521 102.641 75.9471 102.087 76.5418 101.744L97.7192 89.4368C98.3088 89.0941 99.2614 89.0941 99.8561 89.4368L107.436 93.8114V93.8164Z" fill="url(#paint7_linear_677_1039)"/>
<path d="M121.092 85.8787C121.682 86.2214 121.682 86.7758 121.092 87.1185L113.568 91.4931C112.978 91.8358 112.026 91.8358 111.431 91.4931L103.851 87.1185C103.261 86.7758 103.256 86.2214 103.846 85.8838L111.37 81.5092C111.96 81.1665 112.918 81.1665 113.507 81.5092L121.087 85.8838L121.092 85.8787Z" fill="url(#paint8_linear_677_1039)"/>
<path d="M107.349 77.941C107.944 78.2837 107.944 78.8381 107.354 79.1808L99.8295 83.5554C99.2399 83.8981 98.2874 83.8981 97.6876 83.5554L90.1127 79.1808C89.5231 78.8381 89.518 78.2837 90.1077 77.941L97.6322 73.5664C98.2218 73.2237 99.1794 73.2237 99.7741 73.5664L107.349 77.941Z" fill="url(#paint9_linear_677_1039)"/>
<path d="M80.0386 93.8114C80.6333 94.1541 80.6383 94.7085 80.0487 95.0512L72.5242 99.4258C71.9346 99.7685 70.977 99.7685 70.3823 99.4258L62.8074 95.0512C62.2178 94.7085 62.2127 94.1541 62.8074 93.8114L70.3319 89.4368C70.9215 89.0941 71.8741 89.0941 72.4688 89.4368L80.0436 93.8114H80.0386Z" fill="url(#paint10_linear_677_1039)"/>
<path d="M66.2925 85.8787C66.8822 86.2214 66.8922 86.7758 66.3026 87.1185L58.7781 91.4931C58.1885 91.8358 57.2259 91.8358 56.6362 91.4931L49.0613 87.1185C48.4717 86.7758 48.4666 86.2214 49.0613 85.8787L56.5858 81.5042C57.1755 81.1615 58.128 81.1615 58.7227 81.5042L66.2976 85.8787H66.2925Z" fill="url(#paint11_linear_677_1039)"/>
<path d="M79.9483 77.946C80.5379 78.2887 80.548 78.8431 79.9583 79.1858L72.4339 83.5604C71.8442 83.9031 70.8866 83.8981 70.297 83.5604L62.7221 79.1858C62.1325 78.8431 62.1274 78.2887 62.7171 77.946L70.2415 73.5715C70.8312 73.2287 71.7837 73.2287 72.3784 73.5715L79.9533 77.946H79.9483Z" fill="url(#paint12_linear_677_1039)"/>
<path d="M93.6056 70.0083C94.1953 70.351 94.2003 70.9054 93.6107 71.2481L86.0862 75.6227C85.4966 75.9654 84.539 75.9603 83.9493 75.6227L76.3745 71.2481C75.7848 70.9054 75.7798 70.351 76.3694 70.0083L83.8939 65.6337C84.4835 65.291 85.4411 65.291 86.0308 65.6337L93.6056 70.0083Z" fill="url(#paint13_linear_677_1039)"/>
<path d="M135.771 77.3463C136.361 77.689 136.366 78.2434 135.776 78.5861L126.538 83.9535C125.949 84.2962 124.996 84.2962 124.401 83.9535L89.3393 63.7085C88.7496 63.3658 88.7446 62.8114 89.3343 62.4738L98.5723 57.1063C99.1619 56.7636 100.114 56.7636 100.709 57.1063L135.771 77.3513V77.3463Z" stroke="#592A2D" stroke-linecap="round" stroke-linejoin="round"/>
<path d="M93.6916 85.8787C94.2863 86.2214 94.2913 86.7758 93.7017 87.1185L86.1772 91.4931C85.5875 91.8358 84.635 91.8358 84.0353 91.4931L76.4604 87.1185C75.8707 86.7758 75.8657 86.2214 76.4554 85.8787L83.9798 81.5042C84.5695 81.1615 85.522 81.1615 86.1167 81.5042L93.6916 85.8787Z" stroke="#592A2D" stroke-linecap="round" stroke-linejoin="round"/>
<path d="M107.436 93.8164C108.031 94.1592 108.031 94.7135 107.441 95.0512L86.2636 107.358C85.674 107.701 84.7164 107.701 84.1217 107.358L76.5418 102.984C75.9521 102.641 75.9471 102.087 76.5418 101.744L97.7192 89.4368C98.3088 89.0941 99.2614 89.0941 99.8561 89.4368L107.436 93.8114V93.8164Z" stroke="#592A2D" stroke-linecap="round" stroke-linejoin="round"/>
<path d="M121.092 85.8787C121.682 86.2214 121.682 86.7758 121.092 87.1185L113.568 91.4931C112.978 91.8358 112.026 91.8358 111.431 91.4931L103.851 87.1185C103.261 86.7758 103.256 86.2214 103.846 85.8838L111.37 81.5092C111.96 81.1665 112.918 81.1665 113.507 81.5092L121.087 85.8838L121.092 85.8787Z" stroke="#592A2D" stroke-linecap="round" stroke-linejoin="round"/>
<path d="M107.349 77.941C107.944 78.2837 107.944 78.8381 107.354 79.1808L99.8295 83.5554C99.2399 83.8981 98.2874 83.8981 97.6876 83.5554L90.1127 79.1808C89.5231 78.8381 89.518 78.2837 90.1077 77.941L97.6322 73.5664C98.2218 73.2237 99.1794 73.2237 99.7741 73.5664L107.349 77.941Z" stroke="#592A2D" stroke-linecap="round" stroke-linejoin="round"/>
<path d="M80.0386 93.8114C80.6333 94.1541 80.6383 94.7085 80.0487 95.0512L72.5242 99.4258C71.9346 99.7685 70.977 99.7685 70.3823 99.4258L62.8074 95.0512C62.2178 94.7085 62.2127 94.1541 62.8074 93.8114L70.3319 89.4368C70.9216 89.0941 71.8741 89.0941 72.4688 89.4368L80.0436 93.8114H80.0386Z" stroke="#592A2D" stroke-linecap="round" stroke-linejoin="round"/>
<path d="M66.2925 85.8787C66.8822 86.2214 66.8922 86.7758 66.3026 87.1185L58.7781 91.4931C58.1885 91.8358 57.2259 91.8358 56.6362 91.4931L49.0613 87.1185C48.4717 86.7758 48.4666 86.2214 49.0613 85.8787L56.5858 81.5042C57.1755 81.1615 58.128 81.1615 58.7227 81.5042L66.2975 85.8787H66.2925Z" stroke="#592A2D" stroke-linecap="round" stroke-linejoin="round"/>
<path d="M79.9483 77.946C80.5379 78.2887 80.548 78.8431 79.9583 79.1858L72.4339 83.5604C71.8442 83.9031 70.8866 83.8981 70.297 83.5604L62.7221 79.1858C62.1325 78.8431 62.1274 78.2887 62.7171 77.946L70.2415 73.5715C70.8312 73.2287 71.7837 73.2287 72.3784 73.5715L79.9533 77.946H79.9483Z" stroke="#592A2D" stroke-linecap="round" stroke-linejoin="round"/>
<path d="M93.6056 70.0083C94.1953 70.351 94.2003 70.9054 93.6107 71.2481L86.0862 75.6227C85.4966 75.9654 84.539 75.9603 83.9493 75.6227L76.3745 71.2481C75.7848 70.9054 75.7798 70.351 76.3694 70.0083L83.8939 65.6337C84.4835 65.291 85.4411 65.291 86.0308 65.6337L93.6056 70.0083Z" stroke="#592A2D" stroke-linecap="round" stroke-linejoin="round"/>
<path d="M61.3896 86.7355L61.3846 85.6167H58.6581L58.653 84.0291H56.7127L56.7228 85.6167H53.9609L53.971 86.7405H56.7278L56.7379 88.3079H58.6732L58.6631 86.7405L61.3896 86.7355Z" fill="white"/>
<path d="M74.5273 76.8423L73.1515 76.0511L71.2464 77.1598L69.3111 76.041L67.9453 76.8373L69.8806 77.9511L67.9453 79.075L69.3212 79.8662L71.2514 78.7474L73.2069 79.8763L74.5727 79.08L72.6172 77.9511L74.5273 76.8423Z" fill="white"/>
<path d="M84.9563 84.7851L83.5703 85.5914L86.9621 87.5519L88.3481 86.7456L84.9563 84.7851Z" fill="white"/>
<path d="M91.3212 95.3486L89.9453 96.1499L95.0255 99.0831L96.4013 98.2868L91.3212 95.3486Z" fill="white"/>
<path d="M87.5781 97.5258L92.6633 100.459L94.0392 99.6627L88.959 96.7245L87.5781 97.5258Z" fill="white"/>
<path d="M111.67 85.1227C112.375 85.531 113.217 85.5007 114.104 84.9867C114.991 84.4726 115.031 83.9888 114.326 83.5806C113.62 83.1723 112.788 83.1975 111.901 83.7116C111.014 84.2257 110.964 84.7145 111.67 85.1227ZM112.799 84.2307C113.217 83.9888 113.428 83.9081 113.59 84.0039C113.756 84.0997 113.62 84.2206 113.202 84.4625C112.783 84.7095 112.562 84.7901 112.395 84.6944C112.229 84.5986 112.375 84.4726 112.793 84.2307H112.799Z" fill="#592A2D"/>
<path d="M116.647 84.6389L108.039 87.1387L108.488 87.6527L117.075 85.1631L116.647 84.6389Z" fill="#592A2D"/>
<path d="M113.423 87.2143C112.718 86.8061 111.886 86.8313 110.999 87.3453C110.112 87.8594 110.062 88.3482 110.767 88.7565C111.473 89.1647 112.32 89.1345 113.201 88.6154C114.088 88.1013 114.129 87.6175 113.423 87.2092V87.2143ZM112.304 88.1013C111.886 88.3432 111.664 88.4289 111.498 88.3331C111.332 88.2374 111.478 88.1114 111.901 87.8695C112.32 87.6276 112.531 87.5469 112.692 87.6427C112.859 87.7384 112.723 87.8594 112.304 88.1063V88.1013Z" fill="#592A2D"/>
<path d="M67.957 95.3486L69.3581 96.155L70.7441 95.3536L69.348 94.5422L67.957 95.3486Z" fill="white"/>
<path d="M68.5352 93.2571L72.9652 95.8173L74.3511 95.0109L69.9211 92.4557L68.5352 93.2571Z" fill="white"/>
<path d="M74.5644 93.131L73.1633 92.3247L71.7773 93.131L73.1784 93.9374L74.5644 93.131Z" fill="white"/>
<path d="M88.3006 70.0536C88.1595 69.973 87.968 69.9277 87.7563 69.9277C87.3431 69.9327 87.0205 70.1292 87.0306 70.3661C87.0407 70.6786 86.8492 70.9911 86.4359 71.2279C86.0327 71.4598 85.5136 71.5757 84.9895 71.5757C84.4653 71.5757 83.9462 71.4598 83.538 71.2279C83.1348 70.9961 82.9332 70.6937 82.9332 70.3913C82.9332 70.0889 83.1247 69.7865 83.5279 69.5547C83.9412 69.3178 84.4754 69.2019 85.0147 69.207C85.4279 69.212 85.7656 69.0255 85.7706 68.7887C85.7706 68.6677 85.69 68.5518 85.5489 68.4711C85.4178 68.3955 85.2364 68.3502 85.0399 68.3451C84.1125 68.3351 83.1751 68.5367 82.4695 68.9449C81.0937 69.7462 81.0987 71.0415 82.4847 71.8428C83.8706 72.6441 86.1133 72.6441 87.4892 71.8428C88.1948 71.4346 88.5375 70.8903 88.5173 70.351C88.5123 70.2351 88.4266 70.1292 88.2956 70.0536H88.3006Z" fill="white"/>
<path d="M84.8365 70.477C85.1289 70.6484 85.5976 70.6433 85.8899 70.477L87.8252 69.3531C88.1175 69.1868 88.1124 68.9147 87.8252 68.7433C87.5329 68.577 87.0641 68.577 86.7718 68.7433L84.8365 69.8672C84.5493 70.0335 84.5493 70.3056 84.8365 70.477Z" fill="white"/>
<path d="M101.341 76.9078C99.995 76.1317 98.7149 76.2224 97.1223 77.1497C95.434 78.1325 95.2576 78.8532 96.6082 79.6293C97.1122 79.9216 98.2109 80.35 98.2714 80.3702L99.1937 79.7906C99.1534 79.7704 98.4175 79.4277 98.0698 79.2261C97.2029 78.7272 97.3491 78.4399 98.352 77.8603C99.2491 77.3362 99.7481 77.2404 100.615 77.7394C100.958 77.9359 101.567 78.3643 101.603 78.3895L102.596 77.8603C102.56 77.8301 101.865 77.2152 101.341 76.9128V76.9078Z" fill="#592A2D"/>
<path d="M160.902 18.7683L162.676 17.7352V36.4481L160.902 37.4812V18.7683Z" fill="#99293D"/>
<path d="M147.934 11.2842L149.708 10.251L162.675 17.7352L160.901 18.7683L147.934 11.2842Z" fill="#F25570"/>
<path d="M160.901 18.7683V37.4812L154.405 38.4388L147.934 29.9971V11.2842L160.901 18.7683Z" fill="url(#paint14_linear_677_1039)"/>
<path d="M147.934 11.2842V29.9971L154.405 38.4388L160.901 37.4812V18.7683L147.934 11.2842Z" stroke="#592A2D" stroke-linecap="round" stroke-linejoin="round"/>
<path d="M160.902 37.4812L162.676 36.4481V17.7352" stroke="#592A2D" stroke-linecap="round" stroke-linejoin="round"/>
<path d="M145.805 15.4269L149.353 13.3656L154.685 17.4177L151.137 19.484L145.805 15.4269Z" fill="#8F9CD9"/>
<path d="M151.135 19.484L154.683 17.4176L142.743 95.278L139.195 97.3443L151.135 19.484Z" fill="url(#paint15_linear_677_1039)"/>
<path d="M145.803 15.4269L151.135 19.484L139.196 97.3443L137.059 95.7165L135.738 81.0354L145.803 15.4269Z" fill="url(#paint16_linear_677_1039)"/>
<path d="M145.805 15.4269L149.353 13.3656L154.685 17.4177L151.137 19.484" stroke="#592A2D" stroke-linecap="round" stroke-linejoin="round"/>
<path d="M154.683 17.4176L142.743 95.278L139.195 97.3443" stroke="#592A2D" stroke-linecap="round" stroke-linejoin="round"/>
<path d="M145.803 15.4269L151.135 19.484L139.196 97.3443L137.059 95.7165L135.738 81.0354L145.803 15.4269Z" stroke="#592A2D" stroke-linecap="round" stroke-linejoin="round"/>
<path d="M167.201 99.199L170.754 97.1377L169.358 110.251L165.805 112.313L167.201 99.199Z" fill="url(#paint17_linear_677_1039)"/>
<path d="M157.543 22.2105L161.096 20.1442L170.752 97.1377L167.199 99.199L157.543 22.2105Z" fill="url(#paint18_linear_677_1039)"/>
<path d="M152.207 20.1039L155.76 18.0376L161.097 20.1442L157.544 22.2105L152.207 20.1039Z" fill="#8F9CD9"/>
<path d="M157.544 22.2105L167.201 99.199L165.805 112.313L163.668 111.471L152.207 20.1039L157.544 22.2105Z" fill="url(#paint19_linear_677_1039)"/>
<path d="M167.201 99.199L170.754 97.1377L169.358 110.251L165.805 112.313" stroke="#592A2D" stroke-linecap="round" stroke-linejoin="round"/>
<path d="M161.098 20.1442L170.754 97.1377" stroke="#592A2D" stroke-linecap="round" stroke-linejoin="round"/>
<path d="M152.207 20.1039L155.76 18.0376L161.097 20.1442L157.544 22.2105" stroke="#592A2D" stroke-linecap="round" stroke-linejoin="round"/>
<path d="M157.544 22.2105L167.201 99.199L165.805 112.313L163.668 111.471L152.207 20.1039L157.544 22.2105Z" stroke="#592A2D" stroke-linecap="round" stroke-linejoin="round"/>
<path d="M156.934 21.0463L158.708 20.0132V38.7261L156.934 39.7542V21.0463Z" fill="#99293D"/>
<path d="M143.965 13.5572L145.739 12.524L158.706 20.0132L156.932 21.0463L143.965 13.5572Z" fill="#F25570"/>
<path d="M156.932 21.0463V39.7542L150.436 40.7118L143.965 32.27V13.5571L156.932 21.0463Z" fill="url(#paint20_linear_677_1039)"/>
<path d="M149.519 22.8657C148.163 22.0846 147.06 22.7095 147.055 24.2718C147.055 25.8342 148.148 27.7342 149.504 28.5154C150.86 29.3016 151.963 28.6716 151.969 27.1093C151.969 25.552 150.875 23.6519 149.519 22.8657Z" fill="#99293D" stroke="#592A2D" stroke-linecap="round" stroke-linejoin="round"/>
<path d="M150.341 25.6931L149.943 25.4663V25.0127C149.943 24.6851 149.716 24.2819 149.429 24.1206C149.141 23.9543 148.904 24.0854 148.904 24.418V24.8716L148.511 24.6448C148.224 24.4785 147.992 24.6145 147.992 24.9421C147.992 25.2697 148.224 25.6729 148.511 25.8342L148.904 26.061V26.5146C148.904 26.8421 149.136 27.2453 149.423 27.4116C149.711 27.578 149.943 27.4419 149.943 27.1143V26.6607L150.341 26.8875C150.628 27.0538 150.86 26.9177 150.86 26.5901C150.86 26.2575 150.628 25.8594 150.346 25.6931H150.341Z" fill="#592A2D"/>
<path d="M143.965 13.5571V32.27L150.436 40.7118L156.932 39.7542V21.0463L143.965 13.5571Z" stroke="#592A2D" stroke-linecap="round" stroke-linejoin="round"/>
<path d="M156.934 39.7542L158.708 38.7261V20.0132" stroke="#592A2D" stroke-linecap="round" stroke-linejoin="round"/>
<path d="M156.883 21.0917L162.679 17.7352L162.674 19.7914L156.933 23.0975L156.883 21.0917Z" fill="#AB3C4F"/>
<path d="M149.71 10.251L162.677 17.7352L156.882 21.0917L143.914 13.6025L149.71 10.251Z" fill="#BF4358"/>
<path d="M162.677 17.7352L149.71 10.251L143.914 13.6025L156.882 21.0917L162.677 17.7352ZM162.677 17.7352L162.672 19.7914L156.932 23.0976L156.877 21.0917" stroke="#592A2D" stroke-linecap="round" stroke-linejoin="round"/>
<path d="M152.128 0.534225C152.814 0.146158 153.912 0.161277 154.578 0.559424C154.885 0.745898 155.051 0.97773 155.066 1.2146C155.066 1.23476 155.066 1.24988 155.066 1.27004C155.066 1.52707 154.885 1.7841 154.537 1.97562C153.852 2.36368 152.758 2.3536 152.088 1.95546C151.74 1.74378 151.579 1.47163 151.604 1.20452C151.619 0.957571 151.796 0.720699 152.123 0.534225H152.128Z" fill="url(#paint21_linear_677_1039)"/>
<path d="M155.072 1.27005C155.45 5.99741 155.823 10.7298 156.201 15.4572C156.236 15.9208 155.944 16.3895 155.324 16.7373C154.17 17.3874 152.33 17.3673 151.211 16.697C150.627 16.3492 150.354 15.8906 150.39 15.437C150.798 10.6945 151.201 5.94701 151.604 1.20453C151.579 1.47164 151.74 1.74379 152.088 1.95546C152.758 2.35361 153.852 2.36369 154.538 1.97562C154.885 1.78411 155.062 1.52708 155.067 1.27005H155.072Z" fill="url(#paint22_linear_677_1039)"/>
<path d="M151.604 1.20453C151.201 5.94701 150.798 10.6945 150.39 15.437C150.354 15.8906 150.627 16.3492 151.211 16.697C152.33 17.3673 154.17 17.3874 155.324 16.7373C155.944 16.3895 156.236 15.9208 156.201 15.4572C155.823 10.7298 155.45 5.99741 155.072 1.27005" stroke="#592A2D" stroke-linecap="round" stroke-linejoin="round"/>
<path d="M155.07 1.27004C155.07 1.52707 154.889 1.7841 154.541 1.97562C153.856 2.36368 152.762 2.3536 152.092 1.95546C151.744 1.74378 151.583 1.47163 151.608 1.20452C151.623 0.957571 151.8 0.720699 152.127 0.534225C152.813 0.146158 153.911 0.161277 154.576 0.559424C154.884 0.745898 155.05 0.97773 155.065 1.2146C155.065 1.23476 155.065 1.24988 155.065 1.27004H155.07Z" stroke="#592A2D" stroke-linecap="round" stroke-linejoin="round"/>
<path d="M190.04 117L189.994 132.84L161.242 116.234L161.288 100.404L190.04 117Z" fill="url(#paint23_linear_677_1039)"/>
<path d="M216.027 101.9L215.981 117.741L189.996 132.84L190.041 117L216.027 101.9Z" fill="#E4A67D"/>
<path d="M216.027 101.9L190.041 117L161.289 100.404L187.274 85.2991L216.027 101.9Z" fill="url(#paint24_linear_677_1039)"/>
<path d="M190.041 117L216.027 101.9L215.981 117.741L189.996 132.84L190.041 117Z" stroke="#592A2D" stroke-linecap="round" stroke-linejoin="round"/>
<path d="M190.041 117L161.289 100.404L187.274 85.2991L216.027 101.9" stroke="#592A2D" stroke-linecap="round" stroke-linejoin="round"/>
<path d="M189.994 132.84L161.242 116.234L161.288 100.404" stroke="#592A2D" stroke-linecap="round" stroke-linejoin="round"/>
<path d="M181.344 115.639L168.099 107.993C168.099 109.329 167.152 109.873 165.988 109.198L165.973 113.966C167.137 114.636 168.074 116.264 168.069 117.604L181.314 125.25C181.314 123.909 182.266 123.375 183.431 124.045L183.446 119.278C182.282 118.607 181.339 116.974 181.344 115.634V115.639Z" fill="url(#paint25_linear_677_1039)"/>
<path d="M181.344 115.639L168.099 107.993C168.099 109.329 167.152 109.873 165.988 109.198L165.973 113.966C167.137 114.636 168.074 116.264 168.069 117.604L181.314 125.25C181.314 123.909 182.266 123.375 183.431 124.045L183.446 119.278C182.282 118.607 181.339 116.974 181.344 115.634V115.639Z" stroke="#592A2D" stroke-linecap="round" stroke-linejoin="round"/>
<path d="M170.526 31.3074L165.325 34.3313L164.035 34.8101L169.236 31.7862L170.526 31.3074Z" fill="url(#paint26_linear_677_1039)"/>
<path d="M177.526 35.3443L172.33 38.3682L165.324 34.3313L170.525 31.3074L177.526 35.3443Z" fill="url(#paint27_linear_677_1039)"/>
<path d="M174.936 61.4204C175.38 63.0332 175.889 64.6812 176.478 66.3494C161.213 51.2904 164.01 34.9764 164.04 34.8101L165.33 34.3313L172.335 38.3733C172.29 39.22 172.27 40.2179 172.26 41.3468L171.907 41.1401L166.464 38.0003C166.177 41.3266 166.197 51.2752 174.936 61.4305V61.4204Z" fill="url(#paint28_linear_677_1039)"/>
<path d="M181.676 63.3255L176.48 66.3494C175.89 64.6812 175.381 63.0382 174.938 61.4204L180.129 58.4066C180.577 60.0244 181.086 61.6674 181.676 63.3255Z" fill="#DBEDFF"/>
<path d="M180.126 58.4066L174.935 61.4204C166.196 51.2652 166.176 41.3165 166.463 37.9902L171.906 41.1301C172.607 45.7516 174.663 52.0363 180.126 58.4016V58.4066Z" fill="url(#paint29_linear_677_1039)"/>
<path d="M180.125 58.4066C180.574 60.0244 181.083 61.6674 181.673 63.3255L176.477 66.3494" stroke="#592A2D" stroke-linecap="round" stroke-linejoin="round"/>
<path d="M171.906 41.1351C172.607 45.7566 174.663 52.0413 180.126 58.4066L174.935 61.4204" stroke="#592A2D" stroke-linecap="round" stroke-linejoin="round"/>
<path d="M164.035 34.8101L169.236 31.7862L170.526 31.3074" stroke="#592A2D" stroke-linecap="round" stroke-linejoin="round"/>
<path d="M177.528 35.3443C177.493 36.191 177.463 37.194 177.463 38.3178L172.262 41.3417" stroke="#592A2D" stroke-linecap="round" stroke-linejoin="round"/>
<path d="M165.324 34.3313L170.525 31.3074L177.526 35.3443L172.33 38.3682" stroke="#592A2D" stroke-linecap="round" stroke-linejoin="round"/>
<path d="M174.936 61.4204C166.197 51.2652 166.177 41.3165 166.464 37.9903L171.907 41.1301L172.26 41.3367C172.265 40.2078 172.29 39.2149 172.335 38.3632L165.33 34.3213L164.04 34.8C164.01 34.9714 161.213 51.2803 176.478 66.3393C175.889 64.6711 175.38 63.0281 174.936 61.4103V61.4204Z" stroke="#592A2D" stroke-linecap="round" stroke-linejoin="round"/>
<path d="M209.706 42.6521C210.265 46.2959 208.068 50.0506 203.159 52.7822C198.719 55.2617 192.933 56.4159 187.238 56.2697C181.906 56.1437 176.649 54.8686 172.658 52.4697C168.117 49.7331 166.162 46.1145 166.756 42.6017L166.766 42.5513C167.265 39.7139 169.453 36.947 173.293 34.8101C177.733 32.3305 183.519 31.1764 189.214 31.3125C194.546 31.4385 199.802 32.7135 203.784 35.1075C207.226 37.1788 209.182 39.7693 209.665 42.4203L209.701 42.642L209.706 42.6521Z" fill="url(#paint30_linear_677_1039)"/>
<path d="M198.881 98.3825L198.896 101.154C198.896 102.752 197.813 104.365 195.656 105.564C191.467 107.893 184.815 107.827 180.803 105.408C178.848 104.234 177.885 102.722 177.875 101.21V98.3069C177.875 99.8088 178.848 101.331 180.793 102.5C184.805 104.919 191.457 104.985 195.645 102.646C197.742 101.482 198.826 99.9399 198.876 98.3775L198.881 98.3825Z" fill="url(#paint31_linear_677_1039)"/>
<path d="M192.029 86.2819C194.1 89.5881 196.172 92.874 198.253 96.1701C198.702 96.8857 198.908 97.6367 198.878 98.3826C198.828 99.9449 197.744 101.487 195.648 102.651C191.46 104.99 184.807 104.924 180.795 102.505C178.85 101.331 177.877 99.8139 177.867 98.312C177.867 97.6115 178.074 96.9008 178.487 96.2306C180.513 92.9698 182.63 89.7141 184.661 86.4583V86.67C184.661 87.1992 184.999 87.7334 185.684 88.1467C187.095 88.9934 189.424 89.0186 190.89 88.1971C191.651 87.7737 192.024 87.2143 192.024 86.6549V86.2769L192.029 86.2819Z" fill="url(#paint32_linear_677_1039)"/>
<path d="M192.032 86.2819V86.6599C192.032 87.2193 191.654 87.7838 190.898 88.2021C189.432 89.0185 187.103 88.9984 185.692 88.1517C185.007 87.7384 184.669 87.2092 184.669 86.675V86.4634C184.669 86.2265 184.664 85.9745 184.664 85.7326V85.7124C184.664 85.7124 184.694 85.7225 184.709 85.7275C184.966 85.8283 185.758 86.1408 187.149 86.3777C188.993 86.6901 190.858 86.1206 191.574 85.8636C191.705 85.8132 191.861 85.7578 192.032 85.6923V86.287V86.2819Z" fill="url(#paint33_linear_677_1039)"/>
<path d="M201.527 36.3775C208.578 40.6261 208.331 47.3795 200.988 51.4819C197.163 53.6137 192.168 54.6066 187.254 54.4705C182.744 54.3445 178.294 53.2609 174.917 51.2198C167.866 46.9813 168.103 40.2179 175.456 36.1255C179.281 33.9937 184.276 32.9958 189.19 33.1369C193.711 33.2629 198.151 34.3465 201.527 36.3825V36.3775Z" fill="url(#paint34_linear_677_1039)"/>
<path d="M209.706 42.6521C210.401 46.7394 210.401 50.3429 210.376 51.3609C210.356 52.6814 210.331 54.3344 210.119 56.3806C209.963 57.943 209.63 60.0143 209.343 61.5666C209.167 62.5191 208.849 63.764 208.592 64.6913C208.38 65.4977 208.022 66.5409 207.775 67.3322C207.458 68.3351 206.883 69.6253 206.485 70.598C206.173 71.3439 205.694 72.3014 205.296 73.007C204.736 74.0049 203.945 75.3153 203.305 76.2678C202.514 77.432 201.299 78.8834 200.342 79.9267C199.596 80.7381 198.492 81.7108 197.635 82.4113C197.126 82.8246 196.043 83.6511 194.501 84.523C193.498 85.0976 192.641 85.4453 192.021 85.6822C191.85 85.7477 191.698 85.7981 191.562 85.8535C190.847 86.1106 188.982 86.6801 187.137 86.3676C185.746 86.1307 184.955 85.8233 184.698 85.7175C184.683 85.7124 184.678 85.7124 184.663 85.7023C184.073 85.4756 182.748 84.9514 181.463 84.145C179.346 82.8246 178.565 82.119 177.148 80.8288C175.823 79.6243 174.235 77.5933 174.22 77.5681C173.374 76.4543 170.783 73.0524 168.843 67.5539C168.288 65.9966 167.669 63.89 167.326 62.2722C166.832 59.9589 166.494 57.817 166.338 55.922C166.111 53.135 166.061 51.4365 166.141 48.9317C166.237 45.8877 166.6 43.524 166.761 42.6068C166.167 46.1145 168.117 49.7381 172.663 52.4747C176.65 54.8687 181.911 56.1488 187.243 56.2748C192.933 56.4209 198.724 55.2668 203.164 52.7872C208.078 50.0506 210.275 46.2959 209.711 42.6571L209.706 42.6521Z" fill="url(#paint35_linear_677_1039)"/>
<g style="mix-blend-mode:overlay" opacity="0.8">
<path d="M188.317 86.3676C186.926 86.1307 186.134 85.8233 185.877 85.7175C185.862 85.7124 185.857 85.7124 185.842 85.7023C185.252 85.4756 183.927 84.9514 182.642 84.145C180.525 82.8246 179.744 82.119 178.328 80.8288C177.002 79.6243 175.415 77.5933 175.4 77.5681C174.553 76.4543 171.962 73.0524 170.022 67.5539C169.468 65.9966 168.848 63.89 168.505 62.2722C168.011 59.9589 167.674 57.817 167.517 55.922C167.291 53.135 167.24 51.4365 167.321 48.9317C167.341 48.2917 167.371 47.6869 167.411 47.1174C166.721 45.6458 166.504 44.1137 166.761 42.6068C166.6 43.529 166.237 45.8877 166.141 48.9317C166.061 51.4365 166.111 53.135 166.338 55.922C166.494 57.817 166.832 59.9538 167.326 62.2722C167.674 63.89 168.293 65.9966 168.843 67.5539C170.783 73.0524 173.374 76.4543 174.22 77.5681C174.235 77.5882 175.818 79.6243 177.148 80.8288C178.565 82.119 179.346 82.8246 181.463 84.145C182.748 84.9464 184.073 85.4705 184.663 85.7023C184.678 85.7124 184.683 85.7124 184.698 85.7175C184.955 85.8183 185.746 86.1307 187.137 86.3676C187.727 86.4684 188.312 86.4684 188.866 86.4281C188.685 86.413 188.498 86.3978 188.317 86.3676Z" fill="white"/>
</g>
<g style="mix-blend-mode:overlay" opacity="0.8">
<path d="M204.333 52.7872C207.286 51.1442 209.246 49.1333 210.229 46.9964C210.128 45.6962 209.967 44.2094 209.7 42.6521C210.259 46.2959 208.062 50.0506 203.153 52.7822C199.111 55.035 193.956 56.1941 188.77 56.2748C194.344 56.3655 199.983 55.2063 204.327 52.7822L204.333 52.7872Z" fill="white"/>
</g>
<path d="M198.881 98.2414V98.3825L198.896 101.154C198.896 102.752 197.813 104.365 195.656 105.564C191.467 107.893 184.815 107.827 180.803 105.408C178.848 104.234 177.885 102.722 177.875 101.21V98.3069" stroke="#592A2D" stroke-linecap="round" stroke-linejoin="round"/>
<path d="M192.02 86.2718C192.02 86.2718 192.02 86.2769 192.025 86.2769C194.097 89.583 196.168 92.869 198.249 96.165C198.698 96.8807 198.905 97.6316 198.874 98.3775C198.824 99.9398 197.74 101.482 195.644 102.646C191.456 104.985 184.803 104.919 180.791 102.5C178.846 101.326 177.873 99.8088 177.863 98.3069C177.863 97.6064 178.07 96.8958 178.483 96.2255C180.509 92.9647 182.626 89.709 184.657 86.4533" stroke="#592A2D" stroke-linecap="round" stroke-linejoin="round"/>
<path d="M192.023 85.6822V86.2769L192.028 86.6549C192.028 87.2143 191.65 87.7787 190.894 88.197C189.428 89.0135 187.099 88.9933 185.688 88.1466C185.003 87.7334 184.665 87.2042 184.665 86.67V86.4583C184.665 86.2214 184.66 85.9694 184.66 85.7275" stroke="#592A2D" stroke-linecap="round" stroke-linejoin="round"/>
<path d="M166.766 42.5563C167.265 39.7189 169.452 36.952 173.292 34.8151C177.732 32.3356 183.518 31.1814 189.213 31.3175C194.545 31.4435 199.802 32.7186 203.783 35.1125C207.225 37.1839 209.181 39.7743 209.665 42.4253" stroke="#592A2D" stroke-linecap="round" stroke-linejoin="round"/>
<path d="M209.706 42.6521C210.265 46.2959 208.068 50.0506 203.159 52.7821C198.719 55.2617 192.933 56.4159 187.238 56.2697C181.906 56.1437 176.649 54.8686 172.658 52.4697C168.117 49.733 166.162 46.1144 166.756 42.6017" stroke="#592A2D" stroke-linecap="round" stroke-linejoin="round"/>
<path d="M201.527 36.3775C198.151 34.3414 193.711 33.2578 189.19 33.1318C184.276 32.9907 179.287 33.9886 175.456 36.1205C168.103 40.2128 167.866 46.9763 174.917 51.2148C178.294 53.2559 182.744 54.3395 187.254 54.4654C192.168 54.6066 197.158 53.6087 200.988 51.4768C208.331 47.3794 208.578 40.621 201.527 36.3725" stroke="#592A2D" stroke-linecap="round" stroke-linejoin="round"/>
<path d="M209.667 42.4303C209.682 42.5059 209.687 42.5765 209.702 42.6521C210.397 46.7394 210.397 50.3429 210.372 51.3609C210.352 52.6813 210.327 54.3344 210.115 56.3806C209.959 57.9429 209.626 60.0143 209.339 61.5666C209.163 62.5191 208.845 63.7639 208.588 64.6913C208.376 65.4976 208.019 66.5409 207.772 67.3321C207.454 68.3351 206.88 69.6253 206.481 70.5979C206.169 71.3438 205.69 72.3014 205.292 73.007C204.733 74.0049 203.941 75.3152 203.301 76.2678C202.51 77.432 201.295 78.8834 200.338 79.9267C199.592 80.7381 198.488 81.7108 197.631 82.4113C197.122 82.8246 196.039 83.6511 194.497 84.523C193.494 85.0975 192.637 85.4453 192.017 85.6822C191.846 85.7477 191.695 85.7981 191.558 85.8535C190.843 86.1105 188.978 86.68 187.133 86.3676C185.743 86.1307 184.951 85.8233 184.694 85.7174C184.679 85.7124 184.674 85.7124 184.659 85.7023C184.069 85.4755 182.744 84.9514 181.459 84.145C179.342 82.8246 178.561 82.119 177.145 80.8288C175.819 79.6243 174.232 77.5932 174.216 77.568C173.37 76.4542 170.779 73.0523 168.839 67.5539C168.285 65.9966 167.665 63.8899 167.322 62.2721C166.828 59.9589 166.49 57.8169 166.334 55.922C166.107 53.1349 166.057 51.4365 166.138 48.9317C166.233 45.8876 166.596 43.524 166.757 42.6067C166.757 42.5916 166.768 42.5714 166.768 42.5563" stroke="#592A2D" stroke-linecap="round" stroke-linejoin="round"/>
<path d="M204.434 72.4324C204.863 72.4324 205.296 72.4022 205.689 72.3518C204.399 74.1611 202.373 75.4362 199.238 75.4563L204.434 72.4324Z" fill="url(#paint36_linear_677_1039)"/>
<path d="M210.233 61.4809C210.254 61.6422 211.927 73.7126 205.214 77.6084C203.384 78.6718 200.935 79.1253 197.664 78.576C198.259 77.6033 198.783 76.555 199.236 75.4563C202.371 75.4362 204.397 74.1611 205.687 72.3518C208.011 69.1213 207.981 64.2024 207.804 61.869L202.008 58.5225C202.013 57.4037 201.993 56.3705 201.958 55.4785L208.963 59.5254L210.238 61.4859L210.233 61.4809Z" fill="url(#paint37_linear_677_1039)"/>
<path d="M214.16 56.4965L208.958 59.5204L201.953 55.4684L207.154 52.4546L214.16 56.4965Z" fill="url(#paint38_linear_677_1039)"/>
<path d="M214.158 56.4965L215.433 58.457L210.232 61.4809L208.957 59.5204L214.158 56.4965Z" fill="url(#paint39_linear_677_1039)"/>
<path d="M215.436 58.457C215.456 58.6183 217.129 70.6937 210.416 74.5945L205.215 77.6084C211.933 73.7126 210.26 61.6422 210.235 61.4809L215.436 58.457Z" fill="url(#paint40_linear_677_1039)"/>
<path d="M199.234 75.4563L204.43 72.4324C204.859 72.4324 205.292 72.4022 205.685 72.3518" stroke="#592A2D" stroke-linecap="round" stroke-linejoin="round"/>
<path d="M214.16 56.4965L207.154 52.4546L201.953 55.4684" stroke="#592A2D" stroke-linecap="round" stroke-linejoin="round"/>
<path d="M215.436 58.457C215.456 58.6183 217.129 70.6937 210.416 74.5945L205.215 77.6084" stroke="#592A2D" stroke-linecap="round" stroke-linejoin="round"/>
<path d="M210.236 61.4809L215.437 58.457L214.162 56.4965L208.961 59.5204" stroke="#592A2D" stroke-linecap="round" stroke-linejoin="round"/>
<path d="M210.235 61.4809L208.959 59.5204L201.954 55.4734C201.989 56.3655 202.015 57.3986 202.005 58.5175L207.8 61.8639C207.977 64.2024 208.007 69.1213 205.684 72.3468C204.393 74.1561 202.367 75.4312 199.233 75.4513C198.784 76.55 198.26 77.5983 197.66 78.571C200.936 79.1253 203.38 78.6667 205.21 77.6033C211.928 73.7075 210.255 61.6371 210.229 61.4759L210.235 61.4809Z" stroke="#592A2D" stroke-linecap="round" stroke-linejoin="round"/>
<path d="M118.541 98.9974C118.42 98.4279 118.551 98.0398 118.868 97.8534C119.302 97.6014 120.083 97.7324 121.04 98.2918L202.479 145.621C204.137 146.583 204.127 148.161 202.459 149.129L139.99 185.194C138.317 186.161 136.724 185.844 136.437 184.488L118.541 99.0024V98.9974ZM155.447 159.359L173.177 149.124C174.846 148.161 174.856 146.583 173.193 145.616L148.85 131.469C147.893 130.91 147.111 130.784 146.678 131.031C146.36 131.217 146.229 131.6 146.345 132.175L151.889 158.654C152.171 160.005 153.774 160.327 155.442 159.359" fill="url(#paint41_linear_677_1039)"/>
<path d="M121.993 103.12L123.762 102.097C123.903 102.016 124.13 102.016 124.266 102.097C124.407 102.178 124.407 102.309 124.266 102.394L122.497 103.417C122.356 103.498 122.129 103.498 121.988 103.417C121.852 103.337 121.852 103.206 121.993 103.125V103.12Z" fill="white"/>
<path d="M124.558 103.826L125.651 103.196C125.792 103.115 126.014 103.11 126.155 103.196C126.296 103.276 126.296 103.407 126.155 103.488L125.062 104.118C124.92 104.198 124.694 104.198 124.553 104.118C124.411 104.037 124.416 103.906 124.558 103.826Z" fill="white"/>
<path d="M126.438 104.919L127.532 104.289C127.673 104.209 127.899 104.209 128.041 104.289C128.177 104.37 128.177 104.501 128.035 104.582L126.942 105.211C126.801 105.292 126.574 105.292 126.438 105.211C126.297 105.131 126.297 105 126.438 104.914V104.919Z" fill="white"/>
<path d="M128.329 106.018L129.423 105.388C129.564 105.307 129.791 105.307 129.927 105.388C130.068 105.469 130.068 105.6 129.927 105.685L128.833 106.315C128.692 106.396 128.465 106.396 128.324 106.315C128.188 106.235 128.188 106.104 128.329 106.023V106.018Z" fill="white"/>
<path d="M132.102 108.21L133.196 107.58C133.337 107.5 133.563 107.5 133.705 107.58C133.841 107.661 133.841 107.792 133.7 107.873L132.606 108.503C132.465 108.583 132.238 108.583 132.102 108.503C131.961 108.422 131.961 108.291 132.102 108.21Z" fill="white"/>
<path d="M130.218 107.117L131.311 106.487C131.453 106.406 131.674 106.401 131.815 106.487C131.957 106.567 131.957 106.698 131.815 106.784L130.722 107.414C130.581 107.495 130.354 107.495 130.213 107.414C130.072 107.333 130.077 107.202 130.218 107.122V107.117Z" fill="white"/>
<path d="M135.878 110.408L136.972 109.778C137.113 109.697 137.334 109.692 137.476 109.778C137.617 109.858 137.617 109.989 137.476 110.07L136.382 110.7C136.241 110.781 136.014 110.781 135.873 110.7C135.732 110.619 135.737 110.488 135.878 110.408Z" fill="white"/>
<path d="M133.989 109.309L135.083 108.679C135.224 108.598 135.451 108.598 135.587 108.679C135.728 108.76 135.728 108.891 135.587 108.976L134.493 109.606C134.352 109.687 134.125 109.687 133.984 109.606C133.848 109.526 133.848 109.395 133.989 109.314V109.309Z" fill="white"/>
<path d="M141.251 112.257L140.157 112.887C140.016 112.968 139.789 112.968 139.648 112.887C139.512 112.807 139.512 112.675 139.653 112.595L140.747 111.965C140.888 111.884 141.115 111.884 141.251 111.965C141.392 112.046 141.392 112.177 141.251 112.262V112.257Z" fill="white"/>
<path d="M139.36 111.158L138.266 111.788C138.125 111.869 137.898 111.869 137.762 111.788C137.621 111.708 137.621 111.577 137.762 111.491L138.856 110.861C138.997 110.78 139.224 110.78 139.365 110.861C139.501 110.942 139.501 111.073 139.36 111.153V111.158Z" fill="white"/>
<path d="M143.135 113.356L141.366 114.379C141.225 114.46 140.998 114.46 140.857 114.379C140.716 114.298 140.721 114.167 140.862 114.087L142.631 113.064C142.772 112.983 142.994 112.978 143.135 113.064C143.276 113.144 143.276 113.275 143.135 113.356Z" fill="white"/>
<path d="M149.06 118.36C148.919 118.28 148.924 118.149 149.065 118.068L150.159 117.438C150.3 117.357 150.522 117.352 150.663 117.438C150.804 117.519 150.804 117.65 150.663 117.73L149.569 118.36C149.428 118.441 149.202 118.441 149.06 118.36Z" fill="white"/>
<path d="M147.172 117.262C147.036 117.181 147.036 117.05 147.177 116.969L148.27 116.339C148.412 116.259 148.638 116.259 148.774 116.339C148.916 116.42 148.916 116.551 148.774 116.637L147.681 117.267C147.54 117.347 147.313 117.347 147.172 117.267V117.262Z" fill="white"/>
<path d="M145.286 116.168C145.144 116.087 145.144 115.956 145.286 115.871L146.379 115.241C146.52 115.16 146.747 115.16 146.888 115.241C147.024 115.321 147.024 115.452 146.883 115.533L145.79 116.163C145.648 116.244 145.422 116.244 145.286 116.163V116.168Z" fill="white"/>
<path d="M143.396 115.069C143.255 114.989 143.26 114.858 143.401 114.777L144.495 114.147C144.636 114.066 144.858 114.061 144.999 114.147C145.14 114.228 145.14 114.359 144.999 114.444L143.905 115.074C143.764 115.155 143.537 115.155 143.396 115.074V115.069Z" fill="white"/>
<path d="M150.946 119.459C150.805 119.378 150.805 119.247 150.946 119.162L152.039 118.532C152.18 118.451 152.407 118.451 152.548 118.532C152.684 118.612 152.684 118.743 152.543 118.824L151.45 119.454C151.309 119.535 151.082 119.535 150.946 119.454V119.459Z" fill="white"/>
<path d="M152.832 120.553C152.696 120.472 152.696 120.341 152.837 120.26L153.931 119.63C154.072 119.55 154.299 119.55 154.435 119.63C154.576 119.711 154.576 119.842 154.435 119.923L153.341 120.553C153.2 120.633 152.973 120.633 152.832 120.553Z" fill="white"/>
<path d="M156.323 121.021L155.23 121.651C155.088 121.732 154.862 121.732 154.721 121.651C154.579 121.571 154.584 121.44 154.726 121.359L155.819 120.729C155.96 120.648 156.182 120.643 156.323 120.729C156.464 120.81 156.464 120.941 156.323 121.021Z" fill="white"/>
<path d="M158.211 122.115L157.118 122.745C156.977 122.826 156.75 122.826 156.614 122.745C156.473 122.664 156.473 122.533 156.614 122.453L157.707 121.823C157.848 121.742 158.075 121.742 158.216 121.823C158.352 121.903 158.352 122.034 158.211 122.115Z" fill="white"/>
<path d="M163.851 125.396L162.757 126.026C162.616 126.107 162.389 126.107 162.248 126.026C162.107 125.945 162.112 125.814 162.253 125.734L163.347 125.104C163.488 125.023 163.709 125.018 163.851 125.104C163.992 125.189 163.992 125.315 163.851 125.401V125.396Z" fill="white"/>
<path d="M161.983 124.307L160.214 125.33C160.073 125.411 159.846 125.411 159.705 125.33C159.564 125.25 159.569 125.119 159.71 125.038L161.479 124.015C161.62 123.934 161.842 123.929 161.983 124.015C162.124 124.096 162.124 124.227 161.983 124.307Z" fill="white"/>
<path d="M160.095 123.214L159.001 123.844C158.86 123.924 158.633 123.924 158.492 123.844C158.356 123.763 158.356 123.632 158.497 123.551L159.591 122.921C159.732 122.841 159.959 122.841 160.095 122.921C160.236 123.002 160.236 123.133 160.095 123.214Z" fill="white"/>
<path d="M165.735 126.49L164.641 127.12C164.5 127.2 164.273 127.2 164.137 127.12C163.996 127.039 163.996 126.908 164.137 126.827L165.231 126.197C165.372 126.117 165.599 126.117 165.74 126.197C165.876 126.278 165.876 126.409 165.735 126.49Z" fill="white"/>
<path d="M167.622 127.588L166.528 128.218C166.387 128.299 166.161 128.299 166.019 128.218C165.883 128.138 165.883 128.007 166.024 127.926L167.118 127.296C167.259 127.215 167.486 127.215 167.622 127.296C167.763 127.377 167.763 127.508 167.622 127.588Z" fill="white"/>
<path d="M169.515 128.682L168.421 129.312C168.28 129.393 168.053 129.393 167.912 129.312C167.771 129.231 167.776 129.1 167.917 129.02L169.011 128.39C169.152 128.309 169.373 128.304 169.515 128.39C169.656 128.47 169.656 128.601 169.515 128.682Z" fill="white"/>
<path d="M171.395 129.781L170.301 130.411C170.16 130.491 169.933 130.491 169.797 130.411C169.656 130.33 169.656 130.199 169.797 130.118L170.891 129.488C171.032 129.408 171.259 129.408 171.4 129.488C171.536 129.564 171.536 129.7 171.395 129.781Z" fill="white"/>
<path d="M186.474 138.54L185.38 139.17C185.239 139.251 185.012 139.251 184.871 139.17C184.735 139.089 184.735 138.958 184.876 138.878L185.97 138.248C186.111 138.167 186.338 138.167 186.474 138.248C186.615 138.328 186.615 138.459 186.474 138.54Z" fill="white"/>
<path d="M184.582 137.441L183.489 138.071C183.348 138.152 183.121 138.152 182.985 138.071C182.844 137.991 182.844 137.86 182.985 137.779L184.078 137.149C184.219 137.068 184.446 137.068 184.587 137.149C184.723 137.23 184.723 137.361 184.582 137.441Z" fill="white"/>
<path d="M182.698 136.348L181.605 136.978C181.463 137.058 181.237 137.058 181.096 136.978C180.954 136.897 180.959 136.766 181.101 136.685L182.194 136.055C182.335 135.975 182.557 135.97 182.698 136.055C182.839 136.136 182.839 136.267 182.698 136.348Z" fill="white"/>
<path d="M180.834 135.264L179.066 136.287C178.924 136.368 178.698 136.368 178.556 136.287C178.415 136.206 178.42 136.075 178.562 135.995L180.331 134.972C180.472 134.891 180.693 134.886 180.834 134.972C180.976 135.052 180.976 135.183 180.834 135.269V135.264Z" fill="white"/>
<path d="M178.942 134.165L177.849 134.795C177.708 134.876 177.481 134.876 177.34 134.795C177.204 134.715 177.204 134.584 177.345 134.503L178.438 133.873C178.58 133.792 178.806 133.792 178.942 133.873C179.084 133.954 179.084 134.085 178.942 134.165Z" fill="white"/>
<path d="M177.059 133.067L175.965 133.697C175.824 133.777 175.597 133.777 175.461 133.697C175.32 133.616 175.32 133.485 175.461 133.404L176.555 132.774C176.696 132.694 176.923 132.694 177.064 132.774C177.2 132.855 177.2 132.986 177.059 133.067Z" fill="white"/>
<path d="M175.175 131.973L174.081 132.603C173.94 132.684 173.713 132.684 173.572 132.603C173.431 132.522 173.436 132.391 173.577 132.311L174.671 131.681C174.812 131.6 175.034 131.595 175.175 131.681C175.316 131.761 175.316 131.892 175.175 131.973Z" fill="white"/>
<path d="M173.282 130.874L172.189 131.504C172.047 131.585 171.821 131.585 171.68 131.504C171.543 131.424 171.543 131.293 171.685 131.212L172.778 130.582C172.919 130.501 173.146 130.501 173.282 130.582C173.423 130.663 173.423 130.794 173.282 130.874Z" fill="white"/>
<path d="M195.907 144.023L194.813 144.653C194.672 144.734 194.445 144.734 194.309 144.653C194.168 144.573 194.168 144.442 194.309 144.361L195.403 143.731C195.544 143.65 195.771 143.65 195.912 143.731C196.048 143.812 196.048 143.943 195.907 144.023Z" fill="white"/>
<path d="M194.022 142.925L192.929 143.555C192.788 143.635 192.561 143.635 192.42 143.555C192.279 143.474 192.284 143.343 192.425 143.262L193.518 142.632C193.66 142.552 193.881 142.547 194.022 142.632C194.164 142.713 194.164 142.844 194.022 142.925Z" fill="white"/>
<path d="M192.134 141.831L191.04 142.461C190.899 142.542 190.672 142.542 190.531 142.461C190.395 142.38 190.395 142.249 190.536 142.169L191.63 141.539C191.771 141.458 191.998 141.458 192.134 141.539C192.275 141.619 192.275 141.75 192.134 141.836V141.831Z" fill="white"/>
<path d="M190.243 140.732L189.149 141.362C189.008 141.443 188.781 141.443 188.645 141.362C188.504 141.282 188.504 141.151 188.645 141.07L189.739 140.44C189.88 140.359 190.106 140.359 190.248 140.44C190.384 140.521 190.384 140.652 190.243 140.732Z" fill="white"/>
<path d="M188.358 139.639L187.265 140.269C187.124 140.349 186.897 140.349 186.756 140.269C186.615 140.188 186.62 140.057 186.761 139.976L187.854 139.346C187.995 139.266 188.217 139.261 188.358 139.346C188.499 139.427 188.499 139.558 188.358 139.639Z" fill="white"/>
<path d="M197.409 146.946L199.178 145.923C199.319 145.843 199.541 145.838 199.682 145.923C199.823 146.004 199.823 146.135 199.682 146.221L197.913 147.244C197.772 147.324 197.545 147.324 197.404 147.244C197.263 147.163 197.268 147.032 197.409 146.951V146.946Z" fill="white"/>
<path d="M197.792 145.117L196.698 145.747C196.557 145.828 196.33 145.828 196.189 145.747C196.053 145.666 196.058 145.54 196.199 145.455L197.293 144.825C197.434 144.744 197.66 144.744 197.797 144.825C197.938 144.905 197.938 145.036 197.797 145.117H197.792Z" fill="white"/>
<path d="M194.613 148.821C194.75 148.741 194.971 148.741 195.112 148.821L196.876 149.844C197.017 149.925 197.017 150.056 196.876 150.137C196.735 150.217 196.508 150.217 196.367 150.137L194.603 149.113C194.462 149.033 194.467 148.902 194.608 148.821H194.613Z" fill="white"/>
<path d="M193.381 150.308C193.522 150.227 193.749 150.227 193.885 150.308L194.979 150.943C195.12 151.024 195.12 151.155 194.979 151.24C194.838 151.321 194.616 151.321 194.475 151.24L193.381 150.605C193.245 150.525 193.24 150.399 193.381 150.318V150.308Z" fill="white"/>
<path d="M187.686 153.599C187.827 153.518 188.054 153.518 188.19 153.599L189.284 154.234C189.425 154.315 189.425 154.446 189.284 154.526C189.143 154.607 188.921 154.607 188.78 154.526L187.686 153.891C187.55 153.811 187.545 153.685 187.686 153.604V153.599Z" fill="white"/>
<path d="M189.588 152.5C189.724 152.42 189.951 152.42 190.087 152.5L191.181 153.135C191.322 153.216 191.322 153.347 191.181 153.428C191.04 153.508 190.813 153.508 190.672 153.428L189.578 152.793C189.442 152.712 189.442 152.581 189.583 152.5H189.588Z" fill="white"/>
<path d="M191.481 151.407C191.622 151.326 191.849 151.326 191.985 151.407L193.079 152.042C193.22 152.122 193.22 152.253 193.079 152.334C192.943 152.415 192.716 152.415 192.575 152.334L191.481 151.699C191.345 151.618 191.345 151.487 191.481 151.412V151.407Z" fill="white"/>
<path d="M185.782 154.698C185.923 154.617 186.15 154.617 186.286 154.698L187.379 155.333C187.52 155.413 187.52 155.544 187.379 155.625C187.243 155.706 187.017 155.706 186.875 155.625L185.782 154.99C185.646 154.909 185.646 154.778 185.782 154.703V154.698Z" fill="white"/>
<path d="M183.889 155.791C184.025 155.711 184.252 155.711 184.388 155.791L185.481 156.426C185.623 156.507 185.623 156.638 185.481 156.719C185.34 156.799 185.114 156.799 184.972 156.719L183.879 156.084C183.743 156.008 183.743 155.872 183.884 155.791H183.889Z" fill="white"/>
<path d="M180.086 157.984C180.228 157.903 180.454 157.903 180.59 157.984L181.684 158.619C181.825 158.699 181.825 158.83 181.684 158.911C181.548 158.992 181.321 158.992 181.18 158.911L180.086 158.276C179.95 158.195 179.95 158.064 180.086 157.989V157.984Z" fill="white"/>
<path d="M181.986 156.89C182.127 156.809 182.354 156.809 182.49 156.89L183.583 157.525C183.724 157.606 183.724 157.737 183.583 157.817C183.442 157.898 183.22 157.898 183.079 157.817L181.991 157.182C181.855 157.102 181.85 156.976 181.991 156.895L181.986 156.89Z" fill="white"/>
<path d="M178.194 159.082C178.33 159.002 178.556 159.002 178.692 159.082L179.786 159.717C179.927 159.798 179.927 159.929 179.786 160.01C179.645 160.09 179.418 160.09 179.277 160.01L178.183 159.375C178.047 159.294 178.047 159.163 178.189 159.082H178.194Z" fill="white"/>
<path d="M175.621 159.788C175.763 159.707 175.984 159.702 176.125 159.788L177.889 160.811C178.031 160.892 178.031 161.023 177.889 161.103C177.748 161.184 177.527 161.184 177.385 161.103L175.621 160.08C175.48 159.999 175.48 159.873 175.621 159.788Z" fill="white"/>
<path d="M174.411 161.265C174.552 161.184 174.779 161.184 174.915 161.265L176.008 161.9C176.149 161.98 176.149 162.111 176.008 162.192C175.872 162.272 175.645 162.272 175.504 162.192L174.411 161.557C174.275 161.476 174.275 161.345 174.411 161.27V161.265Z" fill="white"/>
<path d="M172.519 162.358C172.655 162.278 172.882 162.278 173.018 162.358L174.106 162.993C174.248 163.074 174.248 163.205 174.106 163.285C173.965 163.366 173.739 163.366 173.597 163.285L172.504 162.65C172.368 162.57 172.368 162.439 172.509 162.358H172.519Z" fill="white"/>
<path d="M170.612 163.457C170.753 163.376 170.974 163.376 171.11 163.457L172.204 164.092C172.345 164.173 172.35 164.304 172.204 164.384C172.063 164.465 171.836 164.465 171.695 164.384L170.601 163.749C170.465 163.669 170.465 163.537 170.606 163.457H170.612Z" fill="white"/>
<path d="M168.711 164.55C168.853 164.47 169.079 164.47 169.215 164.55L170.309 165.185C170.45 165.266 170.45 165.397 170.309 165.483C170.173 165.563 169.946 165.563 169.805 165.483L168.711 164.848C168.575 164.767 168.575 164.636 168.711 164.556V164.55Z" fill="white"/>
<path d="M166.819 165.649C166.955 165.569 167.181 165.569 167.317 165.649L168.411 166.284C168.552 166.365 168.552 166.496 168.411 166.576C168.27 166.657 168.043 166.657 167.902 166.576L166.808 165.941C166.672 165.861 166.672 165.73 166.814 165.649H166.819Z" fill="white"/>
<path d="M164.916 166.743C165.057 166.662 165.279 166.662 165.415 166.743L166.509 167.378C166.65 167.458 166.655 167.589 166.509 167.67C166.368 167.751 166.141 167.751 166 167.67L164.906 167.035C164.77 166.954 164.77 166.823 164.911 166.743H164.916Z" fill="white"/>
<path d="M156.647 170.739C156.788 170.659 157.01 170.654 157.151 170.739L158.915 171.762C159.056 171.843 159.056 171.974 158.915 172.055C158.779 172.135 158.552 172.135 158.411 172.055L156.647 171.032C156.506 170.951 156.511 170.82 156.647 170.739Z" fill="white"/>
<path d="M159.217 170.034C159.358 169.953 159.58 169.953 159.716 170.034L160.81 170.669C160.951 170.749 160.956 170.88 160.81 170.961C160.668 171.042 160.442 171.042 160.301 170.961L159.207 170.326C159.071 170.251 159.071 170.114 159.212 170.034H159.217Z" fill="white"/>
<path d="M161.124 168.935C161.26 168.854 161.487 168.854 161.623 168.935L162.712 169.57C162.853 169.651 162.853 169.782 162.712 169.862C162.571 169.948 162.344 169.943 162.203 169.862L161.109 169.227C160.973 169.147 160.973 169.016 161.114 168.935H161.124Z" fill="white"/>
<path d="M163.016 167.841C163.157 167.761 163.384 167.761 163.52 167.841L164.614 168.477C164.755 168.557 164.755 168.688 164.614 168.769C164.478 168.849 164.251 168.849 164.11 168.769L163.016 168.134C162.88 168.058 162.88 167.922 163.016 167.847V167.841Z" fill="white"/>
<path d="M155.444 172.216C155.585 172.135 155.812 172.135 155.948 172.216L157.041 172.851C157.183 172.932 157.183 173.063 157.041 173.143C156.9 173.224 156.679 173.224 156.537 173.143L155.444 172.508C155.308 172.428 155.303 172.302 155.444 172.221V172.216Z" fill="white"/>
<path d="M153.543 173.315C153.685 173.234 153.911 173.234 154.047 173.315L155.141 173.95C155.282 174.03 155.282 174.161 155.141 174.242C155.005 174.323 154.778 174.323 154.637 174.242L153.543 173.607C153.407 173.526 153.407 173.395 153.543 173.32V173.315Z" fill="white"/>
<path d="M147.844 176.606C147.985 176.525 148.212 176.525 148.348 176.606L149.442 177.241C149.583 177.321 149.583 177.452 149.442 177.533C149.306 177.614 149.079 177.614 148.938 177.533L147.844 176.898C147.708 176.817 147.708 176.686 147.844 176.611V176.606Z" fill="white"/>
<path d="M149.741 175.507C149.882 175.426 150.109 175.426 150.245 175.507L151.338 176.142C151.479 176.223 151.479 176.354 151.338 176.439C151.197 176.52 150.975 176.515 150.834 176.439L149.741 175.804C149.605 175.724 149.6 175.598 149.741 175.517V175.507Z" fill="white"/>
<path d="M151.643 174.408C151.779 174.328 152.006 174.328 152.142 174.408L153.235 175.043C153.376 175.124 153.376 175.255 153.235 175.336C153.094 175.416 152.867 175.416 152.726 175.336L151.633 174.701C151.497 174.62 151.497 174.489 151.638 174.408H151.643Z" fill="white"/>
<path d="M145.947 177.699C146.084 177.619 146.31 177.619 146.446 177.699L147.54 178.334C147.681 178.415 147.681 178.546 147.54 178.627C147.399 178.707 147.172 178.707 147.031 178.627L145.937 177.992C145.801 177.911 145.801 177.78 145.942 177.699H145.947Z" fill="white"/>
<path d="M142.141 179.892C142.282 179.811 142.509 179.811 142.645 179.892L143.739 180.527C143.88 180.607 143.875 180.738 143.739 180.819C143.603 180.9 143.376 180.9 143.235 180.819L142.141 180.184C142.005 180.103 142.005 179.972 142.141 179.897V179.892Z" fill="white"/>
<path d="M144.043 178.793C144.184 178.712 144.411 178.712 144.547 178.793L145.635 179.428C145.776 179.509 145.776 179.64 145.635 179.72C145.494 179.801 145.272 179.801 145.131 179.72L144.038 179.085C143.901 179.005 143.896 178.879 144.038 178.798L144.043 178.793Z" fill="white"/>
<path d="M137.676 181.696C137.817 181.615 138.039 181.61 138.18 181.696L139.944 182.719C140.085 182.8 140.085 182.931 139.944 183.011C139.803 183.092 139.581 183.092 139.44 183.011L137.676 181.988C137.535 181.908 137.535 181.782 137.676 181.701V181.696Z" fill="white"/>
<path d="M140.248 180.985C140.384 180.905 140.611 180.905 140.747 180.985L141.841 181.62C141.982 181.701 141.982 181.832 141.841 181.913C141.7 181.993 141.473 181.993 141.332 181.913L140.238 181.278C140.102 181.202 140.102 181.066 140.243 180.985H140.248Z" fill="white"/>
<path style="mix-blend-mode:overlay" opacity="0.4" d="M118.869 97.8534C119.303 97.6014 120.084 97.7324 121.041 98.2918L175.567 129.982L148.367 131.232C147.637 130.9 147.037 130.829 146.679 131.036C146.563 131.101 146.483 131.202 146.422 131.323L125.507 132.285L118.537 99.0024C118.416 98.4329 118.547 98.0449 118.864 97.8584L118.869 97.8534Z" fill="url(#paint42_linear_677_1039)"/>
<path d="M155.447 159.359L173.177 149.124C174.846 148.161 174.856 146.583 173.193 145.616L148.85 131.469C147.893 130.91 147.111 130.784 146.678 131.031C146.36 131.217 146.229 131.6 146.345 132.175L151.889 158.654C152.171 160.005 153.774 160.327 155.442 159.359M118.541 98.9974C118.42 98.4279 118.551 98.0398 118.868 97.8534C119.302 97.6014 120.083 97.7324 121.04 98.2918L202.479 145.621C204.137 146.583 204.127 148.161 202.459 149.129L139.99 185.194C138.317 186.161 136.724 185.844 136.437 184.488L118.541 99.0024V98.9974Z" stroke="#592A2D" stroke-linecap="round" stroke-linejoin="round"/>
<path d="M33.7868 100.217L33.7717 106.023L31.0703 110.972L31.0905 105.166L33.7868 100.217Z" fill="#3CBF57" stroke="#592A2D" stroke-linecap="round" stroke-linejoin="round"/>
<path d="M44.8821 106.617L44.8619 112.423L30.8008 114.59L30.8159 108.784L44.8821 106.617Z" fill="#3CBF57" stroke="#592A2D" stroke-linecap="round" stroke-linejoin="round"/>
<path d="M24.1332 109.208L24.1181 115.014L15.6562 116.551L15.6714 110.745L24.1332 109.208Z" fill="#3CBF57" stroke="#592A2D" stroke-linecap="round" stroke-linejoin="round"/>
<path d="M15.67 110.745L15.6549 116.551L10.4336 113.537L10.4538 107.731L15.67 110.745Z" fill="#2C8C40" stroke="#592A2D" stroke-linecap="round" stroke-linejoin="round"/>
<path d="M26.7637 117.145L26.7486 122.951L21.5273 119.937L21.5425 114.137L26.7637 117.145Z" fill="#2C8C40" stroke="#592A2D" stroke-linecap="round" stroke-linejoin="round"/>
<path d="M30.8132 108.785L30.7981 114.59L26.7461 122.951L26.7612 117.146L30.8132 108.785Z" fill="#3CBF57" stroke="#592A2D" stroke-linecap="round" stroke-linejoin="round"/>
<path d="M44.8802 106.617L30.814 108.785L26.762 117.146L21.5408 114.137L24.1312 109.208L15.6694 110.745L10.4531 107.731L24.5445 105.337L28.5713 97.203L33.7875 100.217L31.0912 105.166L39.6589 103.604L44.8802 106.617Z" fill="url(#paint43_linear_677_1039)" stroke="#592A2D" stroke-linecap="round" stroke-linejoin="round"/>
<path d="M56.9559 114.469L56.9408 120.275L50.8477 123.813L50.8678 118.007L56.9559 114.469Z" fill="#F0601D" stroke="#592A2D" stroke-linecap="round" stroke-linejoin="round"/>
<path d="M42.1448 118.012L42.1247 123.813L35.9609 120.255L35.9761 114.449L42.1448 118.012Z" fill="#FF9326" stroke="#592A2D" stroke-linecap="round" stroke-linejoin="round"/>
<path d="M52.7544 124.136L52.7393 129.942L46.5 126.343L46.5202 120.537L52.7544 124.136Z" fill="#FF9326" stroke="#592A2D" stroke-linecap="round" stroke-linejoin="round"/>
<path d="M57.1028 121.611L57.0877 127.417L52.7383 129.942L52.7534 124.136L57.1028 121.611Z" fill="#F0601D" stroke="#592A2D" stroke-linecap="round" stroke-linejoin="round"/>
<path d="M40.3545 124.116L40.3394 129.922L35.9648 127.397L35.98 121.591L40.3545 124.116Z" fill="#FF9326" stroke="#592A2D" stroke-linecap="round" stroke-linejoin="round"/>
<path d="M46.5187 120.537L46.4985 126.343L40.3398 129.922L40.355 124.116L46.5187 120.537Z" fill="#F0601D" stroke="#592A2D" stroke-linecap="round" stroke-linejoin="round"/>
<path d="M56.9574 114.469L50.8693 118.007L57.1035 121.611L52.7542 124.136L46.5199 120.537L40.3562 124.116L35.9816 121.591L42.1453 118.012L35.9766 114.449L40.331 111.924L46.4947 115.482L52.5828 111.944L56.9574 114.469Z" fill="url(#paint44_linear_677_1039)" stroke="#592A2D" stroke-linecap="round" stroke-linejoin="round"/>
<path d="M71.1778 121.802L71.1576 127.608L60.4883 137.653L60.5034 131.847L71.1778 121.802Z" fill="#FC4CA0" stroke="#592A2D" stroke-linecap="round" stroke-linejoin="round"/>
<path d="M56.1531 134.12L56.138 139.926L52.7109 137.945L52.7261 132.139L56.1531 134.12Z" fill="#E03C8A" stroke="#592A2D" stroke-linecap="round" stroke-linejoin="round"/>
<path d="M51.3163 140.142L51.3012 145.948L46.5234 143.186L46.5386 137.386L51.3163 140.142Z" fill="#E03C8A" stroke="#592A2D" stroke-linecap="round" stroke-linejoin="round"/>
<path d="M83.465 128.898L83.4499 134.704L51.3008 145.948L51.3159 140.142L83.465 128.898Z" fill="#FC4CA0" stroke="#592A2D" stroke-linecap="round" stroke-linejoin="round"/>
<path d="M83.4659 128.898L51.3168 140.142L46.5391 137.386L56.1551 134.12L52.728 132.139L66.3557 119.02L71.1788 121.802L60.5044 131.847L61.341 132.331L78.6529 126.116L83.4659 128.898Z" fill="url(#paint45_linear_677_1039)" stroke="#592A2D" stroke-linecap="round" stroke-linejoin="round"/>
<path d="M99.2826 141.553L99.2675 147.359L94.8828 149.91L94.8979 144.104L99.2826 141.553Z" fill="#F0601D" stroke="#592A2D" stroke-linecap="round" stroke-linejoin="round"/>
<path d="M94.8979 144.104L94.8827 149.91L78.6797 140.556L78.6998 134.75L94.8979 144.104Z" fill="#FF9326" stroke="#592A2D" stroke-linecap="round" stroke-linejoin="round"/>
<path d="M83.0839 132.2L99.2819 141.553L94.8972 144.104L78.6992 134.75L83.0839 132.2Z" fill="url(#paint46_linear_677_1039)" stroke="#592A2D" stroke-linecap="round" stroke-linejoin="round"/>
<path d="M91.7424 145.933L91.7273 151.739L87.3477 154.289L87.3628 148.483L91.7424 145.933Z" fill="#F0601D" stroke="#592A2D" stroke-linecap="round" stroke-linejoin="round"/>
<path d="M87.3627 148.483L87.3476 154.289L71.1445 144.935L71.1647 139.129L87.3627 148.483Z" fill="#FF9326" stroke="#592A2D" stroke-linecap="round" stroke-linejoin="round"/>
<path d="M71.1641 139.129L75.5437 136.584L91.7417 145.933L87.3621 148.483L71.1641 139.129Z" fill="url(#paint47_linear_677_1039)" stroke="#592A2D" stroke-linecap="round" stroke-linejoin="round"/>
<path d="M118.212 147.813L118.197 153.619C118.197 152.883 117.622 152.248 116.559 151.633C113.641 149.95 110.405 150.348 104.171 153.972C100.477 156.119 98.8136 157.671 98.8086 158.951L98.8237 153.145C98.8237 151.865 100.492 150.313 104.186 148.166C110.42 144.542 113.656 144.144 116.574 145.832C117.642 146.447 118.217 147.082 118.212 147.818V147.813Z" fill="#513AD6" stroke="#592A2D" stroke-linecap="round" stroke-linejoin="round"/>
<path d="M124.996 148.262C124.991 150.197 124.986 152.132 124.981 154.067C124.976 156.32 122.698 158.84 117.668 161.763C108.606 167.03 102.065 166.944 96.0772 163.492C93.3557 161.924 91.8387 160.282 91.8438 158.467L91.8589 152.661C91.8538 154.481 93.3708 156.119 96.0923 157.686C102.075 161.138 108.621 161.224 117.683 155.957C122.713 153.034 124.991 150.514 124.996 148.262Z" fill="#513AD6" stroke="#592A2D" stroke-linecap="round" stroke-linejoin="round"/>
<path d="M120.89 143.282C126.873 146.734 126.752 150.696 117.69 155.962C108.628 161.229 102.082 161.143 96.0995 157.691C90.1172 154.239 89.9509 150.444 99.0125 145.182C108.074 139.916 114.908 139.835 120.89 143.287V143.282ZM100.489 155.181C103.407 156.865 106.638 156.381 112.509 152.969C118.743 149.345 119.499 147.516 116.581 145.832C113.663 144.149 110.428 144.547 104.193 148.166C98.322 151.578 97.5711 153.498 100.489 155.181Z" fill="url(#paint48_linear_677_1039)" stroke="#592A2D" stroke-linecap="round" stroke-linejoin="round"/>
<path d="M200.764 83.0564C200.714 82.9455 200.664 82.8548 200.598 82.754C200.578 82.7188 200.558 82.6835 200.533 82.6532C200.507 82.6129 200.482 82.5726 200.452 82.5272C200.225 82.2299 200.079 82.0485 199.661 81.7108C199.59 81.6554 199.399 81.5193 199.323 81.4739C199.172 81.3832 198.994 81.2874 198.789 81.1866C198.698 81.1413 198.36 80.9851 197.826 80.8742C197.458 80.7986 197.121 80.7986 196.944 80.7986C196.415 80.7986 195.75 80.9901 195.327 81.2572C195.211 81.3278 194.913 81.5142 194.676 81.7763C194.47 82.0031 194.329 82.1896 194.152 82.5524L192.005 87.184C191.773 87.688 191.874 88.3432 192.373 89.0286C193.346 90.3843 195.458 91.3419 197.095 91.1756C197.902 91.0899 198.441 90.7522 198.668 90.2684C199.308 88.8774 200.165 87.0278 200.81 85.6368C200.875 85.4856 200.921 85.3697 200.956 85.2487C200.991 85.1278 201.022 85.0119 201.047 84.8506C201.082 84.6289 201.087 84.3063 201.067 84.145C201.067 84.1098 201.057 84.0644 201.052 84.009C201.047 83.9636 201.037 83.9132 201.027 83.8628V83.8174C201.011 83.7822 201.006 83.7519 200.996 83.7166C200.986 83.6662 200.976 83.6209 200.956 83.5705L200.941 83.5201C200.926 83.4798 200.916 83.4344 200.901 83.3941L200.88 83.3437L200.865 83.2983C200.835 83.2127 200.8 83.132 200.759 83.0514L200.764 83.0564Z" fill="url(#paint49_linear_677_1039)"/>
<path d="M199.657 81.7158C199.586 81.6604 199.395 81.5243 199.319 81.4789C199.168 81.3882 198.99 81.2925 198.785 81.1917C198.694 81.1463 198.356 80.9901 197.822 80.8792C197.757 80.8641 197.691 80.859 197.626 80.849C197.641 80.8691 197.651 80.8893 197.661 80.9094C197.721 81.0102 197.777 81.101 197.827 81.2118C197.868 81.2925 197.903 81.3731 197.933 81.4588L197.948 81.4991L197.968 81.5495C197.983 81.5898 197.994 81.6352 198.009 81.6755L198.024 81.7259C198.039 81.7763 198.049 81.8217 198.059 81.8721C198.069 81.9073 198.074 81.9376 198.079 81.9728V82.0182C198.094 82.0686 198.104 82.114 198.109 82.1644C198.115 82.2198 198.12 82.2652 198.125 82.3004C198.145 82.4668 198.14 82.7843 198.104 83.006C198.074 83.1673 198.049 83.2883 198.014 83.4042C197.973 83.5251 197.933 83.641 197.868 83.7922C197.222 85.1782 196.366 87.0328 195.726 88.4238C195.499 88.9077 194.96 89.2504 194.153 89.331C193.624 89.3864 193.039 89.3209 192.465 89.1597C193.473 90.4448 195.504 91.3419 197.091 91.1806C197.898 91.0949 198.437 90.7573 198.664 90.2735C199.304 88.8825 200.161 87.0328 200.806 85.6418C200.871 85.4907 200.917 85.3747 200.952 85.2538C200.987 85.1328 201.017 85.0169 201.043 84.8556C201.078 84.6339 201.083 84.3113 201.063 84.1501C201.063 84.1148 201.053 84.0694 201.048 84.014C201.043 83.9686 201.033 83.9182 201.022 83.8678V83.8225C201.007 83.7872 201.002 83.7569 200.992 83.7217C200.982 83.6713 200.972 83.6259 200.952 83.5755L200.937 83.5251C200.922 83.4848 200.912 83.4394 200.896 83.3991L200.876 83.3487L200.861 83.3034C200.831 83.2177 200.796 83.1371 200.755 83.0564C200.705 82.9455 200.655 82.8548 200.589 82.754C200.569 82.7187 200.549 82.6835 200.524 82.6532C200.498 82.6129 200.473 82.5726 200.443 82.5272C200.216 82.2299 200.07 82.0485 199.652 81.7108L199.657 81.7158Z" fill="url(#paint50_linear_677_1039)"/>
<path d="M200.764 83.0564C200.714 82.9455 200.664 82.8548 200.598 82.754C200.578 82.7188 200.558 82.6835 200.533 82.6532C200.507 82.6129 200.482 82.5726 200.452 82.5272C200.225 82.2299 200.079 82.0485 199.661 81.7108C199.59 81.6554 199.399 81.5193 199.323 81.4739C199.172 81.3832 198.994 81.2874 198.789 81.1866C198.698 81.1413 198.36 80.9851 197.826 80.8742C197.458 80.7986 197.121 80.7986 196.944 80.7986C196.415 80.7986 195.75 80.9901 195.327 81.2572C195.211 81.3278 194.913 81.5142 194.676 81.7763C194.47 82.0031 194.329 82.1896 194.152 82.5524L192.005 87.184C191.773 87.688 191.874 88.3432 192.373 89.0286C193.346 90.3843 195.458 91.3419 197.095 91.1756C197.902 91.0899 198.441 90.7522 198.668 90.2684C199.308 88.8774 200.165 87.0278 200.81 85.6368C200.875 85.4856 200.921 85.3697 200.956 85.2487C200.991 85.1278 201.022 85.0119 201.047 84.8506C201.082 84.6289 201.087 84.3063 201.067 84.145C201.067 84.1098 201.057 84.0644 201.052 84.009C201.047 83.9636 201.037 83.9132 201.027 83.8628V83.8174C201.011 83.7822 201.006 83.7519 200.996 83.7166C200.986 83.6662 200.976 83.6209 200.956 83.5705L200.941 83.5201C200.926 83.4798 200.916 83.4344 200.901 83.3941L200.88 83.3437L200.865 83.2983C200.835 83.2127 200.8 83.132 200.759 83.0514L200.764 83.0564Z" stroke="#592A2D" stroke-miterlimit="10"/>
<path d="M198.133 85.1732L199.932 87.7586L198.727 90.3591L196.943 87.7989L196.918 87.7939L198.133 85.1732Z" fill="#ED3E92"/>
<path d="M194.508 84.1249L193.273 86.791L191.489 88.2777L191.469 88.2626L192.678 85.6519L194.508 84.1249Z" fill="#FC83C3"/>
<path d="M194.508 84.1249L198.132 85.1732L196.917 87.7939L193.324 86.7506L193.273 86.791L194.508 84.1249Z" fill="url(#paint51_linear_677_1039)"/>
<path d="M193.276 86.791L192.288 88.9228H192.278L190.469 90.4348L191.472 88.2626L191.492 88.2777L193.276 86.791Z" fill="white"/>
<path d="M196.919 87.7939L196.944 87.7989L198.729 90.3592L197.711 92.5565L197.7 92.5515L195.906 89.9761L196.919 87.7939Z" fill="url(#paint52_linear_677_1039)"/>
<path d="M193.323 86.7506L196.917 87.7939L195.904 89.9761L195.899 89.9711L192.285 88.9228L193.273 86.791L193.323 86.7506Z" fill="url(#paint53_linear_677_1039)"/>
<path d="M178.271 130.965L174.219 135.39L174.304 129.836C174.304 129.836 176.346 128.556 178.271 130.97V130.965Z" fill="url(#paint54_linear_677_1039)"/>
<path d="M179.682 124.953C181.537 125.038 181.623 127.311 181.623 127.311L178.271 130.965C176.346 128.551 174.305 129.831 174.305 129.831L174.37 125.2L174.385 125.169C174.385 125.169 174.4 125.149 174.405 125.134C174.547 124.857 175.131 123.824 176.205 123.672C177.807 122.7 179.339 123.829 179.687 124.948L179.682 124.953Z" fill="url(#paint55_linear_677_1039)"/>
<g style="mix-blend-mode:overlay" opacity="0.8">
<path d="M174.797 124.711L174.813 124.675C174.813 124.675 174.828 124.65 174.838 124.635C174.878 124.554 174.954 124.418 175.065 124.252C174.702 124.59 174.485 124.978 174.409 125.134C174.404 125.149 174.394 125.159 174.389 125.169L174.374 125.2L174.309 129.831C174.309 129.831 174.465 129.735 174.732 129.645L174.803 124.711H174.797Z" fill="white"/>
</g>
<path d="M192.285 88.9228L176.198 123.677C175.124 123.829 174.54 124.857 174.398 125.139L190.46 90.4347L192.27 88.9228H192.28H192.285Z" fill="#FC83C3"/>
<path d="M195.907 89.9761L197.701 92.5515H197.711L181.624 127.311C181.624 127.311 181.543 125.043 179.684 124.953L195.902 89.9761H195.907Z" fill="#ED3E92"/>
<g style="mix-blend-mode:overlay" opacity="0.8">
<path d="M197.225 88.2021L198.43 85.6015L198.133 85.1732L196.918 87.7939L196.943 87.7989L197.225 88.2021Z" fill="white"/>
</g>
<g style="mix-blend-mode:overlay" opacity="0.8">
<path d="M180.146 125.028L196.203 90.4045L195.906 89.9812L179.688 124.958C179.854 124.968 180.005 124.993 180.146 125.033V125.028Z" fill="white"/>
</g>
<path d="M192.286 88.9228L195.9 89.9711L179.682 124.953C179.339 123.834 177.807 122.705 176.199 123.677L192.286 88.9228Z" fill="url(#paint56_linear_677_1039)"/>
<path d="M194.508 84.1248L198.131 85.1731" stroke="#592A2D" stroke-linecap="round" stroke-linejoin="round"/>
<path d="M191.492 88.2777L193.276 86.7909L193.327 86.7506L196.92 87.7939L196.945 87.7989L198.729 90.3591L198.745 90.3843" stroke="#592A2D" stroke-linecap="round" stroke-linejoin="round"/>
<path d="M190.445 90.4499L190.465 90.4347L192.275 88.9228H192.285L195.898 89.9711L195.903 89.9761L197.698 92.5515" stroke="#592A2D" stroke-linecap="round" stroke-linejoin="round"/>
<path d="M176.204 123.677C177.807 122.705 179.339 123.834 179.687 124.953L195.905 89.9761L196.918 87.7939L198.133 85.1731L199.932 87.7535L198.727 90.3541L197.709 92.5515L181.622 127.306L178.271 130.96L174.219 135.385L174.304 129.831L174.37 125.199L174.405 125.129L190.467 90.4246L191.47 88.2575L192.68 85.6469L194.509 84.1148L193.274 86.7809L192.287 88.9177L176.199 123.672C175.126 123.824 174.541 124.852 174.4 125.134" stroke="#592A2D" stroke-linecap="round" stroke-linejoin="round"/>
<path d="M181.624 127.311C181.624 127.311 181.543 125.043 179.684 124.953" stroke="#592A2D" stroke-linecap="round" stroke-linejoin="round"/>
<path d="M174.305 129.836C174.305 129.836 176.346 128.556 178.271 130.97" stroke="#592A2D" stroke-linecap="round" stroke-linejoin="round"/>
</g>
<defs>
<linearGradient id="paint0_linear_677_1039" x1="93.5914" y1="48.8158" x2="9.12383" y2="97.4754" gradientUnits="userSpaceOnUse">
<stop stop-color="#FFE226"/>
<stop offset="1" stop-color="#FF8826"/>
</linearGradient>
<linearGradient id="paint1_linear_677_1039" x1="81.5068" y1="51.5272" x2="27.8024" y2="104.844" gradientUnits="userSpaceOnUse">
<stop stop-color="#FFE226"/>
<stop offset="1" stop-color="#FF8826"/>
</linearGradient>
<linearGradient id="paint2_linear_677_1039" x1="138.085" y1="75.7991" x2="61.9839" y2="104.274" gradientUnits="userSpaceOnUse">
<stop stop-color="#173D80"/>
<stop offset="1" stop-color="#336DD4"/>
</linearGradient>
<linearGradient id="paint3_linear_677_1039" x1="40.1484" y1="82.371" x2="145.219" y2="82.371" gradientUnits="userSpaceOnUse">
<stop stop-color="#5E9AFF"/>
<stop offset="1" stop-color="#2D60BA"/>
</linearGradient>
<linearGradient id="paint4_linear_677_1039" x1="97.7357" y1="60.9064" x2="128.988" y2="81.1917" gradientUnits="userSpaceOnUse">
<stop stop-color="#DFE5FA"/>
<stop offset="1" stop-color="#CCD2F0"/>
</linearGradient>
<linearGradient id="paint5_linear_677_1039" x1="97.7373" y1="60.9064" x2="128.989" y2="81.1917" gradientUnits="userSpaceOnUse">
<stop stop-color="#DFE5FA"/>
<stop offset="1" stop-color="#CCD2F0"/>
</linearGradient>
<linearGradient id="paint6_linear_677_1039" x1="108.559" y1="67.2414" x2="55.3032" y2="110.917" gradientUnits="userSpaceOnUse">
<stop stop-color="#C4EEFF"/>
<stop offset="1" stop-color="#1CBFFF"/>
</linearGradient>
<linearGradient id="paint7_linear_677_1039" x1="117.173" y1="77.7444" x2="63.9221" y2="121.425" gradientUnits="userSpaceOnUse">
<stop stop-color="#FC9CD9"/>
<stop offset="1" stop-color="#FC358F"/>
</linearGradient>
<linearGradient id="paint8_linear_677_1039" x1="117.459" y1="76.1972" x2="105.993" y2="99.8844" gradientUnits="userSpaceOnUse">
<stop stop-color="#DFE5FA"/>
<stop offset="1" stop-color="#CCD2F0"/>
</linearGradient>
<linearGradient id="paint9_linear_677_1039" x1="103.216" y1="69.3027" x2="91.7507" y2="92.9899" gradientUnits="userSpaceOnUse">
<stop stop-color="#DFE5FA"/>
<stop offset="1" stop-color="#CCD2F0"/>
</linearGradient>
<linearGradient id="paint10_linear_677_1039" x1="106.956" y1="65.291" x2="53.7005" y2="108.966" gradientUnits="userSpaceOnUse">
<stop stop-color="#C4EEFF"/>
<stop offset="1" stop-color="#1CBFFF"/>
</linearGradient>
<linearGradient id="paint11_linear_677_1039" x1="97.5344" y1="53.8053" x2="44.2836" y2="97.4855" gradientUnits="userSpaceOnUse">
<stop stop-color="#C4EEFF"/>
<stop offset="1" stop-color="#1CBFFF"/>
</linearGradient>
<linearGradient id="paint12_linear_677_1039" x1="99.1399" y1="55.7556" x2="45.884" y2="99.4359" gradientUnits="userSpaceOnUse">
<stop stop-color="#C4EEFF"/>
<stop offset="1" stop-color="#1CBFFF"/>
</linearGradient>
<linearGradient id="paint13_linear_677_1039" x1="100.737" y1="57.7111" x2="47.4861" y2="101.386" gradientUnits="userSpaceOnUse">
<stop stop-color="#F25570"/>
<stop offset="1" stop-color="#BF4358"/>
</linearGradient>
<linearGradient id="paint14_linear_677_1039" x1="149.728" y1="13.3807" x2="159.646" y2="36.6648" gradientUnits="userSpaceOnUse">
<stop stop-color="#F25570"/>
<stop offset="1" stop-color="#BF4358"/>
</linearGradient>
<linearGradient id="paint15_linear_677_1039" x1="140.067" y1="97.7324" x2="149.895" y2="40.0263" gradientUnits="userSpaceOnUse">
<stop stop-color="#CED7F0"/>
<stop offset="1" stop-color="#B6C0F0"/>
</linearGradient>
<linearGradient id="paint16_linear_677_1039" x1="141.988" y1="97.7274" x2="144.004" y2="31.5796" gradientUnits="userSpaceOnUse">
<stop stop-color="#DFE5FA"/>
<stop offset="1" stop-color="#CCD2F0"/>
</linearGradient>
<linearGradient id="paint17_linear_677_1039" x1="167.967" y1="109.006" x2="168.723" y2="98.6748" gradientUnits="userSpaceOnUse">
<stop stop-color="#CED7F0"/>
<stop offset="1" stop-color="#B6C0F0"/>
</linearGradient>
<linearGradient id="paint18_linear_677_1039" x1="168.439" y1="87.683" x2="159.367" y2="28.465" gradientUnits="userSpaceOnUse">
<stop stop-color="#CED7F0"/>
<stop offset="1" stop-color="#B6C0F0"/>
</linearGradient>
<linearGradient id="paint19_linear_677_1039" x1="158.527" y1="98.2313" x2="160.543" y2="32.0836" gradientUnits="userSpaceOnUse">
<stop stop-color="#DFE5FA"/>
<stop offset="1" stop-color="#CCD2F0"/>
</linearGradient>
<linearGradient id="paint20_linear_677_1039" x1="145.759" y1="15.6537" x2="155.677" y2="38.9377" gradientUnits="userSpaceOnUse">
<stop stop-color="#F25570"/>
<stop offset="1" stop-color="#BF4358"/>
</linearGradient>
<linearGradient id="paint21_linear_677_1039" x1="151.609" y1="1.25492" x2="155.072" y2="1.25492" gradientUnits="userSpaceOnUse">
<stop stop-color="#F25570"/>
<stop offset="1" stop-color="#BF4358"/>
</linearGradient>
<linearGradient id="paint22_linear_677_1039" x1="150.39" y1="9.20778" x2="156.206" y2="9.20778" gradientUnits="userSpaceOnUse">
<stop stop-color="#F25570"/>
<stop offset="1" stop-color="#BF4358"/>
</linearGradient>
<linearGradient id="paint23_linear_677_1039" x1="161.242" y1="116.622" x2="190.04" y2="116.622" gradientUnits="userSpaceOnUse">
<stop stop-color="#FFD8BF"/>
<stop offset="1" stop-color="#DEAC8C"/>
</linearGradient>
<linearGradient id="paint24_linear_677_1039" x1="161.289" y1="101.149" x2="216.027" y2="101.149" gradientUnits="userSpaceOnUse">
<stop stop-color="#FFD8BF"/>
<stop offset="1" stop-color="#DEAC8C"/>
</linearGradient>
<linearGradient id="paint25_linear_677_1039" x1="165.973" y1="116.622" x2="183.446" y2="116.622" gradientUnits="userSpaceOnUse">
<stop stop-color="#FFE226"/>
<stop offset="1" stop-color="#FF8826"/>
</linearGradient>
<linearGradient id="paint26_linear_677_1039" x1="164.035" y1="33.0563" x2="170.526" y2="33.0563" gradientUnits="userSpaceOnUse">
<stop stop-color="#FFE226"/>
<stop offset="1" stop-color="#FF8826"/>
</linearGradient>
<linearGradient id="paint27_linear_677_1039" x1="165.324" y1="34.8353" x2="177.526" y2="34.8353" gradientUnits="userSpaceOnUse">
<stop stop-color="#FFE226"/>
<stop offset="1" stop-color="#FF8826"/>
</linearGradient>
<linearGradient id="paint28_linear_677_1039" x1="163.818" y1="50.3378" x2="176.478" y2="50.3378" gradientUnits="userSpaceOnUse">
<stop stop-color="#FFE226"/>
<stop offset="1" stop-color="#FF8826"/>
</linearGradient>
<linearGradient id="paint29_linear_677_1039" x1="166.382" y1="49.7079" x2="180.126" y2="49.7079" gradientUnits="userSpaceOnUse">
<stop stop-color="#FFE226"/>
<stop offset="1" stop-color="#FF8826"/>
</linearGradient>
<linearGradient id="paint30_linear_677_1039" x1="166.65" y1="43.7961" x2="209.791" y2="43.7961" gradientUnits="userSpaceOnUse">
<stop stop-color="#FFE226"/>
<stop offset="1" stop-color="#FF8826"/>
</linearGradient>
<linearGradient id="paint31_linear_677_1039" x1="177.87" y1="102.787" x2="198.896" y2="102.787" gradientUnits="userSpaceOnUse">
<stop stop-color="#FFE226"/>
<stop offset="1" stop-color="#FF8826"/>
</linearGradient>
<linearGradient id="paint32_linear_677_1039" x1="177.867" y1="95.3183" x2="198.878" y2="95.3183" gradientUnits="userSpaceOnUse">
<stop stop-color="#FFE226"/>
<stop offset="1" stop-color="#FF8826"/>
</linearGradient>
<linearGradient id="paint33_linear_677_1039" x1="184.654" y1="87.2395" x2="192.032" y2="87.2395" gradientUnits="userSpaceOnUse">
<stop stop-color="#FF8B26"/>
<stop offset="1" stop-color="#DE6012"/>
</linearGradient>
<linearGradient id="paint34_linear_677_1039" x1="169.786" y1="43.8012" x2="206.663" y2="43.8012" gradientUnits="userSpaceOnUse">
<stop stop-color="#FF8B26"/>
<stop offset="1" stop-color="#DE6012"/>
</linearGradient>
<linearGradient id="paint35_linear_677_1039" x1="166.101" y1="64.5351" x2="210.381" y2="64.5351" gradientUnits="userSpaceOnUse">
<stop stop-color="#FFE226"/>
<stop offset="1" stop-color="#FF8826"/>
</linearGradient>
<linearGradient id="paint36_linear_677_1039" x1="199.233" y1="73.9041" x2="205.689" y2="73.9041" gradientUnits="userSpaceOnUse">
<stop stop-color="#FF8B26"/>
<stop offset="1" stop-color="#DE6012"/>
</linearGradient>
<linearGradient id="paint37_linear_677_1039" x1="197.664" y1="67.1406" x2="210.435" y2="67.1406" gradientUnits="userSpaceOnUse">
<stop stop-color="#FFE226"/>
<stop offset="1" stop-color="#FF8826"/>
</linearGradient>
<linearGradient id="paint38_linear_677_1039" x1="201.953" y1="55.9875" x2="214.16" y2="55.9875" gradientUnits="userSpaceOnUse">
<stop stop-color="#FFE226"/>
<stop offset="1" stop-color="#FF8826"/>
</linearGradient>
<linearGradient id="paint39_linear_677_1039" x1="208.957" y1="58.9862" x2="215.433" y2="58.9862" gradientUnits="userSpaceOnUse">
<stop stop-color="#FFE226"/>
<stop offset="1" stop-color="#FF8826"/>
</linearGradient>
<linearGradient id="paint40_linear_677_1039" x1="205.215" y1="68.0327" x2="215.637" y2="68.0327" gradientUnits="userSpaceOnUse">
<stop stop-color="#FFE226"/>
<stop offset="1" stop-color="#FF8826"/>
</linearGradient>
<linearGradient id="paint41_linear_677_1039" x1="203.719" y1="141.74" x2="118.495" y2="141.74" gradientUnits="userSpaceOnUse">
<stop stop-color="#F25570"/>
<stop offset="1" stop-color="#BF4358"/>
</linearGradient>
<linearGradient id="paint42_linear_677_1039" x1="175.567" y1="115.004" x2="118.496" y2="115.004" gradientUnits="userSpaceOnUse">
<stop stop-color="white"/>
<stop offset="1" stop-color="white" stop-opacity="0.3"/>
</linearGradient>
<linearGradient id="paint43_linear_677_1039" x1="23.4861" y1="100.071" x2="31.8422" y2="114.283" gradientUnits="userSpaceOnUse">
<stop stop-color="#B3FC53"/>
<stop offset="1" stop-color="#3AD664"/>
</linearGradient>
<linearGradient id="paint44_linear_677_1039" x1="46.1721" y1="111.652" x2="46.7668" y2="124.418" gradientUnits="userSpaceOnUse">
<stop stop-color="#FFE226"/>
<stop offset="1" stop-color="#FF8826"/>
</linearGradient>
<linearGradient id="paint45_linear_677_1039" x1="63.9718" y1="119.197" x2="65.4435" y2="139.099" gradientUnits="userSpaceOnUse">
<stop stop-color="#FC9CD9"/>
<stop offset="1" stop-color="#FC358F"/>
</linearGradient>
<linearGradient id="paint46_linear_677_1039" x1="88.6982" y1="131.937" x2="89.2829" y2="144.366" gradientUnits="userSpaceOnUse">
<stop stop-color="#FFE226"/>
<stop offset="1" stop-color="#FF8826"/>
</linearGradient>
<linearGradient id="paint47_linear_677_1039" x1="81.1631" y1="136.322" x2="81.7427" y2="148.745" gradientUnits="userSpaceOnUse">
<stop stop-color="#FFE226"/>
<stop offset="1" stop-color="#FF8826"/>
</linearGradient>
<linearGradient id="paint48_linear_677_1039" x1="97.1125" y1="143.287" x2="119.782" y2="157.62" gradientUnits="userSpaceOnUse">
<stop stop-color="#D375FF"/>
<stop offset="1" stop-color="#513AD6"/>
</linearGradient>
<linearGradient id="paint49_linear_677_1039" x1="191.884" y1="85.9997" x2="201.072" y2="85.9997" gradientUnits="userSpaceOnUse">
<stop stop-color="#DFE5FA"/>
<stop offset="1" stop-color="#CCD2F0"/>
</linearGradient>
<linearGradient id="paint50_linear_677_1039" x1="192.465" y1="86.0249" x2="201.073" y2="86.0249" gradientUnits="userSpaceOnUse">
<stop stop-color="#CED7F0"/>
<stop offset="1" stop-color="#B6C0F0"/>
</linearGradient>
<linearGradient id="paint51_linear_677_1039" x1="191.965" y1="84.0488" x2="198.721" y2="87.6428" gradientUnits="userSpaceOnUse">
<stop stop-color="#FC9CD9"/>
<stop offset="1" stop-color="#FC358F"/>
</linearGradient>
<linearGradient id="paint52_linear_677_1039" x1="196.383" y1="90.7946" x2="198.113" y2="89.5834" gradientUnits="userSpaceOnUse">
<stop stop-color="#CDD7E0"/>
<stop offset="1" stop-color="#A9C3D9"/>
</linearGradient>
<linearGradient id="paint53_linear_677_1039" x1="192.716" y1="89.6564" x2="196.354" y2="87.1097" gradientUnits="userSpaceOnUse">
<stop stop-color="white"/>
<stop offset="1" stop-color="#D2E5F7"/>
</linearGradient>
<linearGradient id="paint54_linear_677_1039" x1="174.095" y1="132.044" x2="177.613" y2="133.457" gradientUnits="userSpaceOnUse">
<stop stop-color="#848D99"/>
<stop offset="1" stop-color="#373B40"/>
</linearGradient>
<linearGradient id="paint55_linear_677_1039" x1="175.26" y1="126.3" x2="180.029" y2="128.104" gradientUnits="userSpaceOnUse">
<stop stop-color="#FFE8D1"/>
<stop offset="1" stop-color="#EDB089"/>
</linearGradient>
<linearGradient id="paint56_linear_677_1039" x1="181.204" y1="104.301" x2="187.957" y2="107.891" gradientUnits="userSpaceOnUse">
<stop stop-color="#FC9CD9"/>
<stop offset="1" stop-color="#FC358F"/>
</linearGradient>
<clipPath id="clip0_677_1039">
<rect width="215.559" height="186" fill="white" transform="translate(0.71875)"/>
</clipPath>
</defs>
</svg>
