<svg width="193" height="188" viewBox="0 0 193 188" fill="none" xmlns="http://www.w3.org/2000/svg">
<g clip-path="url(#clip0_684_8384)">
<g opacity="0.05">
<path d="M82.3691 83.9316L87.4834 80.9515L82.3691 83.9316Z" fill="#D3D3D3"/>
<path d="M63.8633 94.747L68.9775 91.7668L63.8633 94.747Z" fill="#D3D3D3"/>
<path d="M45.3496 105.562L50.4639 102.582L45.3496 105.562Z" fill="#D3D3D3"/>
<path d="M26.8359 116.378L31.9502 113.398L26.8359 116.378Z" fill="#D3D3D3"/>
<path d="M8.33008 127.193L13.4443 124.213L8.33008 127.193Z" fill="#D3D3D3"/>
<path d="M82.3691 83.6801L87.4834 80.7L82.3691 83.6801Z" fill="#F8F8F8"/>
<path d="M63.8633 94.4955L68.9775 91.5153L63.8633 94.4955Z" fill="#F8F8F8"/>
<path d="M45.3496 105.311L50.4639 102.331L45.3496 105.311Z" fill="#F8F8F8"/>
<path d="M26.8359 116.134L31.9502 113.154L26.8359 116.134Z" fill="#F8F8F8"/>
<path d="M8.33008 126.949L13.4443 123.969L8.33008 126.949Z" fill="#F8F8F8"/>
</g>
<g opacity="0.05">
<path d="M123.039 91.4467L128.153 94.4268L123.039 91.4467Z" fill="#D3D3D3"/>
<path d="M141.545 102.262L146.659 105.242L141.545 102.262Z" fill="#D3D3D3"/>
<path d="M160.059 113.077L165.173 116.058L160.059 113.077Z" fill="#D3D3D3"/>
<path d="M178.564 123.893L183.679 126.873L178.564 123.893Z" fill="#D3D3D3"/>
<path d="M123.039 90.8293L128.153 93.8095L123.039 90.8293Z" fill="#F8F8F8"/>
<path d="M141.545 101.645L146.659 104.625L141.545 101.645Z" fill="#F8F8F8"/>
<path d="M160.059 112.468L165.173 115.448L160.059 112.468Z" fill="#F8F8F8"/>
<path d="M178.564 123.283L183.679 126.263L178.564 123.283Z" fill="#F8F8F8"/>
</g>
<path d="M108.603 81.8737C108.603 81.8737 108.634 81.8661 108.642 81.8585V77.7122C108.642 77.7122 97.3613 72.6665 93.9772 74.6101L0 128.161V132.307C0 133.588 0.846023 134.868 2.53807 135.844L8.58218 139.312C8.74986 139.182 8.90992 139.053 9.10809 138.938C11.5928 137.513 15.6171 137.513 18.1018 138.938C18.5896 139.22 18.986 139.533 19.2832 139.868C19.5805 140.204 17.4616 140.249 17.4616 140.249V144.396L90.3416 186.186C93.7257 188.137 99.2667 188.137 102.658 186.186L190.454 135.836C192.169 134.853 193.015 133.55 192.992 132.246C192.97 130.981 192.992 127.993 192.992 127.993L117.696 87.0489C117.696 87.0489 117.681 87.0642 117.673 87.0642C115.166 88.4971 111.111 88.4971 108.603 87.0642C106.111 85.6313 106.111 83.3066 108.603 81.8661V81.8737Z" fill="url(#paint0_linear_684_8384)"/>
<path d="M108.603 77.7274C108.603 77.7274 108.634 77.7198 108.642 77.7122L102.658 74.2748C99.2667 72.3312 93.7257 72.3312 90.3416 74.2748L2.53807 124.632C-0.846023 126.576 -0.846023 129.754 2.53807 131.698L8.58218 135.166C8.74986 135.036 8.90992 134.906 9.10809 134.792C11.5928 133.367 15.6171 133.367 18.1018 134.792C20.5942 136.217 20.5942 138.527 18.1018 139.952C17.9037 140.066 17.675 140.158 17.4616 140.257L90.3416 182.047C93.7257 183.999 99.2667 183.999 102.658 182.047L190.454 131.698C193.838 129.754 193.838 126.576 190.454 124.632L117.696 82.9103C117.696 82.9103 117.681 82.9255 117.673 82.9255C115.166 84.3584 111.111 84.3584 108.603 82.9255C106.111 81.4926 106.111 79.168 108.603 77.7274ZM97.7805 180.683C96.8735 181.201 95.4101 181.201 94.5107 180.683C93.6037 180.165 93.6037 179.326 94.5107 178.801C95.4101 178.29 96.8735 178.29 97.7805 178.801C98.6875 179.319 98.6875 180.157 97.7805 180.668V180.683ZM8.04865 129.228C7.14166 129.746 5.67826 129.746 4.77127 129.228C3.87189 128.71 3.87189 127.871 4.77127 127.353C5.67826 126.835 7.14166 126.835 8.04103 127.353C8.94803 127.871 8.94803 128.71 8.04865 129.228ZM188.023 127.064C188.922 127.582 188.922 128.42 188.023 128.939C187.116 129.457 185.653 129.457 184.753 128.939C183.846 128.42 183.846 127.582 184.746 127.064C185.653 126.545 187.116 126.545 188.023 127.064ZM98.2835 77.4835C97.3841 78.0018 95.9207 78.0018 95.0137 77.4835C94.1144 76.9653 94.1144 76.1269 95.0137 75.6086C95.9207 75.0903 97.3841 75.0903 98.2835 75.6086C99.1905 76.1269 99.1905 76.9729 98.2835 77.4835Z" fill="url(#paint1_linear_684_8384)"/>
<path d="M133.703 129.807L99.3588 149.502L59.2832 126.522L93.6272 106.828L133.703 129.807Z" fill="url(#paint2_linear_684_8384)"/>
<path d="M72.2781 123.588L70.9214 122.811L64.3438 126.576L73.4671 131.812L75.3039 130.753" stroke="#53995B" stroke-width="0.37" stroke-miterlimit="10"/>
<path d="M99.1758 114.449L100.944 113.443L123.2 126.202L121.462 127.201" stroke="#53995B" stroke-width="0.37" stroke-miterlimit="10"/>
<path d="M112.019 119.792L110.281 120.783" stroke="#53995B" stroke-width="0.37" stroke-miterlimit="10"/>
<path d="M96.6066 128.626L94.4648 129.853" stroke="#53995B" stroke-width="0.41" stroke-miterlimit="10"/>
<path d="M79.4273 123.146L76.8054 124.647L74.6484 123.413L77.2703 121.911L79.4273 123.146Z" fill="#53995B"/>
<path d="M83.359 120.89L80.7371 122.391L78.5801 121.157L81.1944 119.655L83.359 120.89Z" fill="#53995B"/>
<path d="M82.6578 125.006L80.0359 126.507L77.8789 125.272L80.5008 123.763L82.6578 125.006Z" fill="#53995B"/>
<path d="M86.5992 122.75L83.9697 124.251L81.8203 123.016L84.4346 121.515L86.5992 122.75Z" fill="#53995B"/>
<path d="M85.898 126.865L83.2761 128.367L81.1191 127.125L83.7411 125.623L85.898 126.865Z" fill="#53995B"/>
<path d="M89.8297 124.609L87.2078 126.111L85.0508 124.876L87.6727 123.367L89.8297 124.609Z" fill="#53995B"/>
<path d="M87.5599 118.481L84.938 119.983L82.7734 118.748L85.403 117.247L87.5599 118.481Z" fill="#53995B"/>
<path d="M90.7906 120.341L88.1687 121.843L86.0117 120.608L88.6413 119.099L90.7906 120.341Z" fill="#53995B"/>
<path d="M94.0308 122.193L91.4089 123.702L89.252 122.46L91.8739 120.958L94.0308 122.193Z" fill="#53995B"/>
<path d="M91.7594 116.073L89.1374 117.582L86.9805 116.34L89.5948 114.838L91.7594 116.073Z" fill="#53995B"/>
<path d="M95.6908 113.824L93.0689 115.326L90.9043 114.084L93.5262 112.582L95.6908 113.824Z" fill="#53995B"/>
<path d="M94.9976 117.933L92.3757 119.434L90.2188 118.199L92.8407 116.69L94.9976 117.933Z" fill="#53995B"/>
<path d="M98.931 115.677L96.3091 117.178L94.1445 115.943L96.7664 114.442L98.931 115.677Z" fill="#53995B"/>
<path d="M98.2379 119.792L95.6083 121.294L93.459 120.051L96.0809 118.55L98.2379 119.792Z" fill="#53995B"/>
<path d="M102.17 117.529L99.5476 119.038L97.3906 117.795L100.005 116.294L102.17 117.529Z" fill="#53995B"/>
<path d="M104.807 117.491L83.0851 129.945L71.8887 123.527L93.6109 111.065L104.807 117.491ZM83.0851 129.663L104.312 117.491L93.6109 111.355L72.3841 123.527L83.0775 129.663H83.0851Z" fill="#53995B"/>
<path d="M100.929 135.478L98.2997 136.987L96.1504 135.745L98.7723 134.243L100.929 135.478Z" fill="#53995B"/>
<path d="M104.861 133.23L102.239 134.731L100.082 133.489L102.704 131.987L104.861 133.23Z" fill="#53995B"/>
<path d="M104.16 137.338L101.538 138.839L99.3809 137.605L102.003 136.095L104.16 137.338Z" fill="#53995B"/>
<path d="M108.101 135.082L105.471 136.591L103.314 135.348L105.936 133.839L108.101 135.082Z" fill="#53995B"/>
<path d="M107.4 139.19L104.778 140.699L102.621 139.457L105.243 137.955L107.4 139.19Z" fill="#53995B"/>
<path d="M111.332 136.934L108.71 138.443L106.553 137.201L109.167 135.699L111.332 136.934Z" fill="#53995B"/>
<path d="M109.062 130.813L106.432 132.323L104.275 131.08L106.905 129.571L109.062 130.813Z" fill="#53995B"/>
<path d="M112.3 132.673L109.678 134.175L107.514 132.94L110.136 131.431L112.3 132.673Z" fill="#53995B"/>
<path d="M115.533 134.525L112.919 136.034L110.754 134.792L113.376 133.291L115.533 134.525Z" fill="#53995B"/>
<path d="M113.261 128.405L110.639 129.906L108.482 128.672L111.104 127.163L113.261 128.405Z" fill="#53995B"/>
<path d="M117.193 126.149L114.571 127.65L112.414 126.416L115.028 124.914L117.193 126.149Z" fill="#53995B"/>
<path d="M116.499 130.265L113.87 131.766L111.713 130.531L114.342 129.022L116.499 130.265Z" fill="#53995B"/>
<path d="M120.433 128.001L117.811 129.51L115.654 128.268L118.269 126.766L120.433 128.001Z" fill="#53995B"/>
<path d="M119.732 132.117L117.11 133.618L114.953 132.384L117.575 130.882L119.732 132.117Z" fill="#53995B"/>
<path d="M123.671 129.861L121.042 131.37L118.885 130.128L121.507 128.626L123.671 129.861Z" fill="#53995B"/>
<path d="M126.309 129.815L104.587 142.269L93.3906 135.852L115.113 123.39L126.309 129.807V129.815ZM104.587 141.987L125.814 129.815L115.12 123.679L93.8937 135.859L104.595 141.995L104.587 141.987Z" fill="#53995B"/>
<path d="M99.9371 125.585L97.3152 127.086L95.1582 125.844L97.7725 124.343L99.9371 125.585Z" fill="#53995B"/>
<path d="M103.177 127.437L100.555 128.946L98.3984 127.704L101.013 126.202L103.177 127.437Z" fill="#53995B"/>
<path d="M104.136 123.176L101.514 124.678L99.3574 123.443L101.979 121.934L104.136 123.176Z" fill="#53995B"/>
<path d="M108.07 120.92L105.448 122.422L103.291 121.187L105.913 119.678L108.07 120.92Z" fill="#53995B"/>
<path d="M107.377 125.029L104.755 126.53L102.598 125.295L105.22 123.794L107.377 125.029Z" fill="#53995B"/>
<path d="M111.308 122.772L108.686 124.282L106.529 123.039L109.151 121.538L111.308 122.772Z" fill="#53995B"/>
<path d="M113.954 122.727L100.052 130.699L92.2773 126.24L106.18 118.268L113.954 122.727ZM100.052 130.41L113.458 122.727L106.18 118.558L92.7804 126.24L100.059 130.41H100.052Z" fill="#53995B"/>
<path d="M71.6988 127.978L70.4641 128.679L66.9199 126.652L68.147 125.943L71.6988 127.978Z" fill="#F8F8F8"/>
<path d="M73.8551 126.736L72.6203 127.445L69.0762 125.417L70.3109 124.701L73.8551 126.736Z" fill="#F8F8F8"/>
<path d="M77.4762 131.294L76.2414 132.003L72.6973 129.967L73.932 129.259L77.4762 131.294Z" fill="#F8F8F8"/>
<path d="M83.2613 134.609L82.0266 135.318L78.4824 133.283L79.7172 132.574L83.2613 134.609Z" fill="#F8F8F8"/>
<path d="M85.4254 133.374L84.183 134.076L80.6465 132.048L81.8736 131.339L85.4254 133.374Z" fill="#F8F8F8"/>
<path d="M89.0465 137.925L87.8117 138.634L84.2676 136.598L85.4947 135.89L89.0465 137.925Z" fill="#F8F8F8"/>
<path d="M91.2027 136.69L89.968 137.399L86.4238 135.364L87.6586 134.655L91.2027 136.69Z" fill="#F8F8F8"/>
<path d="M93.4429 131.667L92.2006 132.376L88.6641 130.341L89.8912 129.632L93.4429 131.667Z" fill="#F8F8F8"/>
<path d="M95.6012 130.425L94.3664 131.141L90.8223 129.099L92.057 128.397L95.6012 130.425Z" fill="#F8F8F8"/>
<path d="M94.8238 141.24L93.5967 141.949L90.0449 139.914L91.2797 139.205L94.8238 141.24Z" fill="#F8F8F8"/>
<path d="M96.9801 140.005L95.7453 140.707L92.2012 138.679L93.4435 137.97L96.9801 140.005Z" fill="#F8F8F8"/>
<path d="M100.609 144.563L99.374 145.264L95.8223 143.229L97.057 142.528L100.609 144.563Z" fill="#F8F8F8"/>
<path d="M102.765 143.321L101.53 144.03L97.9863 141.995L99.2134 141.286L102.765 143.321Z" fill="#F8F8F8"/>
<path d="M18.0709 128.367C18.8484 128.809 18.8484 129.541 18.0709 129.99C17.2859 130.44 16.0283 130.44 15.2432 129.99C14.4658 129.541 14.4658 128.817 15.2432 128.367C16.0283 127.925 17.2935 127.917 18.0709 128.367Z" fill="#F6D874"/>
<path d="M22.8717 125.615C23.6491 126.057 23.6491 126.789 22.8717 127.239C22.0867 127.681 20.8214 127.681 20.044 127.239C19.2666 126.789 19.2666 126.065 20.044 125.615C20.8291 125.173 22.0867 125.173 22.8717 125.615Z" fill="#F6D874"/>
<path d="M27.6743 122.856C28.4517 123.298 28.4517 124.03 27.6743 124.48C26.8893 124.922 25.624 124.922 24.8466 124.48C24.0616 124.03 24.0616 123.306 24.8466 122.864C25.6316 122.414 26.8893 122.414 27.6743 122.864V122.856Z" fill="#F6D874"/>
<path d="M32.4694 120.105C33.2545 120.555 33.2545 121.279 32.4694 121.728C31.692 122.178 30.4268 122.178 29.6493 121.728C28.8643 121.279 28.8643 120.555 29.6493 120.105C30.4268 119.655 31.692 119.655 32.4694 120.105Z" fill="#F6D874"/>
<path d="M37.2701 117.353C38.0476 117.803 38.0552 118.527 37.2701 118.969C36.4851 119.419 35.2275 119.419 34.4424 118.969C33.665 118.527 33.665 117.795 34.4424 117.353C35.2199 116.904 36.4775 116.904 37.2625 117.353H37.2701Z" fill="#F6D874"/>
<path d="M42.0729 114.602C42.8503 115.052 42.8503 115.776 42.0729 116.218C41.2878 116.667 40.0302 116.667 39.2452 116.218C38.4678 115.768 38.4678 115.044 39.2452 114.594C40.0302 114.145 41.2878 114.145 42.0729 114.594V114.602Z" fill="#F6D874"/>
<path d="M46.8737 111.85C47.6511 112.3 47.6511 113.024 46.8737 113.474C46.0886 113.916 44.8234 113.916 44.046 113.474C43.2685 113.024 43.2685 112.3 44.046 111.85C44.8234 111.401 46.0886 111.401 46.8737 111.85Z" fill="#F6D874"/>
<path d="M51.6763 109.091C52.4537 109.541 52.4537 110.265 51.6763 110.715C50.8912 111.164 49.626 111.164 48.8486 110.715C48.0635 110.265 48.0635 109.541 48.8486 109.091C49.626 108.642 50.8912 108.642 51.6763 109.091Z" fill="#F6D874"/>
<path d="M66.0729 100.837C66.8503 101.287 66.8503 102.011 66.0729 102.46C65.2878 102.91 64.0302 102.91 63.2452 102.46C62.4678 102.011 62.4678 101.287 63.2452 100.837C64.0302 100.387 65.2878 100.387 66.0729 100.837Z" fill="#F6D874"/>
<path d="M70.8758 98.0854C71.6532 98.5351 71.6532 99.2591 70.8758 99.7088C70.0984 100.151 68.8332 100.151 68.0557 99.7088C67.2783 99.2591 67.2783 98.5351 68.0557 98.0854C68.8332 97.6357 70.0984 97.6357 70.8834 98.0854H70.8758Z" fill="#F6D874"/>
<path d="M75.6763 95.3339C76.4537 95.7836 76.4537 96.5076 75.6686 96.9573C74.8912 97.407 73.626 97.407 72.8486 96.9573C72.0635 96.5076 72.0635 95.7836 72.8486 95.3339C73.626 94.8842 74.8912 94.8842 75.6763 95.3339Z" fill="#F6D874"/>
<path d="M80.4714 92.5748C81.2488 93.0245 81.2564 93.7485 80.4714 94.1982C79.6939 94.6479 78.4287 94.6403 77.6513 94.1982C76.8662 93.7485 76.8662 93.0245 77.6513 92.5748C78.4287 92.1251 79.6939 92.1251 80.4714 92.5748Z" fill="#F6D874"/>
<path d="M85.2721 89.8309C86.0495 90.2806 86.0571 91.0047 85.2721 91.4544C84.487 91.9041 83.2218 91.9041 82.4444 91.4544C81.667 91.0047 81.667 90.2806 82.4444 89.8309C83.2294 89.3812 84.487 89.3812 85.2721 89.8309Z" fill="#F6D874"/>
<path d="M90.0738 87.0718C90.8512 87.5215 90.8512 88.2456 90.0738 88.6953C89.2887 89.1373 88.0235 89.1373 87.2461 88.6953C86.461 88.2456 86.4687 87.5215 87.2461 87.0718C88.0311 86.6297 89.2887 86.6297 90.0738 87.0718Z" fill="#F6D874"/>
<path d="M94.8689 84.3203C95.654 84.77 95.654 85.4941 94.8689 85.9438C94.0915 86.3859 92.8262 86.3859 92.0488 85.9438C91.2638 85.4941 91.2714 84.77 92.0488 84.3203C92.8262 83.8783 94.0915 83.8783 94.8689 84.3203Z" fill="#F6D874"/>
<path d="M99.6706 81.5689C100.456 82.0185 100.456 82.7426 99.6706 83.1923C98.8932 83.642 97.6279 83.6344 96.8505 83.1923C96.0655 82.7426 96.0655 82.0185 96.8505 81.5689C97.6279 81.1268 98.8932 81.1268 99.6706 81.5689Z" fill="#F6D874"/>
<path d="M21.7819 130.493C22.567 130.943 22.567 131.667 21.7819 132.117C21.0045 132.567 19.7393 132.567 18.9618 132.117C18.1768 131.667 18.1768 130.943 18.9618 130.493C19.7393 130.044 21.0045 130.044 21.7819 130.493Z" fill="#F6D874"/>
<path d="M26.5915 127.742C27.3765 128.192 27.3765 128.916 26.5915 129.365C25.814 129.815 24.5488 129.807 23.7714 129.365C22.9863 128.923 22.9863 128.192 23.7638 127.742C24.5488 127.3 25.814 127.3 26.5915 127.742Z" fill="#F6D874"/>
<path d="M31.3854 124.99C32.1628 125.432 32.1628 126.164 31.3854 126.606C30.608 127.056 29.3427 127.056 28.5577 126.606C27.7803 126.164 27.7803 125.432 28.5577 124.99C29.3427 124.541 30.608 124.541 31.3854 124.99Z" fill="#F6D874"/>
<path d="M36.1881 122.239C36.9655 122.689 36.9655 123.413 36.1881 123.855C35.4031 124.304 34.1378 124.304 33.3604 123.855C32.583 123.405 32.583 122.681 33.3604 122.231C34.1378 121.782 35.4031 121.782 36.1881 122.231V122.239Z" fill="#F6D874"/>
<path d="M40.9907 119.487C41.7681 119.937 41.7681 120.661 40.9907 121.111C40.2057 121.553 38.9404 121.553 38.163 121.111C37.378 120.661 37.378 119.93 38.163 119.487C38.9404 119.038 40.2057 119.045 40.9907 119.487Z" fill="#F6D874"/>
<path d="M45.7917 116.736C46.5691 117.186 46.5767 117.91 45.7917 118.359C45.0143 118.809 43.749 118.801 42.9716 118.359C42.1866 117.91 42.1866 117.186 42.9716 116.736C43.749 116.286 45.0143 116.286 45.7917 116.736Z" fill="#F6D874"/>
<path d="M50.5866 113.985C51.364 114.427 51.3716 115.158 50.5866 115.6C49.8091 116.05 48.5439 116.05 47.7589 115.6C46.9814 115.151 46.9814 114.427 47.7589 113.977C48.5439 113.527 49.8091 113.527 50.5866 113.977V113.985Z" fill="#F6D874"/>
<path d="M55.3873 111.233C56.1648 111.675 56.1648 112.407 55.3873 112.849C54.6099 113.299 53.3447 113.299 52.5596 112.849C51.7822 112.399 51.7822 111.675 52.5596 111.225C53.3447 110.776 54.6099 110.776 55.3873 111.225V111.233Z" fill="#F6D874"/>
<path d="M69.7858 102.971C70.5632 103.421 70.5709 104.145 69.7858 104.594C69.0084 105.044 67.7432 105.036 66.9657 104.594C66.1807 104.145 66.1807 103.421 66.9657 102.971C67.7432 102.521 69.0084 102.521 69.7858 102.971Z" fill="#F6D874"/>
<path d="M74.5865 100.219C75.364 100.669 75.3716 101.393 74.5865 101.835C73.8015 102.285 72.5439 102.285 71.7589 101.835C70.9814 101.393 70.9814 100.662 71.7589 100.219C72.5439 99.7698 73.8091 99.7698 74.5865 100.219Z" fill="#F6D874"/>
<path d="M79.3882 97.468C80.1657 97.9177 80.1657 98.6418 79.3882 99.0838C78.6032 99.5335 77.338 99.5335 76.5605 99.0838C75.7831 98.6341 75.7755 97.9101 76.5605 97.4604C77.3456 97.0107 78.6108 97.0107 79.3882 97.4604V97.468Z" fill="#F6D874"/>
<path d="M84.191 94.7089C84.9684 95.1586 84.9684 95.8827 84.191 96.3324C83.4059 96.7744 82.1407 96.7744 81.3633 96.3324C80.5858 95.8827 80.5782 95.1586 81.3633 94.7089C82.1407 94.2592 83.4059 94.2592 84.191 94.7089Z" fill="#F6D874"/>
<path d="M88.9927 91.9574C89.7701 92.4071 89.7701 93.1312 88.9927 93.5732C88.2076 94.0229 86.9424 94.0153 86.165 93.5732C85.3799 93.1312 85.3799 92.4071 86.165 91.9574C86.9424 91.5077 88.2076 91.5077 88.9927 91.9574Z" fill="#F6D874"/>
<path d="M93.7858 89.2059C94.5632 89.6556 94.5709 90.3797 93.7858 90.8294C93.0084 91.2791 91.7432 91.2791 90.9657 90.8294C90.1807 90.3797 90.1807 89.6556 90.9657 89.2059C91.7432 88.7562 93.0084 88.7562 93.7858 89.2059Z" fill="#F6D874"/>
<path d="M98.5885 86.4544C99.3659 86.9041 99.3659 87.6282 98.5885 88.0703C97.8035 88.52 96.5382 88.52 95.7608 88.0703C94.9834 87.6206 94.9834 86.8965 95.7608 86.4468C96.5382 85.9971 97.8035 85.9971 98.5885 86.4468V86.4544Z" fill="#F6D874"/>
<path d="M103.39 83.703C104.168 84.1527 104.168 84.8767 103.39 85.3188C102.605 85.7685 101.34 85.7685 100.562 85.3188C99.7851 84.8691 99.7774 84.145 100.562 83.6954C101.34 83.2457 102.605 83.2457 103.39 83.6954V83.703Z" fill="#F6D874"/>
<path d="M25.5104 132.627C26.2878 133.077 26.2954 133.809 25.5104 134.251C24.7253 134.701 23.4677 134.701 22.6827 134.251C21.9053 133.809 21.9053 133.077 22.6827 132.635C23.4677 132.185 24.7253 132.185 25.5104 132.635V132.627Z" fill="#F6D874"/>
<path d="M30.3121 129.876C31.0895 130.318 31.0895 131.05 30.3121 131.499C29.527 131.949 28.2694 131.949 27.4844 131.499C26.7069 131.057 26.6993 130.326 27.4844 129.884C28.2694 129.434 29.527 129.434 30.3121 129.884V129.876Z" fill="#F6D874"/>
<path d="M35.1061 127.125C35.8912 127.574 35.8912 128.298 35.1061 128.748C34.3287 129.19 33.0635 129.19 32.2861 128.748C31.501 128.298 31.501 127.574 32.2861 127.125C33.0635 126.682 34.3287 126.682 35.1061 127.125Z" fill="#F6D874"/>
<path d="M39.9069 124.373C40.6919 124.823 40.6919 125.547 39.9069 125.997C39.1294 126.446 37.8642 126.439 37.0792 125.997C36.3017 125.554 36.3017 124.823 37.0792 124.373C37.8642 123.931 39.1294 123.931 39.9069 124.373Z" fill="#F6D874"/>
<path d="M44.7096 121.614C45.487 122.064 45.4946 122.788 44.7096 123.237C43.9322 123.695 42.6669 123.695 41.8819 123.237C41.1045 122.795 41.1045 122.064 41.8819 121.614C42.6669 121.164 43.9322 121.164 44.7096 121.614Z" fill="#F6D874"/>
<path d="M49.5026 118.87C50.2876 119.32 50.2952 120.044 49.5026 120.486C48.7175 120.936 47.4523 120.936 46.6749 120.486C45.8974 120.044 45.8974 119.32 46.6749 118.87C47.4599 118.42 48.7175 118.42 49.4949 118.87H49.5026Z" fill="#F6D874"/>
<path d="M54.3053 116.111C55.0904 116.561 55.0904 117.277 54.313 117.734C53.5279 118.176 52.2627 118.176 51.4853 117.734C50.7002 117.285 50.7002 116.561 51.4853 116.119C52.2627 115.669 53.5279 115.669 54.3053 116.119V116.111Z" fill="#F6D874"/>
<path d="M59.1061 113.359C59.8912 113.809 59.8912 114.533 59.1061 114.983C58.3287 115.433 57.0635 115.433 56.2861 114.983C55.501 114.533 55.501 113.809 56.2861 113.359C57.0635 112.917 58.3287 112.917 59.1061 113.359Z" fill="#F6D874"/>
<path d="M63.9088 110.608C64.6939 111.058 64.6939 111.782 63.9088 112.231C63.1314 112.681 61.8662 112.681 61.0811 112.231C60.3037 111.789 60.3037 111.058 61.0811 110.608C61.8662 110.158 63.1314 110.158 63.9088 110.608Z" fill="#F6D874"/>
<path d="M68.7096 107.857C69.487 108.306 69.487 109.03 68.7096 109.48C67.9322 109.922 66.6669 109.922 65.8819 109.48C65.1045 109.038 65.1045 108.306 65.8819 107.864C66.6669 107.414 67.9322 107.414 68.7096 107.864V107.857Z" fill="#F6D874"/>
<path d="M73.5047 105.105C74.2898 105.547 74.2898 106.279 73.5123 106.721C72.7273 107.171 71.4621 107.171 70.6846 106.721C69.9072 106.279 69.9072 105.555 70.6846 105.105C71.4621 104.655 72.7273 104.655 73.5047 105.105Z" fill="#F6D874"/>
<path d="M78.3071 102.354C79.0922 102.796 79.0922 103.52 78.3071 103.977C77.5221 104.427 76.2568 104.419 75.4794 103.977C74.6944 103.527 74.6944 102.803 75.4794 102.361C76.2568 101.912 77.5221 101.912 78.2995 102.361L78.3071 102.354Z" fill="#F6D874"/>
<path d="M83.1071 99.5945C83.8921 100.044 83.8921 100.768 83.1071 101.21C82.3297 101.66 81.0644 101.66 80.2794 101.21C79.502 100.768 79.502 100.037 80.287 99.5945C81.0644 99.1448 82.3297 99.1448 83.1071 99.5945Z" fill="#F6D874"/>
<path d="M87.903 96.843C88.688 97.2927 88.688 98.0168 87.903 98.4665C87.1255 98.9161 85.8603 98.9161 85.0753 98.4665C84.2978 98.0244 84.2978 97.2927 85.0753 96.843C85.8603 96.3933 87.1255 96.3933 87.903 96.843Z" fill="#F6D874"/>
<path d="M92.7115 94.0915C93.489 94.5412 93.489 95.2577 92.7115 95.7073C91.9341 96.157 90.6689 96.157 89.8839 95.7073C89.1064 95.2577 89.1064 94.5336 89.8839 94.0915C90.6689 93.6418 91.9341 93.6418 92.7115 94.0915Z" fill="#F6D874"/>
<path d="M97.4988 91.34C98.2839 91.7897 98.2839 92.5062 97.5065 92.9559C96.7214 93.4056 95.4562 93.4056 94.6788 92.9559C93.9013 92.5062 93.9013 91.7821 94.6788 91.34C95.4562 90.8904 96.7214 90.8904 97.4988 91.34Z" fill="#F6D874"/>
<path d="M102.299 88.5886C103.084 89.0383 103.084 89.7623 102.299 90.2044C101.514 90.6541 100.249 90.6465 99.4716 90.2044C98.6866 89.7623 98.6866 89.0383 99.4716 88.5886C100.249 88.1389 101.514 88.1389 102.292 88.5886H102.299Z" fill="#F6D874"/>
<path d="M107.102 85.8295C107.88 86.2791 107.887 87.0032 107.102 87.4453C106.325 87.895 105.06 87.895 104.274 87.4453C103.497 86.9956 103.497 86.2715 104.274 85.8295C105.052 85.3798 106.317 85.3798 107.095 85.8295H107.102Z" fill="#F6D874"/>
<path d="M29.2214 134.762C30.0064 135.204 30.0064 135.935 29.2214 136.377C28.4363 136.827 27.1787 136.827 26.4013 136.377C25.6162 135.935 25.6162 135.211 26.4013 134.762C27.1787 134.32 28.4439 134.32 29.2214 134.762Z" fill="#F6D874"/>
<path d="M34.0241 132.01C34.8015 132.452 34.8015 133.176 34.0241 133.626C33.2391 134.076 31.9814 134.076 31.204 133.626C30.419 133.184 30.419 132.46 31.204 132.01C31.9814 131.56 33.2467 131.56 34.0241 132.01Z" fill="#F6D874"/>
<path d="M38.8248 129.251C39.6023 129.701 39.6023 130.425 38.8248 130.867C38.0398 131.317 36.7746 131.317 35.9971 130.867C35.2197 130.425 35.2197 129.701 35.9971 129.251C36.7822 128.801 38.0474 128.801 38.8248 129.251Z" fill="#F6D874"/>
<path d="M43.6265 126.507C44.404 126.957 44.404 127.681 43.6265 128.123C42.8415 128.573 41.5762 128.573 40.7988 128.123C40.0214 127.673 40.0138 126.949 40.7988 126.5C41.5839 126.05 42.8491 126.05 43.6265 126.5V126.507Z" fill="#F6D874"/>
<path d="M48.4216 123.748C49.1991 124.198 49.2067 124.922 48.4216 125.364C47.6442 125.814 46.379 125.814 45.6016 125.364C44.8241 124.922 44.8165 124.198 45.6016 123.748C46.379 123.298 47.6442 123.306 48.4216 123.748Z" fill="#F6D874"/>
<path d="M53.2223 120.997C53.9997 121.446 54.0074 122.17 53.2223 122.612C52.4373 123.062 51.1797 123.062 50.3946 122.612C49.6172 122.17 49.6172 121.446 50.4022 120.997C51.1797 120.547 52.4449 120.547 53.2223 120.997Z" fill="#F6D874"/>
<path d="M58.0251 118.245C58.8025 118.695 58.8025 119.419 58.0251 119.861C57.24 120.311 55.9824 120.311 55.1974 119.861C54.4199 119.419 54.4199 118.695 55.205 118.245C55.9824 117.795 57.2476 117.795 58.0251 118.245Z" fill="#F6D874"/>
<path d="M62.8268 115.494C63.6042 115.936 63.6042 116.66 62.8268 117.109C62.0417 117.559 60.7765 117.559 59.9991 117.109C59.2217 116.66 59.2217 115.943 59.9991 115.494C60.7841 115.044 62.0417 115.044 62.8268 115.494Z" fill="#F6D874"/>
<path d="M67.6285 112.742C68.4059 113.192 68.4059 113.916 67.6209 114.366C66.8434 114.808 65.5782 114.808 64.8008 114.366C64.0233 113.916 64.0157 113.192 64.8008 112.742C65.5858 112.292 66.8434 112.3 67.6285 112.742Z" fill="#F6D874"/>
<path d="M72.4216 109.991C73.1991 110.433 73.2067 111.164 72.4216 111.614C71.6442 112.056 70.379 112.056 69.6016 111.614C68.8241 111.164 68.8165 110.44 69.6016 109.991C70.379 109.549 71.6442 109.549 72.4216 109.991Z" fill="#F6D874"/>
<path d="M77.2233 107.232C78.0007 107.681 78.0083 108.405 77.2233 108.855C76.4382 109.305 75.1806 109.305 74.3956 108.855C73.6181 108.405 73.6181 107.681 74.3956 107.232C75.1806 106.782 76.4458 106.782 77.2233 107.232Z" fill="#F6D874"/>
<path d="M82.026 104.48C82.8034 104.93 82.8034 105.654 82.026 106.096C81.241 106.546 79.9834 106.546 79.1983 106.096C78.4209 105.646 78.4209 104.93 79.1983 104.48C79.9834 104.03 81.2486 104.03 82.026 104.48Z" fill="#F6D874"/>
<path d="M86.827 101.729C87.6044 102.178 87.6044 102.895 86.827 103.344C86.0495 103.794 84.7843 103.794 84.0069 103.344C83.2295 102.895 83.2295 102.171 84.0069 101.721C84.7919 101.271 86.0495 101.271 86.8346 101.721L86.827 101.729Z" fill="#F6D874"/>
<path d="M91.6294 98.9771C92.4068 99.4268 92.4068 100.143 91.6218 100.593C90.8443 101.043 89.5791 101.043 88.8017 100.593C88.0166 100.143 88.0166 99.4192 88.8017 98.9771C89.5867 98.5274 90.8443 98.5274 91.6294 98.9771Z" fill="#F6D874"/>
<path d="M96.4225 96.2256C97.2 96.6753 97.2076 97.3994 96.4225 97.8491C95.6451 98.2912 94.3799 98.2912 93.6025 97.8491C92.8174 97.407 92.8174 96.6753 93.6025 96.2256C94.3799 95.7759 95.6451 95.7759 96.4225 96.2256Z" fill="#F6D874"/>
<path d="M101.225 93.4665C102.003 93.9162 102.01 94.6403 101.225 95.09C100.44 95.5397 99.1749 95.5397 98.3975 95.09C97.6201 94.6403 97.6201 93.9162 98.3975 93.4665C99.1826 93.0169 100.448 93.0169 101.225 93.4665Z" fill="#F6D874"/>
<path d="M106.026 90.7227C106.803 91.1647 106.803 91.8888 106.026 92.3385C105.241 92.7882 103.976 92.7882 103.198 92.3385C102.421 91.8964 102.421 91.1724 103.198 90.7227C103.983 90.273 105.249 90.273 106.026 90.7227Z" fill="#F6D874"/>
<path d="M110.821 87.9636C111.606 88.4056 111.606 89.1297 110.821 89.5794C110.044 90.0291 108.778 90.0291 108.001 89.5794C107.224 89.1297 107.224 88.4056 108.001 87.9636C108.778 87.5139 110.044 87.5139 110.821 87.9636Z" fill="#F6D874"/>
<path d="M32.9488 136.896C33.7262 137.338 33.7262 138.069 32.9488 138.512C32.1637 138.961 30.8985 138.961 30.1211 138.512C29.3437 138.062 29.336 137.338 30.1211 136.896C30.8985 136.446 32.1637 136.446 32.9488 136.896Z" fill="#F6D874"/>
<path d="M37.7437 134.144C38.5211 134.594 38.5211 135.318 37.7361 135.76C36.9587 136.21 35.6934 136.21 34.916 135.76C34.1386 135.31 34.131 134.586 34.916 134.144C35.6934 133.695 36.9587 133.695 37.7437 134.144Z" fill="#F6D874"/>
<path d="M42.5446 131.393C43.322 131.835 43.322 132.559 42.5446 133.009C41.7672 133.451 40.5019 133.451 39.7245 133.009C38.9395 132.559 38.9395 131.835 39.7169 131.393C40.5019 130.943 41.7672 130.943 42.5522 131.393H42.5446Z" fill="#F6D874"/>
<path d="M47.3386 128.634C48.116 129.083 48.116 129.807 47.3386 130.249C46.5611 130.699 45.2959 130.699 44.5185 130.249C43.7334 129.807 43.7334 129.076 44.5185 128.634C45.3035 128.184 46.5687 128.192 47.3462 128.634H47.3386Z" fill="#F6D874"/>
<path d="M52.1412 125.882C52.9187 126.332 52.9187 127.056 52.1412 127.498C51.3562 127.948 50.091 127.948 49.3135 127.498C48.5361 127.056 48.5361 126.332 49.3135 125.882C50.0986 125.432 51.3562 125.432 52.1412 125.882Z" fill="#F6D874"/>
<path d="M56.9419 123.131C57.7193 123.573 57.7193 124.297 56.9419 124.747C56.1568 125.196 54.8916 125.196 54.1142 124.747C53.3291 124.297 53.3291 123.573 54.1142 123.123C54.8916 122.673 56.1568 122.673 56.9419 123.123V123.131Z" fill="#F6D874"/>
<path d="M61.737 120.379C62.522 120.829 62.522 121.553 61.737 121.995C60.9596 122.445 59.6943 122.445 58.9169 121.995C58.1319 121.545 58.1319 120.821 58.9169 120.379C59.6943 119.93 60.9596 119.93 61.737 120.379Z" fill="#F6D874"/>
<path d="M66.5378 117.628C67.3228 118.07 67.3228 118.801 66.5378 119.244C65.7603 119.693 64.4951 119.693 63.7177 119.244C62.9326 118.794 62.9326 118.07 63.7177 117.628C64.5027 117.178 65.768 117.178 66.5454 117.628H66.5378Z" fill="#F6D874"/>
<path d="M71.3395 114.869C72.1169 115.318 72.1169 116.042 71.3395 116.484C70.5621 116.927 69.2969 116.927 68.5194 116.484C67.7344 116.035 67.7344 115.318 68.5118 114.869C69.2969 114.419 70.5621 114.419 71.3395 114.869Z" fill="#F6D874"/>
<path d="M76.1412 112.125C76.9187 112.574 76.9187 113.299 76.1412 113.741C75.3562 114.19 74.091 114.19 73.3135 113.741C72.5361 113.291 72.5361 112.574 73.3135 112.125C74.091 111.675 75.3562 111.675 76.1412 112.125Z" fill="#F6D874"/>
<path d="M80.9438 109.366C81.7213 109.808 81.7213 110.539 80.9438 110.989C80.1588 111.431 78.8936 111.431 78.1161 110.989C77.3311 110.539 77.3311 109.815 78.1161 109.366C78.8936 108.916 80.1588 108.916 80.9438 109.366Z" fill="#F6D874"/>
<path d="M85.737 106.614C86.522 107.056 86.522 107.788 85.737 108.23C84.9596 108.68 83.6943 108.68 82.9169 108.23C82.1319 107.78 82.1319 107.056 82.9169 106.614C83.6943 106.164 84.9596 106.164 85.737 106.614Z" fill="#F6D874"/>
<path d="M90.5397 103.855C91.3247 104.305 91.3247 105.029 90.5397 105.479C89.7546 105.928 88.497 105.928 87.712 105.479C86.9345 105.029 86.9345 104.305 87.712 103.855C88.497 103.405 89.7622 103.413 90.5397 103.855Z" fill="#F6D874"/>
<path d="M95.3414 101.111C96.1188 101.561 96.1188 102.285 95.3414 102.727C94.5563 103.177 93.2987 103.177 92.5137 102.727C91.7362 102.277 91.7286 101.553 92.5137 101.111C93.2987 100.669 94.5639 100.669 95.3414 101.111Z" fill="#F6D874"/>
<path d="M100.142 98.3597C100.92 98.8018 100.92 99.5259 100.142 99.9756C99.3571 100.425 98.0919 100.425 97.3144 99.9756C96.537 99.5259 96.5294 98.8018 97.3144 98.3597C98.0919 97.9177 99.3571 97.9177 100.142 98.3597Z" fill="#F6D874"/>
<path d="M104.944 95.6006C105.721 96.0427 105.721 96.7744 104.944 97.2241C104.159 97.6738 102.894 97.6738 102.116 97.2241C101.331 96.7744 101.331 96.0503 102.116 95.6006C102.894 95.1509 104.159 95.1509 104.944 95.6006Z" fill="#F6D874"/>
<path d="M109.739 92.8492C110.516 93.2912 110.524 94.0229 109.739 94.4726C108.962 94.9223 107.696 94.9223 106.919 94.4726C106.134 94.0229 106.134 93.2989 106.919 92.8492C107.696 92.3995 108.962 92.3995 109.739 92.8492Z" fill="#F6D874"/>
<path d="M114.54 90.0977C115.317 90.5474 115.325 91.2715 114.54 91.7211C113.755 92.1708 112.497 92.1708 111.712 91.7211C110.935 91.2791 110.935 90.5474 111.712 90.0977C112.497 89.6556 113.755 89.6556 114.54 90.0977Z" fill="#F6D874"/>
<path d="M36.6608 139.03C37.4382 139.472 37.4458 140.196 36.6608 140.646C35.8833 141.088 34.6181 141.088 33.8331 140.646C33.0556 140.196 33.0556 139.472 33.8331 139.03C34.6181 138.58 35.8833 138.588 36.6608 139.03Z" fill="#F6D874"/>
<path d="M41.4616 136.271C42.239 136.72 42.2466 137.445 41.4616 137.887C40.6765 138.336 39.4189 138.336 38.6339 137.887C37.8564 137.437 37.8564 136.713 38.6339 136.271C39.4189 135.821 40.6841 135.821 41.4616 136.271Z" fill="#F6D874"/>
<path d="M46.2632 133.519C47.0407 133.969 47.0407 134.693 46.2632 135.143C45.4782 135.592 44.213 135.592 43.4355 135.143C42.6581 134.693 42.6505 133.969 43.4355 133.519C44.2206 133.077 45.4858 133.077 46.2632 133.519Z" fill="#F6D874"/>
<path d="M51.0584 130.768C51.8434 131.217 51.8434 131.942 51.066 132.391C50.2809 132.841 49.0157 132.841 48.2383 132.391C47.4608 131.942 47.4532 131.217 48.2383 130.775C49.0157 130.326 50.2809 130.326 51.0584 130.775V130.768Z" fill="#F6D874"/>
<path d="M55.859 128.016C56.6441 128.458 56.6441 129.182 55.859 129.632C55.0816 130.082 53.8164 130.082 53.0313 129.632C52.2539 129.182 52.2539 128.458 53.039 128.016C53.8164 127.567 55.0816 127.574 55.859 128.016Z" fill="#F6D874"/>
<path d="M99.0612 103.238C99.8463 103.687 99.8463 104.411 99.0612 104.861C98.2838 105.311 97.0186 105.311 96.2411 104.861C95.4561 104.411 95.4561 103.687 96.2411 103.245C97.0186 102.796 98.2838 102.796 99.0612 103.245V103.238Z" fill="#F6D874"/>
<path d="M103.854 100.486C104.632 100.936 104.639 101.66 103.854 102.11C103.077 102.559 101.811 102.559 101.026 102.11C100.249 101.66 100.249 100.936 101.026 100.486C101.811 100.044 103.077 100.044 103.854 100.486Z" fill="#F6D874"/>
<path d="M108.657 97.7347C109.434 98.1844 109.442 98.9085 108.657 99.3582C107.879 99.8079 106.614 99.8079 105.829 99.3582C105.052 98.9161 105.052 98.1844 105.829 97.7347C106.614 97.2927 107.879 97.2927 108.657 97.7347Z" fill="#F6D874"/>
<path d="M113.458 94.9757C114.243 95.4253 114.243 96.1494 113.458 96.5991C112.673 97.0488 111.407 97.0488 110.63 96.5991C109.853 96.1494 109.853 95.4253 110.63 94.9757C111.407 94.5336 112.673 94.5336 113.45 94.9757H113.458Z" fill="#F6D874"/>
<path d="M118.253 92.2318C119.038 92.6815 119.038 93.4056 118.26 93.8476C117.475 94.2973 116.21 94.2973 115.433 93.8476C114.647 93.3979 114.647 92.6739 115.433 92.2318C116.21 91.7821 117.475 91.7821 118.253 92.2318Z" fill="#F6D874"/>
<path d="M40.3728 141.156C41.1579 141.606 41.1579 142.33 40.3728 142.78C39.5954 143.229 38.3302 143.229 37.5527 142.78C36.7753 142.33 36.7677 141.606 37.5527 141.164C38.3302 140.714 39.5954 140.714 40.3728 141.164V141.156Z" fill="#F6D874"/>
<path d="M45.1745 138.405C45.9595 138.855 45.9595 139.579 45.1745 140.028C44.3971 140.478 43.1318 140.478 42.3544 140.028C41.5694 139.579 41.5694 138.855 42.3544 138.405C43.1318 137.963 44.3971 137.963 45.1745 138.405Z" fill="#F6D874"/>
<path d="M49.9762 135.653C50.7613 136.103 50.7537 136.827 49.9762 137.269C49.1988 137.719 47.9336 137.719 47.1485 137.269C46.3711 136.82 46.3711 136.095 47.1561 135.646C47.9336 135.196 49.1988 135.196 49.9762 135.646V135.653Z" fill="#F6D874"/>
<path d="M54.778 132.894C55.563 133.344 55.5554 134.068 54.778 134.518C53.9929 134.96 52.7353 134.96 51.9503 134.518C51.1728 134.068 51.1728 133.344 51.9503 132.894C52.7353 132.452 54.0005 132.452 54.778 132.894Z" fill="#F6D874"/>
<path d="M59.5787 130.143C60.3562 130.592 60.3562 131.317 59.5787 131.766C58.7937 132.216 57.5361 132.216 56.751 131.766C55.9736 131.317 55.9736 130.592 56.751 130.143C57.5361 129.701 58.7937 129.701 59.5787 130.143Z" fill="#F6D874"/>
<path d="M102.78 105.372C103.557 105.822 103.557 106.546 102.78 106.995C101.995 107.445 100.73 107.445 99.9522 106.995C99.1748 106.553 99.1748 105.822 99.9522 105.372C100.737 104.93 102.002 104.93 102.78 105.372Z" fill="#F6D874"/>
<path d="M107.574 102.62C108.359 103.07 108.359 103.794 107.574 104.236C106.797 104.686 105.531 104.686 104.754 104.236C103.976 103.794 103.969 103.062 104.754 102.62C105.539 102.171 106.797 102.171 107.574 102.62Z" fill="#F6D874"/>
<path d="M112.376 99.8689C113.161 100.319 113.161 101.043 112.376 101.492C111.598 101.942 110.333 101.942 109.556 101.492C108.771 101.043 108.771 100.319 109.556 99.8689C110.333 99.4192 111.598 99.4192 112.376 99.8689Z" fill="#F6D874"/>
<path d="M117.178 97.1098C117.963 97.5595 117.956 98.2835 117.178 98.7332C116.393 99.1829 115.136 99.1829 114.351 98.7332C113.573 98.2835 113.573 97.5595 114.351 97.1098C115.128 96.6677 116.393 96.6677 117.171 97.1098H117.178Z" fill="#F6D874"/>
<path d="M121.979 94.3583C122.757 94.808 122.757 95.532 121.979 95.9817C121.194 96.4238 119.936 96.4238 119.151 95.9817C118.374 95.532 118.374 94.808 119.151 94.3583C119.936 93.9162 121.202 93.9162 121.979 94.3583Z" fill="#F6D874"/>
<path d="M44.0924 143.29C44.8698 143.74 44.8775 144.464 44.0924 144.914C43.3074 145.364 42.0498 145.364 41.2647 144.914C40.4873 144.464 40.4873 143.74 41.2647 143.29C42.0498 142.841 43.3074 142.841 44.0924 143.29Z" fill="#F6D874"/>
<path d="M48.8941 140.539C49.6715 140.981 49.6715 141.713 48.8941 142.162C48.1091 142.612 46.8514 142.612 46.0664 142.162C45.289 141.713 45.2814 140.989 46.0664 140.539C46.8514 140.089 48.1091 140.089 48.8941 140.539Z" fill="#F6D874"/>
<path d="M53.696 137.78C54.4734 138.23 54.4734 138.954 53.696 139.403C52.9185 139.853 51.6533 139.853 50.8759 139.403C50.0908 138.954 50.0908 138.23 50.8759 137.78C51.6533 137.33 52.9185 137.33 53.7036 137.78H53.696Z" fill="#F6D874"/>
<path d="M58.4966 135.036C59.274 135.478 59.274 136.21 58.4889 136.652C57.7115 137.101 56.4463 137.101 55.6689 136.652C54.8838 136.202 54.8838 135.478 55.6689 135.028C56.4539 134.579 57.7191 134.579 58.5042 135.028L58.4966 135.036Z" fill="#F6D874"/>
<path d="M63.2907 132.277C64.0681 132.727 64.0757 133.451 63.2907 133.893C62.5133 134.342 61.248 134.342 60.4706 133.893C59.6856 133.443 59.6856 132.719 60.463 132.269C61.248 131.82 62.5133 131.82 63.2907 132.269V132.277Z" fill="#F6D874"/>
<path d="M106.491 107.506C107.276 107.948 107.276 108.68 106.491 109.122C105.713 109.571 104.448 109.571 103.663 109.122C102.886 108.672 102.886 107.948 103.663 107.498C104.448 107.049 105.713 107.049 106.491 107.498V107.506Z" fill="#F6D874"/>
<path d="M111.294 104.747C112.071 105.197 112.071 105.921 111.294 106.363C110.509 106.812 109.251 106.812 108.466 106.363C107.688 105.913 107.688 105.189 108.466 104.739C109.251 104.29 110.509 104.29 111.294 104.739V104.747Z" fill="#F6D874"/>
<path d="M116.095 101.995C116.873 102.445 116.873 103.169 116.095 103.619C115.31 104.069 114.045 104.069 113.268 103.619C112.49 103.169 112.483 102.445 113.268 101.995C114.045 101.546 115.31 101.546 116.095 101.995Z" fill="#F6D874"/>
<path d="M120.897 99.2439C121.674 99.6936 121.674 100.418 120.897 100.867C120.112 101.317 118.847 101.317 118.069 100.867C117.284 100.418 117.284 99.6936 118.069 99.2439C118.847 98.7942 120.112 98.7942 120.897 99.2439Z" fill="#F6D874"/>
<path d="M125.692 96.4924C126.469 96.9421 126.477 97.6661 125.692 98.1158C124.915 98.5655 123.649 98.5655 122.872 98.1158C122.087 97.6661 122.087 96.9421 122.872 96.4924C123.649 96.0427 124.915 96.0427 125.692 96.4924Z" fill="#F6D874"/>
<path d="M47.811 145.425C48.5961 145.874 48.5961 146.598 47.811 147.048C47.026 147.498 45.7607 147.498 44.9833 147.048C44.1983 146.606 44.1983 145.874 44.9833 145.425C45.7607 144.975 47.026 144.975 47.8034 145.425H47.811Z" fill="#F6D874"/>
<path d="M52.6139 142.665C53.399 143.115 53.399 143.847 52.6139 144.289C51.8365 144.739 50.5713 144.739 49.7939 144.289C49.0088 143.847 49.0088 143.115 49.7939 142.673C50.5713 142.223 51.8365 142.223 52.6139 142.673V142.665Z" fill="#F6D874"/>
<path d="M57.4147 139.914C58.1997 140.364 58.1997 141.088 57.4147 141.53C56.6296 141.979 55.372 141.979 54.587 141.53C53.8095 141.088 53.8095 140.356 54.587 139.914C55.372 139.464 56.6372 139.464 57.4147 139.914Z" fill="#F6D874"/>
<path d="M62.2164 137.163C62.9938 137.612 62.9938 138.336 62.2164 138.786C61.4313 139.236 60.1737 139.236 59.3887 138.786C58.6112 138.344 58.6036 137.612 59.3887 137.17C60.1737 136.72 61.4389 136.72 62.2164 137.17V137.163Z" fill="#F6D874"/>
<path d="M67.0113 134.411C67.7963 134.861 67.7963 135.585 67.0113 136.034C66.2262 136.477 64.961 136.477 64.1836 136.034C63.4062 135.592 63.3985 134.861 64.1836 134.411C64.961 133.961 66.2262 133.961 67.0037 134.411H67.0113Z" fill="#F6D874"/>
<path d="M110.211 109.632C110.989 110.074 110.989 110.806 110.211 111.256C109.426 111.706 108.161 111.706 107.384 111.256C106.599 110.806 106.599 110.082 107.384 109.632C108.169 109.183 109.426 109.183 110.211 109.632Z" fill="#F6D874"/>
<path d="M115.005 106.881C115.79 107.331 115.79 108.055 115.005 108.504C114.227 108.954 112.962 108.954 112.184 108.504C111.399 108.062 111.399 107.331 112.184 106.881C112.962 106.431 114.227 106.431 115.005 106.881Z" fill="#F6D874"/>
<path d="M119.815 104.129C120.592 104.579 120.6 105.303 119.815 105.745C119.038 106.195 117.772 106.195 116.987 105.745C116.21 105.296 116.21 104.572 116.987 104.129C117.772 103.68 119.038 103.68 119.815 104.129Z" fill="#F6D874"/>
<path d="M124.608 101.378C125.385 101.828 125.385 102.552 124.608 102.994C123.831 103.444 122.565 103.444 121.78 102.994C121.003 102.544 121.003 101.82 121.78 101.378C122.565 100.928 123.831 100.928 124.608 101.378Z" fill="#F6D874"/>
<path d="M129.403 98.6265C130.188 99.0762 130.188 99.8003 129.403 100.25C128.618 100.7 127.353 100.7 126.575 100.25C125.798 99.8079 125.798 99.0762 126.575 98.6341C127.353 98.1845 128.618 98.1845 129.395 98.6341L129.403 98.6265Z" fill="#F6D874"/>
<path d="M56.3326 144.8C57.1101 145.242 57.1101 145.973 56.325 146.415C55.5476 146.865 54.2824 146.865 53.5049 146.415C52.7275 145.973 52.7275 145.249 53.5049 144.8C54.2824 144.35 55.5476 144.35 56.3326 144.8Z" fill="#F6D874"/>
<path d="M61.1352 142.048C61.9127 142.498 61.9127 143.222 61.1276 143.672C60.3502 144.121 59.085 144.121 58.3075 143.672C57.5225 143.222 57.5225 142.498 58.3075 142.048C59.085 141.598 60.3502 141.598 61.1352 142.048Z" fill="#F6D874"/>
<path d="M65.9284 139.297C66.7134 139.746 66.7134 140.47 65.9284 140.92C65.151 141.37 63.8857 141.37 63.1083 140.92C62.3233 140.478 62.3233 139.746 63.1083 139.304C63.8857 138.855 65.151 138.855 65.9284 139.304V139.297Z" fill="#F6D874"/>
<path d="M70.7311 136.545C71.5085 136.995 71.5085 137.711 70.7311 138.161C69.946 138.611 68.6884 138.611 67.9034 138.161C67.126 137.719 67.126 136.987 67.9034 136.545C68.6884 136.095 69.9537 136.095 70.7311 136.545Z" fill="#F6D874"/>
<path d="M113.931 111.767C114.716 112.216 114.709 112.94 113.931 113.39C113.146 113.84 111.889 113.84 111.104 113.39C110.326 112.94 110.326 112.216 111.111 111.774C111.889 111.324 113.154 111.324 113.931 111.774V111.767Z" fill="#F6D874"/>
<path d="M118.733 109.015C119.51 109.465 119.51 110.189 118.733 110.639C117.948 111.088 116.69 111.088 115.905 110.639C115.128 110.189 115.128 109.465 115.905 109.015C116.69 108.565 117.948 108.565 118.733 109.015Z" fill="#F6D874"/>
<path d="M123.527 106.264C124.312 106.713 124.312 107.437 123.527 107.879C122.75 108.329 121.484 108.329 120.707 107.879C119.93 107.43 119.922 106.706 120.707 106.256C121.492 105.806 122.75 105.806 123.527 106.256V106.264Z" fill="#F6D874"/>
<path d="M128.329 103.512C129.114 103.962 129.114 104.686 128.329 105.136C127.551 105.585 126.286 105.585 125.509 105.136C124.724 104.686 124.724 103.962 125.509 103.512C126.286 103.062 127.551 103.062 128.329 103.512Z" fill="#F6D874"/>
<path d="M60.0436 146.934C60.821 147.383 60.8286 148.107 60.0436 148.557C59.2585 148.999 58.0009 148.999 57.2159 148.557C56.4385 148.107 56.4385 147.383 57.2159 146.934C58.0009 146.484 59.2662 146.484 60.0436 146.934Z" fill="#F6D874"/>
<path d="M64.8463 144.182C65.6237 144.624 65.6237 145.356 64.8463 145.798C64.0613 146.248 62.796 146.248 62.0186 145.798C61.2412 145.356 61.2412 144.624 62.0186 144.182C62.8037 143.732 64.0689 143.732 64.8463 144.182Z" fill="#F6D874"/>
<path d="M69.6471 141.431C70.4245 141.873 70.4245 142.604 69.6471 143.047C68.862 143.496 67.5968 143.496 66.8194 143.047C66.042 142.597 66.042 141.873 66.8194 141.423C67.6044 140.973 68.862 140.973 69.6471 141.423V141.431Z" fill="#F6D874"/>
<path d="M74.4421 138.672C75.2271 139.114 75.2271 139.845 74.4421 140.295C73.6646 140.745 72.3994 140.745 71.622 140.295C70.8369 139.845 70.8369 139.121 71.622 138.672C72.407 138.222 73.6646 138.222 74.4421 138.672Z" fill="#F6D874"/>
<path d="M117.65 113.901C118.428 114.35 118.428 115.074 117.65 115.516C116.873 115.966 115.607 115.966 114.83 115.516C114.045 115.067 114.053 114.343 114.83 113.893C115.607 113.443 116.873 113.443 117.658 113.893L117.65 113.901Z" fill="#F6D874"/>
<path d="M122.444 111.149C123.221 111.591 123.229 112.323 122.444 112.773C121.667 113.215 120.401 113.215 119.624 112.773C118.839 112.323 118.839 111.599 119.624 111.149C120.401 110.699 121.667 110.699 122.444 111.149Z" fill="#F6D874"/>
<path d="M127.246 108.39C128.023 108.84 128.031 109.564 127.246 110.014C126.461 110.463 125.203 110.463 124.418 110.014C123.641 109.571 123.641 108.84 124.426 108.39C125.203 107.948 126.461 107.948 127.246 108.39Z" fill="#F6D874"/>
<path d="M132.047 105.646C132.825 106.096 132.825 106.82 132.047 107.262C131.262 107.712 129.997 107.712 129.22 107.262C128.442 106.812 128.442 106.088 129.22 105.646C130.005 105.197 131.262 105.197 132.047 105.646Z" fill="#F6D874"/>
<path d="M63.772 149.068C64.5494 149.517 64.5494 150.242 63.772 150.691C62.9869 151.141 61.7217 151.141 60.9443 150.691C60.1592 150.242 60.1592 149.517 60.9443 149.068C61.7217 148.618 62.9869 148.618 63.772 149.068Z" fill="#F6D874"/>
<path d="M68.5651 146.316C69.3502 146.766 69.3502 147.49 68.5651 147.94C67.7877 148.382 66.5225 148.382 65.745 147.94C64.96 147.49 64.96 146.766 65.745 146.316C66.5225 145.867 67.7877 145.867 68.5651 146.316Z" fill="#F6D874"/>
<path d="M73.3678 143.557C74.1528 144.007 74.1528 144.731 73.3678 145.181C72.5904 145.63 71.3251 145.63 70.5401 145.181C69.7627 144.739 69.7627 144.007 70.5401 143.557C71.3251 143.108 72.5904 143.108 73.3678 143.557Z" fill="#F6D874"/>
<path d="M78.1686 140.806C78.946 141.248 78.946 141.979 78.1686 142.422C77.3835 142.871 76.1259 142.864 75.3409 142.422C74.5635 141.972 74.5635 141.248 75.3409 140.798C76.1259 140.348 77.3835 140.348 78.1686 140.798V140.806Z" fill="#F6D874"/>
<path d="M121.362 116.027C122.139 116.477 122.139 117.201 121.362 117.651C120.577 118.1 119.312 118.1 118.534 117.651C117.757 117.201 117.757 116.477 118.534 116.027C119.319 115.577 120.585 115.577 121.362 116.027Z" fill="#F6D874"/>
<path d="M126.171 113.283C126.949 113.733 126.949 114.457 126.171 114.899C125.386 115.349 124.121 115.349 123.344 114.899C122.566 114.449 122.559 113.725 123.344 113.276C124.121 112.826 125.386 112.826 126.171 113.276V113.283Z" fill="#F6D874"/>
<path d="M130.965 110.524C131.743 110.974 131.743 111.698 130.965 112.14C130.18 112.59 128.915 112.59 128.138 112.14C127.353 111.69 127.353 110.966 128.138 110.517C128.915 110.067 130.18 110.067 130.965 110.517V110.524Z" fill="#F6D874"/>
<path d="M135.76 107.773C136.545 108.222 136.545 108.946 135.76 109.396C134.983 109.838 133.718 109.838 132.94 109.396C132.155 108.946 132.155 108.222 132.94 107.773C133.718 107.323 134.983 107.323 135.76 107.773Z" fill="#F6D874"/>
<path d="M67.483 151.194C68.2605 151.644 68.2681 152.368 67.483 152.818C66.7056 153.267 65.4404 153.26 64.6553 152.818C63.8779 152.368 63.8779 151.644 64.6553 151.194C65.4404 150.752 66.7056 150.752 67.483 151.194Z" fill="#F6D874"/>
<path d="M72.2858 148.443C73.0632 148.892 73.0708 149.617 72.2858 150.066C71.5007 150.516 70.2355 150.516 69.4581 150.066C68.6806 149.617 68.6806 148.892 69.4581 148.443C70.2431 148.001 71.5007 148.001 72.2858 148.443Z" fill="#F6D874"/>
<path d="M77.0864 145.691C77.8638 146.141 77.8638 146.865 77.0864 147.315C76.3014 147.764 75.0361 147.764 74.2587 147.315C73.4737 146.865 73.4737 146.141 74.2587 145.691C75.0438 145.242 76.3014 145.242 77.0864 145.691Z" fill="#F6D874"/>
<path d="M81.8815 142.94C82.6666 143.39 82.6666 144.114 81.8815 144.563C81.1041 145.013 79.8389 145.013 79.0614 144.563C78.2764 144.114 78.2764 143.39 79.0614 142.94C79.8389 142.49 81.1041 142.49 81.8815 142.94Z" fill="#F6D874"/>
<path d="M125.081 118.169C125.866 118.619 125.866 119.343 125.081 119.792C124.303 120.235 123.038 120.235 122.253 119.792C121.476 119.343 121.476 118.619 122.253 118.177C123.03 117.727 124.296 117.727 125.073 118.177L125.081 118.169Z" fill="#F6D874"/>
<path d="M129.883 115.41C130.661 115.86 130.668 116.584 129.883 117.033C129.106 117.476 127.841 117.476 127.056 117.033C126.278 116.584 126.278 115.86 127.056 115.41C127.841 114.96 129.106 114.96 129.883 115.41Z" fill="#F6D874"/>
<path d="M134.684 112.658C135.462 113.108 135.469 113.832 134.684 114.282C133.907 114.731 132.642 114.731 131.857 114.282C131.079 113.839 131.079 113.108 131.857 112.658C132.642 112.208 133.907 112.208 134.684 112.658Z" fill="#F6D874"/>
<path d="M139.487 109.907C140.264 110.357 140.264 111.081 139.487 111.523C138.702 111.972 137.437 111.972 136.659 111.523C135.882 111.081 135.882 110.349 136.659 109.907C137.437 109.457 138.702 109.457 139.487 109.907Z" fill="#F6D874"/>
<path d="M66.4019 156.08C67.1793 156.53 67.1793 157.254 66.4019 157.703C65.6169 158.153 64.3516 158.145 63.5742 157.703C62.7968 157.261 62.7892 156.53 63.5742 156.08C64.3593 155.63 65.6245 155.63 66.4019 156.08Z" fill="#F6D874"/>
<path d="M71.1951 153.328C71.9801 153.778 71.9801 154.502 71.1951 154.944C70.4176 155.394 69.1524 155.394 68.375 154.944C67.5976 154.502 67.5899 153.77 68.375 153.328C69.1524 152.879 70.4176 152.879 71.1951 153.328Z" fill="#F6D874"/>
<path d="M75.9977 150.577C76.7828 151.027 76.7828 151.751 75.9977 152.2C75.2127 152.65 73.9551 152.65 73.17 152.2C72.3926 151.751 72.3926 151.027 73.1776 150.577C73.9551 150.127 75.2203 150.135 75.9977 150.577Z" fill="#F6D874"/>
<path d="M80.7994 147.825C81.5769 148.275 81.5769 148.999 80.7994 149.449C80.0144 149.891 78.7568 149.891 77.9717 149.449C77.1943 148.999 77.1943 148.275 77.9717 147.825C78.7492 147.383 80.0144 147.383 80.7918 147.825H80.7994Z" fill="#F6D874"/>
<path d="M85.6002 145.074C86.3776 145.524 86.3776 146.248 85.6002 146.697C84.8152 147.147 83.5499 147.147 82.7725 146.697C81.9951 146.255 81.9951 145.531 82.7725 145.074C83.5576 144.632 84.8152 144.632 85.6002 145.074Z" fill="#F6D874"/>
<path d="M128.801 120.295C129.579 120.745 129.579 121.469 128.801 121.919C128.016 122.361 126.751 122.361 125.974 121.919C125.196 121.477 125.196 120.745 125.974 120.295C126.759 119.853 128.024 119.853 128.801 120.295Z" fill="#F6D874"/>
<path d="M133.595 117.544C134.381 117.994 134.381 118.718 133.595 119.16C132.818 119.609 131.553 119.609 130.775 119.16C129.998 118.718 129.99 117.994 130.775 117.544C131.56 117.094 132.818 117.094 133.595 117.544Z" fill="#F6D874"/>
<path d="M138.397 114.792C139.175 115.234 139.182 115.966 138.397 116.408C137.62 116.858 136.354 116.858 135.577 116.408C134.792 115.959 134.792 115.234 135.577 114.792C136.354 114.343 137.62 114.343 138.397 114.792Z" fill="#F6D874"/>
<path d="M143.199 112.041C143.976 112.491 143.976 113.207 143.199 113.657C142.421 114.106 141.156 114.106 140.371 113.657C139.594 113.207 139.594 112.483 140.379 112.041C141.156 111.591 142.421 111.591 143.199 112.041Z" fill="#F6D874"/>
<path d="M148.001 109.282C148.778 109.732 148.778 110.456 148.001 110.905C147.216 111.355 145.95 111.355 145.173 110.905C144.395 110.463 144.395 109.732 145.173 109.282C145.958 108.832 147.223 108.832 148.001 109.282Z" fill="#F6D874"/>
<path d="M70.1208 158.214C70.8982 158.656 70.8982 159.388 70.1208 159.83C69.3433 160.279 68.0781 160.279 67.3007 159.83C66.5156 159.388 66.5156 158.656 67.2931 158.214C68.0781 157.764 69.3433 157.764 70.1208 158.214Z" fill="#F6D874"/>
<path d="M74.9225 155.463C75.6999 155.905 75.6999 156.629 74.9225 157.086C74.1374 157.528 72.8722 157.528 72.0948 157.086C71.3174 156.636 71.3174 155.912 72.0948 155.463C72.8722 155.013 74.1374 155.013 74.9225 155.463Z" fill="#F6D874"/>
<path d="M79.7231 152.711C80.5006 153.161 80.5006 153.885 79.7231 154.327C78.9381 154.777 77.6729 154.777 76.8954 154.327C76.1104 153.885 76.1104 153.161 76.8954 152.711C77.6729 152.261 78.9381 152.261 79.7231 152.711Z" fill="#F6D874"/>
<path d="M84.5182 149.96C85.3033 150.409 85.3033 151.133 84.5182 151.575C83.7408 152.025 82.4756 152.025 81.6982 151.575C80.9131 151.133 80.9131 150.409 81.6982 149.96C82.4756 149.51 83.7408 149.51 84.5182 149.96Z" fill="#F6D874"/>
<path d="M89.319 147.208C90.0964 147.658 90.104 148.382 89.319 148.824C88.5415 149.274 87.2763 149.274 86.4913 148.832C85.7138 148.382 85.7138 147.658 86.4913 147.208C87.2763 146.758 88.5415 146.758 89.319 147.208Z" fill="#F6D874"/>
<path d="M132.512 122.43C133.297 122.879 133.297 123.603 132.512 124.045C131.735 124.495 130.47 124.495 129.692 124.045C128.907 123.596 128.907 122.872 129.692 122.422C130.477 121.98 131.743 121.98 132.52 122.422L132.512 122.43Z" fill="#F6D874"/>
<path d="M137.315 119.678C138.092 120.12 138.1 120.852 137.315 121.301C136.53 121.751 135.272 121.751 134.487 121.301C133.71 120.852 133.71 120.128 134.487 119.678C135.272 119.228 136.53 119.228 137.315 119.678Z" fill="#F6D874"/>
<path d="M142.117 116.927C142.894 117.376 142.894 118.1 142.117 118.542C141.332 118.992 140.066 118.992 139.289 118.542C138.512 118.093 138.504 117.369 139.289 116.927C140.074 116.477 141.332 116.477 142.117 116.927Z" fill="#F6D874"/>
<path d="M146.918 114.167C147.696 114.617 147.696 115.341 146.918 115.783C146.133 116.233 144.868 116.233 144.091 115.783C143.306 115.341 143.306 114.617 144.091 114.167C144.868 113.725 146.133 113.725 146.918 114.167Z" fill="#F6D874"/>
<path d="M151.712 111.424C152.497 111.866 152.497 112.59 151.712 113.039C150.934 113.489 149.669 113.489 148.892 113.039C148.106 112.59 148.106 111.866 148.892 111.424C149.669 110.974 150.934 110.974 151.712 111.424Z" fill="#F6D874"/>
<path d="M73.8318 160.348C74.6168 160.798 74.6168 161.522 73.8318 161.972C73.0544 162.421 71.7891 162.414 71.0117 161.972C70.2343 161.522 70.2267 160.798 71.0117 160.348C71.7891 159.898 73.0544 159.898 73.8318 160.348Z" fill="#F6D874"/>
<path d="M78.6334 157.597C79.4185 158.046 79.4185 158.77 78.6334 159.22C77.856 159.67 76.5908 159.67 75.8057 159.22C75.0283 158.77 75.0283 158.046 75.8057 157.604C76.5908 157.155 77.856 157.155 78.6334 157.604V157.597Z" fill="#F6D874"/>
<path d="M83.4362 154.845C84.2136 155.287 84.2212 156.011 83.4362 156.461C82.6587 156.911 81.3935 156.911 80.6085 156.461C79.831 156.011 79.831 155.287 80.6085 154.845C81.3935 154.395 82.6587 154.395 83.4362 154.845Z" fill="#F6D874"/>
<path d="M88.2369 152.094C89.0144 152.536 89.022 153.26 88.2369 153.709C87.4519 154.159 86.1867 154.159 85.4092 153.709C84.6318 153.26 84.6318 152.536 85.4092 152.094C86.1943 151.644 87.4519 151.644 88.2369 152.094Z" fill="#F6D874"/>
<path d="M93.0317 149.335C93.8168 149.784 93.8168 150.501 93.0317 150.95C92.2467 151.4 90.9814 151.4 90.204 150.95C89.419 150.508 89.419 149.784 90.204 149.335C90.9891 148.885 92.2467 148.885 93.0241 149.335H93.0317Z" fill="#F6D874"/>
<path d="M136.24 124.564C137.017 125.006 137.017 125.73 136.24 126.179C135.455 126.629 134.19 126.621 133.412 126.179C132.635 125.73 132.627 125.013 133.412 124.564C134.19 124.114 135.455 124.114 136.24 124.564Z" fill="#F6D874"/>
<path d="M141.034 121.805C141.819 122.262 141.819 122.978 141.041 123.428C140.256 123.878 138.991 123.878 138.214 123.428C137.429 122.986 137.429 122.262 138.214 121.805C138.991 121.362 140.256 121.362 141.034 121.805Z" fill="#F6D874"/>
<path d="M145.836 119.053C146.621 119.503 146.621 120.227 145.836 120.669C145.058 121.119 143.793 121.119 143.008 120.669C142.23 120.219 142.23 119.495 143.016 119.053C143.793 118.603 145.058 118.603 145.836 119.053Z" fill="#F6D874"/>
<path d="M150.637 116.302C151.415 116.744 151.415 117.475 150.637 117.917C149.86 118.367 148.595 118.367 147.81 117.917C147.032 117.468 147.032 116.744 147.81 116.302C148.595 115.852 149.86 115.852 150.637 116.302Z" fill="#F6D874"/>
<path d="M155.44 113.55C156.217 114 156.217 114.724 155.44 115.174C154.655 115.623 153.39 115.623 152.612 115.174C151.835 114.724 151.835 114 152.612 113.55C153.39 113.1 154.655 113.108 155.44 113.55Z" fill="#F6D874"/>
<path d="M77.5514 162.482C78.3364 162.924 78.3288 163.648 77.5514 164.098C76.7663 164.548 75.5087 164.548 74.7237 164.098C73.9463 163.648 73.9463 162.932 74.7237 162.482C75.5087 162.033 76.774 162.033 77.5514 162.482Z" fill="#F6D874"/>
<path d="M82.3531 159.731C83.1305 160.18 83.1305 160.897 82.3531 161.354C81.568 161.796 80.3104 161.796 79.5254 161.354C78.748 160.904 78.7403 160.18 79.5254 159.731C80.3104 159.281 81.5757 159.281 82.3531 159.731Z" fill="#F6D874"/>
<path d="M87.1482 156.972C87.9332 157.421 87.9332 158.145 87.1482 158.595C86.3708 159.037 85.1055 159.045 84.3281 158.595C83.5507 158.145 83.5431 157.421 84.3281 156.972C85.1055 156.53 86.3708 156.53 87.1482 156.972Z" fill="#F6D874"/>
<path d="M91.9498 154.22C92.7349 154.67 92.7349 155.386 91.9498 155.844C91.1724 156.293 89.9072 156.293 89.1221 155.844C88.3447 155.394 88.3447 154.67 89.1221 154.22C89.8996 153.77 91.1648 153.77 91.9422 154.22H91.9498Z" fill="#F6D874"/>
<path d="M96.7516 151.469C97.529 151.911 97.529 152.635 96.7516 153.085C95.9666 153.534 94.709 153.534 93.9239 153.085C93.1465 152.642 93.1465 151.911 93.9315 151.469C94.709 151.019 95.9742 151.019 96.7516 151.469Z" fill="#F6D874"/>
<path d="M139.952 126.69C140.737 127.14 140.729 127.864 139.952 128.314C139.167 128.763 137.909 128.763 137.124 128.314C136.347 127.864 136.347 127.14 137.124 126.69C137.909 126.24 139.174 126.24 139.952 126.69Z" fill="#F6D874"/>
<path d="M144.753 123.939C145.53 124.388 145.53 125.112 144.753 125.562C143.968 126.012 142.71 126.012 141.925 125.562C141.147 125.112 141.147 124.388 141.925 123.939C142.71 123.489 143.975 123.497 144.753 123.939Z" fill="#F6D874"/>
<path d="M149.555 121.187C150.333 121.637 150.333 122.361 149.555 122.811C148.77 123.26 147.505 123.26 146.728 122.811C145.95 122.361 145.95 121.637 146.728 121.187C147.513 120.745 148.77 120.745 149.555 121.187Z" fill="#F6D874"/>
<path d="M154.349 118.428C155.134 118.878 155.134 119.602 154.349 120.051C153.572 120.494 152.307 120.501 151.529 120.051C150.752 119.602 150.744 118.878 151.529 118.428C152.307 117.986 153.572 117.986 154.349 118.428Z" fill="#F6D874"/>
<path d="M159.15 115.684C159.935 116.134 159.927 116.858 159.15 117.3C158.373 117.75 157.107 117.75 156.322 117.3C155.545 116.858 155.545 116.126 156.33 115.684C157.107 115.234 158.373 115.234 159.15 115.684Z" fill="#F6D874"/>
<path d="M81.279 164.609C82.0564 165.058 82.0564 165.782 81.279 166.232C80.5015 166.682 79.2363 166.682 78.4589 166.232C77.6738 165.782 77.6738 165.058 78.4513 164.609C79.2363 164.159 80.5015 164.167 81.2866 164.609H81.279Z" fill="#F6D874"/>
<path d="M86.0719 161.857C86.8494 162.307 86.857 163.031 86.0719 163.481C85.2945 163.93 84.0293 163.923 83.2519 163.481C82.4668 163.031 82.4668 162.307 83.2442 161.857C84.0293 161.415 85.2945 161.415 86.0719 161.857Z" fill="#F6D874"/>
<path d="M90.8756 159.106C91.653 159.548 91.6607 160.272 90.8756 160.722C90.0906 161.171 88.8253 161.171 88.0479 160.722C87.2705 160.272 87.2705 159.54 88.0479 159.098C88.833 158.648 90.0906 158.648 90.8756 159.098V159.106Z" fill="#F6D874"/>
<path d="M95.6763 156.354C96.4537 156.804 96.4537 157.528 95.6763 157.978C94.8912 158.42 93.626 158.42 92.8486 157.978C92.0635 157.528 92.0635 156.796 92.8486 156.354C93.6336 155.905 94.8912 155.905 95.6763 156.354Z" fill="#F6D874"/>
<path d="M100.471 153.595C101.256 154.045 101.256 154.769 100.471 155.219C99.6939 155.661 98.4287 155.661 97.6513 155.219C96.8662 154.769 96.8662 154.045 97.6513 153.595C98.4287 153.145 99.6939 153.153 100.471 153.595Z" fill="#F6D874"/>
<path d="M105.273 150.851C106.058 151.293 106.058 152.017 105.273 152.467C104.496 152.917 103.23 152.917 102.453 152.467C101.668 152.025 101.668 151.293 102.445 150.844C103.23 150.394 104.496 150.394 105.273 150.844V150.851Z" fill="#F6D874"/>
<path d="M110.075 148.092C110.852 148.534 110.852 149.266 110.075 149.708C109.297 150.158 108.032 150.158 107.255 149.708C106.47 149.266 106.47 148.534 107.255 148.085C108.04 147.635 109.305 147.635 110.082 148.085L110.075 148.092Z" fill="#F6D874"/>
<path d="M114.876 145.341C115.653 145.783 115.653 146.514 114.876 146.957C114.091 147.406 112.825 147.406 112.048 146.957C111.27 146.507 111.27 145.775 112.048 145.333C112.825 144.883 114.091 144.883 114.876 145.333V145.341Z" fill="#F6D874"/>
<path d="M119.67 142.589C120.448 143.031 120.448 143.763 119.67 144.213C118.885 144.662 117.62 144.662 116.843 144.213C116.058 143.763 116.058 143.039 116.843 142.589C117.62 142.14 118.885 142.147 119.67 142.589Z" fill="#F6D874"/>
<path d="M124.472 139.838C125.257 140.287 125.257 141.012 124.472 141.461C123.695 141.911 122.43 141.911 121.652 141.461C120.867 141.012 120.867 140.287 121.645 139.838C122.43 139.396 123.695 139.396 124.472 139.838Z" fill="#F6D874"/>
<path d="M129.266 137.086C130.044 137.528 130.051 138.26 129.266 138.702C128.489 139.152 127.224 139.152 126.446 138.702C125.661 138.252 125.661 137.528 126.446 137.079C127.231 136.629 128.496 136.629 129.274 137.079L129.266 137.086Z" fill="#F6D874"/>
<path d="M134.075 134.327C134.852 134.769 134.852 135.501 134.075 135.943C133.29 136.393 132.032 136.393 131.247 135.943C130.47 135.501 130.47 134.769 131.247 134.327C132.032 133.877 133.29 133.877 134.075 134.327Z" fill="#F6D874"/>
<path d="M138.87 131.576C139.647 132.018 139.647 132.749 138.87 133.199C138.085 133.649 136.819 133.649 136.042 133.199C135.257 132.749 135.257 132.025 136.042 131.576C136.819 131.126 138.085 131.126 138.87 131.576Z" fill="#F6D874"/>
<path d="M143.671 128.824C144.448 129.274 144.448 129.998 143.671 130.448C142.893 130.897 141.628 130.897 140.851 130.448C140.065 129.998 140.065 129.274 140.851 128.824C141.628 128.375 142.893 128.382 143.678 128.824H143.671Z" fill="#F6D874"/>
<path d="M148.466 126.065C149.243 126.515 149.251 127.239 148.466 127.689C147.688 128.138 146.423 128.138 145.645 127.689C144.86 127.239 144.86 126.515 145.645 126.065C146.43 125.623 147.696 125.623 148.473 126.065H148.466Z" fill="#F6D874"/>
<path d="M153.274 123.321C154.051 123.771 154.059 124.495 153.274 124.937C152.497 125.387 151.231 125.387 150.446 124.937C149.669 124.487 149.669 123.763 150.446 123.314C151.231 122.864 152.497 122.864 153.274 123.314V123.321Z" fill="#F6D874"/>
<path d="M158.069 120.562C158.846 121.012 158.846 121.736 158.069 122.178C157.284 122.628 156.019 122.628 155.241 122.178C154.464 121.728 154.464 121.004 155.241 120.555C156.019 120.105 157.284 120.105 158.069 120.555V120.562Z" fill="#F6D874"/>
<path d="M162.871 117.811C163.648 118.26 163.648 118.984 162.871 119.434C162.086 119.876 160.82 119.876 160.043 119.434C159.266 118.984 159.258 118.26 160.043 117.811C160.82 117.361 162.086 117.369 162.871 117.811Z" fill="#F6D874"/>
<path d="M84.9898 166.743C85.7672 167.185 85.7672 167.917 84.9898 168.359C84.2048 168.808 82.9472 168.808 82.1621 168.359C81.3847 167.917 81.3771 167.185 82.1621 166.743C82.9472 166.293 84.2124 166.293 84.9898 166.743Z" fill="#F6D874"/>
<path d="M89.7849 163.991C90.57 164.433 90.57 165.165 89.7925 165.615C89.0075 166.064 87.7423 166.064 86.9648 165.615C86.1874 165.173 86.1798 164.441 86.9648 163.999C87.7423 163.549 89.0075 163.549 89.7849 163.999V163.991Z" fill="#F6D874"/>
<path d="M94.5856 161.232C95.3706 161.682 95.3706 162.406 94.5932 162.856C93.8082 163.298 92.5429 163.298 91.7579 162.856C90.9805 162.406 90.9805 161.682 91.7655 161.232C92.543 160.79 93.8082 160.79 94.5856 161.232Z" fill="#F6D874"/>
<path d="M99.3883 158.481C100.166 158.93 100.173 159.655 99.3883 160.104C98.6109 160.554 97.3457 160.546 96.5606 160.104C95.7832 159.655 95.7832 158.93 96.5683 158.481C97.3457 158.039 98.6109 158.039 99.3883 158.481Z" fill="#F6D874"/>
<path d="M104.19 155.729C104.967 156.179 104.975 156.903 104.19 157.353C103.405 157.802 102.14 157.802 101.362 157.353C100.585 156.903 100.585 156.179 101.362 155.729C102.147 155.287 103.405 155.287 104.19 155.729Z" fill="#F6D874"/>
<path d="M108.992 152.978C109.769 153.427 109.769 154.152 108.992 154.601C108.207 155.051 106.941 155.051 106.164 154.601C105.387 154.152 105.379 153.427 106.164 152.978C106.949 152.528 108.207 152.528 108.992 152.978Z" fill="#F6D874"/>
<path d="M113.785 150.226C114.57 150.676 114.57 151.4 113.793 151.85C113.007 152.299 111.742 152.299 110.965 151.85C110.187 151.4 110.18 150.676 110.965 150.226C111.742 149.777 113.007 149.777 113.785 150.226Z" fill="#F6D874"/>
<path d="M118.588 147.475C119.373 147.925 119.373 148.649 118.588 149.098C117.81 149.548 116.545 149.548 115.76 149.098C114.982 148.656 114.982 147.925 115.767 147.475C116.545 147.025 117.81 147.025 118.588 147.475Z" fill="#F6D874"/>
<path d="M123.389 144.716C124.167 145.165 124.174 145.897 123.389 146.339C122.612 146.789 121.347 146.789 120.562 146.339C119.784 145.897 119.784 145.165 120.562 144.716C121.347 144.266 122.612 144.266 123.389 144.716Z" fill="#F6D874"/>
<path d="M128.192 141.972C128.969 142.422 128.969 143.146 128.192 143.588C127.407 144.037 126.149 144.037 125.364 143.588C124.587 143.146 124.587 142.414 125.364 141.972C126.149 141.522 127.407 141.522 128.192 141.972Z" fill="#F6D874"/>
<path d="M132.986 139.213C133.771 139.655 133.771 140.387 132.994 140.836C132.209 141.286 130.943 141.286 130.166 140.836C129.389 140.394 129.381 139.662 130.166 139.22C130.943 138.771 132.209 138.771 132.986 139.22V139.213Z" fill="#F6D874"/>
<path d="M137.788 136.461C138.573 136.903 138.573 137.635 137.788 138.085C137.01 138.534 135.745 138.534 134.968 138.085C134.183 137.635 134.183 136.911 134.968 136.469C135.745 136.019 137.01 136.019 137.788 136.469V136.461Z" fill="#F6D874"/>
<path d="M142.589 133.71C143.374 134.159 143.374 134.884 142.589 135.333C141.811 135.783 140.546 135.783 139.761 135.333C138.983 134.884 138.983 134.159 139.761 133.71C140.546 133.26 141.811 133.26 142.589 133.71Z" fill="#F6D874"/>
<path d="M147.391 130.951C148.169 131.4 148.176 132.132 147.391 132.574C146.606 133.024 145.349 133.024 144.564 132.574C143.786 132.132 143.786 131.4 144.564 130.951C145.349 130.509 146.614 130.509 147.391 130.951Z" fill="#F6D874"/>
<path d="M152.185 128.207C152.97 128.657 152.97 129.381 152.193 129.823C151.408 130.272 150.143 130.272 149.365 129.823C148.588 129.373 148.58 128.649 149.365 128.207C150.15 127.757 151.408 127.757 152.185 128.207Z" fill="#F6D874"/>
<path d="M156.987 125.448C157.772 125.897 157.772 126.621 156.987 127.064C156.202 127.513 154.937 127.513 154.159 127.064C153.374 126.621 153.374 125.89 154.159 125.448C154.937 124.998 156.202 125.006 156.979 125.448H156.987Z" fill="#F6D874"/>
<path d="M161.788 122.696C162.573 123.146 162.573 123.87 161.788 124.32C161.01 124.769 159.745 124.769 158.96 124.32C158.183 123.87 158.183 123.146 158.96 122.696C159.737 122.247 161.003 122.247 161.78 122.696H161.788Z" fill="#F6D874"/>
<path d="M166.59 119.945C167.368 120.394 167.376 121.119 166.59 121.568C165.813 122.018 164.548 122.018 163.763 121.568C162.985 121.119 162.985 120.394 163.763 119.945C164.548 119.495 165.813 119.495 166.59 119.945Z" fill="#F6D874"/>
<path d="M88.7018 168.877C89.4869 169.327 89.4793 170.051 88.7018 170.5C87.9244 170.95 86.6592 170.95 85.8818 170.5C85.0967 170.051 85.0967 169.327 85.8818 168.877C86.6592 168.427 87.9244 168.427 88.7018 168.877Z" fill="#F6D874"/>
<path d="M93.5045 166.118C94.2896 166.568 94.2819 167.292 93.5045 167.741C92.7195 168.191 91.4619 168.191 90.6768 167.741C89.8994 167.299 89.8994 166.568 90.6768 166.118C91.4619 165.668 92.7271 165.668 93.5045 166.118Z" fill="#F6D874"/>
<path d="M98.3053 163.366C99.0827 163.816 99.0827 164.54 98.3053 164.99C97.5203 165.439 96.2626 165.439 95.4776 164.99C94.7002 164.54 94.7002 163.816 95.4776 163.366C96.2626 162.917 97.5279 162.917 98.3053 163.366Z" fill="#F6D874"/>
<path d="M103.108 160.615C103.886 161.064 103.886 161.788 103.108 162.238C102.331 162.688 101.066 162.688 100.288 162.238C99.5107 161.788 99.5107 161.064 100.288 160.615C101.066 160.165 102.331 160.165 103.116 160.615H103.108Z" fill="#F6D874"/>
<path d="M107.901 157.863C108.686 158.313 108.686 159.037 107.901 159.487C107.124 159.937 105.858 159.937 105.081 159.487C104.296 159.037 104.296 158.313 105.081 157.863C105.858 157.414 107.124 157.421 107.901 157.863Z" fill="#F6D874"/>
<path d="M112.703 155.112C113.48 155.562 113.48 156.286 112.703 156.735C111.925 157.185 110.66 157.185 109.875 156.735C109.098 156.286 109.098 155.562 109.883 155.112C110.66 154.67 111.925 154.67 112.703 155.112Z" fill="#F6D874"/>
<path d="M117.505 152.353C118.282 152.802 118.282 153.527 117.505 153.976C116.719 154.426 115.462 154.426 114.677 153.976C113.899 153.527 113.899 152.802 114.677 152.353C115.462 151.911 116.727 151.911 117.505 152.353Z" fill="#F6D874"/>
<path d="M122.307 149.609C123.085 150.059 123.085 150.783 122.307 151.232C121.522 151.674 120.257 151.682 119.48 151.232C118.702 150.783 118.702 150.059 119.48 149.609C120.257 149.159 121.522 149.159 122.307 149.609Z" fill="#F6D874"/>
<path d="M127.101 146.85C127.886 147.3 127.886 148.024 127.101 148.473C126.324 148.923 125.059 148.923 124.281 148.473C123.504 148.024 123.496 147.3 124.281 146.85C125.059 146.4 126.324 146.4 127.101 146.85Z" fill="#F6D874"/>
<path d="M131.903 144.098C132.688 144.548 132.688 145.272 131.903 145.722C131.126 146.171 129.86 146.171 129.083 145.722C128.298 145.272 128.298 144.548 129.083 144.098C129.86 143.649 131.126 143.649 131.903 144.098Z" fill="#F6D874"/>
<path d="M136.704 141.347C137.481 141.797 137.481 142.521 136.704 142.97C135.919 143.42 134.661 143.42 133.876 142.97C133.099 142.521 133.099 141.797 133.876 141.347C134.661 140.905 135.926 140.905 136.704 141.347Z" fill="#F6D874"/>
<path d="M141.506 138.595C142.284 139.045 142.284 139.769 141.506 140.219C140.721 140.669 139.464 140.669 138.679 140.219C137.901 139.777 137.901 139.045 138.679 138.603C139.464 138.153 140.729 138.153 141.506 138.603V138.595Z" fill="#F6D874"/>
<path d="M146.308 135.844C147.086 136.294 147.086 137.018 146.301 137.46C145.523 137.909 144.258 137.909 143.48 137.46C142.703 137.018 142.695 136.286 143.48 135.844C144.258 135.394 145.523 135.394 146.308 135.844Z" fill="#F6D874"/>
<path d="M151.102 133.092C151.887 133.534 151.887 134.266 151.102 134.708C150.325 135.158 149.06 135.158 148.282 134.708C147.497 134.259 147.497 133.534 148.282 133.092C149.06 132.643 150.325 132.643 151.102 133.092Z" fill="#F6D874"/>
<path d="M155.905 130.333C156.69 130.783 156.69 131.507 155.905 131.957C155.12 132.406 153.862 132.406 153.077 131.957C152.3 131.507 152.3 130.783 153.077 130.333C153.855 129.884 155.12 129.884 155.897 130.333H155.905Z" fill="#F6D874"/>
<path d="M160.706 127.582C161.483 128.032 161.483 128.756 160.706 129.205C159.921 129.647 158.663 129.647 157.878 129.205C157.101 128.756 157.101 128.032 157.878 127.582C158.663 127.14 159.928 127.14 160.706 127.582Z" fill="#F6D874"/>
<path d="M165.508 124.83C166.286 125.28 166.286 126.004 165.508 126.446C164.723 126.896 163.466 126.896 162.681 126.446C161.903 126.004 161.903 125.272 162.681 124.83C163.466 124.381 164.723 124.381 165.508 124.83Z" fill="#F6D874"/>
<path d="M170.302 122.079C171.088 122.521 171.088 123.253 170.302 123.695C169.525 124.144 168.26 124.144 167.482 123.695C166.705 123.253 166.697 122.521 167.482 122.079C168.26 121.629 169.525 121.629 170.302 122.079Z" fill="#F6D874"/>
<path d="M92.4303 171.011C93.2077 171.453 93.2077 172.185 92.4227 172.627C91.6453 173.077 90.38 173.077 89.6026 172.627C88.8252 172.185 88.8252 171.453 89.6026 171.011C90.3876 170.561 91.6453 170.561 92.4303 171.011Z" fill="#F6D874"/>
<path d="M97.2311 168.252C98.0086 168.694 98.0086 169.426 97.2311 169.868C96.4537 170.317 95.1885 170.317 94.4111 169.868C93.626 169.426 93.626 168.702 94.4111 168.252C95.1961 167.802 96.4537 167.802 97.2388 168.252H97.2311Z" fill="#F6D874"/>
<path d="M102.026 165.5C102.803 165.95 102.811 166.674 102.026 167.116C101.249 167.566 99.9834 167.566 99.206 167.116C98.4209 166.667 98.4209 165.943 99.206 165.493C99.9834 165.043 101.249 165.043 102.026 165.493V165.5Z" fill="#F6D874"/>
<path d="M106.819 162.749C107.596 163.191 107.604 163.923 106.819 164.372C106.034 164.822 104.769 164.822 103.991 164.372C103.214 163.923 103.214 163.199 103.991 162.749C104.776 162.299 106.042 162.299 106.819 162.749Z" fill="#F6D874"/>
<path d="M111.63 159.997C112.407 160.447 112.407 161.171 111.63 161.621C110.844 162.071 109.579 162.071 108.802 161.621C108.024 161.171 108.024 160.447 108.802 159.997C109.587 159.548 110.844 159.548 111.63 159.997Z" fill="#F6D874"/>
<path d="M116.424 157.246C117.209 157.696 117.209 158.42 116.424 158.869C115.646 159.319 114.381 159.319 113.604 158.869C112.818 158.42 112.826 157.696 113.604 157.246C114.389 156.796 115.646 156.796 116.424 157.246Z" fill="#F6D874"/>
<path d="M121.225 154.487C122.003 154.937 122.01 155.661 121.225 156.11C120.448 156.56 119.183 156.56 118.405 156.11C117.62 155.661 117.62 154.944 118.405 154.487C119.183 154.045 120.448 154.037 121.225 154.487Z" fill="#F6D874"/>
<path d="M126.018 151.735C126.796 152.185 126.796 152.909 126.018 153.359C125.241 153.809 123.976 153.809 123.19 153.359C122.413 152.909 122.413 152.185 123.19 151.735C123.968 151.293 125.233 151.293 126.011 151.735H126.018Z" fill="#F6D874"/>
<path d="M140.417 143.481C141.202 143.931 141.202 144.655 140.417 145.104C139.639 145.554 138.374 145.546 137.597 145.104C136.812 144.655 136.812 143.931 137.597 143.481C138.374 143.031 139.639 143.031 140.417 143.481Z" fill="#F6D874"/>
<path d="M145.217 140.729C145.995 141.179 146.003 141.903 145.217 142.345C144.44 142.795 143.175 142.795 142.397 142.345C141.612 141.903 141.612 141.179 142.397 140.729C143.175 140.287 144.44 140.28 145.217 140.729Z" fill="#F6D874"/>
<path d="M150.028 137.97C150.805 138.42 150.805 139.144 150.028 139.594C149.243 140.036 147.978 140.036 147.2 139.594C146.423 139.144 146.423 138.42 147.2 137.97C147.985 137.528 149.251 137.528 150.028 137.97Z" fill="#F6D874"/>
<path d="M154.821 135.219C155.598 135.669 155.598 136.393 154.821 136.842C154.036 137.284 152.771 137.284 151.993 136.842C151.216 136.393 151.216 135.669 151.993 135.227C152.778 134.777 154.036 134.777 154.821 135.227V135.219Z" fill="#F6D874"/>
<path d="M159.623 132.467C160.4 132.917 160.4 133.634 159.623 134.083C158.838 134.533 157.572 134.533 156.795 134.083C156.01 133.634 156.017 132.91 156.795 132.467C157.58 132.018 158.838 132.018 159.623 132.467Z" fill="#F6D874"/>
<path d="M164.419 129.716C165.204 130.166 165.204 130.89 164.419 131.339C163.641 131.789 162.376 131.789 161.599 131.339C160.814 130.89 160.814 130.166 161.599 129.716C162.376 129.266 163.641 129.266 164.419 129.716Z" fill="#F6D874"/>
<path d="M169.219 126.964C169.997 127.414 169.997 128.138 169.219 128.58C168.442 129.03 167.177 129.03 166.399 128.58C165.614 128.131 165.614 127.407 166.399 126.957C167.177 126.507 168.442 126.507 169.219 126.957V126.964Z" fill="#F6D874"/>
<path d="M174.022 124.205C174.8 124.647 174.8 125.379 174.022 125.829C173.237 126.278 171.972 126.278 171.194 125.829C170.417 125.379 170.417 124.655 171.194 124.205C171.979 123.756 173.237 123.756 174.022 124.205Z" fill="#F6D874"/>
<path d="M96.1413 173.138C96.9263 173.587 96.9263 174.311 96.1413 174.761C95.3562 175.211 94.0986 175.211 93.3212 174.761C92.5362 174.311 92.5362 173.587 93.3212 173.138C94.1063 172.688 95.3715 172.688 96.1489 173.138H96.1413Z" fill="#F6D874"/>
<path d="M100.943 170.386C101.72 170.836 101.72 171.56 100.943 172.009C100.158 172.459 98.9003 172.459 98.1229 172.009C97.3378 171.56 97.3302 170.836 98.1229 170.386C98.9079 169.936 100.173 169.936 100.951 170.386H100.943Z" fill="#F6D874"/>
<path d="M105.746 167.635C106.523 168.077 106.523 168.801 105.746 169.25C104.961 169.7 103.695 169.7 102.918 169.25C102.141 168.808 102.133 168.077 102.918 167.627C103.695 167.177 104.961 167.177 105.746 167.627V167.635Z" fill="#F6D874"/>
<path d="M110.547 164.883C111.325 165.325 111.325 166.057 110.547 166.499C109.762 166.949 108.497 166.949 107.72 166.499C106.935 166.057 106.935 165.325 107.72 164.883C108.497 164.433 109.762 164.433 110.547 164.883Z" fill="#F6D874"/>
<path d="M115.341 162.132C116.118 162.574 116.126 163.305 115.341 163.747C114.563 164.197 113.298 164.197 112.52 163.747C111.735 163.298 111.735 162.574 112.52 162.124C113.298 161.674 114.563 161.674 115.341 162.124V162.132Z" fill="#F6D874"/>
<path d="M120.143 159.38C120.921 159.822 120.928 160.554 120.143 161.004C119.358 161.453 118.101 161.453 117.315 161.004C116.538 160.554 116.538 159.83 117.315 159.38C118.101 158.93 119.358 158.93 120.143 159.38Z" fill="#F6D874"/>
<path d="M124.945 156.621C125.722 157.071 125.722 157.795 124.945 158.244C124.16 158.694 122.895 158.694 122.117 158.244C121.34 157.795 121.332 157.071 122.117 156.621C122.895 156.171 124.16 156.171 124.945 156.621Z" fill="#F6D874"/>
<path d="M129.747 153.87C130.524 154.319 130.524 155.043 129.747 155.493C128.962 155.943 127.696 155.943 126.919 155.493C126.134 155.043 126.134 154.319 126.919 153.87C127.696 153.42 128.962 153.42 129.747 153.87Z" fill="#F6D874"/>
<path d="M144.143 145.607C144.921 146.057 144.921 146.781 144.143 147.231C143.358 147.673 142.101 147.673 141.315 147.231C140.538 146.781 140.538 146.057 141.315 145.607C142.101 145.165 143.358 145.165 144.143 145.607Z" fill="#F6D874"/>
<path d="M148.945 142.864C149.722 143.313 149.722 144.037 148.945 144.487C148.16 144.937 146.895 144.929 146.117 144.487C145.34 144.037 145.332 143.313 146.117 142.864C146.895 142.422 148.16 142.422 148.945 142.864Z" fill="#F6D874"/>
<path d="M153.747 140.105C154.524 140.547 154.524 141.278 153.747 141.72C152.969 142.17 151.704 142.17 150.927 141.72C150.142 141.271 150.142 140.547 150.927 140.097C151.704 139.647 152.969 139.647 153.754 140.097L153.747 140.105Z" fill="#F6D874"/>
<path d="M158.542 137.353C159.327 137.795 159.327 138.527 158.542 138.969C157.764 139.419 156.499 139.419 155.722 138.969C154.937 138.519 154.937 137.795 155.722 137.345C156.507 136.896 157.772 136.896 158.549 137.345L158.542 137.353Z" fill="#F6D874"/>
<path d="M163.342 134.602C164.12 135.051 164.127 135.775 163.342 136.225C162.565 136.667 161.3 136.667 160.515 136.225C159.737 135.775 159.737 135.051 160.515 134.602C161.3 134.152 162.565 134.159 163.342 134.602Z" fill="#F6D874"/>
<path d="M168.145 131.85C168.923 132.3 168.923 133.024 168.145 133.474C167.36 133.916 166.095 133.916 165.317 133.474C164.54 133.024 164.54 132.3 165.317 131.85C166.102 131.4 167.36 131.4 168.145 131.85Z" fill="#F6D874"/>
<path d="M172.939 129.099C173.716 129.548 173.716 130.272 172.939 130.722C172.154 131.172 170.889 131.164 170.111 130.722C169.334 130.272 169.326 129.548 170.111 129.099C170.889 128.657 172.154 128.657 172.939 129.099Z" fill="#F6D874"/>
<path d="M177.741 126.34C178.526 126.789 178.526 127.513 177.741 127.955C176.963 128.405 175.698 128.405 174.921 127.955C174.136 127.506 174.136 126.782 174.921 126.332C175.698 125.882 176.963 125.882 177.741 126.332V126.34Z" fill="#F6D874"/>
<path d="M8.58203 139.312C8.75733 139.182 8.90977 139.053 9.11556 138.938C11.5927 137.49 15.6246 137.49 18.1017 138.938C18.3913 139.106 18.6428 139.297 18.8639 139.487C20.5483 138.047 20.2968 136.073 18.1017 134.792C15.6246 133.344 11.5927 133.344 9.11556 134.792C8.90977 134.906 8.75733 135.044 8.58203 135.166" fill="url(#paint3_linear_684_8384)"/>
<path d="M97.7723 180.683C96.8653 181.201 95.4019 181.201 94.5025 180.683C93.5955 180.165 93.5955 179.326 94.5025 178.801C95.4019 178.29 96.8653 178.29 97.7723 178.801C98.6793 179.319 98.6793 180.157 97.7723 180.668V180.683Z" fill="url(#paint4_linear_684_8384)"/>
<path d="M8.04958 129.228C7.14258 129.746 5.67919 129.746 4.77219 129.228C3.87281 128.71 3.87281 127.871 4.77219 127.353C5.67919 126.835 7.14258 126.835 8.04195 127.353C8.94895 127.871 8.94895 128.71 8.04958 129.228Z" fill="url(#paint5_linear_684_8384)"/>
<path d="M188.015 127.056C188.915 127.574 188.915 128.413 188.015 128.931C187.108 129.449 185.645 129.449 184.746 128.931C183.839 128.413 183.839 127.574 184.738 127.056C185.645 126.538 187.108 126.538 188.015 127.056Z" fill="url(#paint6_linear_684_8384)"/>
<path d="M98.2841 77.4759C97.3848 77.9942 95.9214 77.9942 95.0144 77.4759C94.115 76.9576 94.115 76.1192 95.0144 75.601C95.9214 75.0827 97.3848 75.0827 98.2841 75.601C99.1911 76.1192 99.1911 76.9653 98.2841 77.4759Z" fill="url(#paint7_linear_684_8384)"/>
<path d="M108.603 9.12332C108.603 9.12332 108.634 9.12332 108.649 9.10808V4.96943C108.649 4.96943 98.1463 0.480168 94.747 2.45422L0 55.9747V60.3344C0 61.6377 0.846023 62.9334 2.53807 63.9243L8.58218 67.4456C8.75748 67.316 8.90992 67.1864 9.11571 67.0721C11.5928 65.624 15.6248 65.624 18.1018 67.0721C19.0012 67.5904 19.5729 68.2306 19.8244 68.8937C20.2741 70.0827 17.4692 68.4669 17.4692 68.4669V72.6132L90.3339 115.044C93.7333 117.018 99.2743 117.018 102.658 115.044L190.454 63.9243C192.078 62.9792 192.924 61.7368 192.992 60.4945C193.015 59.9762 192.992 56.2796 192.992 56.2796C192.992 56.2796 190.706 54.4808 189.624 53.8482L117.704 14.3824C117.704 14.3824 117.673 14.3976 117.673 14.4053C115.166 15.8686 111.111 15.8686 108.603 14.4053C106.111 12.9495 106.111 10.5867 108.603 9.13095V9.12332Z" fill="url(#paint8_linear_684_8384)"/>
<path d="M108.603 4.97705C108.603 4.97705 108.634 4.97705 108.649 4.96181L102.658 1.47863C99.2743 -0.495421 93.7333 -0.495421 90.3339 1.47863L2.53807 52.5983C-0.846023 54.5723 -0.846023 57.7963 2.53807 59.7704L8.58218 63.2917C8.75748 63.1621 8.90992 63.0325 9.11571 62.9182C11.5928 61.4701 15.6248 61.4701 18.1018 62.9182C20.5942 64.3664 20.5942 66.7139 18.1018 68.1544C17.9113 68.2687 17.6826 68.3602 17.4692 68.4593L90.3339 110.89C93.7333 112.864 99.2743 112.864 102.658 110.89L190.454 59.7704C193.838 57.7963 193.838 54.5723 190.454 52.5983L117.704 10.2361C117.704 10.2361 117.673 10.2514 117.673 10.259C115.166 11.7224 111.111 11.7224 108.603 10.259C106.111 8.80321 106.111 6.44044 108.603 4.98468V4.97705ZM97.7805 109.503C96.8735 110.029 95.4177 110.029 94.5107 109.503C93.6037 108.985 93.6037 108.123 94.5107 107.597C95.4177 107.071 96.8735 107.071 97.7805 107.597C98.6875 108.123 98.6875 108.977 97.7805 109.503ZM8.04103 57.2628C7.14928 57.7887 5.67826 57.7887 4.77127 57.2628C3.86427 56.7369 3.86427 55.8833 4.77127 55.3574C5.67826 54.8314 7.14928 54.8314 8.04103 55.3574C8.94803 55.8833 8.94803 56.7369 8.04103 57.2628ZM188.023 55.0677C188.93 55.5936 188.93 56.4473 188.023 56.9656C187.116 57.4915 185.66 57.4915 184.753 56.9656C183.846 56.4397 183.846 55.586 184.753 55.0601C185.66 54.5342 187.116 54.5342 188.023 55.0601V55.0677ZM98.2835 4.71791C97.3841 5.24382 95.9207 5.24382 95.0137 4.71791C94.1067 4.19201 94.1067 3.33836 95.0137 2.81245C95.9207 2.28655 97.3841 2.28655 98.2835 2.81245C99.1905 3.33836 99.1905 4.18438 98.2835 4.71791Z" fill="url(#paint9_linear_684_8384)"/>
<path d="M18.9483 47.1715C19.8171 47.6745 19.8171 48.4977 18.9483 49.0007C18.087 49.5038 16.6769 49.5038 15.8081 49.0007C14.9468 48.4901 14.9468 47.6745 15.8081 47.1715C16.6693 46.6685 18.0794 46.6685 18.9483 47.1715Z" fill="#F6D874"/>
<path d="M23.7725 44.3667C24.6337 44.8697 24.6337 45.6929 23.7725 46.1883C22.9112 46.6913 21.5012 46.6913 20.6323 46.1883C19.771 45.6852 19.771 44.8697 20.6323 44.3667C21.4935 43.856 22.9036 43.856 23.7725 44.3667Z" fill="#F6D874"/>
<path d="M28.5984 41.5619C29.4596 42.0725 29.4596 42.8881 28.5984 43.3911C27.7295 43.8941 26.3271 43.8941 25.4582 43.3911C24.5817 42.8804 24.5817 42.0649 25.4582 41.5619C26.3194 41.0588 27.7295 41.0588 28.5984 41.5619Z" fill="#F6D874"/>
<path d="M33.4149 38.757C34.2837 39.26 34.2837 40.0832 33.4149 40.5786C32.546 41.0893 31.1436 41.0893 30.267 40.5786C29.4058 40.0756 29.4058 39.26 30.267 38.757C31.1436 38.2463 32.5384 38.254 33.4149 38.757Z" fill="#F6D874"/>
<path d="M38.2315 35.9522C39.0927 36.4552 39.1003 37.2707 38.2315 37.7814C37.3702 38.2845 35.9602 38.2845 35.0913 37.7814C34.23 37.2784 34.23 36.4552 35.0913 35.9522C35.9525 35.4491 37.3626 35.4491 38.2315 35.9522Z" fill="#F6D874"/>
<path d="M43.0479 33.1397C43.9168 33.6428 43.9168 34.4659 43.0479 34.969C42.1866 35.4796 40.7766 35.4796 39.9077 34.969C39.0464 34.4659 39.0464 33.6504 39.9077 33.1397C40.7689 32.6443 42.1866 32.6443 43.0479 33.1397Z" fill="#F6D874"/>
<path d="M47.8738 30.3349C48.735 30.8379 48.735 31.6611 47.8738 32.1641C47.0049 32.6672 45.5948 32.6672 44.7336 32.1641C43.857 31.6611 43.857 30.8379 44.7336 30.3349C45.5948 29.8242 47.0125 29.8242 47.8738 30.3349Z" fill="#F6D874"/>
<path d="M23.071 49.5648C23.9322 50.0678 23.9322 50.8909 23.071 51.3864C22.1945 51.897 20.792 51.897 19.9232 51.3864C19.0543 50.8833 19.0543 50.0678 19.9232 49.5648C20.792 49.0617 22.1945 49.0617 23.071 49.5648Z" fill="#F6D874"/>
<path d="M27.8799 46.7599C28.7488 47.263 28.7564 48.0785 27.8799 48.5815C27.0186 49.0922 25.601 49.0846 24.7397 48.5815C23.8784 48.0785 23.8784 47.2553 24.7397 46.7599C25.6086 46.2493 27.0186 46.2493 27.8799 46.7599Z" fill="#F6D874"/>
<path d="M32.6983 43.9551C33.5595 44.4581 33.5595 45.2813 32.6983 45.7843C31.837 46.2874 30.4193 46.2874 29.5581 45.7843C28.6968 45.2813 28.6968 44.4581 29.5581 43.9551C30.4193 43.4521 31.837 43.4521 32.6983 43.9551Z" fill="#F6D874"/>
<path d="M37.5223 41.1426C38.3836 41.6457 38.3836 42.4688 37.5223 42.9719C36.6611 43.4749 35.2434 43.4749 34.3821 42.9719C33.5132 42.4688 33.5132 41.6457 34.3821 41.1426C35.2434 40.6396 36.6611 40.6396 37.5223 41.1426Z" fill="#F6D874"/>
<path d="M42.3387 38.3378C43.2076 38.8485 43.2076 39.664 42.3387 40.1671C41.4698 40.6701 40.0674 40.6701 39.1909 40.1671C38.3296 39.6564 38.3296 38.8409 39.1909 38.3378C40.0674 37.8348 41.4698 37.8348 42.3387 38.3378Z" fill="#F6D874"/>
<path d="M47.1553 35.533C48.0242 36.036 48.0242 36.8592 47.1553 37.3622C46.294 37.8652 44.8764 37.8652 44.0151 37.3622C43.1538 36.8592 43.1538 36.036 44.0151 35.533C44.8764 35.0223 46.294 35.0223 47.1553 35.533Z" fill="#F6D874"/>
<path d="M51.9815 32.7281C52.8427 33.2312 52.8427 34.0543 51.9815 34.5574C51.1202 35.068 49.7025 35.068 48.8413 34.5574C47.98 34.0543 47.98 33.2388 48.8413 32.7281C49.7025 32.2251 51.1202 32.2251 51.9815 32.7281Z" fill="#F6D874"/>
<path d="M144.548 77.6283C145.417 78.139 145.417 78.9545 144.548 79.4576C143.687 79.9682 142.277 79.9682 141.408 79.4576C140.546 78.9545 140.546 78.139 141.408 77.6283C142.269 77.1253 143.687 77.1253 144.548 77.6283Z" fill="#F6D874"/>
<path d="M149.372 74.8235C150.233 75.3265 150.233 76.1421 149.372 76.6527C148.495 77.1558 147.093 77.1558 146.216 76.6527C145.355 76.1497 145.355 75.3265 146.216 74.8235C147.093 74.3205 148.488 74.3205 149.372 74.8235Z" fill="#F6D874"/>
<path d="M154.183 72.011C155.059 72.5217 155.059 73.3372 154.183 73.8403C153.314 74.3433 151.904 74.3433 151.042 73.8403C150.181 73.3372 150.181 72.5217 151.042 72.011C151.904 71.508 153.314 71.508 154.183 72.011Z" fill="#F6D874"/>
<path d="M159.007 69.2138C159.868 69.7169 159.868 70.54 159.007 71.0355C158.146 71.5461 156.728 71.5461 155.867 71.0355C155.005 70.5324 155.005 69.7093 155.867 69.2138C156.728 68.7032 158.146 68.7032 159.007 69.2138Z" fill="#F6D874"/>
<path d="M163.832 66.4014C164.693 66.9121 164.693 67.7276 163.832 68.2306C162.971 68.7337 161.553 68.7337 160.692 68.2306C159.823 67.72 159.815 66.9044 160.692 66.4014C161.553 65.8983 162.971 65.8983 163.832 66.4014Z" fill="#F6D874"/>
<path d="M168.655 63.5965C169.516 64.0996 169.516 64.9227 168.655 65.4258C167.778 65.9364 166.376 65.9288 165.499 65.4258C164.638 64.9227 164.638 64.1072 165.499 63.5965C166.376 63.0859 167.778 63.0935 168.655 63.5965Z" fill="#F6D874"/>
<path d="M173.466 60.7917C174.335 61.2948 174.342 62.1103 173.466 62.6209C172.605 63.124 171.187 63.124 170.326 62.6209C169.464 62.1103 169.464 61.2948 170.326 60.7917C171.187 60.2887 172.605 60.2887 173.466 60.7917Z" fill="#F6D874"/>
<path d="M148.655 80.0216C149.517 80.5246 149.517 81.3478 148.655 81.8508C147.794 82.3539 146.376 82.3539 145.515 81.8508C144.654 81.3478 144.654 80.5246 145.515 80.0216C146.376 79.5109 147.794 79.5186 148.655 80.0216Z" fill="#F6D874"/>
<path d="M153.48 77.2094C154.341 77.72 154.341 78.5356 153.48 79.0386C152.618 79.5416 151.201 79.5416 150.339 79.0386C149.478 78.5279 149.478 77.7124 150.339 77.2094C151.201 76.7063 152.618 76.7063 153.48 77.2094Z" fill="#F6D874"/>
<path d="M158.305 74.4043C159.167 74.9073 159.167 75.7305 158.305 76.2259C157.429 76.7366 156.026 76.7366 155.165 76.2259C154.289 75.7229 154.289 74.9073 155.165 74.4043C156.026 73.8936 157.444 73.8936 158.305 74.4043Z" fill="#F6D874"/>
<path d="M163.114 71.5994C163.991 72.1101 163.991 72.9256 163.114 73.4287C162.253 73.9317 160.843 73.9317 159.974 73.4287C159.113 72.9256 159.113 72.1025 159.974 71.5994C160.843 71.0964 162.253 71.0964 163.114 71.5994Z" fill="#F6D874"/>
<path d="M167.931 68.7946C168.792 69.2977 168.792 70.1208 167.931 70.6239C167.069 71.1345 165.652 71.1345 164.79 70.6239C163.929 70.1208 163.929 69.3053 164.79 68.7946C165.652 68.284 167.069 68.2916 167.931 68.7946Z" fill="#F6D874"/>
<path d="M172.756 65.9898C173.617 66.4928 173.617 67.3084 172.756 67.819C171.895 68.3221 170.477 68.3221 169.616 67.819C168.754 67.3084 168.747 66.4928 169.616 65.9898C170.477 65.4868 171.895 65.4868 172.756 65.9898Z" fill="#F6D874"/>
<path d="M177.581 63.185C178.442 63.688 178.442 64.5112 177.581 65.0142C176.704 65.5249 175.309 65.5249 174.433 65.0142C173.564 64.5112 173.564 63.688 174.433 63.185C175.302 62.6819 176.704 62.6819 177.581 63.185Z" fill="#F6D874"/>
<path d="M112.232 19.9768L102.354 14.23C99.13 12.355 93.8557 12.355 90.6317 14.23L22.0352 51.9809C22.0352 51.9809 22.0352 54.9382 22.0352 56.1653C22.0276 57.4076 22.8355 58.65 24.4513 59.5951L33.0106 64.5645C33.0106 64.5645 33.0106 66.9425 33.0106 67.8038C33.0106 68.9166 33.7271 70.0218 35.1829 70.8678L71.2799 91.8812C73.856 93.3751 77.8727 93.5427 80.7843 92.3766L90.6469 98.1235C93.871 99.9984 99.1453 99.9984 102.369 98.1235L168.55 59.5875C170.287 58.5738 170.951 57.2247 170.951 55.8833C170.951 53.9244 170.935 51.6684 170.935 51.6684L158.687 47.0191C160.684 45.327 160.402 42.9871 157.826 41.4856L121.729 20.4722C119.153 18.9784 115.136 18.8107 112.24 19.9692L112.232 19.9768Z" fill="url(#paint10_linear_684_8384)"/>
<path d="M112.232 15.8305L102.354 10.0837C99.1299 8.20872 93.8556 8.20872 90.6316 10.0837L24.4512 48.6273C21.2272 50.5023 21.2272 53.5739 24.4512 55.4488L34.3139 61.1957C32.3246 62.8877 32.599 65.2276 35.1751 66.7291L71.2721 87.7425C73.8483 89.2364 77.865 89.4041 80.7766 88.2379L90.6392 93.9848C93.8632 95.8598 99.1376 95.8598 102.362 93.9848L168.542 55.4488C171.766 53.5739 171.766 50.5023 168.542 48.6273L158.679 42.8804C160.676 41.1884 160.394 38.8485 157.818 37.347L121.721 16.3336C119.145 14.8397 115.128 14.672 112.232 15.8305Z" fill="url(#paint11_linear_684_8384)"/>
<path d="M158.535 42.5451C159.061 42.8499 161.644 48.4825 161.942 48.8559C163.039 50.2202 162.628 51.897 160.707 53.0174L98.1774 89.4269C95.7308 90.8522 91.7141 90.8522 89.2675 89.4269L32.2943 56.2491C30.5108 55.2125 30.023 53.6958 30.8309 52.4001C31.1358 51.9123 33.7349 46.1654 34.4132 45.7767L94.8086 14.6568C97.2704 13.2315 101.272 13.2315 103.719 14.6568L158.535 42.5451Z" fill="url(#paint12_linear_684_8384)"/>
<path d="M157.498 41.821C159.823 43.1777 159.823 45.3956 157.498 46.7523L98.0936 81.3402C95.7689 82.6969 91.9504 82.6969 89.6257 81.3402L35.5031 49.8239C33.1708 48.4672 33.1708 46.2493 35.5031 44.8926L94.9 10.3047C97.2399 8.94803 101.043 8.94803 103.368 10.3047L157.506 41.8134L157.498 41.821Z" fill="url(#paint13_linear_684_8384)"/>
<path d="M8.58203 67.4379C8.75733 67.3084 8.90977 67.1788 9.11556 67.0645C11.5927 65.6163 15.6246 65.6163 18.1017 67.0645C18.3913 67.2322 18.6428 67.4227 18.8639 67.6132C20.5483 66.1727 20.2968 64.1987 18.1017 62.9182C15.6246 61.4701 11.5927 61.4701 9.11556 62.9182C8.90977 63.0325 8.75733 63.1697 8.58203 63.2917" fill="url(#paint14_linear_684_8384)"/>
<path d="M97.7723 109.51C96.8653 110.036 95.4095 110.036 94.5025 109.51C93.5955 108.992 93.5955 108.131 94.5025 107.605C95.4095 107.079 96.8653 107.079 97.7723 107.605C98.6793 108.131 98.6793 108.985 97.7723 109.51Z" fill="url(#paint15_linear_684_8384)"/>
<path d="M8.04181 57.2628C7.15006 57.7887 5.67904 57.7887 4.77205 57.2628C3.86505 56.7369 3.86505 55.8833 4.77205 55.3574C5.67904 54.8314 7.15006 54.8314 8.04181 55.3574C8.94881 55.8833 8.94881 56.7369 8.04181 57.2628Z" fill="url(#paint16_linear_684_8384)"/>
<path d="M188.014 55.0677C188.921 55.5936 188.921 56.4473 188.014 56.9656C187.107 57.4915 185.652 57.4915 184.745 56.9656C183.838 56.4397 183.838 55.586 184.745 55.0601C185.652 54.5342 187.107 54.5342 188.014 55.0601V55.0677Z" fill="url(#paint17_linear_684_8384)"/>
<path d="M98.284 4.71792C97.3846 5.24382 95.9212 5.24382 95.0142 4.71792C94.1072 4.19201 94.1072 3.33837 95.0142 2.81246C95.9212 2.28655 97.3846 2.28655 98.284 2.81246C99.191 3.33837 99.191 4.18439 98.284 4.71792Z" fill="url(#paint18_linear_684_8384)"/>
<g opacity="0.05">
<path d="M80.9678 180.843V180.424L75.8535 177.871" fill="#D3D3D3"/>
<path d="M80.9678 180.424L75.8535 177.444L80.9678 180.424Z" fill="#F8F8F8"/>
<path d="M62.4619 170.028V169.609L57.3477 167.055" fill="#D3D3D3"/>
<path d="M62.4619 169.609L57.3477 166.628L62.4619 169.609Z" fill="#F8F8F8"/>
<path d="M43.9482 159.212V158.793L38.834 156.24" fill="#D3D3D3"/>
<path d="M43.9482 158.793L38.834 155.813L43.9482 158.793Z" fill="#F8F8F8"/>
<path d="M25.4424 148.397V147.978L20.3281 145.425" fill="#D3D3D3"/>
<path d="M25.4424 147.978L20.3281 144.998L25.4424 147.978Z" fill="#F8F8F8"/>
</g>
<g opacity="0.05">
<path d="M117.04 177.871L111.926 180.424V180.843" fill="#D3D3D3"/>
<path d="M117.04 177.444L111.926 180.424L117.04 177.444Z" fill="#F8F8F8"/>
<path d="M135.554 167.048L130.439 169.601V170.02" fill="#D3D3D3"/>
<path d="M135.554 166.628L130.439 169.609L135.554 166.628Z" fill="#F8F8F8"/>
<path d="M154.06 156.232L148.945 158.786V159.205" fill="#D3D3D3"/>
<path d="M154.06 155.813L148.945 158.793L154.06 155.813Z" fill="#F8F8F8"/>
<path d="M172.573 145.417L167.459 147.97V148.389" fill="#D3D3D3"/>
<path d="M172.573 144.998L167.459 147.978L172.573 144.998Z" fill="#F8F8F8"/>
<path d="M191.079 134.602L185.965 137.155V137.574" fill="#D3D3D3"/>
<path d="M191.079 134.182L185.965 137.162L191.079 134.182Z" fill="#F8F8F8"/>
</g>
<path d="M88.1762 49.1684L88.9842 48.7035L93.1533 51.112C93.664 51.4092 93.8621 51.737 93.8621 52.0571C93.8621 52.3925 93.7783 52.6135 93.2676 52.9031C93.0161 53.0479 92.7722 53.147 92.4902 53.2232C92.2234 53.2918 91.9719 53.3071 91.6823 53.3071C91.3927 53.3071 91.1488 53.2537 90.9049 53.1851C90.6228 53.1165 90.4247 52.9793 90.1655 52.8345L78.649 46.173C78.3898 46.0282 78.1383 45.8987 78.0392 45.7462C77.902 45.5938 77.8182 45.449 77.8105 45.2889C77.8258 45.1289 77.8563 44.984 77.9782 44.8316C78.1078 44.6715 78.2602 44.5191 78.5194 44.3743C79.03 44.0847 79.4111 44.0313 79.9904 44.0313C80.5544 44.0466 81.126 44.1609 81.6367 44.4505L85.7906 46.8514L84.9827 47.3163L80.8288 44.9154C80.5925 44.7783 80.341 44.6868 80.0666 44.6792C79.777 44.6563 79.5255 44.6944 79.2892 44.8316C79.0529 44.9688 78.9996 45.106 79.0529 45.266C79.0758 45.4261 79.2435 45.5557 79.4797 45.6929L90.9811 52.3467C91.2174 52.4839 91.4536 52.583 91.7433 52.6059C92.0176 52.6364 92.2387 52.5983 92.475 52.4611C92.7112 52.3239 92.7951 52.1943 92.757 52.019C92.7188 51.8437 92.5664 51.7065 92.3301 51.5693L88.1762 49.1684Z" fill="#B3B3B3"/>
<path d="M87.8866 39.1228C88.4125 38.818 88.8851 38.7113 89.4643 38.7189C90.0055 38.7189 90.5695 38.8637 91.0801 39.161L95.8133 41.8972C96.324 42.1944 96.5526 42.5069 96.5755 42.8271C96.5755 43.1624 96.3926 43.4368 95.8743 43.7417L95.2569 44.0999L101.896 47.9413L101.103 48.3986L86.4766 39.9384L87.8866 39.1228ZM90.2722 39.6259C90.0131 39.4811 89.7387 39.4048 89.4796 39.3896C89.1899 39.3667 88.8927 39.4506 88.6564 39.5725L88.039 39.9308L94.3499 43.5816L94.9673 43.2234C95.1731 43.0862 95.3179 42.9185 95.2798 42.7508C95.2417 42.606 95.1197 42.4383 94.8682 42.2935L90.2799 39.6411L90.2722 39.6259Z" fill="#B3B3B3"/>
<path d="M97.9242 33.2921L98.7321 32.8272L111.819 40.3957C112.329 40.6929 112.528 41.0207 112.528 41.3408C112.528 41.6762 112.444 41.8972 111.933 42.1868C111.682 42.3316 111.438 42.4307 111.156 42.5069C110.889 42.5755 110.637 42.5908 110.355 42.5908C110.066 42.5908 109.822 42.5374 109.578 42.4688C109.296 42.4002 109.09 42.263 108.839 42.1106L95.752 34.5421L96.5751 34.0696L109.647 41.6304C109.883 41.7676 110.119 41.8667 110.409 41.8896C110.683 41.9201 110.897 41.8819 111.14 41.7448C111.377 41.6076 111.461 41.478 111.422 41.3027C111.384 41.135 111.232 40.9902 110.996 40.853L97.9242 33.2921Z" fill="#B3B3B3"/>
</g>
<defs>
<linearGradient id="paint0_linear_684_8384" x1="0" y1="130.913" x2="192.992" y2="130.913" gradientUnits="userSpaceOnUse">
<stop offset="0.42" stop-color="#45804C"/>
<stop offset="0.69" stop-color="#2A4D2E"/>
</linearGradient>
<linearGradient id="paint1_linear_684_8384" x1="0" y1="128.169" x2="192.992" y2="128.169" gradientUnits="userSpaceOnUse">
<stop stop-color="#61B36A"/>
<stop offset="1" stop-color="#45804C"/>
</linearGradient>
<linearGradient id="paint2_linear_684_8384" x1="59.2832" y1="128.161" x2="133.703" y2="128.161" gradientUnits="userSpaceOnUse">
<stop stop-color="#46804C"/>
<stop offset="1" stop-color="#2A4D2E"/>
</linearGradient>
<linearGradient id="paint3_linear_684_8384" x1="8.58203" y1="136.598" x2="19.969" y2="136.598" gradientUnits="userSpaceOnUse">
<stop stop-color="#2A4D2E"/>
<stop offset="1" stop-color="#45804C"/>
</linearGradient>
<linearGradient id="paint4_linear_684_8384" x1="93.8242" y1="179.753" x2="98.4582" y2="179.753" gradientUnits="userSpaceOnUse">
<stop stop-color="#2A4D2E"/>
<stop offset="1" stop-color="#45804C"/>
</linearGradient>
<linearGradient id="paint5_linear_684_8384" x1="4.09385" y1="128.291" x2="8.7203" y2="128.291" gradientUnits="userSpaceOnUse">
<stop stop-color="#2A4D2E"/>
<stop offset="1" stop-color="#45804C"/>
</linearGradient>
<linearGradient id="paint6_linear_684_8384" x1="184.067" y1="127.993" x2="188.694" y2="127.993" gradientUnits="userSpaceOnUse">
<stop stop-color="#2A4D2E"/>
<stop offset="1" stop-color="#45804C"/>
</linearGradient>
<linearGradient id="paint7_linear_684_8384" x1="94.336" y1="76.5384" x2="98.9625" y2="76.5384" gradientUnits="userSpaceOnUse">
<stop stop-color="#2A4D2E"/>
<stop offset="1" stop-color="#45804C"/>
</linearGradient>
<linearGradient id="paint8_linear_684_8384" x1="0" y1="59.2292" x2="193" y2="59.2292" gradientUnits="userSpaceOnUse">
<stop offset="0.42" stop-color="#45804C"/>
<stop offset="0.69" stop-color="#2A4D2E"/>
</linearGradient>
<linearGradient id="paint9_linear_684_8384" x1="0" y1="56.1881" x2="0.762183" y2="56.1881" gradientUnits="userSpaceOnUse">
<stop stop-color="#61B36A"/>
<stop offset="1" stop-color="#45804C"/>
</linearGradient>
<linearGradient id="paint10_linear_684_8384" x1="22.0352" y1="56.1805" x2="170.943" y2="56.1805" gradientUnits="userSpaceOnUse">
<stop offset="0.22" stop-color="white"/>
<stop offset="0.26" stop-color="#FCFCFC"/>
<stop offset="0.3" stop-color="#F2F2F2"/>
<stop offset="0.33" stop-color="#E3E3E3"/>
<stop offset="0.35" stop-color="#CCCCCC"/>
<stop offset="0.36" stop-color="#CCCCCC"/>
<stop offset="0.37" stop-color="#CECECE"/>
<stop offset="0.38" stop-color="#D7D7D7"/>
<stop offset="0.39" stop-color="#E6E6E6"/>
<stop offset="0.4" stop-color="white"/>
<stop offset="0.5" stop-color="white"/>
<stop offset="0.52" stop-color="#F3F3F3"/>
<stop offset="0.55" stop-color="#E1E1E1"/>
<stop offset="0.59" stop-color="#D5D5D5"/>
<stop offset="0.64" stop-color="#CECECE"/>
<stop offset="0.77" stop-color="#CCCCCC"/>
</linearGradient>
<linearGradient id="paint11_linear_684_8384" x1="22.0351" y1="52.0419" x2="170.958" y2="52.0419" gradientUnits="userSpaceOnUse">
<stop stop-color="#CCCCCC"/>
<stop offset="1" stop-color="white"/>
</linearGradient>
<linearGradient id="paint12_linear_684_8384" x1="30.4499" y1="52.0419" x2="162.544" y2="52.0419" gradientUnits="userSpaceOnUse">
<stop offset="0.44" stop-color="white"/>
<stop offset="0.6" stop-color="#CCCCCC"/>
</linearGradient>
<linearGradient id="paint13_linear_684_8384" x1="33.7501" y1="45.8224" x2="159.236" y2="45.8224" gradientUnits="userSpaceOnUse">
<stop stop-color="#CCCCCC"/>
<stop offset="1" stop-color="white"/>
</linearGradient>
<linearGradient id="paint14_linear_684_8384" x1="-0.000149993" y1="64.717" x2="0.762033" y2="64.717" gradientUnits="userSpaceOnUse">
<stop stop-color="#2A4D2E"/>
<stop offset="1" stop-color="#45804C"/>
</linearGradient>
<linearGradient id="paint15_linear_684_8384" x1="93.8242" y1="108.558" x2="98.4582" y2="108.558" gradientUnits="userSpaceOnUse">
<stop stop-color="#2A4D2E"/>
<stop offset="1" stop-color="#45804C"/>
</linearGradient>
<linearGradient id="paint16_linear_684_8384" x1="4.0937" y1="56.3101" x2="8.72015" y2="56.3101" gradientUnits="userSpaceOnUse">
<stop stop-color="#2A4D2E"/>
<stop offset="1" stop-color="#45804C"/>
</linearGradient>
<linearGradient id="paint17_linear_684_8384" x1="184.066" y1="56.0128" x2="188.7" y2="56.0128" gradientUnits="userSpaceOnUse">
<stop stop-color="#2A4D2E"/>
<stop offset="1" stop-color="#45804C"/>
</linearGradient>
<linearGradient id="paint18_linear_684_8384" x1="94.3283" y1="3.77281" x2="98.9623" y2="3.77281" gradientUnits="userSpaceOnUse">
<stop stop-color="#2A4D2E"/>
<stop offset="1" stop-color="#45804C"/>
</linearGradient>
<clipPath id="clip0_684_8384">
<rect width="193" height="187.649" fill="white"/>
</clipPath>
</defs>
</svg>
