<svg width="319" height="254" viewBox="0 0 319 254" fill="none" xmlns="http://www.w3.org/2000/svg">
<g clip-path="url(#clip0_682_997)">
<path d="M196.978 237.384V213.382H124.425V237.384C124.425 237.384 124.563 248.038 111.467 248.038H209.929C196.833 248.038 196.97 237.384 196.97 237.384H196.978Z" fill="#6DB6CC"/>
<path d="M213.591 248.03H107.813C106.393 248.03 105.242 249.181 105.242 250.601V251.094C105.242 252.514 106.393 253.665 107.813 253.665H213.591C215.011 253.665 216.162 252.514 216.162 251.094V250.601C216.162 249.181 215.011 248.03 213.591 248.03Z" fill="#A0DFF2"/>
<path d="M124.426 234.029V213.382H196.979V221.668L124.426 234.029Z" fill="#58A5B7"/>
<path d="M269.554 72.9082H51.8463C47.1138 72.9082 43.2773 76.7447 43.2773 81.4772V210.812C43.2773 215.544 47.1138 219.381 51.8463 219.381H269.554C274.287 219.381 278.123 215.544 278.123 210.812V81.4772C278.123 76.7447 274.287 72.9082 269.554 72.9082Z" fill="#004275"/>
<path d="M270.751 80.2485H50.6582V177.191H270.751V80.2485Z" fill="#F8E4B2"/>
<path d="M43.2773 184.895V210.804C43.2773 215.517 47.1334 219.373 51.8463 219.373H269.554C274.267 219.373 278.123 215.517 278.123 210.804V184.895H43.2773Z" fill="#83C2DB"/>
<path d="M127.795 84.8968V170.32C127.795 171.467 127.698 172.664 127.795 173.804C127.795 173.852 127.795 173.909 127.795 173.957C127.795 174.669 128.903 174.669 128.903 173.957V88.5346C128.903 87.3866 129 86.1902 128.903 85.0504C128.903 85.0019 128.903 84.9453 128.903 84.8968C128.903 84.1854 127.795 84.1854 127.795 84.8968Z" fill="#EFD9A5"/>
<path d="M190.729 84.8968V170.32C190.729 171.467 190.632 172.664 190.729 173.804C190.729 173.852 190.729 173.909 190.729 173.957C190.729 174.669 191.836 174.669 191.836 173.957V88.5346C191.836 87.3866 191.933 86.1902 191.836 85.0504C191.836 85.0019 191.836 84.9453 191.836 84.8968C191.836 84.1854 190.729 84.1854 190.729 84.8968Z" fill="#EFD9A5"/>
<path d="M139.736 121.606C139.736 132.228 148.354 140.846 158.976 140.846C169.598 140.846 178.216 132.228 178.216 121.606C178.216 110.984 169.598 102.366 158.976 102.366C148.354 102.366 139.736 110.984 139.736 121.606ZM170.819 121.606C170.819 128.146 165.516 133.449 158.976 133.449C152.436 133.449 147.133 128.146 147.133 121.606C147.133 115.066 152.436 109.763 158.976 109.763C165.516 109.763 170.819 115.066 170.819 121.606Z" fill="#0082C3"/>
<path d="M158.976 109.771C165.516 109.771 170.819 115.074 170.819 121.614H178.216C178.216 110.991 169.598 102.374 158.976 102.374C148.354 102.374 139.736 110.991 139.736 121.614H147.133C147.133 115.074 152.436 109.771 158.976 109.771Z" fill="#FF9A78"/>
<path d="M158.976 102.366C154.271 102.366 149.954 104.064 146.615 106.869L151.369 112.536C153.43 110.806 156.082 109.763 158.976 109.763C165.515 109.763 170.818 115.066 170.818 121.606H178.215C178.215 110.984 169.598 102.366 158.976 102.366Z" fill="#FF6666"/>
<path d="M169.396 115.987C170.302 117.661 170.819 119.577 170.819 121.614H178.216C178.216 118.308 177.383 115.195 175.912 112.479L169.396 115.996V115.987Z" fill="#004275"/>
<path d="M179.516 147.661H138.426V150.021H179.516V147.661Z" fill="white"/>
<path d="M154.683 147.661H138.426V150.021H154.683V147.661Z" fill="#FF9A78"/>
<path d="M179.516 154.516H138.426V156.876H179.516V154.516Z" fill="white"/>
<path d="M164.739 154.516H138.426V156.876H164.739V154.516Z" fill="#FF6666"/>
<path d="M179.516 161.379H138.426V163.739H179.516V161.379Z" fill="white"/>
<path d="M148.377 161.379H138.426V163.739H148.377V161.379Z" fill="#004275"/>
<path d="M179.516 168.234H138.426V170.595H179.516V168.234Z" fill="white"/>
<path d="M173.332 168.234H138.426V170.595H173.332V168.234Z" fill="#0082C3"/>
<path d="M158.975 86.4485H138.426V88.2755H158.975V86.4485Z" fill="white"/>
<path d="M180.551 90.8784H138.426V93.344H180.551V90.8784Z" fill="#E5C78C"/>
<path d="M170.099 95.3085H138.426V97.7741H170.099V95.3085Z" fill="#E5C78C"/>
<path d="M90.4871 109.618H57.1328V84.4928H58.5556V108.195H90.4871V109.618Z" fill="white"/>
<path d="M65.0723 97.0549H60.998V106.359H65.0723V97.0549Z" fill="#FF9A78"/>
<path d="M72.1778 92.8513H68.1035V106.36H72.1778V92.8513Z" fill="#FF6666"/>
<path d="M79.293 101.711H75.2188V106.367H79.293V101.711Z" fill="#004275"/>
<path d="M86.4063 87.7504H82.332V106.36H86.4063V87.7504Z" fill="#0082C3"/>
<path d="M106.817 85.5678H95.168V87.3947H106.817V85.5678Z" fill="white"/>
<path d="M119.048 89.9974H95.168V92.463H119.048V89.9974Z" fill="#E5C78C"/>
<path d="M119.048 94.4275H95.168V96.8931H119.048V94.4275Z" fill="#E5C78C"/>
<path d="M113.664 98.8499H95.168V101.316H113.664V98.8499Z" fill="#E5C78C"/>
<path d="M62.1456 118.704C62.1456 120.11 61.0058 121.25 59.5992 121.25C58.1926 121.25 57.0527 120.11 57.0527 118.704C57.0527 117.297 58.1926 116.157 59.5992 116.157C61.0058 116.157 62.1456 117.297 62.1456 118.704Z" fill="#FF9A78"/>
<path d="M77.1177 116.156H65.4688V117.983H77.1177V116.156Z" fill="white"/>
<path d="M118.16 119.835H65.4688V122.3H118.16V119.835Z" fill="#E5C78C"/>
<path d="M105.242 124.265H65.4688V126.73H105.242V124.265Z" fill="#E5C78C"/>
<path d="M62.1456 133.756C62.1456 135.162 61.0058 136.302 59.5992 136.302C58.1926 136.302 57.0527 135.162 57.0527 133.756C57.0527 132.349 58.1926 131.209 59.5992 131.209C61.0058 131.209 62.1456 132.349 62.1456 133.756Z" fill="#FF6666"/>
<path d="M77.1157 131.21H65.4668V133.037H77.1157V131.21Z" fill="white"/>
<path d="M118.158 134.896H65.4668V137.362H118.158V134.896Z" fill="#E5C78C"/>
<path d="M105.24 139.326H65.4668V141.792H105.24V139.326Z" fill="#E5C78C"/>
<path d="M62.1456 148.816C62.1456 150.222 61.0058 151.362 59.5992 151.362C58.1926 151.362 57.0527 150.222 57.0527 148.816C57.0527 147.409 58.1926 146.269 59.5992 146.269C61.0058 146.269 62.1456 147.409 62.1456 148.816Z" fill="#004275"/>
<path d="M77.1157 146.27H65.4668V148.097H77.1157V146.27Z" fill="white"/>
<path d="M118.158 149.948H65.4668V152.414H118.158V149.948Z" fill="#E5C78C"/>
<path d="M105.24 154.378H65.4668V156.844H105.24V154.378Z" fill="#E5C78C"/>
<path d="M62.1456 163.877C62.1456 165.283 61.0058 166.423 59.5992 166.423C58.1926 166.423 57.0527 165.283 57.0527 163.877C57.0527 162.47 58.1926 161.33 59.5992 161.33C61.0058 161.33 62.1456 162.47 62.1456 163.877Z" fill="#0082C3"/>
<path d="M77.1157 161.322H65.4668V163.149H77.1157V161.322Z" fill="white"/>
<path d="M118.158 165.009H65.4668V167.474H118.158V165.009Z" fill="#E5C78C"/>
<path d="M105.24 169.439H65.4668V171.904H105.24V169.439Z" fill="#E5C78C"/>
<path d="M263.735 116.294H198.207V86.2627H199.913V114.597H263.735V116.294Z" fill="white"/>
<path d="M263.735 89.6902H199.912V92.7863H263.735V89.6902Z" fill="white"/>
<path d="M258.116 89.6902H199.912V92.7863H258.116V89.6902Z" fill="#0082C3"/>
<path d="M263.735 95.891H199.912V98.9871H263.735V95.891Z" fill="white"/>
<path d="M216.015 95.891H199.912V98.9871H216.015V95.891Z" fill="#004275"/>
<path d="M263.735 102.083H199.912V105.179H263.735V102.083Z" fill="white"/>
<path d="M245.982 102.083H199.912V105.179H245.982V102.083Z" fill="#FF6666"/>
<path d="M263.735 108.283H199.912V111.38H263.735V108.283Z" fill="white"/>
<path d="M225.724 108.283H199.912V111.38H225.724V108.283Z" fill="#FF9A78"/>
<path d="M263.735 122.592H198.207V125.057H263.735V122.592Z" fill="#E5C78C"/>
<path d="M247.673 127.013H198.207V129.479H247.673V127.013Z" fill="#E5C78C"/>
<path d="M211.691 145.48C212.299 141.536 209.594 137.845 205.649 137.237C201.704 136.629 198.013 139.334 197.405 143.279C196.797 147.224 199.503 150.915 203.447 151.523C207.392 152.13 211.083 149.425 211.691 145.48Z" fill="white"/>
<path d="M211.075 141.29C209.919 138.841 207.437 137.143 204.551 137.143V144.37L211.075 141.29Z" fill="#FF9A78"/>
<path d="M229.187 145.525C229.828 141.585 227.153 137.872 223.214 137.231C219.274 136.59 215.561 139.264 214.92 143.204C214.279 147.143 216.953 150.856 220.893 151.497C224.833 152.138 228.546 149.464 229.187 145.525Z" fill="white"/>
<path d="M228.608 147.443C229.045 146.513 229.295 145.47 229.295 144.379C229.295 140.386 226.062 137.152 222.068 137.152V144.379L228.6 147.443H228.608Z" fill="#FF6666"/>
<path d="M246.694 145.781C247.466 141.865 244.917 138.065 241.001 137.293C237.085 136.521 233.285 139.07 232.513 142.986C231.741 146.902 234.29 150.703 238.206 151.474C242.122 152.246 245.922 149.697 246.694 145.781Z" fill="white"/>
<path d="M243.411 138.243C242.304 137.555 241.002 137.143 239.596 137.143V144.37L243.411 138.243Z" fill="#004275"/>
<path d="M262.233 149.48C265.056 146.658 265.056 142.082 262.233 139.26C259.411 136.438 254.835 136.438 252.013 139.26C249.19 142.082 249.19 146.658 252.013 149.48C254.835 152.303 259.411 152.303 262.233 149.48Z" fill="white"/>
<path d="M264.348 144.37C264.348 140.376 261.115 137.143 257.121 137.143V151.597C261.115 151.597 264.348 148.363 264.348 144.37Z" fill="#0082C3"/>
<path d="M217.874 158.946H197.324V160.773H217.874V158.946Z" fill="white"/>
<path d="M263.734 163.375H197.324V165.841H263.734V163.375Z" fill="#E5C78C"/>
<path d="M247.259 167.805H197.324V170.271H247.259V167.805Z" fill="#E5C78C"/>
<path opacity="0.05" d="M50.6582 177.191L270.743 80.2486V177.191H50.6582Z" fill="#004275"/>
<path d="M107.926 253.964H17.1113V155.712L34.2897 138.485H107.926V253.964Z" fill="white"/>
<path d="M34.2905 138.485L17.0879 155.688H34.2905V138.485Z" fill="#EFEAE1"/>
<path d="M95.2665 196.632H29.7383V166.601H31.444V194.927H95.2665V196.632Z" fill="#EFEAE1"/>
<path d="M95.2659 170.02H31.4434V173.116H95.2659V170.02Z" fill="#EFEAE1"/>
<path d="M89.6476 170.02H31.4434V173.116H89.6476V170.02Z" fill="#0082C3"/>
<path d="M95.2659 176.22H31.4434V179.316H95.2659V176.22Z" fill="#EFEAE1"/>
<path d="M47.5465 176.22H31.4434V179.316H47.5465V176.22Z" fill="#004275"/>
<path d="M95.2659 182.42H31.4434V185.516H95.2659V182.42Z" fill="#EFEAE1"/>
<path d="M77.5136 182.42H31.4434V185.516H77.5136V182.42Z" fill="#FF6666"/>
<path d="M95.2659 188.621H31.4434V191.717H95.2659V188.621Z" fill="#EFEAE1"/>
<path d="M57.2553 188.621H31.4434V191.717H57.2553V188.621Z" fill="#FF9A78"/>
<path d="M59.0354 147.563H40.2969V149.39H59.0354V147.563Z" fill="#E5C78C"/>
<path d="M91.2417 151.993H40.2969V154.458H91.2417V151.993Z" fill="#EFEAE1"/>
<path d="M78.6066 156.423H40.2969V158.889H78.6066V156.423Z" fill="#EFEAE1"/>
<path d="M30.9744 208.661C26.9001 208.661 23.5938 211.967 23.5938 216.041C23.5938 220.116 26.9001 223.422 30.9744 223.422C35.0487 223.422 38.355 220.116 38.355 216.041C38.355 211.967 35.0487 208.661 30.9744 208.661ZM30.9744 221.878C27.7489 221.878 25.1378 219.267 25.1378 216.041C25.1378 212.816 27.7489 210.205 30.9744 210.205C34.1998 210.205 36.811 212.816 36.811 216.041C36.811 219.267 34.1998 221.878 30.9744 221.878Z" fill="#EFEAE1"/>
<path d="M36.1241 213.301L37.4902 212.573C36.2453 210.245 33.7959 208.661 30.9746 208.661V210.205C33.2058 210.205 35.1459 211.458 36.1241 213.301Z" fill="#FF9A78"/>
<path d="M39.132 226.171H22.8105V227.998H39.132V226.171Z" fill="#E5C78C"/>
<path d="M39.132 230.601H22.8105V233.067H39.132V230.601Z" fill="#EFEAE1"/>
<path d="M22.8105 235.031V237.496H35.09H39.1401V235.031H35.09H22.8105Z" fill="#EFEAE1"/>
<path d="M35.09 239.461H22.8105V239.687V241.926V242.161H39.1401V239.687H35.09V239.461Z" fill="#EFEAE1"/>
<path d="M35.0819 244.117H22.8105V246.583H35.0819V244.117Z" fill="#EFEAE1"/>
<path d="M51.9939 208.661C47.9196 208.661 44.6133 211.967 44.6133 216.041C44.6133 220.116 47.9196 223.422 51.9939 223.422C56.0682 223.422 59.3745 220.116 59.3745 216.041C59.3745 211.967 56.0682 208.661 51.9939 208.661ZM51.9939 221.878C48.7684 221.878 46.1573 219.267 46.1573 216.041C46.1573 212.816 48.7684 210.205 51.9939 210.205C55.2194 210.205 57.8305 212.816 57.8305 216.041C57.8305 219.267 55.2194 221.878 51.9939 221.878Z" fill="#EFEAE1"/>
<path d="M51.9941 208.661V210.205C55.2196 210.205 57.8307 212.816 57.8307 216.041H59.3748C59.3748 211.967 56.0684 208.661 51.9941 208.661Z" fill="#FF6666"/>
<path d="M60.1515 226.171H43.8301V227.998H60.1515V226.171Z" fill="#E5C78C"/>
<path d="M60.1515 230.6H43.8301V233.066H60.1515V230.6Z" fill="#EFEAE1"/>
<path d="M43.8301 235.03V237.495H56.1096H60.1596V235.03H56.1096H43.8301Z" fill="#EFEAE1"/>
<path d="M56.1096 239.46H43.8301V239.686V241.926V242.16H60.1596V239.686H56.1096V239.46Z" fill="#EFEAE1"/>
<path d="M56.1015 244.116H43.8301V246.582H56.1015V244.116Z" fill="#EFEAE1"/>
<path d="M73.0115 208.661C68.9372 208.661 65.6309 211.967 65.6309 216.041C65.6309 220.116 68.9372 223.422 73.0115 223.422C77.0858 223.422 80.3921 220.116 80.3921 216.041C80.3921 211.967 77.0858 208.661 73.0115 208.661ZM73.0115 221.878C69.786 221.878 67.1749 219.267 67.1749 216.041C67.1749 212.816 69.786 210.205 73.0115 210.205C76.237 210.205 78.8481 212.816 78.8481 216.041C78.8481 219.267 76.237 221.878 73.0115 221.878Z" fill="#EFEAE1"/>
<path d="M76.3504 211.256L77.2315 209.986C76.0351 209.154 74.58 208.661 73.0117 208.661V210.205C74.2566 210.205 75.4046 210.593 76.3504 211.256Z" fill="#004275"/>
<path d="M81.1671 226.17H64.8457V227.997H81.1671V226.17Z" fill="#E5C78C"/>
<path d="M81.1671 230.6H64.8457V233.065H81.1671V230.6Z" fill="#EFEAE1"/>
<path d="M64.8457 235.03V237.495H77.1252H81.1752V235.03H77.1252H64.8457Z" fill="#EFEAE1"/>
<path d="M77.1252 239.46H64.8457V239.686V241.926V242.16H81.1752V239.686H77.1252V239.46Z" fill="#EFEAE1"/>
<path d="M77.1171 244.116H64.8457V246.582H77.1171V244.116Z" fill="#EFEAE1"/>
<path d="M94.0291 208.661C89.9548 208.661 86.6484 211.967 86.6484 216.041C86.6484 220.116 89.9548 223.422 94.0291 223.422C98.1033 223.422 101.41 220.116 101.41 216.041C101.41 211.967 98.1033 208.661 94.0291 208.661ZM94.0291 221.878C90.8036 221.878 88.1925 219.267 88.1925 216.041C88.1925 212.816 90.8036 210.205 94.0291 210.205C97.2545 210.205 99.8656 212.816 99.8656 216.041C99.8656 219.267 97.2545 221.878 94.0291 221.878Z" fill="#EFEAE1"/>
<path d="M94.0292 208.661C94.0292 208.661 93.9888 208.661 93.9727 208.661V210.205C93.9727 210.205 94.0131 210.205 94.0292 210.205C97.2547 210.205 99.8658 212.816 99.8658 216.041C99.8658 219.267 97.2547 221.878 94.0292 221.878C94.0131 221.878 93.9888 221.878 93.9727 221.878V223.422C93.9727 223.422 94.0131 223.422 94.0292 223.422C98.1035 223.422 101.41 220.116 101.41 216.041C101.41 211.967 98.1035 208.661 94.0292 208.661Z" fill="#0082C3"/>
<path d="M102.187 226.171H85.8652V227.998H102.187V226.171Z" fill="#E5C78C"/>
<path d="M102.187 230.601H85.8652V233.067H102.187V230.601Z" fill="#EFEAE1"/>
<path d="M85.8652 235.031V237.496H98.1447H102.195V235.031H98.1447H85.8652Z" fill="#EFEAE1"/>
<path d="M98.1447 239.461H85.8652V239.687V241.926V242.161H102.195V239.687H98.1447V239.461Z" fill="#EFEAE1"/>
<path d="M98.1366 244.117H85.8652V246.583H98.1366V244.117Z" fill="#EFEAE1"/>
<path opacity="0.05" d="M17.1113 253.964L107.926 138.485V253.964H17.1113Z" fill="#004275"/>
<path d="M273.419 202.958L267.057 206.212L290.492 252.028L296.854 248.774L273.419 202.958Z" fill="#0082C3"/>
<path d="M272.076 201.571L266.735 204.303C265.316 205.029 264.754 206.767 265.48 208.186L267.148 211.447C267.874 212.866 269.612 213.427 271.031 212.702L276.372 209.97C277.791 209.244 278.353 207.506 277.627 206.087L275.959 202.826C275.233 201.407 273.495 200.845 272.076 201.571Z" fill="#004275"/>
<path d="M292.628 241.741L287.288 244.473C285.869 245.199 285.307 246.938 286.033 248.357L287.701 251.617C288.426 253.036 290.165 253.598 291.584 252.872L296.924 250.14C298.343 249.415 298.905 247.676 298.18 246.257L296.512 242.997C295.786 241.578 294.047 241.016 292.628 241.741Z" fill="#004275"/>
<path d="M241.707 148.792C225.709 156.973 219.371 176.577 227.56 192.575C235.741 208.573 255.345 214.911 271.343 206.722C287.341 198.541 293.679 178.937 285.49 162.939C277.309 146.941 257.705 140.603 241.707 148.792ZM268.481 201.144C255.563 207.748 239.743 202.631 233.138 189.721C226.534 176.811 231.651 160.983 244.561 154.378C257.479 147.774 273.299 152.891 279.904 165.801C286.508 178.719 281.391 194.539 268.481 201.144Z" fill="#0082C3"/>
<path opacity="0.4" d="M282.65 180.533C284.176 166.108 273.72 153.177 259.295 151.651C244.87 150.125 231.938 160.581 230.412 175.006C228.886 189.431 239.342 202.362 253.767 203.889C268.192 205.415 281.123 194.958 282.65 180.533Z" fill="white"/>
<path opacity="0.36" d="M268.845 160.87C270.268 163.651 269.168 167.054 266.388 168.469C263.607 169.892 260.203 168.792 258.789 166.012C257.374 163.231 258.465 159.827 261.246 158.413C264.027 156.99 267.43 158.089 268.845 160.87Z" fill="white"/>
<path opacity="0.05" d="M268.247 147.418L248.102 209.187C255.612 211.2 263.865 210.545 271.335 206.73C287.333 198.549 293.671 178.945 285.482 162.947C281.69 155.534 275.441 150.199 268.247 147.418Z" fill="#004275"/>
<path d="M215.346 78.7263C229.068 70.4781 233.505 52.6677 225.257 38.9458C217.009 25.2239 199.199 20.7865 185.477 29.0348C171.755 37.283 167.317 55.0933 175.566 68.8153C183.814 82.5372 201.624 86.9745 215.346 78.7263Z" fill="#FF6666"/>
<path d="M218.004 71.4737C227.718 61.7597 227.718 46.0102 218.004 36.2963C208.29 26.5823 192.541 26.5823 182.827 36.2963C173.113 46.0102 173.113 61.7597 182.827 71.4737C192.541 81.1877 208.29 81.1877 218.004 71.4737Z" fill="white"/>
<path d="M215.645 69.1129C224.055 60.7028 224.055 47.0672 215.645 38.657C207.235 30.2469 193.599 30.2469 185.189 38.657C176.779 47.0672 176.779 60.7028 185.189 69.1129C193.599 77.5231 207.235 77.5231 215.645 69.1129Z" fill="#FF6666"/>
<path d="M213.37 66.8379C220.524 59.6842 220.524 48.0858 213.37 40.9321C206.217 33.7784 194.618 33.7784 187.465 40.9321C180.311 48.0858 180.311 59.6842 187.465 66.8379C194.618 73.9916 206.217 73.9916 213.37 66.8379Z" fill="white"/>
<path d="M200.413 68.6234C208.552 68.6234 215.15 62.0254 215.15 53.8864C215.15 45.7474 208.552 39.1494 200.413 39.1494C192.274 39.1494 185.676 45.7474 185.676 53.8864C185.676 62.0254 192.274 68.6234 200.413 68.6234Z" fill="#FF6666"/>
<path d="M208.471 61.9391C212.919 57.4909 212.919 50.279 208.471 45.8309C204.023 41.3827 196.811 41.3827 192.363 45.8309C187.915 50.279 187.915 57.4909 192.363 61.9391C196.811 66.3873 204.023 66.3873 208.471 61.9391Z" fill="white"/>
<path d="M206.058 59.5269C209.174 56.4109 209.174 51.359 206.058 48.2431C202.943 45.1272 197.891 45.1272 194.775 48.2431C191.659 51.359 191.659 56.4109 194.775 59.5269C197.891 62.6428 202.943 62.6428 206.058 59.5269Z" fill="#FF6666"/>
<path d="M204.788 53.8863C204.788 56.3034 202.832 58.2678 200.407 58.2678C197.982 58.2678 196.025 56.3115 196.025 53.8863C196.025 51.4611 197.982 49.5048 200.407 49.5048C202.832 49.5048 204.788 51.4611 204.788 53.8863Z" fill="white"/>
<path opacity="0.05" d="M229.404 53.8866C229.404 47.8236 227.545 42.2053 224.36 37.549L176.123 69.7068C181.297 77.6371 190.238 82.8755 200.407 82.8755C216.413 82.8755 229.396 69.8927 229.396 53.8866H229.404Z" fill="#004275"/>
<path d="M243.558 51.8492H236.671L239.605 49.4644C240.017 49.133 240.252 48.648 240.284 48.0902C240.317 47.5001 240.09 46.9099 239.694 46.5057C238.942 45.7539 237.77 45.7216 236.897 46.4249L230.228 51.8492H200.899C199.751 51.8492 198.895 52.7223 198.895 53.8864C198.895 55.0504 199.76 55.9235 200.899 55.9235H230.236L236.897 61.3397C237.317 61.6792 237.802 61.849 238.287 61.849C238.805 61.849 239.306 61.655 239.694 61.267C240.098 60.8628 240.317 60.2726 240.284 59.6825C240.26 59.1247 240.017 58.6397 239.605 58.3083L236.679 55.9316H243.558C244.706 55.9316 245.563 55.0585 245.563 53.8944C245.563 52.7303 244.698 51.8573 243.558 51.8573V51.8492Z" fill="#004275"/>
<path d="M116.026 32.5777H77.8859C76.1074 32.5777 74.6523 34.0328 74.6523 35.8112V56.215C74.6523 57.9935 76.1074 59.4486 77.8859 59.4486H110.755L116.858 65.4388C118.128 66.6837 119.162 66.2472 119.162 64.4687V56.9588C119.219 56.7162 119.259 56.4737 119.259 56.215V35.8112C119.259 34.0328 117.804 32.5777 116.026 32.5777ZM88.872 48.0503C87.716 48.0503 86.7782 47.1126 86.7782 45.9566C86.7782 44.8005 87.716 43.8628 88.872 43.8628C90.028 43.8628 90.9657 44.8005 90.9657 45.9566C90.9657 47.1126 90.028 48.0503 88.872 48.0503ZM96.9559 48.0503C95.7999 48.0503 94.8621 47.1126 94.8621 45.9566C94.8621 44.8005 95.7999 43.8628 96.9559 43.8628C98.1119 43.8628 99.0496 44.8005 99.0496 45.9566C99.0496 47.1126 98.1119 48.0503 96.9559 48.0503ZM105.04 48.0503C103.884 48.0503 102.946 47.1126 102.946 45.9566C102.946 44.8005 103.884 43.8628 105.04 43.8628C106.196 43.8628 107.134 44.8005 107.134 45.9566C107.134 47.1126 106.196 48.0503 105.04 48.0503Z" fill="#0082C3"/>
<path opacity="0.2" d="M116.859 65.4387C118.128 66.6836 119.162 66.2471 119.162 64.4686V56.9587C119.219 56.7162 119.259 56.4737 119.259 56.215V35.8112C119.259 34.8411 118.815 33.968 118.128 33.3779L98.7182 44.8328C98.9284 45.1562 99.0496 45.5442 99.0496 45.9565C99.0496 47.1125 98.1119 48.0502 96.9559 48.0502C96.1637 48.0502 95.4766 47.6056 95.1209 46.9508L75.582 58.4785C76.1722 59.0767 76.9806 59.4485 77.886 59.4485H110.755L116.859 65.4387ZM105.04 48.0421C103.884 48.0421 102.946 47.1044 102.946 45.9484C102.946 44.7924 103.884 43.8547 105.04 43.8547C106.196 43.8547 107.134 44.7924 107.134 45.9484C107.134 47.1044 106.196 48.0421 105.04 48.0421Z" fill="#004275"/>
<path d="M126.77 11.4463V26.9997C126.77 27.1937 126.802 27.3878 126.842 27.5656V33.2971C126.842 34.6552 127.635 34.9866 128.605 34.0327L133.261 29.4653H158.321C159.679 29.4653 160.787 28.3578 160.787 26.9997V11.4463C160.787 10.0882 159.679 8.98068 158.321 8.98068H129.243C127.885 8.98068 126.778 10.0882 126.778 11.4463H126.77ZM148.337 19.1826C148.337 18.3014 149.049 17.582 149.938 17.582C150.827 17.582 151.539 18.2934 151.539 19.1826C151.539 20.0718 150.827 20.7832 149.938 20.7832C149.049 20.7832 148.337 20.0718 148.337 19.1826ZM142.177 19.1826C142.177 18.3014 142.889 17.582 143.778 17.582C144.667 17.582 145.379 18.2934 145.379 19.1826C145.379 20.0718 144.667 20.7832 143.778 20.7832C142.889 20.7832 142.177 20.0718 142.177 19.1826ZM136.018 19.1826C136.018 18.3014 136.729 17.582 137.618 17.582C138.507 17.582 139.219 18.2934 139.219 19.1826C139.219 20.0718 138.507 20.7832 137.618 20.7832C136.729 20.7832 136.018 20.0718 136.018 19.1826Z" fill="#83C2DB"/>
<path opacity="0.1" d="M133.261 29.4733H158.321C159.008 29.4733 159.631 29.1904 160.076 28.7377L145.177 19.9505C144.902 20.4436 144.385 20.7831 143.778 20.7831C142.897 20.7831 142.178 20.0717 142.178 19.1825C142.178 18.8672 142.275 18.5762 142.428 18.3256L127.627 9.59497C127.101 10.0477 126.762 10.7106 126.762 11.4543V27.0077C126.762 27.2017 126.794 27.3958 126.834 27.5736V33.3051C126.834 34.6632 127.627 34.9946 128.597 34.0407L133.253 29.4733H133.261ZM136.018 19.1825C136.018 18.3013 136.729 17.5819 137.618 17.5819C138.508 17.5819 139.219 18.2933 139.219 19.1825C139.219 20.0717 138.508 20.7831 137.618 20.7831C136.729 20.7831 136.018 20.0717 136.018 19.1825Z" fill="#004275"/>
<path d="M295.311 52.1898H292.877C292.57 50.0637 291.729 48.1155 290.501 46.4744L292.231 44.7445C292.861 44.1139 292.861 43.0873 292.231 42.4567L291.972 42.198C291.341 41.5675 290.315 41.5675 289.684 42.198L287.954 43.928C286.313 42.6992 284.365 41.8666 282.239 41.5594V39.11C282.239 38.2207 281.511 37.4932 280.622 37.4932H280.258C279.369 37.4932 278.642 38.2207 278.642 39.11V41.5594C276.516 41.8666 274.567 42.6992 272.926 43.928L271.196 42.198C270.566 41.5675 269.539 41.5675 268.909 42.198L268.65 42.4567C268.019 43.0873 268.019 44.1139 268.65 44.7445L270.38 46.4744C269.143 48.1155 268.31 50.0718 268.003 52.1898H265.57C264.681 52.1898 263.953 52.9173 263.953 53.8065V54.1703C263.953 55.0595 264.681 55.7871 265.57 55.7871H268.003C268.31 57.9132 269.143 59.8695 270.372 61.5186L268.65 63.2405C268.019 63.871 268.019 64.8977 268.65 65.5282L268.909 65.7869C269.539 66.4174 270.566 66.4174 271.196 65.7869L272.91 64.0731C274.559 65.31 276.516 66.1507 278.642 66.4579V68.875C278.642 69.7642 279.369 70.4917 280.258 70.4917H280.622C281.511 70.4917 282.239 69.7642 282.239 68.875V66.4579C284.365 66.1507 286.321 65.31 287.97 64.0731L289.684 65.7869C290.315 66.4174 291.341 66.4174 291.972 65.7869L292.231 65.5282C292.861 64.8977 292.861 63.871 292.231 63.2405L290.509 61.5186C291.738 59.8695 292.578 57.9132 292.877 55.7871H295.311C296.2 55.7871 296.927 55.0595 296.927 54.1703V53.8065C296.927 52.9173 296.2 52.1898 295.311 52.1898ZM280.428 61.5509C276.265 61.5509 272.886 58.1638 272.886 54.0086C272.886 49.8535 276.273 46.4663 280.428 46.4663C284.583 46.4663 287.97 49.8535 287.97 54.0086C287.97 58.1638 284.583 61.5509 280.428 61.5509Z" fill="#0082C3"/>
<path d="M308.624 81.9062H306.854C306.627 80.3622 306.021 78.9394 305.124 77.743L306.385 76.4819C306.846 76.0211 306.846 75.2774 306.385 74.8166L306.199 74.6307C305.738 74.1699 304.995 74.1699 304.534 74.6307L303.273 75.8918C302.076 74.9945 300.653 74.3882 299.109 74.1699V72.3915C299.109 71.7448 298.584 71.2112 297.929 71.2112H297.662C297.016 71.2112 296.482 71.7367 296.482 72.3915V74.1699C294.938 74.3963 293.515 75.0026 292.319 75.8918L291.058 74.6307C290.597 74.1699 289.853 74.1699 289.393 74.6307L289.207 74.8166C288.746 75.2774 288.746 76.0211 289.207 76.4819L290.468 77.743C289.57 78.9394 288.964 80.3622 288.738 81.9062H286.967C286.321 81.9062 285.787 82.4398 285.787 83.0865V83.3533C285.787 84 286.321 84.5335 286.967 84.5335H288.738C288.956 86.0856 289.57 87.5084 290.468 88.7048L289.215 89.9578C288.754 90.4186 288.754 91.1623 289.215 91.6231L289.401 91.809C289.861 92.2698 290.605 92.2698 291.066 91.809L292.319 90.556C293.515 91.4533 294.938 92.0677 296.49 92.286V94.0483C296.49 94.695 297.024 95.2285 297.67 95.2285H297.937C298.584 95.2285 299.117 94.695 299.117 94.0483V92.286C300.67 92.0596 302.092 91.4533 303.289 90.556L304.542 91.809C305.003 92.2698 305.746 92.2698 306.207 91.809L306.393 91.6231C306.854 91.1623 306.854 90.4186 306.393 89.9578L305.14 88.7048C306.037 87.5084 306.644 86.0856 306.87 84.5335H308.64C309.287 84.5335 309.821 84.0081 309.821 83.3533V83.0865C309.821 82.4398 309.287 81.9062 308.64 81.9062H308.624ZM297.792 88.721C294.76 88.721 292.303 86.2554 292.303 83.232C292.303 80.2086 294.768 77.743 297.792 77.743C300.815 77.743 303.281 80.2086 303.281 83.232C303.281 86.2554 300.815 88.721 297.792 88.721Z" fill="#83C2DB"/>
<path d="M45.0809 68.3502C52.7735 68.3502 59.0095 62.1142 59.0095 54.4216C59.0095 46.7291 52.7735 40.493 45.0809 40.493C37.3884 40.493 31.1523 46.7291 31.1523 54.4216C31.1523 62.1142 37.3884 68.3502 45.0809 68.3502Z" fill="#FCC659"/>
<path d="M45.0804 65.3105C51.0943 65.3105 55.9695 60.4353 55.9695 54.4214C55.9695 48.4076 51.0943 43.5324 45.0804 43.5324C39.0666 43.5324 34.1914 48.4076 34.1914 54.4214C34.1914 60.4353 39.0666 65.3105 45.0804 65.3105Z" fill="#F8E4B2"/>
<path d="M46.5132 57.1783C46.5132 56.7256 46.4001 56.3699 46.1818 56.1193C45.9554 55.8606 45.5674 55.6181 45.0096 55.3918C44.4518 55.1654 43.9345 54.931 43.4575 54.6965C42.9806 54.4621 42.5764 54.1873 42.2288 53.8801C41.8892 53.5729 41.6225 53.2172 41.4365 52.813C41.2506 52.4088 41.1617 51.9157 41.1617 51.3417C41.1617 50.3797 41.485 49.5794 42.1398 48.957C42.7946 48.3345 43.6596 47.9707 44.7429 47.8656V46.0548H46.101V47.898C47.1438 48.0516 47.9683 48.48 48.5666 49.1914C49.1648 49.9028 49.4639 50.792 49.4639 51.8753H46.5698C46.5698 51.2851 46.4567 50.8244 46.2303 50.501C46.004 50.1776 45.6725 50.024 45.2521 50.024C44.8722 50.024 44.5812 50.1453 44.371 50.3797C44.1608 50.6142 44.0557 50.9456 44.0557 51.3579C44.0557 51.7702 44.177 52.1178 44.4195 52.3684C44.662 52.619 45.042 52.8534 45.5755 53.0798C46.109 53.3061 46.6102 53.5405 47.0791 53.7831C47.548 54.0256 47.9603 54.3004 48.2998 54.6076C48.6393 54.9148 48.9142 55.2786 49.1082 55.6909C49.3022 56.1031 49.3992 56.5963 49.3992 57.1702C49.3992 58.1484 49.092 58.9406 48.4695 59.5631C47.8471 60.1774 47.0064 60.5412 45.9393 60.6463V62.3682H44.5731V60.6382C43.3282 60.5089 42.3743 60.0804 41.7033 59.361C41.0404 58.6415 40.709 57.6876 40.709 56.5073H43.5949C43.5949 57.1621 43.7405 57.6553 44.0315 57.9948C44.3225 58.3343 44.7267 58.5041 45.2602 58.5041C45.6483 58.5041 45.9554 58.3909 46.1737 58.1565C46.4001 57.922 46.5052 57.6068 46.5052 57.2026L46.5132 57.1783Z" fill="#FCC659"/>
<path opacity="0.05" d="M59.01 54.4217C59.01 51.1235 57.8621 48.1001 55.9462 45.7153L34.3379 63.2817C36.8924 66.3778 40.7565 68.3503 45.0814 68.3503C52.7692 68.3503 59.01 62.1176 59.01 54.4217Z" fill="#004275"/>
<path d="M24.9757 93.135C31.2262 93.135 36.2932 88.068 36.2932 81.8175C36.2932 75.567 31.2262 70.5 24.9757 70.5C18.7252 70.5 13.6582 75.567 13.6582 81.8175C13.6582 88.068 18.7252 93.135 24.9757 93.135Z" fill="#FCC659"/>
<path d="M24.9766 90.6611C29.8609 90.6611 33.8204 86.7016 33.8204 81.8173C33.8204 76.933 29.8609 72.9735 24.9766 72.9735C20.0923 72.9735 16.1328 76.933 16.1328 81.8173C16.1328 86.7016 20.0923 90.6611 24.9766 90.6611Z" fill="#F8E4B2"/>
<path d="M26.1404 84.0645C26.1404 83.7007 26.0515 83.4097 25.8655 83.1995C25.6877 82.9894 25.3643 82.7953 24.9116 82.6094C24.4589 82.4235 24.0386 82.2375 23.6505 82.0435C23.2625 81.8495 22.9311 81.6313 22.6562 81.3807C22.3814 81.1301 22.1631 80.839 22.0176 80.5076C21.8721 80.1761 21.7912 79.78 21.7912 79.3112C21.7912 78.527 22.058 77.8803 22.5835 77.371C23.1089 76.8617 23.8203 76.5707 24.7015 76.4818V75.0105H25.8089V76.5061C26.6578 76.6273 27.3287 76.983 27.8138 77.557C28.2988 78.1309 28.5413 78.8585 28.5413 79.7396H26.1889C26.1889 79.2546 26.0919 78.8827 25.914 78.624C25.7281 78.3654 25.4613 78.236 25.1218 78.236C24.8146 78.236 24.5802 78.333 24.4104 78.527C24.2407 78.721 24.1598 78.9878 24.1598 79.3273C24.1598 79.6669 24.2568 79.9417 24.4508 80.1438C24.6449 80.3459 24.9601 80.5399 25.3886 80.7259C25.817 80.9118 26.2293 81.0977 26.6093 81.2998C26.9892 81.4938 27.3206 81.7202 27.6036 81.9708C27.8784 82.2214 28.0967 82.5124 28.2584 82.8519C28.412 83.1834 28.4928 83.5876 28.4928 84.0564C28.4928 84.8487 28.2422 85.4954 27.741 85.9966C27.2398 86.4978 26.5527 86.7888 25.6796 86.8777V88.2762H24.5721V86.8696C23.5616 86.7645 22.7856 86.4169 22.2439 85.8268C21.7023 85.2367 21.4355 84.4687 21.4355 83.5067H23.7799C23.7799 84.0322 23.8931 84.4364 24.1275 84.7112C24.3619 84.9861 24.6934 85.1235 25.1299 85.1235C25.4452 85.1235 25.6958 85.0265 25.8736 84.8406C26.0515 84.6546 26.1485 84.396 26.1485 84.0645H26.1404Z" fill="#FCC659"/>
<path opacity="0.05" d="M36.2942 81.8174C36.2942 79.1416 35.3565 76.6841 33.8044 74.744L16.2461 89.0202C18.3237 91.5343 21.4602 93.1349 24.9767 93.1349C31.2256 93.1349 36.2942 88.0663 36.2942 81.8174Z" fill="#004275"/>
<path d="M257.624 33.7586L255.255 28.2211L252.879 33.7586L248.699 36.3374L252.879 38.9242L255.255 44.4617L257.624 38.9242L261.803 36.3374L257.624 33.7586Z" fill="#F8E4B2"/>
<path d="M277.258 12.8697L275.698 9.22385L274.137 12.8697L271.381 14.5754L274.137 16.2811L275.698 19.927L277.258 16.2811L280.015 14.5754L277.258 12.8697Z" fill="#F8E4B2"/>
<path d="M181.148 9.81362L179.863 6.82257L178.586 9.81362L176.322 11.2121L178.586 12.6107L179.863 15.6017L181.148 12.6107L183.412 11.2121L181.148 9.81362Z" fill="#F8E4B2"/>
<path d="M300.169 114.46L297.8 108.923L295.424 114.46L291.244 117.039L295.424 119.626L297.8 125.163L300.169 119.626L304.356 117.039L300.169 114.46Z" fill="#F8E4B2"/>
<path d="M315.69 48.0587L314.122 44.4129L312.561 48.0587L309.805 49.7644L312.561 51.462L314.122 55.116L315.69 51.462L318.446 49.7644L315.69 48.0587Z" fill="#F8E4B2"/>
<path d="M311.09 147.992L309.804 145.001L308.519 147.992L306.264 149.391L308.519 150.789L309.804 153.78L311.09 150.789L313.345 149.391L311.09 147.992Z" fill="#F8E4B2"/>
<path d="M304.85 196.164L303.289 192.518L301.729 196.164L298.973 197.87L301.729 199.575L303.289 203.221L304.85 199.575L307.606 197.87L304.85 196.164Z" fill="#F8E4B2"/>
<path d="M13.8761 43.0713L11.4994 37.5338L9.13083 43.0713L4.94336 45.6581L9.13083 48.2369L11.4994 53.7744L13.8761 48.2369L18.0555 45.6581L13.8761 43.0713Z" fill="#F8E4B2"/>
<path d="M31.305 110.289L29.7367 106.635L28.1765 110.289L25.4199 111.986L28.1765 113.692L29.7367 117.338L31.305 113.692L34.0616 111.986L31.305 110.289Z" fill="#F8E4B2"/>
<path d="M42.0902 3.64585L40.5219 0L38.9617 3.64585L36.2051 5.35155L38.9617 7.05726L40.5219 10.7031L42.0902 7.05726L44.8387 5.35155L42.0902 3.64585Z" fill="#F8E4B2"/>
<path d="M60.2949 26.3531L59.0095 23.3621L57.7242 26.3531L55.4688 27.7436L57.7242 29.1421L59.0095 32.1331L60.2949 29.1421L62.5503 27.7436L60.2949 26.3531Z" fill="#F8E4B2"/>
<path d="M9.47933 137.976L7.11074 132.439L4.73407 137.976L0.554688 140.555L4.73407 143.142L7.11074 148.679L9.47933 143.142L13.6668 140.555L9.47933 137.976Z" fill="#F8E4B2"/>
<path d="M139.163 50.4438H135.242V61.454H139.163V50.4438Z" fill="#EFD6A8"/>
<path d="M146.382 44.8087H142.461V61.4534H146.382V44.8087Z" fill="#EFD6A8"/>
<path d="M153.673 54.6715H149.672V61.462H153.673V54.6715Z" fill="#EFD6A8"/>
<path d="M74.4008 18.8516C75.7893 18.8516 76.9149 17.726 76.9149 16.3375C76.9149 14.949 75.7893 13.8234 74.4008 13.8234C73.0123 13.8234 71.8867 14.949 71.8867 16.3375C71.8867 17.726 73.0123 18.8516 74.4008 18.8516Z" fill="#EFD6A8"/>
<path d="M74.4004 7.76047V10.5413C77.5935 10.5413 80.1966 13.1444 80.1966 16.3375H82.9774C82.9774 11.6084 79.1295 7.76047 74.4004 7.76047Z" fill="#EFD6A8"/>
<path d="M74.3535 2.20654V4.98741C80.6428 4.98741 85.7599 10.1045 85.7599 16.3938H88.5408C88.5408 8.56859 82.1787 2.20654 74.3535 2.20654Z" fill="#EFD6A8"/>
<path d="M230.607 9.0614C227.568 6.02185 222.612 6.02185 219.573 9.0614C216.533 12.101 216.533 17.0564 219.573 20.096C222.216 22.7394 226.307 23.087 229.33 21.1307L235.587 27.3876L237.495 25.4798L231.302 19.2876C233.622 16.2318 233.396 11.8504 230.607 9.0614ZM228.699 18.1881C226.711 20.1768 223.469 20.1768 221.472 18.1881C219.484 16.1995 219.484 12.9579 221.472 10.9611C223.461 8.9644 226.703 8.97248 228.699 10.9611C230.696 12.9498 230.688 16.1914 228.699 18.1881Z" fill="#EFD6A8"/>
<path d="M226.508 11.2763C227.025 11.7936 227.025 12.6344 226.508 13.1517C225.99 13.6691 225.15 13.6691 224.632 13.1517C224.115 12.6344 224.115 11.7936 224.632 11.2763C225.15 10.7589 225.99 10.7589 226.508 11.2763Z" fill="#EFD6A8"/>
</g>
<defs>
<clipPath id="clip0_682_997">
<rect width="317.892" height="253.964" fill="white" transform="translate(0.554688)"/>
</clipPath>
</defs>
</svg>
