<svg width="584" height="350" viewBox="0 0 584 350" fill="none" xmlns="http://www.w3.org/2000/svg">
<rect x="220" y="281" width="144" height="68" fill="#FFFF75"/>
<rect x="220" y="281" width="144" height="68" stroke="black" stroke-width="2"/>
<path d="M253.046 318V308.925H254.828V318H253.046ZM257.068 318V312.368H258.757V312.995C258.973 312.753 259.243 312.559 259.565 312.412C259.892 312.265 260.251 312.192 260.643 312.192C261.076 312.192 261.455 312.287 261.782 312.478C262.112 312.665 262.37 312.927 262.557 313.264C262.744 313.598 262.838 313.989 262.838 314.436V318H261.149V314.793C261.149 314.39 261.043 314.077 260.83 313.853C260.621 313.626 260.333 313.512 259.967 313.512C259.717 313.512 259.501 313.563 259.318 313.666C259.138 313.765 258.999 313.902 258.9 314.078C258.804 314.251 258.757 314.447 258.757 314.667V318H257.068ZM264.717 320.86V312.368H266.405V313.055C266.633 312.78 266.915 312.568 267.252 312.417C267.59 312.267 267.953 312.192 268.341 312.192C268.884 312.192 269.366 312.322 269.788 312.582C270.213 312.843 270.547 313.198 270.789 313.649C271.034 314.1 271.157 314.612 271.157 315.184C271.157 315.749 271.036 316.258 270.794 316.713C270.552 317.164 270.22 317.521 269.799 317.785C269.381 318.046 268.908 318.176 268.38 318.176C267.995 318.176 267.632 318.097 267.291 317.939C266.95 317.778 266.655 317.551 266.405 317.257V320.86H264.717ZM267.879 316.74C268.173 316.74 268.431 316.674 268.655 316.542C268.882 316.407 269.06 316.223 269.188 315.992C269.317 315.758 269.381 315.49 269.381 315.189C269.381 314.889 269.315 314.621 269.183 314.386C269.051 314.152 268.873 313.967 268.649 313.831C268.426 313.695 268.169 313.627 267.879 313.627C267.59 313.627 267.329 313.695 267.098 313.831C266.871 313.967 266.691 314.152 266.559 314.386C266.427 314.617 266.361 314.885 266.361 315.189C266.361 315.486 266.425 315.752 266.554 315.987C266.686 316.222 266.867 316.407 267.098 316.542C267.329 316.674 267.59 316.74 267.879 316.74ZM275.47 318.176C274.443 318.176 273.703 317.972 273.248 317.565C272.793 317.158 272.566 316.493 272.566 315.569V312.368H274.254V315.173C274.254 315.767 274.346 316.187 274.529 316.432C274.716 316.678 275.03 316.801 275.47 316.801C275.917 316.801 276.231 316.678 276.41 316.432C276.594 316.187 276.685 315.767 276.685 315.173V312.368H278.374V315.569C278.374 316.493 278.147 317.158 277.692 317.565C277.241 317.972 276.5 318.176 275.47 318.176ZM282.116 318.176C281.555 318.176 281.119 317.998 280.807 317.642C280.496 317.283 280.34 316.783 280.34 316.141V313.649H279.586V312.368H280.34V310.256H282.028V312.368H283.266V313.649H282.028V316.02C282.028 316.233 282.07 316.394 282.155 316.504C282.243 316.614 282.366 316.669 282.523 316.669C282.699 316.669 282.868 316.61 283.029 316.493L283.453 317.846C283.262 317.949 283.048 318.029 282.809 318.088C282.575 318.147 282.344 318.176 282.116 318.176ZM283.719 319.32L288.251 308.54H289.692L285.16 319.32H283.719ZM294.645 318.176C294.011 318.176 293.417 318.055 292.863 317.813C292.31 317.571 291.824 317.235 291.406 316.806C290.988 316.374 290.66 315.873 290.421 315.305C290.187 314.733 290.069 314.121 290.069 313.468C290.069 312.815 290.187 312.205 290.421 311.636C290.66 311.064 290.988 310.564 291.406 310.135C291.824 309.702 292.31 309.365 292.863 309.123C293.417 308.881 294.011 308.76 294.645 308.76C295.28 308.76 295.874 308.881 296.427 309.123C296.981 309.365 297.467 309.702 297.885 310.135C298.303 310.564 298.629 311.064 298.864 311.636C299.102 312.205 299.221 312.815 299.221 313.468C299.221 314.121 299.102 314.733 298.864 315.305C298.629 315.873 298.303 316.374 297.885 316.806C297.467 317.235 296.981 317.571 296.427 317.813C295.874 318.055 295.28 318.176 294.645 318.176ZM294.64 316.46C295.028 316.46 295.384 316.387 295.707 316.24C296.029 316.093 296.31 315.886 296.548 315.618C296.787 315.351 296.972 315.035 297.104 314.672C297.236 314.306 297.302 313.904 297.302 313.468C297.302 313.032 297.236 312.632 297.104 312.269C296.972 311.902 296.787 311.585 296.548 311.317C296.31 311.05 296.029 310.843 295.707 310.696C295.384 310.549 295.028 310.476 294.64 310.476C294.258 310.476 293.905 310.549 293.578 310.696C293.256 310.843 292.975 311.05 292.737 311.317C292.498 311.585 292.313 311.902 292.181 312.269C292.053 312.632 291.989 313.032 291.989 313.468C291.989 313.904 292.053 314.306 292.181 314.672C292.313 315.035 292.498 315.351 292.737 315.618C292.975 315.886 293.256 316.093 293.578 316.24C293.905 316.387 294.258 316.46 294.64 316.46ZM303.55 318.176C302.523 318.176 301.783 317.972 301.328 317.565C300.873 317.158 300.646 316.493 300.646 315.569V312.368H302.334V315.173C302.334 315.767 302.426 316.187 302.609 316.432C302.796 316.678 303.11 316.801 303.55 316.801C303.997 316.801 304.311 316.678 304.49 316.432C304.674 316.187 304.765 315.767 304.765 315.173V312.368H306.454V315.569C306.454 316.493 306.227 317.158 305.772 317.565C305.321 317.972 304.58 318.176 303.55 318.176ZM310.196 318.176C309.635 318.176 309.199 317.998 308.887 317.642C308.576 317.283 308.42 316.783 308.42 316.141V313.649H307.666V312.368H308.42V310.256H310.108V312.368H311.346V313.649H310.108V316.02C310.108 316.233 310.15 316.394 310.235 316.504C310.323 316.614 310.446 316.669 310.603 316.669C310.779 316.669 310.948 316.61 311.109 316.493L311.533 317.846C311.342 317.949 311.128 318.029 310.889 318.088C310.655 318.147 310.424 318.176 310.196 318.176ZM312.992 320.86V312.368H314.681V313.055C314.908 312.78 315.19 312.568 315.528 312.417C315.865 312.267 316.228 312.192 316.617 312.192C317.159 312.192 317.641 312.322 318.063 312.582C318.488 312.843 318.822 313.198 319.064 313.649C319.31 314.1 319.433 314.612 319.433 315.184C319.433 315.749 319.312 316.258 319.07 316.713C318.828 317.164 318.496 317.521 318.074 317.785C317.656 318.046 317.183 318.176 316.655 318.176C316.27 318.176 315.907 318.097 315.566 317.939C315.225 317.778 314.93 317.551 314.681 317.257V320.86H312.992ZM316.155 316.74C316.448 316.74 316.706 316.674 316.93 316.542C317.157 316.407 317.335 316.223 317.464 315.992C317.592 315.758 317.656 315.49 317.656 315.189C317.656 314.889 317.59 314.621 317.458 314.386C317.326 314.152 317.148 313.967 316.925 313.831C316.701 313.695 316.444 313.627 316.155 313.627C315.865 313.627 315.605 313.695 315.374 313.831C315.146 313.967 314.967 314.152 314.835 314.386C314.703 314.617 314.637 314.885 314.637 315.189C314.637 315.486 314.701 315.752 314.829 315.987C314.961 316.222 315.143 316.407 315.374 316.542C315.605 316.674 315.865 316.74 316.155 316.74ZM323.745 318.176C322.719 318.176 321.978 317.972 321.523 317.565C321.069 317.158 320.841 316.493 320.841 315.569V312.368H322.53V315.173C322.53 315.767 322.621 316.187 322.805 316.432C322.992 316.678 323.305 316.801 323.745 316.801C324.193 316.801 324.506 316.678 324.686 316.432C324.869 316.187 324.961 315.767 324.961 315.173V312.368H326.649V315.569C326.649 316.493 326.422 317.158 325.967 317.565C325.516 317.972 324.776 318.176 323.745 318.176ZM330.392 318.176C329.831 318.176 329.394 317.998 329.083 317.642C328.771 317.283 328.615 316.783 328.615 316.141V313.649H327.862V312.368H328.615V310.256H330.304V312.368H331.541V313.649H330.304V316.02C330.304 316.233 330.346 316.394 330.43 316.504C330.518 316.614 330.641 316.669 330.799 316.669C330.975 316.669 331.143 316.61 331.305 316.493L331.728 317.846C331.537 317.949 331.323 318.029 331.085 318.088C330.85 318.147 330.619 318.176 330.392 318.176Z" fill="black"/>
<rect x="220" y="144" width="144" height="68" fill="#627FE3"/>
<rect x="220" y="144" width="144" height="68" stroke="black" stroke-width="2"/>
<path d="M260.758 181.176C260.072 181.176 259.428 181.055 258.827 180.813C258.226 180.571 257.696 180.235 257.238 179.806C256.779 179.374 256.422 178.873 256.165 178.305C255.908 177.737 255.78 177.126 255.78 176.473C255.78 175.817 255.908 175.205 256.165 174.636C256.425 174.064 256.783 173.564 257.238 173.135C257.696 172.702 258.224 172.365 258.822 172.123C259.423 171.881 260.065 171.76 260.747 171.76C261.304 171.76 261.834 171.839 262.336 171.996C262.842 172.154 263.275 172.361 263.634 172.618L262.864 174.13C262.618 173.936 262.32 173.784 261.968 173.674C261.616 173.564 261.247 173.509 260.862 173.509C260.411 173.509 259.993 173.584 259.608 173.734C259.227 173.885 258.893 174.094 258.607 174.361C258.325 174.629 258.105 174.943 257.947 175.302C257.789 175.661 257.711 176.05 257.711 176.468C257.711 176.886 257.789 177.275 257.947 177.634C258.105 177.993 258.325 178.307 258.607 178.574C258.893 178.842 259.227 179.051 259.608 179.201C259.993 179.352 260.411 179.427 260.862 179.427C261.247 179.427 261.616 179.372 261.968 179.262C262.32 179.152 262.618 179 262.864 178.805L263.634 180.318C263.289 180.567 262.866 180.773 262.364 180.934C261.861 181.095 261.326 181.176 260.758 181.176ZM267.645 181.176C267.026 181.176 266.466 181.05 265.968 180.796C265.469 180.54 265.073 180.188 264.78 179.74C264.486 179.289 264.34 178.771 264.34 178.184C264.34 177.597 264.485 177.08 264.774 176.633C265.068 176.182 265.464 175.83 265.962 175.577C266.465 175.32 267.026 175.192 267.645 175.192C268.269 175.192 268.83 175.32 269.328 175.577C269.827 175.83 270.221 176.182 270.511 176.633C270.804 177.08 270.951 177.597 270.951 178.184C270.951 178.771 270.804 179.289 270.511 179.74C270.221 180.188 269.827 180.54 269.328 180.796C268.83 181.05 268.269 181.176 267.645 181.176ZM267.651 179.735C267.937 179.735 268.197 179.669 268.432 179.537C268.666 179.405 268.852 179.223 268.987 178.992C269.123 178.758 269.191 178.488 269.191 178.184C269.191 177.88 269.123 177.612 268.987 177.381C268.852 177.146 268.666 176.963 268.432 176.831C268.197 176.699 267.937 176.633 267.651 176.633C267.361 176.633 267.099 176.699 266.864 176.831C266.633 176.963 266.45 177.146 266.314 177.381C266.179 177.612 266.111 177.88 266.111 178.184C266.111 178.488 266.179 178.758 266.314 178.992C266.45 179.223 266.633 179.405 266.864 179.537C267.099 179.669 267.361 179.735 267.651 179.735ZM272.424 181V175.368H274.113V175.995C274.329 175.753 274.599 175.559 274.921 175.412C275.248 175.265 275.607 175.192 275.999 175.192C276.432 175.192 276.811 175.287 277.138 175.478C277.468 175.665 277.726 175.927 277.913 176.264C278.1 176.598 278.194 176.989 278.194 177.436V181H276.505V177.793C276.505 177.39 276.399 177.077 276.186 176.853C275.977 176.626 275.689 176.512 275.323 176.512C275.073 176.512 274.857 176.563 274.674 176.666C274.494 176.765 274.355 176.902 274.256 177.078C274.16 177.251 274.113 177.447 274.113 177.667V181H272.424ZM281.95 181.176C281.389 181.176 280.952 180.998 280.641 180.642C280.329 180.283 280.173 179.783 280.173 179.141V176.649H279.42V175.368H280.173V173.256H281.862V175.368H283.099V176.649H281.862V179.02C281.862 179.233 281.904 179.394 281.988 179.504C282.076 179.614 282.199 179.669 282.357 179.669C282.533 179.669 282.701 179.61 282.863 179.493L283.286 180.846C283.096 180.949 282.881 181.029 282.643 181.088C282.408 181.147 282.177 181.176 281.95 181.176ZM284.746 181V175.368H286.434V176.176C286.643 175.861 286.898 175.619 287.199 175.45C287.503 175.278 287.829 175.192 288.178 175.192C288.376 175.192 288.581 175.221 288.794 175.28C289.006 175.339 289.184 175.414 289.327 175.505L288.623 176.93C288.498 176.846 288.352 176.78 288.183 176.732C288.018 176.681 287.864 176.655 287.721 176.655C287.501 176.655 287.292 176.712 287.094 176.825C286.896 176.939 286.737 177.088 286.616 177.271C286.495 177.451 286.434 177.645 286.434 177.854V181H284.746ZM293.008 181.176C292.388 181.176 291.829 181.05 291.33 180.796C290.831 180.54 290.435 180.188 290.142 179.74C289.849 179.289 289.702 178.771 289.702 178.184C289.702 177.597 289.847 177.08 290.137 176.633C290.43 176.182 290.826 175.83 291.325 175.577C291.827 175.32 292.388 175.192 293.008 175.192C293.631 175.192 294.192 175.32 294.691 175.577C295.189 175.83 295.583 176.182 295.873 176.633C296.166 177.08 296.313 177.597 296.313 178.184C296.313 178.771 296.166 179.289 295.873 179.74C295.583 180.188 295.189 180.54 294.691 180.796C294.192 181.05 293.631 181.176 293.008 181.176ZM293.013 179.735C293.299 179.735 293.559 179.669 293.794 179.537C294.029 179.405 294.214 179.223 294.35 178.992C294.485 178.758 294.553 178.488 294.553 178.184C294.553 177.88 294.485 177.612 294.35 177.381C294.214 177.146 294.029 176.963 293.794 176.831C293.559 176.699 293.299 176.633 293.013 176.633C292.723 176.633 292.461 176.699 292.227 176.831C291.996 176.963 291.812 177.146 291.677 177.381C291.541 177.612 291.473 177.88 291.473 178.184C291.473 178.488 291.541 178.758 291.677 178.992C291.812 179.223 291.996 179.405 292.227 179.537C292.461 179.669 292.723 179.735 293.013 179.735ZM297.787 181V171.54H299.475V181H297.787ZM307.967 181.176C306.831 181.176 305.971 180.892 305.388 180.323C304.805 179.751 304.513 178.904 304.513 177.782V171.925H306.295V177.271C306.295 178.037 306.425 178.589 306.686 178.926C306.95 179.26 307.377 179.427 307.967 179.427C308.558 179.427 308.983 179.26 309.243 178.926C309.507 178.589 309.639 178.037 309.639 177.271V171.925H311.421V177.782C311.421 178.904 311.13 179.751 310.547 180.323C309.967 180.892 309.108 181.176 307.967 181.176ZM313.502 181V175.368H315.191V175.995C315.407 175.753 315.677 175.559 315.999 175.412C316.326 175.265 316.685 175.192 317.077 175.192C317.51 175.192 317.89 175.287 318.216 175.478C318.546 175.665 318.804 175.927 318.991 176.264C319.178 176.598 319.272 176.989 319.272 177.436V181H317.583V177.793C317.583 177.39 317.477 177.077 317.264 176.853C317.055 176.626 316.768 176.512 316.401 176.512C316.152 176.512 315.935 176.563 315.752 176.666C315.572 176.765 315.433 176.902 315.334 177.078C315.239 177.251 315.191 177.447 315.191 177.667V181H313.502ZM321.145 181V175.368H322.834V181H321.145ZM321.992 174.196C321.809 174.196 321.64 174.152 321.486 174.064C321.336 173.973 321.215 173.85 321.123 173.696C321.032 173.542 320.986 173.373 320.986 173.19C320.986 173.007 321.032 172.84 321.123 172.689C321.215 172.539 321.336 172.42 321.486 172.332C321.64 172.24 321.809 172.194 321.992 172.194C322.176 172.194 322.342 172.24 322.493 172.332C322.643 172.42 322.762 172.539 322.85 172.689C322.942 172.84 322.988 173.007 322.988 173.19C322.988 173.373 322.942 173.542 322.85 173.696C322.762 173.85 322.643 173.973 322.493 174.064C322.342 174.152 322.176 174.196 321.992 174.196ZM326.766 181.176C326.205 181.176 325.769 180.998 325.457 180.642C325.145 180.283 324.99 179.783 324.99 179.141V176.649H324.236V175.368H324.99V173.256H326.678V175.368H327.916V176.649H326.678V179.02C326.678 179.233 326.72 179.394 326.805 179.504C326.893 179.614 327.015 179.669 327.173 179.669C327.349 179.669 327.518 179.61 327.679 179.493L328.103 180.846C327.912 180.949 327.697 181.029 327.459 181.088C327.224 181.147 326.993 181.176 326.766 181.176Z" fill="black"/>
<rect x="220" y="1" width="144" height="68" fill="#E36662"/>
<rect x="220" y="1" width="144" height="68" stroke="black" stroke-width="2"/>
<path d="M279.735 38L283.381 28.925H285.037L288.678 38H286.758L285.988 35.932H282.424L281.654 38H279.735ZM283.035 34.37H285.383L284.206 31.3285L283.035 34.37ZM290.02 38V28.925H291.802V36.438H295.08V38H290.02ZM299.83 38.176C298.693 38.176 297.833 37.8918 297.25 37.3235C296.667 36.7515 296.376 35.9045 296.376 34.7825V28.925H298.158V34.271C298.158 35.0373 298.288 35.5892 298.548 35.9265C298.812 36.2602 299.24 36.427 299.83 36.427C300.42 36.427 300.846 36.2602 301.106 35.9265C301.37 35.5892 301.502 35.0373 301.502 34.271V28.925H303.284V34.7825C303.284 35.9045 302.992 36.7515 302.409 37.3235C301.83 37.8918 300.97 38.176 299.83 38.176Z" fill="black"/>
<rect x="439" y="144" width="144" height="68" fill="#627FE3"/>
<rect x="439" y="144" width="144" height="68" stroke="black" stroke-width="2"/>
<path d="M471.02 181V171.925H473.511C474.157 171.925 474.756 172.04 475.31 172.271C475.863 172.502 476.347 172.825 476.762 173.239C477.18 173.654 477.504 174.136 477.735 174.686C477.97 175.236 478.087 175.83 478.087 176.468C478.087 177.11 477.972 177.705 477.741 178.255C477.51 178.802 477.185 179.282 476.767 179.696C476.353 180.107 475.867 180.428 475.31 180.659C474.756 180.886 474.157 181 473.511 181H471.02ZM472.802 179.405H473.313C473.724 179.405 474.103 179.332 474.452 179.185C474.8 179.038 475.103 178.833 475.359 178.569C475.616 178.305 475.816 177.995 475.959 177.639C476.102 177.28 476.173 176.888 476.173 176.462C476.173 176.041 476.102 175.652 475.959 175.296C475.816 174.937 475.616 174.625 475.359 174.361C475.103 174.094 474.8 173.887 474.452 173.74C474.103 173.593 473.724 173.52 473.313 173.52H472.802V179.405ZM481.989 181.176C481.472 181.176 481 181.048 480.575 180.791C480.153 180.531 479.818 180.175 479.569 179.724C479.323 179.269 479.2 178.752 479.2 178.173C479.2 177.608 479.319 177.102 479.558 176.655C479.796 176.204 480.124 175.848 480.542 175.588C480.964 175.324 481.446 175.192 481.989 175.192C482.388 175.192 482.76 175.269 483.105 175.423C483.453 175.573 483.738 175.784 483.958 176.055V175.368H485.646V181H483.958V180.257C483.701 180.554 483.406 180.782 483.072 180.939C482.738 181.097 482.377 181.176 481.989 181.176ZM482.489 179.74C482.782 179.74 483.043 179.674 483.27 179.542C483.497 179.407 483.675 179.222 483.804 178.987C483.932 178.752 483.996 178.485 483.996 178.184C483.996 177.88 483.93 177.612 483.798 177.381C483.67 177.146 483.492 176.963 483.265 176.831C483.041 176.695 482.782 176.627 482.489 176.627C482.199 176.627 481.941 176.695 481.714 176.831C481.486 176.963 481.307 177.146 481.175 177.381C481.043 177.616 480.977 177.883 480.977 178.184C480.977 178.485 481.041 178.752 481.169 178.987C481.301 179.222 481.481 179.407 481.708 179.542C481.935 179.674 482.196 179.74 482.489 179.74ZM489.499 181.176C488.938 181.176 488.501 180.998 488.19 180.642C487.878 180.283 487.722 179.783 487.722 179.141V176.649H486.969V175.368H487.722V173.256H489.411V175.368H490.648V176.649H489.411V179.02C489.411 179.233 489.453 179.394 489.537 179.504C489.625 179.614 489.748 179.669 489.906 179.669C490.082 179.669 490.25 179.61 490.412 179.493L490.835 180.846C490.644 180.949 490.43 181.029 490.192 181.088C489.957 181.147 489.726 181.176 489.499 181.176ZM494.621 181.176C494.104 181.176 493.633 181.048 493.208 180.791C492.786 180.531 492.451 180.175 492.201 179.724C491.956 179.269 491.833 178.752 491.833 178.173C491.833 177.608 491.952 177.102 492.19 176.655C492.429 176.204 492.757 175.848 493.175 175.588C493.597 175.324 494.079 175.192 494.621 175.192C495.021 175.192 495.393 175.269 495.738 175.423C496.086 175.573 496.37 175.784 496.59 176.055V175.368H498.279V181H496.59V180.257C496.334 180.554 496.039 180.782 495.705 180.939C495.371 181.097 495.01 181.176 494.621 181.176ZM495.122 179.74C495.415 179.74 495.676 179.674 495.903 179.542C496.13 179.407 496.308 179.222 496.436 178.987C496.565 178.752 496.629 178.485 496.629 178.184C496.629 177.88 496.563 177.612 496.431 177.381C496.303 177.146 496.125 176.963 495.897 176.831C495.674 176.695 495.415 176.627 495.122 176.627C494.832 176.627 494.574 176.695 494.346 176.831C494.119 176.963 493.939 177.146 493.807 177.381C493.675 177.616 493.609 177.883 493.609 178.184C493.609 178.485 493.674 178.752 493.802 178.987C493.934 179.222 494.114 179.407 494.341 179.542C494.568 179.674 494.829 179.74 495.122 179.74ZM503.054 181L503.956 171.925H505.848L508.015 177.601L510.182 171.925H512.074L512.976 181H511.194L510.633 175.126L508.559 180.774H507.465L505.397 175.126L504.83 181H503.054ZM517.494 181.176C516.886 181.176 516.339 181.046 515.855 180.785C515.375 180.521 514.994 180.164 514.711 179.713C514.429 179.262 514.288 178.752 514.288 178.184C514.288 177.766 514.367 177.375 514.524 177.012C514.686 176.649 514.909 176.332 515.195 176.061C515.481 175.786 515.813 175.573 516.191 175.423C516.569 175.269 516.977 175.192 517.417 175.192C518.004 175.192 518.517 175.315 518.957 175.56C519.401 175.802 519.746 176.14 519.991 176.572C520.241 177.005 520.365 177.509 520.365 178.085C520.365 178.133 520.364 178.175 520.36 178.211C520.36 178.244 520.354 178.309 520.343 178.404H516.026C516.026 178.69 516.09 178.939 516.218 179.152C516.35 179.365 516.534 179.531 516.768 179.652C517.003 179.77 517.276 179.828 517.588 179.828C517.881 179.828 518.14 179.772 518.363 179.658C518.591 179.544 518.809 179.363 519.018 179.113L520.233 179.724C519.969 180.179 519.595 180.534 519.111 180.791C518.627 181.048 518.088 181.176 517.494 181.176ZM516.086 177.469H518.704C518.668 177.253 518.589 177.066 518.468 176.908C518.351 176.75 518.2 176.629 518.017 176.545C517.834 176.461 517.626 176.418 517.395 176.418C517.15 176.418 516.933 176.461 516.746 176.545C516.559 176.629 516.409 176.75 516.295 176.908C516.182 177.066 516.112 177.253 516.086 177.469ZM521.868 181V175.368H523.556V175.995C523.835 175.716 524.112 175.513 524.387 175.384C524.662 175.256 524.959 175.192 525.278 175.192C525.71 175.192 526.101 175.289 526.449 175.483C526.797 175.678 527.047 175.938 527.197 176.264C527.472 175.909 527.767 175.641 528.083 175.461C528.398 175.282 528.759 175.192 529.166 175.192C529.573 175.192 529.934 175.276 530.25 175.445C530.565 175.614 530.812 175.854 530.992 176.165C531.175 176.473 531.267 176.838 531.267 177.26V181H529.579V177.722C529.579 177.355 529.483 177.067 529.293 176.858C529.102 176.646 528.847 176.539 528.528 176.539C528.308 176.539 528.114 176.585 527.945 176.677C527.78 176.769 527.65 176.891 527.555 177.045C527.459 177.199 527.412 177.37 527.412 177.557V181H525.723V177.689C525.723 177.341 525.63 177.062 525.443 176.853C525.259 176.644 525.004 176.539 524.678 176.539C524.462 176.539 524.267 176.585 524.095 176.677C523.926 176.769 523.794 176.893 523.699 177.051C523.604 177.209 523.556 177.383 523.556 177.573V181H521.868ZM535.973 181.176C535.354 181.176 534.795 181.05 534.296 180.796C533.797 180.54 533.401 180.188 533.108 179.74C532.815 179.289 532.668 178.771 532.668 178.184C532.668 177.597 532.813 177.08 533.102 176.633C533.396 176.182 533.792 175.83 534.29 175.577C534.793 175.32 535.354 175.192 535.973 175.192C536.597 175.192 537.158 175.32 537.656 175.577C538.155 175.83 538.549 176.182 538.839 176.633C539.132 177.08 539.279 177.597 539.279 178.184C539.279 178.771 539.132 179.289 538.839 179.74C538.549 180.188 538.155 180.54 537.656 180.796C537.158 181.05 536.597 181.176 535.973 181.176ZM535.979 179.735C536.265 179.735 536.525 179.669 536.76 179.537C536.995 179.405 537.18 179.223 537.315 178.992C537.451 178.758 537.519 178.488 537.519 178.184C537.519 177.88 537.451 177.612 537.315 177.381C537.18 177.146 536.995 176.963 536.76 176.831C536.525 176.699 536.265 176.633 535.979 176.633C535.689 176.633 535.427 176.699 535.192 176.831C534.961 176.963 534.778 177.146 534.642 177.381C534.507 177.612 534.439 177.88 534.439 178.184C534.439 178.488 534.507 178.758 534.642 178.992C534.778 179.223 534.961 179.405 535.192 179.537C535.427 179.669 535.689 179.735 535.979 179.735ZM540.752 181V175.368H542.441V176.176C542.65 175.861 542.905 175.619 543.205 175.45C543.51 175.278 543.836 175.192 544.184 175.192C544.382 175.192 544.588 175.221 544.8 175.28C545.013 175.339 545.191 175.414 545.334 175.505L544.63 176.93C544.505 176.846 544.359 176.78 544.19 176.732C544.025 176.681 543.871 176.655 543.728 176.655C543.508 176.655 543.299 176.712 543.101 176.825C542.903 176.939 542.743 177.088 542.622 177.271C542.501 177.451 542.441 177.645 542.441 177.854V181H540.752ZM546.043 183.86L547.863 180.296L545.185 175.368H547.121L548.848 178.668L550.344 175.368H552.28L547.973 183.86H546.043Z" fill="black"/>
<rect x="1" y="144" width="144" height="68" fill="#627FE3"/>
<rect x="1" y="144" width="144" height="68" stroke="black" stroke-width="2"/>
<path d="M15.4563 181V171.925H17.2383V181H15.4563ZM19.4789 181V175.368H21.1674V175.995C21.3837 175.753 21.6532 175.559 21.9759 175.412C22.3022 175.265 22.6616 175.192 23.0539 175.192C23.4866 175.192 23.8661 175.287 24.1924 175.478C24.5224 175.665 24.7809 175.927 24.9679 176.264C25.1549 176.598 25.2484 176.989 25.2484 177.436V181H23.5599V177.793C23.5599 177.39 23.4536 177.077 23.2409 176.853C23.0319 176.626 22.7441 176.512 22.3774 176.512C22.1281 176.512 21.9117 176.563 21.7284 176.666C21.5487 176.765 21.4094 176.902 21.3104 177.078C21.2151 177.251 21.1674 177.447 21.1674 177.667V181H19.4789ZM28.6686 181.176C28.192 181.176 27.7648 181.101 27.3871 180.95C27.0131 180.8 26.7015 180.58 26.4521 180.29L27.1616 179.157C27.3963 179.407 27.642 179.597 27.8986 179.729C28.1553 179.861 28.412 179.927 28.6686 179.927C28.8116 179.927 28.9345 179.904 29.0371 179.856C29.1435 179.808 29.226 179.74 29.2846 179.652C29.347 179.561 29.3781 179.451 29.3781 179.322C29.3781 179.176 29.336 179.06 29.2516 178.976C29.171 178.892 29.0463 178.815 28.8776 178.745C28.709 178.672 28.4908 178.58 28.2231 178.47C27.9958 178.375 27.7776 178.266 27.5686 178.145C27.3596 178.024 27.1891 177.87 27.0571 177.683C26.9288 177.496 26.8646 177.26 26.8646 176.974C26.8646 176.626 26.9618 176.319 27.1561 176.055C27.3505 175.788 27.6181 175.579 27.9591 175.428C28.3038 175.278 28.6998 175.203 29.1471 175.203C29.4258 175.203 29.7173 175.245 30.0216 175.329C30.3296 175.414 30.6578 175.542 31.0061 175.714L30.4286 176.798C29.9556 176.494 29.5321 176.341 29.1581 176.341C28.9491 176.341 28.7823 176.387 28.6576 176.479C28.533 176.571 28.4706 176.686 28.4706 176.825C28.4706 176.957 28.5348 177.073 28.6631 177.172C28.7951 177.267 28.9546 177.353 29.1416 177.43C29.3323 177.504 29.5138 177.572 29.6861 177.634C29.9685 177.737 30.2178 177.85 30.4341 177.975C30.6541 178.1 30.8265 178.263 30.9511 178.464C31.0758 178.662 31.1381 178.928 31.1381 179.262C31.1381 179.669 31.0391 180.015 30.8411 180.301C30.6468 180.584 30.3645 180.8 29.9941 180.95C29.6275 181.101 29.1856 181.176 28.6686 181.176ZM34.5474 181.176C33.9864 181.176 33.55 180.998 33.2384 180.642C32.9267 180.283 32.7709 179.783 32.7709 179.141V176.649H32.0174V175.368H32.7709V173.256H34.4594V175.368H35.6969V176.649H34.4594V179.02C34.4594 179.233 34.5015 179.394 34.5859 179.504C34.6739 179.614 34.7967 179.669 34.9544 179.669C35.1304 179.669 35.299 179.61 35.4604 179.493L35.8839 180.846C35.6932 180.949 35.4787 181.029 35.2404 181.088C35.0057 181.147 34.7747 181.176 34.5474 181.176ZM37.3432 181V175.368H39.0317V176.176C39.2407 175.861 39.4955 175.619 39.7962 175.45C40.1005 175.278 40.4268 175.192 40.7752 175.192C40.9732 175.192 41.1785 175.221 41.3912 175.28C41.6038 175.339 41.7817 175.414 41.9247 175.505L41.2207 176.93C41.096 176.846 40.9493 176.78 40.7807 176.732C40.6157 176.681 40.4617 176.655 40.3187 176.655C40.0987 176.655 39.8897 176.712 39.6917 176.825C39.4937 176.939 39.3342 177.088 39.2132 177.271C39.0922 177.451 39.0317 177.645 39.0317 177.854V181H37.3432ZM45.6256 181.176C44.599 181.176 43.8583 180.972 43.4036 180.565C42.949 180.158 42.7216 179.493 42.7216 178.569V175.368H44.4101V178.173C44.4101 178.767 44.5018 179.187 44.6851 179.432C44.8721 179.678 45.1856 179.801 45.6256 179.801C46.073 179.801 46.3865 179.678 46.5661 179.432C46.7495 179.187 46.8411 178.767 46.8411 178.173V175.368H48.5296V178.569C48.5296 179.493 48.3023 180.158 47.8476 180.565C47.3966 180.972 46.656 181.176 45.6256 181.176ZM53.0187 181.176C52.5897 181.176 52.1845 181.099 51.8032 180.945C51.4255 180.791 51.0918 180.578 50.8022 180.307C50.5125 180.032 50.2852 179.715 50.1202 179.355C49.9552 178.992 49.8727 178.604 49.8727 178.189C49.8727 177.79 49.9497 177.41 50.1037 177.051C50.2613 176.692 50.4813 176.373 50.7637 176.094C51.0497 175.815 51.3833 175.595 51.7647 175.434C52.1497 175.273 52.5658 175.192 53.0132 175.192C53.3762 175.192 53.7245 175.243 54.0582 175.346C54.3955 175.449 54.6668 175.581 54.8722 175.742L54.2947 176.88C54.0197 176.679 53.6787 176.578 53.2717 176.578C52.9233 176.578 52.6282 176.655 52.3862 176.809C52.1442 176.963 51.959 177.163 51.8307 177.408C51.706 177.654 51.6437 177.913 51.6437 178.184C51.6437 178.481 51.7115 178.752 51.8472 178.998C51.9828 179.24 52.1735 179.432 52.4192 179.575C52.6685 179.718 52.9563 179.79 53.2827 179.79C53.4843 179.79 53.6732 179.762 53.8492 179.707C54.0252 179.652 54.1737 179.579 54.2947 179.487L54.8722 180.626C54.6632 180.784 54.3937 180.914 54.0637 181.017C53.7337 181.123 53.3853 181.176 53.0187 181.176ZM58.1265 181.176C57.5655 181.176 57.1291 180.998 56.8175 180.642C56.5058 180.283 56.35 179.783 56.35 179.141V176.649H55.5965V175.368H56.35V173.256H58.0385V175.368H59.276V176.649H58.0385V179.02C58.0385 179.233 58.0806 179.394 58.165 179.504C58.253 179.614 58.3758 179.669 58.5335 179.669C58.7095 179.669 58.8781 179.61 59.0395 179.493L59.463 180.846C59.2723 180.949 59.0578 181.029 58.8195 181.088C58.5848 181.147 58.3538 181.176 58.1265 181.176ZM60.9168 181V175.368H62.6053V181H60.9168ZM61.7638 174.196C61.5804 174.196 61.4118 174.152 61.2578 174.064C61.1074 173.973 60.9864 173.85 60.8948 173.696C60.8031 173.542 60.7573 173.373 60.7573 173.19C60.7573 173.007 60.8031 172.84 60.8948 172.689C60.9864 172.539 61.1074 172.42 61.2578 172.332C61.4118 172.24 61.5804 172.194 61.7638 172.194C61.9471 172.194 62.1139 172.24 62.2643 172.332C62.4146 172.42 62.5338 172.539 62.6218 172.689C62.7134 172.84 62.7593 173.007 62.7593 173.19C62.7593 173.373 62.7134 173.542 62.6218 173.696C62.5338 173.85 62.4146 173.973 62.2643 174.064C62.1139 174.152 61.9471 174.196 61.7638 174.196ZM67.4011 181.176C66.7814 181.176 66.2223 181.05 65.7236 180.796C65.2249 180.54 64.8289 180.188 64.5356 179.74C64.2423 179.289 64.0956 178.771 64.0956 178.184C64.0956 177.597 64.2404 177.08 64.5301 176.633C64.8234 176.182 65.2194 175.83 65.7181 175.577C66.2204 175.32 66.7814 175.192 67.4011 175.192C68.0244 175.192 68.5854 175.32 69.0841 175.577C69.5828 175.83 69.9769 176.182 70.2666 176.633C70.5599 177.08 70.7066 177.597 70.7066 178.184C70.7066 178.771 70.5599 179.289 70.2666 179.74C69.9769 180.188 69.5828 180.54 69.0841 180.796C68.5854 181.05 68.0244 181.176 67.4011 181.176ZM67.4066 179.735C67.6926 179.735 67.9529 179.669 68.1876 179.537C68.4223 179.405 68.6074 179.223 68.7431 178.992C68.8788 178.758 68.9466 178.488 68.9466 178.184C68.9466 177.88 68.8788 177.612 68.7431 177.381C68.6074 177.146 68.4223 176.963 68.1876 176.831C67.9529 176.699 67.6926 176.633 67.4066 176.633C67.1169 176.633 66.8548 176.699 66.6201 176.831C66.3891 176.963 66.2058 177.146 66.0701 177.381C65.9344 177.612 65.8666 177.88 65.8666 178.184C65.8666 178.488 65.9344 178.758 66.0701 178.992C66.2058 179.223 66.3891 179.405 66.6201 179.537C66.8548 179.669 67.1169 179.735 67.4066 179.735ZM72.1801 181V175.368H73.8686V175.995C74.0849 175.753 74.3544 175.559 74.6771 175.412C75.0034 175.265 75.3627 175.192 75.7551 175.192C76.1877 175.192 76.5672 175.287 76.8936 175.478C77.2236 175.665 77.4821 175.927 77.6691 176.264C77.8561 176.598 77.9496 176.989 77.9496 177.436V181H76.2611V177.793C76.2611 177.39 76.1547 177.077 75.9421 176.853C75.7331 176.626 75.4452 176.512 75.0786 176.512C74.8292 176.512 74.6129 176.563 74.4296 176.666C74.2499 176.765 74.1106 176.902 74.0116 177.078C73.9162 177.251 73.8686 177.447 73.8686 177.667V181H72.1801ZM82.6174 181L83.5194 171.925H85.4114L87.5784 177.601L89.7454 171.925H91.6374L92.5394 181H90.7574L90.1964 175.126L88.1229 180.774H87.0284L84.9604 175.126L84.3939 181H82.6174ZM97.0579 181.176C96.4493 181.176 95.9029 181.046 95.4189 180.785C94.9386 180.521 94.5573 180.164 94.2749 179.713C93.9926 179.262 93.8514 178.752 93.8514 178.184C93.8514 177.766 93.9303 177.375 94.0879 177.012C94.2493 176.649 94.4729 176.332 94.7589 176.061C95.0449 175.786 95.3768 175.573 95.7544 175.423C96.1321 175.269 96.5409 175.192 96.9809 175.192C97.5676 175.192 98.0809 175.315 98.5209 175.56C98.9646 175.802 99.3093 176.14 99.5549 176.572C99.8043 177.005 99.9289 177.509 99.9289 178.085C99.9289 178.133 99.9271 178.175 99.9234 178.211C99.9234 178.244 99.9179 178.309 99.9069 178.404H95.5894C95.5894 178.69 95.6536 178.939 95.7819 179.152C95.9139 179.365 96.0973 179.531 96.3319 179.652C96.5666 179.77 96.8398 179.828 97.1514 179.828C97.4448 179.828 97.7033 179.772 97.9269 179.658C98.1543 179.544 98.3724 179.363 98.5814 179.113L99.7969 179.724C99.5329 180.179 99.1589 180.534 98.6749 180.791C98.1909 181.048 97.6519 181.176 97.0579 181.176ZM95.6499 177.469H98.2679C98.2313 177.253 98.1524 177.066 98.0314 176.908C97.9141 176.75 97.7638 176.629 97.5804 176.545C97.3971 176.461 97.1899 176.418 96.9589 176.418C96.7133 176.418 96.4969 176.461 96.3099 176.545C96.1229 176.629 95.9726 176.75 95.8589 176.908C95.7453 177.066 95.6756 177.253 95.6499 177.469ZM101.431 181V175.368H103.12V175.995C103.398 175.716 103.675 175.513 103.95 175.384C104.225 175.256 104.522 175.192 104.841 175.192C105.274 175.192 105.664 175.289 106.013 175.483C106.361 175.678 106.61 175.938 106.761 176.264C107.036 175.909 107.331 175.641 107.646 175.461C107.961 175.282 108.323 175.192 108.73 175.192C109.137 175.192 109.498 175.276 109.813 175.445C110.128 175.614 110.376 175.854 110.556 176.165C110.739 176.473 110.831 176.838 110.831 177.26V181H109.142V177.722C109.142 177.355 109.047 177.067 108.856 176.858C108.665 176.646 108.411 176.539 108.092 176.539C107.872 176.539 107.677 176.585 107.509 176.677C107.344 176.769 107.213 176.891 107.118 177.045C107.023 177.199 106.975 177.37 106.975 177.557V181H105.287V177.689C105.287 177.341 105.193 177.062 105.006 176.853C104.823 176.644 104.568 176.539 104.242 176.539C104.025 176.539 103.831 176.585 103.659 176.677C103.49 176.769 103.358 176.893 103.263 177.051C103.167 177.209 103.12 177.383 103.12 177.573V181H101.431ZM115.537 181.176C114.917 181.176 114.358 181.05 113.859 180.796C113.361 180.54 112.965 180.188 112.671 179.74C112.378 179.289 112.231 178.771 112.231 178.184C112.231 177.597 112.376 177.08 112.666 176.633C112.959 176.182 113.355 175.83 113.854 175.577C114.356 175.32 114.917 175.192 115.537 175.192C116.16 175.192 116.721 175.32 117.22 175.577C117.718 175.83 118.113 176.182 118.402 176.633C118.696 177.08 118.842 177.597 118.842 178.184C118.842 178.771 118.696 179.289 118.402 179.74C118.113 180.188 117.718 180.54 117.22 180.796C116.721 181.05 116.16 181.176 115.537 181.176ZM115.542 179.735C115.828 179.735 116.089 179.669 116.323 179.537C116.558 179.405 116.743 179.223 116.879 178.992C117.014 178.758 117.082 178.488 117.082 178.184C117.082 177.88 117.014 177.612 116.879 177.381C116.743 177.146 116.558 176.963 116.323 176.831C116.089 176.699 115.828 176.633 115.542 176.633C115.253 176.633 114.99 176.699 114.756 176.831C114.525 176.963 114.341 177.146 114.206 177.381C114.07 177.612 114.002 177.88 114.002 178.184C114.002 178.488 114.07 178.758 114.206 178.992C114.341 179.223 114.525 179.405 114.756 179.537C114.99 179.669 115.253 179.735 115.542 179.735ZM120.316 181V175.368H122.004V176.176C122.213 175.861 122.468 175.619 122.769 175.45C123.073 175.278 123.399 175.192 123.748 175.192C123.946 175.192 124.151 175.221 124.364 175.28C124.576 175.339 124.754 175.414 124.897 175.505L124.193 176.93C124.069 176.846 123.922 176.78 123.753 176.732C123.588 176.681 123.434 176.655 123.291 176.655C123.071 176.655 122.862 176.712 122.664 176.825C122.466 176.939 122.307 177.088 122.186 177.271C122.065 177.451 122.004 177.645 122.004 177.854V181H120.316ZM125.606 183.86L127.427 180.296L124.748 175.368H126.684L128.411 178.668L129.907 175.368H131.843L127.537 183.86H125.606Z" fill="black"/>
<path d="M145.939 176.939C145.354 177.525 145.354 178.475 145.939 179.061L155.485 188.607C156.071 189.192 157.021 189.192 157.607 188.607C158.192 188.021 158.192 187.071 157.607 186.485L149.121 178L157.607 169.515C158.192 168.929 158.192 167.979 157.607 167.393C157.021 166.808 156.071 166.808 155.485 167.393L145.939 176.939ZM219.068 179.061C219.653 178.475 219.653 177.525 219.068 176.939L209.522 167.393C208.936 166.808 207.986 166.808 207.4 167.393C206.815 167.979 206.815 168.929 207.4 169.515L215.886 178L207.4 186.485C206.815 187.071 206.815 188.021 207.4 188.607C207.986 189.192 208.936 189.192 209.522 188.607L219.068 179.061ZM147 179.5H218.007V176.5H147V179.5Z" fill="black"/>
<path d="M364.939 176.939C364.354 177.525 364.354 178.475 364.939 179.061L374.485 188.607C375.071 189.192 376.021 189.192 376.607 188.607C377.192 188.021 377.192 187.071 376.607 186.485L368.121 178L376.607 169.515C377.192 168.929 377.192 167.979 376.607 167.393C376.021 166.808 375.071 166.808 374.485 167.393L364.939 176.939ZM439.068 179.061C439.653 178.475 439.653 177.525 439.068 176.939L429.522 167.393C428.936 166.808 427.986 166.808 427.4 167.393C426.815 167.979 426.815 168.929 427.4 169.515L435.886 178L427.4 186.485C426.815 187.071 426.815 188.021 427.4 188.607C427.986 189.192 428.936 189.192 429.522 188.607L439.068 179.061ZM366 179.5H438.007V176.5H366V179.5Z" fill="black"/>
<path d="M290.939 280.061C291.525 280.646 292.475 280.646 293.061 280.061L302.607 270.515C303.193 269.93 303.193 268.98 302.607 268.394C302.021 267.808 301.072 267.808 300.486 268.394L292 276.879L283.515 268.393C282.93 267.807 281.98 267.807 281.394 268.393C280.808 268.979 280.808 269.928 281.394 270.514L290.939 280.061ZM293.064 212.939C292.478 212.354 291.529 212.354 290.943 212.939L281.396 222.485C280.811 223.07 280.811 224.02 281.396 224.606C281.982 225.192 282.932 225.192 283.518 224.606L292.003 216.121L300.488 224.607C301.074 225.193 302.024 225.193 302.61 224.607C303.195 224.021 303.195 223.072 302.61 222.486L293.064 212.939ZM293.5 279L293.503 214L290.503 214L290.5 279L293.5 279Z" fill="black"/>
<path d="M293.939 143.067C294.525 143.653 295.475 143.653 296.061 143.067L305.607 133.522C306.192 132.936 306.192 131.986 305.607 131.4C305.021 130.814 304.071 130.814 303.485 131.4L295 139.886L286.515 131.4C285.929 130.814 284.979 130.814 284.393 131.4C283.808 131.986 283.808 132.936 284.393 133.522L293.939 143.067ZM296.061 68.9392C295.475 68.3534 294.525 68.3534 293.939 68.9392L284.393 78.4852C283.808 79.071 283.808 80.0207 284.393 80.6065C284.979 81.1923 285.929 81.1923 286.515 80.6065L295 72.1212L303.485 80.6065C304.071 81.1923 305.021 81.1923 305.607 80.6065C306.192 80.0207 306.192 79.071 305.607 78.4852L296.061 68.9392ZM296.5 142.007V69.9999H293.5V142.007H296.5Z" fill="black"/>
</svg>
