<svg width="222" height="174" viewBox="0 0 222 174" fill="none" xmlns="http://www.w3.org/2000/svg">
<path d="M0.999998 37.7754L0.999998 48.032L108.998 48.032L108.998 41.4618C108.998 40.3506 109.898 39.4599 111 39.4599C112.102 39.4599 113.002 40.3594 113.002 41.4618L113.002 48.032L221 48.032L221 37.7754C220.947 37.7754 220.894 37.7842 220.832 37.7842C218.248 37.7842 216.15 35.6853 216.15 33.1013C216.15 30.5173 218.248 28.4184 220.832 28.4184C220.885 28.4184 220.938 28.4272 221 28.4272L221 20.6047C220.947 20.6047 220.894 20.6136 220.832 20.6136C218.248 20.6136 216.15 18.5146 216.15 15.9306C216.15 13.3467 218.248 11.2477 220.832 11.2477C220.885 11.2477 220.938 11.2477 221 11.2566L221 1L1.00882 0.99999L1.00882 11.2565C3.44289 11.4329 5.36543 13.4525 5.36543 15.9306C5.36543 18.4088 3.44289 20.4284 1.00882 20.5959L1.00882 28.436C3.44289 28.6036 5.36543 30.632 5.36543 33.1013C5.36543 35.5707 3.44288 37.599 1.00882 37.7754L0.999998 37.7754ZM217.534 42.476C218.663 42.476 219.58 43.3931 219.58 44.522C219.58 45.6508 218.663 46.568 217.534 46.568C216.405 46.568 215.488 45.6508 215.488 44.522C215.488 43.3931 216.405 42.476 217.534 42.476ZM6.01803 44.522C6.01803 45.6508 5.10084 46.568 3.97201 46.568C2.84317 46.568 1.92598 45.6508 1.92598 44.522C1.92598 43.3931 2.84317 42.476 3.97201 42.476C5.10084 42.476 6.01803 43.3931 6.01803 44.522Z" fill="#008064" stroke="#45A36E" stroke-width="0.917449" stroke-miterlimit="10"/>
<path d="M214.025 48.0322L214.025 43.7902L212.112 43.7902L212.112 48.0322L214.025 48.0322Z" fill="#FDC57B"/>
<path d="M211.328 48.0323L211.328 43.7903L209.414 43.7903L209.414 48.0323L211.328 48.0323Z" fill="#FDC57B"/>
<path d="M208.629 48.0323L208.629 43.7903L206.715 43.7903L206.715 48.0323L208.629 48.0323Z" fill="#FDC57B"/>
<path d="M205.93 48.0323L205.93 43.7903L204.016 43.7903L204.016 48.0323L205.93 48.0323Z" fill="#FDC57B"/>
<path d="M203.223 48.0323L203.223 43.7903L201.309 43.7903L201.309 48.0323L203.223 48.0323Z" fill="#FDC57B"/>
<path d="M200.523 48.0323L200.523 43.7903L198.61 43.7903L198.61 48.0323L200.523 48.0323Z" fill="#FDC57B"/>
<path d="M197.824 48.0323L197.824 43.7903L195.91 43.7903L195.91 48.0323L197.824 48.0323Z" fill="#FDC57B"/>
<path d="M195.127 48.0323L195.127 43.7903L193.213 43.7903L193.213 48.0323L195.127 48.0323Z" fill="#FDC57B"/>
<path d="M192.428 48.0323L192.428 43.7903L190.514 43.7903L190.514 48.0323L192.428 48.0323Z" fill="#FDC57B"/>
<path d="M189.729 48.0323L189.729 43.7903L187.815 43.7903L187.815 48.0323L189.729 48.0323Z" fill="#FDC57B"/>
<path d="M187.031 48.0323L187.031 43.7903L185.118 43.7903L185.118 48.0323L187.031 48.0323Z" fill="#FDC57B"/>
<path d="M184.324 48.0323L184.324 43.7903L182.41 43.7903L182.41 48.0323L184.324 48.0323Z" fill="#FDC57B"/>
<path d="M181.625 48.0323L181.625 43.7903L179.711 43.7903L179.711 48.0323L181.625 48.0323Z" fill="#FDC57B"/>
<path d="M178.926 48.0323L178.926 43.7903L177.012 43.7903L177.012 48.0323L178.926 48.0323Z" fill="#FDC57B"/>
<path d="M176.227 48.0323L176.227 43.7903L174.313 43.7903L174.313 48.0323L176.227 48.0323Z" fill="#FDC57B"/>
<path d="M173.529 48.0323L173.529 43.7903L171.616 43.7903L171.616 48.0323L173.529 48.0323Z" fill="#FDC57B"/>
<path d="M170.83 48.0323L170.83 43.7903L168.916 43.7903L168.916 48.0323L170.83 48.0323Z" fill="#FDC57B"/>
<path d="M168.131 48.0323L168.131 43.7903L166.217 43.7903L166.217 48.0323L168.131 48.0323Z" fill="#FDC57B"/>
<path d="M165.424 48.0323L165.424 43.7903L163.51 43.7903L163.51 48.0323L165.424 48.0323Z" fill="#FDC57B"/>
<path d="M162.725 48.0323L162.725 43.7903L160.811 43.7903L160.811 48.0323L162.725 48.0323Z" fill="#FDC57B"/>
<path d="M160.025 48.0323L160.025 43.7903L158.112 43.7903L158.112 48.0323L160.025 48.0323Z" fill="#FDC57B"/>
<path d="M157.328 48.0323L157.328 43.7903L155.414 43.7903L155.414 48.0323L157.328 48.0323Z" fill="#FDC57B"/>
<path d="M154.629 48.0323L154.629 43.7903L152.715 43.7903L152.715 48.0323L154.629 48.0323Z" fill="#FDC57B"/>
<path d="M151.932 48.0323L151.932 43.7903L150.018 43.7903L150.018 48.0323L151.932 48.0323Z" fill="#FDC57B"/>
<path d="M149.232 48.0323L149.232 43.7903L147.319 43.7903L147.319 48.0323L149.232 48.0323Z" fill="#FDC57B"/>
<path d="M146.525 48.0323L146.525 43.7903L144.612 43.7903L144.612 48.0323L146.525 48.0323Z" fill="#FDC57B"/>
<path d="M143.826 48.0323L143.826 43.7903L141.912 43.7903L141.912 48.0323L143.826 48.0323Z" fill="#FDC57B"/>
<path d="M141.127 48.0323L141.127 43.7903L139.213 43.7903L139.213 48.0323L141.127 48.0323Z" fill="#FDC57B"/>
<path d="M138.428 48.0323L138.428 43.7903L136.514 43.7903L136.514 48.0323L138.428 48.0323Z" fill="#FDC57B"/>
<path d="M135.73 48.0323L135.73 43.7903L133.817 43.7903L133.817 48.0323L135.73 48.0323Z" fill="#FDC57B"/>
<path d="M133.031 48.0323L133.031 43.7903L131.118 43.7903L131.118 48.0323L133.031 48.0323Z" fill="#FDC57B"/>
<path d="M130.332 48.0323L130.332 43.7903L128.418 43.7903L128.418 48.0323L130.332 48.0323Z" fill="#FDC57B"/>
<path d="M127.625 48.0323L127.625 43.7903L125.711 43.7903L125.711 48.0323L127.625 48.0323Z" fill="#FDC57B"/>
<path d="M124.928 48.0323L124.928 43.7903L123.014 43.7903L123.014 48.0323L124.928 48.0323Z" fill="#FDC57B"/>
<path d="M122.229 48.0323L122.229 43.7903L120.315 43.7903L120.315 48.0323L122.229 48.0323Z" fill="#FDC57B"/>
<path d="M119.529 48.0323L119.529 43.7903L117.616 43.7903L117.616 48.0323L119.529 48.0323Z" fill="#FDC57B"/>
<path d="M116.83 48.0323L116.83 43.7903L114.916 43.7903L114.916 48.0323L116.83 48.0323Z" fill="#FDC57B"/>
<path d="M107.086 48.0323L107.086 43.7903L105.172 43.7903L105.172 48.0323L107.086 48.0323Z" fill="#FDC57B"/>
<path d="M104.389 48.0325L104.389 43.7905L102.475 43.7905L102.475 48.0325L104.389 48.0325Z" fill="#FDC57B"/>
<path d="M101.689 48.0325L101.689 43.7905L99.7757 43.7905L99.7757 48.0325L101.689 48.0325Z" fill="#FDC57B"/>
<path d="M98.9902 48.0325L98.9902 43.7905L97.0765 43.7905L97.0765 48.0325L98.9902 48.0325Z" fill="#FDC57B"/>
<path d="M96.291 48.0325L96.291 43.7905L94.3773 43.7905L94.3773 48.0325L96.291 48.0325Z" fill="#FDC57B"/>
<path d="M93.5937 48.0325L93.5938 43.7905L91.68 43.7905L91.68 48.0325L93.5937 48.0325Z" fill="#FDC57B"/>
<path d="M90.8945 48.0325L90.8945 43.7905L88.9808 43.7905L88.9808 48.0325L90.8945 48.0325Z" fill="#FDC57B"/>
<path d="M88.1875 48.0325L88.1875 43.7905L86.2738 43.7905L86.2738 48.0325L88.1875 48.0325Z" fill="#FDC57B"/>
<path d="M85.4883 48.0325L85.4883 43.7905L83.5746 43.7905L83.5746 48.0325L85.4883 48.0325Z" fill="#FDC57B"/>
<path d="M82.7891 48.0325L82.7891 43.7905L80.8753 43.7905L80.8753 48.0325L82.7891 48.0325Z" fill="#FDC57B"/>
<path d="M80.0898 48.0325L80.0898 43.7905L78.1761 43.7905L78.1761 48.0325L80.0898 48.0325Z" fill="#FDC57B"/>
<path d="M77.3926 48.0325L77.3926 43.7905L75.4789 43.7905L75.4789 48.0325L77.3926 48.0325Z" fill="#FDC57B"/>
<path d="M74.6934 48.0325L74.6934 43.7905L72.7796 43.7905L72.7796 48.0325L74.6934 48.0325Z" fill="#FDC57B"/>
<path d="M71.9961 48.0325L71.9961 43.7905L70.0823 43.7905L70.0823 48.0325L71.9961 48.0325Z" fill="#FDC57B"/>
<path d="M69.2871 48.0325L69.2871 43.7905L67.3734 43.7905L67.3734 48.0325L69.2871 48.0325Z" fill="#FDC57B"/>
<path d="M66.5898 48.0325L66.5898 43.7905L64.6761 43.7905L64.6761 48.0325L66.5898 48.0325Z" fill="#FDC57B"/>
<path d="M63.8906 48.0325L63.8906 43.7905L61.9769 43.7905L61.9769 48.0325L63.8906 48.0325Z" fill="#FDC57B"/>
<path d="M61.1914 48.0325L61.1914 43.7905L59.2777 43.7905L59.2777 48.0325L61.1914 48.0325Z" fill="#FDC57B"/>
<path d="M58.4922 48.0325L58.4922 43.7905L56.5784 43.7905L56.5784 48.0325L58.4922 48.0325Z" fill="#FDC57B"/>
<path d="M55.7949 48.0325L55.7949 43.7905L53.8812 43.7905L53.8812 48.0325L55.7949 48.0325Z" fill="#FDC57B"/>
<path d="M53.0957 48.0325L53.0957 43.7905L51.182 43.7905L51.182 48.0325L53.0957 48.0325Z" fill="#FDC57B"/>
<path d="M50.3887 48.0325L50.3887 43.7905L48.4749 43.7905L48.4749 48.0325L50.3887 48.0325Z" fill="#FDC57B"/>
<path d="M47.6895 48.0325L47.6895 43.7905L45.7757 43.7905L45.7757 48.0325L47.6895 48.0325Z" fill="#FDC57B"/>
<path d="M44.9922 48.0325L44.9922 43.7905L43.0784 43.7905L43.0784 48.0325L44.9922 48.0325Z" fill="#FDC57B"/>
<path d="M42.293 48.0325L42.293 43.7905L40.3792 43.7905L40.3792 48.0325L42.293 48.0325Z" fill="#FDC57B"/>
<path d="M39.5937 48.0325L39.5938 43.7905L37.68 43.7905L37.68 48.0325L39.5937 48.0325Z" fill="#FDC57B"/>
<path d="M36.8945 48.0325L36.8945 43.7905L34.9808 43.7905L34.9808 48.0325L36.8945 48.0325Z" fill="#FDC57B"/>
<path d="M34.1973 48.0325L34.1973 43.7905L32.2835 43.7905L32.2835 48.0325L34.1973 48.0325Z" fill="#FDC57B"/>
<path d="M31.4883 48.0325L31.4883 43.7905L29.5745 43.7905L29.5745 48.0325L31.4883 48.0325Z" fill="#FDC57B"/>
<path d="M28.791 48.0325L28.791 43.7905L26.8773 43.7905L26.8773 48.0325L28.791 48.0325Z" fill="#FDC57B"/>
<path d="M26.0918 48.0325L26.0918 43.7905L24.1781 43.7905L24.1781 48.0325L26.0918 48.0325Z" fill="#FDC57B"/>
<path d="M23.3926 48.0325L23.3926 43.7905L21.4788 43.7905L21.4788 48.0325L23.3926 48.0325Z" fill="#FDC57B"/>
<path d="M20.6953 48.0325L20.6953 43.7905L18.7816 43.7905L18.7816 48.0325L20.6953 48.0325Z" fill="#FDC57B"/>
<path d="M17.9961 48.0325L17.9961 43.7905L16.0824 43.7905L16.0824 48.0325L17.9961 48.0325Z" fill="#FDC57B"/>
<path d="M15.2969 48.0325L15.2969 43.7905L13.3832 43.7905L13.3832 48.0325L15.2969 48.0325Z" fill="#FDC57B"/>
<path d="M12.5898 48.0325L12.5898 43.7905L10.6761 43.7905L10.6761 48.0325L12.5898 48.0325Z" fill="#FDC57B"/>
<path d="M9.89062 48.0325L9.89062 43.7905L7.97691 43.7905L7.97691 48.0325L9.89062 48.0325Z" fill="#FDC57B"/>
<path d="M193.3 30.9846L211.238 30.9846L211.238 13.0467L193.3 13.0467L193.3 30.9846Z" fill="#33313B"/>
<path d="M193.927 30.3495L210.604 30.3495L210.604 13.6727L193.927 13.6727L193.927 30.3495Z" fill="#33313B" stroke="#112129" stroke-width="0.688087" stroke-miterlimit="10"/>
<path d="M207.994 28.7093C207.994 28.1978 208.408 27.7744 208.928 27.7744C209.449 27.7744 209.863 28.1889 209.863 28.7093C209.863 29.2296 209.449 29.6441 208.928 29.6441C208.408 29.6441 207.994 29.2296 207.994 28.7093Z" fill="#112129"/>
<path opacity="0.6" d="M192.322 39.4863L192.322 5.70934L212.217 5.70934L212.217 39.4863L192.322 39.4863ZM191.951 39.8567L212.588 39.8567L212.588 5.33893L191.951 5.33893L191.951 39.8567Z" fill="#F7FAFB"/>
<path opacity="0.6" d="M212.473 35.1036L212.588 35.4475L208.143 39.8659L207.702 39.8482L212.473 35.1036Z" fill="#F7FAFB"/>
<path opacity="0.6" d="M189.71 33.5342L189.71 30.8973L191.95 30.8973L191.95 33.5342L189.71 33.5342ZM189.419 33.8253L192.232 33.8253L192.232 30.6151L189.419 30.6151L189.419 33.8253Z" fill="#F7FAFB"/>
<path d="M190.204 33.2253L191.447 33.2253L191.447 31.197L190.204 31.197L190.204 33.2253Z" fill="#FDC57B"/>
<path opacity="0.6" d="M189.71 28.9744L189.71 26.3375L191.95 26.3375L191.95 28.9744L189.71 28.9744ZM189.419 29.2654L192.232 29.2654L192.232 26.0553L189.419 26.0553L189.419 29.2654Z" fill="#F7FAFB"/>
<path d="M190.204 28.6656L191.447 28.6656L191.447 26.6372L190.204 26.6372L190.204 28.6656Z" fill="#FDC57B"/>
<path opacity="0.6" d="M212.587 20.0583L212.587 17.4214L214.827 17.4214L214.827 20.0583L212.587 20.0583ZM212.296 20.3493L215.109 20.3493L215.109 17.1392L212.296 17.1392L212.296 20.3493Z" fill="#F7FAFB"/>
<path d="M213.081 19.7406L214.324 19.7406L214.324 17.7122L213.081 17.7122L213.081 19.7406Z" fill="#FDC57B"/>
<path opacity="0.6" d="M212.587 12.0682L212.587 9.43132L214.827 9.43132L214.827 12.0682L212.587 12.0682ZM212.296 12.3593L215.109 12.3593L215.109 9.14911L212.296 9.14911L212.296 12.3593Z" fill="#F7FAFB"/>
<path d="M213.081 11.7595L214.324 11.7595L214.324 9.73111L213.081 9.73111L213.081 11.7595Z" fill="#FDC57B"/>
<path d="M188.326 30.9757L188.326 13.0377L170.388 13.0377L170.388 30.9757L188.326 30.9757Z" fill="#33313B"/>
<path d="M187.691 30.3498L187.691 13.6729L171.015 13.6729L171.015 30.3498L187.691 30.3498Z" fill="#33313B" stroke="#112129" stroke-width="0.688087" stroke-miterlimit="10"/>
<path d="M185.082 28.7093C185.082 29.2256 185.5 29.6441 186.016 29.6441C186.533 29.6441 186.951 29.2256 186.951 28.7093C186.951 28.193 186.533 27.7745 186.016 27.7745C185.5 27.7745 185.082 28.193 185.082 28.7093Z" fill="#112129"/>
<path opacity="0.6" d="M169.4 39.4865L169.4 5.70958L189.296 5.70958L189.296 39.4865L169.4 39.4865ZM169.029 39.8569L189.666 39.8569L189.666 5.33917L169.029 5.33917L169.029 39.8569Z" fill="#F7FAFB"/>
<path opacity="0.6" d="M189.561 35.1036L189.676 35.4476L185.231 39.8659L184.781 39.8483L189.561 35.1036Z" fill="#F7FAFB"/>
<path opacity="0.6" d="M166.755 33.4544L166.755 30.8175L168.995 30.8175L168.995 33.4544L166.755 33.4544ZM166.464 33.7454L169.277 33.7454L169.277 30.5352L166.464 30.5352L166.464 33.7454Z" fill="#F7FAFB"/>
<path d="M168.502 33.154L168.502 31.1256L167.258 31.1256L167.258 33.154L168.502 33.154Z" fill="#FDC57B"/>
<path opacity="0.6" d="M166.755 28.8945L166.755 26.2576L168.995 26.2576L168.995 28.8945L166.755 28.8945ZM166.464 29.1855L169.277 29.1855L169.277 25.9753L166.464 25.9753L166.464 29.1855Z" fill="#F7FAFB"/>
<path d="M168.502 28.5951L168.502 26.5667L167.258 26.5667L167.258 28.5951L168.502 28.5951Z" fill="#FDC57B"/>
<path opacity="0.6" d="M189.675 20.0583L189.675 17.4214L191.915 17.4214L191.915 20.0583L189.675 20.0583ZM189.384 20.3494L192.197 20.3494L192.197 17.1392L189.384 17.1392L189.384 20.3494Z" fill="#F7FAFB"/>
<path d="M191.412 19.75L191.412 17.7216L190.169 17.7216L190.169 19.75L191.412 19.75Z" fill="#FDC57B"/>
<path opacity="0.6" d="M189.675 12.0682L189.675 9.43136L191.915 9.43136L191.915 12.0682L189.675 12.0682ZM189.384 12.3593L192.197 12.3593L192.197 9.14914L189.384 9.14914L189.384 12.3593Z" fill="#F7FAFB"/>
<path d="M191.412 11.76L191.412 9.73166L190.169 9.73166L190.169 11.76L191.412 11.76Z" fill="#FDC57B"/>
<path d="M165.406 30.9757L165.406 13.0377L147.468 13.0377L147.468 30.9757L165.406 30.9757Z" fill="#33313B"/>
<path d="M164.779 30.3498L164.779 13.6729L148.102 13.6729L148.102 30.3498L164.779 30.3498Z" fill="#33313B" stroke="#112129" stroke-width="0.688087" stroke-miterlimit="10"/>
<path d="M162.169 28.7093C162.169 28.1978 162.584 27.7745 163.104 27.7745C163.625 27.7745 164.039 28.189 164.039 28.7093C164.039 29.2296 163.625 29.6441 163.104 29.6441C162.584 29.6441 162.169 29.2296 162.169 28.7093Z" fill="#112129"/>
<path opacity="0.6" d="M146.49 39.4863L146.49 5.70937L166.385 5.70937L166.385 39.4863L146.49 39.4863ZM146.119 39.8567L166.756 39.8567L166.756 5.33896L146.119 5.33896L146.119 39.8567Z" fill="#F7FAFB"/>
<path opacity="0.6" d="M166.641 35.1036L166.756 35.4476L162.32 39.8659L161.87 39.8483L166.641 35.1036Z" fill="#F7FAFB"/>
<path opacity="0.6" d="M143.843 33.4544L143.843 30.8175L146.083 30.8175L146.083 33.4544L143.843 33.4544ZM143.552 33.7454L146.365 33.7454L146.365 30.5352L143.552 30.5352L143.552 33.7454Z" fill="#F7FAFB"/>
<path d="M145.58 33.154L145.58 31.1256L144.337 31.1256L144.337 33.154L145.58 33.154Z" fill="#FDC57B"/>
<path opacity="0.6" d="M143.843 28.8945L143.843 26.2576L146.083 26.2576L146.083 28.8945L143.843 28.8945ZM143.552 29.1855L146.365 29.1855L146.365 25.9753L143.552 25.9753L143.552 29.1855Z" fill="#F7FAFB"/>
<path d="M145.58 28.5951L145.58 26.5667L144.337 26.5667L144.337 28.5951L145.58 28.5951Z" fill="#FDC57B"/>
<path opacity="0.6" d="M166.755 20.0583L166.755 17.4214L168.995 17.4214L168.995 20.0583L166.755 20.0583ZM166.464 20.3494L169.277 20.3494L169.277 17.1392L166.464 17.1392L166.464 20.3494Z" fill="#F7FAFB"/>
<path d="M168.502 19.75L168.502 17.7216L167.258 17.7216L167.258 19.75L168.502 19.75Z" fill="#FDC57B"/>
<path opacity="0.6" d="M166.755 12.0682L166.755 9.43136L168.995 9.43136L168.995 12.0682L166.755 12.0682ZM166.464 12.3593L169.277 12.3593L169.277 9.14914L166.464 9.14914L166.464 12.3593Z" fill="#F7FAFB"/>
<path d="M168.502 11.76L168.502 9.73166L167.258 9.73166L167.258 11.76L168.502 11.76Z" fill="#FDC57B"/>
<path d="M124.556 30.9847L142.494 30.9847L142.494 13.0467L124.556 13.0467L124.556 30.9847Z" fill="#33313B"/>
<path d="M125.183 30.3495L141.859 30.3495L141.859 13.6727L125.183 13.6727L125.183 30.3495Z" fill="#33313B" stroke="#112129" stroke-width="0.688087" stroke-miterlimit="10"/>
<path d="M139.249 28.7093C139.249 28.1978 139.664 27.7745 140.184 27.7745C140.705 27.7745 141.119 28.189 141.119 28.7093C141.119 29.2296 140.705 29.6441 140.184 29.6441C139.664 29.6441 139.249 29.2296 139.249 28.7093Z" fill="#112129"/>
<path opacity="0.6" d="M123.578 39.4863L123.578 5.70937L143.473 5.70937L143.473 39.4863L123.578 39.4863ZM123.207 39.8567L143.844 39.8567L143.844 5.33896L123.207 5.33896L123.207 39.8567Z" fill="#F7FAFB"/>
<path opacity="0.6" d="M143.729 35.1036L143.844 35.4476L139.399 39.8659L138.958 39.8483L143.729 35.1036Z" fill="#F7FAFB"/>
<path opacity="0.6" d="M120.966 33.454L120.966 30.8171L123.206 30.8171L123.206 33.454L120.966 33.454ZM120.675 33.745L123.488 33.745L123.488 30.5349L120.675 30.5349L120.675 33.745Z" fill="#F7FAFB"/>
<path d="M121.46 33.1539L122.703 33.1539L122.703 31.1255L121.46 31.1255L121.46 33.1539Z" fill="#FDC57B"/>
<path opacity="0.6" d="M120.966 28.8943L120.966 26.2573L123.206 26.2573L123.206 28.8943L120.966 28.8943ZM120.675 29.1853L123.488 29.1853L123.488 25.9751L120.675 25.9751L120.675 29.1853Z" fill="#F7FAFB"/>
<path d="M121.46 28.5941L122.703 28.5941L122.703 26.5658L121.46 26.5658L121.46 28.5941Z" fill="#FDC57B"/>
<path opacity="0.6" d="M120.966 17.0239L120.966 14.387L123.206 14.387L123.206 17.0239L120.966 17.0239ZM120.675 17.315L123.488 17.315L123.488 14.1048L120.675 14.1048L120.675 17.315Z" fill="#F7FAFB"/>
<path d="M121.46 16.7149L122.703 16.7149L122.703 14.6865L121.46 14.6865L121.46 16.7149Z" fill="#FDC57B"/>
<path opacity="0.6" d="M143.843 20.0583L143.843 17.4214L146.083 17.4214L146.083 20.0583L143.843 20.0583ZM143.552 20.3494L146.365 20.3494L146.365 17.1392L143.552 17.1392L143.552 20.3494Z" fill="#F7FAFB"/>
<path d="M144.337 19.7495L145.58 19.7495L145.58 17.7211L144.337 17.7211L144.337 19.7495Z" fill="#FDC57B"/>
<path opacity="0.6" d="M143.843 12.0682L143.843 9.43136L146.083 9.43136L146.083 12.0682L143.843 12.0682ZM143.552 12.3593L146.365 12.3593L146.365 9.14914L143.552 9.14914L143.552 12.3593Z" fill="#F7FAFB"/>
<path d="M144.337 11.7595L145.58 11.7595L145.58 9.73114L144.337 9.73114L144.337 11.7595Z" fill="#FDC57B"/>
<path d="M10.5347 30.9847L28.4727 30.9847L28.4727 13.0468L10.5347 13.0468L10.5347 30.9847Z" fill="#33313B"/>
<path d="M11.1611 30.3495L27.8379 30.3495L27.8379 13.6727L11.1611 13.6727L11.1611 30.3495Z" fill="#33313B" stroke="#112129" stroke-width="0.688087" stroke-miterlimit="10"/>
<path d="M25.228 28.7093C25.228 28.1978 25.6425 27.7745 26.1628 27.7745C26.6832 27.7745 27.0977 28.189 27.0977 28.7093C27.0977 29.2296 26.6832 29.6441 26.1628 29.6441C25.6425 29.6441 25.228 29.2296 25.228 28.7093Z" fill="#112129"/>
<path opacity="0.6" d="M9.55611 39.4863L9.55611 5.7094L29.4519 5.7094L29.4519 39.4863L9.55611 39.4863ZM9.18569 39.8568L29.8223 39.8568L29.8223 5.33899L9.1857 5.33899L9.18569 39.8568Z" fill="#F7FAFB"/>
<path opacity="0.6" d="M29.7076 35.1036L29.8223 35.4476L25.3863 39.8659L24.9365 39.8483L29.7076 35.1036Z" fill="#F7FAFB"/>
<path opacity="0.6" d="M32.0625 33.5343L29.8225 33.5343L29.8225 30.8974L32.0625 30.8974L32.0625 33.5343ZM32.3535 33.8253L32.3535 30.6152L29.5403 30.6152L29.5403 33.8253L32.3535 33.8253Z" fill="#F7FAFB"/>
<path d="M31.5599 31.2055L30.3164 31.2055L30.3164 33.2339L31.5599 33.2339L31.5599 31.2055Z" fill="#FDC57B"/>
<path opacity="0.6" d="M32.0625 28.9745L29.8225 28.9745L29.8225 26.3375L32.0625 26.3375L32.0625 28.9745ZM32.3535 29.2655L32.3535 26.0554L29.5403 26.0554L29.5403 29.2655L32.3535 29.2655Z" fill="#F7FAFB"/>
<path d="M31.5599 26.6466L30.3164 26.6466L30.3164 28.675L31.5599 28.675L31.5599 26.6466Z" fill="#FDC57B"/>
<path opacity="0.6" d="M9.18552 20.0584L6.94547 20.0584L6.94547 17.4215L9.18552 17.4215L9.18552 20.0584ZM9.47656 20.3494L9.47656 17.1393L6.66328 17.1393L6.66328 20.3494L9.47656 20.3494Z" fill="#F7FAFB"/>
<path d="M8.69073 17.7216L7.44727 17.7216L7.44727 19.75L8.69073 19.75L8.69073 17.7216Z" fill="#FDC57B"/>
<path opacity="0.6" d="M9.18552 12.0683L6.94547 12.0683L6.94547 9.43139L9.18552 9.43139L9.18552 12.0683ZM9.47656 12.3593L9.47656 9.14917L6.66328 9.14917L6.66328 12.3593L9.47656 12.3593Z" fill="#F7FAFB"/>
<path d="M8.69075 9.73169L7.44727 9.73169L7.44727 11.7601L8.69075 11.7601L8.69075 9.73169Z" fill="#FDC57B"/>
<path d="M51.3848 30.9757L51.3848 13.0378L33.4468 13.0377L33.4468 30.9757L51.3848 30.9757Z" fill="#33313B"/>
<path d="M50.7578 30.3498L50.7578 13.673L34.081 13.673L34.081 30.3498L50.7578 30.3498Z" fill="#33313B" stroke="#112129" stroke-width="0.688087" stroke-miterlimit="10"/>
<path d="M48.1479 28.7093C48.1479 28.1978 48.5624 27.7745 49.0828 27.7745C49.6031 27.7745 50.0176 28.189 50.0176 28.7093C50.0176 29.2296 49.6031 29.6441 49.0828 29.6441C48.5624 29.6441 48.1479 29.2296 48.1479 28.7093Z" fill="#112129"/>
<path opacity="0.6" d="M32.4682 39.4863L32.4682 5.7094L52.364 5.7094L52.364 39.4863L32.4682 39.4863ZM32.0978 39.8568L52.7344 39.8568L52.7344 5.33899L32.0978 5.33899L32.0978 39.8568Z" fill="#F7FAFB"/>
<path opacity="0.6" d="M52.6286 35.1036L52.7344 35.4476L48.2984 39.8659L47.8486 39.8483L52.6286 35.1036Z" fill="#F7FAFB"/>
<path opacity="0.6" d="M55.0097 33.4544L52.7697 33.4544L52.7697 30.8175L55.0097 30.8175L55.0097 33.4544ZM55.3008 33.7454L55.3008 30.5353L52.4875 30.5353L52.4875 33.7454L55.3008 33.7454Z" fill="#F7FAFB"/>
<path d="M54.5156 33.154L54.5156 31.1256L53.2721 31.1256L53.2721 33.154L54.5156 33.154Z" fill="#FDC57B"/>
<path opacity="0.6" d="M55.0097 28.8945L52.7697 28.8945L52.7697 26.2576L55.0097 26.2576L55.0097 28.8945ZM55.3008 29.1855L55.3008 25.9754L52.4875 25.9754L52.4875 29.1855L55.3008 29.1855Z" fill="#F7FAFB"/>
<path d="M54.5156 28.5951L54.5156 26.5667L53.2721 26.5667L53.2721 28.5951L54.5156 28.5951Z" fill="#FDC57B"/>
<path opacity="0.6" d="M32.0977 20.0584L29.8576 20.0584L29.8576 17.4215L32.0977 17.4215L32.0977 20.0584ZM32.3887 20.3494L32.3887 17.1393L29.5754 17.1393L29.5754 20.3494L32.3887 20.3494Z" fill="#F7FAFB"/>
<path d="M31.6035 19.75L31.6035 17.7216L30.36 17.7216L30.36 19.75L31.6035 19.75Z" fill="#FDC57B"/>
<path opacity="0.6" d="M32.0977 12.0683L29.8576 12.0683L29.8576 9.43139L32.0977 9.43139L32.0977 12.0683ZM32.3887 12.3593L32.3887 9.14917L29.5754 9.14917L29.5754 12.3593L32.3887 12.3593Z" fill="#F7FAFB"/>
<path d="M31.6035 11.7601L31.6035 9.73169L30.36 9.73169L30.36 11.7601L31.6035 11.7601Z" fill="#FDC57B"/>
<path d="M74.3047 30.9757L74.3047 13.0378L56.3667 13.0377L56.3667 30.9757L74.3047 30.9757Z" fill="#33313B"/>
<path d="M73.6699 30.3498L73.6699 13.673L56.9931 13.673L56.9931 30.3498L73.6699 30.3498Z" fill="#33313B" stroke="#112129" stroke-width="0.688087" stroke-miterlimit="10"/>
<path d="M71.0601 28.7093C71.0601 28.1978 71.4745 27.7745 71.9949 27.7745C72.5152 27.7745 72.9297 28.189 72.9297 28.7093C72.9297 29.2296 72.5152 29.6441 71.9949 29.6441C71.4745 29.6441 71.0601 29.2296 71.0601 28.7093Z" fill="#112129"/>
<path opacity="0.6" d="M55.3783 39.4866L55.3783 5.70961L75.2741 5.70961L75.2741 39.4866L55.3783 39.4866ZM55.0079 39.857L75.6445 39.857L75.6445 5.3392L55.0079 5.3392L55.0079 39.857Z" fill="#F7FAFB"/>
<path opacity="0.6" d="M75.5396 35.1036L75.6543 35.4476L71.2095 39.8659L70.7597 39.8483L75.5396 35.1036Z" fill="#F7FAFB"/>
<path opacity="0.6" d="M77.9297 33.4544L75.6896 33.4544L75.6896 30.8175L77.9297 30.8175L77.9297 33.4544ZM78.2207 33.7454L78.2207 30.5353L75.4074 30.5353L75.4074 33.7454L78.2207 33.7454Z" fill="#F7FAFB"/>
<path d="M77.4277 33.154L77.4277 31.1256L76.1842 31.1256L76.1842 33.154L77.4277 33.154Z" fill="#FDC57B"/>
<path opacity="0.6" d="M77.9297 28.8945L75.6896 28.8945L75.6896 26.2576L77.9297 26.2576L77.9297 28.8945ZM78.2207 29.1855L78.2207 25.9754L75.4074 25.9754L75.4074 29.1855L78.2207 29.1855Z" fill="#F7FAFB"/>
<path d="M77.4277 28.5951L77.4277 26.5667L76.1842 26.5667L76.1842 28.5951L77.4277 28.5951Z" fill="#FDC57B"/>
<path opacity="0.6" d="M55.0078 20.0584L52.7678 20.0584L52.7678 17.4215L55.0078 17.4215L55.0078 20.0584ZM55.2988 20.3494L55.2988 17.1393L52.4855 17.1393L52.4855 20.3494L55.2988 20.3494Z" fill="#F7FAFB"/>
<path d="M54.5137 19.75L54.5137 17.7216L53.2702 17.7216L53.2702 19.75L54.5137 19.75Z" fill="#FDC57B"/>
<path opacity="0.6" d="M55.0078 12.0683L52.7678 12.0683L52.7678 9.43139L55.0078 9.43139L55.0078 12.0683ZM55.2988 12.3593L55.2988 9.14917L52.4855 9.14917L52.4855 12.3593L55.2988 12.3593Z" fill="#F7FAFB"/>
<path d="M54.5137 11.7601L54.5137 9.73169L53.2702 9.73169L53.2702 11.7601L54.5137 11.7601Z" fill="#FDC57B"/>
<path d="M79.2789 30.9847L97.2168 30.9847L97.2168 13.0467L79.2789 13.0467L79.2789 30.9847Z" fill="#33313B"/>
<path d="M79.9052 30.3495L96.582 30.3495L96.582 13.6727L79.9052 13.6727L79.9052 30.3495Z" fill="#33313B" stroke="#112129" stroke-width="0.688087" stroke-miterlimit="10"/>
<path d="M93.9722 28.7093C93.9722 28.1978 94.3867 27.7745 94.907 27.7745C95.4273 27.7745 95.8418 28.189 95.8418 28.7093C95.8418 29.2296 95.4273 29.6441 94.907 29.6441C94.3867 29.6441 93.9722 29.2296 93.9722 28.7093Z" fill="#112129"/>
<path opacity="0.6" d="M78.3002 39.4865L78.3002 5.70958L98.196 5.70958L98.196 39.4865L78.3002 39.4865ZM77.9298 39.8569L98.5664 39.8569L98.5664 5.33917L77.9298 5.33917L77.9298 39.8569Z" fill="#F7FAFB"/>
<path opacity="0.6" d="M98.4518 35.1036L98.5664 35.4476L94.1216 39.8659L93.6806 39.8483L98.4518 35.1036Z" fill="#F7FAFB"/>
<path opacity="0.6" d="M100.807 33.454L98.5666 33.454L98.5666 30.8171L100.807 30.8171L100.807 33.454ZM101.098 33.745L101.098 30.5349L98.2844 30.5349L98.2844 33.745L101.098 33.745Z" fill="#F7FAFB"/>
<path d="M100.304 31.1164L99.0605 31.1164L99.0605 33.1448L100.304 33.1448L100.304 31.1164Z" fill="#FDC57B"/>
<path opacity="0.6" d="M100.807 28.8943L98.5666 28.8943L98.5666 26.2574L100.807 26.2574L100.807 28.8943ZM101.098 29.1853L101.098 25.9752L98.2844 25.9752L98.2844 29.1853L101.098 29.1853Z" fill="#F7FAFB"/>
<path d="M100.304 26.5575L99.0605 26.5575L99.0605 28.5859L100.304 28.5859L100.304 26.5575Z" fill="#FDC57B"/>
<path opacity="0.6" d="M100.807 17.024L98.5666 17.024L98.5666 14.3871L100.807 14.3871L100.807 17.024ZM101.098 17.315L101.098 14.1049L98.2844 14.1049L98.2844 17.315L101.098 17.315Z" fill="#F7FAFB"/>
<path d="M100.312 14.687L99.0684 14.687L99.0684 16.7154L100.312 16.7154L100.312 14.687Z" fill="#FDC57B"/>
<path opacity="0.6" d="M77.9297 20.0583L75.6896 20.0583L75.6896 17.4214L77.9297 17.4214L77.9297 20.0583ZM78.2207 20.3494L78.2207 17.1392L75.4074 17.1392L75.4074 20.3494L78.2207 20.3494Z" fill="#F7FAFB"/>
<path d="M77.4349 17.7216L76.1914 17.7216L76.1914 19.75L77.4349 19.75L77.4349 17.7216Z" fill="#FDC57B"/>
<path opacity="0.6" d="M77.9297 12.0682L75.6896 12.0682L75.6896 9.43136L77.9297 9.43136L77.9297 12.0682ZM78.2207 12.3593L78.2207 9.14914L75.4074 9.14914L75.4074 12.3593L78.2207 12.3593Z" fill="#F7FAFB"/>
<path d="M77.4349 9.73166L76.1914 9.73166L76.1914 11.7601L77.4349 11.7601L77.4349 9.73166Z" fill="#FDC57B"/>
<path d="M0.999998 73.8572L0.999998 63.6007L108.998 63.6007L108.998 70.1708C108.998 71.282 109.898 72.1728 111 72.1728C112.102 72.1728 113.002 71.2732 113.002 70.1708L113.002 63.6007L221 63.6007L221 73.8572C220.947 73.8572 220.894 73.8484 220.832 73.8484C218.248 73.8484 216.15 75.9473 216.15 78.5313C216.15 81.1153 218.248 83.2142 220.832 83.2142C220.885 83.2142 220.938 83.2054 221 83.2054L221 91.0279C220.947 91.0279 220.894 91.0191 220.832 91.0191C218.248 91.0191 216.15 93.118 216.15 95.702C216.15 98.286 218.248 100.385 220.832 100.385C220.885 100.385 220.938 100.385 221 100.376L221 110.633L1.00882 110.633L1.00882 100.376C3.44289 100.2 5.36543 98.1801 5.36543 95.702C5.36543 93.2238 3.44289 91.2043 1.00882 91.0367L1.00882 83.1966C3.44289 83.029 5.36543 81.0006 5.36543 78.5313C5.36543 76.062 3.44288 74.0336 1.00882 73.8572L0.999998 73.8572ZM217.534 69.1566C218.663 69.1566 219.58 68.2395 219.58 67.1106C219.58 65.9818 218.663 65.0646 217.534 65.0646C216.405 65.0646 215.488 65.9818 215.488 67.1106C215.488 68.2395 216.405 69.1566 217.534 69.1566ZM6.01803 67.1107C6.01803 65.9818 5.10084 65.0646 3.97201 65.0646C2.84317 65.0646 1.92598 65.9818 1.92598 67.1107C1.92598 68.2395 2.84317 69.1567 3.97201 69.1567C5.10084 69.1567 6.01803 68.2395 6.01803 67.1107Z" fill="#008064" stroke="#45A36E" stroke-width="0.917449" stroke-miterlimit="10"/>
<path d="M214.025 63.6002L214.025 67.8422L212.112 67.8422L212.112 63.6002L214.025 63.6002Z" fill="#FDC57B"/>
<path d="M211.328 63.6003L211.328 67.8422L209.414 67.8422L209.414 63.6003L211.328 63.6003Z" fill="#FDC57B"/>
<path d="M208.629 63.6003L208.629 67.8422L206.715 67.8422L206.715 63.6003L208.629 63.6003Z" fill="#FDC57B"/>
<path d="M205.93 63.6003L205.93 67.8422L204.016 67.8422L204.016 63.6003L205.93 63.6003Z" fill="#FDC57B"/>
<path d="M203.223 63.6003L203.223 67.8422L201.309 67.8422L201.309 63.6003L203.223 63.6003Z" fill="#FDC57B"/>
<path d="M200.523 63.6003L200.523 67.8422L198.61 67.8422L198.61 63.6003L200.523 63.6003Z" fill="#FDC57B"/>
<path d="M197.824 63.6003L197.824 67.8422L195.91 67.8422L195.91 63.6003L197.824 63.6003Z" fill="#FDC57B"/>
<path d="M195.127 63.6003L195.127 67.8422L193.213 67.8422L193.213 63.6003L195.127 63.6003Z" fill="#FDC57B"/>
<path d="M192.428 63.6003L192.428 67.8422L190.514 67.8422L190.514 63.6003L192.428 63.6003Z" fill="#FDC57B"/>
<path d="M189.729 63.6003L189.729 67.8422L187.815 67.8422L187.815 63.6003L189.729 63.6003Z" fill="#FDC57B"/>
<path d="M187.031 63.6003L187.031 67.8422L185.118 67.8422L185.118 63.6003L187.031 63.6003Z" fill="#FDC57B"/>
<path d="M184.324 63.6003L184.324 67.8422L182.41 67.8422L182.41 63.6003L184.324 63.6003Z" fill="#FDC57B"/>
<path d="M181.625 63.6003L181.625 67.8422L179.711 67.8422L179.711 63.6003L181.625 63.6003Z" fill="#FDC57B"/>
<path d="M178.926 63.6003L178.926 67.8422L177.012 67.8422L177.012 63.6003L178.926 63.6003Z" fill="#FDC57B"/>
<path d="M176.227 63.6003L176.227 67.8422L174.313 67.8422L174.313 63.6003L176.227 63.6003Z" fill="#FDC57B"/>
<path d="M173.529 63.6003L173.529 67.8422L171.616 67.8422L171.616 63.6003L173.529 63.6003Z" fill="#FDC57B"/>
<path d="M170.83 63.6003L170.83 67.8422L168.916 67.8422L168.916 63.6003L170.83 63.6003Z" fill="#FDC57B"/>
<path d="M168.131 63.6003L168.131 67.8422L166.217 67.8422L166.217 63.6003L168.131 63.6003Z" fill="#FDC57B"/>
<path d="M165.424 63.6003L165.424 67.8422L163.51 67.8422L163.51 63.6003L165.424 63.6003Z" fill="#FDC57B"/>
<path d="M162.725 63.6003L162.725 67.8422L160.811 67.8422L160.811 63.6003L162.725 63.6003Z" fill="#FDC57B"/>
<path d="M160.025 63.6003L160.025 67.8422L158.112 67.8422L158.112 63.6003L160.025 63.6003Z" fill="#FDC57B"/>
<path d="M157.328 63.6003L157.328 67.8422L155.414 67.8422L155.414 63.6003L157.328 63.6003Z" fill="#FDC57B"/>
<path d="M154.629 63.6003L154.629 67.8422L152.715 67.8422L152.715 63.6003L154.629 63.6003Z" fill="#FDC57B"/>
<path d="M151.932 63.6003L151.932 67.8422L150.018 67.8422L150.018 63.6003L151.932 63.6003Z" fill="#FDC57B"/>
<path d="M149.232 63.6003L149.232 67.8422L147.319 67.8422L147.319 63.6003L149.232 63.6003Z" fill="#FDC57B"/>
<path d="M146.525 63.6003L146.525 67.8422L144.612 67.8422L144.612 63.6003L146.525 63.6003Z" fill="#FDC57B"/>
<path d="M143.826 63.6003L143.826 67.8422L141.912 67.8422L141.912 63.6003L143.826 63.6003Z" fill="#FDC57B"/>
<path d="M141.127 63.6003L141.127 67.8422L139.213 67.8422L139.213 63.6003L141.127 63.6003Z" fill="#FDC57B"/>
<path d="M138.428 63.6003L138.428 67.8422L136.514 67.8422L136.514 63.6003L138.428 63.6003Z" fill="#FDC57B"/>
<path d="M135.73 63.6003L135.73 67.8422L133.817 67.8422L133.817 63.6003L135.73 63.6003Z" fill="#FDC57B"/>
<path d="M133.031 63.6003L133.031 67.8422L131.118 67.8422L131.118 63.6003L133.031 63.6003Z" fill="#FDC57B"/>
<path d="M130.332 63.6003L130.332 67.8422L128.418 67.8422L128.418 63.6003L130.332 63.6003Z" fill="#FDC57B"/>
<path d="M127.625 63.6003L127.625 67.8422L125.711 67.8422L125.711 63.6003L127.625 63.6003Z" fill="#FDC57B"/>
<path d="M124.928 63.6003L124.928 67.8422L123.014 67.8422L123.014 63.6003L124.928 63.6003Z" fill="#FDC57B"/>
<path d="M122.229 63.6003L122.229 67.8422L120.315 67.8422L120.315 63.6003L122.229 63.6003Z" fill="#FDC57B"/>
<path d="M119.529 63.6003L119.529 67.8422L117.616 67.8422L117.616 63.6003L119.529 63.6003Z" fill="#FDC57B"/>
<path d="M116.83 63.6003L116.83 67.8422L114.916 67.8422L114.916 63.6003L116.83 63.6003Z" fill="#FDC57B"/>
<path d="M107.086 63.6003L107.086 67.8422L105.172 67.8422L105.172 63.6003L107.086 63.6003Z" fill="#FDC57B"/>
<path d="M104.389 63.6003L104.389 67.8423L102.475 67.8423L102.475 63.6003L104.389 63.6003Z" fill="#FDC57B"/>
<path d="M101.689 63.6003L101.689 67.8423L99.7757 67.8423L99.7757 63.6003L101.689 63.6003Z" fill="#FDC57B"/>
<path d="M98.9902 63.6003L98.9902 67.8423L97.0765 67.8423L97.0765 63.6003L98.9902 63.6003Z" fill="#FDC57B"/>
<path d="M96.291 63.6003L96.291 67.8423L94.3773 67.8423L94.3773 63.6003L96.291 63.6003Z" fill="#FDC57B"/>
<path d="M93.5937 63.6003L93.5938 67.8423L91.68 67.8423L91.68 63.6003L93.5937 63.6003Z" fill="#FDC57B"/>
<path d="M90.8945 63.6003L90.8945 67.8423L88.9808 67.8423L88.9808 63.6003L90.8945 63.6003Z" fill="#FDC57B"/>
<path d="M88.1875 63.6003L88.1875 67.8423L86.2738 67.8423L86.2738 63.6003L88.1875 63.6003Z" fill="#FDC57B"/>
<path d="M85.4883 63.6003L85.4883 67.8423L83.5746 67.8423L83.5746 63.6003L85.4883 63.6003Z" fill="#FDC57B"/>
<path d="M82.7891 63.6003L82.7891 67.8423L80.8753 67.8423L80.8753 63.6003L82.7891 63.6003Z" fill="#FDC57B"/>
<path d="M80.0898 63.6003L80.0898 67.8423L78.1761 67.8423L78.1761 63.6003L80.0898 63.6003Z" fill="#FDC57B"/>
<path d="M77.3926 63.6003L77.3926 67.8423L75.4789 67.8423L75.4789 63.6003L77.3926 63.6003Z" fill="#FDC57B"/>
<path d="M74.6934 63.6003L74.6934 67.8423L72.7796 67.8423L72.7796 63.6003L74.6934 63.6003Z" fill="#FDC57B"/>
<path d="M71.9961 63.6003L71.9961 67.8423L70.0823 67.8423L70.0823 63.6003L71.9961 63.6003Z" fill="#FDC57B"/>
<path d="M69.2871 63.6003L69.2871 67.8423L67.3734 67.8423L67.3734 63.6003L69.2871 63.6003Z" fill="#FDC57B"/>
<path d="M66.5898 63.6003L66.5898 67.8423L64.6761 67.8423L64.6761 63.6003L66.5898 63.6003Z" fill="#FDC57B"/>
<path d="M63.8906 63.6003L63.8906 67.8423L61.9769 67.8423L61.9769 63.6003L63.8906 63.6003Z" fill="#FDC57B"/>
<path d="M61.1914 63.6003L61.1914 67.8423L59.2777 67.8423L59.2777 63.6003L61.1914 63.6003Z" fill="#FDC57B"/>
<path d="M58.4922 63.6003L58.4922 67.8423L56.5784 67.8423L56.5784 63.6003L58.4922 63.6003Z" fill="#FDC57B"/>
<path d="M55.7949 63.6003L55.7949 67.8423L53.8812 67.8423L53.8812 63.6003L55.7949 63.6003Z" fill="#FDC57B"/>
<path d="M53.0957 63.6003L53.0957 67.8423L51.182 67.8423L51.182 63.6003L53.0957 63.6003Z" fill="#FDC57B"/>
<path d="M50.3887 63.6003L50.3887 67.8423L48.4749 67.8423L48.4749 63.6003L50.3887 63.6003Z" fill="#FDC57B"/>
<path d="M47.6895 63.6003L47.6895 67.8423L45.7757 67.8423L45.7757 63.6003L47.6895 63.6003Z" fill="#FDC57B"/>
<path d="M44.9922 63.6003L44.9922 67.8423L43.0784 67.8423L43.0784 63.6003L44.9922 63.6003Z" fill="#FDC57B"/>
<path d="M42.293 63.6003L42.293 67.8423L40.3792 67.8423L40.3792 63.6003L42.293 63.6003Z" fill="#FDC57B"/>
<path d="M39.5937 63.6003L39.5938 67.8423L37.68 67.8423L37.68 63.6003L39.5937 63.6003Z" fill="#FDC57B"/>
<path d="M36.8945 63.6003L36.8945 67.8423L34.9808 67.8423L34.9808 63.6003L36.8945 63.6003Z" fill="#FDC57B"/>
<path d="M34.1973 63.6003L34.1973 67.8423L32.2835 67.8423L32.2835 63.6003L34.1973 63.6003Z" fill="#FDC57B"/>
<path d="M31.4883 63.6003L31.4883 67.8423L29.5745 67.8423L29.5745 63.6003L31.4883 63.6003Z" fill="#FDC57B"/>
<path d="M28.791 63.6003L28.791 67.8423L26.8773 67.8423L26.8773 63.6003L28.791 63.6003Z" fill="#FDC57B"/>
<path d="M26.0918 63.6003L26.0918 67.8423L24.1781 67.8423L24.1781 63.6003L26.0918 63.6003Z" fill="#FDC57B"/>
<path d="M23.3926 63.6003L23.3926 67.8423L21.4788 67.8423L21.4788 63.6003L23.3926 63.6003Z" fill="#FDC57B"/>
<path d="M20.6953 63.6003L20.6953 67.8423L18.7816 67.8423L18.7816 63.6003L20.6953 63.6003Z" fill="#FDC57B"/>
<path d="M17.9961 63.6003L17.9961 67.8423L16.0824 67.8423L16.0824 63.6003L17.9961 63.6003Z" fill="#FDC57B"/>
<path d="M15.2969 63.6003L15.2969 67.8423L13.3832 67.8423L13.3832 63.6003L15.2969 63.6003Z" fill="#FDC57B"/>
<path d="M12.5898 63.6003L12.5898 67.8423L10.6761 67.8423L10.6761 63.6003L12.5898 63.6003Z" fill="#FDC57B"/>
<path d="M9.89062 63.6003L9.89062 67.8423L7.97691 67.8423L7.97691 63.6003L9.89062 63.6003Z" fill="#FDC57B"/>
<path d="M193.3 80.6482L211.238 80.6482L211.238 98.5861L193.3 98.5861L193.3 80.6482Z" fill="#33313B"/>
<path d="M193.927 81.2833L210.604 81.2833L210.604 97.9601L193.927 97.9602L193.927 81.2833Z" fill="#33313B" stroke="#112129" stroke-width="0.688087" stroke-miterlimit="10"/>
<path d="M207.994 82.9236C207.994 83.4351 208.408 83.8584 208.928 83.8584C209.449 83.8584 209.863 83.4439 209.863 82.9236C209.863 82.4032 209.449 81.9887 208.928 81.9887C208.408 81.9887 207.994 82.4032 207.994 82.9236Z" fill="#112129"/>
<path opacity="0.6" d="M192.322 72.1463L192.322 105.923L212.217 105.923L212.217 72.1463L192.322 72.1463ZM191.951 71.7759L212.588 71.7759L212.588 106.294L191.951 106.294L191.951 71.7759Z" fill="#F7FAFB"/>
<path opacity="0.6" d="M212.473 76.5292L212.588 76.1852L208.143 71.7669L207.702 71.7846L212.473 76.5292Z" fill="#F7FAFB"/>
<path opacity="0.6" d="M189.71 78.0986L189.71 80.7355L191.95 80.7355L191.95 78.0986L189.71 78.0986ZM189.419 77.8076L192.232 77.8076L192.232 81.0177L189.419 81.0177L189.419 77.8076Z" fill="#F7FAFB"/>
<path d="M190.204 78.4075L191.447 78.4075L191.447 80.4359L190.204 80.4359L190.204 78.4075Z" fill="#FDC57B"/>
<path opacity="0.6" d="M189.71 82.6582L189.71 85.2951L191.95 85.2951L191.95 82.6582L189.71 82.6582ZM189.419 82.3672L192.232 82.3672L192.232 85.5773L189.419 85.5773L189.419 82.3672Z" fill="#F7FAFB"/>
<path d="M190.204 82.9672L191.447 82.9672L191.447 84.9956L190.204 84.9956L190.204 82.9672Z" fill="#FDC57B"/>
<path opacity="0.6" d="M212.587 91.5745L212.587 94.2114L214.827 94.2114L214.827 91.5745L212.587 91.5745ZM212.296 91.2835L215.109 91.2835L215.109 94.4937L212.296 94.4937L212.296 91.2835Z" fill="#F7FAFB"/>
<path d="M213.081 91.8922L214.324 91.8922L214.324 93.9206L213.081 93.9206L213.081 91.8922Z" fill="#FDC57B"/>
<path opacity="0.6" d="M212.587 99.5644L212.587 102.201L214.827 102.201L214.827 99.5644L212.587 99.5644ZM212.296 99.2733L215.109 99.2733L215.109 102.483L212.296 102.483L212.296 99.2733Z" fill="#F7FAFB"/>
<path d="M213.081 99.8733L214.324 99.8733L214.324 101.902L213.081 101.902L213.081 99.8733Z" fill="#FDC57B"/>
<path d="M188.326 80.6572L188.326 98.5951L170.388 98.5951L170.388 80.6572L188.326 80.6572Z" fill="#33313B"/>
<path d="M187.691 81.2833L187.691 97.9601L171.015 97.9601L171.015 81.2833L187.691 81.2833Z" fill="#33313B" stroke="#112129" stroke-width="0.688087" stroke-miterlimit="10"/>
<path d="M185.082 82.9237C185.082 82.4074 185.5 81.9889 186.016 81.9889C186.533 81.9889 186.951 82.4074 186.951 82.9237C186.951 83.44 186.533 83.8586 186.016 83.8586C185.5 83.8586 185.082 83.44 185.082 82.9237Z" fill="#112129"/>
<path opacity="0.6" d="M169.4 72.1466L169.4 105.924L189.296 105.924L189.296 72.1466L169.4 72.1466ZM169.029 71.7762L189.666 71.7762L189.666 106.294L169.029 106.294L169.029 71.7762Z" fill="#F7FAFB"/>
<path opacity="0.6" d="M189.561 76.5294L189.676 76.1854L185.231 71.7671L184.781 71.7847L189.561 76.5294Z" fill="#F7FAFB"/>
<path opacity="0.6" d="M166.755 78.1787L166.755 80.8156L168.995 80.8156L168.995 78.1787L166.755 78.1787ZM166.464 77.8877L169.277 77.8877L169.277 81.0978L166.464 81.0978L166.464 77.8877Z" fill="#F7FAFB"/>
<path d="M168.502 78.4791L168.502 80.5074L167.258 80.5074L167.258 78.4791L168.502 78.4791Z" fill="#FDC57B"/>
<path opacity="0.6" d="M166.755 82.7383L166.755 85.3753L168.995 85.3753L168.995 82.7383L166.755 82.7383ZM166.464 82.4473L169.277 82.4473L169.277 85.6575L166.464 85.6575L166.464 82.4473Z" fill="#F7FAFB"/>
<path d="M168.502 83.038L168.502 85.0664L167.258 85.0664L167.258 83.038L168.502 83.038Z" fill="#FDC57B"/>
<path opacity="0.6" d="M189.675 91.5747L189.675 94.2116L191.915 94.2116L191.915 91.5747L189.675 91.5747ZM189.384 91.2837L192.197 91.2837L192.197 94.4938L189.384 94.4938L189.384 91.2837Z" fill="#F7FAFB"/>
<path d="M191.412 91.8831L191.412 93.9115L190.169 93.9115L190.169 91.8831L191.412 91.8831Z" fill="#FDC57B"/>
<path opacity="0.6" d="M189.675 99.5646L189.675 102.201L191.915 102.201L191.915 99.5646L189.675 99.5646ZM189.384 99.2735L192.197 99.2735L192.197 102.484L189.384 102.484L189.384 99.2735Z" fill="#F7FAFB"/>
<path d="M191.412 99.873L191.412 101.901L190.169 101.901L190.169 99.873L191.412 99.873Z" fill="#FDC57B"/>
<path d="M165.406 80.6572L165.406 98.5951L147.468 98.5951L147.468 80.6572L165.406 80.6572Z" fill="#33313B"/>
<path d="M164.779 81.2833L164.779 97.9601L148.102 97.9601L148.102 81.2833L164.779 81.2833Z" fill="#33313B" stroke="#112129" stroke-width="0.688087" stroke-miterlimit="10"/>
<path d="M162.169 82.9237C162.169 83.4352 162.584 83.8586 163.104 83.8586C163.625 83.8586 164.039 83.4441 164.039 82.9237C164.039 82.4034 163.625 81.9889 163.104 81.9889C162.584 81.9889 162.169 82.4034 162.169 82.9237Z" fill="#112129"/>
<path opacity="0.6" d="M146.49 72.1465L146.49 105.923L166.385 105.923L166.385 72.1465L146.49 72.1465ZM146.119 71.7761L166.756 71.7761L166.756 106.294L146.119 106.294L146.119 71.7761Z" fill="#F7FAFB"/>
<path opacity="0.6" d="M166.641 76.5294L166.756 76.1854L162.32 71.7671L161.87 71.7847L166.641 76.5294Z" fill="#F7FAFB"/>
<path opacity="0.6" d="M143.843 78.1787L143.843 80.8156L146.083 80.8156L146.083 78.1787L143.843 78.1787ZM143.552 77.8877L146.365 77.8877L146.365 81.0978L143.552 81.0978L143.552 77.8877Z" fill="#F7FAFB"/>
<path d="M145.58 78.4791L145.58 80.5074L144.337 80.5074L144.337 78.4791L145.58 78.4791Z" fill="#FDC57B"/>
<path opacity="0.6" d="M143.843 82.7383L143.843 85.3753L146.083 85.3753L146.083 82.7383L143.843 82.7383ZM143.552 82.4473L146.365 82.4473L146.365 85.6575L143.552 85.6575L143.552 82.4473Z" fill="#F7FAFB"/>
<path d="M145.58 83.038L145.58 85.0664L144.337 85.0664L144.337 83.038L145.58 83.038Z" fill="#FDC57B"/>
<path opacity="0.6" d="M166.755 91.5747L166.755 94.2116L168.995 94.2116L168.995 91.5747L166.755 91.5747ZM166.464 91.2837L169.277 91.2837L169.277 94.4938L166.464 94.4938L166.464 91.2837Z" fill="#F7FAFB"/>
<path d="M168.502 91.8831L168.502 93.9115L167.258 93.9115L167.258 91.8831L168.502 91.8831Z" fill="#FDC57B"/>
<path opacity="0.6" d="M166.755 99.5646L166.755 102.201L168.995 102.201L168.995 99.5646L166.755 99.5646ZM166.464 99.2735L169.277 99.2735L169.277 102.484L166.464 102.484L166.464 99.2735Z" fill="#F7FAFB"/>
<path d="M168.502 99.873L168.502 101.901L167.258 101.901L167.258 99.873L168.502 99.873Z" fill="#FDC57B"/>
<path d="M124.556 80.6483L142.494 80.6483L142.494 98.5863L124.556 98.5863L124.556 80.6483Z" fill="#33313B"/>
<path d="M125.183 81.2835L141.859 81.2835L141.859 97.9603L125.183 97.9603L125.183 81.2835Z" fill="#33313B" stroke="#112129" stroke-width="0.688087" stroke-miterlimit="10"/>
<path d="M139.249 82.9237C139.249 83.4352 139.664 83.8586 140.184 83.8586C140.705 83.8586 141.119 83.4441 141.119 82.9237C141.119 82.4034 140.705 81.9889 140.184 81.9889C139.664 81.9889 139.249 82.4034 139.249 82.9237Z" fill="#112129"/>
<path opacity="0.6" d="M123.578 72.1465L123.578 105.923L143.473 105.923L143.473 72.1465L123.578 72.1465ZM123.207 71.7761L143.844 71.7761L143.844 106.294L123.207 106.294L123.207 71.7761Z" fill="#F7FAFB"/>
<path opacity="0.6" d="M143.729 76.5294L143.844 76.1854L139.399 71.7671L138.958 71.7847L143.729 76.5294Z" fill="#F7FAFB"/>
<path opacity="0.6" d="M120.966 78.1786L120.966 80.8155L123.206 80.8155L123.206 78.1786L120.966 78.1786ZM120.675 77.8875L123.488 77.8875L123.488 81.0977L120.675 81.0977L120.675 77.8875Z" fill="#F7FAFB"/>
<path d="M121.46 78.4786L122.703 78.4786L122.703 80.507L121.46 80.507L121.46 78.4786Z" fill="#FDC57B"/>
<path opacity="0.6" d="M120.966 82.7383L120.966 85.3752L123.206 85.3752L123.206 82.7383L120.966 82.7383ZM120.675 82.4473L123.488 82.4473L123.488 85.6574L120.675 85.6574L120.675 82.4473Z" fill="#F7FAFB"/>
<path d="M121.46 83.0384L122.703 83.0384L122.703 85.0667L121.46 85.0667L121.46 83.0384Z" fill="#FDC57B"/>
<path opacity="0.6" d="M120.966 94.6089L120.966 97.2457L123.206 97.2457L123.206 94.6089L120.966 94.6089ZM120.675 94.3178L123.488 94.3178L123.488 97.528L120.675 97.528L120.675 94.3178Z" fill="#F7FAFB"/>
<path d="M121.46 94.9177L122.703 94.9177L122.703 96.946L121.46 96.946L121.46 94.9177Z" fill="#FDC57B"/>
<path opacity="0.6" d="M143.843 91.5747L143.843 94.2116L146.083 94.2116L146.083 91.5747L143.843 91.5747ZM143.552 91.2837L146.365 91.2837L146.365 94.4938L143.552 94.4938L143.552 91.2837Z" fill="#F7FAFB"/>
<path d="M144.337 91.8836L145.58 91.8836L145.58 93.912L144.337 93.912L144.337 91.8836Z" fill="#FDC57B"/>
<path opacity="0.6" d="M143.843 99.5646L143.843 102.201L146.083 102.201L146.083 99.5646L143.843 99.5646ZM143.552 99.2735L146.365 99.2735L146.365 102.484L143.552 102.484L143.552 99.2735Z" fill="#F7FAFB"/>
<path d="M144.337 99.8735L145.58 99.8735L145.58 101.902L144.337 101.902L144.337 99.8735Z" fill="#FDC57B"/>
<path d="M10.5347 80.6485L28.4727 80.6485L28.4727 98.5865L10.5347 98.5865L10.5347 80.6485Z" fill="#33313B"/>
<path d="M11.1611 81.2837L27.8379 81.2837L27.8379 97.9605L11.1611 97.9605L11.1611 81.2837Z" fill="#33313B" stroke="#112129" stroke-width="0.688087" stroke-miterlimit="10"/>
<path d="M25.228 82.9239C25.228 83.4354 25.6425 83.8587 26.1628 83.8587C26.6832 83.8587 27.0977 83.4442 27.0977 82.9239C27.0977 82.4036 26.6832 81.9891 26.1628 81.9891C25.6425 81.9891 25.228 82.4036 25.228 82.9239Z" fill="#112129"/>
<path opacity="0.6" d="M9.55611 72.1466L9.55611 105.924L29.4519 105.924L29.4519 72.1466L9.55611 72.1466ZM9.18569 71.7762L29.8223 71.7762L29.8223 106.294L9.1857 106.294L9.18569 71.7762Z" fill="#F7FAFB"/>
<path opacity="0.6" d="M29.7076 76.5296L29.8223 76.1856L25.3863 71.7673L24.9365 71.7849L29.7076 76.5296Z" fill="#F7FAFB"/>
<path opacity="0.6" d="M32.0625 78.099L29.8225 78.099L29.8225 80.7359L32.0625 80.7359L32.0625 78.099ZM32.3535 77.808L32.3535 81.0181L29.5403 81.0181L29.5403 77.808L32.3535 77.808Z" fill="#F7FAFB"/>
<path d="M31.5599 80.4277L30.3164 80.4277L30.3164 78.3993L31.5599 78.3993L31.5599 80.4277Z" fill="#FDC57B"/>
<path opacity="0.6" d="M32.0625 82.6586L29.8225 82.6586L29.8225 85.2955L32.0625 85.2955L32.0625 82.6586ZM32.3535 82.3675L32.3535 85.5777L29.5403 85.5777L29.5403 82.3675L32.3535 82.3675Z" fill="#F7FAFB"/>
<path d="M31.5599 84.9866L30.3164 84.9866L30.3164 82.9582L31.5599 82.9582L31.5599 84.9866Z" fill="#FDC57B"/>
<path opacity="0.6" d="M9.18552 91.5749L6.94547 91.5749L6.94547 94.2118L9.18552 94.2118L9.18552 91.5749ZM9.47656 91.2839L9.47656 94.494L6.66328 94.494L6.66328 91.2839L9.47656 91.2839Z" fill="#F7FAFB"/>
<path d="M8.69073 93.9117L7.44727 93.9117L7.44727 91.8833L8.69073 91.8833L8.69073 93.9117Z" fill="#FDC57B"/>
<path opacity="0.6" d="M9.18552 99.5648L6.94547 99.5648L6.94547 102.202L9.18552 102.202L9.18552 99.5648ZM9.47656 99.2737L9.47656 102.484L6.66328 102.484L6.66328 99.2737L9.47656 99.2737Z" fill="#F7FAFB"/>
<path d="M8.69075 101.902L7.44727 101.902L7.44727 99.8732L8.69075 99.8732L8.69075 101.902Z" fill="#FDC57B"/>
<path d="M51.3848 80.6573L51.3848 98.5953L33.4468 98.5953L33.4468 80.6573L51.3848 80.6573Z" fill="#33313B"/>
<path d="M50.7578 81.2835L50.7578 97.9603L34.081 97.9603L34.081 81.2835L50.7578 81.2835Z" fill="#33313B" stroke="#112129" stroke-width="0.688087" stroke-miterlimit="10"/>
<path d="M48.1479 82.9239C48.1479 83.4354 48.5624 83.8587 49.0828 83.8587C49.6031 83.8587 50.0176 83.4442 50.0176 82.9239C50.0176 82.4036 49.6031 81.9891 49.0828 81.9891C48.5624 81.9891 48.1479 82.4036 48.1479 82.9239Z" fill="#112129"/>
<path opacity="0.6" d="M32.4682 72.1466L32.4682 105.924L52.364 105.924L52.364 72.1466L32.4682 72.1466ZM32.0978 71.7762L52.7344 71.7762L52.7344 106.294L32.0978 106.294L32.0978 71.7762Z" fill="#F7FAFB"/>
<path opacity="0.6" d="M52.6286 76.5296L52.7344 76.1856L48.2984 71.7673L47.8486 71.7849L52.6286 76.5296Z" fill="#F7FAFB"/>
<path opacity="0.6" d="M55.0097 78.1789L52.7697 78.1789L52.7697 80.8158L55.0097 80.8158L55.0097 78.1789ZM55.3008 77.8878L55.3008 81.098L52.4875 81.098L52.4875 77.8878L55.3008 77.8878Z" fill="#F7FAFB"/>
<path d="M54.5156 78.4793L54.5156 80.5076L53.2721 80.5076L53.2721 78.4793L54.5156 78.4793Z" fill="#FDC57B"/>
<path opacity="0.6" d="M55.0097 82.7385L52.7697 82.7385L52.7697 85.3754L55.0097 85.3754L55.0097 82.7385ZM55.3008 82.4475L55.3008 85.6577L52.4875 85.6577L52.4875 82.4475L55.3008 82.4475Z" fill="#F7FAFB"/>
<path d="M54.5156 83.0382L54.5156 85.0666L53.2721 85.0666L53.2721 83.0382L54.5156 83.0382Z" fill="#FDC57B"/>
<path opacity="0.6" d="M32.0977 91.5749L29.8576 91.5749L29.8576 94.2118L32.0977 94.2118L32.0977 91.5749ZM32.3887 91.2839L32.3887 94.494L29.5754 94.494L29.5754 91.2839L32.3887 91.2839Z" fill="#F7FAFB"/>
<path d="M31.6035 91.8833L31.6035 93.9117L30.36 93.9117L30.36 91.8833L31.6035 91.8833Z" fill="#FDC57B"/>
<path opacity="0.6" d="M32.0977 99.5648L29.8576 99.5648L29.8576 102.202L32.0977 102.202L32.0977 99.5648ZM32.3887 99.2737L32.3887 102.484L29.5754 102.484L29.5754 99.2737L32.3887 99.2737Z" fill="#F7FAFB"/>
<path d="M31.6035 99.8732L31.6035 101.902L30.36 101.902L30.36 99.8732L31.6035 99.8732Z" fill="#FDC57B"/>
<path d="M74.3047 80.6573L74.3047 98.5953L56.3667 98.5953L56.3667 80.6573L74.3047 80.6573Z" fill="#33313B"/>
<path d="M73.6699 81.2835L73.6699 97.9603L56.9931 97.9603L56.9931 81.2835L73.6699 81.2835Z" fill="#33313B" stroke="#112129" stroke-width="0.688087" stroke-miterlimit="10"/>
<path d="M71.0601 82.9239C71.0601 83.4354 71.4745 83.8587 71.9949 83.8587C72.5152 83.8587 72.9297 83.4442 72.9297 82.9239C72.9297 82.4036 72.5152 81.9891 71.9949 81.9891C71.4745 81.9891 71.0601 82.4036 71.0601 82.9239Z" fill="#112129"/>
<path opacity="0.6" d="M55.3783 72.1468L55.3783 105.924L75.2741 105.924L75.2741 72.1468L55.3783 72.1468ZM55.0079 71.7764L75.6445 71.7764L75.6445 106.294L55.0079 106.294L55.0079 71.7764Z" fill="#F7FAFB"/>
<path opacity="0.6" d="M75.5396 76.5296L75.6543 76.1856L71.2095 71.7673L70.7597 71.7849L75.5396 76.5296Z" fill="#F7FAFB"/>
<path opacity="0.6" d="M77.9297 78.1789L75.6896 78.1789L75.6896 80.8158L77.9297 80.8158L77.9297 78.1789ZM78.2207 77.8878L78.2207 81.098L75.4074 81.098L75.4074 77.8878L78.2207 77.8878Z" fill="#F7FAFB"/>
<path d="M77.4277 78.4793L77.4277 80.5076L76.1842 80.5076L76.1842 78.4793L77.4277 78.4793Z" fill="#FDC57B"/>
<path opacity="0.6" d="M77.9297 82.7385L75.6896 82.7385L75.6896 85.3754L77.9297 85.3754L77.9297 82.7385ZM78.2207 82.4475L78.2207 85.6577L75.4074 85.6577L75.4074 82.4475L78.2207 82.4475Z" fill="#F7FAFB"/>
<path d="M77.4277 83.0382L77.4277 85.0666L76.1842 85.0666L76.1842 83.0382L77.4277 83.0382Z" fill="#FDC57B"/>
<path opacity="0.6" d="M55.0078 91.5749L52.7678 91.5749L52.7678 94.2118L55.0078 94.2118L55.0078 91.5749ZM55.2988 91.2839L55.2988 94.494L52.4855 94.494L52.4855 91.2839L55.2988 91.2839Z" fill="#F7FAFB"/>
<path d="M54.5137 91.8833L54.5137 93.9117L53.2702 93.9117L53.2702 91.8833L54.5137 91.8833Z" fill="#FDC57B"/>
<path opacity="0.6" d="M55.0078 99.5648L52.7678 99.5648L52.7678 102.202L55.0078 102.202L55.0078 99.5648ZM55.2988 99.2737L55.2988 102.484L52.4855 102.484L52.4855 99.2737L55.2988 99.2737Z" fill="#F7FAFB"/>
<path d="M54.5137 99.8732L54.5137 101.902L53.2702 101.902L53.2702 99.8732L54.5137 99.8732Z" fill="#FDC57B"/>
<path d="M79.2789 80.6483L97.2168 80.6483L97.2168 98.5863L79.2789 98.5863L79.2789 80.6483Z" fill="#33313B"/>
<path d="M79.9052 81.2835L96.582 81.2835L96.582 97.9603L79.9052 97.9603L79.9052 81.2835Z" fill="#33313B" stroke="#112129" stroke-width="0.688087" stroke-miterlimit="10"/>
<path d="M93.9722 82.9237C93.9722 83.4352 94.3867 83.8586 94.907 83.8586C95.4273 83.8586 95.8418 83.4441 95.8418 82.9237C95.8418 82.4034 95.4273 81.9889 94.907 81.9889C94.3867 81.9889 93.9722 82.4034 93.9722 82.9237Z" fill="#112129"/>
<path opacity="0.6" d="M78.3002 72.1466L78.3002 105.924L98.196 105.924L98.196 72.1466L78.3002 72.1466ZM77.9298 71.7762L98.5664 71.7762L98.5664 106.294L77.9298 106.294L77.9298 71.7762Z" fill="#F7FAFB"/>
<path opacity="0.6" d="M98.4518 76.5294L98.5664 76.1854L94.1216 71.7671L93.6806 71.7847L98.4518 76.5294Z" fill="#F7FAFB"/>
<path opacity="0.6" d="M100.807 78.1786L98.5666 78.1786L98.5666 80.8155L100.807 80.8155L100.807 78.1786ZM101.098 77.8875L101.098 81.0977L98.2844 81.0977L98.2844 77.8875L101.098 77.8875Z" fill="#F7FAFB"/>
<path d="M100.304 80.5161L99.0605 80.5161L99.0605 78.4877L100.304 78.4877L100.304 80.5161Z" fill="#FDC57B"/>
<path opacity="0.6" d="M100.807 82.7383L98.5666 82.7383L98.5666 85.3752L100.807 85.3752L100.807 82.7383ZM101.098 82.4473L101.098 85.6574L98.2844 85.6574L98.2844 82.4473L101.098 82.4473Z" fill="#F7FAFB"/>
<path d="M100.304 85.075L99.0605 85.075L99.0605 83.0467L100.304 83.0467L100.304 85.075Z" fill="#FDC57B"/>
<path opacity="0.6" d="M100.807 94.6089L98.5666 94.6089L98.5666 97.2457L100.807 97.2457L100.807 94.6089ZM101.098 94.3178L101.098 97.528L98.2844 97.528L98.2844 94.3178L101.098 94.3178Z" fill="#F7FAFB"/>
<path d="M100.312 96.9455L99.0684 96.9455L99.0684 94.9172L100.312 94.9172L100.312 96.9455Z" fill="#FDC57B"/>
<path opacity="0.6" d="M77.9297 91.5747L75.6896 91.5747L75.6896 94.2116L77.9297 94.2116L77.9297 91.5747ZM78.2207 91.2837L78.2207 94.4938L75.4074 94.4938L75.4074 91.2837L78.2207 91.2837Z" fill="#F7FAFB"/>
<path d="M77.4349 93.9115L76.1914 93.9115L76.1914 91.8831L77.4349 91.8831L77.4349 93.9115Z" fill="#FDC57B"/>
<path opacity="0.6" d="M77.9297 99.5646L75.6896 99.5646L75.6896 102.201L77.9297 102.201L77.9297 99.5646ZM78.2207 99.2735L78.2207 102.484L75.4074 102.484L75.4074 99.2735L78.2207 99.2735Z" fill="#F7FAFB"/>
<path d="M77.4349 101.901L76.1914 101.901L76.1914 99.873L77.4349 99.873L77.4349 101.901Z" fill="#FDC57B"/>
<path d="M0.999998 162.632L0.999998 172.888L108.998 172.888L108.998 166.318C108.998 165.207 109.898 164.316 111 164.316C112.102 164.316 113.002 165.216 113.002 166.318L113.002 172.888L221 172.888L221 162.632C220.947 162.632 220.894 162.641 220.832 162.641C218.248 162.641 216.15 160.542 216.15 157.958C216.15 155.374 218.248 153.275 220.832 153.275C220.885 153.275 220.938 153.284 221 153.284L221 145.461C220.947 145.461 220.894 145.47 220.832 145.47C218.248 145.47 216.15 143.371 216.15 140.787C216.15 138.203 218.248 136.104 220.832 136.104C220.885 136.104 220.938 136.104 221 136.113L221 125.857L1.00882 125.856L1.00882 136.113C3.44289 136.289 5.36543 138.309 5.36543 140.787C5.36543 143.265 3.44289 145.285 1.00882 145.452L1.00882 153.293C3.44289 153.46 5.36543 155.488 5.36543 157.958C5.36543 160.427 3.44288 162.456 1.00882 162.632L0.999998 162.632ZM217.534 167.332C218.663 167.332 219.58 168.25 219.58 169.378C219.58 170.507 218.663 171.425 217.534 171.425C216.405 171.425 215.488 170.507 215.488 169.378C215.488 168.25 216.405 167.332 217.534 167.332ZM6.01803 169.378C6.01803 170.507 5.10084 171.425 3.97201 171.425C2.84317 171.425 1.92598 170.507 1.92598 169.378C1.92598 168.25 2.84317 167.332 3.97201 167.332C5.10084 167.332 6.01803 168.25 6.01803 169.378Z" fill="#008064" stroke="#45A36E" stroke-width="0.917449" stroke-miterlimit="10"/>
<path d="M214.025 172.889L214.025 168.647L212.112 168.647L212.112 172.889L214.025 172.889Z" fill="#FDC57B"/>
<path d="M211.328 172.889L211.328 168.647L209.414 168.647L209.414 172.889L211.328 172.889Z" fill="#FDC57B"/>
<path d="M208.629 172.889L208.629 168.647L206.715 168.647L206.715 172.889L208.629 172.889Z" fill="#FDC57B"/>
<path d="M205.93 172.889L205.93 168.647L204.016 168.647L204.016 172.889L205.93 172.889Z" fill="#FDC57B"/>
<path d="M203.223 172.889L203.223 168.647L201.309 168.647L201.309 172.889L203.223 172.889Z" fill="#FDC57B"/>
<path d="M200.523 172.889L200.523 168.647L198.61 168.647L198.61 172.889L200.523 172.889Z" fill="#FDC57B"/>
<path d="M197.824 172.889L197.824 168.647L195.91 168.647L195.91 172.889L197.824 172.889Z" fill="#FDC57B"/>
<path d="M195.127 172.889L195.127 168.647L193.213 168.647L193.213 172.889L195.127 172.889Z" fill="#FDC57B"/>
<path d="M192.428 172.889L192.428 168.647L190.514 168.647L190.514 172.889L192.428 172.889Z" fill="#FDC57B"/>
<path d="M189.729 172.889L189.729 168.647L187.815 168.647L187.815 172.889L189.729 172.889Z" fill="#FDC57B"/>
<path d="M187.031 172.889L187.031 168.647L185.118 168.647L185.118 172.889L187.031 172.889Z" fill="#FDC57B"/>
<path d="M184.324 172.889L184.324 168.647L182.41 168.647L182.41 172.889L184.324 172.889Z" fill="#FDC57B"/>
<path d="M181.625 172.889L181.625 168.647L179.711 168.647L179.711 172.889L181.625 172.889Z" fill="#FDC57B"/>
<path d="M178.926 172.889L178.926 168.647L177.012 168.647L177.012 172.889L178.926 172.889Z" fill="#FDC57B"/>
<path d="M176.227 172.889L176.227 168.647L174.313 168.647L174.313 172.889L176.227 172.889Z" fill="#FDC57B"/>
<path d="M173.529 172.889L173.529 168.647L171.616 168.647L171.616 172.889L173.529 172.889Z" fill="#FDC57B"/>
<path d="M170.83 172.889L170.83 168.647L168.916 168.647L168.916 172.889L170.83 172.889Z" fill="#FDC57B"/>
<path d="M168.131 172.889L168.131 168.647L166.217 168.647L166.217 172.889L168.131 172.889Z" fill="#FDC57B"/>
<path d="M165.424 172.889L165.424 168.647L163.51 168.647L163.51 172.889L165.424 172.889Z" fill="#FDC57B"/>
<path d="M162.725 172.889L162.725 168.647L160.811 168.647L160.811 172.889L162.725 172.889Z" fill="#FDC57B"/>
<path d="M160.025 172.889L160.025 168.647L158.112 168.647L158.112 172.889L160.025 172.889Z" fill="#FDC57B"/>
<path d="M157.328 172.889L157.328 168.647L155.414 168.647L155.414 172.889L157.328 172.889Z" fill="#FDC57B"/>
<path d="M154.629 172.889L154.629 168.647L152.715 168.647L152.715 172.889L154.629 172.889Z" fill="#FDC57B"/>
<path d="M151.932 172.889L151.932 168.647L150.018 168.647L150.018 172.889L151.932 172.889Z" fill="#FDC57B"/>
<path d="M149.232 172.889L149.232 168.647L147.319 168.647L147.319 172.889L149.232 172.889Z" fill="#FDC57B"/>
<path d="M146.525 172.889L146.525 168.647L144.612 168.647L144.612 172.889L146.525 172.889Z" fill="#FDC57B"/>
<path d="M143.826 172.889L143.826 168.647L141.912 168.647L141.912 172.889L143.826 172.889Z" fill="#FDC57B"/>
<path d="M141.127 172.889L141.127 168.647L139.213 168.647L139.213 172.889L141.127 172.889Z" fill="#FDC57B"/>
<path d="M138.428 172.889L138.428 168.647L136.514 168.647L136.514 172.889L138.428 172.889Z" fill="#FDC57B"/>
<path d="M135.73 172.889L135.73 168.647L133.817 168.647L133.817 172.889L135.73 172.889Z" fill="#FDC57B"/>
<path d="M133.031 172.889L133.031 168.647L131.118 168.647L131.118 172.889L133.031 172.889Z" fill="#FDC57B"/>
<path d="M130.332 172.889L130.332 168.647L128.418 168.647L128.418 172.889L130.332 172.889Z" fill="#FDC57B"/>
<path d="M127.625 172.889L127.625 168.647L125.711 168.647L125.711 172.889L127.625 172.889Z" fill="#FDC57B"/>
<path d="M124.928 172.889L124.928 168.647L123.014 168.647L123.014 172.889L124.928 172.889Z" fill="#FDC57B"/>
<path d="M122.229 172.889L122.229 168.647L120.315 168.647L120.315 172.889L122.229 172.889Z" fill="#FDC57B"/>
<path d="M119.529 172.889L119.529 168.647L117.616 168.647L117.616 172.889L119.529 172.889Z" fill="#FDC57B"/>
<path d="M116.83 172.889L116.83 168.647L114.916 168.647L114.916 172.889L116.83 172.889Z" fill="#FDC57B"/>
<path d="M107.086 172.889L107.086 168.647L105.172 168.647L105.172 172.889L107.086 172.889Z" fill="#FDC57B"/>
<path d="M104.389 172.889L104.389 168.647L102.475 168.647L102.475 172.889L104.389 172.889Z" fill="#FDC57B"/>
<path d="M101.689 172.889L101.689 168.647L99.7757 168.647L99.7757 172.889L101.689 172.889Z" fill="#FDC57B"/>
<path d="M98.9902 172.889L98.9902 168.647L97.0765 168.647L97.0765 172.889L98.9902 172.889Z" fill="#FDC57B"/>
<path d="M96.291 172.889L96.291 168.647L94.3773 168.647L94.3773 172.889L96.291 172.889Z" fill="#FDC57B"/>
<path d="M93.5937 172.889L93.5938 168.647L91.68 168.647L91.68 172.889L93.5937 172.889Z" fill="#FDC57B"/>
<path d="M90.8945 172.889L90.8945 168.647L88.9808 168.647L88.9808 172.889L90.8945 172.889Z" fill="#FDC57B"/>
<path d="M88.1875 172.889L88.1875 168.647L86.2738 168.647L86.2738 172.889L88.1875 172.889Z" fill="#FDC57B"/>
<path d="M85.4883 172.889L85.4883 168.647L83.5746 168.647L83.5746 172.889L85.4883 172.889Z" fill="#FDC57B"/>
<path d="M82.7891 172.889L82.7891 168.647L80.8753 168.647L80.8753 172.889L82.7891 172.889Z" fill="#FDC57B"/>
<path d="M80.0898 172.889L80.0898 168.647L78.1761 168.647L78.1761 172.889L80.0898 172.889Z" fill="#FDC57B"/>
<path d="M77.3926 172.889L77.3926 168.647L75.4789 168.647L75.4789 172.889L77.3926 172.889Z" fill="#FDC57B"/>
<path d="M74.6934 172.889L74.6934 168.647L72.7796 168.647L72.7796 172.889L74.6934 172.889Z" fill="#FDC57B"/>
<path d="M71.9961 172.889L71.9961 168.647L70.0823 168.647L70.0823 172.889L71.9961 172.889Z" fill="#FDC57B"/>
<path d="M69.2871 172.889L69.2871 168.647L67.3734 168.647L67.3734 172.889L69.2871 172.889Z" fill="#FDC57B"/>
<path d="M66.5898 172.889L66.5898 168.647L64.6761 168.647L64.6761 172.889L66.5898 172.889Z" fill="#FDC57B"/>
<path d="M63.8906 172.889L63.8906 168.647L61.9769 168.647L61.9769 172.889L63.8906 172.889Z" fill="#FDC57B"/>
<path d="M61.1914 172.889L61.1914 168.647L59.2777 168.647L59.2777 172.889L61.1914 172.889Z" fill="#FDC57B"/>
<path d="M58.4922 172.889L58.4922 168.647L56.5784 168.647L56.5784 172.889L58.4922 172.889Z" fill="#FDC57B"/>
<path d="M55.7949 172.889L55.7949 168.647L53.8812 168.647L53.8812 172.889L55.7949 172.889Z" fill="#FDC57B"/>
<path d="M53.0957 172.889L53.0957 168.647L51.182 168.647L51.182 172.889L53.0957 172.889Z" fill="#FDC57B"/>
<path d="M50.3887 172.889L50.3887 168.647L48.4749 168.647L48.4749 172.889L50.3887 172.889Z" fill="#FDC57B"/>
<path d="M47.6895 172.889L47.6895 168.647L45.7757 168.647L45.7757 172.889L47.6895 172.889Z" fill="#FDC57B"/>
<path d="M44.9922 172.889L44.9922 168.647L43.0784 168.647L43.0784 172.889L44.9922 172.889Z" fill="#FDC57B"/>
<path d="M42.293 172.889L42.293 168.647L40.3792 168.647L40.3792 172.889L42.293 172.889Z" fill="#FDC57B"/>
<path d="M39.5937 172.889L39.5938 168.647L37.68 168.647L37.68 172.889L39.5937 172.889Z" fill="#FDC57B"/>
<path d="M36.8945 172.889L36.8945 168.647L34.9808 168.647L34.9808 172.889L36.8945 172.889Z" fill="#FDC57B"/>
<path d="M34.1973 172.889L34.1973 168.647L32.2835 168.647L32.2835 172.889L34.1973 172.889Z" fill="#FDC57B"/>
<path d="M31.4883 172.889L31.4883 168.647L29.5745 168.647L29.5745 172.889L31.4883 172.889Z" fill="#FDC57B"/>
<path d="M28.791 172.889L28.791 168.647L26.8773 168.647L26.8773 172.889L28.791 172.889Z" fill="#FDC57B"/>
<path d="M26.0918 172.889L26.0918 168.647L24.1781 168.647L24.1781 172.889L26.0918 172.889Z" fill="#FDC57B"/>
<path d="M23.3926 172.889L23.3926 168.647L21.4788 168.647L21.4788 172.889L23.3926 172.889Z" fill="#FDC57B"/>
<path d="M20.6953 172.889L20.6953 168.647L18.7816 168.647L18.7816 172.889L20.6953 172.889Z" fill="#FDC57B"/>
<path d="M17.9961 172.889L17.9961 168.647L16.0824 168.647L16.0824 172.889L17.9961 172.889Z" fill="#FDC57B"/>
<path d="M15.2969 172.889L15.2969 168.647L13.3832 168.647L13.3832 172.889L15.2969 172.889Z" fill="#FDC57B"/>
<path d="M12.5898 172.889L12.5898 168.647L10.6761 168.647L10.6761 172.889L12.5898 172.889Z" fill="#FDC57B"/>
<path d="M9.89062 172.889L9.89062 168.647L7.97691 168.647L7.97691 172.889L9.89062 172.889Z" fill="#FDC57B"/>
<path d="M193.3 155.841L211.238 155.841L211.238 137.903L193.3 137.903L193.3 155.841Z" fill="#33313B"/>
<path d="M193.927 155.206L210.604 155.206L210.604 138.529L193.927 138.529L193.927 155.206Z" fill="#33313B" stroke="#112129" stroke-width="0.688087" stroke-miterlimit="10"/>
<path d="M207.994 153.566C207.994 153.054 208.408 152.631 208.928 152.631C209.449 152.631 209.863 153.046 209.863 153.566C209.863 154.086 209.449 154.501 208.928 154.501C208.408 154.501 207.994 154.086 207.994 153.566Z" fill="#112129"/>
<path opacity="0.6" d="M192.322 164.343L192.322 130.566L212.217 130.566L212.217 164.343L192.322 164.343ZM191.951 164.713L212.588 164.713L212.588 130.196L191.951 130.196L191.951 164.713Z" fill="#F7FAFB"/>
<path opacity="0.6" d="M212.473 159.96L212.588 160.304L208.143 164.723L207.702 164.705L212.473 159.96Z" fill="#F7FAFB"/>
<path opacity="0.6" d="M189.71 158.391L189.71 155.754L191.95 155.754L191.95 158.391L189.71 158.391ZM189.419 158.682L192.232 158.682L192.232 155.472L189.419 155.472L189.419 158.682Z" fill="#F7FAFB"/>
<path d="M190.204 158.082L191.447 158.082L191.447 156.054L190.204 156.054L190.204 158.082Z" fill="#FDC57B"/>
<path opacity="0.6" d="M189.71 153.831L189.71 151.194L191.95 151.194L191.95 153.831L189.71 153.831ZM189.419 154.122L192.232 154.122L192.232 150.912L189.419 150.912L189.419 154.122Z" fill="#F7FAFB"/>
<path d="M190.204 153.522L191.447 153.522L191.447 151.494L190.204 151.494L190.204 153.522Z" fill="#FDC57B"/>
<path opacity="0.6" d="M212.587 144.915L212.587 142.278L214.827 142.278L214.827 144.915L212.587 144.915ZM212.296 145.206L215.109 145.206L215.109 141.996L212.296 141.996L212.296 145.206Z" fill="#F7FAFB"/>
<path d="M213.081 144.597L214.324 144.597L214.324 142.569L213.081 142.569L213.081 144.597Z" fill="#FDC57B"/>
<path opacity="0.6" d="M212.587 136.925L212.587 134.288L214.827 134.288L214.827 136.925L212.587 136.925ZM212.296 137.216L215.109 137.216L215.109 134.006L212.296 134.006L212.296 137.216Z" fill="#F7FAFB"/>
<path d="M213.081 136.616L214.324 136.616L214.324 134.588L213.081 134.588L213.081 136.616Z" fill="#FDC57B"/>
<path d="M188.326 155.832L188.326 137.894L170.388 137.894L170.388 155.832L188.326 155.832Z" fill="#33313B"/>
<path d="M187.691 155.207L187.691 138.53L171.015 138.53L171.015 155.207L187.691 155.207Z" fill="#33313B" stroke="#112129" stroke-width="0.688087" stroke-miterlimit="10"/>
<path d="M185.082 153.566C185.082 154.082 185.5 154.501 186.016 154.501C186.533 154.501 186.951 154.082 186.951 153.566C186.951 153.05 186.533 152.631 186.016 152.631C185.5 152.631 185.082 153.05 185.082 153.566Z" fill="#112129"/>
<path opacity="0.6" d="M169.4 164.343L169.4 130.566L189.296 130.566L189.296 164.343L169.4 164.343ZM169.029 164.713L189.666 164.713L189.666 130.196L169.029 130.196L169.029 164.713Z" fill="#F7FAFB"/>
<path opacity="0.6" d="M189.561 159.96L189.676 160.304L185.231 164.723L184.781 164.705L189.561 159.96Z" fill="#F7FAFB"/>
<path opacity="0.6" d="M166.755 158.311L166.755 155.674L168.995 155.674L168.995 158.311L166.755 158.311ZM166.464 158.602L169.277 158.602L169.277 155.392L166.464 155.392L166.464 158.602Z" fill="#F7FAFB"/>
<path d="M168.502 158.011L168.502 155.982L167.258 155.982L167.258 158.011L168.502 158.011Z" fill="#FDC57B"/>
<path opacity="0.6" d="M166.755 153.751L166.755 151.114L168.995 151.114L168.995 153.751L166.755 153.751ZM166.464 154.042L169.277 154.042L169.277 150.832L166.464 150.832L166.464 154.042Z" fill="#F7FAFB"/>
<path d="M168.502 153.452L168.502 151.423L167.258 151.423L167.258 153.452L168.502 153.452Z" fill="#FDC57B"/>
<path opacity="0.6" d="M189.675 144.915L189.675 142.278L191.915 142.278L191.915 144.915L189.675 144.915ZM189.384 145.206L192.197 145.206L192.197 141.996L189.384 141.996L189.384 145.206Z" fill="#F7FAFB"/>
<path d="M191.412 144.607L191.412 142.578L190.169 142.578L190.169 144.607L191.412 144.607Z" fill="#FDC57B"/>
<path opacity="0.6" d="M189.675 136.925L189.675 134.288L191.915 134.288L191.915 136.925L189.675 136.925ZM189.384 137.216L192.197 137.216L192.197 134.006L189.384 134.006L189.384 137.216Z" fill="#F7FAFB"/>
<path d="M191.412 136.617L191.412 134.588L190.169 134.588L190.169 136.617L191.412 136.617Z" fill="#FDC57B"/>
<path d="M165.406 155.832L165.406 137.894L147.468 137.894L147.468 155.832L165.406 155.832Z" fill="#33313B"/>
<path d="M164.779 155.207L164.779 138.53L148.102 138.53L148.102 155.207L164.779 155.207Z" fill="#33313B" stroke="#112129" stroke-width="0.688087" stroke-miterlimit="10"/>
<path d="M162.169 153.566C162.169 153.055 162.584 152.631 163.104 152.631C163.625 152.631 164.039 153.046 164.039 153.566C164.039 154.086 163.625 154.501 163.104 154.501C162.584 154.501 162.169 154.086 162.169 153.566Z" fill="#112129"/>
<path opacity="0.6" d="M146.49 164.343L146.49 130.566L166.385 130.566L166.385 164.343L146.49 164.343ZM146.119 164.713L166.756 164.713L166.756 130.196L146.119 130.196L146.119 164.713Z" fill="#F7FAFB"/>
<path opacity="0.6" d="M166.641 159.96L166.756 160.304L162.32 164.723L161.87 164.705L166.641 159.96Z" fill="#F7FAFB"/>
<path opacity="0.6" d="M143.843 158.311L143.843 155.674L146.083 155.674L146.083 158.311L143.843 158.311ZM143.552 158.602L146.365 158.602L146.365 155.392L143.552 155.392L143.552 158.602Z" fill="#F7FAFB"/>
<path d="M145.58 158.011L145.58 155.982L144.337 155.982L144.337 158.011L145.58 158.011Z" fill="#FDC57B"/>
<path opacity="0.6" d="M143.843 153.751L143.843 151.114L146.083 151.114L146.083 153.751L143.843 153.751ZM143.552 154.042L146.365 154.042L146.365 150.832L143.552 150.832L143.552 154.042Z" fill="#F7FAFB"/>
<path d="M145.58 153.452L145.58 151.423L144.337 151.423L144.337 153.452L145.58 153.452Z" fill="#FDC57B"/>
<path opacity="0.6" d="M166.755 144.915L166.755 142.278L168.995 142.278L168.995 144.915L166.755 144.915ZM166.464 145.206L169.277 145.206L169.277 141.996L166.464 141.996L166.464 145.206Z" fill="#F7FAFB"/>
<path d="M168.502 144.607L168.502 142.578L167.258 142.578L167.258 144.607L168.502 144.607Z" fill="#FDC57B"/>
<path opacity="0.6" d="M166.755 136.925L166.755 134.288L168.995 134.288L168.995 136.925L166.755 136.925ZM166.464 137.216L169.277 137.216L169.277 134.006L166.464 134.006L166.464 137.216Z" fill="#F7FAFB"/>
<path d="M168.502 136.617L168.502 134.588L167.258 134.588L167.258 136.617L168.502 136.617Z" fill="#FDC57B"/>
<path d="M124.556 155.841L142.494 155.841L142.494 137.903L124.556 137.903L124.556 155.841Z" fill="#33313B"/>
<path d="M125.183 155.206L141.859 155.206L141.859 138.529L125.183 138.529L125.183 155.206Z" fill="#33313B" stroke="#112129" stroke-width="0.688087" stroke-miterlimit="10"/>
<path d="M139.249 153.566C139.249 153.055 139.664 152.631 140.184 152.631C140.705 152.631 141.119 153.046 141.119 153.566C141.119 154.086 140.705 154.501 140.184 154.501C139.664 154.501 139.249 154.086 139.249 153.566Z" fill="#112129"/>
<path opacity="0.6" d="M123.578 164.343L123.578 130.566L143.473 130.566L143.473 164.343L123.578 164.343ZM123.207 164.713L143.844 164.713L143.844 130.196L123.207 130.196L123.207 164.713Z" fill="#F7FAFB"/>
<path opacity="0.6" d="M143.729 159.96L143.844 160.304L139.399 164.723L138.958 164.705L143.729 159.96Z" fill="#F7FAFB"/>
<path opacity="0.6" d="M120.966 158.311L120.966 155.674L123.206 155.674L123.206 158.311L120.966 158.311ZM120.675 158.602L123.488 158.602L123.488 155.392L120.675 155.392L120.675 158.602Z" fill="#F7FAFB"/>
<path d="M121.46 158.011L122.703 158.011L122.703 155.982L121.46 155.982L121.46 158.011Z" fill="#FDC57B"/>
<path opacity="0.6" d="M120.966 153.751L120.966 151.114L123.206 151.114L123.206 153.751L120.966 153.751ZM120.675 154.042L123.488 154.042L123.488 150.832L120.675 150.832L120.675 154.042Z" fill="#F7FAFB"/>
<path d="M121.46 153.451L122.703 153.451L122.703 151.423L121.46 151.423L121.46 153.451Z" fill="#FDC57B"/>
<path opacity="0.6" d="M120.966 141.881L120.966 139.244L123.206 139.244L123.206 141.881L120.966 141.881ZM120.675 142.172L123.488 142.172L123.488 138.962L120.675 138.962L120.675 142.172Z" fill="#F7FAFB"/>
<path d="M121.46 141.572L122.703 141.572L122.703 139.543L121.46 139.543L121.46 141.572Z" fill="#FDC57B"/>
<path opacity="0.6" d="M143.843 144.915L143.843 142.278L146.083 142.278L146.083 144.915L143.843 144.915ZM143.552 145.206L146.365 145.206L146.365 141.996L143.552 141.996L143.552 145.206Z" fill="#F7FAFB"/>
<path d="M144.337 144.606L145.58 144.606L145.58 142.578L144.337 142.578L144.337 144.606Z" fill="#FDC57B"/>
<path opacity="0.6" d="M143.843 136.925L143.843 134.288L146.083 134.288L146.083 136.925L143.843 136.925ZM143.552 137.216L146.365 137.216L146.365 134.006L143.552 134.006L143.552 137.216Z" fill="#F7FAFB"/>
<path d="M144.337 136.616L145.58 136.616L145.58 134.588L144.337 134.588L144.337 136.616Z" fill="#FDC57B"/>
<path d="M10.5347 155.842L28.4727 155.842L28.4727 137.904L10.5347 137.904L10.5347 155.842Z" fill="#33313B"/>
<path d="M11.1611 155.206L27.8379 155.206L27.8379 138.53L11.1611 138.53L11.1611 155.206Z" fill="#33313B" stroke="#112129" stroke-width="0.688087" stroke-miterlimit="10"/>
<path d="M25.228 153.566C25.228 153.055 25.6425 152.631 26.1628 152.631C26.6832 152.631 27.0977 153.046 27.0977 153.566C27.0977 154.086 26.6832 154.501 26.1628 154.501C25.6425 154.501 25.228 154.086 25.228 153.566Z" fill="#112129"/>
<path opacity="0.6" d="M9.55611 164.343L9.55611 130.566L29.4519 130.566L29.4519 164.343L9.55611 164.343ZM9.18569 164.714L29.8223 164.714L29.8223 130.196L9.1857 130.196L9.18569 164.714Z" fill="#F7FAFB"/>
<path opacity="0.6" d="M29.7076 159.96L29.8223 160.304L25.3863 164.723L24.9365 164.705L29.7076 159.96Z" fill="#F7FAFB"/>
<path opacity="0.6" d="M32.0625 158.391L29.8225 158.391L29.8225 155.754L32.0625 155.754L32.0625 158.391ZM32.3535 158.682L32.3535 155.472L29.5403 155.472L29.5403 158.682L32.3535 158.682Z" fill="#F7FAFB"/>
<path d="M31.5599 156.062L30.3164 156.062L30.3164 158.091L31.5599 158.091L31.5599 156.062Z" fill="#FDC57B"/>
<path opacity="0.6" d="M32.0625 153.831L29.8225 153.831L29.8225 151.194L32.0625 151.194L32.0625 153.831ZM32.3535 154.122L32.3535 150.912L29.5403 150.912L29.5403 154.122L32.3535 154.122Z" fill="#F7FAFB"/>
<path d="M31.5599 151.503L30.3164 151.503L30.3164 153.532L31.5599 153.532L31.5599 151.503Z" fill="#FDC57B"/>
<path opacity="0.6" d="M9.18552 144.915L6.94547 144.915L6.94547 142.278L9.18552 142.278L9.18552 144.915ZM9.47656 145.206L9.47656 141.996L6.66328 141.996L6.66328 145.206L9.47656 145.206Z" fill="#F7FAFB"/>
<path d="M8.69073 142.578L7.44727 142.578L7.44727 144.607L8.69073 144.607L8.69073 142.578Z" fill="#FDC57B"/>
<path opacity="0.6" d="M9.18552 136.925L6.94547 136.925L6.94547 134.288L9.18552 134.288L9.18552 136.925ZM9.47656 137.216L9.47656 134.006L6.66328 134.006L6.66328 137.216L9.47656 137.216Z" fill="#F7FAFB"/>
<path d="M8.69075 134.589L7.44727 134.589L7.44727 136.617L8.69075 136.617L8.69075 134.589Z" fill="#FDC57B"/>
<path d="M51.3848 155.832L51.3848 137.895L33.4468 137.894L33.4468 155.832L51.3848 155.832Z" fill="#33313B"/>
<path d="M50.7578 155.207L50.7578 138.53L34.081 138.53L34.081 155.207L50.7578 155.207Z" fill="#33313B" stroke="#112129" stroke-width="0.688087" stroke-miterlimit="10"/>
<path d="M48.1479 153.566C48.1479 153.055 48.5624 152.631 49.0828 152.631C49.6031 152.631 50.0176 153.046 50.0176 153.566C50.0176 154.086 49.6031 154.501 49.0828 154.501C48.5624 154.501 48.1479 154.086 48.1479 153.566Z" fill="#112129"/>
<path opacity="0.6" d="M32.4682 164.343L32.4682 130.566L52.364 130.566L52.364 164.343L32.4682 164.343ZM32.0978 164.714L52.7344 164.714L52.7344 130.196L32.0978 130.196L32.0978 164.714Z" fill="#F7FAFB"/>
<path opacity="0.6" d="M52.6286 159.96L52.7344 160.304L48.2984 164.723L47.8486 164.705L52.6286 159.96Z" fill="#F7FAFB"/>
<path opacity="0.6" d="M55.0097 158.311L52.7697 158.311L52.7697 155.674L55.0097 155.674L55.0097 158.311ZM55.3008 158.602L55.3008 155.392L52.4875 155.392L52.4875 158.602L55.3008 158.602Z" fill="#F7FAFB"/>
<path d="M54.5156 158.011L54.5156 155.982L53.2721 155.982L53.2721 158.011L54.5156 158.011Z" fill="#FDC57B"/>
<path opacity="0.6" d="M55.0097 153.751L52.7697 153.751L52.7697 151.114L55.0097 151.114L55.0097 153.751ZM55.3008 154.042L55.3008 150.832L52.4875 150.832L52.4875 154.042L55.3008 154.042Z" fill="#F7FAFB"/>
<path d="M54.5156 153.452L54.5156 151.424L53.2721 151.424L53.2721 153.452L54.5156 153.452Z" fill="#FDC57B"/>
<path opacity="0.6" d="M32.0977 144.915L29.8576 144.915L29.8576 142.278L32.0977 142.278L32.0977 144.915ZM32.3887 145.206L32.3887 141.996L29.5754 141.996L29.5754 145.206L32.3887 145.206Z" fill="#F7FAFB"/>
<path d="M31.6035 144.607L31.6035 142.578L30.36 142.578L30.36 144.607L31.6035 144.607Z" fill="#FDC57B"/>
<path opacity="0.6" d="M32.0977 136.925L29.8576 136.925L29.8576 134.288L32.0977 134.288L32.0977 136.925ZM32.3887 137.216L32.3887 134.006L29.5754 134.006L29.5754 137.216L32.3887 137.216Z" fill="#F7FAFB"/>
<path d="M31.6035 136.617L31.6035 134.589L30.36 134.589L30.36 136.617L31.6035 136.617Z" fill="#FDC57B"/>
<path d="M74.3047 155.832L74.3047 137.895L56.3667 137.894L56.3667 155.832L74.3047 155.832Z" fill="#33313B"/>
<path d="M73.6699 155.207L73.6699 138.53L56.9931 138.53L56.9931 155.207L73.6699 155.207Z" fill="#33313B" stroke="#112129" stroke-width="0.688087" stroke-miterlimit="10"/>
<path d="M71.0601 153.566C71.0601 153.055 71.4745 152.631 71.9949 152.631C72.5152 152.631 72.9297 153.046 72.9297 153.566C72.9297 154.086 72.5152 154.501 71.9949 154.501C71.4745 154.501 71.0601 154.086 71.0601 153.566Z" fill="#112129"/>
<path opacity="0.6" d="M55.3783 164.343L55.3783 130.566L75.2741 130.566L75.2741 164.343L55.3783 164.343ZM55.0079 164.714L75.6445 164.714L75.6445 130.196L55.0079 130.196L55.0079 164.714Z" fill="#F7FAFB"/>
<path opacity="0.6" d="M75.5396 159.96L75.6543 160.304L71.2095 164.723L70.7597 164.705L75.5396 159.96Z" fill="#F7FAFB"/>
<path opacity="0.6" d="M77.9297 158.311L75.6896 158.311L75.6896 155.674L77.9297 155.674L77.9297 158.311ZM78.2207 158.602L78.2207 155.392L75.4074 155.392L75.4074 158.602L78.2207 158.602Z" fill="#F7FAFB"/>
<path d="M77.4277 158.011L77.4277 155.982L76.1842 155.982L76.1842 158.011L77.4277 158.011Z" fill="#FDC57B"/>
<path opacity="0.6" d="M77.9297 153.751L75.6896 153.751L75.6896 151.114L77.9297 151.114L77.9297 153.751ZM78.2207 154.042L78.2207 150.832L75.4074 150.832L75.4074 154.042L78.2207 154.042Z" fill="#F7FAFB"/>
<path d="M77.4277 153.452L77.4277 151.424L76.1842 151.424L76.1842 153.452L77.4277 153.452Z" fill="#FDC57B"/>
<path opacity="0.6" d="M55.0078 144.915L52.7678 144.915L52.7678 142.278L55.0078 142.278L55.0078 144.915ZM55.2988 145.206L55.2988 141.996L52.4855 141.996L52.4855 145.206L55.2988 145.206Z" fill="#F7FAFB"/>
<path d="M54.5137 144.607L54.5137 142.578L53.2702 142.578L53.2702 144.607L54.5137 144.607Z" fill="#FDC57B"/>
<path opacity="0.6" d="M55.0078 136.925L52.7678 136.925L52.7678 134.288L55.0078 134.288L55.0078 136.925ZM55.2988 137.216L55.2988 134.006L52.4855 134.006L52.4855 137.216L55.2988 137.216Z" fill="#F7FAFB"/>
<path d="M54.5137 136.617L54.5137 134.589L53.2702 134.589L53.2702 136.617L54.5137 136.617Z" fill="#FDC57B"/>
<path d="M79.2789 155.841L97.2168 155.841L97.2168 137.903L79.2789 137.903L79.2789 155.841Z" fill="#33313B"/>
<path d="M79.9052 155.206L96.582 155.206L96.582 138.529L79.9052 138.529L79.9052 155.206Z" fill="#33313B" stroke="#112129" stroke-width="0.688087" stroke-miterlimit="10"/>
<path d="M93.9722 153.566C93.9722 153.055 94.3867 152.631 94.907 152.631C95.4273 152.631 95.8418 153.046 95.8418 153.566C95.8418 154.086 95.4273 154.501 94.907 154.501C94.3867 154.501 93.9722 154.086 93.9722 153.566Z" fill="#112129"/>
<path opacity="0.6" d="M78.3002 164.343L78.3002 130.566L98.196 130.566L98.196 164.343L78.3002 164.343ZM77.9298 164.714L98.5664 164.714L98.5664 130.196L77.9298 130.196L77.9298 164.714Z" fill="#F7FAFB"/>
<path opacity="0.6" d="M98.4518 159.96L98.5664 160.304L94.1216 164.723L93.6806 164.705L98.4518 159.96Z" fill="#F7FAFB"/>
<path opacity="0.6" d="M100.807 158.311L98.5666 158.311L98.5666 155.674L100.807 155.674L100.807 158.311ZM101.098 158.602L101.098 155.392L98.2844 155.392L98.2844 158.602L101.098 158.602Z" fill="#F7FAFB"/>
<path d="M100.304 155.973L99.0605 155.973L99.0605 158.002L100.304 158.002L100.304 155.973Z" fill="#FDC57B"/>
<path opacity="0.6" d="M100.807 153.751L98.5666 153.751L98.5666 151.114L100.807 151.114L100.807 153.751ZM101.098 154.042L101.098 150.832L98.2844 150.832L98.2844 154.042L101.098 154.042Z" fill="#F7FAFB"/>
<path d="M100.304 151.414L99.0605 151.414L99.0605 153.443L100.304 153.443L100.304 151.414Z" fill="#FDC57B"/>
<path opacity="0.6" d="M100.807 141.881L98.5666 141.881L98.5666 139.244L100.807 139.244L100.807 141.881ZM101.098 142.172L101.098 138.962L98.2844 138.962L98.2844 142.172L101.098 142.172Z" fill="#F7FAFB"/>
<path d="M100.312 139.544L99.0684 139.544L99.0684 141.572L100.312 141.572L100.312 139.544Z" fill="#FDC57B"/>
<path opacity="0.6" d="M77.9297 144.915L75.6896 144.915L75.6896 142.278L77.9297 142.278L77.9297 144.915ZM78.2207 145.206L78.2207 141.996L75.4074 141.996L75.4074 145.206L78.2207 145.206Z" fill="#F7FAFB"/>
<path d="M77.4349 142.578L76.1914 142.578L76.1914 144.607L77.4349 144.607L77.4349 142.578Z" fill="#FDC57B"/>
<path opacity="0.6" d="M77.9297 136.925L75.6896 136.925L75.6896 134.288L77.9297 134.288L77.9297 136.925ZM78.2207 137.216L78.2207 134.006L75.4074 134.006L75.4074 137.216L78.2207 137.216Z" fill="#F7FAFB"/>
<path d="M77.4349 134.588L76.1914 134.588L76.1914 136.617L77.4349 136.617L77.4349 134.588Z" fill="#FDC57B"/>
</svg>
