<svg width="193" height="206" viewBox="0 0 193 206" fill="none" xmlns="http://www.w3.org/2000/svg">
<g clip-path="url(#clip0_684_9197)">
<path opacity="0.2" d="M191.101 152.033L100.702 204.182C99.5352 204.864 98.0144 205.185 96.487 205.185C94.9595 205.185 93.4387 204.864 92.2718 204.182L1.89874 152.04C0.73187 151.378 0.148438 150.499 0.148438 149.608C0.148438 148.979 0.456542 148.33 1.07275 147.779C1.30219 147.569 1.57752 147.359 1.89874 147.182L92.298 95.0471C94.6187 93.7032 98.3946 93.7032 100.728 95.0471L191.108 147.176C193.429 148.52 193.429 150.709 191.108 152.04L191.101 152.033Z" fill="black"/>
<path d="M96.487 180.169V197.738C94.9661 197.738 93.4583 197.417 92.2915 196.748L1.89874 144.606C0.73187 143.924 0.148438 143.052 0.148438 142.174V126.952C0.148438 126.323 0.456542 125.674 1.07275 125.123L14.1508 132.675L96.487 180.169Z" fill="#1A73E8"/>
<path opacity="0.5" d="M96.487 180.169V197.738C94.9661 197.738 93.4583 197.417 92.2915 196.748L1.89874 144.606C0.73187 143.924 0.148438 143.052 0.148438 142.174V126.952C0.148438 126.323 0.456542 125.674 1.07275 125.123L14.1508 132.675L96.487 180.169Z" fill="white"/>
<path d="M96.4863 180.169V197.738C98.0072 197.738 99.5149 197.417 100.682 196.748L191.094 144.6C192.261 143.918 192.845 143.046 192.845 142.168V126.946C192.845 126.316 192.536 125.668 191.92 125.117L178.842 132.669L96.4863 180.169Z" fill="#1A73E8"/>
<path opacity="0.65" d="M96.4863 180.169V197.738C98.0072 197.738 99.5149 197.417 100.682 196.748L191.094 144.6C192.261 143.918 192.845 143.046 192.845 142.168V126.946C192.845 126.316 192.536 125.668 191.92 125.117L178.842 132.669L96.4863 180.169Z" fill="white"/>
<path d="M191.101 129.378L100.702 181.527C99.5352 182.208 98.0144 182.53 96.487 182.53C94.9595 182.53 93.4387 182.208 92.2718 181.527L1.89874 129.385C0.73187 128.723 0.148438 127.844 0.148438 126.953C0.148438 126.323 0.456542 125.674 1.07275 125.124C1.30219 124.914 1.57752 124.704 1.89874 124.527L92.298 72.3918C94.6187 71.048 98.3946 71.048 100.728 72.3918L191.108 124.521C193.429 125.864 193.429 128.054 191.108 129.385L191.101 129.378Z" fill="#1A73E8"/>
<path opacity="0.8" d="M191.101 129.378L100.702 181.527C99.5352 182.208 98.0144 182.53 96.487 182.53C94.9595 182.53 93.4387 182.208 92.2718 181.527L1.89874 129.385C0.73187 128.723 0.148438 127.844 0.148438 126.953C0.148438 126.323 0.456542 125.674 1.07275 125.124C1.30219 124.914 1.57752 124.704 1.89874 124.527L92.298 72.3918C94.6187 71.048 98.3946 71.048 100.728 72.3918L191.108 124.521C193.429 125.864 193.429 128.054 191.108 129.385L191.101 129.378Z" fill="white"/>
<path d="M96.5066 72.4243C97.8964 72.4243 99.2468 72.739 100.204 73.2962L190.577 125.418C191.351 125.871 191.796 126.428 191.796 126.959C191.796 127.483 191.351 128.034 190.577 128.48L100.178 180.635C99.2206 181.192 97.916 181.5 96.487 181.5C95.0579 181.5 93.7533 181.192 92.7963 180.635L2.41661 128.48C1.63652 128.034 1.19075 127.483 1.19075 126.952C1.19075 126.605 1.39397 126.231 1.78074 125.884C1.97085 125.707 2.18062 125.556 2.41661 125.425L92.8225 73.2897C93.773 72.739 95.1169 72.4243 96.5066 72.4243ZM96.5066 71.382C94.9792 71.382 93.4584 71.7163 92.298 72.3916L1.89874 124.52C1.57752 124.697 1.30219 124.907 1.07275 125.117C0.456542 125.667 0.148438 126.316 0.148438 126.946C0.148438 127.837 0.73187 128.716 1.89874 129.378L92.2784 181.52C93.4452 182.201 94.9661 182.523 96.4935 182.523C98.0209 182.523 99.5418 182.201 100.709 181.52L191.108 129.371C193.429 128.041 193.429 125.851 191.108 124.507L100.722 72.3916C99.5549 71.7163 98.0275 71.382 96.5001 71.382H96.5066Z" fill="white"/>
<path d="M93.7017 82.9786L20.2482 125.34C18.7011 126.238 18.7011 127.687 20.2482 128.578L93.6821 170.933C95.2357 171.831 97.7464 171.831 99.2935 170.933L172.747 128.572C174.301 127.673 174.301 126.225 172.747 125.333L99.3132 82.9786C97.7661 82.0805 95.2488 82.0805 93.7017 82.9786Z" fill="#455A64"/>
<path d="M172.745 125.333L99.3116 82.9786C98.538 82.5328 97.522 82.3099 96.5059 82.3099V85.1615L172.26 128.86L172.745 128.578C174.293 127.68 174.293 126.231 172.745 125.34V125.333Z" fill="#37474F"/>
<path d="M96.5075 82.3034C95.4914 82.3034 94.4753 82.5263 93.7017 82.972L20.2482 125.34C18.7011 126.238 18.7011 127.687 20.2482 128.578L20.7333 128.86L96.514 85.155V82.3034H96.5075Z" fill="#263238"/>
<g opacity="0.5">
<path opacity="0.3" d="M101.575 160.208C100.106 161.145 98.3037 161.48 96.4158 161.421V171.614C97.5433 171.614 98.7692 171.3 99.877 170.585L171.869 129.024C173.206 128.283 173.855 127.634 173.855 126.736V118.496L101.581 160.215L101.575 160.208Z" fill="#1A73E8"/>
<path opacity="0.28" d="M101.575 151.096C100.106 152.033 98.3037 152.368 96.4158 152.309V162.502C97.5433 162.502 98.7692 162.188 99.877 161.473L171.869 119.912C173.206 119.171 173.855 118.522 173.855 117.624V109.384L101.581 151.103L101.575 151.096Z" fill="#1A73E8"/>
<path opacity="0.25" d="M101.575 141.984C100.106 142.921 98.3037 143.256 96.4158 143.197V153.39C97.5433 153.39 98.7692 153.076 99.877 152.361L171.869 110.8C173.206 110.059 173.855 109.41 173.855 108.512V100.272L101.581 141.991L101.575 141.984Z" fill="#1A73E8"/>
<path opacity="0.23" d="M101.575 132.865C100.106 133.796 98.3037 134.137 96.4158 134.078V144.272C97.5433 144.272 98.7692 143.957 99.877 143.243L171.869 101.681C173.206 100.94 173.855 100.291 173.855 99.3934V91.1532L101.581 132.872L101.575 132.865Z" fill="#1A73E8"/>
<path opacity="0.21" d="M101.575 123.753C100.106 124.691 98.3037 125.025 96.4158 124.966V135.16C97.5433 135.16 98.7692 134.845 99.877 134.131L171.869 92.5692C173.206 91.8284 173.855 91.1794 173.855 90.2813V82.0411L101.581 123.76L101.575 123.753Z" fill="#1A73E8"/>
<path opacity="0.18" d="M101.575 114.635C100.106 115.572 98.3037 115.906 96.4158 115.847V126.041C97.5433 126.041 98.7692 125.726 99.877 125.012L171.869 83.4506C173.206 82.7098 173.855 82.0608 173.855 81.1627V72.9225L101.581 114.641L101.575 114.635Z" fill="#1A73E8"/>
<path opacity="0.16" d="M101.575 105.523C100.106 106.454 98.3037 106.794 96.4158 106.735V116.929C97.5433 116.929 98.7692 116.614 99.877 115.9L171.869 74.3385C173.206 73.5978 173.855 72.9488 173.855 72.0507V63.8105L101.581 105.529L101.575 105.523Z" fill="#1A73E8"/>
<path opacity="0.14" d="M101.575 96.4041C100.106 97.3415 98.3037 97.6758 96.4158 97.6168V107.811C97.5433 107.811 98.7692 107.496 99.877 106.781L171.869 65.2199C173.206 64.4791 173.855 63.8302 173.855 62.9321V54.6919L101.581 96.4106L101.575 96.4041Z" fill="#1A73E8"/>
<path opacity="0.12" d="M101.575 87.292C100.106 88.2295 98.3037 88.5638 96.4158 88.5048V98.6985C97.5433 98.6985 98.7692 98.3838 99.877 97.6693L171.869 56.1079C173.206 55.3671 173.855 54.7181 173.855 53.82V45.5799L101.581 87.2986L101.575 87.292Z" fill="#1A73E8"/>
<path opacity="0.09" d="M101.575 78.1734C100.106 79.1043 98.3037 79.4452 96.4158 79.3862V89.5799C97.5433 89.5799 98.7692 89.2652 99.877 88.5507L171.869 46.9893C173.206 46.2485 173.855 45.5995 173.855 44.7014V36.4613L101.581 78.18L101.575 78.1734Z" fill="#1A73E8"/>
<path opacity="0.07" d="M101.575 69.0614C100.106 69.9988 98.3037 70.3331 96.4158 70.2741V80.4678C97.5433 80.4678 98.7692 80.1532 99.877 79.4386L171.869 37.8772C173.206 37.1365 173.855 36.4875 173.855 35.5894V27.3492L101.581 69.068L101.575 69.0614Z" fill="#1A73E8"/>
<path opacity="0.05" d="M101.575 59.9428C100.106 60.8802 98.3037 61.2146 96.4158 61.1556V71.3492C97.5433 71.3492 98.7692 71.0346 99.877 70.32L171.869 28.7586C173.206 28.0179 173.855 27.3689 173.855 26.4708V18.2306L101.581 59.9494L101.575 59.9428Z" fill="#1A73E8"/>
<path opacity="0.02" d="M101.575 50.8308C100.106 51.7616 98.3037 52.1025 96.4158 52.0435V62.2372C97.5433 62.2372 98.7692 61.9226 99.877 61.208L171.869 19.6466C173.206 18.9059 173.855 18.2569 173.855 17.3588V9.11205L101.581 50.8308H101.575Z" fill="#1A73E8"/>
</g>
<g opacity="0.7">
<path opacity="0.5" d="M91.2501 160.208C92.7185 161.145 94.5213 161.48 96.4092 161.421V171.614C95.2817 171.614 94.0558 171.3 92.948 170.585L20.9629 129.024C19.6256 128.283 18.9766 127.634 18.9766 126.736V118.496L91.2501 160.215V160.208Z" fill="#1A73E8"/>
<path opacity="0.46" d="M91.2501 151.096C92.7185 152.033 94.5213 152.368 96.4092 152.309V162.502C95.2817 162.502 94.0558 162.188 92.948 161.473L20.9629 119.912C19.6256 119.171 18.9766 118.522 18.9766 117.624V109.384L91.2501 151.103V151.096Z" fill="#1A73E8"/>
<path opacity="0.42" d="M91.2501 141.984C92.7185 142.921 94.5213 143.256 96.4092 143.197V153.39C95.2817 153.39 94.0558 153.076 92.948 152.361L20.9629 110.793C19.6256 110.052 18.9766 109.403 18.9766 108.505V100.265L91.2501 141.984Z" fill="#1A73E8"/>
<path opacity="0.38" d="M91.2501 132.865C92.7185 133.796 94.5213 134.137 96.4092 134.078V144.272C95.2817 144.272 94.0558 143.957 92.948 143.243L20.9629 101.681C19.6256 100.94 18.9766 100.291 18.9766 99.3934V91.1532L91.2501 132.872V132.865Z" fill="#1A73E8"/>
<path opacity="0.35" d="M91.2501 123.753C92.7185 124.691 94.5213 125.025 96.4092 124.966V135.16C95.2817 135.16 94.0558 134.845 92.948 134.131L20.9629 92.5626C19.6256 91.8218 18.9766 91.1728 18.9766 90.2748V82.0346L91.2501 123.753Z" fill="#1A73E8"/>
<path opacity="0.31" d="M91.2501 114.635C92.7185 115.572 94.5213 115.906 96.4092 115.847V126.041C95.2817 126.041 94.0558 125.726 92.948 125.012L20.9629 83.4506C19.6256 82.7098 18.9766 82.0608 18.9766 81.1627V72.9225L91.2501 114.641V114.635Z" fill="#1A73E8"/>
<path opacity="0.27" d="M91.2501 105.523C92.7185 106.454 94.5213 106.794 96.4092 106.735V116.929C95.2817 116.929 94.0558 116.614 92.948 115.9L20.9629 74.3385C19.6256 73.5978 18.9766 72.9488 18.9766 72.0507V63.8105L91.2501 105.529V105.523Z" fill="#1A73E8"/>
<path opacity="0.23" d="M91.2501 96.4041C92.7185 97.3415 94.5213 97.6758 96.4092 97.6168V107.811C95.2817 107.811 94.0558 107.496 92.948 106.781L20.9629 65.2199C19.6256 64.4791 18.9766 63.8302 18.9766 62.9321V54.6919L91.2501 96.4106V96.4041Z" fill="#1A73E8"/>
<path opacity="0.19" d="M91.2501 87.292C92.7185 88.2295 94.5213 88.5638 96.4092 88.5048V98.6985C95.2817 98.6985 94.0558 98.3838 92.948 97.6693L20.9629 56.1079C19.6256 55.3671 18.9766 54.7181 18.9766 53.82V45.5799L91.2501 87.2986V87.292Z" fill="#1A73E8"/>
<path opacity="0.15" d="M91.2501 78.1734C92.7185 79.1043 94.5213 79.4452 96.4092 79.3862V89.5799C95.2817 89.5799 94.0558 89.2652 92.948 88.5507L20.9629 46.9893C19.6256 46.2485 18.9766 45.5995 18.9766 44.7014V36.4613L91.2501 78.18V78.1734Z" fill="#1A73E8"/>
<path opacity="0.12" d="M91.2501 69.0614C92.7185 69.9988 94.5213 70.3331 96.4092 70.2741V80.4678C95.2817 80.4678 94.0558 80.1532 92.948 79.4386L20.9629 37.8772C19.6256 37.1365 18.9766 36.4875 18.9766 35.5894V27.3492L91.2501 69.068V69.0614Z" fill="#1A73E8"/>
<path opacity="0.08" d="M91.2501 59.9428C92.7185 60.8802 94.5213 61.2146 96.4092 61.1556V71.3492C95.2817 71.3492 94.0558 71.0346 92.948 70.32L20.9629 28.7586C19.6256 28.0179 18.9766 27.3689 18.9766 26.4708V18.2306L91.2501 59.9494V59.9428Z" fill="#1A73E8"/>
<path opacity="0.04" d="M91.2501 50.8308C92.7185 51.7616 94.5213 52.1025 96.4092 52.0435V62.2372C95.2817 62.2372 94.0558 61.9226 92.948 61.208L20.9629 19.6466C19.6256 18.9059 18.9766 18.2569 18.9766 17.3588V9.11205L91.2501 50.8308Z" fill="#1A73E8"/>
</g>
<path d="M148.82 88.3606C148.82 88.3606 151.009 90.5435 149.488 94.5817C148.026 98.5084 143.248 99.1639 143.248 99.1639C143.248 99.1639 143.877 105.595 133.46 106.388C133.519 105.582 133.434 105.038 133.434 105.038C133.434 105.038 138.226 104.854 138.305 97.4071C138.39 89.9732 132.792 88.826 132.792 88.826C132.792 88.826 134.785 86.2235 133.657 82.8409C132.293 78.7634 129.409 79.1961 129.409 79.1961C129.409 79.1961 131.5 77.6621 130.582 73.86C129.73 70.3266 127.075 69.8743 127.075 69.8743C127.075 69.8743 129.042 66.354 125.45 61.6144C121.844 56.8683 118.18 57.6025 118.18 57.6025C118.18 57.6025 118.18 54.2068 115.643 51.2503C113.093 48.2742 109.068 48.7003 109.068 48.7003C109.068 48.7003 109.513 44.3016 105.698 40.7092C101.883 37.1037 98.0545 37.2676 98.0545 37.2676C98.0545 37.2676 98.4281 34.1341 95.4782 31.9511C91.9579 29.3486 88.5688 30.9613 88.5688 30.9613C88.5688 30.9613 87.9132 26.2938 83.8751 25.4023C78.598 24.2485 75.9824 27.3623 75.9824 27.3623C75.9824 27.3623 74.2255 25.0483 70.207 24.3927C71.4722 22.767 73.3012 20.8856 75.5431 19.5221C80.3024 16.6114 87.4937 18.4666 87.4937 18.4666C87.4937 18.4666 90.0569 16.3886 93.7738 16.7294C97.4907 17.0769 99.1099 19.8629 99.1099 19.8629C99.1099 19.8629 101.313 18.2372 106.655 18.5846C111.991 18.9321 113.27 23.1079 113.27 23.1079C113.27 23.1079 116.764 22.7604 120.703 25.1991C124.656 27.6377 124.656 32.8689 124.656 32.8689C124.656 32.8689 129.422 31.5906 133.598 35.891C137.787 40.1913 135.925 44.2491 135.925 44.2491C135.925 44.2491 140.684 44.3606 143.359 49.1198C146.021 53.8922 143.359 58.186 143.359 58.186C143.359 58.186 145.214 58.6448 146.021 60.736C146.84 62.8272 146.021 64.1055 146.021 64.1055C146.021 64.1055 150.085 65.8427 151.134 70.1365C152.176 74.4368 150.078 76.9869 150.078 76.9869C150.078 76.9869 153.448 78.6192 153.448 83.031C153.448 87.4428 148.8 88.3671 148.8 88.3671L148.82 88.3606Z" fill="#1A73E8"/>
<path opacity="0.05" d="M148.819 88.3606C148.819 88.3606 151.009 90.5435 149.488 94.5817C148.026 98.5084 143.247 99.1639 143.247 99.1639C143.247 99.1639 143.876 105.595 133.46 106.388C133.519 105.582 133.433 105.038 133.433 105.038C133.433 105.038 138.225 104.854 138.304 97.4071C138.389 89.9732 132.791 88.826 132.791 88.826C132.791 88.826 134.784 86.2235 133.656 82.8409C132.293 78.7634 129.408 79.1961 129.408 79.1961C129.408 79.1961 131.5 77.6621 130.582 73.86C129.73 70.3266 127.075 69.8743 127.075 69.8743C127.075 69.8743 129.041 66.354 125.449 61.6144C121.843 56.8683 118.179 57.6025 118.179 57.6025C118.179 57.6025 118.179 54.2068 115.642 51.2503C113.092 48.2741 109.067 48.7002 109.067 48.7002C109.067 48.7002 109.513 44.3016 105.697 40.7092C101.882 37.1037 98.0538 37.2676 98.0538 37.2676C98.0538 37.2676 98.4274 34.1341 95.4775 31.9511C91.9572 29.3486 88.5681 30.9613 88.5681 30.9613C88.5681 30.9613 87.9125 26.2938 83.8744 25.4023C78.5973 24.2485 75.9817 27.3623 75.9817 27.3623C75.9817 27.3623 75.4245 26.6347 74.2379 25.8743C74.1265 25.8021 74.0282 25.7366 73.9036 25.6776C72.9989 25.1466 71.7731 24.6353 70.2129 24.3862C71.4781 22.7604 73.3071 20.879 75.549 19.5155C80.3082 16.6049 87.4995 18.4601 87.4995 18.4601C87.4995 18.4601 90.0627 16.382 93.7796 16.7229C97.4966 17.0703 99.1158 19.8564 99.1158 19.8564C99.1158 19.8564 101.318 18.2306 106.661 18.5781C111.997 18.9255 113.275 23.1013 113.275 23.1013C113.275 23.1013 116.77 22.7539 120.709 25.1925C124.662 27.6311 124.662 32.8623 124.662 32.8623C124.662 32.8623 129.428 31.584 133.604 35.8844C137.793 40.1847 135.931 44.2426 135.931 44.2426C135.931 44.2426 140.69 44.354 143.365 49.1132C146.026 53.8856 143.365 58.1794 143.365 58.1794C143.365 58.1794 145.22 58.6383 146.026 60.7295C146.846 62.8206 146.026 64.0989 146.026 64.0989C146.026 64.0989 150.091 65.8361 151.14 70.1299C152.182 74.4303 150.084 76.9804 150.084 76.9804C150.084 76.9804 153.454 78.6127 153.454 83.0245C153.454 87.4363 148.806 88.3606 148.806 88.3606H148.819Z" fill="black"/>
<path opacity="0.2" d="M134.567 88.1508C135.117 86.8659 135.616 84.8206 134.829 82.441C134.055 80.1138 132.744 78.9142 131.512 78.3504C131.997 77.2753 132.305 75.702 131.787 73.565C131.171 70.9953 129.722 69.7497 128.634 69.1597C129.034 67.5078 129.165 64.4529 126.438 60.854C123.744 57.301 120.918 56.4815 119.299 56.3373C119.076 54.9345 118.427 52.5811 116.579 50.4243C114.599 48.1103 111.892 47.5596 110.292 47.4482C110.148 45.6913 109.453 42.5316 106.542 39.7914C103.71 37.1168 100.846 36.3302 99.2592 36.1007C99.1019 34.7503 98.466 32.6067 96.211 30.9351C93.5691 28.9815 90.9863 29.0602 89.4523 29.3814C88.882 27.6704 87.466 24.9106 84.1359 24.1764C80.0781 23.2849 77.3838 24.6418 76.0334 25.6448C75.1156 24.8582 73.5095 23.7962 71.1168 23.2718C70.4154 24.0584 69.8319 24.8254 69.373 25.5006C73.208 25.9136 74.9058 27.9786 74.991 28.0966C75.2139 28.3915 75.5679 28.5685 75.9416 28.5817C76.3218 28.5817 76.6758 28.4309 76.9183 28.149C77.0101 28.0441 79.18 25.6252 83.5983 26.5954C86.7318 27.2837 87.3218 30.9613 87.3415 31.112C87.3939 31.4988 87.6365 31.8331 87.9773 32.0233C88.3182 32.2134 88.7312 32.2199 89.0918 32.0626C89.2032 32.0101 91.8975 30.8236 94.736 32.9279C97.0435 34.6323 96.8337 37.0119 96.8272 37.1037C96.7878 37.4577 96.9058 37.8182 97.1484 38.087C97.3909 38.3492 97.7187 38.5328 98.0989 38.4869C98.2235 38.4869 101.495 38.4279 104.844 41.5942C108.135 44.708 107.853 48.4184 107.84 48.5691C107.801 48.9362 107.939 49.3034 108.201 49.5656C108.463 49.8278 108.837 49.9589 109.197 49.9261C109.23 49.9261 112.626 49.6246 114.697 52.0435C116.887 54.6001 116.939 57.5697 116.939 57.5894C116.939 57.9565 117.11 58.2974 117.385 58.5334C117.66 58.7694 118.041 58.8743 118.395 58.8087C118.519 58.7891 121.43 58.3629 124.458 62.3552C127.474 66.3343 126.045 69.1663 125.992 69.2777C125.802 69.6252 125.796 70.0382 125.959 70.3987C126.123 70.7593 126.458 71.0149 126.844 71.1001C126.923 71.1133 128.739 71.5131 129.368 74.155C130.063 77.0328 128.7 78.1734 128.667 78.1997C128.215 78.5274 128.057 79.1174 128.26 79.6419C128.464 80.1663 129.001 80.481 129.558 80.4285C129.755 80.4088 131.505 80.3236 132.469 83.2277C133.367 85.9285 131.859 88 131.8 88.0787C131.545 88.413 131.479 88.8588 131.623 89.2587C131.768 89.6585 132.108 89.9535 132.521 90.0453C132.712 90.0846 137.123 91.1401 137.058 97.4071C136.992 103.49 133.505 103.799 133.374 103.812C133.02 103.825 132.692 103.989 132.469 104.264C132.246 104.533 132.148 104.893 132.194 105.241C132.194 105.287 132.246 105.654 132.22 106.204C132.672 106.355 133.085 106.434 133.446 106.408C133.892 106.375 134.285 106.316 134.691 106.263C134.691 106.185 134.704 106.093 134.704 106.021C136.461 105.418 139.464 103.504 139.529 97.4464C139.582 92.0709 136.822 89.298 134.554 88.177L134.567 88.1508Z" fill="black"/>
<path d="M133.434 105.031C133.434 105.031 138.226 104.841 138.304 97.4071C138.383 89.9666 132.791 88.826 132.791 88.826C132.791 88.826 134.777 86.2235 133.65 82.8343C132.299 78.7634 129.409 79.1961 129.409 79.1961C129.409 79.1961 131.5 77.6621 130.582 73.86C129.73 70.3266 127.075 69.8743 127.075 69.8743C127.075 69.8743 129.041 66.3475 125.449 61.6079C121.857 56.8683 118.179 57.5894 118.179 57.5894C118.179 57.5894 118.179 54.2002 115.636 51.2372C113.092 48.2741 109.067 48.6937 109.067 48.6937C109.067 48.6937 109.5 44.295 105.691 40.6961C101.876 37.0971 98.0539 37.2545 98.0539 37.2545C98.0539 37.2545 98.421 34.121 95.4711 31.938C91.9508 29.3355 88.5682 30.9482 88.5682 30.9482C88.5682 30.9482 87.8996 26.2807 83.8614 25.3957C78.5843 24.2354 75.9752 27.3558 75.9752 27.3558C75.9752 27.3558 72.4025 22.6359 63.8149 24.7271C56.6105 26.4774 56.0926 31.8659 56.0926 31.8659C56.0926 31.8659 48.6981 30.4827 45.309 35.5632C41.9198 40.6502 42.9818 47.2122 42.9818 47.2122C42.9818 47.2122 38.747 50.1752 38.9568 54.6263C39.1665 59.0775 41.0742 61.6144 41.0742 61.6144C41.0742 61.6144 36.8394 68.8188 39.8024 74.7449C42.7655 80.6776 48.0622 81.9494 48.0622 81.9494C48.0622 81.9494 48.0622 88.3016 51.0253 91.4809C53.9883 94.6603 59.2851 94.444 59.2851 94.444C59.2851 94.444 60.5569 98.8951 65.0015 101.013C69.4526 103.13 74.1069 101.439 74.1069 101.439C74.1069 101.439 76.0146 103.982 79.4037 105.038C82.7929 106.1 87.0277 105.038 87.0277 105.038C87.0277 105.038 87.4538 108.636 91.4788 109.489C95.5039 110.334 97.6213 107.791 97.6213 107.791C97.6213 107.791 98.893 110.544 101.856 110.754C104.819 110.964 106.517 109.063 106.517 109.063C106.517 109.063 108.208 114.359 115.203 114.569C122.191 114.779 123.908 111.763 123.908 111.763C123.908 111.763 127.278 114.15 130.667 111.606C134.056 109.063 133.42 105.038 133.42 105.038L133.434 105.031Z" fill="#1A73E8"/>
<path opacity="0.2" d="M133.434 105.031C133.434 105.031 138.226 104.841 138.304 97.4071C138.383 89.9666 132.791 88.826 132.791 88.826C132.791 88.826 134.777 86.2235 133.65 82.8343C132.299 78.7634 129.409 79.1961 129.409 79.1961C129.409 79.1961 131.5 77.6621 130.582 73.86C129.73 70.3266 127.075 69.8743 127.075 69.8743C127.075 69.8743 129.041 66.3475 125.449 61.6079C121.857 56.8683 118.179 57.5894 118.179 57.5894C118.179 57.5894 118.179 54.2002 115.636 51.2372C113.092 48.2741 109.067 48.6937 109.067 48.6937C109.067 48.6937 109.5 44.295 105.691 40.6961C101.876 37.0971 98.0539 37.2545 98.0539 37.2545C98.0539 37.2545 98.421 34.121 95.4711 31.938C91.9508 29.3355 88.5682 30.9482 88.5682 30.9482C88.5682 30.9482 87.8996 26.2807 83.8614 25.3957C78.5843 24.2354 75.9752 27.3558 75.9752 27.3558C75.9752 27.3558 72.4025 22.6359 63.8149 24.7271C56.6105 26.4774 56.0926 31.8659 56.0926 31.8659C56.0926 31.8659 48.6981 30.4827 45.309 35.5632C41.9198 40.6502 42.9818 47.2122 42.9818 47.2122C42.9818 47.2122 38.747 50.1752 38.9568 54.6263C39.1665 59.0775 41.0742 61.6144 41.0742 61.6144C41.0742 61.6144 36.8394 68.8188 39.8024 74.7449C42.7655 80.6776 48.0622 81.9494 48.0622 81.9494C48.0622 81.9494 48.0622 88.3016 51.0253 91.4809C53.9883 94.6603 59.2851 94.444 59.2851 94.444C59.2851 94.444 60.5569 98.8951 65.0015 101.013C69.4526 103.13 74.1069 101.439 74.1069 101.439C74.1069 101.439 76.0146 103.982 79.4037 105.038C82.7929 106.1 87.0277 105.038 87.0277 105.038C87.0277 105.038 87.4538 108.636 91.4788 109.489C95.5039 110.334 97.6213 107.791 97.6213 107.791C97.6213 107.791 98.893 110.544 101.856 110.754C104.819 110.964 106.517 109.063 106.517 109.063C106.517 109.063 108.208 114.359 115.203 114.569C122.191 114.779 123.908 111.763 123.908 111.763C123.908 111.763 127.278 114.15 130.667 111.606C134.056 109.063 133.42 105.038 133.42 105.038L133.434 105.031Z" fill="white"/>
<g opacity="0.05">
<path d="M77.6007 44.5703C76.8599 43.1937 76.0143 41.8498 74.9851 40.6698C74.2312 39.8045 73.0512 38.5393 71.7795 38.677C71.4124 38.7163 71.6549 39.3129 71.9106 39.3588C73.0578 39.5685 73.851 40.5387 74.4934 41.4434C75.1817 42.407 75.7586 43.4428 76.3093 44.4917C77.758 47.2449 78.6496 50.2998 78.7741 53.4201C78.8724 56.0423 78.23 58.7235 75.7258 60.0149C72.7759 61.5358 68.9803 60.5787 66.2008 59.1627C63.8015 57.9368 62.1823 55.9309 61.789 53.2366C61.7431 52.9088 61.2318 52.6269 61.2383 53.112C61.2646 54.5411 61.5202 55.9178 62.2675 57.1567C62.969 58.3236 64.1096 59.2151 65.2699 59.8969C68.115 61.562 71.5631 62.4929 74.8343 61.6734C82.5304 59.7461 80.3343 49.6836 77.5941 44.59L77.6007 44.5703Z" fill="black"/>
<path d="M69.288 48.6347C69.2028 47.5727 68.7702 46.537 68.2326 45.6323C67.682 44.708 66.9609 43.8951 66.1414 43.2002C65.322 42.5119 64.3584 41.8367 63.3095 41.5614C62.8572 41.4434 62.8899 42.0793 63.1653 42.2563C63.9912 42.7938 64.85 43.1871 65.5842 43.8689C66.2791 44.5179 66.9019 45.2586 67.3542 46.0977C67.7934 46.9041 68.0491 47.7628 68.1343 48.674C68.1802 49.1591 68.1474 49.6377 68.0818 50.1228C68.0228 50.5816 67.8983 51.0209 67.8262 51.4797C67.7934 51.6895 68.0622 52.1353 68.2982 51.8993C69.1176 51.0733 69.3798 49.7688 69.288 48.6412V48.6347Z" fill="black"/>
<path d="M73.0249 33.2163C70.7961 32.5608 68.187 32.3707 65.873 32.5411C63.5523 32.705 61.4677 33.4851 59.5339 34.7634C56.1971 36.9726 53.6995 40.2569 53.0637 44.2622C52.7162 46.4714 52.5261 49.2378 54.4796 50.7914C54.7156 50.975 55.1417 50.8766 55.0041 50.5095C54.519 49.1788 54.1519 48.0054 54.2436 46.5632C54.3157 45.4225 54.4731 44.2557 54.7681 43.1544C55.3777 40.8731 56.7478 38.8737 58.4784 37.2938C60.3336 35.5959 62.628 34.2455 65.1322 33.8391C66.4498 33.6228 67.8003 33.649 69.131 33.7408C70.429 33.8325 71.8318 34.0882 73.1233 33.9309C73.4838 33.885 73.2413 33.295 73.0118 33.2294L73.0249 33.2163Z" fill="black"/>
<path d="M58.1306 57.9106C56.1247 54.6985 52.3225 52.1222 48.4614 52.2009C45.4328 52.2599 40.7653 53.9512 41.198 57.7336C41.3946 59.4577 42.6336 61.5096 44.1479 62.3945C44.8821 62.8206 45.813 62.9649 46.58 62.5322C47.4846 62.0209 47.5764 60.8737 47.819 59.9821C47.8583 59.8314 47.6944 59.5167 47.5305 59.6937C46.7832 60.4935 46.0556 62.4535 44.6724 61.4833C43.6366 60.7557 42.7451 59.2742 42.5156 58.0417C41.965 55.1246 45.341 53.7217 47.6616 53.3874C50.8935 52.9285 53.8565 54.6264 55.9608 56.9732C57.3243 58.4941 59.1271 61.6472 56.9048 63.2205C56.2034 63.7187 55.2397 63.9809 54.3875 63.8105C53.3649 63.6073 53.2665 62.8206 53.0633 61.9357C52.965 61.4964 52.1718 61.3129 52.021 61.798C51.6736 62.9255 52.2308 64.0203 53.2534 64.5644C54.2564 65.1019 55.5085 65.0626 56.5639 64.7283C57.6259 64.3874 58.6223 63.6532 59.0419 62.5846C59.6384 61.0638 58.9304 59.2086 58.1241 57.9106H58.1306Z" fill="black"/>
<path d="M87.9178 94.562C86.2265 91.3105 83.0667 89.062 79.8153 87.5543C79.2777 87.3052 78.7271 87.0757 78.1764 86.8528C78.8647 86.2825 79.4482 85.4565 79.8349 84.8796C80.7789 83.4637 81.5262 81.851 81.9982 80.2122C82.4571 78.5996 82.326 76.8427 81.3754 75.4202C80.91 74.7187 80.2807 74.1288 79.5334 73.7289C78.7926 73.3355 77.534 72.8963 76.7145 73.27C76.3802 73.4208 76.7539 73.9059 76.9702 73.9583C77.8159 74.1615 78.5566 74.1681 79.2974 74.6991C79.9333 75.1514 80.3921 75.8135 80.6412 76.5477C81.0805 77.8129 80.8969 79.1043 80.4839 80.3433C80.0381 81.6806 79.4023 82.9786 78.6287 84.1586C78.2551 84.7223 77.8421 85.2664 77.3504 85.7253C77.1144 85.9416 76.8391 86.0924 76.5703 86.2432C73.7777 85.2664 70.8933 84.5453 68.0745 83.6538C63.9773 82.3624 60.2408 80.3302 57.3367 77.0984C55.6126 75.1711 54.2229 72.9094 53.7509 70.3397C53.5608 69.2909 53.5083 68.183 53.5542 67.121C53.5936 66.2426 53.6657 65.0823 54.3081 64.4136C54.6162 64.0924 54.0328 63.4434 53.6722 63.6794C52.3152 64.5644 52.3349 66.7408 52.3284 68.1764C52.3152 70.4512 52.8593 72.6735 53.9607 74.6729C56.0649 78.5078 59.618 81.5823 63.5447 83.4571C70.3492 86.7086 79.0089 86.7873 84.5089 92.5036C85.9511 94.0048 87.059 95.7551 87.4392 97.8266C87.6424 98.9083 87.6883 100.088 87.4458 101.17C87.2098 102.206 86.5542 102.96 86.2199 103.93C86.1347 104.185 86.4952 104.644 86.7706 104.507C88.3766 103.733 88.9338 101.563 89.0518 99.9178C89.183 98.0888 88.7503 96.1812 87.9112 94.5555L87.9178 94.562Z" fill="black"/>
<path d="M79.3564 94.9488C77.4946 93.6049 75.2199 93.2706 73.0369 92.7658C70.8605 92.261 68.6645 91.8218 66.5208 91.1794C65.4523 90.8582 64.4034 90.478 63.3808 90.0322C61.9189 89.3963 60.6406 88.4327 59.1984 87.7837C58.9231 87.6591 58.615 87.9017 58.7527 88.2032C59.1853 89.1276 60.2997 89.8093 61.1388 90.3272C61.9779 90.8451 62.8826 91.2646 63.8003 91.6317C65.7407 92.4053 67.7729 92.9297 69.8051 93.3951C72.2568 93.9589 74.9183 94.2408 77.2783 95.1127C78.0125 95.3814 78.6812 95.7616 79.3105 96.2271C80.0578 96.7777 81.1525 97.6365 81.2312 98.6264C81.2574 98.9476 81.8081 99.2426 81.8605 98.7902C82.0703 97.1383 80.5953 95.8338 79.3564 94.9422V94.9488Z" fill="black"/>
<path d="M49.6094 76.8165C49.0391 75.5578 48.0099 74.5745 47.0856 73.5715C45.7548 72.1359 44.8108 70.6281 44.8174 68.5894C44.8174 67.5143 45.0337 66.4523 45.2304 65.4035C45.4336 64.3218 45.781 63.0763 45.3549 62.0209C45.2828 61.8373 45.0206 61.6865 44.896 61.9094C44.6273 62.388 44.6142 62.9714 44.5158 63.5024C44.4306 63.994 44.3388 64.4857 44.2405 64.9774C44.0438 65.9476 43.8341 66.9178 43.7685 67.9076C43.644 69.73 44.1487 71.4279 45.2566 72.8766C46.0826 73.9648 47.1183 74.876 47.9312 75.9708C48.3049 76.4756 48.6261 77.0197 48.7637 77.6293C48.9997 78.652 48.6523 79.6025 48.4229 80.5924C48.3901 80.7432 48.5474 81.1955 48.7637 80.9988C49.9568 79.9368 50.2453 78.2455 49.6028 76.8099L49.6094 76.8165Z" fill="black"/>
<path d="M125.784 70.7199C124.735 70.9559 123.902 71.5787 122.952 72.0376C121.935 72.5292 120.795 72.8504 119.674 72.9357C117.648 73.0864 115.675 72.4309 113.649 72.444C111.788 72.4571 110.201 73.1651 108.949 74.5221C108.595 74.9023 108.11 75.4988 107.782 76.1347C107.376 75.6758 106.95 75.2366 106.504 74.8171C104.832 73.27 102.859 72.0441 100.709 71.2771C98.3097 70.4249 95.8056 70.0709 93.2948 69.7366C91.0267 69.4351 88.8306 69.1401 86.7656 68.1043C85.0547 67.239 83.0487 66.0262 82.5308 64.0334C82.439 63.6925 81.9081 63.5876 81.9474 64.0334C82.0851 65.7509 83.3765 67.0489 84.6679 68.0584C86.0707 69.1532 87.7555 69.9726 89.4927 70.3856C94.0684 71.4738 98.9718 71.3427 103.049 74.0107C106.589 76.3248 109.087 79.8123 109.828 83.9881C110.437 87.4428 110.713 91.7563 107.979 94.4047C106.078 96.2533 103.849 97.6758 101.535 98.941C100.991 99.2426 100.394 99.5769 99.8109 99.9571C100.145 98.9082 100.342 97.8069 100.44 96.7974C100.643 94.6341 100.552 92.3594 99.8896 90.2748C99.2537 88.2754 98.1852 86.4595 96.7889 84.8993C95.1369 83.0507 93.0785 81.8248 91.0922 80.3761C89.9122 79.5107 88.8568 78.5471 87.9915 77.3671C87.0082 76.0298 86.1887 74.5483 85.3169 73.1389C85.1464 72.857 84.9498 73.2241 85.0416 73.4273C86.038 75.643 87.0016 77.8719 88.6798 79.6812C90.3318 81.4643 92.4951 82.6639 94.2847 84.2831C97.4248 87.1216 99.1029 90.95 99.1554 95.1716C99.175 96.509 99.0505 97.8004 98.6965 99.0918C98.4605 99.9571 98.1 100.796 97.8377 101.655C97.392 102.206 97.0576 102.822 96.9396 103.536C96.8872 103.864 97.4575 104.375 97.7263 104.035C98.4343 103.143 99.1357 102.311 100.034 101.596C100.834 100.96 101.732 100.468 102.63 99.9899C104.741 98.8624 106.747 97.5316 108.536 95.9452C110.011 94.6341 111.027 93.1854 111.499 91.2515C111.945 89.4094 111.932 87.4494 111.729 85.5811C111.525 83.6931 111.178 81.7724 110.391 80.0352C109.998 79.1567 109.493 78.3373 108.936 77.5572C109.061 77.1901 109.159 76.8034 109.343 76.4887C109.729 75.8463 110.254 75.2694 110.824 74.7908C112.194 73.6502 114.003 73.7616 115.675 73.9845C117.589 74.2467 119.49 74.509 121.391 74.0107C122.329 73.7616 123.233 73.388 124.079 72.916C124.833 72.4964 125.685 72.031 126.223 71.3427C126.419 71.0936 126.092 70.6281 125.797 70.6937L125.784 70.7199Z" fill="black"/>
<path d="M119.779 63.5352C118.664 60.8802 115.74 59.7658 113.223 58.8677C110.424 57.8713 107.599 56.8027 105.114 55.1442C103.941 54.3641 102.839 53.4529 101.954 52.3451C100.545 50.5685 99.9615 48.5232 99.6599 46.2944C99.614 45.9404 98.8012 45.5733 98.7094 46.065C97.6933 51.5256 102.19 55.4523 106.563 57.6943C108.916 58.9005 111.414 59.6412 113.872 60.5787C115.871 61.3457 118.979 62.8862 118.546 65.5411C118.336 66.826 117.143 67.239 116.022 67.4881C114.515 67.8224 112.967 67.9207 111.427 67.8749C108.241 67.7765 105.094 67.1341 102.013 66.354C96.3036 64.8987 91.4066 61.267 88.3584 56.2062C86.6015 53.2825 85.6969 50.0048 85.4609 46.6156C85.3429 44.9178 85.4609 43.2527 85.7165 41.5745C86.0115 39.6144 86.3983 37.4774 87.5193 35.7861C87.5914 35.6746 87.4931 35.3403 87.3423 35.4845C86.2737 36.4809 85.8083 37.91 85.4543 39.2932C85.0807 40.7551 84.7726 42.2759 84.5956 43.7706C84.2022 47.1204 84.5628 50.5816 85.7755 53.7348C87.9126 59.2938 92.6194 64.0399 98.067 66.3933C100.892 67.6126 104.085 68.242 107.113 68.7271C110.378 69.2515 113.859 69.4809 117.078 68.5894C118.218 68.2747 119.274 67.711 119.811 66.6031C120.277 65.6395 120.185 64.4923 119.779 63.5286V63.5352Z" fill="black"/>
<path d="M108.981 63.1353C107.814 62.7354 106.543 62.6043 105.363 62.2241C104.17 61.8373 102.963 61.4112 101.842 60.854C99.7775 59.8314 97.9944 58.3498 96.5457 56.5602C95.0052 54.646 93.6351 52.2795 93.1893 49.8474C92.7108 47.2384 93.4319 44.708 93.5761 42.1055C93.5892 41.8892 93.2155 41.3582 93.0582 41.7449C91.9307 44.4982 91.3603 47.73 91.9569 50.68C92.4682 53.2104 93.858 55.6097 95.4903 57.5763C97.0701 59.4839 99.063 61.1162 101.37 62.0602C102.636 62.5781 103.973 62.9583 105.31 63.2467C106.412 63.4827 107.919 63.9482 109.04 63.6335C109.27 63.5679 109.158 63.2008 108.988 63.1418L108.981 63.1353Z" fill="black"/>
<path d="M128.674 84.6633C126.177 82.3361 121.667 81.6347 120.873 77.7736C120.827 77.5376 120.369 77.2819 120.336 77.6556C120.047 80.8743 123.869 82.9261 126.196 84.3093C127.638 85.1681 128.707 86.2891 129.349 87.8689C130.11 89.7307 129.835 91.4875 129.199 93.3296C129.127 93.5459 129.376 93.9065 129.612 93.7491C132.732 91.5924 130.89 86.7217 128.681 84.6633H128.674Z" fill="black"/>
<path d="M134.391 98.6722C133.047 99.8719 131.723 100.79 129.874 100.868C128.327 100.934 126.721 100.501 125.364 99.7735C123.836 98.9541 122.781 97.8004 122.545 96.0435C122.414 95.0602 122.48 94.0703 122.709 93.1132C122.938 92.1627 123.253 91.2515 123.305 90.2682C123.345 90.301 123.397 90.3272 123.437 90.3665C124.328 91.1007 124.721 91.966 125.266 92.9493C125.344 93.087 125.672 93.2902 125.79 93.0674C126.36 92.0119 125.534 90.8713 124.787 90.1436C123.994 89.3635 123.05 88.7604 122.099 88.2032C121.005 87.5608 119.949 86.9249 118.946 86.1317C118.448 85.7318 117.963 85.3123 117.524 84.8468C116.881 84.1585 116.39 83.3719 115.786 82.6639C115.675 82.5328 115.531 82.677 115.537 82.8081C115.609 84.0602 116.691 85.2926 117.537 86.1252C118.507 87.0888 119.608 87.8623 120.769 88.5703C121.286 88.885 121.798 89.2062 122.303 89.5471C122.204 89.6126 122.119 89.711 122.093 89.8617C121.903 90.832 121.536 91.7563 121.286 92.7134C121.044 93.6311 120.946 94.5292 120.991 95.4797C121.064 97.0072 121.509 98.4362 122.637 99.5244C124.708 101.53 128.176 102.52 131.002 102.029C131.788 101.891 132.549 101.642 133.23 101.222C134.109 100.685 134.64 100.095 134.889 99.0852C134.948 98.8361 134.62 98.4559 134.384 98.6657L134.391 98.6722Z" fill="black"/>
<path d="M124.479 109.076C124.433 108.63 124.276 108.191 124.092 107.784C123.699 106.899 123.2 106.047 122.604 105.28C121.988 104.48 121.175 103.877 120.29 103.412C119.844 103.176 119.372 102.986 118.894 102.828C118.802 102.802 118.703 102.769 118.612 102.737C118.769 102.317 118.88 101.884 118.907 101.393C118.985 99.9964 118.756 98.5411 118.382 97.1973C118.002 95.8534 117.405 94.4637 116.062 93.8475C115.524 93.5984 115.491 94.3719 115.871 94.6079C116.448 94.9684 116.743 96.0829 116.94 96.686C117.196 97.4661 117.366 98.2724 117.464 99.0852C117.609 100.278 117.72 101.57 117.176 102.645C117.104 102.684 117.084 102.743 117.084 102.815C117.012 102.933 116.947 103.051 116.855 103.169C115.786 104.552 113.997 105.162 112.482 105.903C110.994 106.631 109.29 107.542 109.067 109.338C109.028 109.626 109.467 110.026 109.703 109.738C110.745 108.427 111.991 107.535 113.492 106.814C114.816 106.178 116.225 105.608 117.333 104.611C117.648 104.33 117.897 104.021 118.12 103.707C118.159 103.713 118.199 103.726 118.225 103.733C118.415 103.785 118.599 103.838 118.782 103.903C119.149 104.028 119.516 104.179 119.864 104.356C120.532 104.697 121.142 105.162 121.621 105.746C122.001 106.211 122.348 106.709 122.663 107.221C122.886 107.581 123.089 107.955 123.266 108.342C123.417 108.669 123.6 109.036 123.712 109.397C123.777 109.613 123.83 109.816 123.948 110.013C123.994 110.085 124.105 110.21 124.21 110.157C124.584 109.98 124.518 109.417 124.479 109.076Z" fill="black"/>
<path d="M113.518 95.8928C113.485 95.683 113.197 95.4339 113.138 95.7748C112.915 96.981 112.482 97.9839 111.643 98.8886C110.876 99.7146 109.952 100.337 109.027 100.98C108.116 101.609 107.218 102.258 106.471 103.084C106.09 103.504 105.736 103.969 105.514 104.493C105.264 105.083 105.271 105.608 105.402 106.218C105.428 106.336 105.612 106.663 105.776 106.486C106.267 105.936 106.556 105.26 106.956 104.651C107.257 104.192 107.605 103.766 108.005 103.392C108.752 102.684 109.617 102.12 110.456 101.524C111.348 100.895 112.266 100.18 112.862 99.2491C113.485 98.2789 113.701 97.0137 113.524 95.8928H113.518Z" fill="black"/>
<path d="M79.8812 69.0352C78.9962 68.5697 77.9998 68.3534 77.0165 68.2092C74.1518 67.7765 71.2149 68.0781 68.3961 68.6681C66.1214 69.1466 63.8597 69.8022 61.7489 70.792C60.6476 71.3099 59.5856 71.9261 58.622 72.6669C57.9664 73.1782 56.6422 74.1091 57.0224 75.0662C57.0814 75.2169 57.2584 75.4267 57.4485 75.3677C58.3991 75.0924 59.1333 74.0763 59.9199 73.4929C60.7459 72.8832 61.6637 72.3916 62.5946 71.9589C64.4432 71.1001 66.4164 70.5102 68.4027 70.0578C70.8478 69.5006 73.3717 69.1335 75.8824 69.2581C76.7477 69.304 77.6196 69.3826 78.4652 69.5596C79.3961 69.7563 79.9861 70.1103 80.7596 70.6413C80.8383 70.6937 80.976 70.7068 81.0219 70.6019C81.33 69.8808 80.4056 69.3171 79.8747 69.0417L79.8812 69.0352Z" fill="black"/>
<path d="M66.1281 63.0697C65.7217 63.2402 65.4398 63.5745 65.1252 63.8695C64.7646 64.2169 64.3844 64.5578 63.9976 64.879C63.211 65.5215 62.3391 66.0852 61.4148 66.5179C60.5364 66.9243 59.612 67.2193 58.655 67.3832C58.2092 67.4553 57.7569 67.5012 57.3045 67.5274C56.8981 67.5471 56.4064 67.4947 56.0262 67.6323C55.6985 67.7503 55.882 68.1961 56.0983 68.3338C56.944 68.8516 58.3141 68.6484 59.2449 68.4911C60.2938 68.3075 61.3099 67.9601 62.2604 67.4815C63.1913 67.0096 64.0566 66.4392 64.8498 65.7575C65.2497 65.41 65.6168 65.0364 65.9577 64.6299C66.2592 64.2759 66.5477 63.9351 66.5477 63.4565C66.5477 63.2599 66.3445 62.9845 66.1281 63.0763V63.0697Z" fill="black"/>
</g>
<g opacity="0.05">
<path d="M114.391 24.9434C114.28 24.8188 114.155 24.9434 114.129 25.0548C114.004 25.6776 114.116 26.3659 114.044 26.9952C113.945 27.8737 113.663 28.7259 113.27 29.5125C112.496 31.0465 111.185 32.5936 109.494 33.118C105.331 34.4094 101.772 31.6889 98.8809 29.0405C98.7104 28.4833 98.5007 27.9523 98.2974 27.4803C97.714 26.1365 96.888 24.9762 95.9309 23.8748C95.0394 22.8522 94.0889 21.8886 93.0334 21.0298C92.4893 20.5906 91.9124 20.1973 91.2897 19.8957C90.8046 19.6597 90.1425 19.3647 89.5853 19.4893C89.2575 19.5679 89.4214 20.0727 89.6771 20.1383C90.7653 20.4201 91.6568 21.1675 92.4697 21.9148C93.3415 22.7145 94.1544 23.6061 94.9214 24.5107C95.7802 25.5268 96.5275 26.6019 97.0388 27.8409C97.3403 28.5751 97.5698 29.329 97.7206 30.1091C97.7861 30.4499 97.8451 30.7974 97.9172 31.1383C98.009 31.5971 98.2319 31.9511 98.4154 32.3772C98.4875 32.5411 98.7367 32.7247 98.8546 32.5018C99.1169 32.0232 99.2086 31.4791 99.2021 30.9285C100.185 32.0888 101.503 33.0262 102.788 33.649C104.918 34.6847 107.416 35.0387 109.724 34.4291C111.592 33.9374 113.073 32.5739 114.057 30.9482C115.099 29.2306 115.866 26.6478 114.391 24.9434Z" fill="black"/>
<path d="M123.483 38.9196C122.015 37.8117 120.133 36.789 118.245 36.8349C117.872 36.8415 118.134 37.5298 118.429 37.5495C119.766 37.6544 121.202 38.5262 122.264 39.2998C123.149 39.9488 124.525 41.0501 124.499 42.289C124.46 44.0131 121.51 44.295 120.304 44.2688C117.97 44.2229 115.754 43.174 113.873 41.8564C112.916 41.1877 111.985 40.4076 111.238 39.5095C110.353 38.441 109.986 37.1627 109.363 35.9565C109.264 35.7729 108.904 35.596 108.865 35.9237C108.707 37.3463 109.389 38.9196 110.163 40.093C110.884 41.1943 111.874 42.1252 112.922 42.9118C115.027 44.4851 117.662 45.5799 120.31 45.6323C122.139 45.6651 125.43 45.0227 125.863 42.8266C126.177 41.214 124.637 39.7914 123.49 38.9196H123.483Z" fill="black"/>
<path d="M141.995 57.1502C141.215 56.9273 140.258 57.2288 139.472 57.3468C138.534 57.4911 137.597 57.6484 136.646 57.7467C134.785 57.9368 132.897 57.9172 131.068 57.5042C129.56 57.1633 128.105 56.593 126.793 55.7604C125.194 54.7509 124.112 53.4857 122.88 52.0894C122.677 51.8599 122.382 51.9583 122.401 52.2664C122.441 53.053 122.985 53.9315 123.437 54.5477C123.942 55.2425 124.512 55.8325 125.2 56.3504C126.61 57.4189 128.295 58.1532 129.993 58.612C131.946 59.143 133.985 59.2872 135.997 59.1102C137.118 59.0119 138.233 58.8218 139.341 58.612C139.904 58.5006 140.468 58.3695 141.032 58.2449C141.412 58.1597 142.048 58.1335 142.271 57.7664C142.422 57.5304 142.251 57.2157 141.995 57.1436V57.1502Z" fill="black"/>
<path d="M136.181 47.6317C135.781 47.6448 136.102 48.261 136.332 48.3266C137.374 48.615 137.688 50.8373 137.23 51.7092C136.541 53.0268 134.411 53.0727 133.146 53.0858C131.12 53.1055 129.062 52.581 127.305 51.5715C125.62 50.6079 124.27 49.2116 122.65 48.1627C122.382 47.9857 122.309 48.4052 122.447 48.5757C123.968 50.385 125.548 52.2008 127.718 53.2366C129.94 54.292 132.523 54.6263 134.955 54.2658C136.581 54.0232 138.541 53.3087 138.705 51.4142C138.836 49.9195 137.97 47.5727 136.181 47.6317Z" fill="black"/>
<path d="M144.081 63.3909C144.002 63.3516 143.917 63.3188 143.832 63.2861C143.707 63.2402 143.576 63.2074 143.445 63.1812C143.196 63.1287 142.947 63.0959 142.698 63.0828C142.147 63.0501 141.603 63.1025 141.059 63.1943C139.853 63.3909 138.647 63.7515 137.532 64.2563C136.582 64.6824 135.703 65.2461 135.041 66.059C134.268 67.0161 134.012 68.3993 133.946 69.5924C133.894 70.438 134.025 71.323 134.451 72.0572C135.107 73.1782 136.451 74.0501 137.749 74.0042C137.86 74.0042 137.978 73.9911 138.07 73.919C138.208 73.8141 138.214 73.5977 138.135 73.447C138.057 73.2896 137.919 73.1847 137.781 73.0733C137.191 72.621 136.601 72.149 136.182 71.5328C134.904 69.6776 135.592 66.9178 137.513 65.8164C138.522 65.2396 139.682 64.8331 140.803 64.5447C141.466 64.3743 142.154 64.2563 142.842 64.2497C143.458 64.2431 143.976 64.4398 144.573 64.5513C144.717 64.5775 144.842 64.4201 144.835 64.289C144.828 64.0793 144.265 63.4893 144.088 63.4041L144.081 63.3909Z" fill="black"/>
<path d="M147.141 78.4094C145.823 75.584 142.657 73.8534 139.688 73.3552C138.068 73.0799 135.243 72.9684 134.188 74.5024C134.129 74.5876 134.076 74.6859 134.076 74.7843C134.076 74.9416 134.22 75.0662 134.371 75.1055C134.522 75.1448 134.679 75.1186 134.837 75.0924C136.154 74.8498 137.308 74.4237 138.678 74.5352C141.104 74.7384 143.844 76.0888 145.227 78.1406C146.328 79.7729 146.617 82.4738 145.371 84.1192C144.303 85.5286 142.356 85.5352 140.809 85.1091C139.989 84.8862 138.98 84.5191 138.409 83.8504C137.852 83.1949 138.239 82.4803 138.717 81.9166C138.973 81.615 138.514 80.9464 138.154 81.1824C137.079 81.8838 136.187 83.0179 136.921 84.3028C137.433 85.1877 138.442 85.7384 139.366 86.0989C141.51 86.9249 144.119 87.1216 146.014 85.5876C148.033 83.9553 148.177 80.6186 147.141 78.4094Z" fill="black"/>
<path d="M144.172 92.1562C143.68 91.1466 143.025 90.2354 142.146 89.5275C141.32 88.8654 140.238 88.3475 139.163 88.5376C138.803 88.6031 139.026 89.1669 139.314 89.1866C141.169 89.3242 142.408 91.1139 143.038 92.6872C143.352 93.4738 143.542 94.2998 143.601 95.1454C143.628 95.5453 143.601 95.9583 143.569 96.3582C143.556 96.5024 143.516 96.6466 143.497 96.7909C143.464 97.0465 143.359 97.3874 143.418 97.6365C143.47 97.8594 143.654 98.115 143.916 98.0102C144.355 97.8397 144.677 97.158 144.808 96.7384C144.971 96.2271 145.011 95.6895 144.991 95.152C144.945 94.1162 144.631 93.0805 144.178 92.1562H144.172Z" fill="black"/>
</g>
<g opacity="0.2">
<path d="M81.5803 41.8629C81.1215 41.7843 80.6757 42.0727 80.4135 42.8987C79.83 44.7735 80.4397 47.8874 80.6036 49.795C80.8461 52.5417 81.305 55.2753 81.9802 57.9499C82.5309 60.1198 83.252 62.3159 84.6942 64.0268C86.0511 65.6329 87.9456 66.6949 89.8992 67.475C95.2156 69.6055 101.201 69.9267 106.268 72.5948C106.891 72.9225 107.691 73.27 108.235 72.8242C108.648 72.4833 108.648 71.8212 108.372 71.3689C108.097 70.9166 107.618 70.6281 107.14 70.3921C105.121 69.3957 102.859 69.0286 100.683 68.4452C97.0315 67.4684 93.5112 65.8427 90.6072 63.4237C87.7031 61.0048 85.4284 57.7533 84.4713 54.0954C83.8616 51.7682 83.7961 49.3558 83.4617 46.9827C83.2847 45.7306 83.37 44.3212 82.8652 43.1412C82.5636 42.4464 82.0654 41.9482 81.5803 41.8629Z" fill="white"/>
<path d="M70.4489 51.2044C70.1998 53.2956 68.4167 55.1573 66.3124 55.3081C65.9125 55.3343 65.4602 55.3278 65.1914 55.6228C64.6866 56.1734 65.3553 57.006 65.9715 57.4255C68.0168 58.8218 70.4685 60.1263 72.8613 59.4774C75.3589 58.8022 76.8863 56.1013 76.9977 53.5119C77.0895 51.3355 75.6604 39.9422 71.2552 43.41C69.1771 45.0423 70.7045 49.0215 70.4489 51.1979V51.2044Z" fill="white"/>
<path d="M65.7695 51.0536C67.4411 45.2324 56.6181 38.7229 56.2051 46.2616C56.1527 47.2515 56.192 48.2938 56.6771 49.1591C58.3225 52.0894 61.1283 47.5334 63.4358 50.3784C63.7308 50.739 63.9405 51.1716 64.3011 51.4601C64.6616 51.7551 65.2516 51.8468 65.5597 51.4994C65.6712 51.3749 65.7236 51.211 65.7695 51.0536Z" fill="white"/>
<path d="M91.5643 76.7378C91.8986 77.236 92.4034 77.5769 92.8819 77.9309C97.4314 81.1955 101.286 85.994 101.745 91.5727C101.843 92.7724 101.961 94.2604 103.069 94.7193C103.711 94.9815 104.452 94.7652 105.068 94.4309C107.192 93.264 108.392 90.8123 108.543 88.3868C108.687 85.9678 107.92 83.5751 106.884 81.3856C105.462 78.3635 103.069 75.7479 99.7585 74.876C98.4016 74.5155 89.3485 73.4207 91.5643 76.7443V76.7378Z" fill="white"/>
<path d="M63.2587 75.643C64.6222 75.8397 65.9726 76.7575 67.4083 76.9082C69.1717 77.0918 71.2301 76.9279 72.7182 75.8594C73.236 75.4857 73.649 74.9678 74.2062 74.6597C75.3076 74.0501 76.7825 74.4499 77.6478 75.3743C78.5132 76.2986 78.8278 77.6162 78.795 78.8749C78.7492 80.435 78.1329 82.0542 76.8481 82.9327C75.1437 84.0995 72.8427 83.6669 70.863 83.0769C67.736 82.1395 64.6288 80.8874 62.1574 78.7503C61.7509 78.3963 61.3511 78.0095 61.1478 77.5048C60.9446 77.0066 60.984 76.3707 61.3773 75.997C61.6788 75.7086 62.1246 75.6365 62.5441 75.6037C62.7867 75.584 63.0227 75.6037 63.2652 75.6365L63.2587 75.643Z" fill="white"/>
<path d="M91.6045 58.7104C94.325 61.7259 98.0485 63.6466 101.844 65.0954C105.45 66.4786 111.113 68.4911 114.942 66.8653C116.122 66.3671 117.112 65.174 116.941 63.9023C116.777 62.6961 115.683 61.8504 114.607 61.267C110.799 59.2152 106.413 58.3957 102.545 56.4553C101.805 56.0817 100.795 55.7473 100.231 56.357C99.707 56.9208 100.035 57.8779 100.605 58.3957C101.444 59.1562 102.657 59.9887 103.68 60.4738C105.135 61.1556 108.006 61.3653 109.14 62.4535C110.281 63.5483 109.298 64.3022 107.941 64.0989C104.119 63.5221 100.297 62.4601 97.0717 60.3296C94.4561 58.5989 92.2404 56.0882 91.1784 53.1055C90.7916 52.0107 90.4245 50.8963 90.2279 49.7622C90.1099 49.0936 90.359 47.2712 89.7624 46.7992C87.8876 45.3177 88.0777 51.1258 88.2022 51.8665C88.6283 54.41 89.8935 56.8028 91.611 58.7104H91.6045Z" fill="white"/>
<path d="M84.9819 29.6174C83.9396 28.1031 82.0058 27.3558 80.1702 27.4541C78.3347 27.5524 76.6041 28.3981 75.1553 29.5256C72.6184 27.3492 69.0981 26.4708 65.8139 26.9493C63.349 27.3033 60.7859 28.4178 59.2847 30.4958C59.0028 30.8892 58.7864 31.4988 59.1601 31.8004C59.3174 31.9249 59.5338 31.9511 59.7304 31.9642C62.2936 32.0822 64.8633 30.9154 67.5314 30.9678C70.3043 31.0203 73.0838 31.6234 75.4569 33.0918C76.9909 34.0423 78.3347 35.3403 80.026 35.9696C83.8609 37.4052 87.3419 33.0656 84.9754 29.6174H84.9819Z" fill="white"/>
<path d="M47.7281 36.5924C46.0368 38.677 45.0666 41.332 45.0208 44.0197C44.9749 46.9631 46.2204 49.382 49.4915 49.4017C49.8062 49.4017 50.1274 49.3755 50.4093 49.2312C51.3008 48.7658 51.2353 47.4941 51.1435 46.4911C50.8813 43.5149 51.5827 40.4601 53.1167 37.8969C53.5559 37.1693 54.0803 36.3498 53.8312 35.537C53.628 34.8749 52.9463 34.4488 52.2579 34.3439C50.3962 34.0685 48.836 35.2157 47.7216 36.5924H47.7281Z" fill="white"/>
<path d="M96.3952 99.2426C96.723 96.9482 96.4346 94.3915 95.9691 92.4184C95.189 89.1407 93.3142 86.171 90.5609 84.2044C89.1646 83.208 86.3917 81.5954 84.7135 82.7622C83.1074 83.8767 83.5073 86.2169 84.5168 87.6001C85.5329 88.9899 87.0538 89.9273 88.1747 91.2318C89.5973 92.8838 90.2987 95.0536 90.5281 97.2235C90.7379 99.1508 90.0758 100.79 90.1414 102.612C90.161 103.241 90.4167 103.903 90.9477 104.251C91.282 104.474 91.7016 104.552 92.1014 104.546C93.4781 104.52 94.7039 103.556 95.3988 102.363C95.9232 101.465 96.2379 100.39 96.4018 99.2426H96.3952Z" fill="white"/>
<path d="M64.7784 88.9178L74.015 91.9857C75.7587 92.5626 77.5156 93.1526 79.0758 94.1162C80.636 95.0864 81.9995 96.4827 82.5633 98.2265C82.8386 99.0721 83.0418 100.128 83.8809 100.423C84.6413 100.691 85.4935 100.062 85.723 99.295C85.9524 98.528 85.7295 97.6889 85.4214 96.9416C83.8153 93.087 80.105 90.4976 76.2504 88.8784C72.4023 87.2593 68.2659 86.4071 64.4113 84.7944C60.5567 83.1818 57.043 80.8218 54.0734 77.885C52.6902 76.5215 51.1759 76.2658 51.3201 78.6323C51.7003 84.9059 59.8815 87.2855 64.7587 88.9047L64.7784 88.9178Z" fill="white"/>
<path d="M118.906 79.0715C117.916 77.7998 116.618 78.7634 116.566 80.5399C116.514 82.3689 117.844 83.9619 119.332 85.0173C120.827 86.0727 122.551 86.7938 123.934 87.9869C124.557 88.5179 125.344 89.239 125.809 89.9207C126.478 90.8909 126.832 94.0048 128.628 92.261C129.906 91.0221 129.238 88.1442 128.379 86.9249C127.317 85.4237 125.665 84.4797 124.065 83.5685C122.374 82.6049 120.119 81.3594 119.221 79.5828C119.123 79.3862 119.018 79.2157 118.906 79.0781V79.0715Z" fill="white"/>
<path d="M124.701 101.839C124.328 101.701 123.987 101.55 123.685 101.38C122.23 100.56 120.958 99.3212 120.355 97.7676C120.237 97.466 120.014 97.0858 119.713 97.1842C119.444 97.2694 119.437 97.6496 119.477 97.9249C119.647 99.0066 119.667 100.193 120.217 101.15C120.84 102.225 121.62 102.986 122.558 103.799C123.266 104.415 123.98 105.103 124.36 105.975C124.747 106.867 124.695 107.883 125.265 108.722C125.56 109.154 126.006 109.476 126.491 109.679C128.215 110.4 130.45 109.43 131.093 107.673C132.64 103.431 127.723 102.973 124.701 101.839Z" fill="white"/>
<path d="M48.6843 54.4821C48.0222 54.4821 47.347 54.5346 46.7439 54.7903C46.1343 55.0525 45.6033 55.5572 45.4656 56.1997C45.2624 57.1436 45.9507 58.0811 46.7964 58.5465C47.642 59.0119 48.6253 59.1365 49.5562 59.3856C51.0574 59.7855 52.4668 60.5262 53.6468 61.5358C54.1647 61.975 54.8136 62.506 55.443 62.2438C55.9412 62.034 56.1182 61.4112 56.1444 60.8737C56.1903 59.8838 55.9477 58.8743 55.4561 58.0155C54.0204 55.5245 51.3983 54.469 48.6974 54.4821H48.6843Z" fill="white"/>
</g>
<path d="M97.2861 24.0519C98.7414 26.0054 99.9673 28.1687 101.803 29.7616C103.638 31.3612 106.339 32.2855 108.542 31.2432C109.964 30.5679 110.961 29.1192 111.223 27.5656C111.57 25.4875 110.587 22.5507 108.797 21.3576C106.496 19.8302 103.219 19.9416 101.029 21.6198C100.865 21.7443 100.701 21.882 100.498 21.9082C100.256 21.941 100.026 21.8099 99.8165 21.6788C98.6496 20.9577 96.0275 18.5387 94.5591 19.0435C92.5924 19.7187 96.7354 23.3176 97.2861 24.0453V24.0519Z" fill="#1A73E8"/>
<path d="M115.406 33.531C115.334 33.708 115.262 33.9178 115.347 34.0882C115.432 34.2586 115.642 34.3176 115.826 34.3635C117.084 34.6585 118.376 34.829 119.621 35.1699C121.988 35.8188 124.177 37.1103 125.895 38.8671C127.009 40.0078 127.953 41.4303 128.052 43.0232C128.143 44.6162 127.134 46.3403 125.561 46.6156C125.311 47.4154 126.072 48.1496 126.78 48.6019C127.901 49.3296 129.101 49.9458 130.339 50.444C131.716 50.9946 133.571 51.27 134.43 50.0638C135.066 49.1657 134.745 47.8546 133.997 47.0483C133.25 46.242 132.182 45.8224 131.159 45.4291C133.067 43.3707 133.008 39.9291 131.342 37.6675C129.684 35.4058 126.727 34.3111 123.928 34.4815C123.371 34.5143 122.768 34.5799 122.296 34.2783C121.26 33.6031 121.758 32.0429 121.699 31.0399C121.588 29.2437 120.238 26.5232 118.094 27.9327C116.403 29.0471 116.134 31.8004 115.419 33.531H115.406Z" fill="#1A73E8"/>
<path d="M114.22 37.9559C113.702 37.9428 113.099 38.0215 112.843 38.4672C112.528 39.0244 112.994 39.6997 113.466 40.1323C114.121 40.7223 114.862 41.2271 115.655 41.6204C117.235 42.4136 119.025 42.7938 120.788 42.6824C121.018 42.6693 121.247 42.643 121.444 42.5382C123.05 41.6663 121.162 39.0179 120.074 38.5852C118.409 37.9231 115.976 37.9887 114.22 37.9494V37.9559Z" fill="#1A73E8"/>
<path d="M128.792 59.8969C128.451 59.851 128.058 59.8248 127.802 60.0543C127.527 60.3034 127.547 60.7557 127.73 61.0835C128.143 61.8046 128.812 62.4142 129.251 63.1419C129.795 64.0465 130.097 65.0954 130.097 66.1508C130.097 66.9965 129.933 67.9011 130.353 68.6288C130.582 69.0221 130.956 69.3171 131.165 69.7235C131.29 69.9661 131.349 70.2348 131.473 70.4774C131.598 70.7199 131.821 70.9428 132.096 70.9428C132.529 70.9428 132.758 70.4446 132.87 70.0251C133.27 68.5108 133.243 66.7539 133.919 65.3314C134.686 63.7253 136.128 63.2664 137.636 62.6764C139.379 61.9881 141.261 61.8832 143.063 61.4375C143.313 61.3785 143.562 61.3063 143.771 61.1556C143.981 61.0048 144.132 60.7557 144.099 60.5066C143.994 59.6347 142.251 59.8248 141.707 59.91C137.327 60.5918 133.165 60.4738 128.792 59.9035V59.8969Z" fill="#1A73E8"/>
<path d="M137.662 70.9035C137.662 68.4255 141.077 66.6818 143.215 66.6752C144.847 66.6752 146.433 67.2783 147.797 68.1699C149.514 69.2974 150.15 72.1359 149.704 74.0173C149.567 74.6007 149.324 75.1842 148.872 75.5841C148.426 75.9839 147.738 76.1609 147.207 75.8856C146.859 75.7086 146.617 75.3677 146.374 75.0662C144.801 73.0864 142.33 71.854 139.806 71.7754C138.98 71.7491 137.918 71.6901 137.669 70.9035H137.662Z" fill="#1A73E8"/>
<path d="M141.712 76.7378C140.46 76.2199 139.07 76.0233 137.72 76.174C137.202 76.233 136.658 76.351 136.271 76.705C135.885 77.0525 135.714 77.6883 136.022 78.1144C136.173 78.3177 136.402 78.4357 136.619 78.5537C137.727 79.1502 138.789 79.832 139.792 80.5858C140.152 80.8546 140.519 81.1562 140.69 81.5692C140.86 81.9821 140.821 82.4672 141.057 82.8475C141.365 83.3391 142.014 83.4702 142.591 83.5489C142.984 83.6013 143.397 83.6538 143.758 83.4965C144.243 83.2801 144.485 82.736 144.603 82.2247C144.918 80.8349 144.57 79.3141 143.686 78.2062C142.801 77.0984 141.385 76.4231 139.962 76.4297" fill="#1A73E8"/>
<path d="M112.627 45.3176C112.404 45.2783 112.149 45.2521 111.991 45.4094C111.834 45.5668 111.867 45.8421 112.005 46.0191C112.142 46.1961 112.352 46.2944 112.549 46.3927C114.05 47.0876 115.597 47.7432 116.915 48.7527C118.232 49.7622 119.314 51.1979 119.504 52.8433C119.55 53.2563 119.576 53.7414 119.924 53.9643C120.271 54.1937 120.769 53.9905 121.012 53.643C121.248 53.3022 121.294 52.8629 121.333 52.45C121.503 50.5423 121.975 47.6055 119.74 46.7271C118.96 46.419 117.99 46.4583 117.164 46.2944C115.649 45.9863 114.155 45.593 112.627 45.3242V45.3176Z" fill="#1A73E8"/>
<path d="M76.5588 21.2199C76.0278 21.5608 75.4378 22.0197 75.4575 22.649C75.4772 23.2062 76.0082 23.6323 76.5523 23.7372C77.0964 23.8421 77.6601 23.7044 78.2042 23.593C81.8818 22.8194 86.1494 23.1603 88.7454 25.8808C89.2305 26.3921 89.6566 26.9821 90.2466 27.3623C91.8723 28.4112 94.0159 28.2277 95.8055 28.6997C95.8514 28.3063 95.7269 27.9917 95.5433 27.6377C92.2066 21.2199 82.9962 17.1097 76.5588 21.2265V21.2199Z" fill="#1A73E8"/>
<path d="M143.726 88.0656C143.326 88.1377 142.861 88.3147 142.769 88.7146C142.684 89.0817 142.972 89.4226 143.241 89.6913C143.648 90.0978 144.054 90.5108 144.46 90.9172C144.742 91.2056 145.031 91.4941 145.241 91.8349C145.772 92.7003 145.765 93.7754 145.975 94.7652C146.04 95.0733 146.198 95.4339 146.506 95.4535C146.676 95.4667 146.833 95.3552 146.965 95.2438C147.935 94.3785 148.033 92.9166 148.033 91.6186C148.033 88.7867 146.479 87.587 143.733 88.0721L143.726 88.0656Z" fill="#1A73E8"/>
<path d="M83.0876 64.5709C83.0876 65.3183 82.4845 65.9214 81.7371 65.9214C80.9898 65.9214 80.3867 65.3183 80.3867 64.5709C80.3867 63.8236 80.9898 63.2205 81.7371 63.2205C82.4845 63.2205 83.0876 63.8236 83.0876 64.5709Z" fill="#FAFAFA"/>
<path d="M73.7067 38.6639C73.7067 39.4112 73.1036 40.0143 72.3563 40.0143C71.609 40.0143 71.0059 39.4112 71.0059 38.6639C71.0059 37.9166 71.609 37.3135 72.3563 37.3135C73.1036 37.3135 73.7067 37.9166 73.7067 38.6639Z" fill="#FAFAFA"/>
<path d="M62.5954 53.1186C62.5954 53.8659 61.9923 54.469 61.2449 54.469C60.4976 54.469 59.8945 53.8659 59.8945 53.1186C59.8945 52.3713 60.4976 51.7682 61.2449 51.7682C61.9923 51.7682 62.5954 52.3713 62.5954 53.1186Z" fill="#FAFAFA"/>
<path d="M49.4586 60.441C49.4586 61.1883 48.8556 61.7914 48.1082 61.7914C47.3609 61.7914 46.7578 61.1883 46.7578 60.441C46.7578 59.6937 47.3609 59.0906 48.1082 59.0906C48.8556 59.0906 49.4586 59.6937 49.4586 60.441Z" fill="#FAFAFA"/>
<path d="M77.7575 73.1913C77.7575 73.9386 77.1544 74.5417 76.4071 74.5417C75.6597 74.5417 75.0566 73.9386 75.0566 73.1913C75.0566 72.444 75.6597 71.8409 76.4071 71.8409C77.1544 71.8409 77.7575 72.444 77.7575 73.1913Z" fill="#FAFAFA"/>
<path d="M57.2653 76.1413C57.2653 76.8886 56.6622 77.4917 55.9149 77.4917C55.1676 77.4917 54.5645 76.8886 54.5645 76.1413C54.5645 75.3939 55.1676 74.7908 55.9149 74.7908C56.6622 74.7908 57.2653 75.3939 57.2653 76.1413Z" fill="#FAFAFA"/>
<path d="M108.832 77.0525C108.832 77.7998 108.229 78.4029 107.481 78.4029C106.734 78.4029 106.131 77.7998 106.131 77.0525C106.131 76.3052 106.734 75.7021 107.481 75.7021C108.229 75.7021 108.832 76.3052 108.832 77.0525Z" fill="#FAFAFA"/>
<path d="M99.0641 103.543C99.0641 104.29 98.461 104.893 97.7137 104.893C96.9664 104.893 96.3633 104.29 96.3633 103.543C96.3633 102.796 96.9664 102.193 97.7137 102.193C98.461 102.193 99.0641 102.796 99.0641 103.543Z" fill="#FAFAFA"/>
<path d="M110.798 63.3057C110.798 64.0531 110.195 64.6562 109.448 64.6562C108.701 64.6562 108.098 64.0531 108.098 63.3057C108.098 62.5584 108.701 61.9553 109.448 61.9553C110.195 61.9553 110.798 62.5584 110.798 63.3057Z" fill="#FAFAFA"/>
<path d="M110.707 35.9631C110.707 36.7104 110.104 37.3135 109.356 37.3135C108.609 37.3135 108.006 36.7104 108.006 35.9631C108.006 35.2157 108.609 34.6126 109.356 34.6126C110.104 34.6126 110.707 35.2157 110.707 35.9631Z" fill="#F0F0F0"/>
<path d="M135.427 54.056C135.427 54.8034 134.824 55.4065 134.077 55.4065C133.33 55.4065 132.727 54.8034 132.727 54.056C132.727 53.3087 133.33 52.7056 134.077 52.7056C134.824 52.7056 135.427 53.3087 135.427 54.056Z" fill="#F0F0F0"/>
<path d="M139.097 73.9976C139.097 74.745 138.494 75.3481 137.747 75.3481C137 75.3481 136.396 74.745 136.396 73.9976C136.396 73.2503 137 72.6472 137.747 72.6472C138.494 72.6472 139.097 73.2503 139.097 73.9976Z" fill="#F0F0F0"/>
<path d="M94.4215 21.5215C94.4215 22.2688 93.8184 22.8719 93.0711 22.8719C92.3238 22.8719 91.7207 22.2688 91.7207 21.5215C91.7207 20.7741 92.3238 20.171 93.0711 20.171C93.8184 20.171 94.4215 20.7741 94.4215 21.5215Z" fill="#F0F0F0"/>
<path d="M95.3864 41.994C95.3864 42.7414 94.7833 43.3445 94.036 43.3445C93.2886 43.3445 92.6855 42.7414 92.6855 41.994C92.6855 41.2467 93.2886 40.6436 94.036 40.6436C94.7833 40.6436 95.3864 41.2467 95.3864 41.994Z" fill="#FAFAFA"/>
<path d="M95.8192 85.9088C96.565 85.9088 97.1696 85.3042 97.1696 84.5584C97.1696 83.8126 96.565 83.208 95.8192 83.208C95.0734 83.208 94.4688 83.8126 94.4688 84.5584C94.4688 85.3042 95.0734 85.9088 95.8192 85.9088Z" fill="#FAFAFA"/>
<path d="M124.806 90.3665C124.806 91.1139 124.203 91.717 123.456 91.717C122.709 91.717 122.105 91.1139 122.105 90.3665C122.105 89.6192 122.709 89.0161 123.456 89.0161C124.203 89.0161 124.806 89.6192 124.806 90.3665Z" fill="#FAFAFA"/>
<path d="M60.6227 88.9243C60.6227 89.6716 60.0196 90.2748 59.2723 90.2748C58.525 90.2748 57.9219 89.6716 57.9219 88.9243C57.9219 88.177 58.525 87.5739 59.2723 87.5739C60.0196 87.5739 60.6227 88.177 60.6227 88.9243Z" fill="#FAFAFA"/>
<path d="M83.0876 98.6985C83.0876 99.4458 82.4845 100.049 81.7371 100.049C80.9898 100.049 80.3867 99.4458 80.3867 98.6985C80.3867 97.9512 80.9898 97.3481 81.7371 97.3481C82.4845 97.3481 83.0876 97.9512 83.0876 98.6985Z" fill="#FAFAFA"/>
<path d="M119.66 103.182C119.66 103.93 119.057 104.533 118.309 104.533C117.562 104.533 116.959 103.93 116.959 103.182C116.959 102.435 117.562 101.832 118.309 101.832C119.057 101.832 119.66 102.435 119.66 103.182Z" fill="#FAFAFA"/>
</g>
<defs>
<clipPath id="clip0_684_9197">
<rect width="192.703" height="205.185" fill="white" transform="translate(0.148438)"/>
</clipPath>
</defs>
</svg>
