<svg width="635" height="328" viewBox="0 0 635 328" fill="none" xmlns="http://www.w3.org/2000/svg">
<rect x="177" width="281" height="328" fill="#9000FF" fill-opacity="0.5"/>
<rect x="1.5" y="121.5" width="119" height="84" fill="#FFFF00" fill-opacity="0.54" stroke="black" stroke-width="3"/>
<rect x="514.5" y="121.5" width="119" height="84" fill="#D9D9D9" stroke="black" stroke-width="3"/>
<rect x="209.5" y="25.5" width="216" height="188" fill="white" stroke="black" stroke-width="3"/>
<rect x="209.5" y="248.5" width="216" height="53" fill="white" stroke="black" stroke-width="3"/>
<rect x="226" y="65" width="184" height="54" fill="#2E54D9" fill-opacity="0.75" stroke="black" stroke-width="2"/>
<rect x="226" y="137" width="184" height="54" fill="#E36662" stroke="black" stroke-width="2"/>
<path d="M235.136 50.176C234.45 50.176 233.807 50.055 233.206 49.813C232.604 49.571 232.074 49.2355 231.616 48.8065C231.158 48.3738 230.8 47.8733 230.544 47.305C230.287 46.7367 230.159 46.1262 230.159 45.4735C230.159 44.8172 230.287 44.2048 230.544 43.6365C230.804 43.0645 231.161 42.564 231.616 42.135C232.074 41.7023 232.602 41.365 233.2 41.123C233.801 40.881 234.443 40.76 235.125 40.76C235.682 40.76 236.212 40.8388 236.715 40.9965C237.221 41.1542 237.653 41.3613 238.013 41.618L237.243 43.1305C236.997 42.9362 236.698 42.784 236.346 42.674C235.994 42.564 235.626 42.509 235.241 42.509C234.79 42.509 234.372 42.5842 233.987 42.7345C233.605 42.8848 233.272 43.0938 232.986 43.3615C232.703 43.6292 232.483 43.9427 232.326 44.302C232.168 44.6613 232.089 45.05 232.089 45.468C232.089 45.886 232.168 46.2747 232.326 46.634C232.483 46.9933 232.703 47.3068 232.986 47.5745C233.272 47.8422 233.605 48.0512 233.987 48.2015C234.372 48.3518 234.79 48.427 235.241 48.427C235.626 48.427 235.994 48.372 236.346 48.262C236.698 48.152 236.997 47.9998 237.243 47.8055L238.013 49.318C237.668 49.5673 237.244 49.7727 236.742 49.934C236.24 50.0953 235.704 50.176 235.136 50.176ZM241.925 50.176C241.316 50.176 240.77 50.0458 240.286 49.7855C239.805 49.5215 239.424 49.164 239.142 48.713C238.859 48.262 238.718 47.7523 238.718 47.184C238.718 46.766 238.797 46.3755 238.955 46.0125C239.116 45.6495 239.34 45.3323 239.626 45.061C239.912 44.786 240.243 44.5733 240.621 44.423C240.999 44.269 241.408 44.192 241.848 44.192C242.434 44.192 242.948 44.3148 243.388 44.5605C243.831 44.8025 244.176 45.1398 244.422 45.5725C244.671 46.0052 244.796 46.5093 244.796 47.085C244.796 47.1327 244.794 47.1748 244.79 47.2115C244.79 47.2445 244.785 47.3087 244.774 47.404H240.456C240.456 47.69 240.52 47.9393 240.649 48.152C240.781 48.3647 240.964 48.5315 241.199 48.6525C241.433 48.7698 241.706 48.8285 242.018 48.8285C242.311 48.8285 242.57 48.7717 242.794 48.658C243.021 48.5443 243.239 48.3628 243.448 48.1135L244.664 48.724C244.4 49.1787 244.026 49.5343 243.542 49.791C243.058 50.0477 242.519 50.176 241.925 50.176ZM240.517 46.469H243.135C243.098 46.2527 243.019 46.0657 242.898 45.908C242.781 45.7503 242.63 45.6293 242.447 45.545C242.264 45.4607 242.057 45.4185 241.826 45.4185C241.58 45.4185 241.364 45.4607 241.177 45.545C240.99 45.6293 240.839 45.7503 240.726 45.908C240.612 46.0657 240.542 46.2527 240.517 46.469ZM246.298 50V44.368H247.986V44.995C248.203 44.753 248.472 44.5587 248.795 44.412C249.121 44.2653 249.48 44.192 249.873 44.192C250.305 44.192 250.685 44.2873 251.011 44.478C251.341 44.665 251.6 44.9272 251.787 45.2645C251.974 45.5982 252.067 45.9887 252.067 46.436V50H250.379V46.7935C250.379 46.3902 250.272 46.0767 250.06 45.853C249.851 45.6257 249.563 45.512 249.196 45.512C248.947 45.512 248.731 45.5633 248.547 45.666C248.368 45.765 248.228 45.9025 248.129 46.0785C248.034 46.2508 247.986 46.447 247.986 46.667V50H246.298ZM255.823 50.176C255.262 50.176 254.826 49.9982 254.514 49.6425C254.203 49.2832 254.047 48.7827 254.047 48.141V45.6495H253.293V44.368H254.047V42.256H255.735V44.368H256.973V45.6495H255.735V48.02C255.735 48.2327 255.777 48.394 255.862 48.504C255.95 48.614 256.073 48.669 256.23 48.669C256.406 48.669 256.575 48.6103 256.736 48.493L257.16 49.846C256.969 49.9487 256.755 50.0293 256.516 50.088C256.282 50.1467 256.051 50.176 255.823 50.176ZM258.619 50V44.368H260.308V45.1765C260.517 44.8612 260.771 44.6192 261.072 44.4505C261.376 44.2782 261.703 44.192 262.051 44.192C262.249 44.192 262.454 44.2213 262.667 44.28C262.88 44.3387 263.058 44.4138 263.201 44.5055L262.497 45.93C262.372 45.8457 262.225 45.7797 262.057 45.732C261.892 45.6807 261.738 45.655 261.595 45.655C261.375 45.655 261.166 45.7118 260.968 45.8255C260.77 45.9392 260.61 46.0877 260.489 46.271C260.368 46.4507 260.308 46.645 260.308 46.854V50H258.619ZM266.403 50.176C265.886 50.176 265.415 50.0477 264.99 49.791C264.568 49.5307 264.232 49.175 263.983 48.724C263.737 48.2693 263.615 47.7523 263.615 47.173C263.615 46.6083 263.734 46.1023 263.972 45.655C264.21 45.204 264.539 44.8483 264.957 44.588C265.378 44.324 265.86 44.192 266.403 44.192C266.803 44.192 267.175 44.269 267.52 44.423C267.868 44.5733 268.152 44.7842 268.372 45.0555V44.368H270.061V50H268.372V49.2575C268.115 49.5545 267.82 49.7818 267.487 49.9395C267.153 50.0972 266.792 50.176 266.403 50.176ZM266.904 48.7405C267.197 48.7405 267.457 48.6745 267.685 48.5425C267.912 48.4068 268.09 48.2217 268.218 47.987C268.346 47.7523 268.411 47.4847 268.411 47.184C268.411 46.8797 268.345 46.612 268.213 46.381C268.084 46.1463 267.906 45.963 267.679 45.831C267.455 45.6953 267.197 45.6275 266.904 45.6275C266.614 45.6275 266.355 45.6953 266.128 45.831C265.901 45.963 265.721 46.1463 265.589 46.381C265.457 46.6157 265.391 46.8833 265.391 47.184C265.391 47.4847 265.455 47.7523 265.584 47.987C265.716 48.2217 265.895 48.4068 266.123 48.5425C266.35 48.6745 266.61 48.7405 266.904 48.7405ZM272.047 50V40.54H273.735V50H272.047ZM278.927 50V40.925H282.018C282.609 40.925 283.133 41.0277 283.591 41.233C284.05 41.4383 284.411 41.7445 284.675 42.1515C284.939 42.5548 285.071 43.059 285.071 43.664C285.071 44.2653 284.939 44.7787 284.675 45.204C284.411 45.6293 284.05 45.9557 283.591 46.183C283.133 46.4067 282.609 46.5185 282.018 46.5185H280.709V50H278.927ZM280.709 45.094H281.468C281.78 45.094 282.066 45.0482 282.326 44.9565C282.59 44.8648 282.803 44.7182 282.964 44.5165C283.126 44.3148 283.206 44.049 283.206 43.719C283.206 43.3853 283.126 43.1195 282.964 42.9215C282.803 42.7198 282.59 42.575 282.326 42.487C282.066 42.3953 281.78 42.3495 281.468 42.3495H280.709V45.094ZM286.194 50V44.368H287.883V45.1765C288.092 44.8612 288.347 44.6192 288.647 44.4505C288.952 44.2782 289.278 44.192 289.626 44.192C289.824 44.192 290.03 44.2213 290.242 44.28C290.455 44.3387 290.633 44.4138 290.776 44.5055L290.072 45.93C289.947 45.8457 289.8 45.7797 289.632 45.732C289.467 45.6807 289.313 45.655 289.17 45.655C288.95 45.655 288.741 45.7118 288.543 45.8255C288.345 45.9392 288.185 46.0877 288.064 46.271C287.943 46.4507 287.883 46.645 287.883 46.854V50H286.194ZM294.456 50.176C293.837 50.176 293.277 50.0495 292.779 49.7965C292.28 49.5398 291.884 49.1878 291.591 48.7405C291.297 48.2895 291.151 47.7707 291.151 47.184C291.151 46.5973 291.296 46.0803 291.585 45.633C291.879 45.182 292.275 44.83 292.773 44.577C293.276 44.3203 293.837 44.192 294.456 44.192C295.08 44.192 295.641 44.3203 296.139 44.577C296.638 44.83 297.032 45.182 297.322 45.633C297.615 46.0803 297.762 46.5973 297.762 47.184C297.762 47.7707 297.615 48.2895 297.322 48.7405C297.032 49.1878 296.638 49.5398 296.139 49.7965C295.641 50.0495 295.08 50.176 294.456 50.176ZM294.462 48.735C294.748 48.735 295.008 48.669 295.243 48.537C295.477 48.405 295.663 48.2235 295.798 47.9925C295.934 47.7578 296.002 47.4883 296.002 47.184C296.002 46.8797 295.934 46.612 295.798 46.381C295.663 46.1463 295.477 45.963 295.243 45.831C295.008 45.699 294.748 45.633 294.462 45.633C294.172 45.633 293.91 45.699 293.675 45.831C293.444 45.963 293.261 46.1463 293.125 46.381C292.99 46.612 292.922 46.8797 292.922 47.184C292.922 47.4883 292.99 47.7578 293.125 47.9925C293.261 48.2235 293.444 48.405 293.675 48.537C293.91 48.669 294.172 48.735 294.462 48.735ZM301.891 50.176C301.462 50.176 301.057 50.099 300.676 49.945C300.298 49.791 299.964 49.5783 299.675 49.307C299.385 49.032 299.158 48.7148 298.993 48.3555C298.828 47.9925 298.745 47.6038 298.745 47.1895C298.745 46.7898 298.822 46.4103 298.976 46.051C299.134 45.6917 299.354 45.3727 299.636 45.094C299.922 44.8153 300.256 44.5953 300.637 44.434C301.022 44.2727 301.438 44.192 301.886 44.192C302.249 44.192 302.597 44.2433 302.931 44.346C303.268 44.4487 303.539 44.5807 303.745 44.742L303.167 45.8805C302.892 45.6788 302.551 45.578 302.144 45.578C301.796 45.578 301.501 45.655 301.259 45.809C301.017 45.963 300.832 46.1628 300.703 46.4085C300.579 46.6542 300.516 46.9127 300.516 47.184C300.516 47.481 300.584 47.7523 300.72 47.998C300.855 48.24 301.046 48.4325 301.292 48.5755C301.541 48.7185 301.829 48.79 302.155 48.79C302.357 48.79 302.546 48.7625 302.722 48.7075C302.898 48.6525 303.046 48.5792 303.167 48.4875L303.745 49.626C303.536 49.7837 303.266 49.9138 302.936 50.0165C302.606 50.1228 302.258 50.176 301.891 50.176ZM307.817 50.176C307.209 50.176 306.662 50.0458 306.178 49.7855C305.698 49.5215 305.317 49.164 305.034 48.713C304.752 48.262 304.611 47.7523 304.611 47.184C304.611 46.766 304.69 46.3755 304.847 46.0125C305.009 45.6495 305.232 45.3323 305.518 45.061C305.804 44.786 306.136 44.5733 306.514 44.423C306.891 44.269 307.3 44.192 307.74 44.192C308.327 44.192 308.84 44.3148 309.28 44.5605C309.724 44.8025 310.069 45.1398 310.314 45.5725C310.564 46.0052 310.688 46.5093 310.688 47.085C310.688 47.1327 310.686 47.1748 310.683 47.2115C310.683 47.2445 310.677 47.3087 310.666 47.404H306.349C306.349 47.69 306.413 47.9393 306.541 48.152C306.673 48.3647 306.857 48.5315 307.091 48.6525C307.326 48.7698 307.599 48.8285 307.911 48.8285C308.204 48.8285 308.463 48.7717 308.686 48.658C308.914 48.5443 309.132 48.3628 309.341 48.1135L310.556 48.724C310.292 49.1787 309.918 49.5343 309.434 49.791C308.95 50.0477 308.411 50.176 307.817 50.176ZM306.409 46.469H309.027C308.991 46.2527 308.912 46.0657 308.791 45.908C308.673 45.7503 308.523 45.6293 308.34 45.545C308.156 45.4607 307.949 45.4185 307.718 45.4185C307.473 45.4185 307.256 45.4607 307.069 45.545C306.882 45.6293 306.732 45.7503 306.618 45.908C306.505 46.0657 306.435 46.2527 306.409 46.469ZM313.764 50.176C313.287 50.176 312.86 50.1008 312.482 49.9505C312.108 49.8002 311.797 49.5802 311.547 49.2905L312.257 48.1575C312.492 48.4068 312.737 48.5975 312.994 48.7295C313.251 48.8615 313.507 48.9275 313.764 48.9275C313.907 48.9275 314.03 48.9037 314.132 48.856C314.239 48.8083 314.321 48.7405 314.38 48.6525C314.442 48.5608 314.473 48.4508 314.473 48.3225C314.473 48.1758 314.431 48.0603 314.347 47.976C314.266 47.8917 314.142 47.8147 313.973 47.745C313.804 47.6717 313.586 47.58 313.318 47.47C313.091 47.3747 312.873 47.2665 312.664 47.1455C312.455 47.0245 312.284 46.8705 312.152 46.6835C312.024 46.4965 311.96 46.26 311.96 45.974C311.96 45.6257 312.057 45.3195 312.251 45.0555C312.446 44.7878 312.713 44.5788 313.054 44.4285C313.399 44.2782 313.795 44.203 314.242 44.203C314.521 44.203 314.813 44.2452 315.117 44.3295C315.425 44.4138 315.753 44.5422 316.101 44.7145L315.524 45.798C315.051 45.4937 314.627 45.3415 314.253 45.3415C314.044 45.3415 313.878 45.3873 313.753 45.479C313.628 45.5707 313.566 45.6862 313.566 45.8255C313.566 45.9575 313.63 46.073 313.758 46.172C313.89 46.2673 314.05 46.3535 314.237 46.4305C314.428 46.5038 314.609 46.5717 314.781 46.634C315.064 46.7367 315.313 46.8503 315.529 46.975C315.749 47.0997 315.922 47.2628 316.046 47.4645C316.171 47.6625 316.233 47.9283 316.233 48.262C316.233 48.669 316.134 49.0155 315.936 49.3015C315.742 49.5838 315.46 49.8002 315.089 49.9505C314.723 50.1008 314.281 50.176 313.764 50.176ZM319.393 50.176C318.916 50.176 318.489 50.1008 318.111 49.9505C317.737 49.8002 317.426 49.5802 317.176 49.2905L317.886 48.1575C318.12 48.4068 318.366 48.5975 318.623 48.7295C318.879 48.8615 319.136 48.9275 319.393 48.9275C319.536 48.9275 319.659 48.9037 319.761 48.856C319.868 48.8083 319.95 48.7405 320.009 48.6525C320.071 48.5608 320.102 48.4508 320.102 48.3225C320.102 48.1758 320.06 48.0603 319.976 47.976C319.895 47.8917 319.77 47.8147 319.602 47.745C319.433 47.6717 319.215 47.58 318.947 47.47C318.72 47.3747 318.502 47.2665 318.293 47.1455C318.084 47.0245 317.913 46.8705 317.781 46.6835C317.653 46.4965 317.589 46.26 317.589 45.974C317.589 45.6257 317.686 45.3195 317.88 45.0555C318.075 44.7878 318.342 44.5788 318.683 44.4285C319.028 44.2782 319.424 44.203 319.871 44.203C320.15 44.203 320.441 44.2452 320.746 44.3295C321.054 44.4138 321.382 44.5422 321.73 44.7145L321.153 45.798C320.68 45.4937 320.256 45.3415 319.882 45.3415C319.673 45.3415 319.506 45.3873 319.382 45.479C319.257 45.5707 319.195 45.6862 319.195 45.8255C319.195 45.9575 319.259 46.073 319.387 46.172C319.519 46.2673 319.679 46.3535 319.866 46.4305C320.056 46.5038 320.238 46.5717 320.41 46.634C320.693 46.7367 320.942 46.8503 321.158 46.975C321.378 47.0997 321.551 47.2628 321.675 47.4645C321.8 47.6625 321.862 47.9283 321.862 48.262C321.862 48.669 321.763 49.0155 321.565 49.3015C321.371 49.5838 321.089 49.8002 320.718 49.9505C320.352 50.1008 319.91 50.176 319.393 50.176ZM323.421 50V44.368H325.11V50H323.421ZM324.268 43.1965C324.085 43.1965 323.916 43.1525 323.762 43.0645C323.612 42.9728 323.491 42.85 323.399 42.696C323.307 42.542 323.262 42.3733 323.262 42.19C323.262 42.0067 323.307 41.8398 323.399 41.6895C323.491 41.5392 323.612 41.42 323.762 41.332C323.916 41.2403 324.085 41.1945 324.268 41.1945C324.451 41.1945 324.618 41.2403 324.769 41.332C324.919 41.42 325.038 41.5392 325.126 41.6895C325.218 41.8398 325.264 42.0067 325.264 42.19C325.264 42.3733 325.218 42.542 325.126 42.696C325.038 42.85 324.919 42.9728 324.769 43.0645C324.618 43.1525 324.451 43.1965 324.268 43.1965ZM327.1 50V44.368H328.789V44.995C329.005 44.753 329.275 44.5587 329.597 44.412C329.924 44.2653 330.283 44.192 330.675 44.192C331.108 44.192 331.488 44.2873 331.814 44.478C332.144 44.665 332.402 44.9272 332.589 45.2645C332.776 45.5982 332.87 45.9887 332.87 46.436V50H331.181V46.7935C331.181 46.3902 331.075 46.0767 330.862 45.853C330.653 45.6257 330.366 45.512 329.999 45.512C329.75 45.512 329.533 45.5633 329.35 45.666C329.17 45.765 329.031 45.9025 328.932 46.0785C328.837 46.2508 328.789 46.447 328.789 46.667V50H327.1ZM337.46 53.025C336.701 53.025 336.063 52.8857 335.546 52.607C335.029 52.332 334.654 51.925 334.419 51.386L335.794 50.715C335.948 50.9753 336.175 51.1825 336.476 51.3365C336.777 51.4905 337.103 51.5675 337.455 51.5675C337.774 51.5675 338.054 51.5033 338.296 51.375C338.538 51.2503 338.727 51.0725 338.863 50.8415C338.999 50.6142 339.066 50.3502 339.066 50.0495V49.2575C338.817 49.5472 338.522 49.7727 338.181 49.934C337.84 50.0953 337.473 50.176 337.081 50.176C336.571 50.176 336.106 50.0495 335.684 49.7965C335.266 49.5398 334.932 49.186 334.683 48.735C334.434 48.284 334.309 47.767 334.309 47.184C334.309 46.612 334.43 46.1023 334.672 45.655C334.918 45.204 335.251 44.8483 335.673 44.588C336.098 44.324 336.582 44.192 337.125 44.192C337.521 44.192 337.888 44.269 338.225 44.423C338.562 44.5733 338.843 44.7842 339.066 45.0555V44.368H340.755V50.154C340.755 50.7077 340.634 51.2008 340.392 51.6335C340.154 52.0662 339.791 52.4053 339.303 52.651C338.815 52.9003 338.201 53.025 337.46 53.025ZM337.587 48.7405C337.884 48.7405 338.146 48.6745 338.373 48.5425C338.604 48.4068 338.784 48.2235 338.912 47.9925C339.041 47.7578 339.105 47.492 339.105 47.195C339.105 46.8907 339.039 46.6212 338.907 46.3865C338.779 46.1518 338.601 45.9667 338.373 45.831C338.146 45.6953 337.888 45.6275 337.598 45.6275C337.308 45.6275 337.05 45.6953 336.822 45.831C336.595 45.9667 336.415 46.1537 336.283 46.392C336.151 46.6267 336.085 46.8943 336.085 47.195C336.085 47.492 336.15 47.7578 336.278 47.9925C336.406 48.2235 336.584 48.4068 336.811 48.5425C337.039 48.6745 337.297 48.7405 337.587 48.7405ZM349.248 50.176C348.111 50.176 347.251 49.8918 346.668 49.3235C346.085 48.7515 345.794 47.9045 345.794 46.7825V40.925H347.576V46.271C347.576 47.0373 347.706 47.5892 347.966 47.9265C348.23 48.2602 348.658 48.427 349.248 48.427C349.838 48.427 350.264 48.2602 350.524 47.9265C350.788 47.5892 350.92 47.0373 350.92 46.271V40.925H352.702V46.7825C352.702 47.9045 352.41 48.7515 351.827 49.3235C351.248 49.8918 350.388 50.176 349.248 50.176ZM354.783 50V44.368H356.472V44.995C356.688 44.753 356.957 44.5587 357.28 44.412C357.606 44.2653 357.966 44.192 358.358 44.192C358.791 44.192 359.17 44.2873 359.497 44.478C359.827 44.665 360.085 44.9272 360.272 45.2645C360.459 45.5982 360.553 45.9887 360.553 46.436V50H358.864V46.7935C358.864 46.3902 358.758 46.0767 358.545 45.853C358.336 45.6257 358.048 45.512 357.682 45.512C357.432 45.512 357.216 45.5633 357.033 45.666C356.853 45.765 356.714 45.9025 356.615 46.0785C356.519 46.2508 356.472 46.447 356.472 46.667V50H354.783ZM362.426 50V44.368H364.115V50H362.426ZM363.273 43.1965C363.09 43.1965 362.921 43.1525 362.767 43.0645C362.617 42.9728 362.496 42.85 362.404 42.696C362.312 42.542 362.267 42.3733 362.267 42.19C362.267 42.0067 362.312 41.8398 362.404 41.6895C362.496 41.5392 362.617 41.42 362.767 41.332C362.921 41.2403 363.09 41.1945 363.273 41.1945C363.456 41.1945 363.623 41.2403 363.774 41.332C363.924 41.42 364.043 41.5392 364.131 41.6895C364.223 41.8398 364.269 42.0067 364.269 42.19C364.269 42.3733 364.223 42.542 364.131 42.696C364.043 42.85 363.924 42.9728 363.774 43.0645C363.623 43.1525 363.456 43.1965 363.273 43.1965ZM368.047 50.176C367.486 50.176 367.05 49.9982 366.738 49.6425C366.426 49.2832 366.27 48.7827 366.27 48.141V45.6495H365.517V44.368H366.27V42.256H367.959V44.368H369.196V45.6495H367.959V48.02C367.959 48.2327 368.001 48.394 368.085 48.504C368.173 48.614 368.296 48.669 368.454 48.669C368.63 48.669 368.799 48.6103 368.96 48.493L369.383 49.846C369.193 49.9487 368.978 50.0293 368.74 50.088C368.505 50.1467 368.274 50.176 368.047 50.176ZM375.397 52.86C375.184 52.5813 374.964 52.233 374.737 51.815C374.51 51.397 374.297 50.9203 374.099 50.385C373.905 49.8533 373.747 49.2703 373.626 48.636C373.505 48.0017 373.445 47.3307 373.445 46.623C373.445 45.9117 373.505 45.2388 373.626 44.6045C373.751 43.9665 373.91 43.3798 374.105 42.8445C374.299 42.3092 374.51 41.8325 374.737 41.4145C374.968 40.9965 375.188 40.65 375.397 40.375L376.486 40.8425C376.281 41.1432 376.061 41.5685 375.826 42.1185C375.595 42.6685 375.399 43.323 375.238 44.082C375.08 44.841 375.001 45.6862 375.001 46.6175C375.001 47.4902 375.074 48.2987 375.221 49.043C375.371 49.7873 375.56 50.4437 375.788 51.012C376.019 51.5803 376.251 52.0405 376.486 52.3925L375.397 52.86ZM382.186 50.176C381.5 50.176 380.857 50.055 380.255 49.813C379.654 49.571 379.124 49.2355 378.666 48.8065C378.207 48.3738 377.85 47.8733 377.593 47.305C377.337 46.7367 377.208 46.1262 377.208 45.4735C377.208 44.8172 377.337 44.2048 377.593 43.6365C377.854 43.0645 378.211 42.564 378.666 42.135C379.124 41.7023 379.652 41.365 380.25 41.123C380.851 40.881 381.493 40.76 382.175 40.76C382.732 40.76 383.262 40.8388 383.764 40.9965C384.27 41.1542 384.703 41.3613 385.062 41.618L384.292 43.1305C384.047 42.9362 383.748 42.784 383.396 42.674C383.044 42.564 382.675 42.509 382.29 42.509C381.839 42.509 381.421 42.5842 381.036 42.7345C380.655 42.8848 380.321 43.0938 380.035 43.3615C379.753 43.6292 379.533 43.9427 379.375 44.302C379.218 44.6613 379.139 45.05 379.139 45.468C379.139 45.886 379.218 46.2747 379.375 46.634C379.533 46.9933 379.753 47.3068 380.035 47.5745C380.321 47.8422 380.655 48.0512 381.036 48.2015C381.421 48.3518 381.839 48.427 382.29 48.427C382.675 48.427 383.044 48.372 383.396 48.262C383.748 48.152 384.047 47.9998 384.292 47.8055L385.062 49.318C384.718 49.5673 384.294 49.7727 383.792 49.934C383.289 50.0953 382.754 50.176 382.186 50.176ZM386.51 50V40.925H389.601C390.192 40.925 390.716 41.0277 391.174 41.233C391.633 41.4383 391.994 41.7445 392.258 42.1515C392.522 42.5548 392.654 43.059 392.654 43.664C392.654 44.2653 392.522 44.7787 392.258 45.204C391.994 45.6293 391.633 45.9557 391.174 46.183C390.716 46.4067 390.192 46.5185 389.601 46.5185H388.292V50H386.51ZM388.292 45.094H389.051C389.363 45.094 389.649 45.0482 389.909 44.9565C390.173 44.8648 390.386 44.7182 390.547 44.5165C390.709 44.3148 390.789 44.049 390.789 43.719C390.789 43.3853 390.709 43.1195 390.547 42.9215C390.386 42.7198 390.173 42.575 389.909 42.487C389.649 42.3953 389.363 42.3495 389.051 42.3495H388.292V45.094ZM397.599 50.176C396.462 50.176 395.602 49.8918 395.019 49.3235C394.436 48.7515 394.145 47.9045 394.145 46.7825V40.925H395.927V46.271C395.927 47.0373 396.057 47.5892 396.317 47.9265C396.581 48.2602 397.008 48.427 397.599 48.427C398.189 48.427 398.614 48.2602 398.875 47.9265C399.139 47.5892 399.271 47.0373 399.271 46.271V40.925H401.053V46.7825C401.053 47.9045 400.761 48.7515 400.178 49.3235C399.599 49.8918 398.739 50.176 397.599 50.176ZM403.607 52.86L402.512 52.3925C402.824 51.9342 403.09 51.397 403.31 50.781C403.53 50.1687 403.698 49.5087 403.816 48.801C403.933 48.0933 403.992 47.3673 403.992 46.623C403.992 45.8897 403.935 45.171 403.821 44.467C403.708 43.7593 403.541 43.0957 403.321 42.476C403.101 41.8563 402.831 41.3118 402.512 40.8425L403.607 40.375C404.234 41.2183 404.712 42.1827 405.042 43.268C405.376 44.3533 405.543 45.4717 405.543 46.623C405.543 47.7413 405.381 48.8432 405.059 49.9285C404.736 51.0138 404.252 51.991 403.607 52.86Z" fill="black"/>
<path d="M287.258 95.176C286.572 95.176 285.928 95.055 285.327 94.813C284.726 94.571 284.196 94.2355 283.738 93.8065C283.279 93.3738 282.922 92.8733 282.665 92.305C282.408 91.7367 282.28 91.1262 282.28 90.4735C282.28 89.8172 282.408 89.2048 282.665 88.6365C282.925 88.0645 283.283 87.564 283.738 87.135C284.196 86.7023 284.724 86.365 285.322 86.123C285.923 85.881 286.565 85.76 287.247 85.76C287.804 85.76 288.334 85.8388 288.836 85.9965C289.342 86.1542 289.775 86.3613 290.134 86.618L289.364 88.1305C289.118 87.9362 288.82 87.784 288.468 87.674C288.116 87.564 287.747 87.509 287.362 87.509C286.911 87.509 286.493 87.5842 286.108 87.7345C285.727 87.8848 285.393 88.0938 285.107 88.3615C284.825 88.6292 284.605 88.9427 284.447 89.302C284.289 89.6613 284.211 90.05 284.211 90.468C284.211 90.886 284.289 91.2747 284.447 91.634C284.605 91.9933 284.825 92.3068 285.107 92.5745C285.393 92.8422 285.727 93.0512 286.108 93.2015C286.493 93.3518 286.911 93.427 287.362 93.427C287.747 93.427 288.116 93.372 288.468 93.262C288.82 93.152 289.118 92.9998 289.364 92.8055L290.134 94.318C289.789 94.5673 289.366 94.7727 288.864 94.934C288.361 95.0953 287.826 95.176 287.258 95.176ZM294.145 95.176C293.526 95.176 292.966 95.0495 292.468 94.7965C291.969 94.5398 291.573 94.1878 291.28 93.7405C290.986 93.2895 290.84 92.7707 290.84 92.184C290.84 91.5973 290.985 91.0803 291.274 90.633C291.568 90.182 291.964 89.83 292.462 89.577C292.965 89.3203 293.526 89.192 294.145 89.192C294.769 89.192 295.33 89.3203 295.828 89.577C296.327 89.83 296.721 90.182 297.011 90.633C297.304 91.0803 297.451 91.5973 297.451 92.184C297.451 92.7707 297.304 93.2895 297.011 93.7405C296.721 94.1878 296.327 94.5398 295.828 94.7965C295.33 95.0495 294.769 95.176 294.145 95.176ZM294.151 93.735C294.437 93.735 294.697 93.669 294.932 93.537C295.166 93.405 295.352 93.2235 295.487 92.9925C295.623 92.7578 295.691 92.4883 295.691 92.184C295.691 91.8797 295.623 91.612 295.487 91.381C295.352 91.1463 295.166 90.963 294.932 90.831C294.697 90.699 294.437 90.633 294.151 90.633C293.861 90.633 293.599 90.699 293.364 90.831C293.133 90.963 292.95 91.1463 292.814 91.381C292.679 91.612 292.611 91.8797 292.611 92.184C292.611 92.4883 292.679 92.7578 292.814 92.9925C292.95 93.2235 293.133 93.405 293.364 93.537C293.599 93.669 293.861 93.735 294.151 93.735ZM298.924 95V89.368H300.613V89.995C300.829 89.753 301.099 89.5587 301.421 89.412C301.748 89.2653 302.107 89.192 302.499 89.192C302.932 89.192 303.311 89.2873 303.638 89.478C303.968 89.665 304.226 89.9272 304.413 90.2645C304.6 90.5982 304.694 90.9887 304.694 91.436V95H303.005V91.7935C303.005 91.3902 302.899 91.0767 302.686 90.853C302.477 90.6257 302.189 90.512 301.823 90.512C301.573 90.512 301.357 90.5633 301.174 90.666C300.994 90.765 300.855 90.9025 300.756 91.0785C300.66 91.2508 300.613 91.447 300.613 91.667V95H298.924ZM308.45 95.176C307.889 95.176 307.452 94.9982 307.141 94.6425C306.829 94.2832 306.673 93.7827 306.673 93.141V90.6495H305.92V89.368H306.673V87.256H308.362V89.368H309.599V90.6495H308.362V93.02C308.362 93.2327 308.404 93.394 308.488 93.504C308.576 93.614 308.699 93.669 308.857 93.669C309.033 93.669 309.201 93.6103 309.363 93.493L309.786 94.846C309.596 94.9487 309.381 95.0293 309.143 95.088C308.908 95.1467 308.677 95.176 308.45 95.176ZM311.246 95V89.368H312.934V90.1765C313.143 89.8612 313.398 89.6192 313.699 89.4505C314.003 89.2782 314.329 89.192 314.678 89.192C314.876 89.192 315.081 89.2213 315.294 89.28C315.506 89.3387 315.684 89.4138 315.827 89.5055L315.123 90.93C314.998 90.8457 314.852 90.7797 314.683 90.732C314.518 90.6807 314.364 90.655 314.221 90.655C314.001 90.655 313.792 90.7118 313.594 90.8255C313.396 90.9392 313.237 91.0877 313.116 91.271C312.995 91.4507 312.934 91.645 312.934 91.854V95H311.246ZM319.508 95.176C318.888 95.176 318.329 95.0495 317.83 94.7965C317.331 94.5398 316.935 94.1878 316.642 93.7405C316.349 93.2895 316.202 92.7707 316.202 92.184C316.202 91.5973 316.347 91.0803 316.637 90.633C316.93 90.182 317.326 89.83 317.825 89.577C318.327 89.3203 318.888 89.192 319.508 89.192C320.131 89.192 320.692 89.3203 321.191 89.577C321.689 89.83 322.083 90.182 322.373 90.633C322.666 91.0803 322.813 91.5973 322.813 92.184C322.813 92.7707 322.666 93.2895 322.373 93.7405C322.083 94.1878 321.689 94.5398 321.191 94.7965C320.692 95.0495 320.131 95.176 319.508 95.176ZM319.513 93.735C319.799 93.735 320.059 93.669 320.294 93.537C320.529 93.405 320.714 93.2235 320.85 92.9925C320.985 92.7578 321.053 92.4883 321.053 92.184C321.053 91.8797 320.985 91.612 320.85 91.381C320.714 91.1463 320.529 90.963 320.294 90.831C320.059 90.699 319.799 90.633 319.513 90.633C319.223 90.633 318.961 90.699 318.727 90.831C318.496 90.963 318.312 91.1463 318.177 91.381C318.041 91.612 317.973 91.8797 317.973 92.184C317.973 92.4883 318.041 92.7578 318.177 92.9925C318.312 93.2235 318.496 93.405 318.727 93.537C318.961 93.669 319.223 93.735 319.513 93.735ZM324.287 95V85.54H325.975V95H324.287ZM334.467 95.176C333.331 95.176 332.471 94.8918 331.888 94.3235C331.305 93.7515 331.013 92.9045 331.013 91.7825V85.925H332.795V91.271C332.795 92.0373 332.925 92.5892 333.186 92.9265C333.45 93.2602 333.877 93.427 334.467 93.427C335.058 93.427 335.483 93.2602 335.743 92.9265C336.007 92.5892 336.139 92.0373 336.139 91.271V85.925H337.921V91.7825C337.921 92.9045 337.63 93.7515 337.047 94.3235C336.467 94.8918 335.608 95.176 334.467 95.176ZM340.002 95V89.368H341.691V89.995C341.907 89.753 342.177 89.5587 342.499 89.412C342.826 89.2653 343.185 89.192 343.577 89.192C344.01 89.192 344.39 89.2873 344.716 89.478C345.046 89.665 345.304 89.9272 345.491 90.2645C345.678 90.5982 345.772 90.9887 345.772 91.436V95H344.083V91.7935C344.083 91.3902 343.977 91.0767 343.764 90.853C343.555 90.6257 343.268 90.512 342.901 90.512C342.652 90.512 342.435 90.5633 342.252 90.666C342.072 90.765 341.933 90.9025 341.834 91.0785C341.739 91.2508 341.691 91.447 341.691 91.667V95H340.002ZM347.645 95V89.368H349.334V95H347.645ZM348.492 88.1965C348.309 88.1965 348.14 88.1525 347.986 88.0645C347.836 87.9728 347.715 87.85 347.623 87.696C347.532 87.542 347.486 87.3733 347.486 87.19C347.486 87.0067 347.532 86.8398 347.623 86.6895C347.715 86.5392 347.836 86.42 347.986 86.332C348.14 86.2403 348.309 86.1945 348.492 86.1945C348.676 86.1945 348.842 86.2403 348.993 86.332C349.143 86.42 349.262 86.5392 349.35 86.6895C349.442 86.8398 349.488 87.0067 349.488 87.19C349.488 87.3733 349.442 87.542 349.35 87.696C349.262 87.85 349.143 87.9728 348.993 88.0645C348.842 88.1525 348.676 88.1965 348.492 88.1965ZM353.266 95.176C352.705 95.176 352.269 94.9982 351.957 94.6425C351.645 94.2832 351.49 93.7827 351.49 93.141V90.6495H350.736V89.368H351.49V87.256H353.178V89.368H354.416V90.6495H353.178V93.02C353.178 93.2327 353.22 93.394 353.305 93.504C353.393 93.614 353.515 93.669 353.673 93.669C353.849 93.669 354.018 93.6103 354.179 93.493L354.603 94.846C354.412 94.9487 354.197 95.0293 353.959 95.088C353.724 95.1467 353.493 95.176 353.266 95.176Z" fill="black"/>
<path d="M237.373 167L241.02 157.925H242.675L246.316 167H244.397L243.627 164.932H240.063L239.293 167H237.373ZM240.673 163.37H243.022L241.845 160.328L240.673 163.37ZM247.416 167V161.368H249.105V162.176C249.314 161.861 249.569 161.619 249.869 161.45C250.174 161.278 250.5 161.192 250.848 161.192C251.046 161.192 251.252 161.221 251.464 161.28C251.677 161.339 251.855 161.414 251.998 161.505L251.294 162.93C251.169 162.846 251.023 162.78 250.854 162.732C250.689 162.681 250.535 162.655 250.392 162.655C250.172 162.655 249.963 162.712 249.765 162.825C249.567 162.939 249.407 163.088 249.286 163.271C249.165 163.451 249.105 163.645 249.105 163.854V167H247.416ZM252.932 167V161.368H254.621V167H252.932ZM253.779 160.196C253.596 160.196 253.427 160.152 253.273 160.064C253.123 159.973 253.002 159.85 252.91 159.696C252.819 159.542 252.773 159.373 252.773 159.19C252.773 159.007 252.819 158.84 252.91 158.689C253.002 158.539 253.123 158.42 253.273 158.332C253.427 158.24 253.596 158.194 253.779 158.194C253.963 158.194 254.13 158.24 254.28 158.332C254.43 158.42 254.549 158.539 254.637 158.689C254.729 158.84 254.775 159.007 254.775 159.19C254.775 159.373 254.729 159.542 254.637 159.696C254.549 159.85 254.43 159.973 254.28 160.064C254.13 160.152 253.963 160.196 253.779 160.196ZM258.553 167.176C257.992 167.176 257.556 166.998 257.244 166.642C256.933 166.283 256.777 165.783 256.777 165.141V162.649H256.023V161.368H256.777V159.256H258.465V161.368H259.703V162.649H258.465V165.02C258.465 165.233 258.507 165.394 258.592 165.504C258.68 165.614 258.803 165.669 258.96 165.669C259.136 165.669 259.305 165.61 259.466 165.493L259.89 166.846C259.699 166.949 259.485 167.029 259.246 167.088C259.012 167.147 258.781 167.176 258.553 167.176ZM261.349 167V157.54H263.038V161.995C263.254 161.753 263.523 161.559 263.846 161.412C264.172 161.265 264.532 161.192 264.924 161.192C265.357 161.192 265.736 161.287 266.063 161.478C266.393 161.665 266.651 161.927 266.838 162.264C267.025 162.598 267.119 162.989 267.119 163.436V167H265.43V163.793C265.43 163.39 265.324 163.077 265.111 162.853C264.902 162.626 264.614 162.512 264.248 162.512C263.998 162.512 263.782 162.563 263.599 162.666C263.419 162.765 263.28 162.902 263.181 163.078C263.085 163.251 263.038 163.447 263.038 163.667V167H261.349ZM268.997 167V161.368H270.686V161.995C270.965 161.716 271.241 161.513 271.516 161.384C271.791 161.256 272.088 161.192 272.407 161.192C272.84 161.192 273.231 161.289 273.579 161.483C273.927 161.678 274.177 161.938 274.327 162.264C274.602 161.909 274.897 161.641 275.212 161.461C275.528 161.282 275.889 161.192 276.296 161.192C276.703 161.192 277.064 161.276 277.379 161.445C277.695 161.614 277.942 161.854 278.122 162.165C278.305 162.473 278.397 162.838 278.397 163.26V167H276.708V163.722C276.708 163.355 276.613 163.067 276.422 162.858C276.232 162.646 275.977 162.539 275.658 162.539C275.438 162.539 275.244 162.585 275.075 162.677C274.91 162.769 274.78 162.891 274.684 163.045C274.589 163.199 274.541 163.37 274.541 163.557V167H272.853V163.689C272.853 163.341 272.759 163.062 272.572 162.853C272.389 162.644 272.134 162.539 271.808 162.539C271.592 162.539 271.397 162.585 271.225 162.677C271.056 162.769 270.924 162.893 270.829 163.051C270.734 163.209 270.686 163.383 270.686 163.573V167H268.997ZM283.004 167.176C282.396 167.176 281.849 167.046 281.365 166.785C280.885 166.521 280.504 166.164 280.221 165.713C279.939 165.262 279.798 164.752 279.798 164.184C279.798 163.766 279.877 163.375 280.034 163.012C280.196 162.649 280.419 162.332 280.705 162.061C280.991 161.786 281.323 161.573 281.701 161.423C282.078 161.269 282.487 161.192 282.927 161.192C283.514 161.192 284.027 161.315 284.467 161.56C284.911 161.802 285.256 162.14 285.501 162.572C285.751 163.005 285.875 163.509 285.875 164.085C285.875 164.133 285.873 164.175 285.87 164.211C285.87 164.244 285.864 164.309 285.853 164.404H281.536C281.536 164.69 281.6 164.939 281.728 165.152C281.86 165.365 282.044 165.531 282.278 165.652C282.513 165.77 282.786 165.828 283.098 165.828C283.391 165.828 283.65 165.772 283.873 165.658C284.101 165.544 284.319 165.363 284.528 165.113L285.743 165.724C285.479 166.179 285.105 166.534 284.621 166.791C284.137 167.048 283.598 167.176 283.004 167.176ZM281.596 163.469H284.214C284.178 163.253 284.099 163.066 283.978 162.908C283.86 162.75 283.71 162.629 283.527 162.545C283.343 162.461 283.136 162.418 282.905 162.418C282.66 162.418 282.443 162.461 282.256 162.545C282.069 162.629 281.919 162.75 281.805 162.908C281.692 163.066 281.622 163.253 281.596 163.469ZM289.287 167.176C288.726 167.176 288.289 166.998 287.978 166.642C287.666 166.283 287.51 165.783 287.51 165.141V162.649H286.757V161.368H287.51V159.256H289.199V161.368H290.436V162.649H289.199V165.02C289.199 165.233 289.241 165.394 289.325 165.504C289.413 165.614 289.536 165.669 289.694 165.669C289.87 165.669 290.038 165.61 290.2 165.493L290.623 166.846C290.432 166.949 290.218 167.029 289.98 167.088C289.745 167.147 289.514 167.176 289.287 167.176ZM292.077 167V161.368H293.765V167H292.077ZM292.924 160.196C292.741 160.196 292.572 160.152 292.418 160.064C292.268 159.973 292.147 159.85 292.055 159.696C291.963 159.542 291.917 159.373 291.917 159.19C291.917 159.007 291.963 158.84 292.055 158.689C292.147 158.539 292.268 158.42 292.418 158.332C292.572 158.24 292.741 158.194 292.924 158.194C293.107 158.194 293.274 158.24 293.424 158.332C293.575 158.42 293.694 158.539 293.782 158.689C293.874 158.84 293.919 159.007 293.919 159.19C293.919 159.373 293.874 159.542 293.782 159.696C293.694 159.85 293.575 159.973 293.424 160.064C293.274 160.152 293.107 160.196 292.924 160.196ZM298.391 167.176C297.962 167.176 297.557 167.099 297.175 166.945C296.798 166.791 296.464 166.578 296.174 166.307C295.885 166.032 295.657 165.715 295.492 165.355C295.327 164.992 295.245 164.604 295.245 164.189C295.245 163.79 295.322 163.41 295.476 163.051C295.633 162.692 295.853 162.373 296.136 162.094C296.422 161.815 296.755 161.595 297.137 161.434C297.522 161.273 297.938 161.192 298.385 161.192C298.748 161.192 299.097 161.243 299.43 161.346C299.768 161.449 300.039 161.581 300.244 161.742L299.667 162.88C299.392 162.679 299.051 162.578 298.644 162.578C298.295 162.578 298 162.655 297.758 162.809C297.516 162.963 297.331 163.163 297.203 163.408C297.078 163.654 297.016 163.913 297.016 164.184C297.016 164.481 297.084 164.752 297.219 164.998C297.355 165.24 297.546 165.432 297.791 165.575C298.041 165.718 298.328 165.79 298.655 165.79C298.856 165.79 299.045 165.762 299.221 165.707C299.397 165.652 299.546 165.579 299.667 165.487L300.244 166.626C300.035 166.784 299.766 166.914 299.436 167.017C299.106 167.123 298.757 167.176 298.391 167.176ZM300.417 168.32L304.949 157.54H306.39L301.858 168.32H300.417ZM307.428 167V157.925H309.21V165.438H312.488V167H307.428ZM316.501 167.176C315.881 167.176 315.322 167.05 314.823 166.796C314.325 166.54 313.929 166.188 313.635 165.74C313.342 165.289 313.195 164.771 313.195 164.184C313.195 163.597 313.34 163.08 313.63 162.633C313.923 162.182 314.319 161.83 314.818 161.577C315.32 161.32 315.881 161.192 316.501 161.192C317.124 161.192 317.685 161.32 318.184 161.577C318.682 161.83 319.077 162.182 319.366 162.633C319.66 163.08 319.806 163.597 319.806 164.184C319.806 164.771 319.66 165.289 319.366 165.74C319.077 166.188 318.682 166.54 318.184 166.796C317.685 167.05 317.124 167.176 316.501 167.176ZM316.506 165.735C316.792 165.735 317.053 165.669 317.287 165.537C317.522 165.405 317.707 165.223 317.843 164.992C317.978 164.758 318.046 164.488 318.046 164.184C318.046 163.88 317.978 163.612 317.843 163.381C317.707 163.146 317.522 162.963 317.287 162.831C317.053 162.699 316.792 162.633 316.506 162.633C316.217 162.633 315.954 162.699 315.72 162.831C315.489 162.963 315.305 163.146 315.17 163.381C315.034 163.612 314.966 163.88 314.966 164.184C314.966 164.488 315.034 164.758 315.17 164.992C315.305 165.223 315.489 165.405 315.72 165.537C315.954 165.669 316.217 165.735 316.506 165.735ZM324.013 170.025C323.254 170.025 322.616 169.886 322.099 169.607C321.582 169.332 321.206 168.925 320.971 168.386L322.346 167.715C322.5 167.975 322.727 168.183 323.028 168.337C323.329 168.491 323.655 168.568 324.007 168.568C324.326 168.568 324.607 168.503 324.849 168.375C325.091 168.25 325.279 168.073 325.415 167.842C325.551 167.614 325.619 167.35 325.619 167.05V166.257C325.369 166.547 325.074 166.773 324.733 166.934C324.392 167.095 324.025 167.176 323.633 167.176C323.123 167.176 322.658 167.05 322.236 166.796C321.818 166.54 321.484 166.186 321.235 165.735C320.986 165.284 320.861 164.767 320.861 164.184C320.861 163.612 320.982 163.102 321.224 162.655C321.47 162.204 321.803 161.848 322.225 161.588C322.65 161.324 323.134 161.192 323.677 161.192C324.073 161.192 324.44 161.269 324.777 161.423C325.114 161.573 325.395 161.784 325.619 162.055V161.368H327.307V167.154C327.307 167.708 327.186 168.201 326.944 168.634C326.706 169.066 326.343 169.405 325.855 169.651C325.367 169.9 324.753 170.025 324.013 170.025ZM324.139 165.74C324.436 165.74 324.698 165.674 324.926 165.542C325.157 165.407 325.336 165.223 325.465 164.992C325.593 164.758 325.657 164.492 325.657 164.195C325.657 163.891 325.591 163.621 325.459 163.386C325.331 163.152 325.153 162.967 324.926 162.831C324.698 162.695 324.44 162.627 324.15 162.627C323.86 162.627 323.602 162.695 323.375 162.831C323.147 162.967 322.968 163.154 322.836 163.392C322.704 163.627 322.638 163.894 322.638 164.195C322.638 164.492 322.702 164.758 322.83 164.992C322.958 165.223 323.136 165.407 323.364 165.542C323.591 165.674 323.849 165.74 324.139 165.74ZM329.288 167V161.368H330.976V167H329.288ZM330.135 160.196C329.952 160.196 329.783 160.152 329.629 160.064C329.479 159.973 329.358 159.85 329.266 159.696C329.174 159.542 329.128 159.373 329.128 159.19C329.128 159.007 329.174 158.84 329.266 158.689C329.358 158.539 329.479 158.42 329.629 158.332C329.783 158.24 329.952 158.194 330.135 158.194C330.318 158.194 330.485 158.24 330.635 158.332C330.786 158.42 330.905 158.539 330.993 158.689C331.085 158.84 331.13 159.007 331.13 159.19C331.13 159.373 331.085 159.542 330.993 159.696C330.905 159.85 330.786 159.973 330.635 160.064C330.485 160.152 330.318 160.196 330.135 160.196ZM335.602 167.176C335.173 167.176 334.768 167.099 334.386 166.945C334.009 166.791 333.675 166.578 333.385 166.307C333.096 166.032 332.868 165.715 332.703 165.355C332.538 164.992 332.456 164.604 332.456 164.189C332.456 163.79 332.533 163.41 332.687 163.051C332.844 162.692 333.064 162.373 333.347 162.094C333.633 161.815 333.966 161.595 334.348 161.434C334.733 161.273 335.149 161.192 335.596 161.192C335.959 161.192 336.308 161.243 336.641 161.346C336.979 161.449 337.25 161.581 337.455 161.742L336.878 162.88C336.603 162.679 336.262 162.578 335.855 162.578C335.506 162.578 335.211 162.655 334.969 162.809C334.727 162.963 334.542 163.163 334.414 163.408C334.289 163.654 334.227 163.913 334.227 164.184C334.227 164.481 334.295 164.752 334.43 164.998C334.566 165.24 334.757 165.432 335.002 165.575C335.252 165.718 335.539 165.79 335.866 165.79C336.067 165.79 336.256 165.762 336.432 165.707C336.608 165.652 336.757 165.579 336.878 165.487L337.455 166.626C337.246 166.784 336.977 166.914 336.647 167.017C336.317 167.123 335.968 167.176 335.602 167.176ZM345.329 167.176C344.192 167.176 343.332 166.892 342.749 166.323C342.166 165.751 341.875 164.904 341.875 163.782V157.925H343.657V163.271C343.657 164.037 343.787 164.589 344.047 164.926C344.311 165.26 344.738 165.427 345.329 165.427C345.919 165.427 346.344 165.26 346.605 164.926C346.869 164.589 347.001 164.037 347.001 163.271V157.925H348.783V163.782C348.783 164.904 348.491 165.751 347.908 166.323C347.329 166.892 346.469 167.176 345.329 167.176ZM350.864 167V161.368H352.552V161.995C352.768 161.753 353.038 161.559 353.361 161.412C353.687 161.265 354.046 161.192 354.439 161.192C354.871 161.192 355.251 161.287 355.577 161.478C355.907 161.665 356.166 161.927 356.353 162.264C356.54 162.598 356.633 162.989 356.633 163.436V167H354.945V163.793C354.945 163.39 354.838 163.077 354.626 162.853C354.417 162.626 354.129 162.512 353.762 162.512C353.513 162.512 353.296 162.563 353.113 162.666C352.933 162.765 352.794 162.902 352.695 163.078C352.6 163.251 352.552 163.447 352.552 163.667V167H350.864ZM358.507 167V161.368H360.195V167H358.507ZM359.354 160.196C359.17 160.196 359.002 160.152 358.848 160.064C358.697 159.973 358.576 159.85 358.485 159.696C358.393 159.542 358.347 159.373 358.347 159.19C358.347 159.007 358.393 158.84 358.485 158.689C358.576 158.539 358.697 158.42 358.848 158.332C359.002 158.24 359.17 158.194 359.354 158.194C359.537 158.194 359.704 158.24 359.854 158.332C360.004 158.42 360.124 158.539 360.212 158.689C360.303 158.84 360.349 159.007 360.349 159.19C360.349 159.373 360.303 159.542 360.212 159.696C360.124 159.85 360.004 159.973 359.854 160.064C359.704 160.152 359.537 160.196 359.354 160.196ZM364.127 167.176C363.566 167.176 363.13 166.998 362.818 166.642C362.507 166.283 362.351 165.783 362.351 165.141V162.649H361.597V161.368H362.351V159.256H364.039V161.368H365.277V162.649H364.039V165.02C364.039 165.233 364.082 165.394 364.166 165.504C364.254 165.614 364.377 165.669 364.534 165.669C364.71 165.669 364.879 165.61 365.04 165.493L365.464 166.846C365.273 166.949 365.059 167.029 364.82 167.088C364.586 167.147 364.355 167.176 364.127 167.176ZM371.478 169.86C371.265 169.581 371.045 169.233 370.818 168.815C370.59 168.397 370.378 167.92 370.18 167.385C369.985 166.853 369.828 166.27 369.707 165.636C369.586 165.002 369.525 164.331 369.525 163.623C369.525 162.912 369.586 162.239 369.707 161.604C369.831 160.966 369.991 160.38 370.185 159.844C370.379 159.309 370.59 158.832 370.818 158.414C371.049 157.996 371.269 157.65 371.478 157.375L372.567 157.842C372.361 158.143 372.141 158.568 371.907 159.118C371.676 159.668 371.479 160.323 371.318 161.082C371.16 161.841 371.082 162.686 371.082 163.617C371.082 164.49 371.155 165.299 371.302 166.043C371.452 166.787 371.641 167.444 371.868 168.012C372.099 168.58 372.332 169.041 372.567 169.393L371.478 169.86ZM373.047 167L376.693 157.925H378.349L381.99 167H380.07L379.3 164.932H375.736L374.966 167H373.047ZM376.347 163.37H378.695L377.518 160.328L376.347 163.37ZM383.332 167V157.925H385.114V165.438H388.392V167H383.332ZM393.142 167.176C392.005 167.176 391.145 166.892 390.562 166.323C389.979 165.751 389.688 164.904 389.688 163.782V157.925H391.47V163.271C391.47 164.037 391.6 164.589 391.86 164.926C392.124 165.26 392.552 165.427 393.142 165.427C393.732 165.427 394.158 165.26 394.418 164.926C394.682 164.589 394.814 164.037 394.814 163.271V157.925H396.596V163.782C396.596 164.904 396.304 165.751 395.721 166.323C395.142 166.892 394.282 167.176 393.142 167.176ZM399.15 169.86L398.056 169.393C398.367 168.934 398.633 168.397 398.853 167.781C399.073 167.169 399.242 166.509 399.359 165.801C399.476 165.093 399.535 164.367 399.535 163.623C399.535 162.89 399.478 162.171 399.365 161.467C399.251 160.759 399.084 160.096 398.864 159.476C398.644 158.856 398.375 158.312 398.056 157.842L399.15 157.375C399.777 158.218 400.256 159.183 400.586 160.268C400.919 161.353 401.086 162.472 401.086 163.623C401.086 164.741 400.925 165.843 400.602 166.928C400.279 168.014 399.795 168.991 399.15 169.86Z" fill="black"/>
<path d="M279.777 279L280.679 269.925H282.571L284.738 275.601L286.905 269.925H288.797L289.699 279H287.917L287.356 273.126L285.283 278.774H284.188L282.12 273.126L281.554 279H279.777ZM294.218 279.176C293.609 279.176 293.063 279.046 292.579 278.785C292.098 278.521 291.717 278.164 291.435 277.713C291.152 277.262 291.011 276.752 291.011 276.184C291.011 275.766 291.09 275.375 291.248 275.012C291.409 274.649 291.633 274.332 291.919 274.061C292.205 273.786 292.536 273.573 292.914 273.423C293.292 273.269 293.701 273.192 294.141 273.192C294.727 273.192 295.241 273.315 295.681 273.56C296.124 273.802 296.469 274.14 296.715 274.572C296.964 275.005 297.089 275.509 297.089 276.085C297.089 276.133 297.087 276.175 297.083 276.211C297.083 276.244 297.078 276.309 297.067 276.404H292.749C292.749 276.69 292.813 276.939 292.942 277.152C293.074 277.365 293.257 277.531 293.492 277.652C293.726 277.77 293.999 277.828 294.311 277.828C294.604 277.828 294.863 277.772 295.087 277.658C295.314 277.544 295.532 277.363 295.741 277.113L296.957 277.724C296.693 278.179 296.319 278.534 295.835 278.791C295.351 279.048 294.812 279.176 294.218 279.176ZM292.81 275.469H295.428C295.391 275.253 295.312 275.066 295.191 274.908C295.074 274.75 294.923 274.629 294.74 274.545C294.557 274.461 294.35 274.418 294.119 274.418C293.873 274.418 293.657 274.461 293.47 274.545C293.283 274.629 293.132 274.75 293.019 274.908C292.905 275.066 292.835 275.253 292.81 275.469ZM298.591 279V273.368H300.279V273.995C300.558 273.716 300.835 273.513 301.11 273.384C301.385 273.256 301.682 273.192 302.001 273.192C302.433 273.192 302.824 273.289 303.172 273.483C303.521 273.678 303.77 273.938 303.92 274.264C304.195 273.909 304.49 273.641 304.806 273.461C305.121 273.282 305.482 273.192 305.889 273.192C306.296 273.192 306.657 273.276 306.973 273.445C307.288 273.614 307.536 273.854 307.715 274.165C307.899 274.473 307.99 274.838 307.99 275.26V279H306.302V275.722C306.302 275.355 306.206 275.067 306.016 274.858C305.825 274.646 305.57 274.539 305.251 274.539C305.031 274.539 304.837 274.585 304.668 274.677C304.503 274.769 304.373 274.891 304.278 275.045C304.182 275.199 304.135 275.37 304.135 275.557V279H302.446V275.689C302.446 275.341 302.353 275.062 302.166 274.853C301.982 274.644 301.728 274.539 301.401 274.539C301.185 274.539 300.991 274.585 300.818 274.677C300.65 274.769 300.518 274.893 300.422 275.051C300.327 275.209 300.279 275.383 300.279 275.573V279H298.591ZM312.696 279.176C312.077 279.176 311.518 279.05 311.019 278.796C310.52 278.54 310.124 278.188 309.831 277.74C309.538 277.289 309.391 276.771 309.391 276.184C309.391 275.597 309.536 275.08 309.825 274.633C310.119 274.182 310.515 273.83 311.013 273.577C311.516 273.32 312.077 273.192 312.696 273.192C313.32 273.192 313.881 273.32 314.379 273.577C314.878 273.83 315.272 274.182 315.562 274.633C315.855 275.08 316.002 275.597 316.002 276.184C316.002 276.771 315.855 277.289 315.562 277.74C315.272 278.188 314.878 278.54 314.379 278.796C313.881 279.05 313.32 279.176 312.696 279.176ZM312.702 277.735C312.988 277.735 313.248 277.669 313.483 277.537C313.718 277.405 313.903 277.223 314.038 276.992C314.174 276.758 314.242 276.488 314.242 276.184C314.242 275.88 314.174 275.612 314.038 275.381C313.903 275.146 313.718 274.963 313.483 274.831C313.248 274.699 312.988 274.633 312.702 274.633C312.412 274.633 312.15 274.699 311.915 274.831C311.684 274.963 311.501 275.146 311.365 275.381C311.23 275.612 311.162 275.88 311.162 276.184C311.162 276.488 311.23 276.758 311.365 276.992C311.501 277.223 311.684 277.405 311.915 277.537C312.15 277.669 312.412 277.735 312.702 277.735ZM317.475 279V273.368H319.164V274.176C319.373 273.861 319.628 273.619 319.928 273.45C320.233 273.278 320.559 273.192 320.907 273.192C321.105 273.192 321.311 273.221 321.523 273.28C321.736 273.339 321.914 273.414 322.057 273.505L321.353 274.93C321.228 274.846 321.082 274.78 320.913 274.732C320.748 274.681 320.594 274.655 320.451 274.655C320.231 274.655 320.022 274.712 319.824 274.825C319.626 274.939 319.466 275.088 319.345 275.271C319.224 275.451 319.164 275.645 319.164 275.854V279H317.475ZM322.766 281.86L324.586 278.296L321.908 273.368H323.844L325.571 276.668L327.067 273.368H329.003L324.696 281.86H322.766ZM336.443 279.176C335.307 279.176 334.447 278.892 333.864 278.323C333.281 277.751 332.989 276.904 332.989 275.782V269.925H334.771V275.271C334.771 276.037 334.901 276.589 335.162 276.926C335.426 277.26 335.853 277.427 336.443 277.427C337.034 277.427 337.459 277.26 337.719 276.926C337.983 276.589 338.115 276.037 338.115 275.271V269.925H339.897V275.782C339.897 276.904 339.606 277.751 339.023 278.323C338.443 278.892 337.584 279.176 336.443 279.176ZM341.978 279V273.368H343.667V273.995C343.883 273.753 344.153 273.559 344.475 273.412C344.802 273.265 345.161 273.192 345.553 273.192C345.986 273.192 346.366 273.287 346.692 273.478C347.022 273.665 347.28 273.927 347.467 274.264C347.654 274.598 347.748 274.989 347.748 275.436V279H346.059V275.793C346.059 275.39 345.953 275.077 345.74 274.853C345.531 274.626 345.244 274.512 344.877 274.512C344.628 274.512 344.411 274.563 344.228 274.666C344.048 274.765 343.909 274.902 343.81 275.078C343.715 275.251 343.667 275.447 343.667 275.667V279H341.978ZM349.621 279V273.368H351.31V279H349.621ZM350.468 272.196C350.285 272.196 350.116 272.152 349.962 272.064C349.812 271.973 349.691 271.85 349.599 271.696C349.508 271.542 349.462 271.373 349.462 271.19C349.462 271.007 349.508 270.84 349.599 270.689C349.691 270.539 349.812 270.42 349.962 270.332C350.116 270.24 350.285 270.194 350.468 270.194C350.652 270.194 350.819 270.24 350.969 270.332C351.119 270.42 351.238 270.539 351.326 270.689C351.418 270.84 351.464 271.007 351.464 271.19C351.464 271.373 351.418 271.542 351.326 271.696C351.238 271.85 351.119 271.973 350.969 272.064C350.819 272.152 350.652 272.196 350.468 272.196ZM355.242 279.176C354.681 279.176 354.245 278.998 353.933 278.642C353.622 278.283 353.466 277.783 353.466 277.141V274.649H352.712V273.368H353.466V271.256H355.154V273.368H356.392V274.649H355.154V277.02C355.154 277.233 355.196 277.394 355.281 277.504C355.369 277.614 355.492 277.669 355.649 277.669C355.825 277.669 355.994 277.61 356.155 277.493L356.579 278.846C356.388 278.949 356.174 279.029 355.935 279.088C355.701 279.147 355.47 279.176 355.242 279.176Z" fill="black"/>
<path d="M24.9782 164V154.925H26.7602V164H24.9782ZM29.0009 164V158.368H30.6894V158.995C30.9057 158.753 31.1752 158.559 31.4979 158.412C31.8242 158.265 32.1835 158.192 32.5759 158.192C33.0085 158.192 33.388 158.287 33.7144 158.478C34.0444 158.665 34.3029 158.927 34.4899 159.264C34.6769 159.598 34.7704 159.989 34.7704 160.436V164H33.0819V160.793C33.0819 160.39 32.9755 160.077 32.7629 159.853C32.5539 159.626 32.266 159.512 31.8994 159.512C31.65 159.512 31.4337 159.563 31.2504 159.666C31.0707 159.765 30.9314 159.902 30.8324 160.078C30.737 160.251 30.6894 160.447 30.6894 160.667V164H29.0009ZM36.6493 166.86V158.368H38.3378V159.055C38.5651 158.78 38.8475 158.568 39.1848 158.417C39.5221 158.267 39.8851 158.192 40.2738 158.192C40.8165 158.192 41.2986 158.322 41.7203 158.582C42.1456 158.843 42.4793 159.198 42.7213 159.649C42.967 160.1 43.0898 160.612 43.0898 161.184C43.0898 161.749 42.9688 162.258 42.7268 162.713C42.4848 163.164 42.153 163.521 41.7313 163.785C41.3133 164.046 40.8403 164.176 40.3123 164.176C39.9273 164.176 39.5643 164.097 39.2233 163.939C38.8823 163.778 38.5871 163.551 38.3378 163.257V166.86H36.6493ZM39.8118 162.74C40.1051 162.74 40.3636 162.674 40.5873 162.542C40.8146 162.407 40.9925 162.223 41.1208 161.992C41.2491 161.758 41.3133 161.49 41.3133 161.189C41.3133 160.889 41.2473 160.621 41.1153 160.386C40.9833 160.152 40.8055 159.967 40.5818 159.831C40.3581 159.695 40.1015 159.627 39.8118 159.627C39.5221 159.627 39.2618 159.695 39.0308 159.831C38.8035 159.967 38.6238 160.152 38.4918 160.386C38.3598 160.617 38.2938 160.885 38.2938 161.189C38.2938 161.486 38.358 161.752 38.4863 161.987C38.6183 162.222 38.7998 162.407 39.0308 162.542C39.2618 162.674 39.5221 162.74 39.8118 162.74ZM47.4025 164.176C46.3758 164.176 45.6352 163.972 45.1805 163.565C44.7258 163.158 44.4985 162.493 44.4985 161.569V158.368H46.187V161.173C46.187 161.767 46.2787 162.187 46.462 162.432C46.649 162.678 46.9625 162.801 47.4025 162.801C47.8498 162.801 48.1633 162.678 48.343 162.432C48.5263 162.187 48.618 161.767 48.618 161.173V158.368H50.3065V161.569C50.3065 162.493 50.0792 163.158 49.6245 163.565C49.1735 163.972 48.4328 164.176 47.4025 164.176ZM54.0488 164.176C53.4878 164.176 53.0515 163.998 52.7398 163.642C52.4281 163.283 52.2723 162.783 52.2723 162.141V159.649H51.5188V158.368H52.2723V156.256H53.9608V158.368H55.1983V159.649H53.9608V162.02C53.9608 162.233 54.003 162.394 54.0873 162.504C54.1753 162.614 54.2981 162.669 54.4558 162.669C54.6318 162.669 54.8005 162.61 54.9618 162.493L55.3853 163.846C55.1946 163.949 54.9801 164.029 54.7418 164.088C54.5071 164.147 54.2761 164.176 54.0488 164.176ZM60.0515 164V154.925H62.543C63.1883 154.925 63.7878 155.04 64.3415 155.271C64.8951 155.502 65.3791 155.825 65.7935 156.239C66.2115 156.654 66.536 157.136 66.767 157.686C67.0016 158.236 67.119 158.83 67.119 159.468C67.119 160.11 67.0035 160.705 66.7725 161.255C66.5415 161.802 66.217 162.282 65.799 162.696C65.3846 163.107 64.8988 163.428 64.3415 163.659C63.7878 163.886 63.1883 164 62.543 164H60.0515ZM61.8335 162.405H62.345C62.7556 162.405 63.1351 162.332 63.4835 162.185C63.8318 162.038 64.1343 161.833 64.391 161.569C64.6476 161.305 64.8475 160.995 64.9905 160.639C65.1335 160.28 65.205 159.888 65.205 159.462C65.205 159.041 65.1335 158.652 64.9905 158.296C64.8475 157.937 64.6476 157.625 64.391 157.361C64.1343 157.094 63.8318 156.887 63.4835 156.74C63.1351 156.593 62.7556 156.52 62.345 156.52H61.8335V162.405ZM71.3778 164.176C70.7691 164.176 70.2228 164.046 69.7388 163.785C69.2584 163.521 68.8771 163.164 68.5948 162.713C68.3124 162.262 68.1713 161.752 68.1713 161.184C68.1713 160.766 68.2501 160.375 68.4078 160.012C68.5691 159.649 68.7928 159.332 69.0788 159.061C69.3648 158.786 69.6966 158.573 70.0743 158.423C70.4519 158.269 70.8608 158.192 71.3008 158.192C71.8874 158.192 72.4008 158.315 72.8408 158.56C73.2844 158.802 73.6291 159.14 73.8748 159.572C74.1241 160.005 74.2488 160.509 74.2488 161.085C74.2488 161.133 74.2469 161.175 74.2433 161.211C74.2433 161.244 74.2378 161.309 74.2268 161.404H69.9093C69.9093 161.69 69.9734 161.939 70.1018 162.152C70.2338 162.365 70.4171 162.531 70.6518 162.652C70.8864 162.77 71.1596 162.828 71.4713 162.828C71.7646 162.828 72.0231 162.772 72.2468 162.658C72.4741 162.544 72.6923 162.363 72.9013 162.113L74.1168 162.724C73.8528 163.179 73.4788 163.534 72.9948 163.791C72.5108 164.048 71.9718 164.176 71.3778 164.176ZM69.9698 160.469H72.5878C72.5511 160.253 72.4723 160.066 72.3513 159.908C72.2339 159.75 72.0836 159.629 71.9003 159.545C71.7169 159.461 71.5098 159.418 71.2788 159.418C71.0331 159.418 70.8168 159.461 70.6298 159.545C70.4428 159.629 70.2924 159.75 70.1788 159.908C70.0651 160.066 69.9954 160.253 69.9698 160.469ZM77.6106 164L74.6516 158.368H76.6426L78.1771 161.767L79.7116 158.368H81.7026L78.7381 164H77.6106ZM82.6204 164V158.368H84.3089V164H82.6204ZM83.4674 157.196C83.284 157.196 83.1154 157.152 82.9614 157.064C82.811 156.973 82.69 156.85 82.5984 156.696C82.5067 156.542 82.4609 156.373 82.4609 156.19C82.4609 156.007 82.5067 155.84 82.5984 155.689C82.69 155.539 82.811 155.42 82.9614 155.332C83.1154 155.24 83.284 155.194 83.4674 155.194C83.6507 155.194 83.8175 155.24 83.9679 155.332C84.1182 155.42 84.2374 155.539 84.3254 155.689C84.417 155.84 84.4629 156.007 84.4629 156.19C84.4629 156.373 84.417 156.542 84.3254 156.696C84.2374 156.85 84.1182 156.973 83.9679 157.064C83.8175 157.152 83.6507 157.196 83.4674 157.196ZM88.9342 164.176C88.5052 164.176 88.1 164.099 87.7187 163.945C87.341 163.791 87.0074 163.578 86.7177 163.307C86.428 163.032 86.2007 162.715 86.0357 162.355C85.8707 161.992 85.7882 161.604 85.7882 161.189C85.7882 160.79 85.8652 160.41 86.0192 160.051C86.1769 159.692 86.3969 159.373 86.6792 159.094C86.9652 158.815 87.2989 158.595 87.6802 158.434C88.0652 158.273 88.4814 158.192 88.9287 158.192C89.2917 158.192 89.64 158.243 89.9737 158.346C90.311 158.449 90.5824 158.581 90.7877 158.742L90.2102 159.88C89.9352 159.679 89.5942 159.578 89.1872 159.578C88.8389 159.578 88.5437 159.655 88.3017 159.809C88.0597 159.963 87.8745 160.163 87.7462 160.408C87.6215 160.654 87.5592 160.913 87.5592 161.184C87.5592 161.481 87.627 161.752 87.7627 161.998C87.8984 162.24 88.089 162.432 88.3347 162.575C88.584 162.718 88.8719 162.79 89.1982 162.79C89.3999 162.79 89.5887 162.762 89.7647 162.707C89.9407 162.652 90.0892 162.579 90.2102 162.487L90.7877 163.626C90.5787 163.784 90.3092 163.914 89.9792 164.017C89.6492 164.123 89.3009 164.176 88.9342 164.176ZM94.8602 164.176C94.2515 164.176 93.7052 164.046 93.2212 163.785C92.7409 163.521 92.3595 163.164 92.0772 162.713C91.7949 162.262 91.6537 161.752 91.6537 161.184C91.6537 160.766 91.7325 160.375 91.8902 160.012C92.0515 159.649 92.2752 159.332 92.5612 159.061C92.8472 158.786 93.179 158.573 93.5567 158.423C93.9344 158.269 94.3432 158.192 94.7832 158.192C95.3699 158.192 95.8832 158.315 96.3232 158.56C96.7669 158.802 97.1115 159.14 97.3572 159.572C97.6065 160.005 97.7312 160.509 97.7312 161.085C97.7312 161.133 97.7294 161.175 97.7257 161.211C97.7257 161.244 97.7202 161.309 97.7092 161.404H93.3917C93.3917 161.69 93.4559 161.939 93.5842 162.152C93.7162 162.365 93.8995 162.531 94.1342 162.652C94.3689 162.77 94.642 162.828 94.9537 162.828C95.247 162.828 95.5055 162.772 95.7292 162.658C95.9565 162.544 96.1747 162.363 96.3837 162.113L97.5992 162.724C97.3352 163.179 96.9612 163.534 96.4772 163.791C95.9932 164.048 95.4542 164.176 94.8602 164.176ZM93.4522 160.469H96.0702C96.0335 160.253 95.9547 160.066 95.8337 159.908C95.7164 159.75 95.566 159.629 95.3827 159.545C95.1994 159.461 94.9922 159.418 94.7612 159.418C94.5155 159.418 94.2992 159.461 94.1122 159.545C93.9252 159.629 93.7749 159.75 93.6612 159.908C93.5475 160.066 93.4779 160.253 93.4522 160.469Z" fill="black"/>
<path d="M536.098 166.176C535.464 166.176 534.87 166.055 534.316 165.813C533.763 165.571 533.277 165.235 532.859 164.806C532.441 164.374 532.113 163.873 531.874 163.305C531.64 162.733 531.522 162.121 531.522 161.468C531.522 160.815 531.64 160.205 531.874 159.636C532.113 159.064 532.441 158.564 532.859 158.135C533.277 157.702 533.763 157.365 534.316 157.123C534.87 156.881 535.464 156.76 536.098 156.76C536.733 156.76 537.327 156.881 537.88 157.123C538.434 157.365 538.92 157.702 539.338 158.135C539.756 158.564 540.082 159.064 540.317 159.636C540.555 160.205 540.674 160.815 540.674 161.468C540.674 162.121 540.555 162.733 540.317 163.305C540.082 163.873 539.756 164.374 539.338 164.806C538.92 165.235 538.434 165.571 537.88 165.813C537.327 166.055 536.733 166.176 536.098 166.176ZM536.093 164.46C536.481 164.46 536.837 164.387 537.16 164.24C537.482 164.093 537.763 163.886 538.001 163.618C538.24 163.351 538.425 163.035 538.557 162.672C538.689 162.306 538.755 161.904 538.755 161.468C538.755 161.032 538.689 160.632 538.557 160.269C538.425 159.902 538.24 159.585 538.001 159.317C537.763 159.05 537.482 158.843 537.16 158.696C536.837 158.549 536.481 158.476 536.093 158.476C535.711 158.476 535.358 158.549 535.031 158.696C534.709 158.843 534.428 159.05 534.19 159.317C533.951 159.585 533.766 159.902 533.634 160.269C533.506 160.632 533.442 161.032 533.442 161.468C533.442 161.904 533.506 162.306 533.634 162.672C533.766 163.035 533.951 163.351 534.19 163.618C534.428 163.886 534.709 164.093 535.031 164.24C535.358 164.387 535.711 164.46 536.093 164.46ZM545.003 166.176C543.976 166.176 543.236 165.972 542.781 165.565C542.326 165.158 542.099 164.493 542.099 163.569V160.368H543.788V163.173C543.788 163.767 543.879 164.187 544.063 164.432C544.25 164.678 544.563 164.801 545.003 164.801C545.45 164.801 545.764 164.678 545.944 164.432C546.127 164.187 546.219 163.767 546.219 163.173V160.368H547.907V163.569C547.907 164.493 547.68 165.158 547.225 165.565C546.774 165.972 546.033 166.176 545.003 166.176ZM551.649 166.176C551.088 166.176 550.652 165.998 550.34 165.642C550.029 165.283 549.873 164.783 549.873 164.141V161.649H549.119V160.368H549.873V158.256H551.561V160.368H552.799V161.649H551.561V164.02C551.561 164.233 551.604 164.394 551.688 164.504C551.776 164.614 551.899 164.669 552.056 164.669C552.232 164.669 552.401 164.61 552.562 164.493L552.986 165.846C552.795 165.949 552.581 166.029 552.342 166.088C552.108 166.147 551.877 166.176 551.649 166.176ZM554.445 168.86V160.368H556.134V161.055C556.361 160.78 556.643 160.568 556.981 160.417C557.318 160.267 557.681 160.192 558.07 160.192C558.612 160.192 559.095 160.322 559.516 160.582C559.942 160.843 560.275 161.198 560.517 161.649C560.763 162.1 560.886 162.612 560.886 163.184C560.886 163.749 560.765 164.258 560.523 164.713C560.281 165.164 559.949 165.521 559.527 165.785C559.109 166.046 558.636 166.176 558.108 166.176C557.723 166.176 557.36 166.097 557.019 165.939C556.678 165.778 556.383 165.551 556.134 165.257V168.86H554.445ZM557.608 164.74C557.901 164.74 558.16 164.674 558.383 164.542C558.611 164.407 558.788 164.223 558.917 163.992C559.045 163.758 559.109 163.49 559.109 163.189C559.109 162.889 559.043 162.621 558.911 162.386C558.779 162.152 558.601 161.967 558.378 161.831C558.154 161.695 557.897 161.627 557.608 161.627C557.318 161.627 557.058 161.695 556.827 161.831C556.599 161.967 556.42 162.152 556.288 162.386C556.156 162.617 556.09 162.885 556.09 163.189C556.09 163.486 556.154 163.752 556.282 163.987C556.414 164.222 556.596 164.407 556.827 164.542C557.058 164.674 557.318 164.74 557.608 164.74ZM565.198 166.176C564.172 166.176 563.431 165.972 562.976 165.565C562.522 165.158 562.294 164.493 562.294 163.569V160.368H563.983V163.173C563.983 163.767 564.075 164.187 564.258 164.432C564.445 164.678 564.758 164.801 565.198 164.801C565.646 164.801 565.959 164.678 566.139 164.432C566.322 164.187 566.414 163.767 566.414 163.173V160.368H568.102V163.569C568.102 164.493 567.875 165.158 567.42 165.565C566.969 165.972 566.229 166.176 565.198 166.176ZM571.845 166.176C571.284 166.176 570.847 165.998 570.536 165.642C570.224 165.283 570.068 164.783 570.068 164.141V161.649H569.315V160.368H570.068V158.256H571.757V160.368H572.994V161.649H571.757V164.02C571.757 164.233 571.799 164.394 571.883 164.504C571.971 164.614 572.094 164.669 572.252 164.669C572.428 164.669 572.596 164.61 572.758 164.493L573.181 165.846C572.991 165.949 572.776 166.029 572.538 166.088C572.303 166.147 572.072 166.176 571.845 166.176ZM577.847 166V156.925H580.339C580.984 156.925 581.584 157.04 582.137 157.271C582.691 157.502 583.175 157.825 583.589 158.239C584.007 158.654 584.332 159.136 584.563 159.686C584.798 160.236 584.915 160.83 584.915 161.468C584.915 162.11 584.799 162.705 584.568 163.255C584.337 163.802 584.013 164.282 583.595 164.696C583.181 165.107 582.695 165.428 582.137 165.659C581.584 165.886 580.984 166 580.339 166H577.847ZM579.629 164.405H580.141C580.552 164.405 580.931 164.332 581.279 164.185C581.628 164.038 581.93 163.833 582.187 163.569C582.444 163.305 582.643 162.995 582.786 162.639C582.929 162.28 583.001 161.888 583.001 161.462C583.001 161.041 582.929 160.652 582.786 160.296C582.643 159.937 582.444 159.625 582.187 159.361C581.93 159.094 581.628 158.887 581.279 158.74C580.931 158.593 580.552 158.52 580.141 158.52H579.629V164.405ZM589.174 166.176C588.565 166.176 588.019 166.046 587.535 165.785C587.054 165.521 586.673 165.164 586.391 164.713C586.108 164.262 585.967 163.752 585.967 163.184C585.967 162.766 586.046 162.375 586.204 162.012C586.365 161.649 586.589 161.332 586.875 161.061C587.161 160.786 587.493 160.573 587.87 160.423C588.248 160.269 588.657 160.192 589.097 160.192C589.683 160.192 590.197 160.315 590.637 160.56C591.08 160.802 591.425 161.14 591.671 161.572C591.92 162.005 592.045 162.509 592.045 163.085C592.045 163.133 592.043 163.175 592.039 163.211C592.039 163.244 592.034 163.309 592.023 163.404H587.705C587.705 163.69 587.769 163.939 587.898 164.152C588.03 164.365 588.213 164.531 588.448 164.652C588.682 164.77 588.956 164.828 589.267 164.828C589.561 164.828 589.819 164.772 590.043 164.658C590.27 164.544 590.488 164.363 590.697 164.113L591.913 164.724C591.649 165.179 591.275 165.534 590.791 165.791C590.307 166.048 589.768 166.176 589.174 166.176ZM587.766 162.469H590.384C590.347 162.253 590.268 162.066 590.147 161.908C590.03 161.75 589.88 161.629 589.696 161.545C589.513 161.461 589.306 161.418 589.075 161.418C588.829 161.418 588.613 161.461 588.426 161.545C588.239 161.629 588.088 161.75 587.975 161.908C587.861 162.066 587.791 162.253 587.766 162.469ZM595.407 166L592.448 160.368H594.439L595.973 163.767L597.508 160.368H599.499L596.534 166H595.407ZM600.416 166V160.368H602.105V166H600.416ZM601.263 159.196C601.08 159.196 600.911 159.152 600.757 159.064C600.607 158.973 600.486 158.85 600.394 158.696C600.303 158.542 600.257 158.373 600.257 158.19C600.257 158.007 600.303 157.84 600.394 157.689C600.486 157.539 600.607 157.42 600.757 157.332C600.911 157.24 601.08 157.194 601.263 157.194C601.447 157.194 601.613 157.24 601.764 157.332C601.914 157.42 602.033 157.539 602.121 157.689C602.213 157.84 602.259 158.007 602.259 158.19C602.259 158.373 602.213 158.542 602.121 158.696C602.033 158.85 601.914 158.973 601.764 159.064C601.613 159.152 601.447 159.196 601.263 159.196ZM606.73 166.176C606.301 166.176 605.896 166.099 605.515 165.945C605.137 165.791 604.803 165.578 604.514 165.307C604.224 165.032 603.997 164.715 603.832 164.355C603.667 163.992 603.584 163.604 603.584 163.189C603.584 162.79 603.661 162.41 603.815 162.051C603.973 161.692 604.193 161.373 604.475 161.094C604.761 160.815 605.095 160.595 605.476 160.434C605.861 160.273 606.277 160.192 606.725 160.192C607.088 160.192 607.436 160.243 607.77 160.346C608.107 160.449 608.378 160.581 608.584 160.742L608.006 161.88C607.731 161.679 607.39 161.578 606.983 161.578C606.635 161.578 606.34 161.655 606.098 161.809C605.856 161.963 605.67 162.163 605.542 162.408C605.417 162.654 605.355 162.913 605.355 163.184C605.355 163.481 605.423 163.752 605.559 163.998C605.694 164.24 605.885 164.432 606.131 164.575C606.38 164.718 606.668 164.79 606.994 164.79C607.196 164.79 607.385 164.762 607.561 164.707C607.737 164.652 607.885 164.579 608.006 164.487L608.584 165.626C608.375 165.784 608.105 165.914 607.775 166.017C607.445 166.123 607.097 166.176 606.73 166.176ZM612.656 166.176C612.047 166.176 611.501 166.046 611.017 165.785C610.537 165.521 610.155 165.164 609.873 164.713C609.591 164.262 609.45 163.752 609.45 163.184C609.45 162.766 609.528 162.375 609.686 162.012C609.847 161.649 610.071 161.332 610.357 161.061C610.643 160.786 610.975 160.573 611.353 160.423C611.73 160.269 612.139 160.192 612.579 160.192C613.166 160.192 613.679 160.315 614.119 160.56C614.563 160.802 614.907 161.14 615.153 161.572C615.402 162.005 615.527 162.509 615.527 163.085C615.527 163.133 615.525 163.175 615.522 163.211C615.522 163.244 615.516 163.309 615.505 163.404H611.188C611.188 163.69 611.252 163.939 611.38 164.152C611.512 164.365 611.695 164.531 611.93 164.652C612.165 164.77 612.438 164.828 612.75 164.828C613.043 164.828 613.301 164.772 613.525 164.658C613.752 164.544 613.971 164.363 614.18 164.113L615.395 164.724C615.131 165.179 614.757 165.534 614.273 165.791C613.789 166.048 613.25 166.176 612.656 166.176ZM611.248 162.469H613.866C613.829 162.253 613.751 162.066 613.63 161.908C613.512 161.75 613.362 161.629 613.179 161.545C612.995 161.461 612.788 161.418 612.557 161.418C612.311 161.418 612.095 161.461 611.908 161.545C611.721 161.629 611.571 161.75 611.457 161.908C611.343 162.066 611.274 162.253 611.248 162.469Z" fill="black"/>
<path d="M306.043 214.922C305.448 214.346 304.499 214.361 303.922 214.957L294.532 224.655C293.955 225.25 293.971 226.2 294.566 226.776C295.161 227.352 296.111 227.337 296.687 226.742L305.034 218.121L313.655 226.468C314.25 227.045 315.2 227.029 315.776 226.434C316.352 225.839 316.337 224.889 315.742 224.313L306.043 214.922ZM307 246.984L306.5 215.976L303.5 216.024L304 247.032L307 246.984Z" fill="black"/>
<path d="M336.939 247.061C337.525 247.646 338.475 247.646 339.061 247.061L348.607 237.515C349.192 236.929 349.192 235.979 348.607 235.393C348.021 234.808 347.071 234.808 346.485 235.393L338 243.879L329.515 235.393C328.929 234.808 327.979 234.808 327.393 235.393C326.808 235.979 326.808 236.929 327.393 237.515L336.939 247.061ZM336.5 215V246H339.5V215H336.5Z" fill="black"/>
<path d="M177.061 165.061C177.646 164.475 177.646 163.525 177.061 162.939L167.515 153.393C166.929 152.808 165.979 152.808 165.393 153.393C164.808 153.979 164.808 154.929 165.393 155.515L173.879 164L165.393 172.485C164.808 173.071 164.808 174.021 165.393 174.607C165.979 175.192 166.929 175.192 167.515 174.607L177.061 165.061ZM122 165.5H176V162.5H122V165.5Z" fill="black"/>
<path d="M513.061 165.061C513.646 164.475 513.646 163.525 513.061 162.939L503.515 153.393C502.929 152.808 501.979 152.808 501.393 153.393C500.808 153.979 500.808 154.929 501.393 155.515L509.879 164L501.393 172.485C500.808 173.071 500.808 174.021 501.393 174.607C501.979 175.192 502.929 175.192 503.515 174.607L513.061 165.061ZM458 165.5H512V162.5H458V165.5Z" fill="black"/>
</svg>
