<svg width="322" height="194" viewBox="0 0 322 194" fill="none" xmlns="http://www.w3.org/2000/svg">
<g clip-path="url(#clip0_633_614)">
<path fill-rule="evenodd" clip-rule="evenodd" d="M85.5598 102.256H182.415C183.719 102.256 184.779 103.317 184.779 104.621V171.442C184.779 172.746 183.719 173.807 182.415 173.807H85.5598C84.2561 173.807 83.1953 172.746 83.1953 171.442V104.621C83.1953 103.317 84.2561 102.256 85.5598 102.256Z" fill="#0D68BE"/>
<path fill-rule="evenodd" clip-rule="evenodd" d="M90.4256 108.111H177.539C178.025 108.111 178.422 108.508 178.422 108.993V167.069C178.422 167.555 178.025 167.952 177.539 167.952H90.4256C89.9397 167.952 89.543 167.555 89.543 167.069V108.993C89.543 108.508 89.9397 108.111 90.4256 108.111Z" fill="#E9E5F6"/>
<path fill-rule="evenodd" clip-rule="evenodd" d="M122.281 173.806H145.683V191.248H122.281V173.806Z" fill="#0A4E8F"/>
<path fill-rule="evenodd" clip-rule="evenodd" d="M108.371 181.977H159.604C160.875 181.977 161.92 183.022 161.92 184.293V189.597C161.92 190.868 160.875 191.913 159.604 191.913H108.371C107.099 191.913 106.055 190.868 106.055 189.597V184.293C106.055 183.014 107.099 181.977 108.371 181.977Z" fill="#0D68BE"/>
<path fill-rule="evenodd" clip-rule="evenodd" d="M190.093 95.6323H234.734C236.305 95.6323 237.585 96.9117 237.585 98.4827V189.062C237.585 190.633 236.305 191.912 234.734 191.912H190.093C188.522 191.912 187.242 190.633 187.242 189.062V98.4827C187.242 96.9117 188.522 95.6323 190.093 95.6323Z" fill="#0A4E8F"/>
<path fill-rule="evenodd" clip-rule="evenodd" d="M189.891 106.564H234.937V131.189H189.891V106.564Z" fill="#0D68BE"/>
<path fill-rule="evenodd" clip-rule="evenodd" d="M189.891 132.727H234.937V157.352H189.891V132.727Z" fill="#0D68BE"/>
<path fill-rule="evenodd" clip-rule="evenodd" d="M189.793 158.947H235.034V186.495C235.034 187.904 233.884 189.054 232.475 189.054H192.36C190.951 189.054 189.801 187.904 189.801 186.495V158.947H189.793Z" fill="#0D68BE"/>
<path fill-rule="evenodd" clip-rule="evenodd" d="M201.703 128.096H223.121C223.728 128.096 224.222 128.59 224.222 129.197V134.72C224.222 135.327 223.728 135.821 223.121 135.821H201.703C201.096 135.821 200.602 135.327 200.602 134.72V129.197C200.602 128.59 201.096 128.096 201.703 128.096Z" fill="#33AEFF"/>
<path fill-rule="evenodd" clip-rule="evenodd" d="M201.703 154.259H223.121C223.728 154.259 224.222 154.753 224.222 155.36V160.883C224.222 161.49 223.728 161.984 223.121 161.984H201.703C201.096 161.984 200.602 161.49 200.602 160.883V155.36C200.602 154.753 201.096 154.259 201.703 154.259Z" fill="#33AEFF"/>
<path fill-rule="evenodd" clip-rule="evenodd" d="M212.409 169.58C214.847 169.58 216.822 171.555 216.822 173.993C216.822 176.43 214.847 178.406 212.409 178.406C209.972 178.406 207.996 176.43 207.996 173.993C207.996 171.555 209.972 169.58 212.409 169.58Z" fill="#33AEFF"/>
<path fill-rule="evenodd" clip-rule="evenodd" d="M212.409 170.495C214.344 170.495 215.915 172.066 215.915 174.001C215.915 175.936 214.344 177.507 212.409 177.507C210.473 177.507 208.902 175.936 208.902 174.001C208.902 172.066 210.473 170.495 212.409 170.495Z" fill="#0A4E8F"/>
<path fill-rule="evenodd" clip-rule="evenodd" d="M280.309 73.1133H296.82V91.1304H280.309V74.7247V73.1133Z" fill="#DCA700"/>
<path fill-rule="evenodd" clip-rule="evenodd" d="M297.126 75.3804V79.6073C297.126 79.9474 296.624 80.1337 296.365 80.2228C295.79 80.4171 295.134 80.5305 294.535 80.6115C293.644 80.741 292.745 80.822 291.846 80.8706C290.753 80.9354 289.66 80.9677 288.567 80.9677C287.474 80.9677 286.381 80.9354 285.287 80.8706C284.389 80.8139 283.49 80.741 282.599 80.6115C282 80.5224 281.344 80.4171 280.769 80.2228C280.51 80.1337 280.008 79.9474 280.008 79.6073V75.3804C280.008 75.2994 280.073 75.2266 280.162 75.2266C280.251 75.2266 280.316 75.2913 280.316 75.3804C280.316 75.5019 280.785 75.68 280.874 75.7124C281.425 75.8987 282.073 76.012 282.648 76.093C283.53 76.2226 284.421 76.2954 285.304 76.3521C286.389 76.4169 287.482 76.4493 288.567 76.4493C289.652 76.4493 290.745 76.4169 291.83 76.3521C292.721 76.2954 293.612 76.2226 294.486 76.093C295.061 76.012 295.709 75.8987 296.26 75.7124C296.349 75.68 296.818 75.51 296.818 75.3804C296.818 75.2994 296.883 75.2266 296.972 75.2266C297.061 75.2266 297.126 75.2913 297.126 75.3804Z" fill="#F0C419"/>
<path fill-rule="evenodd" clip-rule="evenodd" d="M297.126 82.045V86.2719C297.126 86.612 296.624 86.7982 296.365 86.8873C295.79 87.0817 295.134 87.195 294.535 87.276C293.644 87.4056 292.745 87.4865 291.846 87.5351C290.753 87.5999 289.66 87.6323 288.567 87.6323C287.474 87.6323 286.381 87.5999 285.287 87.5351C284.389 87.4784 283.49 87.4056 282.599 87.276C282 87.1869 281.344 87.0817 280.769 86.8873C280.51 86.7982 280.008 86.612 280.008 86.2719V82.045C280.008 81.964 280.073 81.8911 280.162 81.8911C280.251 81.8911 280.316 81.9559 280.316 82.045C280.316 82.1664 280.785 82.3446 280.874 82.377C281.425 82.5632 282.073 82.6766 282.648 82.7576C283.53 82.8871 284.421 82.96 285.304 83.0167C286.389 83.0815 287.482 83.1138 288.567 83.1138C289.652 83.1138 290.745 83.0815 291.83 83.0167C292.721 82.96 293.612 82.8871 294.486 82.7576C295.061 82.6766 295.709 82.5632 296.26 82.377C296.349 82.3446 296.818 82.1745 296.818 82.045C296.818 81.964 296.883 81.8911 296.972 81.8911C297.061 81.8911 297.126 81.9559 297.126 82.045Z" fill="#F0C419"/>
<path fill-rule="evenodd" clip-rule="evenodd" d="M297.126 88.709V92.936C297.126 93.2761 296.624 93.4623 296.365 93.5514C295.79 93.7457 295.134 93.8591 294.535 93.9401C293.644 94.0696 292.745 94.1506 291.846 94.1992C290.753 94.264 289.66 94.2964 288.567 94.2964C287.474 94.2964 286.381 94.264 285.287 94.1992C284.389 94.1425 283.49 94.0696 282.599 93.9401C282 93.851 281.344 93.7457 280.769 93.5514C280.51 93.4623 280.008 93.2761 280.008 92.936V88.709C280.008 88.6281 280.073 88.5552 280.162 88.5552C280.251 88.5552 280.316 88.62 280.316 88.709C280.316 88.8305 280.785 89.0086 280.874 89.041C281.425 89.2273 282.073 89.3406 282.648 89.4216C283.53 89.5512 284.421 89.6241 285.304 89.6807C286.389 89.7455 287.482 89.7779 288.567 89.7779C289.652 89.7779 290.745 89.7455 291.83 89.6807C292.721 89.6241 293.612 89.5512 294.486 89.4216C295.061 89.3406 295.709 89.2273 296.26 89.041C296.349 89.0086 296.818 88.8386 296.818 88.709C296.818 88.6281 296.883 88.5552 296.972 88.5552C297.061 88.5552 297.126 88.62 297.126 88.709Z" fill="#F0C419"/>
<path fill-rule="evenodd" clip-rule="evenodd" d="M288.568 71.9229C293.127 71.9229 296.819 72.4573 296.819 73.1132C296.819 73.7691 293.127 74.3035 288.568 74.3035C284.009 74.3035 280.316 73.7691 280.316 73.1132C280.316 72.4573 284.009 71.9229 288.568 71.9229Z" fill="#FFD800"/>
<path fill-rule="evenodd" clip-rule="evenodd" d="M72.2224 26.7222L84.8708 27.3457L84.4902 30.8357L74.9594 30.2203L73.1536 39.5082L63.6228 38.9009L61.817 48.1888L48.707 47.3467L49.0633 43.808L59.0071 44.5773L60.9101 35.3056L70.3437 35.9048L72.2224 26.7222Z" fill="#EBC800"/>
<path fill-rule="evenodd" clip-rule="evenodd" d="M155.302 96.6932L146.84 89.9236L148.848 87.6887L155.164 92.8954L161.067 87.3567L167.375 92.5553L173.287 87.0166L181.959 94.1749L179.935 96.4584L173.432 90.9358L167.448 96.4098L161.213 91.2678L155.302 96.6932Z" fill="#F7E041"/>
<path fill-rule="evenodd" clip-rule="evenodd" d="M304.955 104.143L307.555 106.742L309.296 105.86C309.717 105.649 310.227 105.787 310.478 106.192C311.385 107.641 312.041 109.228 312.429 110.896C312.535 111.358 312.276 111.82 311.822 111.965L309.968 112.564V116.241L311.822 116.84C312.276 116.986 312.535 117.447 312.429 117.917C312.041 119.585 311.385 121.172 310.478 122.622C310.227 123.027 309.717 123.164 309.296 122.954L307.555 122.071L304.955 124.67L305.838 126.411C306.057 126.832 305.911 127.351 305.506 127.602C304.056 128.509 302.469 129.165 300.801 129.553C300.34 129.658 299.878 129.399 299.732 128.946L299.125 127.092H295.449L294.85 128.946C294.704 129.399 294.242 129.658 293.781 129.553C292.113 129.165 290.525 128.509 289.076 127.602C288.671 127.351 288.533 126.84 288.744 126.419L289.627 124.678L287.027 122.079L285.286 122.962C284.865 123.18 284.347 123.035 284.096 122.63C283.189 121.18 282.533 119.593 282.144 117.925C282.039 117.464 282.298 117.002 282.752 116.856L284.606 116.249V112.573L282.752 111.965C282.298 111.82 282.039 111.358 282.144 110.888C282.533 109.22 283.189 107.633 284.096 106.184C284.347 105.779 284.865 105.641 285.286 105.852L287.019 106.734L289.619 104.135L288.736 102.394C288.525 101.973 288.663 101.463 289.068 101.212C290.517 100.305 292.104 99.6488 293.773 99.2602C294.234 99.1549 294.696 99.414 294.85 99.8675L295.449 101.722H299.125L299.724 99.8675C299.87 99.414 300.332 99.1549 300.793 99.2602C302.461 99.6488 304.048 100.305 305.498 101.212C305.903 101.463 306.04 101.973 305.83 102.402L304.947 104.143H304.955ZM297.295 107.382C301.174 107.382 304.316 110.524 304.316 114.403C304.316 118.281 301.174 121.423 297.295 121.423C293.416 121.423 290.274 118.281 290.274 114.403C290.274 110.524 293.416 107.382 297.295 107.382Z" fill="#9D4EC5"/>
<path fill-rule="evenodd" clip-rule="evenodd" d="M125.819 53.9542L127.746 55.8815L129.034 55.2256C129.35 55.0636 129.722 55.1689 129.908 55.4685C130.581 56.5374 131.066 57.7196 131.35 58.9504C131.431 59.2905 131.236 59.6387 130.896 59.744L129.528 60.1894V62.9102L130.896 63.3555C131.228 63.4608 131.423 63.809 131.35 64.1491C131.066 65.3799 130.572 66.5541 129.908 67.631C129.722 67.9306 129.342 68.0359 129.034 67.874L127.746 67.2181L125.819 69.1453L126.475 70.4328C126.637 70.7486 126.532 71.1292 126.232 71.3073C125.163 71.9794 123.981 72.4653 122.75 72.7487C122.41 72.8297 122.062 72.6353 121.957 72.3033L121.511 70.9268H118.79L118.345 72.3033C118.24 72.6353 117.892 72.8297 117.552 72.7487C116.321 72.4653 115.147 71.9713 114.07 71.3073C113.77 71.1211 113.665 70.7405 113.827 70.4328L114.483 69.1453L112.555 67.2181L111.268 67.874C110.952 68.0359 110.571 67.9306 110.393 67.631C109.721 66.5622 109.235 65.3799 108.952 64.1491C108.871 63.809 109.065 63.4608 109.397 63.3555L110.774 62.9102V60.1894L109.397 59.744C109.065 59.6387 108.871 59.2905 108.952 58.9504C109.235 57.7196 109.729 56.5455 110.393 55.4685C110.58 55.1689 110.96 55.0636 111.276 55.2256L112.563 55.8815L114.491 53.9542L113.835 52.6667C113.673 52.3509 113.778 51.9784 114.078 51.7922C115.147 51.1201 116.329 50.6342 117.56 50.3508C117.9 50.2698 118.248 50.4642 118.353 50.8043L118.799 52.1728H121.519L121.965 50.8043C122.07 50.4723 122.418 50.2779 122.758 50.3508C123.989 50.6342 125.163 51.1201 126.24 51.7922C126.54 51.9784 126.645 52.359 126.483 52.6667L125.827 53.9542H125.819ZM120.151 56.3511C123.017 56.3511 125.35 58.6751 125.35 61.5498C125.35 64.4244 123.026 66.7484 120.151 66.7484C117.276 66.7484 114.952 64.4244 114.952 61.5498C114.952 58.6751 117.276 56.3511 120.151 56.3511Z" fill="#0197F8"/>
<path fill-rule="evenodd" clip-rule="evenodd" d="M153.911 73.3315C151.652 73.3315 149.781 75.1049 149.668 77.3641C149.668 77.3803 149.668 77.3965 149.684 77.4127C149.7 77.4289 149.708 77.4289 149.733 77.4289H158.089C158.089 77.4289 158.122 77.4289 158.138 77.4127C158.154 77.3965 158.154 77.3803 158.154 77.3641C158.041 75.1049 156.178 73.3315 153.919 73.3315H153.911Z" fill="#E9E5F6"/>
<path fill-rule="evenodd" clip-rule="evenodd" d="M156.091 77.3643H151.727V81.5426C151.727 82.4738 152.488 83.235 153.419 83.235H154.439C155.346 83.235 156.091 82.49 156.091 81.5831V77.3643Z" fill="#D7D1EB"/>
<path fill-rule="evenodd" clip-rule="evenodd" d="M156.226 79.2993H151.586C151.351 79.2993 151.148 79.4937 151.148 79.7285C151.148 79.9714 151.343 80.1658 151.586 80.1658H156.226C156.46 80.1658 156.663 79.9714 156.663 79.7366C156.663 79.4937 156.469 79.2993 156.226 79.2993Z" fill="#E9E5F6"/>
<path fill-rule="evenodd" clip-rule="evenodd" d="M156.226 77.9473H151.586C151.351 77.9473 151.148 78.1416 151.148 78.3764C151.148 78.6113 151.343 78.8137 151.586 78.8137H156.226C156.46 78.8137 156.663 78.6194 156.663 78.3845C156.663 78.1416 156.469 77.9473 156.226 77.9473Z" fill="#E9E5F6"/>
<path fill-rule="evenodd" clip-rule="evenodd" d="M156.226 80.6519H151.586C151.351 80.6519 151.148 80.8462 151.148 81.081C151.148 81.3159 151.343 81.5183 151.586 81.5183H156.226C156.46 81.5183 156.663 81.324 156.663 81.0891C156.663 80.8462 156.469 80.6519 156.226 80.6519Z" fill="#E9E5F6"/>
<path fill-rule="evenodd" clip-rule="evenodd" d="M140.613 71.1047C139.018 69.5095 136.443 69.4366 134.766 70.959C134.75 70.9752 134.742 70.9833 134.742 71.0076C134.742 71.0238 134.742 71.04 134.758 71.0561L140.662 76.9674C140.662 76.9674 140.686 76.9836 140.71 76.9836C140.726 76.9836 140.742 76.9836 140.759 76.9593C142.273 75.2831 142.208 72.7081 140.613 71.1128V71.1047Z" fill="#E9E5F6"/>
<path fill-rule="evenodd" clip-rule="evenodd" d="M139.302 75.5017L136.217 72.4165L133.261 75.3721C132.606 76.028 132.606 77.105 133.261 77.7609L133.982 78.4816C134.622 79.1213 135.675 79.1213 136.314 78.4816L139.294 75.5017H139.302Z" fill="#D7D1EB"/>
<path fill-rule="evenodd" clip-rule="evenodd" d="M138.03 76.9676L134.751 73.6881C134.581 73.518 134.305 73.518 134.135 73.6881C133.965 73.8581 133.965 74.1335 134.135 74.3035L137.415 77.583C137.585 77.7531 137.86 77.7531 138.03 77.583C138.2 77.413 138.2 77.1377 138.03 76.9676Z" fill="#E9E5F6"/>
<path fill-rule="evenodd" clip-rule="evenodd" d="M138.987 76.012L135.708 72.7325C135.538 72.5625 135.262 72.5625 135.092 72.7325C134.922 72.9026 134.922 73.1779 135.092 73.3479L138.372 76.6274C138.542 76.7975 138.817 76.7975 138.987 76.6274C139.157 76.4574 139.157 76.1821 138.987 76.012Z" fill="#E9E5F6"/>
<path fill-rule="evenodd" clip-rule="evenodd" d="M137.077 77.9232L133.798 74.6437C133.628 74.4736 133.352 74.4736 133.182 74.6437C133.012 74.8137 133.012 75.089 133.182 75.2591L136.462 78.5386C136.632 78.7086 136.907 78.7086 137.077 78.5386C137.247 78.3685 137.247 78.0932 137.077 77.9232Z" fill="#E9E5F6"/>
<path fill-rule="evenodd" clip-rule="evenodd" d="M99.1286 181.871C97.5333 180.276 94.9583 180.203 93.2821 181.726C93.2659 181.734 93.2578 181.75 93.2578 181.774C93.2578 181.79 93.2578 181.807 93.274 181.823L99.1771 187.734C99.1771 187.734 99.2095 187.75 99.2257 187.75C99.2419 187.75 99.2581 187.75 99.2743 187.726C100.789 186.05 100.724 183.475 99.1286 181.879V181.871Z" fill="#E9E5F6"/>
<path fill-rule="evenodd" clip-rule="evenodd" d="M97.8179 186.268L94.7327 183.183L91.7771 186.139C91.1212 186.795 91.1212 187.872 91.7771 188.528L92.4978 189.248C93.1375 189.888 94.1902 189.888 94.8299 189.248L97.8098 186.268H97.8179Z" fill="#D7D1EB"/>
<path fill-rule="evenodd" clip-rule="evenodd" d="M96.5459 187.734L93.2664 184.455C93.0963 184.285 92.821 184.285 92.651 184.455C92.4809 184.625 92.4809 184.9 92.651 185.07L95.9305 188.35C96.1005 188.52 96.3759 188.52 96.5459 188.35C96.716 188.18 96.716 187.904 96.5459 187.734Z" fill="#E9E5F6"/>
<path fill-rule="evenodd" clip-rule="evenodd" d="M97.5107 186.77L94.2312 183.491C94.0612 183.321 93.7859 183.321 93.6158 183.491C93.4458 183.661 93.4458 183.936 93.6158 184.106L96.8953 187.386C97.0654 187.556 97.3407 187.556 97.5107 187.386C97.6808 187.216 97.6808 186.94 97.5107 186.77Z" fill="#E9E5F6"/>
<path fill-rule="evenodd" clip-rule="evenodd" d="M95.5928 188.689L92.3133 185.41C92.1432 185.24 91.8679 185.24 91.6978 185.41C91.5278 185.58 91.5278 185.855 91.6978 186.025L94.9774 189.305C95.1474 189.475 95.4227 189.475 95.5928 189.305C95.7628 189.135 95.7628 188.859 95.5928 188.689Z" fill="#E9E5F6"/>
<path fill-rule="evenodd" clip-rule="evenodd" d="M32.1653 107.803C30.5701 109.398 30.4972 111.974 32.0195 113.65C32.0276 113.666 32.0438 113.674 32.0681 113.674C32.0843 113.674 32.1005 113.674 32.1167 113.658L38.0279 107.755C38.0279 107.755 38.0441 107.722 38.0441 107.706C38.0441 107.69 38.0441 107.674 38.0198 107.657C36.3436 106.143 33.7686 106.208 32.1734 107.803H32.1653Z" fill="#E9E5F6"/>
<path fill-rule="evenodd" clip-rule="evenodd" d="M36.5539 109.115L33.4688 112.2L36.4244 115.156C37.0803 115.811 38.1572 115.811 38.8131 115.156L39.5338 114.435C40.1735 113.795 40.1735 112.742 39.5338 112.103L36.5539 109.123V109.115Z" fill="#D7D1EB"/>
<path fill-rule="evenodd" clip-rule="evenodd" d="M38.0203 110.386L34.7408 113.666C34.5708 113.836 34.5708 114.111 34.7408 114.281C34.9109 114.451 35.1862 114.451 35.3562 114.281L38.6357 111.002C38.8058 110.832 38.8058 110.556 38.6357 110.386C38.4657 110.216 38.1904 110.216 38.0203 110.386Z" fill="#E9E5F6"/>
<path fill-rule="evenodd" clip-rule="evenodd" d="M37.0633 109.431L33.7838 112.71C33.6137 112.88 33.6137 113.156 33.7838 113.326C33.9538 113.496 34.2292 113.496 34.3992 113.326L37.6787 110.046C37.8488 109.876 37.8488 109.601 37.6787 109.431C37.5087 109.261 37.2334 109.261 37.0633 109.431Z" fill="#E9E5F6"/>
<path fill-rule="evenodd" clip-rule="evenodd" d="M38.9735 111.35L35.6939 114.629C35.5239 114.799 35.5239 115.075 35.6939 115.245C35.864 115.415 36.1393 115.415 36.3094 115.245L39.5889 111.965C39.7589 111.795 39.7589 111.52 39.5889 111.35C39.4188 111.18 39.1435 111.18 38.9735 111.35Z" fill="#E9E5F6"/>
<path fill-rule="evenodd" clip-rule="evenodd" d="M50.0752 100.094C47.8159 100.094 45.9454 101.868 45.832 104.127C45.832 104.143 45.832 104.159 45.8482 104.175C45.8644 104.192 45.8725 104.192 45.8968 104.192H54.2535C54.2535 104.192 54.2859 104.192 54.3021 104.175C54.3183 104.159 54.3183 104.143 54.3183 104.127C54.2049 101.868 52.3425 100.094 50.0833 100.094H50.0752Z" fill="#E9E5F6"/>
<path fill-rule="evenodd" clip-rule="evenodd" d="M52.2552 104.127H47.8906V108.305C47.8906 109.237 48.6518 109.998 49.583 109.998H50.6033C51.5102 109.998 52.2552 109.253 52.2552 108.346V104.127Z" fill="#D7D1EB"/>
<path fill-rule="evenodd" clip-rule="evenodd" d="M52.3897 106.062H47.7498C47.5149 106.062 47.3125 106.256 47.3125 106.491C47.3125 106.734 47.5068 106.928 47.7498 106.928H52.3897C52.6245 106.928 52.8269 106.734 52.8269 106.499C52.8269 106.256 52.6326 106.062 52.3897 106.062Z" fill="#E9E5F6"/>
<path fill-rule="evenodd" clip-rule="evenodd" d="M52.3897 104.71H47.7498C47.5149 104.71 47.3125 104.904 47.3125 105.139C47.3125 105.374 47.5068 105.576 47.7498 105.576H52.3897C52.6245 105.576 52.8269 105.382 52.8269 105.147C52.8269 104.904 52.6326 104.71 52.3897 104.71Z" fill="#E9E5F6"/>
<path fill-rule="evenodd" clip-rule="evenodd" d="M52.3897 107.415H47.7498C47.5149 107.415 47.3125 107.609 47.3125 107.844C47.3125 108.079 47.5068 108.281 47.7498 108.281H52.3897C52.6245 108.281 52.8269 108.087 52.8269 107.852C52.8269 107.609 52.6326 107.415 52.3897 107.415Z" fill="#E9E5F6"/>
<path fill-rule="evenodd" clip-rule="evenodd" d="M21.2864 181.022C19.6911 182.617 19.6183 185.192 21.1406 186.868C21.1487 186.884 21.1649 186.892 21.1892 186.892C21.2054 186.892 21.2216 186.892 21.2378 186.876L27.149 180.973C27.149 180.973 27.1652 180.941 27.1652 180.924C27.1652 180.908 27.1652 180.892 27.1409 180.876C25.4647 179.362 22.8897 179.426 21.2945 181.022H21.2864Z" fill="#E9E5F6"/>
<path fill-rule="evenodd" clip-rule="evenodd" d="M25.675 182.333L22.5898 185.419L25.5455 188.374C26.2014 189.03 27.2783 189.03 27.9342 188.374L28.6549 187.654C29.2946 187.014 29.2946 185.961 28.6549 185.322L25.675 182.342V182.333Z" fill="#D7D1EB"/>
<path fill-rule="evenodd" clip-rule="evenodd" d="M27.1414 183.605L23.8619 186.884C23.6919 187.054 23.6919 187.329 23.8619 187.5C24.032 187.67 24.3073 187.67 24.4773 187.5L27.7568 184.22C27.9269 184.05 27.9269 183.775 27.7568 183.605C27.5868 183.435 27.3115 183.435 27.1414 183.605Z" fill="#E9E5F6"/>
<path fill-rule="evenodd" clip-rule="evenodd" d="M26.1844 182.649L22.9049 185.929C22.7348 186.099 22.7348 186.374 22.9049 186.544C23.0749 186.714 23.3502 186.714 23.5203 186.544L26.7998 183.264C26.9699 183.094 26.9699 182.819 26.7998 182.649C26.6298 182.479 26.3544 182.479 26.1844 182.649Z" fill="#E9E5F6"/>
<path fill-rule="evenodd" clip-rule="evenodd" d="M28.0946 184.56L24.815 187.84C24.645 188.01 24.645 188.285 24.815 188.455C24.9851 188.625 25.2604 188.625 25.4305 188.455L28.71 185.176C28.88 185.006 28.88 184.73 28.71 184.56C28.5399 184.39 28.2646 184.39 28.0946 184.56Z" fill="#E9E5F6"/>
<path fill-rule="evenodd" clip-rule="evenodd" d="M155.441 64.5537C155.441 66.8129 157.215 68.6834 159.474 68.7968C159.49 68.7968 159.506 68.7968 159.523 68.7806C159.539 68.7644 159.539 68.7563 159.539 68.732V60.3753C159.539 60.3753 159.539 60.3429 159.523 60.3267C159.506 60.3105 159.49 60.3105 159.474 60.3105C157.215 60.4239 155.441 62.2864 155.441 64.5456V64.5537Z" fill="#E9E5F6"/>
<path fill-rule="evenodd" clip-rule="evenodd" d="M159.473 62.3755V66.7401H163.651C164.582 66.7401 165.343 65.9789 165.343 65.0477V64.0274C165.343 63.1205 164.598 62.3755 163.691 62.3755H159.473Z" fill="#D7D1EB"/>
<path fill-rule="evenodd" clip-rule="evenodd" d="M161.41 62.2376V66.8775C161.41 67.1123 161.604 67.3147 161.839 67.3147C162.074 67.3147 162.277 67.1204 162.277 66.8775V62.2376C162.277 62.0027 162.082 61.8003 161.847 61.8003C161.613 61.8003 161.41 61.9946 161.41 62.2376Z" fill="#E9E5F6"/>
<path fill-rule="evenodd" clip-rule="evenodd" d="M160.059 62.2376V66.8775C160.059 67.1123 160.253 67.3147 160.488 67.3147C160.723 67.3147 160.925 67.1204 160.925 66.8775V62.2376C160.925 61.9946 160.731 61.8003 160.496 61.8003C160.261 61.8003 160.059 61.9946 160.059 62.2376Z" fill="#E9E5F6"/>
<path fill-rule="evenodd" clip-rule="evenodd" d="M162.762 62.2376V66.8775C162.762 67.1123 162.956 67.3147 163.191 67.3147C163.426 67.3147 163.628 67.1204 163.628 66.8775V62.2376C163.628 61.9946 163.434 61.8003 163.199 61.8003C162.964 61.8003 162.762 61.9946 162.762 62.2376Z" fill="#E9E5F6"/>
<path fill-rule="evenodd" clip-rule="evenodd" d="M312.098 166.786C312.098 169.045 313.871 170.915 316.13 171.029C316.146 171.029 316.163 171.029 316.179 171.013C316.195 170.996 316.195 170.988 316.195 170.964V162.607C316.195 162.607 316.195 162.575 316.179 162.559C316.163 162.542 316.146 162.542 316.13 162.542C313.871 162.656 312.098 164.518 312.098 166.778V166.786Z" fill="#E9E5F6"/>
<path fill-rule="evenodd" clip-rule="evenodd" d="M316.137 164.607V168.972H320.315C321.246 168.972 322.007 168.211 322.007 167.28V166.259C322.007 165.352 321.262 164.607 320.356 164.607H316.137Z" fill="#D7D1EB"/>
<path fill-rule="evenodd" clip-rule="evenodd" d="M318.074 164.469V169.109C318.074 169.344 318.269 169.547 318.503 169.547C318.738 169.547 318.941 169.352 318.941 169.109V164.469C318.941 164.235 318.746 164.032 318.511 164.032C318.277 164.032 318.074 164.227 318.074 164.469Z" fill="#E9E5F6"/>
<path fill-rule="evenodd" clip-rule="evenodd" d="M316.715 164.469V169.109C316.715 169.344 316.909 169.547 317.144 169.547C317.379 169.547 317.581 169.352 317.581 169.109V164.469C317.581 164.235 317.387 164.032 317.152 164.032C316.917 164.032 316.715 164.227 316.715 164.469Z" fill="#E9E5F6"/>
<path fill-rule="evenodd" clip-rule="evenodd" d="M319.426 164.469V169.109C319.426 169.344 319.62 169.547 319.855 169.547C320.09 169.547 320.292 169.352 320.292 169.109V164.469C320.292 164.235 320.098 164.032 319.863 164.032C319.628 164.032 319.426 164.227 319.426 164.469Z" fill="#E9E5F6"/>
<path fill-rule="evenodd" clip-rule="evenodd" d="M250.489 92.4741H267.575C268.255 92.4741 268.814 93.0329 268.814 93.7131V110.799C268.814 111.479 268.255 112.038 267.575 112.038H250.489C249.809 112.038 249.25 111.479 249.25 110.799V93.7131C249.25 93.0329 249.809 92.4741 250.489 92.4741Z" fill="#0D68BE"/>
<path fill-rule="evenodd" clip-rule="evenodd" d="M254.36 97.5839V98.2965C254.36 98.5394 254.166 98.7338 253.923 98.7338H247.332C247.089 98.7338 246.895 98.5394 246.895 98.2965V97.3086C246.895 97.0657 247.089 96.8713 247.332 96.8713H253.648V90.5552C253.648 90.3123 253.842 90.118 254.085 90.118H255.073C255.316 90.118 255.51 90.3123 255.51 90.5552V97.1467C255.51 97.3896 255.316 97.5839 255.073 97.5839H254.36ZM258.539 90.1099H259.527C259.77 90.1099 259.964 90.3042 259.964 90.5471V97.1386C259.964 97.3815 259.77 97.5758 259.527 97.5758H258.539C258.296 97.5758 258.102 97.3815 258.102 97.1386V90.5471C258.102 90.3042 258.304 90.1099 258.539 90.1099ZM262.993 90.1099H263.98C264.223 90.1099 264.418 90.3042 264.418 90.5471V96.8632H270.734C270.977 96.8632 271.171 97.0576 271.171 97.3005V98.2884C271.171 98.5313 270.977 98.7257 270.734 98.7257H264.142C263.899 98.7257 263.705 98.5313 263.705 98.2884V97.5758H262.993C262.75 97.5758 262.555 97.3815 262.555 97.1386V90.5471C262.555 90.3042 262.75 90.1099 262.993 90.1099ZM271.179 101.762V102.75C271.179 102.993 270.985 103.187 270.742 103.187H264.15C263.908 103.187 263.713 102.993 263.713 102.75V101.762C263.713 101.519 263.908 101.325 264.15 101.325H270.742C270.985 101.325 271.179 101.519 271.179 101.762ZM271.179 106.216V107.204C271.179 107.447 270.985 107.641 270.742 107.641H264.426V113.957C264.426 114.2 264.231 114.394 263.989 114.394H263.001C262.758 114.394 262.563 114.2 262.563 113.957V107.366C262.563 107.123 262.758 106.929 263.001 106.929H263.713V106.216C263.713 105.973 263.908 105.779 264.15 105.779H270.742C270.985 105.779 271.179 105.973 271.179 106.216ZM258.539 106.929H259.527C259.77 106.929 259.964 107.123 259.964 107.366V113.957C259.964 114.2 259.77 114.394 259.527 114.394H258.539C258.296 114.394 258.102 114.2 258.102 113.957V107.366C258.102 107.123 258.304 106.929 258.539 106.929ZM254.36 106.929H255.073C255.316 106.929 255.51 107.123 255.51 107.366V113.957C255.51 114.2 255.316 114.394 255.073 114.394H254.085C253.842 114.394 253.648 114.2 253.648 113.957V107.641H247.332C247.089 107.641 246.895 107.447 246.895 107.204V106.216C246.895 105.973 247.089 105.779 247.332 105.779H253.923C254.166 105.779 254.36 105.973 254.36 106.216V106.929ZM254.36 101.762V102.75C254.36 102.993 254.166 103.187 253.923 103.187H247.332C247.089 103.187 246.895 102.993 246.895 102.75V101.762C246.895 101.519 247.089 101.325 247.332 101.325H253.923C254.166 101.325 254.36 101.519 254.36 101.762Z" fill="#FFD800"/>
<path fill-rule="evenodd" clip-rule="evenodd" d="M252.595 94.8955H265.462C265.972 94.8955 266.394 95.3166 266.394 95.8267V108.694C266.394 109.204 265.972 109.625 265.462 109.625H252.595C252.085 109.625 251.664 109.204 251.664 108.694V95.8267C251.664 95.3166 252.085 94.8955 252.595 94.8955Z" fill="#33AEFF"/>
<path fill-rule="evenodd" clip-rule="evenodd" d="M40.658 127.391L43.2087 125.334C46.0995 123.01 50.367 123.472 52.691 126.363L57.4281 132.258C60.3189 135.853 59.744 141.149 56.1486 144.04C52.5533 146.93 47.2575 146.355 44.3667 142.76L39.6296 136.865C37.3056 133.974 37.7671 129.707 40.658 127.383V127.391Z" fill="#E9E5F6"/>
<path d="M42.5394 125.853L41.2461 126.894L46.307 133.184L47.6004 132.143L42.5394 125.853Z" fill="#D7D1EB"/>
<path fill-rule="evenodd" clip-rule="evenodd" d="M43.7934 128.67C44.4007 128.185 45.2915 128.282 45.7773 128.889L49.6803 133.74C50.1662 134.347 50.069 135.238 49.4617 135.723C48.8544 136.209 47.9637 136.112 47.4778 135.505L43.5748 130.654C43.0889 130.047 43.1861 129.156 43.7934 128.67Z" fill="white"/>
<path fill-rule="evenodd" clip-rule="evenodd" d="M52.9977 152.607H59.2733C59.6053 152.607 59.8725 152.834 59.8725 153.109V158.089C59.8725 158.364 59.6053 158.591 59.2733 158.591H52.9977C52.6657 158.591 52.3984 158.364 52.3984 158.089V153.109C52.3984 152.834 52.6657 152.607 52.9977 152.607Z" fill="#E9E5F6"/>
<path fill-rule="evenodd" clip-rule="evenodd" d="M53.625 153.676H55.5198V155.457H53.625V153.676Z" fill="#009652"/>
<path fill-rule="evenodd" clip-rule="evenodd" d="M56.75 153.676H58.6448V155.457H56.75V153.676Z" fill="#009652"/>
<path fill-rule="evenodd" clip-rule="evenodd" d="M51.9876 156.494H60.2795C61.0002 156.494 61.5913 157.085 61.5913 157.805V171.345C61.5913 172.065 61.0002 172.656 60.2795 172.656H51.9876C51.2669 172.656 50.6758 172.065 50.6758 171.345V157.805C50.6758 157.085 51.2669 156.494 51.9876 156.494Z" fill="#A4C639"/>
<path fill-rule="evenodd" clip-rule="evenodd" d="M53.5252 159.708H58.74C59.1935 159.708 59.566 160.081 59.566 160.534V168.608C59.566 169.061 59.1935 169.434 58.74 169.434H53.5252C53.0717 169.434 52.6992 169.061 52.6992 168.608V160.534C52.6992 160.081 53.0717 159.708 53.5252 159.708Z" fill="#009652"/>
<path fill-rule="evenodd" clip-rule="evenodd" d="M181.06 7.38477H183.15V12.0571H181.06C180.785 12.0571 180.566 11.8384 180.566 11.5631V7.87872C180.566 7.6034 180.785 7.38477 181.06 7.38477Z" fill="#A4C639"/>
<path fill-rule="evenodd" clip-rule="evenodd" d="M184.89 2.08105H200.898C202.17 2.08105 203.198 3.10945 203.198 4.38077V15.0534C203.198 16.3247 202.17 17.3531 200.898 17.3531H184.89C183.618 17.3531 182.59 16.3247 182.59 15.0534V4.38077C182.59 3.10945 183.618 2.08105 184.89 2.08105ZM184.946 3.87872H189.627L189.578 15.5959H184.881C184.59 15.5959 184.347 15.353 184.347 15.0615V4.38077C184.347 4.08925 184.639 3.87872 184.938 3.87872H184.946Z" fill="#A4C639"/>
<path fill-rule="evenodd" clip-rule="evenodd" d="M224.021 34.2687C223.543 35.1352 222.474 35.5157 221.543 35.119C220.62 34.7222 220.158 33.6776 220.458 32.7383C220.912 33.1917 221.462 33.5723 222.094 33.8476C222.717 34.1149 223.373 34.2525 224.021 34.2768V34.2687Z" fill="#0A4E8F"/>
<path fill-rule="evenodd" clip-rule="evenodd" d="M233.714 13.6932C233.786 13.7256 233.867 13.7661 233.94 13.8066C234.013 13.8471 234.086 13.8876 234.159 13.92C236.208 15.0293 237.746 16.7703 238.613 18.7947C238.637 18.8676 238.669 18.9324 238.694 18.9972L238.71 19.0295C238.734 19.0943 238.758 19.151 238.783 19.2158L238.799 19.2482C238.823 19.3049 238.839 19.3696 238.864 19.4263C238.864 19.4425 238.872 19.4587 238.88 19.4749C238.896 19.5316 238.92 19.5883 238.936 19.645C238.936 19.6612 238.953 19.6854 238.953 19.7016C238.969 19.7583 238.985 19.8069 239.001 19.8636C239.001 19.8879 239.017 19.9041 239.017 19.9284C239.034 19.9851 239.05 20.0336 239.066 20.0903C239.066 20.1146 239.082 20.1389 239.082 20.1551C239.098 20.2118 239.107 20.2604 239.123 20.3171C239.123 20.3414 239.139 20.3656 239.139 20.3899C239.155 20.4385 239.163 20.4871 239.171 20.5438C239.171 20.5762 239.188 20.6005 239.188 20.6329C239.196 20.6814 239.212 20.73 239.22 20.7786C239.22 20.811 239.228 20.8353 239.236 20.8677C239.244 20.9163 239.252 20.9649 239.26 21.0135C239.26 21.0458 239.268 21.0701 239.277 21.1025C239.285 21.1511 239.293 21.1997 239.301 21.2483C239.301 21.2807 239.309 21.3131 239.317 21.3455C239.317 21.394 239.333 21.4426 239.333 21.4831C239.333 21.5155 239.341 21.5479 239.349 21.5803C239.349 21.6289 239.358 21.6694 239.366 21.7179C239.366 21.7503 239.366 21.7827 239.374 21.8232C239.374 21.8718 239.382 21.9123 239.39 21.9609C239.39 21.9933 239.39 22.0256 239.39 22.0661C239.39 22.1147 239.39 22.1552 239.398 22.2038C239.398 22.2362 239.398 22.2767 239.398 22.3091C239.398 22.3576 239.398 22.3981 239.398 22.4467C239.398 22.4791 239.398 22.5196 239.398 22.552C239.398 22.5925 239.398 22.6411 239.398 22.6816C239.398 22.722 239.398 22.7544 239.398 22.7949C239.398 22.8354 239.398 22.884 239.398 22.9245C239.398 22.965 239.398 22.9974 239.398 23.0378C239.398 23.0783 239.398 23.1269 239.398 23.1674C239.398 23.2079 239.398 23.2403 239.398 23.2808C239.398 23.3213 239.398 23.3698 239.398 23.4103C239.398 23.4508 239.398 23.4832 239.398 23.5237C239.398 23.5642 239.398 23.6128 239.39 23.6533C239.39 23.6937 239.39 23.7342 239.382 23.7747C239.382 23.8152 239.382 23.8557 239.366 23.8962C239.366 23.9367 239.358 23.9772 239.349 24.0177C239.349 24.0581 239.341 24.0986 239.333 24.1391C239.333 24.1796 239.325 24.2201 239.317 24.2606C239.317 24.3011 239.309 24.3416 239.301 24.382C239.301 24.4225 239.285 24.463 239.277 24.5035C239.277 24.544 239.26 24.5845 239.252 24.625C239.252 24.6655 239.236 24.7059 239.228 24.7464C239.228 24.7869 239.212 24.8274 239.204 24.8679C239.196 24.9084 239.188 24.9489 239.179 24.9975C239.171 25.0379 239.163 25.0784 239.155 25.1108C239.147 25.1513 239.131 25.1918 239.123 25.2404C239.115 25.2809 239.107 25.3214 239.09 25.3537C239.082 25.3942 239.066 25.4428 239.058 25.4833C239.05 25.5238 239.034 25.5562 239.026 25.5967C239.009 25.6372 239.001 25.6858 238.985 25.7262C238.977 25.7667 238.961 25.7991 238.953 25.8396C238.936 25.8801 238.92 25.9287 238.912 25.9692C238.904 26.0097 238.888 26.042 238.88 26.0825C238.864 26.1311 238.847 26.1716 238.831 26.2202C238.815 26.2526 238.807 26.285 238.791 26.3174C238.775 26.3659 238.75 26.4145 238.734 26.4712C238.726 26.5036 238.71 26.5279 238.702 26.5603C238.669 26.6413 238.637 26.7222 238.604 26.7951C235.673 33.589 231.932 29.9775 229.527 35.5648C229.187 36.3584 227.567 38.3099 226.774 37.9698L220.798 35.3866L220.061 35.0708C219.267 34.7307 219.575 32.2124 219.923 31.4188C222.336 25.8315 217.146 25.5886 220.069 18.7947C222.28 13.677 228.215 11.3126 233.341 13.5232C233.463 13.5799 233.584 13.6285 233.705 13.6932H233.714Z" fill="#FFDD2C"/>
<path fill-rule="evenodd" clip-rule="evenodd" d="M226.708 24.6975C225.639 24.0416 225.193 23.1914 225.744 21.5962C225.914 21.1103 226.335 20.2115 226.983 20.3329C227.858 20.4868 227.752 22.0658 227.663 22.6731C227.574 23.2643 227.436 23.8635 227.275 24.4627C227.469 24.5599 227.671 24.649 227.898 24.7461L229.007 25.2239C229.194 25.3049 229.38 25.3777 229.55 25.4425C229.874 24.9243 230.214 24.406 230.586 23.9364C230.967 23.4505 232.044 22.2926 232.757 22.8189C233.291 23.2157 232.927 24.1307 232.692 24.5923C231.914 26.0741 230.999 26.3575 229.777 26.0255C229.59 26.3251 229.42 26.6329 229.242 26.9244C228.578 28.0742 227.947 29.2565 227.323 30.4306C226.602 31.8072 225.89 33.1838 225.145 34.5523C225.08 34.6737 224.934 34.7142 224.813 34.6495C224.691 34.5847 224.651 34.4389 224.716 34.3175C225.453 32.949 226.165 31.5724 226.886 30.2039C227.509 29.0216 228.141 27.8394 228.813 26.6814C228.967 26.4142 229.129 26.1389 229.291 25.8717C229.137 25.815 228.975 25.7502 228.813 25.6773L227.712 25.1996C227.509 25.1186 227.323 25.0295 227.145 24.9405C227.056 25.2482 226.975 25.5478 226.886 25.8393C226.505 27.1187 226.076 28.39 225.647 29.6614C225.153 31.1027 224.651 32.536 224.173 33.9774L224.141 34.0664C224.1 34.196 223.963 34.2689 223.833 34.2203C223.703 34.1798 223.631 34.0421 223.679 33.9126C224.165 32.4388 224.683 30.9732 225.177 29.4994C225.606 28.2362 226.036 26.973 226.416 25.6935C226.513 25.3615 226.611 25.0295 226.708 24.6894V24.6975ZM226.837 24.2036C226.975 23.6691 227.096 23.1266 227.177 22.5922C227.242 22.163 227.283 21.6367 227.169 21.2156C227.137 21.1022 227.048 20.835 226.902 20.8107C226.611 20.7621 226.279 21.5638 226.214 21.75C225.768 23.0294 226.06 23.6934 226.837 24.2036ZM230.036 25.5802C230.959 25.7988 231.623 25.5478 232.246 24.3574C232.344 24.1793 232.7 23.3857 232.457 23.2076C232.344 23.1185 232.084 23.24 231.979 23.2967C231.599 23.4991 231.234 23.8959 230.967 24.236C230.635 24.6651 230.327 25.1186 230.028 25.5883L230.036 25.5802Z" fill="#DCA700"/>
<path fill-rule="evenodd" clip-rule="evenodd" d="M220.416 29.9126L230.295 34.1719L227.412 40.8524C226.651 42.6177 224.578 43.4436 222.813 42.6825L219.363 41.1925C217.598 40.4313 216.772 38.3584 217.533 36.5931L220.416 29.9126Z" fill="#D7D1EB"/>
<path fill-rule="evenodd" clip-rule="evenodd" d="M219.088 33.6376L228.49 37.6945C228.959 37.8969 229.17 38.4395 228.967 38.9091C228.765 39.3788 228.222 39.5893 227.753 39.395L218.351 35.3381C217.882 35.1357 217.671 34.5931 217.874 34.1235C218.076 33.6538 218.619 33.4433 219.088 33.6457V33.6376Z" fill="#E9E5F6"/>
<path fill-rule="evenodd" clip-rule="evenodd" d="M220.264 30.9247L229.665 34.9816C230.135 35.184 230.345 35.7266 230.143 36.1962C229.94 36.6659 229.398 36.8764 228.928 36.6821L219.527 32.6252C219.057 32.4228 218.847 31.8802 219.041 31.4106C219.243 30.9409 219.786 30.7304 220.256 30.9328L220.264 30.9247Z" fill="#E9E5F6"/>
<path fill-rule="evenodd" clip-rule="evenodd" d="M217.913 36.3581L227.314 40.415C227.784 40.6174 227.994 41.16 227.792 41.6296C227.589 42.0993 227.047 42.3098 226.577 42.1074L217.176 38.0505C216.706 37.8481 216.496 37.3055 216.698 36.8359C216.9 36.3662 217.443 36.1557 217.913 36.3581Z" fill="#E9E5F6"/>
<path fill-rule="evenodd" clip-rule="evenodd" d="M236.386 6.47817C236.734 6.62392 236.896 7.0288 236.742 7.377L235.22 10.8994C235.074 11.2476 234.669 11.4096 234.321 11.2557C233.973 11.11 233.811 10.7051 233.964 10.3569L235.479 6.83446C235.624 6.48626 236.029 6.32431 236.378 6.47817H236.386Z" fill="#FFDD2C"/>
<path fill-rule="evenodd" clip-rule="evenodd" d="M226.588 5.03677C226.96 4.99628 227.3 5.2635 227.349 5.63599L227.794 9.44185C227.835 9.81434 227.567 10.1544 227.195 10.203C226.822 10.2435 226.482 9.97629 226.434 9.6038L225.988 5.79794C225.948 5.42545 226.215 5.08536 226.588 5.03677Z" fill="#FFDD2C"/>
<path fill-rule="evenodd" clip-rule="evenodd" d="M217.379 8.69683C217.679 8.4701 218.108 8.53488 218.334 8.83449L220.626 11.9116C220.853 12.2112 220.788 12.6404 220.488 12.8671C220.189 13.0938 219.76 13.029 219.533 12.7294L217.241 9.65235C217.015 9.35274 217.079 8.92357 217.379 8.69683Z" fill="#FFDD2C"/>
<path fill-rule="evenodd" clip-rule="evenodd" d="M237.129 35.2247C237.429 34.9979 237.858 35.0627 238.084 35.3623L240.376 38.4394C240.603 38.739 240.538 39.1682 240.238 39.3949C239.939 39.6216 239.51 39.5569 239.283 39.2573L236.991 36.1802C236.765 35.8806 236.829 35.4514 237.129 35.2247Z" fill="#FFDD2C"/>
<path fill-rule="evenodd" clip-rule="evenodd" d="M211.234 16.4707C211.38 16.1225 211.785 15.9605 212.133 16.1144L215.656 17.6286C216.004 17.7744 216.166 18.1793 216.012 18.5275C215.866 18.8757 215.461 19.0376 215.113 18.8838L211.591 17.3695C211.243 17.2238 211.089 16.8189 211.234 16.4707Z" fill="#FFDD2C"/>
<path fill-rule="evenodd" clip-rule="evenodd" d="M241.602 29.5723C241.747 29.2241 242.152 29.0621 242.501 29.216L246.023 30.7383C246.371 30.8841 246.525 31.2889 246.379 31.6371C246.234 31.9853 245.829 32.1473 245.48 31.9934L241.958 30.4792C241.61 30.3334 241.456 29.9285 241.602 29.5803V29.5723Z" fill="#FFDD2C"/>
<path fill-rule="evenodd" clip-rule="evenodd" d="M209.793 26.2687C209.753 25.8962 210.02 25.5561 210.392 25.5075L214.198 25.0622C214.571 25.0217 214.911 25.2889 214.959 25.6614C215 26.0339 214.733 26.374 214.36 26.4226L210.554 26.8679C210.182 26.9084 209.842 26.6412 209.793 26.2687Z" fill="#FFDD2C"/>
<path fill-rule="evenodd" clip-rule="evenodd" d="M242.645 22.4303C242.604 22.0578 242.871 21.7177 243.244 21.6691L247.05 21.2238C247.422 21.1833 247.762 21.4505 247.811 21.823C247.851 22.1955 247.584 22.5356 247.212 22.5842L243.406 23.0295C243.033 23.07 242.693 22.8028 242.645 22.4303Z" fill="#FFDD2C"/>
<path fill-rule="evenodd" clip-rule="evenodd" d="M239.98 15.7257C239.753 15.4261 239.818 14.9888 240.117 14.7702L243.194 12.4786C243.494 12.2518 243.923 12.3166 244.15 12.6162C244.377 12.9158 244.312 13.345 244.012 13.5717L240.935 15.8634C240.635 16.0901 240.206 16.0253 239.98 15.7257Z" fill="#FFDD2C"/>
<path fill-rule="evenodd" clip-rule="evenodd" d="M259.033 77.1938C260.093 77.1938 260.96 78.0603 260.96 79.1211C260.96 80.1819 260.102 81.0483 259.033 81.0483C257.964 81.0483 257.105 80.1819 257.105 79.1211C257.105 78.0603 257.972 77.1938 259.033 77.1938Z" fill="#E9E5F6"/>
<path fill-rule="evenodd" clip-rule="evenodd" d="M249.226 71.7928C251.38 68.4647 255.056 66.4565 259.032 66.4565C263.008 66.4565 266.685 68.4647 268.839 71.7928C269.049 72.1248 268.96 72.5702 268.628 72.7807C268.296 72.9913 267.851 72.9022 267.64 72.5702C267.551 72.4407 267.462 72.303 267.373 72.1815C265.454 69.4931 262.369 67.8898 259.04 67.8898C255.712 67.8898 252.668 69.4769 250.74 72.1248C250.635 72.2706 250.53 72.4164 250.433 72.5702C250.222 72.9022 249.777 72.9994 249.445 72.7807C249.113 72.5702 249.016 72.1248 249.234 71.7928H249.226Z" fill="#E9E5F6"/>
<path fill-rule="evenodd" clip-rule="evenodd" d="M251.329 74.3192C251.645 73.7767 252.018 73.2746 252.431 72.8131C254.099 70.9749 256.48 69.8979 259.022 69.8979C261.565 69.8979 263.986 70.9911 265.654 72.8536C266.051 73.2989 266.415 73.7848 266.723 74.3111C266.925 74.6512 266.804 75.0885 266.464 75.2909C266.124 75.4934 265.686 75.3719 265.484 75.0318C265.411 74.9104 265.338 74.7889 265.257 74.6674C264.788 73.9548 264.205 73.3475 263.549 72.8455C262.269 71.8738 260.69 71.3231 259.022 71.3231C257.354 71.3231 255.807 71.8657 254.536 72.8131C253.872 73.307 253.297 73.9143 252.819 74.6107C252.73 74.7484 252.641 74.8861 252.56 75.0318C252.358 75.3719 251.921 75.4853 251.58 75.2909C251.24 75.0885 251.127 74.6512 251.321 74.3111L251.329 74.3192Z" fill="#E9E5F6"/>
<path fill-rule="evenodd" clip-rule="evenodd" d="M253.567 76.9997C253.859 76.36 254.255 75.7932 254.725 75.3073C255.721 74.287 257.057 73.6392 258.507 73.5096C258.677 73.4934 258.855 73.4854 259.025 73.4854C259.211 73.4854 259.397 73.4934 259.584 73.5096C261.041 73.6473 262.377 74.3032 263.365 75.3397C263.819 75.8175 264.199 76.3762 264.483 76.9916C264.645 77.3479 264.483 77.7771 264.126 77.939C263.77 78.101 263.341 77.939 263.179 77.5827C263.13 77.4775 263.082 77.3803 263.025 77.2831C262.547 76.4086 261.802 75.7284 260.928 75.3235C260.345 75.0563 259.689 74.9105 259.017 74.9105C258.345 74.9105 257.721 75.0482 257.146 75.3073C256.264 75.7041 255.527 76.3681 255.041 77.2264C254.976 77.3398 254.919 77.4613 254.863 77.5746C254.701 77.9309 254.272 78.0929 253.915 77.9309C253.559 77.769 253.397 77.3398 253.559 76.9835L253.567 76.9997Z" fill="#E9E5F6"/>
<path fill-rule="evenodd" clip-rule="evenodd" d="M179.305 30.1552C183.588 29.5317 188.099 26.7542 191.475 24.1387C191.718 23.9525 192.042 23.9525 192.285 24.1387C195.662 26.7542 200.172 29.5317 204.456 30.1552C204.78 30.2038 205.022 30.4791 205.022 30.8111C205.022 37.1839 203.565 44.0587 198.601 48.4638C197.281 49.6299 195.759 50.5773 194.115 51.217C193.467 51.468 192.666 51.7271 191.977 51.8243C191.912 51.8324 191.856 51.8324 191.799 51.8243C191.111 51.7271 190.301 51.468 189.661 51.217C188.018 50.5854 186.495 49.6299 185.175 48.4638C180.211 44.0587 178.754 37.1839 178.754 30.8111C178.754 30.4791 178.989 30.2038 179.321 30.1552H179.305Z" fill="#E9E5F6"/>
<path fill-rule="evenodd" clip-rule="evenodd" d="M179.305 30.1556C183.588 29.5321 188.099 26.7546 191.475 24.1391C191.597 24.042 191.735 24.0015 191.88 24.0015V51.8247C191.88 51.8247 191.824 51.8247 191.791 51.8247C191.103 51.7276 190.293 51.4684 189.654 51.2174C188.01 50.5858 186.487 49.6303 185.167 48.4642C180.204 44.0592 178.746 37.1843 178.746 30.8115C178.746 30.4795 178.981 30.2042 179.313 30.1556H179.305Z" fill="#D7D1EB"/>
<path fill-rule="evenodd" clip-rule="evenodd" d="M191.88 40.528L188.981 43.4269C188.681 43.7347 188.179 43.7347 187.88 43.4269L186.365 41.9127C186.066 41.6131 186.066 41.111 186.365 40.8114L189.264 37.9125L186.365 35.0136C186.066 34.7059 186.066 34.2119 186.365 33.9123L187.88 32.398C188.179 32.0984 188.681 32.0984 188.981 32.398L191.88 35.297V40.5361V40.528Z" fill="#B3B3B3"/>
<path fill-rule="evenodd" clip-rule="evenodd" d="M194.503 37.9125L197.402 40.8114C197.702 41.111 197.702 41.6131 197.402 41.9127L195.888 43.4269C195.588 43.7266 195.086 43.7266 194.787 43.4269L191.888 40.528L188.989 43.4269C188.689 43.7266 188.187 43.7266 187.887 43.4269L186.373 41.9127C186.074 41.6131 186.074 41.111 186.373 40.8114L189.272 37.9125L186.373 35.0136C186.074 34.714 186.074 34.2119 186.373 33.9123L187.887 32.398C188.187 32.0984 188.689 32.0984 188.989 32.398L191.888 35.297L194.787 32.398C195.086 32.0984 195.588 32.0984 195.888 32.398L197.402 33.9123C197.702 34.2119 197.702 34.714 197.402 35.0136L194.503 37.9125Z" fill="#E84C3D"/>
<path fill-rule="evenodd" clip-rule="evenodd" d="M259.641 170.381H288.08C288.825 170.381 289.432 170.988 289.432 171.733V175.328C289.432 176.073 288.825 176.681 288.08 176.681H259.641C258.896 176.681 258.289 176.073 258.289 175.328V171.733C258.289 170.988 258.896 170.381 259.641 170.381Z" fill="#D7D1EB"/>
<path fill-rule="evenodd" clip-rule="evenodd" d="M259.641 182.033H288.08C288.825 182.033 289.432 182.641 289.432 183.385V186.981C289.432 187.726 288.825 188.333 288.08 188.333H259.641C258.896 188.333 258.289 187.726 258.289 186.981V183.385C258.289 182.641 258.896 182.033 259.641 182.033Z" fill="#D7D1EB"/>
<path fill-rule="evenodd" clip-rule="evenodd" d="M6.02662 173.644L6.84448 175.061C7.0955 175.499 6.94974 176.065 6.50438 176.316C6.06711 176.567 5.50028 176.422 5.24925 175.976L4.4314 174.559L3.61354 175.976C3.36252 176.414 2.79569 176.567 2.35842 176.316C1.92115 176.065 1.7673 175.499 2.01832 175.061L2.83618 173.644H1.20047C0.69032 173.644 0.277344 173.231 0.277344 172.721C0.277344 172.211 0.69032 171.798 1.20047 171.798H2.83618L2.01832 170.381C1.7673 169.944 1.91305 169.377 2.35842 169.126C2.79569 168.875 3.36252 169.021 3.61354 169.466L4.4314 170.883L5.24925 169.466C5.50028 169.029 6.06711 168.875 6.50438 169.126C6.94165 169.377 7.0955 169.944 6.84448 170.381L6.02662 171.798H7.66233C8.17248 171.798 8.58545 172.211 8.58545 172.721C8.58545 173.231 8.17248 173.644 7.66233 173.644H6.02662Z" fill="#9D4EC5"/>
<path fill-rule="evenodd" clip-rule="evenodd" d="M16.3821 173.644L17.1999 175.061C17.451 175.499 17.3052 176.065 16.8598 176.316C16.4226 176.567 15.8557 176.422 15.6047 175.976L14.7869 174.559L13.969 175.976C13.718 176.414 13.1512 176.567 12.7139 176.316C12.2766 176.065 12.1228 175.499 12.3738 175.061L13.1916 173.644H11.5559C11.0458 173.644 10.6328 173.231 10.6328 172.721C10.6328 172.211 11.0458 171.798 11.5559 171.798H13.1916L12.3738 170.381C12.1228 169.944 12.2685 169.377 12.7139 169.126C13.1512 168.875 13.718 169.021 13.969 169.466L14.7869 170.883L15.6047 169.466C15.8557 169.029 16.4226 168.875 16.8598 169.126C17.2971 169.377 17.451 169.944 17.1999 170.381L16.3821 171.798H18.0178C18.5279 171.798 18.9409 172.211 18.9409 172.721C18.9409 173.231 18.5279 173.644 18.0178 173.644H16.3821Z" fill="#9D4EC5"/>
<path fill-rule="evenodd" clip-rule="evenodd" d="M26.7571 173.644L27.5749 175.061C27.826 175.499 27.6802 176.065 27.2348 176.316C26.7976 176.567 26.2307 176.422 25.9797 175.976L25.1619 174.559L24.344 175.976C24.093 176.414 23.5262 176.567 23.0889 176.316C22.6516 176.065 22.4978 175.499 22.7488 175.061L23.5666 173.644H21.9309C21.4208 173.644 21.0078 173.231 21.0078 172.721C21.0078 172.211 21.4208 171.798 21.9309 171.798H23.5666L22.7488 170.381C22.4978 169.944 22.6435 169.377 23.0889 169.126C23.5262 168.875 24.093 169.021 24.344 169.466L25.1619 170.883L25.9797 169.466C26.2307 169.029 26.7976 168.875 27.2348 169.126C27.6721 169.377 27.826 169.944 27.5749 170.381L26.7571 171.798H28.3928C28.9029 171.798 29.3159 172.211 29.3159 172.721C29.3159 173.231 28.9029 173.644 28.3928 173.644H26.7571Z" fill="#9D4EC5"/>
<path fill-rule="evenodd" clip-rule="evenodd" d="M37.2532 173.644L38.071 175.061C38.3221 175.499 38.1763 176.065 37.7309 176.316C37.2937 176.567 36.7268 176.422 36.4758 175.976L35.658 174.559L34.8401 175.976C34.5891 176.414 34.0223 176.567 33.585 176.316C33.1477 176.065 32.9939 175.499 33.2449 175.061L34.0627 173.644H32.427C31.9169 173.644 31.5039 173.231 31.5039 172.721C31.5039 172.211 31.9169 171.798 32.427 171.798H34.0627L33.2449 170.381C32.9939 169.944 33.1396 169.377 33.585 169.126C34.0223 168.875 34.5891 169.021 34.8401 169.466L35.658 170.883L36.4758 169.466C36.7268 169.029 37.2937 168.875 37.7309 169.126C38.1682 169.377 38.3221 169.944 38.071 170.381L37.2532 171.798H38.8889C39.399 171.798 39.812 172.211 39.812 172.721C39.812 173.231 39.399 173.644 38.8889 173.644H37.2532Z" fill="#9D4EC5"/>
<path fill-rule="evenodd" clip-rule="evenodd" d="M74.4715 60.0922L79.5325 64.894L74.9331 69.7364L69.8721 64.9345L66.5764 68.4003C66.4954 68.4894 66.382 68.5218 66.2687 68.4894C66.1553 68.4651 66.0662 68.3841 66.0339 68.2707L61.4344 52.6991C61.402 52.5857 61.4344 52.4724 61.5073 52.3914C61.5883 52.3023 61.7016 52.2699 61.815 52.3023L77.5972 56.1001C77.7106 56.1244 77.7996 56.2054 77.832 56.3187C77.8644 56.4321 77.832 56.5454 77.7591 56.6264L74.4634 60.0922H74.4715Z" fill="#E9E5F6"/>
<path fill-rule="evenodd" clip-rule="evenodd" d="M302.615 151.295L291.027 159.53L312.348 154.575L308.34 148.267L321.272 140.388L298.331 144.558L302.615 151.295Z" fill="#F7E041"/>
<path fill-rule="evenodd" clip-rule="evenodd" d="M18.6568 151.295L30.2444 159.53L8.92353 154.575L12.9399 148.267L0 140.388L22.9404 144.558L18.6568 151.295Z" fill="#F7E041"/>
<path fill-rule="evenodd" clip-rule="evenodd" d="M59.056 183.434L63.283 187.321C63.6878 187.694 63.7121 188.317 63.3397 188.714C62.9672 189.119 62.3437 189.143 61.9469 188.771L56.1328 183.434L61.9469 178.098C62.3517 177.726 62.9753 177.758 63.3397 178.155C63.7121 178.56 63.6798 179.183 63.283 179.547L59.056 183.434Z" fill="#00AC65"/>
<path fill-rule="evenodd" clip-rule="evenodd" d="M79.0827 183.434L74.8558 187.321C74.4509 187.694 74.4266 188.317 74.7991 188.714C75.1716 189.119 75.7951 189.143 76.1919 188.771L82.006 183.434L76.1919 178.098C75.787 177.726 75.1635 177.758 74.7991 178.155C74.4266 178.56 74.459 179.183 74.8558 179.547L79.0827 183.434Z" fill="#00AC65"/>
<path fill-rule="evenodd" clip-rule="evenodd" d="M72.7902 177.045C73.2599 177.321 73.4219 177.92 73.1546 178.389L66.7414 189.491C66.466 189.961 65.8668 190.123 65.3972 189.856L65.3486 189.823C64.8789 189.548 64.717 188.949 64.9842 188.479L71.3651 177.426C71.6566 176.924 72.2963 176.754 72.7983 177.045H72.7902Z" fill="#00AC65"/>
<path fill-rule="evenodd" clip-rule="evenodd" d="M46.7711 61.8169C48.423 61.8169 49.913 62.5538 50.909 63.7117C51.9131 62.5457 53.3949 61.8169 55.0468 61.8169C58.0672 61.8169 60.5127 64.2624 60.5127 67.2828C60.5127 70.5299 55.2979 73.777 51.9455 76.7002C51.3462 77.2266 50.4636 77.2266 49.8563 76.7002C46.5039 73.7851 41.2891 70.538 41.2891 67.2828C41.2891 64.2624 43.7345 61.8169 46.7549 61.8169H46.7711Z" fill="#E84C3D"/>
<path fill-rule="evenodd" clip-rule="evenodd" d="M13.8474 119.269L15.9204 117.706C16.2443 117.463 16.714 117.528 16.9569 117.852L32.1479 138.007C32.3909 138.331 32.3261 138.8 32.0022 139.043L29.9292 140.606C29.6053 140.849 29.1356 140.784 28.8927 140.46L13.7017 120.305C13.4587 119.981 13.5235 119.512 13.8474 119.269Z" fill="#DCA700"/>
<path fill-rule="evenodd" clip-rule="evenodd" d="M10.1473 124.524L21.994 115.593C22.3503 115.326 22.8604 115.398 23.1277 115.755L26.3019 119.965C26.5691 120.322 26.4963 120.832 26.14 121.099L14.2932 130.031C13.9369 130.298 13.4268 130.225 13.1596 129.869L9.98531 125.658C9.71809 125.302 9.79096 124.792 10.1473 124.524Z" fill="#9D4EC5"/>
<path fill-rule="evenodd" clip-rule="evenodd" d="M171.232 7.56317C173.192 9.52279 173.192 12.7051 171.232 14.6647C169.653 16.2438 167.28 16.5515 165.394 15.5879L160.381 20.6003L161.96 22.1793C162.049 22.2684 162.049 22.4141 161.96 22.5113L161.361 23.1105C161.272 23.1996 161.126 23.1996 161.029 23.1105L159.45 21.5315L158.656 22.3251L160.705 24.3737C160.794 24.4628 160.794 24.6086 160.705 24.7057L159.588 25.8232C159.499 25.9123 159.353 25.9123 159.256 25.8232L157.207 23.7745L156.891 24.0903C156.681 24.3009 156.332 24.3009 156.114 24.0903L154.705 22.6813C154.494 22.4708 154.494 22.1145 154.705 21.904L163.199 13.4096C162.236 11.5229 162.543 9.1503 164.122 7.57127C166.082 5.61166 169.264 5.61166 171.224 7.57127L171.232 7.56317ZM169.726 9.06932C170.317 9.66045 170.317 10.616 169.726 11.2071C169.135 11.7982 168.179 11.7982 167.588 11.2071C166.997 10.616 166.997 9.66045 167.588 9.06932C168.179 8.4782 169.135 8.4782 169.726 9.06932Z" fill="#DCA700"/>
<path fill-rule="evenodd" clip-rule="evenodd" d="M214.546 66.0034H226.028V91.6241H205.93V75.4452L214.546 66.0034Z" fill="#E9E5F6"/>
<path fill-rule="evenodd" clip-rule="evenodd" d="M214.513 66.0034V74.8703C214.513 75.1537 214.278 75.3885 213.995 75.3885H205.938L214.521 66.0034H214.513Z" fill="#D7D1EB"/>
<path fill-rule="evenodd" clip-rule="evenodd" d="M266.702 147.125L264.184 144.606L276.678 132.112L276.873 131.083L279.164 129.423L281.464 127.771L282.5 128.808L283.537 129.844L281.885 132.144L280.233 134.436L279.197 134.63L266.702 147.125Z" fill="#E9E5F6"/>
<path fill-rule="evenodd" clip-rule="evenodd" d="M266.046 149.335L261.973 145.262C261.738 145.027 261.738 144.639 261.973 144.404L263.463 142.914C263.698 142.679 264.086 142.679 264.321 142.914L268.394 146.987C268.629 147.222 268.629 147.611 268.394 147.845L266.904 149.335C266.67 149.57 266.281 149.57 266.046 149.335Z" fill="#00AC65"/>
<path fill-rule="evenodd" clip-rule="evenodd" d="M245.947 165.36C244.044 163.457 244.044 160.34 245.947 158.429L259.624 144.752C260.474 143.902 261.858 143.902 262.709 144.752L266.547 148.59C267.397 149.44 267.397 150.825 266.547 151.675L252.87 165.352C250.967 167.255 247.85 167.255 245.939 165.352L245.947 165.36Z" fill="#A4C639"/>
<path fill-rule="evenodd" clip-rule="evenodd" d="M248.596 162.712C248.296 162.413 248.296 161.919 248.596 161.619L262.078 148.137C262.378 147.837 262.872 147.837 263.171 148.137C263.471 148.436 263.471 148.93 263.171 149.23L249.689 162.712C249.389 163.012 248.895 163.012 248.596 162.712Z" fill="#00AC65"/>
<path fill-rule="evenodd" clip-rule="evenodd" d="M250.635 164.753C250.335 164.453 250.335 163.959 250.635 163.66L264.117 150.177C264.417 149.878 264.911 149.878 265.21 150.177C265.51 150.477 265.51 150.971 265.21 151.271L251.728 164.753C251.428 165.053 250.934 165.053 250.635 164.753Z" fill="#00AC65"/>
<path fill-rule="evenodd" clip-rule="evenodd" d="M246.553 160.672C246.253 160.372 246.253 159.878 246.553 159.579L260.035 146.096C260.335 145.797 260.829 145.797 261.128 146.096C261.428 146.396 261.428 146.89 261.128 147.189L247.646 160.672C247.346 160.972 246.852 160.972 246.553 160.672Z" fill="#00AC65"/>
<path fill-rule="evenodd" clip-rule="evenodd" d="M79.3231 85.2271L81.8415 87.7454L69.3469 100.248L69.1607 101.276L66.861 102.928L64.5694 104.58L63.5248 103.544L62.4883 102.507L64.1483 100.208L65.8002 97.9159L66.8286 97.7297L79.3231 85.2271Z" fill="#E9E5F6"/>
<path fill-rule="evenodd" clip-rule="evenodd" d="M79.9854 83.016L84.0584 87.0891C84.2933 87.3239 84.2933 87.7126 84.0584 87.9474L82.5685 89.4373C82.3337 89.6722 81.945 89.6722 81.7101 89.4373L77.6371 85.3643C77.4022 85.1294 77.4022 84.7408 77.6371 84.5059L79.127 83.016C79.3618 82.7811 79.7505 82.7811 79.9854 83.016Z" fill="#00AC65"/>
<path fill-rule="evenodd" clip-rule="evenodd" d="M100.078 66.9992C101.981 68.9021 101.981 72.0197 100.078 73.9307L86.4009 87.6075C85.5507 88.4578 84.166 88.4578 83.3158 87.6075L79.4775 83.7693C78.6273 82.919 78.6273 81.5343 79.4775 80.6841L93.1543 67.0073C95.0573 65.1043 98.1748 65.1043 100.086 67.0073L100.078 66.9992Z" fill="#A4C639"/>
<path fill-rule="evenodd" clip-rule="evenodd" d="M97.4292 69.6393C97.7289 69.9389 97.7289 70.4328 97.4292 70.7324L83.9468 84.2149C83.6472 84.5145 83.1532 84.5145 82.8536 84.2149C82.554 83.9153 82.554 83.4213 82.8536 83.1217L96.3361 69.6393C96.6357 69.3396 97.1296 69.3396 97.4292 69.6393Z" fill="#00AC65"/>
<path fill-rule="evenodd" clip-rule="evenodd" d="M95.3902 67.5982C95.6898 67.8979 95.6898 68.3918 95.3902 68.6914L81.9077 82.1739C81.6081 82.4735 81.1142 82.4735 80.8146 82.1739C80.5149 81.8743 80.5149 81.3803 80.8146 81.0807L94.297 67.5982C94.5966 67.2986 95.0906 67.2986 95.3902 67.5982Z" fill="#00AC65"/>
<path fill-rule="evenodd" clip-rule="evenodd" d="M99.4683 71.6876C99.7679 71.9872 99.7679 72.4812 99.4683 72.7808L85.9859 86.2632C85.6862 86.5628 85.1923 86.5628 84.8927 86.2632C84.5931 85.9636 84.5931 85.4697 84.8927 85.1701L98.367 71.6876C98.6667 71.388 99.1606 71.388 99.4602 71.6876H99.4683Z" fill="#00AC65"/>
<path fill-rule="evenodd" clip-rule="evenodd" d="M106.707 17.0698L97.7103 28.8923L97.0058 29.8235L95.9531 29.0219L106.707 14.8916L117.46 29.0219L116.408 29.8235L115.606 28.7708L106.707 17.0698Z" fill="#33AEFF"/>
<path fill-rule="evenodd" clip-rule="evenodd" d="M106.71 10.8994C109.512 10.8994 111.787 13.1748 111.787 15.9766C111.787 18.7784 109.512 21.0538 106.71 21.0538C103.908 21.0538 101.633 18.7784 101.633 15.9766C101.633 13.1748 103.908 10.8994 106.71 10.8994Z" fill="#0D68BE"/>
<path fill-rule="evenodd" clip-rule="evenodd" d="M96.878 23.8232C99.6797 23.8232 101.955 26.0987 101.955 28.9004C101.955 31.7022 99.6797 33.9776 96.878 33.9776C94.0762 33.9776 91.8008 31.7022 91.8008 28.9004C91.8008 26.0987 94.0762 23.8232 96.878 23.8232Z" fill="#0D68BE"/>
<path fill-rule="evenodd" clip-rule="evenodd" d="M116.53 23.8232C119.332 23.8232 121.607 26.0987 121.607 28.9004C121.607 31.7022 119.332 33.9776 116.53 33.9776C113.729 33.9776 111.453 31.7022 111.453 28.9004C111.453 26.0987 113.729 23.8232 116.53 23.8232Z" fill="#0D68BE"/>
<path fill-rule="evenodd" clip-rule="evenodd" d="M154.024 1.95162L146.631 17.3856C146.307 18.0658 145.489 18.3492 144.809 18.0253C144.129 17.7014 143.845 16.8835 144.169 16.2034L151.57 0.777474C151.894 0.0972775 152.712 -0.186138 153.392 0.137765C154.072 0.461668 154.356 1.27952 154.032 1.95972L154.024 1.95162Z" fill="#9D4EC5"/>
<path fill-rule="evenodd" clip-rule="evenodd" d="M131.473 9.87081L125.845 15.8954C125.311 16.4703 125.343 17.3611 125.91 17.8955C126.485 18.4299 127.376 18.3976 127.91 17.8307L135.643 9.5469L126.728 2.5425C126.112 2.05665 125.222 2.17001 124.736 2.78543C124.25 3.40085 124.363 4.29158 124.979 4.77743L131.465 9.87081H131.473Z" fill="#9D4EC5"/>
<path fill-rule="evenodd" clip-rule="evenodd" d="M145.731 2.59127L138.338 18.0252C138.014 18.7054 137.196 18.9889 136.516 18.665C135.836 18.3411 135.552 17.5232 135.876 16.843L143.269 1.41712C143.593 0.736926 144.411 0.453511 145.091 0.777414C145.771 1.10132 146.055 1.91917 145.731 2.59937V2.59127Z" fill="#9D4EC5"/>
<path fill-rule="evenodd" clip-rule="evenodd" d="M251.283 123.407C251.38 123.091 251.696 122.857 252.02 122.857H253.161C253.566 122.857 253.898 123.213 253.898 123.65V125.407C253.898 125.488 253.955 125.545 254.028 125.545C254.101 125.545 254.157 125.48 254.157 125.407V124.282H254.165C254.214 123.925 254.506 123.65 254.846 123.65H255.85C256.23 123.65 256.538 123.982 256.538 124.395V126.436C256.538 126.517 256.595 126.581 256.668 126.581C256.74 126.581 256.797 126.517 256.797 126.436V125.083C256.797 124.751 257 124.654 257.364 124.743C258.247 124.954 259.016 125.634 259.016 126.719V131.48C259.016 132.566 258.271 133.456 257.364 133.456H250.052C249.056 133.529 248.627 133.173 247.866 132.153L245.039 128.549C242.813 125.707 245.493 123.731 247.509 126.314L247.76 126.638V119.172C247.76 118.217 248.489 117.431 249.38 117.431C250.271 117.431 250.999 118.217 250.999 119.172V124.784C250.999 124.865 251.056 124.921 251.129 124.921C251.202 124.921 251.258 124.857 251.258 124.784V123.423L251.283 123.407Z" fill="#D7D1EB"/>
<path fill-rule="evenodd" clip-rule="evenodd" d="M247.799 133.448H258.561C259.265 133.448 259.848 134.023 259.848 134.736V137.489C259.848 138.193 259.273 138.776 258.561 138.776H247.799C247.095 138.776 246.512 138.202 246.512 137.489V134.736C246.512 134.031 247.087 133.448 247.799 133.448Z" fill="#33AEFF"/>
<path fill-rule="evenodd" clip-rule="evenodd" d="M260.894 41.8076L263.955 41.8562L265.534 39.2245L264.044 36.5442L260.813 36.4875C260.756 36.4875 260.716 36.4713 260.667 36.447L260.157 36.1393C260.076 36.0907 260.027 36.0098 260.019 35.9126C260.019 35.8154 260.052 35.7263 260.125 35.6697C261.817 34.3093 264.182 34.1473 266.044 35.2648C268.093 36.4956 268.992 38.9168 268.376 41.1112L283.097 56.3347C284.377 56.027 285.778 56.197 286.992 56.9258C288.855 58.0433 289.827 60.2053 289.422 62.335C289.406 62.4321 289.349 62.505 289.26 62.5455C289.171 62.586 289.074 62.5779 288.993 62.5293L288.482 62.2216C288.434 62.1973 288.401 62.1568 288.377 62.1163L286.806 59.2903L283.745 59.2417L282.166 61.8734L283.656 64.5537L286.887 64.6104C286.944 64.6104 286.984 64.6266 287.033 64.6509L287.543 64.9586C287.624 65.0072 287.673 65.0881 287.681 65.1853C287.681 65.2825 287.648 65.3716 287.575 65.4282C285.883 66.7886 283.519 66.9506 281.656 65.8331C279.607 64.6023 278.709 62.1811 279.324 59.9867L264.603 44.7632C263.323 45.0709 261.922 44.9009 260.708 44.1721C258.845 43.0546 257.874 40.8926 258.278 38.7548C258.295 38.6577 258.351 38.5848 258.44 38.5443C258.529 38.5038 258.627 38.5119 258.708 38.5605L259.218 38.8682C259.266 38.8925 259.299 38.933 259.323 38.9735L260.894 41.7995V41.8076Z" fill="#E9E5F6"/>
<path fill-rule="evenodd" clip-rule="evenodd" d="M270.715 45.6133L278.683 53.8566C279.136 54.3263 279.12 55.0712 278.659 55.5247C278.189 55.9782 277.444 55.962 276.991 55.5004L269.023 47.2571C268.569 46.7874 268.585 46.0424 269.047 45.589C269.517 45.1355 270.261 45.1517 270.715 45.6133Z" fill="#D7D1EB"/>
<path fill-rule="evenodd" clip-rule="evenodd" d="M102.58 95.0897L104.75 92.9196L103.956 89.9559L100.992 89.1623L98.7089 91.4458C98.7089 91.4458 98.6279 91.5106 98.5793 91.5187L98.0044 91.6725C97.9072 91.6968 97.8181 91.6725 97.7452 91.6159C97.6724 91.5511 97.6319 91.462 97.6481 91.3648C97.8505 89.2028 99.3729 87.3889 101.478 86.8302C103.786 86.2148 106.151 87.2513 107.3 89.219H128.476C129.14 88.0853 130.241 87.1946 131.609 86.8302C133.707 86.2634 135.942 87.0731 137.189 88.8465C137.245 88.9275 137.253 89.0165 137.221 89.1137C137.189 89.2028 137.116 89.2676 137.027 89.2919L136.452 89.4457C136.403 89.4619 136.354 89.4619 136.306 89.4457L133.188 88.6117L131.018 90.7818L131.812 93.7455L134.775 94.5391L137.059 92.2556C137.059 92.2556 137.14 92.1908 137.189 92.1827L137.763 92.0288C137.861 92.0045 137.95 92.0288 138.023 92.0855C138.095 92.1503 138.136 92.2394 138.128 92.3365C137.925 94.4986 136.403 96.3125 134.298 96.8712C131.99 97.4866 129.625 96.4501 128.476 94.4824H107.3C106.636 95.6161 105.535 96.5068 104.167 96.8712C102.069 97.438 99.8344 96.6283 98.5874 94.8549C98.5307 94.7739 98.5145 94.6848 98.555 94.5877C98.5874 94.4986 98.6603 94.4338 98.7493 94.4095L99.3243 94.2557C99.3729 94.2395 99.4214 94.2395 99.47 94.2557L102.588 95.0897H102.58Z" fill="#E9E5F6"/>
<path fill-rule="evenodd" clip-rule="evenodd" d="M112.143 90.6763H123.609C124.257 90.6763 124.783 91.2026 124.783 91.8504C124.783 92.4982 124.257 93.0246 123.609 93.0246H112.143C111.495 93.0246 110.969 92.4982 110.969 91.8504C110.969 91.2026 111.495 90.6763 112.143 90.6763Z" fill="#D7D1EB"/>
<path fill-rule="evenodd" clip-rule="evenodd" d="M154.201 36.6093H166.193C167.473 36.6093 168.525 37.6539 168.525 38.9414V52.7154C168.525 53.9948 167.473 55.0475 166.193 55.0475H141.617C140.338 55.0475 139.285 54.0029 139.285 52.7154V34.6011C139.285 33.3217 140.33 32.269 141.617 32.269H150.597C151.877 32.269 152.241 33.5161 152.93 34.6011L154.209 36.6093H154.201Z" fill="#F7E041"/>
<path fill-rule="evenodd" clip-rule="evenodd" d="M186.139 56.5371C192.908 56.5371 198.398 62.0273 198.398 68.7968C198.398 75.5664 192.908 81.0566 186.139 81.0566C179.369 81.0566 173.879 75.5664 173.879 68.7968C173.879 62.0273 179.369 56.5371 186.139 56.5371ZM197.289 70.9832C196.479 71.712 195.37 72.2221 194.479 72.546C193.321 72.9671 192.058 73.2667 190.77 73.461C190.285 76.3519 189.361 78.684 188.195 79.9715C192.779 79.1293 196.398 75.5502 197.289 70.9832ZM189.872 73.5825C188.608 73.7364 187.337 73.8011 186.139 73.8011C184.94 73.8011 183.669 73.7364 182.406 73.5825C183.062 77.4612 184.487 80.1496 186.139 80.1496C187.791 80.1496 189.216 77.4612 189.872 73.5825ZM181.507 73.461C180.219 73.2586 178.964 72.9671 177.798 72.546C176.907 72.2221 175.798 71.7201 174.988 70.9832C175.879 75.5421 179.499 79.1293 184.082 79.9715C182.924 78.6921 181.993 76.3519 181.507 73.461ZM174.988 66.6024C175.798 65.8736 176.907 65.3635 177.798 65.0396C178.956 64.6185 180.219 64.3189 181.507 64.1245C181.993 61.2337 182.916 58.9016 184.082 57.6141C179.499 58.4562 175.879 62.0354 174.988 66.6024ZM182.406 64.0031C183.669 63.8492 184.94 63.7844 186.139 63.7844C187.337 63.7844 188.608 63.8492 189.872 64.0031C189.216 60.1243 187.791 57.4359 186.139 57.4359C184.487 57.4359 183.062 60.1243 182.406 64.0031ZM190.77 64.1245C192.058 64.327 193.313 64.6185 194.479 65.0396C195.37 65.3635 196.479 65.8655 197.289 66.6024C196.398 62.0435 192.779 58.4562 188.195 57.6141C189.353 58.8935 190.285 61.2337 190.77 64.1245ZM197.5 68.7887C197.5 70.4406 194.803 71.8739 190.908 72.5217C191.062 71.3476 191.143 70.0924 191.143 68.7887C191.143 67.485 191.062 66.2299 190.908 65.0558C194.803 65.7117 197.5 67.1368 197.5 68.7887ZM190.009 72.6594C188.803 72.8213 187.499 72.9023 186.139 72.9023C184.778 72.9023 183.475 72.8132 182.268 72.6594C182.106 71.4528 182.025 70.1491 182.025 68.7887C182.025 67.4283 182.114 66.1246 182.268 64.9181C183.475 64.7561 184.778 64.6752 186.139 64.6752C187.499 64.6752 188.803 64.7642 190.009 64.9181C190.171 66.1246 190.252 67.4283 190.252 68.7887C190.252 70.1491 190.163 71.4528 190.009 72.6594ZM181.369 72.5217C177.474 71.8658 174.778 70.4406 174.778 68.7887C174.778 67.1368 177.474 65.7036 181.369 65.0558C181.215 66.2299 181.134 67.485 181.134 68.7887C181.134 70.0924 181.215 71.3476 181.369 72.5217Z" fill="#33AEFF"/>
<path fill-rule="evenodd" clip-rule="evenodd" d="M225.872 49.2577L247.752 57.7278C247.889 57.7845 247.962 57.9383 247.905 58.076L247.063 60.2461L246.391 59.987C246.043 59.8494 245.654 60.0275 245.525 60.3676C245.395 60.7158 245.565 61.1045 245.905 61.2341L246.577 61.4932L245.67 63.8334L244.998 63.5743C244.65 63.4447 244.261 63.6147 244.132 63.9548C244.002 64.303 244.172 64.6917 244.512 64.8213L245.185 65.0804L244.342 67.2506C244.286 67.3882 244.132 67.4611 243.994 67.4044L234.334 63.6633L234.512 63.1937C234.642 62.8455 234.472 62.4568 234.131 62.3272C233.783 62.1977 233.395 62.3677 233.265 62.7078L233.087 63.1775L222.115 58.9343C221.977 58.8777 221.904 58.7238 221.961 58.5861L222.803 56.416L223.475 56.6751C223.823 56.8047 224.212 56.6346 224.341 56.2945C224.471 55.9463 224.301 55.5576 223.961 55.4281L223.289 55.169L224.196 52.8288L224.868 53.0879C225.216 53.2174 225.605 53.0474 225.734 52.7073C225.864 52.3591 225.694 51.9704 225.354 51.8409L224.682 51.5817L225.524 49.4116C225.58 49.2739 225.734 49.2092 225.872 49.2577Z" fill="#0D68BE"/>
<path fill-rule="evenodd" clip-rule="evenodd" d="M242.261 66.7486L234.852 63.8821L235.653 61.7524L243.071 64.619L242.261 66.7486Z" fill="#EBC800"/>
<path fill-rule="evenodd" clip-rule="evenodd" d="M232.554 62.9912L223.484 59.4849L224.286 57.3472L233.355 60.8615L232.554 62.9912Z" fill="#EBC800"/>
<path fill-rule="evenodd" clip-rule="evenodd" d="M233.223 53.1849L230.097 51.9783C230.032 51.9541 229.952 51.9783 229.927 52.0512L228.259 56.3672C228.235 56.432 228.259 56.513 228.332 56.5373L231.458 57.7438C231.531 57.7681 231.603 57.7438 231.628 57.6709L233.296 53.3549C233.32 53.2821 233.296 53.2092 233.223 53.1849Z" fill="#33AEFF"/>
<path fill-rule="evenodd" clip-rule="evenodd" d="M238.008 55.0394L234.882 53.8328C234.81 53.8085 234.737 53.8328 234.712 53.9057L233.044 58.2217C233.02 58.2946 233.044 58.3675 233.117 58.3918L236.243 59.5983C236.316 59.6226 236.389 59.5983 236.413 59.5254L238.081 55.2094C238.105 55.1365 238.081 55.0637 238.008 55.0394Z" fill="#33AEFF"/>
<path fill-rule="evenodd" clip-rule="evenodd" d="M242.797 56.8939L239.671 55.6873C239.599 55.663 239.526 55.6873 239.501 55.7602L237.833 60.0762C237.809 60.1491 237.833 60.222 237.906 60.2463L241.032 61.4609C241.105 61.4852 241.178 61.4609 241.202 61.388L242.87 57.072C242.894 56.9991 242.87 56.9263 242.797 56.902V56.8939Z" fill="#33AEFF"/>
<path fill-rule="evenodd" clip-rule="evenodd" d="M38.0357 82.7568H24.5937C23.1442 83.0564 22.043 84.344 22.043 85.8825V95.1137C22.043 96.8628 23.4762 98.3042 25.2334 98.3042H37.4122C39.1612 98.3042 40.6026 96.8709 40.6026 95.1137V85.8825C40.6026 84.344 39.5013 83.0564 38.0519 82.7568H38.0357Z" fill="#FFD900"/>
<path fill-rule="evenodd" clip-rule="evenodd" d="M31.3133 87.4536C32.3093 87.4536 33.1109 88.2553 33.1109 89.2513C33.1109 89.8748 32.787 90.4335 32.3012 90.7493C32.3093 90.806 32.3174 90.8627 32.3174 90.9194V92.0206C32.3174 92.5713 31.8639 93.0247 31.3133 93.0247C30.7626 93.0247 30.3092 92.5713 30.3092 92.0206V90.9194C30.3092 90.8627 30.3092 90.806 30.3254 90.7493C29.8395 90.4254 29.5156 89.8748 29.5156 89.2513C29.5156 88.2553 30.3173 87.4536 31.3133 87.4536Z" fill="#DCA700"/>
<path fill-rule="evenodd" clip-rule="evenodd" d="M38.0357 78.5706C38.0357 74.8781 35.0153 71.8496 31.3147 71.8496C27.6141 71.8496 24.5938 74.87 24.5938 78.5706V82.757H38.0357V78.5706ZM35.3878 82.6923H27.2417V78.5706C27.2417 76.3357 29.0798 74.4975 31.3147 74.4975C33.5497 74.4975 35.3878 76.3357 35.3878 78.5706V82.6923Z" fill="#E9E5F6"/>
<path fill-rule="evenodd" clip-rule="evenodd" d="M94.3121 44.65H93.0974V43.4354C93.0974 42.6823 92.482 42.0669 91.729 42.0669C90.9759 42.0669 90.3605 42.6823 90.3605 43.4354V44.65H89.1458C88.3928 44.65 87.7773 45.2654 87.7773 46.0185C87.7773 46.7716 88.3928 47.387 89.1458 47.387H90.3605V48.6016C90.3605 49.3547 90.9759 49.9701 91.729 49.9701C92.482 49.9701 93.0974 49.3547 93.0974 48.6016V47.387H94.3121C95.0652 47.387 95.6806 46.7716 95.6806 46.0185C95.6806 45.2654 95.0652 44.65 94.3121 44.65Z" fill="#F7E041"/>
<path fill-rule="evenodd" clip-rule="evenodd" d="M252.718 43.8888H251.504V42.6742C251.504 41.9211 250.888 41.3057 250.135 41.3057C249.382 41.3057 248.767 41.9211 248.767 42.6742V43.8888H247.552C246.799 43.8888 246.184 44.5042 246.184 45.2573C246.184 46.0104 246.799 46.6258 247.552 46.6258H248.767V47.8404C248.767 48.5935 249.382 49.2089 250.135 49.2089C250.888 49.2089 251.504 48.5935 251.504 47.8404V46.6258H252.718C253.471 46.6258 254.087 46.0104 254.087 45.2573C254.087 44.5042 253.471 43.8888 252.718 43.8888Z" fill="#F7E041"/>
<path fill-rule="evenodd" clip-rule="evenodd" d="M44.3824 184.074H43.1678V182.86C43.1678 182.107 42.5523 181.491 41.7993 181.491C41.0462 181.491 40.4308 182.107 40.4308 182.86V184.074H39.2161C38.4631 184.074 37.8477 184.69 37.8477 185.443C37.8477 186.196 38.4631 186.811 39.2161 186.811H40.4308V188.026C40.4308 188.779 41.0462 189.394 41.7993 189.394C42.5523 189.394 43.1678 188.779 43.1678 188.026V186.811H44.3824C45.1355 186.811 45.7509 186.196 45.7509 185.443C45.7509 184.69 45.1355 184.074 44.3824 184.074Z" fill="#F7E041"/>
<path fill-rule="evenodd" clip-rule="evenodd" d="M271.398 122.111H270.183V120.897C270.183 120.144 269.568 119.528 268.815 119.528C268.062 119.528 267.446 120.144 267.446 120.897V122.111H266.232C265.479 122.111 264.863 122.727 264.863 123.48C264.863 124.233 265.479 124.848 266.232 124.848H267.446V126.063C267.446 126.816 268.062 127.432 268.815 127.432C269.568 127.432 270.183 126.816 270.183 126.063V124.848H271.398C272.151 124.848 272.767 124.233 272.767 123.48C272.767 122.727 272.151 122.111 271.398 122.111Z" fill="#F7E041"/>
<path fill-rule="evenodd" clip-rule="evenodd" d="M304.777 175.304H303.562V174.09C303.562 173.337 302.947 172.721 302.194 172.721C301.441 172.721 300.825 173.337 300.825 174.09V175.304H299.611C298.858 175.304 298.242 175.92 298.242 176.673C298.242 177.426 298.858 178.041 299.611 178.041H300.825V179.256C300.825 180.009 301.441 180.624 302.194 180.624C302.947 180.624 303.562 180.009 303.562 179.256V178.041H304.777C305.53 178.041 306.145 177.426 306.145 176.673C306.145 175.92 305.53 175.304 304.777 175.304Z" fill="#33AEFF"/>
<path fill-rule="evenodd" clip-rule="evenodd" d="M243.445 76.3361H242.23V75.1214C242.23 74.3683 241.615 73.7529 240.862 73.7529C240.109 73.7529 239.493 74.3683 239.493 75.1214V76.3361H238.279C237.526 76.3361 236.91 76.9515 236.91 77.7045C236.91 78.4576 237.526 79.073 238.279 79.073H239.493V80.2877C239.493 81.0407 240.109 81.6562 240.862 81.6562C241.615 81.6562 242.23 81.0407 242.23 80.2877V79.073H243.445C244.198 79.073 244.813 78.4576 244.813 77.7045C244.813 76.9515 244.198 76.3361 243.445 76.3361Z" fill="#A4C639"/>
<path fill-rule="evenodd" clip-rule="evenodd" d="M17.3199 105.195H16.1053V103.981C16.1053 103.228 15.4898 102.612 14.7368 102.612C13.9837 102.612 13.3683 103.228 13.3683 103.981V105.195H12.1536C11.4006 105.195 10.7852 105.811 10.7852 106.564C10.7852 107.317 11.4006 107.932 12.1536 107.932H13.3683V109.147C13.3683 109.9 13.9837 110.516 14.7368 110.516C15.4898 110.516 16.1053 109.9 16.1053 109.147V107.932H17.3199C18.073 107.932 18.6884 107.317 18.6884 106.564C18.6884 105.811 18.073 105.195 17.3199 105.195Z" fill="#33AEFF"/>
<path fill-rule="evenodd" clip-rule="evenodd" d="M179.449 181.159H178.234V179.944C178.234 179.191 177.619 178.576 176.866 178.576C176.113 178.576 175.497 179.191 175.497 179.944V181.159H174.283C173.529 181.159 172.914 181.774 172.914 182.527C172.914 183.28 173.529 183.896 174.283 183.896H175.497V185.11C175.497 185.864 176.113 186.479 176.866 186.479C177.619 186.479 178.234 185.864 178.234 185.11V183.896H179.449C180.202 183.896 180.817 183.28 180.817 182.527C180.817 181.774 180.202 181.159 179.449 181.159Z" fill="#F7E041"/>
<path fill-rule="evenodd" clip-rule="evenodd" d="M66.4666 118.313H72.1349C72.8313 118.313 73.4063 118.88 73.4063 119.585V128.913C73.4063 129.61 72.8394 130.185 72.1349 130.185H66.4666C65.7702 130.185 65.1953 129.61 65.1953 128.913V119.585C65.1953 118.888 65.7702 118.313 66.4666 118.313Z" fill="#0068C2"/>
<path fill-rule="evenodd" clip-rule="evenodd" d="M65.2031 125.537H73.406V126.265H65.2031V125.537Z" fill="#00B1FF"/>
<path fill-rule="evenodd" clip-rule="evenodd" d="M67.9956 117.577H70.6111C71.0889 117.577 71.4857 117.965 71.4857 118.451V122.022C71.4857 122.5 71.097 122.897 70.6111 122.897H70.3844V126.686C70.3844 126.84 70.2549 126.97 70.101 126.97H68.5058C68.3519 126.97 68.2224 126.84 68.2224 126.686V122.897H67.9956C67.5179 122.897 67.1211 122.508 67.1211 122.022V118.451C67.1211 117.973 67.5098 117.577 67.9956 117.577Z" fill="#00B1FF"/>
<path d="M83.1944 163.344H73.6068C70.3435 163.344 67.6875 160.688 67.6875 157.425V130.039H70.9265V157.425C70.9265 158.907 72.125 160.105 73.6068 160.105H83.1944V163.344Z" fill="#D7D1EB"/>
<path fill-rule="evenodd" clip-rule="evenodd" d="M128.672 41.5485C128.672 42.7146 127.725 43.662 126.559 43.662C125.393 43.662 124.445 42.7146 124.445 41.5485C124.445 40.3825 125.393 39.4351 126.559 39.4351C127.725 39.4351 128.672 40.3825 128.672 41.5485Z" fill="#E84C3D"/>
<path fill-rule="evenodd" clip-rule="evenodd" d="M270.93 82.3928C270.93 83.5588 269.983 84.5062 268.817 84.5062C267.651 84.5062 266.703 83.5588 266.703 82.3928C266.703 81.2267 267.651 80.2793 268.817 80.2793C269.983 80.2793 270.93 81.2267 270.93 82.3928Z" fill="#E84C3D"/>
<path fill-rule="evenodd" clip-rule="evenodd" d="M248.442 181.491C248.442 182.657 247.494 183.604 246.328 183.604C245.162 183.604 244.215 182.657 244.215 181.491C244.215 180.325 245.162 179.377 246.328 179.377C247.494 179.377 248.442 180.325 248.442 181.491Z" fill="#E84C3D"/>
<path fill-rule="evenodd" clip-rule="evenodd" d="M172.914 191.168C172.914 192.334 171.967 193.281 170.801 193.281C169.635 193.281 168.688 192.334 168.688 191.168C168.688 190.002 169.635 189.054 170.801 189.054C171.967 189.054 172.914 190.002 172.914 191.168Z" fill="#E84C3D"/>
<path d="M192.891 89.5673C194.058 89.5673 195.004 88.621 195.004 87.4538C195.004 86.2866 194.058 85.3403 192.891 85.3403C191.724 85.3403 190.777 86.2866 190.777 87.4538C190.777 88.621 191.724 89.5673 192.891 89.5673Z" fill="#DCA700"/>
<path fill-rule="evenodd" clip-rule="evenodd" d="M319.164 188.325C319.164 189.491 318.217 190.439 317.051 190.439C315.885 190.439 314.938 189.491 314.938 188.325C314.938 187.159 315.885 186.212 317.051 186.212C318.217 186.212 319.164 187.159 319.164 188.325Z" fill="#DCA700"/>
<path d="M59.8752 90.3529C61.0424 90.3529 61.9887 89.4067 61.9887 88.2394C61.9887 87.0722 61.0424 86.126 59.8752 86.126C58.708 86.126 57.7617 87.0722 57.7617 88.2394C57.7617 89.4067 58.708 90.3529 59.8752 90.3529Z" fill="#A4C639"/>
<path fill-rule="evenodd" clip-rule="evenodd" d="M285.649 151.271C285.649 152.437 284.701 153.384 283.535 153.384C282.369 153.384 281.422 152.437 281.422 151.271C281.422 150.105 282.369 149.157 283.535 149.157C284.701 149.157 285.649 150.105 285.649 151.271Z" fill="#A4C639"/>
<path fill-rule="evenodd" clip-rule="evenodd" d="M212.336 53.8166C212.336 54.9826 211.389 55.9301 210.223 55.9301C209.057 55.9301 208.109 54.9826 208.109 53.8166C208.109 52.6505 209.057 51.7031 210.223 51.7031C211.389 51.7031 212.336 52.6505 212.336 53.8166Z" fill="#A4C639"/>
<path fill-rule="evenodd" clip-rule="evenodd" d="M78.3597 144.112C78.3597 145.279 77.4123 146.226 76.2463 146.226C75.0802 146.226 74.1328 145.279 74.1328 144.112C74.1328 142.946 75.0802 141.999 76.2463 141.999C77.4123 141.999 78.3597 142.946 78.3597 144.112Z" fill="#A4C639"/>
<path fill-rule="evenodd" clip-rule="evenodd" d="M12.8988 186.665C12.8988 187.831 11.9514 188.779 10.7853 188.779C9.61929 188.779 8.67188 187.831 8.67188 186.665C8.67188 185.499 9.61929 184.552 10.7853 184.552C11.9514 184.552 12.8988 185.499 12.8988 186.665Z" fill="#DCA700"/>
<path fill-rule="evenodd" clip-rule="evenodd" d="M35.223 153.384C35.223 154.551 34.2756 155.498 33.1096 155.498C31.9435 155.498 30.9961 154.551 30.9961 153.384C30.9961 152.218 31.9435 151.271 33.1096 151.271C34.2756 151.271 35.223 152.218 35.223 153.384Z" fill="#E84C3D"/>
<path fill-rule="evenodd" clip-rule="evenodd" d="M95.9151 116.492L97.8828 118.298C98.069 118.468 98.0852 118.759 97.9071 118.945C97.737 119.132 97.4455 119.148 97.2593 118.97L94.5547 116.484L97.2593 113.998C97.4455 113.828 97.737 113.836 97.9071 114.022C98.0771 114.208 98.069 114.5 97.8828 114.67L95.9151 116.476V116.492Z" fill="#D7D1EB"/>
<path fill-rule="evenodd" clip-rule="evenodd" d="M105.226 116.492L103.259 118.298C103.072 118.468 103.056 118.759 103.234 118.945C103.404 119.132 103.696 119.148 103.882 118.97L106.587 116.484L103.882 113.998C103.696 113.828 103.404 113.836 103.234 114.022C103.064 114.208 103.072 114.5 103.259 114.67L105.226 116.476V116.492Z" fill="#D7D1EB"/>
<path fill-rule="evenodd" clip-rule="evenodd" d="M102.303 113.512C102.522 113.642 102.595 113.917 102.473 114.136L99.4936 119.302C99.364 119.52 99.0887 119.593 98.87 119.472L98.8457 119.456C98.6271 119.326 98.5542 119.051 98.6757 118.832L101.639 113.69C101.777 113.455 102.069 113.374 102.303 113.512Z" fill="#D7D1EB"/>
<path fill-rule="evenodd" clip-rule="evenodd" d="M95.9151 155.587L97.8828 157.393C98.069 157.563 98.0852 157.854 97.9071 158.041C97.737 158.227 97.4455 158.243 97.2593 158.065L94.5547 155.579L97.2593 153.093C97.4455 152.923 97.737 152.931 97.9071 153.117C98.0771 153.303 98.069 153.595 97.8828 153.765L95.9151 155.571V155.587Z" fill="#D7D1EB"/>
<path fill-rule="evenodd" clip-rule="evenodd" d="M105.226 155.587L103.259 157.393C103.072 157.563 103.056 157.854 103.234 158.041C103.404 158.227 103.696 158.243 103.882 158.065L106.587 155.579L103.882 153.093C103.696 152.923 103.404 152.931 103.234 153.117C103.064 153.303 103.072 153.595 103.259 153.765L105.226 155.571V155.587Z" fill="#D7D1EB"/>
<path fill-rule="evenodd" clip-rule="evenodd" d="M102.303 152.615C102.522 152.745 102.595 153.02 102.473 153.239L99.4936 158.405C99.364 158.623 99.0887 158.696 98.87 158.575L98.8457 158.559C98.6271 158.429 98.5542 158.154 98.6757 157.935L101.639 152.793C101.777 152.558 102.069 152.477 102.303 152.615Z" fill="#D7D1EB"/>
<path fill-rule="evenodd" clip-rule="evenodd" d="M126.614 144.899L128.582 146.704C128.768 146.874 128.784 147.166 128.606 147.352C128.436 147.538 128.145 147.555 127.959 147.376L125.254 144.89L127.959 142.404C128.145 142.234 128.436 142.243 128.606 142.429C128.776 142.615 128.768 142.907 128.582 143.077L126.614 144.882V144.899Z" fill="#D7D1EB"/>
<path fill-rule="evenodd" clip-rule="evenodd" d="M135.926 144.899L133.958 146.704C133.772 146.874 133.755 147.166 133.934 147.352C134.104 147.538 134.395 147.555 134.581 147.376L137.286 144.89L134.581 142.404C134.395 142.234 134.104 142.243 133.934 142.429C133.763 142.615 133.772 142.907 133.958 143.077L135.926 144.882V144.899Z" fill="#D7D1EB"/>
<path fill-rule="evenodd" clip-rule="evenodd" d="M133.003 141.927C133.221 142.056 133.294 142.331 133.173 142.55L130.193 147.716C130.063 147.935 129.788 148.008 129.569 147.886L129.545 147.87C129.326 147.741 129.253 147.465 129.375 147.247L132.339 142.105C132.476 141.87 132.768 141.789 133.003 141.927Z" fill="#D7D1EB"/>
<path d="M106.589 126.104H96.2973C95.9815 126.104 95.7305 125.853 95.7305 125.537C95.7305 125.221 95.9815 124.97 96.2973 124.97H106.589C106.905 124.97 107.156 125.221 107.156 125.537C107.156 125.853 106.905 126.104 106.589 126.104Z" fill="#D7D1EB"/>
<path d="M124.824 126.104H114.532C114.216 126.104 113.965 125.853 113.965 125.537C113.965 125.221 114.216 124.97 114.532 124.97H124.824C125.139 124.97 125.391 125.221 125.391 125.537C125.391 125.853 125.139 126.104 124.824 126.104Z" fill="#D7D1EB"/>
<path d="M100.573 133.294H96.2973C95.9815 133.294 95.7305 133.043 95.7305 132.727C95.7305 132.412 95.9815 132.161 96.2973 132.161H100.573C100.889 132.161 101.14 132.412 101.14 132.727C101.14 133.043 100.889 133.294 100.573 133.294Z" fill="#D7D1EB"/>
<path d="M143.069 140.744H96.2895C95.9737 140.744 95.7227 140.493 95.7227 140.178C95.7227 139.862 95.9737 139.611 96.2895 139.611H143.069C143.385 139.611 143.636 139.862 143.636 140.178C143.636 140.493 143.385 140.744 143.069 140.744Z" fill="#D7D1EB"/>
<path d="M123.165 147.935H96.2973C95.9815 147.935 95.7305 147.684 95.7305 147.368C95.7305 147.052 95.9815 146.801 96.2973 146.801H123.165C123.481 146.801 123.732 147.052 123.732 147.368C123.732 147.684 123.481 147.935 123.165 147.935Z" fill="#D7D1EB"/>
<path d="M108.991 126.104C108.886 126.104 108.78 126.071 108.683 126.015C108.424 125.844 108.343 125.496 108.521 125.229L110.497 122.192C110.667 121.933 111.023 121.852 111.282 122.031C111.542 122.201 111.623 122.549 111.444 122.816L109.469 125.853C109.363 126.023 109.177 126.112 108.991 126.112V126.104Z" fill="#D7D1EB"/>
<path d="M102.53 133.294C102.425 133.294 102.319 133.262 102.222 133.205C101.963 133.035 101.882 132.687 102.06 132.42L104.036 129.383C104.206 129.124 104.562 129.043 104.822 129.221C105.081 129.391 105.162 129.74 104.984 130.007L103.008 133.043C102.902 133.214 102.716 133.303 102.53 133.303V133.294Z" fill="#D7D1EB"/>
<path d="M105.592 133.294C105.487 133.294 105.382 133.262 105.285 133.205C105.026 133.035 104.945 132.687 105.123 132.42L107.099 129.383C107.269 129.124 107.617 129.043 107.884 129.221C108.143 129.391 108.224 129.74 108.046 130.007L106.07 133.043C105.965 133.214 105.779 133.303 105.592 133.303V133.294Z" fill="#D7D1EB"/>
<path d="M145.854 140.744C145.749 140.744 145.644 140.712 145.546 140.655C145.287 140.485 145.206 140.137 145.385 139.87L147.36 136.833C147.53 136.566 147.887 136.493 148.146 136.671C148.405 136.841 148.486 137.189 148.308 137.457L146.332 140.493C146.227 140.663 146.04 140.752 145.854 140.752V140.744Z" fill="#D7D1EB"/>
</g>
<defs>
<clipPath id="clip0_633_614">
<rect width="322" height="193.273" fill="white"/>
</clipPath>
</defs>
</svg>
